<svg width="206" height="133" viewBox="0 0 206 133" fill="none" xmlns="http://www.w3.org/2000/svg">
<path d="M205.95 0H0V132.379H205.95V0Z" fill="white"/>
<path d="M141.871 25.6014V19.4033H142.921V24.6067H145.758V25.6014H141.871ZM146.219 24.4487C146.219 24.0847 146.336 23.7943 146.573 23.5783C146.809 23.3591 147.119 23.2211 147.503 23.1643L148.595 22.9975C148.805 22.9694 148.911 22.8664 148.911 22.6903C148.911 22.4999 148.844 22.3444 148.71 22.2251C148.576 22.1027 148.376 22.0415 148.108 22.0415C147.852 22.0415 147.648 22.114 147.494 22.2588C147.344 22.4043 147.257 22.5892 147.234 22.814L146.308 22.6048C146.348 22.2176 146.53 21.8892 146.854 21.6188C147.178 21.3484 147.592 21.2135 148.096 21.2135C148.412 21.2135 148.689 21.256 148.928 21.3416C149.167 21.4265 149.356 21.5451 149.495 21.6956C149.634 21.8436 149.737 22.0116 149.802 22.1995C149.871 22.3844 149.904 22.5867 149.904 22.8052V24.9183C149.904 25.1887 149.923 25.4166 149.96 25.6014H149.018C148.986 25.5078 148.97 25.3267 148.97 25.0594C148.854 25.2474 148.684 25.4066 148.463 25.5371C148.244 25.6682 147.977 25.7338 147.661 25.7338C147.231 25.7338 146.883 25.6083 146.615 25.3579C146.351 25.105 146.219 24.8015 146.219 24.4487ZM147.234 24.385C147.234 24.5386 147.288 24.6691 147.396 24.7778C147.507 24.8827 147.659 24.9358 147.852 24.9358C148 24.9358 148.136 24.917 148.258 24.8802C148.38 24.8402 148.491 24.7803 148.591 24.701C148.693 24.6179 148.771 24.5043 148.825 24.3594C148.882 24.2114 148.911 24.036 148.911 23.8343V23.642L147.801 23.8087C147.631 23.8368 147.493 23.8998 147.387 23.9966C147.285 24.0903 147.234 24.2196 147.234 24.385ZM150.583 24.4487L151.462 24.2014C151.479 24.4063 151.563 24.5786 151.714 24.7178C151.865 24.8571 152.069 24.927 152.328 24.927C152.527 24.927 152.683 24.8802 152.797 24.7859C152.911 24.6922 152.968 24.5767 152.968 24.4406C152.968 24.3238 152.926 24.2239 152.84 24.1415C152.758 24.0591 152.634 24.001 152.469 23.9666L151.837 23.8255C151.47 23.7431 151.188 23.5907 150.988 23.3691C150.792 23.1468 150.694 22.8851 150.694 22.5835C150.694 22.2076 150.845 21.8861 151.146 21.6188C151.451 21.3484 151.822 21.2135 152.26 21.2135C152.488 21.2135 152.693 21.2416 152.878 21.2985C153.066 21.3559 153.218 21.4265 153.335 21.512C153.452 21.5944 153.551 21.6912 153.633 21.8024C153.719 21.9135 153.781 22.0172 153.821 22.114C153.861 22.2108 153.888 22.3063 153.902 22.4L153.045 22.6479C153.036 22.5792 153.016 22.5111 152.985 22.4424C152.954 22.3744 152.909 22.3063 152.853 22.2376C152.796 22.1695 152.717 22.114 152.614 22.0715C152.511 22.0284 152.393 22.0072 152.26 22.0072C152.084 22.0072 151.937 22.0559 151.82 22.1527C151.704 22.2495 151.646 22.3644 151.646 22.498C151.646 22.6091 151.684 22.7047 151.76 22.784C151.84 22.8639 151.946 22.9164 152.076 22.942L152.72 23.0743C153.116 23.1599 153.419 23.3179 153.629 23.5483C153.84 23.7756 153.945 24.0491 153.945 24.3675C153.945 24.5355 153.911 24.6991 153.842 24.859C153.774 25.0151 153.676 25.1606 153.548 25.2942C153.421 25.4247 153.251 25.5302 153.04 25.6102C152.83 25.6926 152.595 25.7338 152.336 25.7338C152.046 25.7338 151.786 25.6895 151.556 25.6014C151.325 25.5159 151.143 25.4054 151.01 25.2686C150.879 25.1319 150.778 24.9951 150.707 24.859C150.638 24.7191 150.597 24.5823 150.583 24.4487ZM154.269 22.2464V21.3459H154.487C154.703 21.3459 154.867 21.2847 154.978 21.1623C155.089 21.0399 155.144 20.8789 155.144 20.6797V20.0396H156.061V21.3459H156.944V22.2464H156.061V24.2183C156.061 24.4063 156.104 24.543 156.189 24.6279C156.278 24.711 156.416 24.7522 156.603 24.7522C156.723 24.7522 156.839 24.7403 156.953 24.7178V25.559C156.808 25.6214 156.6 25.6526 156.33 25.6526C155.934 25.6526 155.623 25.5402 155.396 25.3154C155.168 25.0906 155.054 24.7803 155.054 24.385V22.2464H154.269ZM159.197 21.3459H160.345L161.565 24.0347L162.713 21.3459H163.788L161.079 27.3217H159.995L161.014 25.0938L159.197 21.3459ZM163.826 23.4502C163.826 23.123 163.883 22.8183 163.997 22.5367C164.114 22.252 164.267 22.0147 164.458 21.8236C164.649 21.6332 164.869 21.4839 165.119 21.3753C165.369 21.2672 165.628 21.2135 165.895 21.2135C166.544 21.2135 167.053 21.4127 167.423 21.8111C167.793 22.2095 167.977 22.7471 167.977 23.4247C167.977 23.6007 167.967 23.7088 167.947 23.7487H164.838C164.849 24.0703 164.967 24.3363 165.192 24.5474C165.416 24.7547 165.686 24.859 166.002 24.859C166.545 24.859 166.901 24.6111 167.069 24.1159L167.922 24.385C167.803 24.7778 167.575 25.1006 167.239 25.3541C166.903 25.607 166.491 25.7338 166.002 25.7338C165.712 25.7338 165.436 25.6826 165.175 25.5802C164.913 25.4747 164.681 25.3267 164.479 25.1362C164.28 24.9458 164.121 24.7047 164.001 24.415C163.885 24.1215 163.826 23.7999 163.826 23.4502ZM164.863 23.0063H166.953C166.945 22.7384 166.851 22.5155 166.672 22.3363C166.493 22.1539 166.237 22.0628 165.904 22.0628C165.602 22.0628 165.358 22.1583 165.17 22.3487C164.986 22.5392 164.883 22.7584 164.863 23.0063ZM168.507 24.4487C168.507 24.0847 168.625 23.7943 168.861 23.5783C169.096 23.3591 169.407 23.2211 169.79 23.1643L170.883 22.9975C171.094 22.9694 171.198 22.8664 171.198 22.6903C171.198 22.4999 171.132 22.3444 170.998 22.2251C170.865 22.1027 170.664 22.0415 170.396 22.0415C170.141 22.0415 169.936 22.114 169.782 22.2588C169.631 22.4043 169.545 22.5892 169.522 22.814L168.596 22.6048C168.636 22.2176 168.818 21.8892 169.142 21.6188C169.467 21.3484 169.88 21.2135 170.384 21.2135C170.699 21.2135 170.977 21.256 171.216 21.3416C171.454 21.4265 171.643 21.5451 171.783 21.6956C171.922 21.8436 172.025 22.0116 172.09 22.1995C172.158 22.3844 172.193 22.5867 172.193 22.8052V24.9183C172.193 25.1887 172.211 25.4166 172.248 25.6014H171.305C171.274 25.5078 171.258 25.3267 171.258 25.0594C171.142 25.2474 170.972 25.4066 170.75 25.5371C170.532 25.6682 170.264 25.7338 169.948 25.7338C169.519 25.7338 169.171 25.6083 168.903 25.3579C168.639 25.105 168.507 24.8015 168.507 24.4487ZM169.522 24.385C169.522 24.5386 169.576 24.6691 169.684 24.7778C169.795 24.8827 169.947 24.9358 170.141 24.9358C170.288 24.9358 170.423 24.917 170.546 24.8802C170.668 24.8402 170.779 24.7803 170.879 24.701C170.981 24.6179 171.059 24.5043 171.114 24.3594C171.17 24.2114 171.198 24.036 171.198 23.8343V23.642L170.089 23.8087C169.918 23.8368 169.78 23.8998 169.676 23.9966C169.573 24.0903 169.522 24.2196 169.522 24.385ZM173.247 25.6014V21.3459H174.232V22.0241C174.331 21.7936 174.491 21.6144 174.71 21.4864C174.932 21.3559 175.183 21.2904 175.465 21.2904C175.559 21.2904 175.648 21.2985 175.734 21.3159V22.3487C175.617 22.3319 175.506 22.3232 175.401 22.3232C174.639 22.3232 174.258 22.7403 174.258 23.5739V25.6014H173.247Z" fill="#8C87A6"/>
<path d="M183.484 24.3527L180.836 21.7033L181.719 20.8203L183.484 22.5868L185.249 20.8203L186.132 21.7033L183.484 24.3527Z" fill="#8C87A6"/>
<path d="M14.9785 102.073C37.3041 102.073 34.6661 58.363 56.9916 58.363C79.3173 58.363 76.6749 70.0187 99.0005 70.0187C121.326 70.0187 117.887 89.1681 140.213 89.1681C162.539 89.1681 168.647 70.0187 190.972 70.0187" stroke="#F5F5F5" stroke-width="1.05743" stroke-linecap="round"/>
<path d="M14.9785 102.407C36.7922 102.407 39.5787 70.8515 61.3924 70.8515C83.206 70.8515 79.5894 44.9595 101.403 44.9595C123.217 44.9595 122.8 81.5655 144.613 81.5655C166.427 81.5655 169.158 102.407 190.972 102.407" fill="url(#paint0_linear_2464_3750)" fill-opacity="0.16"/>
<path d="M19.329 119.891H20.1228L18.0109 114.578H17.1647L15.0527 119.891H15.8391L16.4008 118.407H18.7523L19.329 119.891ZM17.5691 115.343L18.4902 117.725H16.6629L17.5691 115.343ZM21.6077 117.059V115.238H22.6711C23.3077 115.238 23.6971 115.597 23.6971 116.159C23.6971 116.706 23.3077 117.059 22.6711 117.059H21.6077ZM22.8059 117.718C23.787 117.718 24.4461 117.051 24.4461 116.152C24.4461 115.26 23.787 114.578 22.8059 114.578H20.8738V119.891H21.6077V117.718H22.8059ZM28.0908 119.891H28.9446L27.6789 117.666C28.4802 117.516 28.967 116.924 28.967 116.159C28.967 115.283 28.3454 114.578 27.3419 114.578H25.3423V119.891H26.0837V117.718H26.8776L28.0908 119.891ZM26.0837 117.059V115.238H27.2071C27.8062 115.238 28.2106 115.597 28.2106 116.159C28.2106 116.706 27.8062 117.059 27.2071 117.059H26.0837Z" fill="#8C87A6"/>
<path d="M60.7073 119.891V114.578H59.7263L57.839 118.902L55.9668 114.578H54.9707V119.891H55.6971V115.755L57.4945 119.891H58.1685L59.9809 115.755V119.891H60.7073ZM65.7344 119.891H66.5282L64.4163 114.578H63.5701L61.4584 119.891H62.2448L62.8062 118.407H65.1577L65.7344 119.891ZM63.9745 115.343L64.8956 117.725H63.0683L63.9745 115.343ZM68.0629 117.621V119.891H68.7968V117.621L70.6691 114.578H69.8303L68.4523 116.946L67.0743 114.578H66.1906L68.0629 117.621Z" fill="#8C87A6"/>
<path d="M96.2598 118.31C96.2598 119.329 96.8739 120.003 97.9149 120.003C98.9034 120.003 99.51 119.232 99.51 118.302V114.578H98.7761V118.355C98.7761 118.969 98.4466 119.322 97.9074 119.322C97.3756 119.322 96.9937 119.007 96.9937 118.302V117.8L96.2598 117.965V118.31ZM102.619 120.003C103.698 120.003 104.529 119.329 104.529 118.078V114.578H103.795V118.055C103.795 118.864 103.368 119.322 102.619 119.322C101.878 119.322 101.436 118.864 101.436 118.055V114.578H100.71V118.078C100.71 119.329 101.541 120.003 102.619 120.003ZM110.168 119.891V114.578H109.434V118.655L106.783 114.578H105.801V119.891H106.535V115.56L109.404 119.891H110.168Z" fill="#8C87A6"/>
<path d="M136.201 118.31C136.201 119.329 136.815 120.003 137.856 120.003C138.845 120.003 139.451 119.232 139.451 118.302V114.578H138.718V118.355C138.718 118.969 138.388 119.322 137.849 119.322C137.317 119.322 136.935 119.007 136.935 118.302V117.8L136.201 117.965V118.31ZM142.561 120.003C143.639 120.003 144.47 119.329 144.47 118.078V114.578H143.736V118.055C143.736 118.864 143.31 119.322 142.561 119.322C141.819 119.322 141.377 118.864 141.377 118.055V114.578H140.651V118.078C140.651 119.329 141.482 120.003 142.561 120.003ZM148.986 119.891V119.202H146.477V114.578H145.743V119.891H148.986Z" fill="url(#paint1_linear_2464_3750)"/>
<path d="M179.097 119.89H179.89L177.778 114.577H176.932L174.82 119.89H175.607L176.168 118.406H178.52L179.097 119.89ZM177.337 115.342L178.258 117.724H176.43L177.337 115.342ZM182.366 120.002C183.445 120.002 184.276 119.328 184.276 118.077V114.577H183.542V118.054C183.542 118.863 183.115 119.32 182.366 119.32C181.625 119.32 181.183 118.863 181.183 118.054V114.577H180.456V118.077C180.456 119.328 181.288 120.002 182.366 120.002ZM190.147 119.89V117.29H187.608V117.949H189.45C189.42 118.496 188.993 119.335 187.81 119.335C186.859 119.335 185.96 118.639 185.96 117.23C185.96 115.821 186.889 115.139 187.84 115.139C188.664 115.139 189.286 115.589 189.525 116.353L190.192 116.068C189.885 115.109 188.993 114.465 187.84 114.465C186.53 114.465 185.211 115.431 185.211 117.23C185.211 119.028 186.455 120.002 187.788 120.002C188.679 120.002 189.256 119.56 189.488 119.141L189.555 119.89H190.147Z" fill="#8C87A6"/>
<path d="M15.9141 26.1768L18.1569 25.5524C18.2089 26.17 18.4072 26.7201 18.7517 27.2009C19.0963 27.6761 19.5838 27.9883 20.2144 28.1375V24.4596L19.8536 24.3816C18.768 24.1343 17.9229 23.6985 17.3183 23.074C16.7136 22.4496 16.4114 21.6597 16.4114 20.7031C16.4114 19.7146 16.7689 18.8529 17.484 18.1179C18.2057 17.3761 19.1158 16.9309 20.2144 16.781V14.6636H22.0477V16.8004C22.6133 16.8915 23.1171 17.0539 23.5592 17.2887C24.0078 17.5222 24.3718 17.802 24.6513 18.1273C24.9309 18.4464 25.1519 18.7711 25.3144 19.1033C25.4834 19.4348 25.6069 19.7795 25.685 20.1373L23.5299 20.8205C23.4909 20.5925 23.4226 20.3684 23.3251 20.1473C23.2277 19.9194 23.0651 19.6884 22.8376 19.4542C22.6166 19.2138 22.3532 19.0346 22.0477 18.9178V22.4983L22.2232 22.5376C23.3804 22.7912 24.2678 23.2595 24.8854 23.9426C25.5095 24.6189 25.8215 25.4156 25.8215 26.3329C25.8215 27.2758 25.4867 28.1151 24.8171 28.85C24.1475 29.585 23.2244 30.0339 22.0477 30.1963V32.3137H20.2144V30.2163C19.5448 30.1313 18.9403 29.9559 18.4007 29.6892C17.8611 29.4157 17.4191 29.0873 17.0745 28.7039C16.7364 28.3199 16.4699 27.9165 16.2748 27.4937C16.0798 27.0648 15.9596 26.6258 15.9141 26.1768ZM18.7517 20.5569C18.7517 20.9341 18.8753 21.2657 19.1223 21.5523C19.3693 21.8383 19.7334 22.0269 20.2144 22.118V18.8398C19.7528 18.9565 19.3921 19.1745 19.132 19.4935C18.8785 19.8058 18.7517 20.1598 18.7517 20.5569ZM22.0477 28.1375C22.5222 28.047 22.8831 27.8453 23.1301 27.5331C23.3771 27.2209 23.5006 26.8631 23.5006 26.4597C23.5006 26.0888 23.3771 25.7635 23.1301 25.4837C22.8896 25.2046 22.5288 24.996 22.0477 24.8593V28.1375Z" fill="#8C87A6"/>
<g filter="url(#filter0_d_2464_3750)">
<path d="M174.121 41.2129H112.336C110.958 41.2129 109.84 42.3312 109.84 43.7106V71.1856C109.84 72.565 110.958 73.6833 112.336 73.6833H174.121C175.5 73.6833 176.618 72.565 176.618 71.1856V43.7106C176.618 42.3312 175.5 41.2129 174.121 41.2129Z" fill="white"/>
<path d="M125.342 53.0518L126.463 52.7396C126.489 53.0487 126.588 53.3234 126.76 53.5638C126.933 53.8011 127.177 53.9572 127.492 54.0321V52.1932L127.311 52.1539C126.768 52.0309 126.346 51.8129 126.044 51.5007C125.741 51.1885 125.59 50.7932 125.59 50.3149C125.59 49.8204 125.769 49.3895 126.127 49.0223C126.488 48.6514 126.943 48.4285 127.492 48.3542V47.2952H128.409V48.3636C128.691 48.4091 128.943 48.4903 129.164 48.6077C129.388 48.7245 129.571 48.8644 129.71 49.0273C129.85 49.1866 129.961 49.3489 130.042 49.515C130.126 49.6805 130.188 49.8535 130.227 50.032L129.149 50.3736C129.13 50.26 129.096 50.1476 129.047 50.037C128.998 49.9234 128.917 49.8079 128.804 49.6905C128.693 49.57 128.561 49.4807 128.409 49.422V51.2128L128.496 51.2322C129.075 51.359 129.518 51.5931 129.827 51.9347C130.139 52.2731 130.295 52.6715 130.295 53.1298C130.295 53.6013 130.128 54.0209 129.793 54.3887C129.458 54.7559 128.997 54.98 128.409 55.0618V56.1202H127.492V55.0712C127.157 55.0294 126.855 54.9413 126.585 54.8077C126.315 54.6716 126.094 54.5073 125.922 54.315C125.753 54.1233 125.62 53.9216 125.522 53.7106C125.425 53.4958 125.364 53.276 125.342 53.0518ZM126.76 50.2419C126.76 50.4304 126.822 50.5965 126.946 50.7395C127.069 50.8825 127.252 50.9768 127.492 51.0224V49.3833C127.261 49.442 127.081 49.5506 126.951 49.7098C126.824 49.866 126.76 50.0433 126.76 50.2419ZM128.409 54.0321C128.646 53.9866 128.826 53.886 128.95 53.7299C129.073 53.5738 129.135 53.3946 129.135 53.1935C129.135 53.0081 129.073 52.8451 128.95 52.7052C128.829 52.5654 128.649 52.4617 128.409 52.393V54.0321ZM133.221 54.9494C133.231 54.3706 133.353 53.8629 133.587 53.4271C133.824 52.9919 134.214 52.6059 134.757 52.2713L135.825 51.6031C136.378 51.2584 136.653 50.8519 136.653 50.3836C136.653 50.1001 136.559 49.8616 136.371 49.6661C136.182 49.4713 135.914 49.3733 135.566 49.3733C135.202 49.3733 134.923 49.4857 134.728 49.7098C134.533 49.9346 134.435 50.2225 134.435 50.5734C134.435 50.6128 134.44 50.6727 134.45 50.7539C134.46 50.8319 134.466 50.8825 134.469 50.905L133.309 50.8226C133.29 50.6465 133.28 50.5228 133.28 50.4517C133.28 50.1719 133.331 49.9053 133.436 49.6518C133.54 49.3945 133.688 49.1685 133.879 48.9736C134.071 48.7751 134.313 48.6171 134.606 48.5003C134.902 48.3829 135.229 48.3248 135.586 48.3248C135.934 48.3248 136.252 48.3798 136.542 48.4903C136.831 48.5977 137.072 48.7438 137.263 48.9293C137.455 49.1148 137.603 49.3314 137.707 49.5781C137.811 49.8254 137.863 50.0876 137.863 50.3636C137.863 50.777 137.754 51.1541 137.536 51.4957C137.318 51.8373 137.011 52.1295 136.615 52.3737L135.357 53.1492C134.99 53.3771 134.77 53.6244 134.699 53.891H137.902V54.9494H133.221ZM138.331 53.0518L139.501 52.8126C139.514 53.1867 139.641 53.4908 139.882 53.7249C140.125 53.956 140.428 54.0715 140.789 54.0715C141.169 54.0715 141.468 53.9653 141.685 53.7543C141.906 53.5395 142.017 53.2778 142.017 52.9687C142.017 52.6209 141.902 52.3555 141.671 52.1738C141.443 51.9915 141.175 51.9003 140.867 51.9003C140.613 51.9003 140.412 51.9378 140.262 52.0127L139.711 51.1248L141.496 49.5244H138.551V48.476H143.046V49.4757L141.286 51.0124C141.533 51.0193 141.77 51.068 141.998 51.1591C142.228 51.2466 142.435 51.3721 142.617 51.5344C142.802 51.6974 142.95 51.9035 143.06 52.1539C143.171 52.4043 143.226 52.6809 143.226 52.9837C143.226 53.2628 143.171 53.5301 143.06 53.7836C142.95 54.0371 142.794 54.2613 142.592 54.4568C142.391 54.6516 142.134 54.8077 141.822 54.9251C141.513 55.0418 141.172 55.1006 140.798 55.1006C140.434 55.1006 140.1 55.0456 139.794 54.9351C139.488 54.8208 139.233 54.6697 139.028 54.4811C138.823 54.2894 138.661 54.0715 138.541 53.8273C138.42 53.5832 138.35 53.3247 138.331 53.0518ZM143.923 54.2176C143.923 54.0065 144.003 53.8273 144.163 53.6812C144.322 53.5345 144.519 53.4614 144.753 53.4614C145.019 53.4614 145.237 53.5588 145.406 53.7543C145.575 53.946 145.66 54.2014 145.66 54.5198C145.66 54.852 145.607 55.1511 145.504 55.4178C145.399 55.6844 145.265 55.8973 145.099 56.0566C144.933 56.2164 144.759 56.34 144.577 56.4275C144.398 56.5186 144.218 56.5754 144.036 56.5986V56.0078C144.27 55.9591 144.475 55.8305 144.651 55.6226C144.829 55.4146 144.92 55.1836 144.923 54.9301C144.858 54.9625 144.778 54.9788 144.684 54.9788C144.463 54.9788 144.281 54.9088 144.138 54.769C143.995 54.6291 143.923 54.4455 143.923 54.2176ZM146.459 53.2223C146.459 52.8582 146.571 52.5329 146.796 52.2469C147.02 51.9609 147.308 51.7555 147.659 51.6325C147.35 51.5182 147.098 51.3234 146.903 51.0467C146.708 50.7701 146.61 50.4729 146.61 50.1538C146.61 49.6174 146.822 49.1784 147.244 48.8369C147.667 48.4953 148.205 48.3248 148.858 48.3248C149.512 48.3248 150.05 48.4953 150.472 48.8369C150.898 49.1784 151.111 49.6174 151.111 50.1538C151.111 50.4698 151.013 50.767 150.818 51.0467C150.623 51.3234 150.371 51.5182 150.063 51.6325C150.41 51.7555 150.696 51.9622 150.921 52.2519C151.148 52.5379 151.262 52.8613 151.262 53.2223C151.262 53.7724 151.044 54.2226 150.609 54.5735C150.173 54.9251 149.59 55.1006 148.858 55.1006C148.13 55.1006 147.548 54.9251 147.113 54.5735C146.677 54.2226 146.459 53.7724 146.459 53.2223ZM147.971 52.393C147.756 52.5853 147.649 52.8208 147.649 53.1005C147.649 53.3802 147.756 53.6163 147.971 53.808C148.189 53.9966 148.484 54.0908 148.858 54.0908C149.238 54.0908 149.536 53.9966 149.751 53.808C149.965 53.6163 150.072 53.3802 150.072 53.1005C150.072 52.8208 149.963 52.5853 149.746 52.393C149.531 52.1982 149.235 52.1008 148.858 52.1008C148.484 52.1008 148.189 52.1982 147.971 52.393ZM147.795 50.2225C147.795 50.4954 147.893 50.7214 148.088 50.9006C148.286 51.0792 148.543 51.1704 148.858 51.1735C149.18 51.1704 149.439 51.0792 149.633 50.9006C149.829 50.7214 149.926 50.4954 149.926 50.2225C149.926 49.9683 149.827 49.7523 149.628 49.5737C149.434 49.3945 149.176 49.3052 148.858 49.3052C148.54 49.3052 148.283 49.3945 148.088 49.5737C147.893 49.7523 147.795 49.9683 147.795 50.2225ZM151.818 54.9494C151.828 54.3706 151.949 53.8629 152.183 53.4271C152.421 52.9919 152.811 52.6059 153.354 52.2713L154.421 51.6031C154.974 51.2584 155.251 50.8519 155.251 50.3836C155.251 50.1001 155.156 49.8616 154.967 49.6661C154.779 49.4713 154.511 49.3733 154.163 49.3733C153.799 49.3733 153.52 49.4857 153.325 49.7098C153.129 49.9346 153.032 50.2225 153.032 50.5734C153.032 50.6128 153.037 50.6727 153.046 50.7539C153.056 50.8319 153.063 50.8825 153.066 50.905L151.906 50.8226C151.886 50.6465 151.876 50.5228 151.876 50.4517C151.876 50.1719 151.929 49.9053 152.032 49.6518C152.137 49.3945 152.284 49.1685 152.476 48.9736C152.668 48.7751 152.91 48.6171 153.202 48.5003C153.498 48.3829 153.825 48.3248 154.183 48.3248C154.531 48.3248 154.849 48.3798 155.138 48.4903C155.427 48.5977 155.668 48.7438 155.86 48.9293C156.051 49.1148 156.199 49.3314 156.304 49.5781C156.408 49.8254 156.46 50.0876 156.46 50.3636C156.46 50.777 156.351 51.1541 156.133 51.4957C155.915 51.8373 155.608 52.1295 155.211 52.3737L153.953 53.1492C153.586 53.3771 153.367 53.6244 153.295 53.891H156.499V54.9494H151.818ZM156.699 49.5244V48.476H161.53V49.5244C161.427 49.6124 161.324 49.7017 161.223 49.7929C161.126 49.8841 160.991 50.0239 160.819 50.2125C160.65 50.4011 160.492 50.5965 160.346 50.7982C160.203 50.9993 160.045 51.2516 159.873 51.5538C159.704 51.8566 159.556 52.1701 159.429 52.4954C159.305 52.8176 159.192 53.1935 159.088 53.6225C158.987 54.0484 158.917 54.4911 158.878 54.9494H157.64C157.678 54.4586 157.755 53.9803 157.869 53.5151C157.982 53.0499 158.114 52.6422 158.264 52.2906C158.417 51.9397 158.579 51.6094 158.751 51.3003C158.927 50.9912 159.098 50.7314 159.263 50.5197C159.432 50.3087 159.585 50.1263 159.722 49.9734C159.858 49.8172 159.969 49.7036 160.053 49.6318L160.175 49.5244H156.699Z" fill="url(#paint2_linear_2464_3750)"/>
<path d="M135.669 66.1891H136.463L134.351 60.8765H133.505L131.393 66.1891H132.179L132.741 64.7055H135.092L135.669 66.1891ZM133.909 61.6408L134.83 64.0236H133.003L133.909 61.6408ZM139.323 65.7545C139.323 65.9044 139.338 66.1067 139.353 66.1891H140.027C140.012 66.0617 139.989 65.807 139.989 65.5222V62.5849H139.285V64.7579C139.285 65.3049 139.001 65.6796 138.432 65.6796C137.84 65.6796 137.615 65.245 137.615 64.7504V62.5849H136.911V64.8553C136.911 65.6721 137.421 66.3015 138.259 66.3015C138.679 66.3015 139.128 66.1292 139.323 65.7545ZM140.892 66.3839C140.982 67.1557 141.656 67.7252 142.554 67.7252C143.91 67.7252 144.359 66.8335 144.359 65.9194V62.5849H143.663V63.087C143.483 62.7273 143.109 62.5175 142.554 62.5175C141.566 62.5175 140.899 63.2968 140.899 64.2709C140.899 65.2899 141.596 66.0168 142.554 66.0168C143.094 66.0168 143.483 65.7545 143.655 65.4248V65.9418C143.655 66.7211 143.311 67.1108 142.554 67.1108C142.008 67.1108 141.626 66.7286 141.573 66.2266L140.892 66.3839ZM142.659 65.4248C142.023 65.4248 141.618 64.9752 141.618 64.2709C141.618 63.574 142.038 63.1169 142.659 63.1169C143.266 63.1169 143.685 63.574 143.685 64.2709C143.685 64.9677 143.266 65.4248 142.659 65.4248ZM147.821 65.7545C147.821 65.9044 147.836 66.1067 147.851 66.1891H148.525C148.51 66.0617 148.488 65.807 148.488 65.5222V62.5849H147.784V64.7579C147.784 65.3049 147.499 65.6796 146.93 65.6796C146.338 65.6796 146.114 65.245 146.114 64.7504V62.5849H145.41V64.8553C145.41 65.6721 145.919 66.3015 146.758 66.3015C147.177 66.3015 147.626 66.1292 147.821 65.7545ZM149.352 65.2525C149.412 65.6646 149.831 66.3015 150.82 66.3015C151.711 66.3015 152.138 65.6946 152.138 65.185C152.138 64.653 151.793 64.2559 151.142 64.1135L150.558 63.9861C150.281 63.9262 150.146 63.7688 150.146 63.5515C150.146 63.3042 150.386 63.072 150.745 63.072C151.314 63.072 151.464 63.4841 151.494 63.6714L152.116 63.4391C152.041 63.1169 151.734 62.4725 150.745 62.4725C150.041 62.4725 149.464 62.997 149.464 63.6115C149.464 64.121 149.801 64.5032 150.363 64.623L150.977 64.7579C151.277 64.8254 151.442 64.9977 151.442 65.2225C151.442 65.4773 151.224 65.7021 150.827 65.7021C150.318 65.7021 150.034 65.4023 149.989 65.0277L149.352 65.2525ZM154.018 61.4459H153.374V62.0304C153.374 62.3451 153.21 62.5849 152.82 62.5849H152.625V63.2218H153.314V65.2C153.314 65.8519 153.704 66.2266 154.318 66.2266C154.558 66.2266 154.737 66.1816 154.797 66.1591V65.5597C154.737 65.5747 154.61 65.5897 154.52 65.5897C154.153 65.5897 154.018 65.4248 154.018 65.0951V63.2218H154.797V62.5849H154.018V61.4459Z" fill="#8C87A6"/>
</g>
<path d="M30.5117 21.1037V19.4645C31.4153 19.4452 32.176 19.2073 32.7936 18.7521C33.4112 18.2968 33.7914 17.7211 33.9345 17.0255H36.0115V29.9724H33.6517V21.1037H30.5117ZM37.7383 24.2552C37.7383 23.1037 37.9106 22.0534 38.2551 21.1037C38.6062 20.1539 39.0905 19.3603 39.7081 18.7227C40.3257 18.0858 41.0603 17.5944 41.9119 17.2497C42.7636 16.8981 43.69 16.7227 44.6911 16.7227C45.8677 16.7227 46.7876 16.9375 47.4507 17.3664L46.7682 19.3184C46.1441 18.9731 45.4062 18.8008 44.5546 18.8008C43.3324 18.8008 42.3182 19.1785 41.5121 19.9328C40.706 20.6809 40.2477 21.6825 40.1372 22.9376C40.4687 22.4306 40.9238 22.0465 41.5024 21.7868C42.0809 21.5264 42.7246 21.3965 43.4332 21.3965C44.7333 21.3965 45.7897 21.7993 46.6024 22.606C47.415 23.4059 47.8213 24.4631 47.8213 25.7769C47.8213 27.0976 47.3499 28.1772 46.4073 29.0164C45.4647 29.8551 44.301 30.2747 42.9163 30.2747C42.1102 30.2747 41.3788 30.1186 40.7223 29.8064C40.0657 29.4879 39.5196 29.0552 39.084 28.5088C38.655 27.9624 38.3234 27.3249 38.0894 26.5968C37.8553 25.8681 37.7383 25.0875 37.7383 24.2552ZM40.4004 25.8162C40.4004 26.5318 40.6475 27.1138 41.1416 27.5628C41.6421 28.0111 42.2337 28.2359 42.9163 28.2359C43.6184 28.2359 44.2133 28.0149 44.7009 27.5721C45.1884 27.13 45.4322 26.5443 45.4322 25.8162C45.4322 25.0813 45.1884 24.4956 44.7009 24.0597C44.2133 23.6176 43.6184 23.3966 42.9163 23.3966C42.2142 23.3966 41.6194 23.6176 41.1318 24.0597C40.6443 24.4956 40.4004 25.0813 40.4004 25.8162ZM48.2901 29.9724C48.3097 28.8148 48.5534 27.8001 49.0215 26.9283C49.4961 26.0566 50.2762 25.2861 51.3619 24.6161L53.4974 23.2792C54.6026 22.5898 55.1551 21.7768 55.1551 20.8401C55.1551 20.2744 54.9666 19.7961 54.5896 19.4058C54.2125 19.0156 53.6762 18.8207 52.9806 18.8207C52.2525 18.8207 51.6934 19.0449 51.3033 19.4939C50.9133 19.9428 50.7182 20.5179 50.7182 21.2204C50.7182 21.2985 50.728 21.419 50.7475 21.5814C50.767 21.7375 50.78 21.8386 50.7865 21.8842L48.4657 21.7181C48.4267 21.3672 48.4072 21.1199 48.4072 20.9769C48.4072 20.4174 48.5112 19.8841 48.7192 19.3765C48.9272 18.8626 49.223 18.4105 49.6066 18.0202C49.9902 17.6237 50.4745 17.3084 51.0595 17.0742C51.6511 16.84 52.3045 16.7227 53.0196 16.7227C53.7152 16.7227 54.3522 16.8332 54.9308 17.0542C55.5094 17.269 55.9905 17.5619 56.3741 17.9328C56.7576 18.3031 57.0534 18.7358 57.2615 19.2304C57.4695 19.7249 57.5735 20.2482 57.5735 20.8008C57.5735 21.6269 57.3557 22.3819 56.9201 23.065C56.4846 23.7475 55.8702 24.3332 55.0771 24.8209L52.5613 26.372C51.8267 26.8278 51.3878 27.3217 51.2448 27.855H57.6515V29.9724H48.2901ZM58.8517 28.5088C58.8517 28.086 59.011 27.7282 59.3295 27.436C59.6481 27.1431 60.0414 26.9964 60.5095 26.9964C61.0425 26.9964 61.4781 27.1919 61.8161 27.5821C62.1542 27.9655 62.3232 28.4763 62.3232 29.1139C62.3232 29.7776 62.2192 30.3758 62.0112 30.9091C61.8031 31.4424 61.5334 31.8682 61.2018 32.1873C60.8703 32.5058 60.5225 32.753 60.1584 32.9285C59.8009 33.1108 59.44 33.2245 59.076 33.2701V32.0899C59.5441 31.9918 59.9536 31.7352 60.3046 31.3187C60.6622 30.9029 60.8442 30.4408 60.8507 29.9337C60.7207 29.9987 60.5615 30.0311 60.3729 30.0311C59.9309 30.0311 59.5668 29.8913 59.2808 29.6115C58.9947 29.3318 58.8517 28.964 58.8517 28.5088ZM62.3143 19.123V17.0255H71.9778V19.123C71.77 19.2984 71.5653 19.4776 71.3637 19.6594C71.1684 19.8417 70.8988 20.1214 70.5543 20.4986C70.216 20.8757 69.9009 21.266 69.6082 21.6694C69.3223 22.0728 69.0072 22.5767 68.6627 23.1818C68.3244 23.7868 68.0286 24.4144 67.7752 25.065C67.5281 25.7088 67.3003 26.46 67.0924 27.3186C66.8909 28.171 66.7511 29.0552 66.6731 29.9724H64.196C64.274 28.9902 64.427 28.0342 64.6547 27.1038C64.8819 26.174 65.1453 25.3573 65.4442 24.6548C65.75 23.9523 66.0752 23.2923 66.4197 22.6741C66.7704 22.0565 67.1118 21.5364 67.4438 21.113C67.7814 20.6903 68.0872 20.3262 68.36 20.0203C68.6333 19.7081 68.8543 19.4808 69.0234 19.3378L69.2668 19.123H62.3143ZM71.6764 26.392L73.9287 25.8162C73.9812 26.5187 74.2445 27.0976 74.7188 27.5528C75.2 28.008 75.8079 28.2359 76.5424 28.2359C77.2377 28.2359 77.82 28.018 78.288 27.5821C78.7623 27.1463 78.9995 26.5768 78.9995 25.8749C78.9995 25.1137 78.7592 24.5249 78.278 24.1084C77.7969 23.6857 77.2052 23.4746 76.5031 23.4746C76.0613 23.4746 75.6519 23.5589 75.2749 23.7281C74.8973 23.8905 74.589 24.1084 74.3481 24.3819L72.0958 23.562L73.6853 17.0255H80.7744V19.123H75.3036L74.5042 22.4012C74.7775 22.1215 75.1382 21.9036 75.5869 21.7474C76.0419 21.5851 76.5069 21.5039 76.9812 21.5039C78.2943 21.5039 79.3602 21.8904 80.1796 22.6647C81.0053 23.4322 81.4178 24.4824 81.4178 25.8162C81.4178 27.0713 80.9697 28.1316 80.0723 28.9971C79.1755 29.8619 77.9984 30.2946 76.5424 30.2946C75.19 30.2946 74.0592 29.9106 73.1486 29.1432C72.2449 28.3689 71.7544 27.4522 71.6764 26.392ZM81.6918 21.1037V19.4645C82.5955 19.4452 83.3563 19.2073 83.9735 18.7521C84.5913 18.2968 84.9714 17.7211 85.1143 17.0255H87.1919V29.9724H84.8316V21.1037H81.6918Z" fill="#04091E"/>
<defs>
<filter id="filter0_d_2464_3750" x="92.921" y="36.9832" width="100.615" height="66.3082" filterUnits="userSpaceOnUse" color-interpolation-filters="sRGB">
<feFlood flood-opacity="0" result="BackgroundImageFix"/>
<feColorMatrix in="SourceAlpha" type="matrix" values="0 0 0 0 0 0 0 0 0 0 0 0 0 0 0 0 0 0 127 0" result="hardAlpha"/>
<feOffset dy="12.6892"/>
<feGaussianBlur stdDeviation="8.45944"/>
<feColorMatrix type="matrix" values="0 0 0 0 0.167178 0 0 0 0 0.114514 0 0 0 0 0.404167 0 0 0 0.08 0"/>
<feBlend mode="normal" in2="BackgroundImageFix" result="effect1_dropShadow_2464_3750"/>
<feBlend mode="normal" in="SourceGraphic" in2="effect1_dropShadow_2464_3750" result="shape"/>
</filter>
<linearGradient id="paint0_linear_2464_3750" x1="102.975" y1="44.9595" x2="102.975" y2="102.407" gradientUnits="userSpaceOnUse">
<stop stop-color="#5138EE"/>
<stop offset="1" stop-color="#5138EE" stop-opacity="0"/>
</linearGradient>
<linearGradient id="paint1_linear_2464_3750" x1="135.932" y1="115.004" x2="149.681" y2="117.5" gradientUnits="userSpaceOnUse">
<stop stop-color="#9FE871"/>
<stop offset="1" stop-color="#6BD723"/>
</linearGradient>
<linearGradient id="paint2_linear_2464_3750" x1="124.579" y1="48.0248" x2="161.468" y2="59.0779" gradientUnits="userSpaceOnUse">
<stop stop-color="#9FE871"/>
<stop offset="1" stop-color="#6BD723"/>
</linearGradient>
</defs>
</svg>
