<svg width="241" height="133" viewBox="0 0 241 133" fill="none" xmlns="http://www.w3.org/2000/svg">
<path d="M1.5 3C2.32843 3 3 2.32843 3 1.5C3 0.671573 2.32843 0 1.5 0C0.671573 0 0 0.671573 0 1.5C0 2.32843 0.671573 3 1.5 3Z" fill="#9FA9FF"/>
<path d="M1.5 29C2.32843 29 3 28.3284 3 27.5C3 26.6716 2.32843 26 1.5 26C0.671573 26 0 26.6716 0 27.5C0 28.3284 0.671573 29 1.5 29Z" fill="#9FA9FF"/>
<path d="M1.5 55C2.32843 55 3 54.3284 3 53.5C3 52.6716 2.32843 52 1.5 52C0.671573 52 0 52.6716 0 53.5C0 54.3284 0.671573 55 1.5 55Z" fill="#9FA9FF"/>
<path d="M1.5 81C2.32843 81 3 80.3284 3 79.5C3 78.6716 2.32843 78 1.5 78C0.671573 78 0 78.6716 0 79.5C0 80.3284 0.671573 81 1.5 81Z" fill="#9FA9FF"/>
<path d="M1.5 107C2.32843 107 3 106.328 3 105.5C3 104.672 2.32843 104 1.5 104C0.671573 104 0 104.672 0 105.5C0 106.328 0.671573 107 1.5 107Z" fill="#9FA9FF"/>
<path d="M1.5 133C2.32843 133 3 132.328 3 131.5C3 130.672 2.32843 130 1.5 130C0.671573 130 0 130.672 0 131.5C0 132.328 0.671573 133 1.5 133Z" fill="#9FA9FF"/>
<path d="M35.5 3C36.3284 3 37 2.32843 37 1.5C37 0.671573 36.3284 0 35.5 0C34.6716 0 34 0.671573 34 1.5C34 2.32843 34.6716 3 35.5 3Z" fill="#9FA9FF"/>
<path d="M35.5 29C36.3284 29 37 28.3284 37 27.5C37 26.6716 36.3284 26 35.5 26C34.6716 26 34 26.6716 34 27.5C34 28.3284 34.6716 29 35.5 29Z" fill="#9FA9FF"/>
<path d="M35.5 55C36.3284 55 37 54.3284 37 53.5C37 52.6716 36.3284 52 35.5 52C34.6716 52 34 52.6716 34 53.5C34 54.3284 34.6716 55 35.5 55Z" fill="#9FA9FF"/>
<path d="M35.5 81C36.3284 81 37 80.3284 37 79.5C37 78.6716 36.3284 78 35.5 78C34.6716 78 34 78.6716 34 79.5C34 80.3284 34.6716 81 35.5 81Z" fill="#9FA9FF"/>
<path d="M35.5 107C36.3284 107 37 106.328 37 105.5C37 104.672 36.3284 104 35.5 104C34.6716 104 34 104.672 34 105.5C34 106.328 34.6716 107 35.5 107Z" fill="#9FA9FF"/>
<path d="M35.5 133C36.3284 133 37 132.328 37 131.5C37 130.672 36.3284 130 35.5 130C34.6716 130 34 130.672 34 131.5C34 132.328 34.6716 133 35.5 133Z" fill="#9FA9FF"/>
<path d="M69.5 3C70.3284 3 71 2.32843 71 1.5C71 0.671573 70.3284 0 69.5 0C68.6716 0 68 0.671573 68 1.5C68 2.32843 68.6716 3 69.5 3Z" fill="#9FA9FF"/>
<path d="M69.5 29C70.3284 29 71 28.3284 71 27.5C71 26.6716 70.3284 26 69.5 26C68.6716 26 68 26.6716 68 27.5C68 28.3284 68.6716 29 69.5 29Z" fill="#9FA9FF"/>
<path d="M69.5 55C70.3284 55 71 54.3284 71 53.5C71 52.6716 70.3284 52 69.5 52C68.6716 52 68 52.6716 68 53.5C68 54.3284 68.6716 55 69.5 55Z" fill="#9FA9FF"/>
<path d="M69.5 81C70.3284 81 71 80.3284 71 79.5C71 78.6716 70.3284 78 69.5 78C68.6716 78 68 78.6716 68 79.5C68 80.3284 68.6716 81 69.5 81Z" fill="#9FA9FF"/>
<path d="M69.5 107C70.3284 107 71 106.328 71 105.5C71 104.672 70.3284 104 69.5 104C68.6716 104 68 104.672 68 105.5C68 106.328 68.6716 107 69.5 107Z" fill="#9FA9FF"/>
<path d="M69.5 133C70.3284 133 71 132.328 71 131.5C71 130.672 70.3284 130 69.5 130C68.6716 130 68 130.672 68 131.5C68 132.328 68.6716 133 69.5 133Z" fill="#9FA9FF"/>
<path d="M103.5 3C104.328 3 105 2.32843 105 1.5C105 0.671573 104.328 0 103.5 0C102.672 0 102 0.671573 102 1.5C102 2.32843 102.672 3 103.5 3Z" fill="#9FA9FF"/>
<path d="M103.5 29C104.328 29 105 28.3284 105 27.5C105 26.6716 104.328 26 103.5 26C102.672 26 102 26.6716 102 27.5C102 28.3284 102.672 29 103.5 29Z" fill="#9FA9FF"/>
<path d="M103.5 55C104.328 55 105 54.3284 105 53.5C105 52.6716 104.328 52 103.5 52C102.672 52 102 52.6716 102 53.5C102 54.3284 102.672 55 103.5 55Z" fill="#9FA9FF"/>
<path d="M103.5 81C104.328 81 105 80.3284 105 79.5C105 78.6716 104.328 78 103.5 78C102.672 78 102 78.6716 102 79.5C102 80.3284 102.672 81 103.5 81Z" fill="#9FA9FF"/>
<path d="M103.5 107C104.328 107 105 106.328 105 105.5C105 104.672 104.328 104 103.5 104C102.672 104 102 104.672 102 105.5C102 106.328 102.672 107 103.5 107Z" fill="#9FA9FF"/>
<path d="M103.5 133C104.328 133 105 132.328 105 131.5C105 130.672 104.328 130 103.5 130C102.672 130 102 130.672 102 131.5C102 132.328 102.672 133 103.5 133Z" fill="#9FA9FF"/>
<path d="M137.5 3C138.328 3 139 2.32843 139 1.5C139 0.671573 138.328 0 137.5 0C136.672 0 136 0.671573 136 1.5C136 2.32843 136.672 3 137.5 3Z" fill="#9FA9FF"/>
<path d="M137.5 29C138.328 29 139 28.3284 139 27.5C139 26.6716 138.328 26 137.5 26C136.672 26 136 26.6716 136 27.5C136 28.3284 136.672 29 137.5 29Z" fill="#9FA9FF"/>
<path d="M137.5 55C138.328 55 139 54.3284 139 53.5C139 52.6716 138.328 52 137.5 52C136.672 52 136 52.6716 136 53.5C136 54.3284 136.672 55 137.5 55Z" fill="#9FA9FF"/>
<path d="M137.5 81C138.328 81 139 80.3284 139 79.5C139 78.6716 138.328 78 137.5 78C136.672 78 136 78.6716 136 79.5C136 80.3284 136.672 81 137.5 81Z" fill="#9FA9FF"/>
<path d="M137.5 107C138.328 107 139 106.328 139 105.5C139 104.672 138.328 104 137.5 104C136.672 104 136 104.672 136 105.5C136 106.328 136.672 107 137.5 107Z" fill="#9FA9FF"/>
<path d="M137.5 133C138.328 133 139 132.328 139 131.5C139 130.672 138.328 130 137.5 130C136.672 130 136 130.672 136 131.5C136 132.328 136.672 133 137.5 133Z" fill="#9FA9FF"/>
<path d="M171.5 3C172.328 3 173 2.32843 173 1.5C173 0.671573 172.328 0 171.5 0C170.672 0 170 0.671573 170 1.5C170 2.32843 170.672 3 171.5 3Z" fill="#9FA9FF"/>
<path d="M171.5 29C172.328 29 173 28.3284 173 27.5C173 26.6716 172.328 26 171.5 26C170.672 26 170 26.6716 170 27.5C170 28.3284 170.672 29 171.5 29Z" fill="#9FA9FF"/>
<path d="M171.5 55C172.328 55 173 54.3284 173 53.5C173 52.6716 172.328 52 171.5 52C170.672 52 170 52.6716 170 53.5C170 54.3284 170.672 55 171.5 55Z" fill="#9FA9FF"/>
<path d="M171.5 81C172.328 81 173 80.3284 173 79.5C173 78.6716 172.328 78 171.5 78C170.672 78 170 78.6716 170 79.5C170 80.3284 170.672 81 171.5 81Z" fill="#9FA9FF"/>
<path d="M171.5 107C172.328 107 173 106.328 173 105.5C173 104.672 172.328 104 171.5 104C170.672 104 170 104.672 170 105.5C170 106.328 170.672 107 171.5 107Z" fill="#9FA9FF"/>
<path d="M171.5 133C172.328 133 173 132.328 173 131.5C173 130.672 172.328 130 171.5 130C170.672 130 170 130.672 170 131.5C170 132.328 170.672 133 171.5 133Z" fill="#9FA9FF"/>
<path d="M205.5 3C206.328 3 207 2.32843 207 1.5C207 0.671573 206.328 0 205.5 0C204.672 0 204 0.671573 204 1.5C204 2.32843 204.672 3 205.5 3Z" fill="#9FA9FF"/>
<path d="M205.5 29C206.328 29 207 28.3284 207 27.5C207 26.6716 206.328 26 205.5 26C204.672 26 204 26.6716 204 27.5C204 28.3284 204.672 29 205.5 29Z" fill="#9FA9FF"/>
<path d="M205.5 55C206.328 55 207 54.3284 207 53.5C207 52.6716 206.328 52 205.5 52C204.672 52 204 52.6716 204 53.5C204 54.3284 204.672 55 205.5 55Z" fill="#9FA9FF"/>
<path d="M205.5 81C206.328 81 207 80.3284 207 79.5C207 78.6716 206.328 78 205.5 78C204.672 78 204 78.6716 204 79.5C204 80.3284 204.672 81 205.5 81Z" fill="#9FA9FF"/>
<path d="M205.5 107C206.328 107 207 106.328 207 105.5C207 104.672 206.328 104 205.5 104C204.672 104 204 104.672 204 105.5C204 106.328 204.672 107 205.5 107Z" fill="#9FA9FF"/>
<path d="M205.5 133C206.328 133 207 132.328 207 131.5C207 130.672 206.328 130 205.5 130C204.672 130 204 130.672 204 131.5C204 132.328 204.672 133 205.5 133Z" fill="#9FA9FF"/>
<path d="M239.5 3C240.328 3 241 2.32843 241 1.5C241 0.671573 240.328 0 239.5 0C238.672 0 238 0.671573 238 1.5C238 2.32843 238.672 3 239.5 3Z" fill="#9FA9FF"/>
<path d="M239.5 29C240.328 29 241 28.3284 241 27.5C241 26.6716 240.328 26 239.5 26C238.672 26 238 26.6716 238 27.5C238 28.3284 238.672 29 239.5 29Z" fill="#9FA9FF"/>
<path d="M239.5 55C240.328 55 241 54.3284 241 53.5C241 52.6716 240.328 52 239.5 52C238.672 52 238 52.6716 238 53.5C238 54.3284 238.672 55 239.5 55Z" fill="#9FA9FF"/>
<path d="M239.5 81C240.328 81 241 80.3284 241 79.5C241 78.6716 240.328 78 239.5 78C238.672 78 238 78.6716 238 79.5C238 80.3284 238.672 81 239.5 81Z" fill="#9FA9FF"/>
<path d="M239.5 107C240.328 107 241 106.328 241 105.5C241 104.672 240.328 104 239.5 104C238.672 104 238 104.672 238 105.5C238 106.328 238.672 107 239.5 107Z" fill="#9FA9FF"/>
<path d="M239.5 133C240.328 133 241 132.328 241 131.5C241 130.672 240.328 130 239.5 130C238.672 130 238 130.672 238 131.5C238 132.328 238.672 133 239.5 133Z" fill="#9FA9FF"/>
</svg>
