<svg width="258" height="80" viewBox="0 0 258 80" fill="none" xmlns="http://www.w3.org/2000/svg">
<rect y="6" width="248" height="70" rx="10" fill="white"/>
<path d="M25.6297 33.88L22.3697 35.84L21.3097 34.1L25.7497 31.42H27.9297V46H25.6297V33.88ZM39.5634 45.16C38.6234 45.84 37.5634 46.18 36.3634 46.18C35.1634 46.18 34.0834 45.84 33.1634 45.18C32.2234 44.5 31.5034 43.62 31.0034 42.5C30.5034 41.36 30.2634 40.1 30.2634 38.7C30.2634 36.64 30.8834 34.74 31.9434 33.4C33.0034 32.06 34.5834 31.22 36.4034 31.22C37.6034 31.22 38.6634 31.54 39.6034 32.2C40.5434 32.88 41.2634 33.76 41.7634 34.9C42.2634 36.02 42.5034 37.28 42.5034 38.68C42.5034 40.06 42.2634 41.32 41.7634 42.46C41.2434 43.6 40.5234 44.5 39.5634 45.16ZM38.3634 34.06C37.7634 33.58 37.1034 33.32 36.3634 33.32C35.6034 33.32 34.9634 33.56 34.3834 34.04C33.2434 35 32.6234 36.7 32.6234 38.68C32.5834 41.58 34.1434 44.1 36.4034 44.06C37.1434 44.06 37.8034 43.82 38.3834 43.32C38.9634 42.84 39.3834 42.2 39.6834 41.4C39.9834 40.58 40.1434 39.7 40.1434 38.7C40.1434 36.76 39.5234 35.06 38.3634 34.06ZM53.2822 45.16C52.3422 45.84 51.2822 46.18 50.0822 46.18C48.8822 46.18 47.8022 45.84 46.8822 45.18C45.9422 44.5 45.2222 43.62 44.7222 42.5C44.2222 41.36 43.9822 40.1 43.9822 38.7C43.9822 36.64 44.6022 34.74 45.6622 33.4C46.7222 32.06 48.3022 31.22 50.1222 31.22C51.3222 31.22 52.3822 31.54 53.3222 32.2C54.2622 32.88 54.9822 33.76 55.4822 34.9C55.9822 36.02 56.2222 37.28 56.2222 38.68C56.2222 40.06 55.9822 41.32 55.4822 42.46C54.9622 43.6 54.2422 44.5 53.2822 45.16ZM52.0822 34.06C51.4822 33.58 50.8222 33.32 50.0822 33.32C49.3222 33.32 48.6822 33.56 48.1022 34.04C46.9622 35 46.3422 36.7 46.3422 38.68C46.3022 41.58 47.8622 44.1 50.1222 44.06C50.8622 44.06 51.5222 43.82 52.1022 43.32C52.6822 42.84 53.1022 42.2 53.4022 41.4C53.7022 40.58 53.8622 39.7 53.8622 38.7C53.8622 36.76 53.2422 35.06 52.0822 34.06ZM63.0009 32.24C63.6409 32.88 63.9609 33.66 63.9609 34.56C63.9609 35.48 63.6409 36.24 63.0009 36.9C62.3609 37.54 61.5809 37.86 60.6809 37.86C59.7609 37.86 59.0009 37.54 58.3409 36.9C57.7009 36.24 57.3809 35.48 57.3809 34.56C57.3809 33.66 57.7009 32.88 58.3409 32.24C59.0009 31.6 59.7609 31.28 60.6809 31.28C61.5809 31.28 62.3609 31.6 63.0009 32.24ZM59.0009 46L68.5009 31.42H70.6809L61.2009 46H59.0009ZM61.6809 35.56C61.9609 35.28 62.1009 34.96 62.1009 34.56C62.1009 34.18 61.9609 33.84 61.6809 33.56C61.4009 33.28 61.0609 33.14 60.6809 33.14C60.2809 33.14 59.9409 33.28 59.6809 33.56C59.4009 33.84 59.2609 34.18 59.2609 34.56C59.2609 34.96 59.4009 35.28 59.6809 35.56C59.9409 35.84 60.2809 35.98 60.6809 35.98C61.0609 35.98 61.4009 35.84 61.6809 35.56ZM72.3009 42.8C72.3009 43.72 72.0009 44.5 71.3409 45.14C70.7009 45.78 69.9209 46.1 69.0209 46.1C68.1009 46.1 67.3409 45.78 66.7009 45.14C66.0409 44.5 65.7209 43.72 65.7209 42.8C65.7209 41.9 66.0409 41.14 66.7009 40.5C67.3409 39.84 68.1009 39.52 69.0209 39.52C69.9209 39.52 70.7009 39.84 71.3409 40.5C72.0009 41.14 72.3009 41.9 72.3009 42.8ZM70.4409 42.8C70.4409 42.42 70.3009 42.1 70.0209 41.8C69.7409 41.54 69.4009 41.4 69.0209 41.4C68.6209 41.4 68.3009 41.54 68.0209 41.8C67.7409 42.1 67.6009 42.42 67.6009 42.8C67.6009 43.2 67.7409 43.54 68.0209 43.8C68.3009 44.1 68.6209 44.22 69.0209 44.22C69.4009 44.22 69.7409 44.1 70.0209 43.8C70.3009 43.54 70.4409 43.2 70.4409 42.8ZM78.7914 31.42H84.3714C85.7714 31.42 86.9114 31.76 87.7714 32.44C88.6314 33.14 89.0514 34.08 89.0514 35.26C89.0514 35.7 88.9514 36.2 88.6514 36.82C88.3714 37.44 87.7514 38.04 86.9514 38.4C88.0114 38.74 88.7714 39.34 89.1714 40C89.5514 40.68 89.7114 41.3 89.7114 41.92C89.7114 43.14 89.2714 44.12 88.3914 44.88C87.5114 45.62 86.2314 46 84.5314 46H78.7914V31.42ZM81.0514 37.6H83.9314C84.8714 37.6 85.5914 37.4 86.0514 37C86.5314 36.6 86.7714 36.1 86.7714 35.5C86.7714 34.3 85.9114 33.48 84.0514 33.48H81.0514V37.6ZM81.0714 43.94H84.5714C86.4314 43.94 87.4314 43.06 87.4314 41.74C87.4314 40.46 86.4314 39.6 84.4314 39.6H81.0714V43.94ZM93.7033 36.06V41.62C93.7033 43.12 94.4233 44.1 95.8833 44.1C96.5833 44.1 97.1433 43.88 97.5633 43.42C97.9833 42.96 98.1833 42.34 98.1833 41.6V36.06H100.403V46H98.2433V44.66C97.9433 45.06 97.6033 45.38 97.2033 45.62C96.8033 45.88 96.4433 46.02 96.1233 46.1C95.8233 46.18 95.5033 46.2 95.2033 46.2C93.6033 46.2 92.4233 45.42 91.8833 44.22C91.6033 43.62 91.4833 42.94 91.4833 42.18V36.06H93.7033ZM106.101 46.18C104.501 46.16 103.421 45.54 102.841 44.78C102.421 44.24 102.221 43.76 102.181 43.28L104.081 42.78C104.281 43.7 104.981 44.36 106.081 44.36C106.981 44.36 107.481 43.9 107.481 43.2C107.481 42.66 107.141 42.3 106.301 42.1L105.041 41.8C103.281 41.4 102.401 40.3 102.401 38.96C102.401 38.1 102.741 37.38 103.421 36.76C104.081 36.16 104.921 35.84 105.921 35.84C107.461 35.86 108.441 36.44 108.981 37.16C109.361 37.66 109.521 38.08 109.581 38.5L107.721 39.02C107.541 38.26 106.981 37.64 105.921 37.64C105.561 37.64 105.241 37.74 104.961 37.96C104.681 38.16 104.561 38.44 104.561 38.76C104.561 39.32 104.961 39.68 105.561 39.8L106.921 40.08C107.801 40.28 108.501 40.64 109.001 41.18C109.481 41.72 109.741 42.36 109.741 43.08C109.741 44.6 108.581 46.18 106.101 46.18ZM111.659 33.86C111.379 33.58 111.219 33.24 111.219 32.84C111.219 32.42 111.379 32.08 111.659 31.8C111.939 31.5 112.279 31.36 112.679 31.36C113.099 31.36 113.439 31.5 113.719 31.8C113.999 32.08 114.139 32.42 114.139 32.84C114.139 33.24 113.999 33.58 113.719 33.86C113.439 34.14 113.099 34.3 112.679 34.3C112.279 34.3 111.939 34.14 111.659 33.86ZM111.579 46V36.06H113.799V46H111.579ZM122.975 46V40.44C122.975 38.94 122.235 37.96 120.775 37.96C120.075 37.96 119.515 38.18 119.095 38.64C118.675 39.1 118.475 39.7 118.475 40.46V46H116.255V36.06H118.415V37.4C118.715 37 119.075 36.68 119.475 36.44C119.875 36.2 120.215 36.04 120.535 35.96C120.835 35.9 121.155 35.86 121.455 35.86C122.675 35.86 123.595 36.22 124.235 36.98C124.875 37.72 125.175 38.7 125.175 39.88V46H122.975ZM136.692 41.68H129.132C129.172 43.16 130.612 44.3 132.052 44.28C133.332 44.28 134.312 43.74 134.692 42.6L136.552 43.18C136.192 44.4 135.192 45.38 133.992 45.84C133.372 46.06 132.752 46.18 132.072 46.18C129.212 46.24 126.812 43.9 126.872 41.02C126.872 40.08 127.092 39.22 127.512 38.44C127.952 37.64 128.532 37.02 129.312 36.56C130.072 36.1 130.932 35.86 131.872 35.86C133.392 35.86 134.572 36.32 135.432 37.28C136.292 38.22 136.732 39.46 136.732 41C136.732 41.24 136.712 41.48 136.692 41.68ZM131.892 37.76C131.212 37.76 130.612 37.96 130.132 38.38C129.652 38.78 129.352 39.32 129.252 40H134.472C134.432 39.32 134.172 38.78 133.692 38.36C133.192 37.96 132.592 37.76 131.892 37.76ZM141.737 46.18C140.137 46.16 139.057 45.54 138.477 44.78C138.057 44.24 137.857 43.76 137.817 43.28L139.717 42.78C139.917 43.7 140.617 44.36 141.717 44.36C142.617 44.36 143.117 43.9 143.117 43.2C143.117 42.66 142.777 42.3 141.937 42.1L140.677 41.8C138.917 41.4 138.037 40.3 138.037 38.96C138.037 38.1 138.377 37.38 139.057 36.76C139.717 36.16 140.557 35.84 141.557 35.84C143.097 35.86 144.077 36.44 144.617 37.16C144.997 37.66 145.157 38.08 145.217 38.5L143.357 39.02C143.177 38.26 142.617 37.64 141.557 37.64C141.197 37.64 140.877 37.74 140.597 37.96C140.317 38.16 140.197 38.44 140.197 38.76C140.197 39.32 140.597 39.68 141.197 39.8L142.557 40.08C143.437 40.28 144.137 40.64 144.637 41.18C145.117 41.72 145.377 42.36 145.377 43.08C145.377 44.6 144.217 46.18 141.737 46.18ZM150.456 46.18C148.856 46.16 147.776 45.54 147.196 44.78C146.776 44.24 146.576 43.76 146.536 43.28L148.436 42.78C148.636 43.7 149.336 44.36 150.436 44.36C151.336 44.36 151.836 43.9 151.836 43.2C151.836 42.66 151.496 42.3 150.656 42.1L149.396 41.8C147.636 41.4 146.756 40.3 146.756 38.96C146.756 38.1 147.096 37.38 147.776 36.76C148.436 36.16 149.276 35.84 150.276 35.84C151.816 35.86 152.796 36.44 153.336 37.16C153.716 37.66 153.876 38.08 153.936 38.5L152.076 39.02C151.896 38.26 151.336 37.64 150.276 37.64C149.916 37.64 149.596 37.74 149.316 37.96C149.036 38.16 148.916 38.44 148.916 38.76C148.916 39.32 149.316 39.68 149.916 39.8L151.276 40.08C152.156 40.28 152.856 40.64 153.356 41.18C153.836 41.72 154.096 42.36 154.096 43.08C154.096 44.6 152.936 46.18 150.456 46.18ZM173.677 35.64L171.437 36.34C171.257 35.68 170.837 35 170.157 34.38C169.477 33.76 168.397 33.34 167.177 33.34C166.237 33.34 165.397 33.56 164.617 34.02C163.857 34.5 163.257 35.14 162.817 35.96C162.377 36.78 162.157 37.7 162.157 38.7C162.097 41.64 164.277 44.1 167.157 44.06C168.377 44.06 169.377 43.74 170.117 43.14C170.877 42.52 171.337 41.74 171.497 40.78H166.277V38.7H173.977V39.5C173.977 41.34 173.297 43 172.177 44.2C171.037 45.42 169.257 46.16 167.177 46.16C165.737 46.16 164.457 45.84 163.337 45.2C162.197 44.54 161.317 43.66 160.697 42.54C160.077 41.4 159.777 40.14 159.777 38.74C159.777 37.68 159.977 36.66 160.357 35.72C160.717 34.8 161.237 34 161.897 33.34C163.217 32.02 165.117 31.2 167.197 31.2C170.717 31.2 173.017 33.32 173.677 35.64ZM181.176 36.02V38.3C180.996 38.26 180.796 38.24 180.556 38.24C178.876 38.24 177.956 39.22 177.956 40.94V46H175.736V36.06H177.916V37.6C178.496 36.54 179.556 35.98 180.636 35.98C180.836 35.98 181.016 36 181.176 36.02ZM181.392 41.02C181.392 40.06 181.632 39.18 182.112 38.38C182.592 37.6 183.212 36.96 184.032 36.52C184.832 36.08 185.712 35.86 186.672 35.86C187.592 35.86 188.472 36.08 189.272 36.52C190.072 36.96 190.712 37.58 191.192 38.36C191.652 39.16 191.892 40.02 191.892 40.98C191.952 43.86 189.492 46.24 186.652 46.18C185.692 46.18 184.832 45.94 184.032 45.5C183.212 45.06 182.592 44.42 182.112 43.64C181.632 42.84 181.392 41.98 181.392 41.02ZM183.672 40.98C183.672 41.84 183.952 42.6 184.512 43.22C185.072 43.84 185.792 44.16 186.672 44.16C187.552 44.16 188.252 43.86 188.812 43.24C189.352 42.64 189.632 41.9 189.632 41.02C189.632 40.14 189.352 39.38 188.792 38.78C188.252 38.16 187.532 37.86 186.652 37.86C185.772 37.86 185.052 38.16 184.492 38.76C183.932 39.36 183.672 40.1 183.672 40.98ZM203.273 43.1H203.293L205.393 36.06H207.673L204.473 46H202.193L199.893 39.02H199.853L197.533 46H195.273L192.093 36.06H194.393L196.493 43.08H196.513L198.773 36.06H200.993L203.273 43.1ZM214.68 36.06V38.06H212.16V42.8C212.16 43.68 212.6 44.08 213.68 44.08C213.9 44.08 214.2 44.06 214.58 44V45.9C214.14 46.02 213.6 46.1 213 46.1C211.98 46.1 211.2 45.86 210.7 45.38C210.2 44.9 209.94 44.08 209.94 42.92V38.06H208.02V36.06H209.94V32.98H212.16V36.06H214.68ZM223.21 46V40.44C223.21 38.94 222.47 37.96 221.01 37.96C220.31 37.96 219.75 38.18 219.33 38.64C218.91 39.1 218.71 39.7 218.71 40.46V46H216.49V30.84H218.71V37.32C219.01 36.94 219.35 36.64 219.73 36.4C220.13 36.18 220.47 36.02 220.79 35.96C221.09 35.9 221.39 35.86 221.69 35.86C222.91 35.86 223.83 36.22 224.47 36.98C225.11 37.72 225.41 38.7 225.41 39.88V46H223.21Z" fill="black"/>
<ellipse cx="245.328" cy="12.5" rx="12.3276" ry="12.5" fill="#0066FF"/>
<path d="M240.551 13.822L244.639 16.9366L251.908 8.0376" stroke="white" stroke-width="2.3" stroke-linecap="round"/>
</svg>
