<svg width="28" height="26" viewBox="0 0 28 26" fill="none" xmlns="http://www.w3.org/2000/svg">
<path opacity="0.3" d="M0 21.6612L9.22224 16.7866L18.17 20.8488L8.80505 25.5697L0 21.6612Z" fill="url(#paint0_linear_2178_1464)"/>
<path d="M26.9085 9.95769L18.1803 20.8817L9.10076 16.8963L9.00195 4.46826L26.9085 6.66403V9.95769Z" fill="url(#paint1_linear_2178_1464)"/>
<path d="M18.1816 20.8818V9.03563L26.5475 4.69897L27.1184 4.74289L27.1404 16.3695L18.1816 20.8818Z" fill="url(#paint2_linear_2178_1464)"/>
<path d="M8.96875 4.45742L17.8287 0L27.1168 4.74287L18.18 9.25518L8.96875 4.45742Z" fill="url(#paint3_linear_2178_1464)"/>
<defs>
<linearGradient id="paint0_linear_2178_1464" x1="14.1352" y1="20.6367" x2="5.73543" y2="24.4416" gradientUnits="userSpaceOnUse">
<stop offset="0.00502513" stop-color="#5298EF"/>
<stop offset="1" stop-color="#73B0F1" stop-opacity="0"/>
</linearGradient>
<linearGradient id="paint1_linear_2178_1464" x1="9.00514" y1="12.6728" x2="26.9133" y2="12.6728" gradientUnits="userSpaceOnUse">
<stop stop-color="#6DACEF"/>
<stop offset="1" stop-color="#97C9FE"/>
</linearGradient>
<linearGradient id="paint2_linear_2178_1464" x1="21.2661" y1="16.4877" x2="26.3087" y2="12.295" gradientUnits="userSpaceOnUse">
<stop offset="0.00337838" stop-color="#8EBEF4"/>
<stop offset="1" stop-color="#B4D8FA"/>
</linearGradient>
<linearGradient id="paint3_linear_2178_1464" x1="8.96787" y1="4.62671" x2="27.1193" y2="4.62671" gradientUnits="userSpaceOnUse">
<stop stop-color="#97C3F4"/>
<stop offset="1" stop-color="#E8F1FA"/>
</linearGradient>
</defs>
</svg>
