<svg width="285" height="158" viewBox="0 0 285 158" fill="none" xmlns="http://www.w3.org/2000/svg">
<path d="M1.77059 3.5431C2.74846 3.5431 3.54118 2.74995 3.54118 1.77155C3.54118 0.793151 2.74846 0 1.77059 0C0.792719 0 0 0.793151 0 1.77155C0 2.74995 0.792719 3.5431 1.77059 3.5431Z" fill="url(#paint0_linear_2464_3731)"/>
<path d="M1.77059 34.2501C2.74846 34.2501 3.54118 33.457 3.54118 32.4786C3.54118 31.5002 2.74846 30.707 1.77059 30.707C0.792719 30.707 0 31.5002 0 32.4786C0 33.457 0.792719 34.2501 1.77059 34.2501Z" fill="url(#paint1_linear_2464_3731)"/>
<path d="M1.77059 64.9572C2.74846 64.9572 3.54118 64.164 3.54118 63.1856C3.54118 62.2072 2.74846 61.4141 1.77059 61.4141C0.792719 61.4141 0 62.2072 0 63.1856C0 64.164 0.792719 64.9572 1.77059 64.9572Z" fill="url(#paint2_linear_2464_3731)"/>
<path d="M1.77059 95.6642C2.74846 95.6642 3.54118 94.871 3.54118 93.8926C3.54118 92.9142 2.74846 92.1211 1.77059 92.1211C0.792719 92.1211 0 92.9142 0 93.8926C0 94.871 0.792719 95.6642 1.77059 95.6642Z" fill="url(#paint3_linear_2464_3731)"/>
<path d="M1.77059 126.371C2.74846 126.371 3.54118 125.578 3.54118 124.6C3.54118 123.621 2.74846 122.828 1.77059 122.828C0.792719 122.828 0 123.621 0 124.6C0 125.578 0.792719 126.371 1.77059 126.371Z" fill="url(#paint4_linear_2464_3731)"/>
<path d="M1.77059 157.078C2.74846 157.078 3.54118 156.285 3.54118 155.307C3.54118 154.328 2.74846 153.535 1.77059 153.535C0.792719 153.535 0 154.328 0 155.307C0 156.285 0.792719 157.078 1.77059 157.078Z" fill="url(#paint5_linear_2464_3731)"/>
<path d="M41.9054 3.5431C42.8832 3.5431 43.6759 2.74995 43.6759 1.77155C43.6759 0.793151 42.8832 0 41.9054 0C40.9275 0 40.1348 0.793151 40.1348 1.77155C40.1348 2.74995 40.9275 3.5431 41.9054 3.5431Z" fill="url(#paint6_linear_2464_3731)"/>
<path d="M41.9054 34.2501C42.8832 34.2501 43.6759 33.457 43.6759 32.4786C43.6759 31.5002 42.8832 30.707 41.9054 30.707C40.9275 30.707 40.1348 31.5002 40.1348 32.4786C40.1348 33.457 40.9275 34.2501 41.9054 34.2501Z" fill="url(#paint7_linear_2464_3731)"/>
<path d="M41.9054 64.9572C42.8832 64.9572 43.6759 64.164 43.6759 63.1856C43.6759 62.2072 42.8832 61.4141 41.9054 61.4141C40.9275 61.4141 40.1348 62.2072 40.1348 63.1856C40.1348 64.164 40.9275 64.9572 41.9054 64.9572Z" fill="url(#paint8_linear_2464_3731)"/>
<path d="M41.9054 95.6642C42.8832 95.6642 43.6759 94.871 43.6759 93.8926C43.6759 92.9142 42.8832 92.1211 41.9054 92.1211C40.9275 92.1211 40.1348 92.9142 40.1348 93.8926C40.1348 94.871 40.9275 95.6642 41.9054 95.6642Z" fill="url(#paint9_linear_2464_3731)"/>
<path d="M41.9054 126.371C42.8832 126.371 43.6759 125.578 43.6759 124.6C43.6759 123.621 42.8832 122.828 41.9054 122.828C40.9275 122.828 40.1348 123.621 40.1348 124.6C40.1348 125.578 40.9275 126.371 41.9054 126.371Z" fill="url(#paint10_linear_2464_3731)"/>
<path d="M41.9054 157.078C42.8832 157.078 43.6759 156.285 43.6759 155.307C43.6759 154.328 42.8832 153.535 41.9054 153.535C40.9275 153.535 40.1348 154.328 40.1348 155.307C40.1348 156.285 40.9275 157.078 41.9054 157.078Z" fill="url(#paint11_linear_2464_3731)"/>
<path d="M82.0382 3.5431C83.016 3.5431 83.8088 2.74995 83.8088 1.77155C83.8088 0.793151 83.016 0 82.0382 0C81.0603 0 80.2676 0.793151 80.2676 1.77155C80.2676 2.74995 81.0603 3.5431 82.0382 3.5431Z" fill="url(#paint12_linear_2464_3731)"/>
<path d="M82.0382 34.2501C83.016 34.2501 83.8088 33.457 83.8088 32.4786C83.8088 31.5002 83.016 30.707 82.0382 30.707C81.0603 30.707 80.2676 31.5002 80.2676 32.4786C80.2676 33.457 81.0603 34.2501 82.0382 34.2501Z" fill="url(#paint13_linear_2464_3731)"/>
<path d="M82.0382 64.9572C83.016 64.9572 83.8088 64.164 83.8088 63.1856C83.8088 62.2072 83.016 61.4141 82.0382 61.4141C81.0603 61.4141 80.2676 62.2072 80.2676 63.1856C80.2676 64.164 81.0603 64.9572 82.0382 64.9572Z" fill="url(#paint14_linear_2464_3731)"/>
<path d="M82.0382 95.6642C83.016 95.6642 83.8088 94.871 83.8088 93.8926C83.8088 92.9142 83.016 92.1211 82.0382 92.1211C81.0603 92.1211 80.2676 92.9142 80.2676 93.8926C80.2676 94.871 81.0603 95.6642 82.0382 95.6642Z" fill="url(#paint15_linear_2464_3731)"/>
<path d="M82.0382 126.371C83.016 126.371 83.8088 125.578 83.8088 124.6C83.8088 123.621 83.016 122.828 82.0382 122.828C81.0603 122.828 80.2676 123.621 80.2676 124.6C80.2676 125.578 81.0603 126.371 82.0382 126.371Z" fill="url(#paint16_linear_2464_3731)"/>
<path d="M82.0382 157.078C83.016 157.078 83.8088 156.285 83.8088 155.307C83.8088 154.328 83.016 153.535 82.0382 153.535C81.0603 153.535 80.2676 154.328 80.2676 155.307C80.2676 156.285 81.0603 157.078 82.0382 157.078Z" fill="url(#paint17_linear_2464_3731)"/>
<path d="M122.171 3.5431C123.149 3.5431 123.942 2.74995 123.942 1.77155C123.942 0.793151 123.149 0 122.171 0C121.193 0 120.4 0.793151 120.4 1.77155C120.4 2.74995 121.193 3.5431 122.171 3.5431Z" fill="url(#paint18_linear_2464_3731)"/>
<path d="M122.171 34.2501C123.149 34.2501 123.942 33.457 123.942 32.4786C123.942 31.5002 123.149 30.707 122.171 30.707C121.193 30.707 120.4 31.5002 120.4 32.4786C120.4 33.457 121.193 34.2501 122.171 34.2501Z" fill="url(#paint19_linear_2464_3731)"/>
<path d="M122.171 64.9572C123.149 64.9572 123.942 64.164 123.942 63.1856C123.942 62.2072 123.149 61.4141 122.171 61.4141C121.193 61.4141 120.4 62.2072 120.4 63.1856C120.4 64.164 121.193 64.9572 122.171 64.9572Z" fill="url(#paint20_linear_2464_3731)"/>
<path d="M122.171 95.6642C123.149 95.6642 123.942 94.871 123.942 93.8926C123.942 92.9142 123.149 92.1211 122.171 92.1211C121.193 92.1211 120.4 92.9142 120.4 93.8926C120.4 94.871 121.193 95.6642 122.171 95.6642Z" fill="url(#paint21_linear_2464_3731)"/>
<path d="M122.171 126.371C123.149 126.371 123.942 125.578 123.942 124.6C123.942 123.621 123.149 122.828 122.171 122.828C121.193 122.828 120.4 123.621 120.4 124.6C120.4 125.578 121.193 126.371 122.171 126.371Z" fill="url(#paint22_linear_2464_3731)"/>
<path d="M122.171 157.078C123.149 157.078 123.942 156.285 123.942 155.307C123.942 154.328 123.149 153.535 122.171 153.535C121.193 153.535 120.4 154.328 120.4 155.307C120.4 156.285 121.193 157.078 122.171 157.078Z" fill="url(#paint23_linear_2464_3731)"/>
<path d="M162.304 3.5431C163.282 3.5431 164.074 2.74995 164.074 1.77155C164.074 0.793151 163.282 0 162.304 0C161.326 0 160.533 0.793151 160.533 1.77155C160.533 2.74995 161.326 3.5431 162.304 3.5431Z" fill="url(#paint24_linear_2464_3731)"/>
<path d="M162.304 34.2501C163.282 34.2501 164.074 33.457 164.074 32.4786C164.074 31.5002 163.282 30.707 162.304 30.707C161.326 30.707 160.533 31.5002 160.533 32.4786C160.533 33.457 161.326 34.2501 162.304 34.2501Z" fill="url(#paint25_linear_2464_3731)"/>
<path d="M162.304 64.9572C163.282 64.9572 164.074 64.164 164.074 63.1856C164.074 62.2072 163.282 61.4141 162.304 61.4141C161.326 61.4141 160.533 62.2072 160.533 63.1856C160.533 64.164 161.326 64.9572 162.304 64.9572Z" fill="url(#paint26_linear_2464_3731)"/>
<path d="M162.304 95.6642C163.282 95.6642 164.074 94.871 164.074 93.8926C164.074 92.9142 163.282 92.1211 162.304 92.1211C161.326 92.1211 160.533 92.9142 160.533 93.8926C160.533 94.871 161.326 95.6642 162.304 95.6642Z" fill="url(#paint27_linear_2464_3731)"/>
<path d="M162.304 126.371C163.282 126.371 164.074 125.578 164.074 124.6C164.074 123.621 163.282 122.828 162.304 122.828C161.326 122.828 160.533 123.621 160.533 124.6C160.533 125.578 161.326 126.371 162.304 126.371Z" fill="url(#paint28_linear_2464_3731)"/>
<path d="M162.304 157.078C163.282 157.078 164.074 156.285 164.074 155.307C164.074 154.328 163.282 153.535 162.304 153.535C161.326 153.535 160.533 154.328 160.533 155.307C160.533 156.285 161.326 157.078 162.304 157.078Z" fill="url(#paint29_linear_2464_3731)"/>
<path d="M202.439 3.5431C203.416 3.5431 204.209 2.74995 204.209 1.77155C204.209 0.793151 203.416 0 202.439 0C201.461 0 200.668 0.793151 200.668 1.77155C200.668 2.74995 201.461 3.5431 202.439 3.5431Z" fill="url(#paint30_linear_2464_3731)"/>
<path d="M202.439 34.2501C203.416 34.2501 204.209 33.457 204.209 32.4786C204.209 31.5002 203.416 30.707 202.439 30.707C201.461 30.707 200.668 31.5002 200.668 32.4786C200.668 33.457 201.461 34.2501 202.439 34.2501Z" fill="url(#paint31_linear_2464_3731)"/>
<path d="M202.439 64.9572C203.416 64.9572 204.209 64.164 204.209 63.1856C204.209 62.2072 203.416 61.4141 202.439 61.4141C201.461 61.4141 200.668 62.2072 200.668 63.1856C200.668 64.164 201.461 64.9572 202.439 64.9572Z" fill="url(#paint32_linear_2464_3731)"/>
<path d="M202.439 95.6642C203.416 95.6642 204.209 94.871 204.209 93.8926C204.209 92.9142 203.416 92.1211 202.439 92.1211C201.461 92.1211 200.668 92.9142 200.668 93.8926C200.668 94.871 201.461 95.6642 202.439 95.6642Z" fill="url(#paint33_linear_2464_3731)"/>
<path d="M202.439 126.371C203.416 126.371 204.209 125.578 204.209 124.6C204.209 123.621 203.416 122.828 202.439 122.828C201.461 122.828 200.668 123.621 200.668 124.6C200.668 125.578 201.461 126.371 202.439 126.371Z" fill="url(#paint34_linear_2464_3731)"/>
<path d="M202.439 157.078C203.416 157.078 204.209 156.285 204.209 155.307C204.209 154.328 203.416 153.535 202.439 153.535C201.461 153.535 200.668 154.328 200.668 155.307C200.668 156.285 201.461 157.078 202.439 157.078Z" fill="url(#paint35_linear_2464_3731)"/>
<path d="M242.571 3.5431C243.549 3.5431 244.342 2.74995 244.342 1.77155C244.342 0.793151 243.549 0 242.571 0C241.593 0 240.801 0.793151 240.801 1.77155C240.801 2.74995 241.593 3.5431 242.571 3.5431Z" fill="url(#paint36_linear_2464_3731)"/>
<path d="M242.571 34.2501C243.549 34.2501 244.342 33.457 244.342 32.4786C244.342 31.5002 243.549 30.707 242.571 30.707C241.593 30.707 240.801 31.5002 240.801 32.4786C240.801 33.457 241.593 34.2501 242.571 34.2501Z" fill="url(#paint37_linear_2464_3731)"/>
<path d="M242.571 64.9572C243.549 64.9572 244.342 64.164 244.342 63.1856C244.342 62.2072 243.549 61.4141 242.571 61.4141C241.593 61.4141 240.801 62.2072 240.801 63.1856C240.801 64.164 241.593 64.9572 242.571 64.9572Z" fill="url(#paint38_linear_2464_3731)"/>
<path d="M242.571 95.6642C243.549 95.6642 244.342 94.871 244.342 93.8926C244.342 92.9142 243.549 92.1211 242.571 92.1211C241.593 92.1211 240.801 92.9142 240.801 93.8926C240.801 94.871 241.593 95.6642 242.571 95.6642Z" fill="url(#paint39_linear_2464_3731)"/>
<path d="M242.571 126.371C243.549 126.371 244.342 125.578 244.342 124.6C244.342 123.621 243.549 122.828 242.571 122.828C241.593 122.828 240.801 123.621 240.801 124.6C240.801 125.578 241.593 126.371 242.571 126.371Z" fill="url(#paint40_linear_2464_3731)"/>
<path d="M242.571 157.078C243.549 157.078 244.342 156.285 244.342 155.307C244.342 154.328 243.549 153.535 242.571 153.535C241.593 153.535 240.801 154.328 240.801 155.307C240.801 156.285 241.593 157.078 242.571 157.078Z" fill="url(#paint41_linear_2464_3731)"/>
<path d="M282.704 3.5431C283.682 3.5431 284.475 2.74995 284.475 1.77155C284.475 0.793151 283.682 0 282.704 0C281.726 0 280.934 0.793151 280.934 1.77155C280.934 2.74995 281.726 3.5431 282.704 3.5431Z" fill="url(#paint42_linear_2464_3731)"/>
<path d="M282.704 34.2501C283.682 34.2501 284.475 33.457 284.475 32.4786C284.475 31.5002 283.682 30.707 282.704 30.707C281.726 30.707 280.934 31.5002 280.934 32.4786C280.934 33.457 281.726 34.2501 282.704 34.2501Z" fill="url(#paint43_linear_2464_3731)"/>
<path d="M282.704 64.9572C283.682 64.9572 284.475 64.164 284.475 63.1856C284.475 62.2072 283.682 61.4141 282.704 61.4141C281.726 61.4141 280.934 62.2072 280.934 63.1856C280.934 64.164 281.726 64.9572 282.704 64.9572Z" fill="url(#paint44_linear_2464_3731)"/>
<path d="M282.704 95.6642C283.682 95.6642 284.475 94.871 284.475 93.8926C284.475 92.9142 283.682 92.1211 282.704 92.1211C281.726 92.1211 280.934 92.9142 280.934 93.8926C280.934 94.871 281.726 95.6642 282.704 95.6642Z" fill="url(#paint45_linear_2464_3731)"/>
<path d="M282.704 126.371C283.682 126.371 284.475 125.578 284.475 124.6C284.475 123.621 283.682 122.828 282.704 122.828C281.726 122.828 280.934 123.621 280.934 124.6C280.934 125.578 281.726 126.371 282.704 126.371Z" fill="url(#paint46_linear_2464_3731)"/>
<path d="M282.704 157.078C283.682 157.078 284.475 156.285 284.475 155.307C284.475 154.328 283.682 153.535 282.704 153.535C281.726 153.535 280.934 154.328 280.934 155.307C280.934 156.285 281.726 157.078 282.704 157.078Z" fill="url(#paint47_linear_2464_3731)"/>
<defs>
<linearGradient id="paint0_linear_2464_3731" x1="-5.99796" y1="12.3199" x2="303.987" y2="55.5633" gradientUnits="userSpaceOnUse">
<stop stop-color="#9FE871"/>
<stop offset="1" stop-color="#6BD723"/>
</linearGradient>
<linearGradient id="paint1_linear_2464_3731" x1="-5.99796" y1="12.3199" x2="303.987" y2="55.5633" gradientUnits="userSpaceOnUse">
<stop stop-color="#9FE871"/>
<stop offset="1" stop-color="#6BD723"/>
</linearGradient>
<linearGradient id="paint2_linear_2464_3731" x1="-5.99796" y1="12.3199" x2="303.987" y2="55.5633" gradientUnits="userSpaceOnUse">
<stop stop-color="#9FE871"/>
<stop offset="1" stop-color="#6BD723"/>
</linearGradient>
<linearGradient id="paint3_linear_2464_3731" x1="-5.99796" y1="12.3199" x2="303.987" y2="55.5633" gradientUnits="userSpaceOnUse">
<stop stop-color="#9FE871"/>
<stop offset="1" stop-color="#6BD723"/>
</linearGradient>
<linearGradient id="paint4_linear_2464_3731" x1="-5.99796" y1="12.3199" x2="303.987" y2="55.5633" gradientUnits="userSpaceOnUse">
<stop stop-color="#9FE871"/>
<stop offset="1" stop-color="#6BD723"/>
</linearGradient>
<linearGradient id="paint5_linear_2464_3731" x1="-5.99796" y1="12.3199" x2="303.987" y2="55.5633" gradientUnits="userSpaceOnUse">
<stop stop-color="#9FE871"/>
<stop offset="1" stop-color="#6BD723"/>
</linearGradient>
<linearGradient id="paint6_linear_2464_3731" x1="-5.99796" y1="12.3199" x2="303.987" y2="55.5633" gradientUnits="userSpaceOnUse">
<stop stop-color="#9FE871"/>
<stop offset="1" stop-color="#6BD723"/>
</linearGradient>
<linearGradient id="paint7_linear_2464_3731" x1="-5.99796" y1="12.3199" x2="303.987" y2="55.5633" gradientUnits="userSpaceOnUse">
<stop stop-color="#9FE871"/>
<stop offset="1" stop-color="#6BD723"/>
</linearGradient>
<linearGradient id="paint8_linear_2464_3731" x1="-5.99796" y1="12.3199" x2="303.987" y2="55.5633" gradientUnits="userSpaceOnUse">
<stop stop-color="#9FE871"/>
<stop offset="1" stop-color="#6BD723"/>
</linearGradient>
<linearGradient id="paint9_linear_2464_3731" x1="-5.99796" y1="12.3199" x2="303.987" y2="55.5633" gradientUnits="userSpaceOnUse">
<stop stop-color="#9FE871"/>
<stop offset="1" stop-color="#6BD723"/>
</linearGradient>
<linearGradient id="paint10_linear_2464_3731" x1="-5.99796" y1="12.3199" x2="303.987" y2="55.5633" gradientUnits="userSpaceOnUse">
<stop stop-color="#9FE871"/>
<stop offset="1" stop-color="#6BD723"/>
</linearGradient>
<linearGradient id="paint11_linear_2464_3731" x1="-5.99796" y1="12.3199" x2="303.987" y2="55.5633" gradientUnits="userSpaceOnUse">
<stop stop-color="#9FE871"/>
<stop offset="1" stop-color="#6BD723"/>
</linearGradient>
<linearGradient id="paint12_linear_2464_3731" x1="-5.99796" y1="12.3199" x2="303.987" y2="55.5633" gradientUnits="userSpaceOnUse">
<stop stop-color="#9FE871"/>
<stop offset="1" stop-color="#6BD723"/>
</linearGradient>
<linearGradient id="paint13_linear_2464_3731" x1="-5.99796" y1="12.3199" x2="303.987" y2="55.5633" gradientUnits="userSpaceOnUse">
<stop stop-color="#9FE871"/>
<stop offset="1" stop-color="#6BD723"/>
</linearGradient>
<linearGradient id="paint14_linear_2464_3731" x1="-5.99796" y1="12.3199" x2="303.987" y2="55.5633" gradientUnits="userSpaceOnUse">
<stop stop-color="#9FE871"/>
<stop offset="1" stop-color="#6BD723"/>
</linearGradient>
<linearGradient id="paint15_linear_2464_3731" x1="-5.99796" y1="12.3199" x2="303.987" y2="55.5633" gradientUnits="userSpaceOnUse">
<stop stop-color="#9FE871"/>
<stop offset="1" stop-color="#6BD723"/>
</linearGradient>
<linearGradient id="paint16_linear_2464_3731" x1="-5.99796" y1="12.3199" x2="303.987" y2="55.5633" gradientUnits="userSpaceOnUse">
<stop stop-color="#9FE871"/>
<stop offset="1" stop-color="#6BD723"/>
</linearGradient>
<linearGradient id="paint17_linear_2464_3731" x1="-5.99796" y1="12.3199" x2="303.987" y2="55.5633" gradientUnits="userSpaceOnUse">
<stop stop-color="#9FE871"/>
<stop offset="1" stop-color="#6BD723"/>
</linearGradient>
<linearGradient id="paint18_linear_2464_3731" x1="-5.99796" y1="12.3199" x2="303.987" y2="55.5633" gradientUnits="userSpaceOnUse">
<stop stop-color="#9FE871"/>
<stop offset="1" stop-color="#6BD723"/>
</linearGradient>
<linearGradient id="paint19_linear_2464_3731" x1="-5.99796" y1="12.3199" x2="303.987" y2="55.5633" gradientUnits="userSpaceOnUse">
<stop stop-color="#9FE871"/>
<stop offset="1" stop-color="#6BD723"/>
</linearGradient>
<linearGradient id="paint20_linear_2464_3731" x1="-5.99796" y1="12.3199" x2="303.987" y2="55.5633" gradientUnits="userSpaceOnUse">
<stop stop-color="#9FE871"/>
<stop offset="1" stop-color="#6BD723"/>
</linearGradient>
<linearGradient id="paint21_linear_2464_3731" x1="-5.99796" y1="12.3199" x2="303.987" y2="55.5633" gradientUnits="userSpaceOnUse">
<stop stop-color="#9FE871"/>
<stop offset="1" stop-color="#6BD723"/>
</linearGradient>
<linearGradient id="paint22_linear_2464_3731" x1="-5.99796" y1="12.3199" x2="303.987" y2="55.5633" gradientUnits="userSpaceOnUse">
<stop stop-color="#9FE871"/>
<stop offset="1" stop-color="#6BD723"/>
</linearGradient>
<linearGradient id="paint23_linear_2464_3731" x1="-5.99796" y1="12.3199" x2="303.987" y2="55.5633" gradientUnits="userSpaceOnUse">
<stop stop-color="#9FE871"/>
<stop offset="1" stop-color="#6BD723"/>
</linearGradient>
<linearGradient id="paint24_linear_2464_3731" x1="-5.99796" y1="12.3199" x2="303.987" y2="55.5633" gradientUnits="userSpaceOnUse">
<stop stop-color="#9FE871"/>
<stop offset="1" stop-color="#6BD723"/>
</linearGradient>
<linearGradient id="paint25_linear_2464_3731" x1="-5.99796" y1="12.3199" x2="303.987" y2="55.5633" gradientUnits="userSpaceOnUse">
<stop stop-color="#9FE871"/>
<stop offset="1" stop-color="#6BD723"/>
</linearGradient>
<linearGradient id="paint26_linear_2464_3731" x1="-5.99796" y1="12.3199" x2="303.987" y2="55.5633" gradientUnits="userSpaceOnUse">
<stop stop-color="#9FE871"/>
<stop offset="1" stop-color="#6BD723"/>
</linearGradient>
<linearGradient id="paint27_linear_2464_3731" x1="-5.99796" y1="12.3199" x2="303.987" y2="55.5633" gradientUnits="userSpaceOnUse">
<stop stop-color="#9FE871"/>
<stop offset="1" stop-color="#6BD723"/>
</linearGradient>
<linearGradient id="paint28_linear_2464_3731" x1="-5.99796" y1="12.3199" x2="303.987" y2="55.5633" gradientUnits="userSpaceOnUse">
<stop stop-color="#9FE871"/>
<stop offset="1" stop-color="#6BD723"/>
</linearGradient>
<linearGradient id="paint29_linear_2464_3731" x1="-5.99796" y1="12.3199" x2="303.987" y2="55.5633" gradientUnits="userSpaceOnUse">
<stop stop-color="#9FE871"/>
<stop offset="1" stop-color="#6BD723"/>
</linearGradient>
<linearGradient id="paint30_linear_2464_3731" x1="-5.99796" y1="12.3199" x2="303.987" y2="55.5633" gradientUnits="userSpaceOnUse">
<stop stop-color="#9FE871"/>
<stop offset="1" stop-color="#6BD723"/>
</linearGradient>
<linearGradient id="paint31_linear_2464_3731" x1="-5.99796" y1="12.3199" x2="303.987" y2="55.5633" gradientUnits="userSpaceOnUse">
<stop stop-color="#9FE871"/>
<stop offset="1" stop-color="#6BD723"/>
</linearGradient>
<linearGradient id="paint32_linear_2464_3731" x1="-5.99796" y1="12.3199" x2="303.987" y2="55.5633" gradientUnits="userSpaceOnUse">
<stop stop-color="#9FE871"/>
<stop offset="1" stop-color="#6BD723"/>
</linearGradient>
<linearGradient id="paint33_linear_2464_3731" x1="-5.99796" y1="12.3199" x2="303.987" y2="55.5633" gradientUnits="userSpaceOnUse">
<stop stop-color="#9FE871"/>
<stop offset="1" stop-color="#6BD723"/>
</linearGradient>
<linearGradient id="paint34_linear_2464_3731" x1="-5.99796" y1="12.3199" x2="303.987" y2="55.5633" gradientUnits="userSpaceOnUse">
<stop stop-color="#9FE871"/>
<stop offset="1" stop-color="#6BD723"/>
</linearGradient>
<linearGradient id="paint35_linear_2464_3731" x1="-5.99796" y1="12.3199" x2="303.987" y2="55.5633" gradientUnits="userSpaceOnUse">
<stop stop-color="#9FE871"/>
<stop offset="1" stop-color="#6BD723"/>
</linearGradient>
<linearGradient id="paint36_linear_2464_3731" x1="-5.99796" y1="12.3199" x2="303.987" y2="55.5633" gradientUnits="userSpaceOnUse">
<stop stop-color="#9FE871"/>
<stop offset="1" stop-color="#6BD723"/>
</linearGradient>
<linearGradient id="paint37_linear_2464_3731" x1="-5.99796" y1="12.3199" x2="303.987" y2="55.5633" gradientUnits="userSpaceOnUse">
<stop stop-color="#9FE871"/>
<stop offset="1" stop-color="#6BD723"/>
</linearGradient>
<linearGradient id="paint38_linear_2464_3731" x1="-5.99796" y1="12.3199" x2="303.987" y2="55.5633" gradientUnits="userSpaceOnUse">
<stop stop-color="#9FE871"/>
<stop offset="1" stop-color="#6BD723"/>
</linearGradient>
<linearGradient id="paint39_linear_2464_3731" x1="-5.99796" y1="12.3199" x2="303.987" y2="55.5633" gradientUnits="userSpaceOnUse">
<stop stop-color="#9FE871"/>
<stop offset="1" stop-color="#6BD723"/>
</linearGradient>
<linearGradient id="paint40_linear_2464_3731" x1="-5.99796" y1="12.3199" x2="303.987" y2="55.5633" gradientUnits="userSpaceOnUse">
<stop stop-color="#9FE871"/>
<stop offset="1" stop-color="#6BD723"/>
</linearGradient>
<linearGradient id="paint41_linear_2464_3731" x1="-5.99796" y1="12.3199" x2="303.987" y2="55.5633" gradientUnits="userSpaceOnUse">
<stop stop-color="#9FE871"/>
<stop offset="1" stop-color="#6BD723"/>
</linearGradient>
<linearGradient id="paint42_linear_2464_3731" x1="-5.99796" y1="12.3199" x2="303.987" y2="55.5633" gradientUnits="userSpaceOnUse">
<stop stop-color="#9FE871"/>
<stop offset="1" stop-color="#6BD723"/>
</linearGradient>
<linearGradient id="paint43_linear_2464_3731" x1="-5.99796" y1="12.3199" x2="303.987" y2="55.5633" gradientUnits="userSpaceOnUse">
<stop stop-color="#9FE871"/>
<stop offset="1" stop-color="#6BD723"/>
</linearGradient>
<linearGradient id="paint44_linear_2464_3731" x1="-5.99796" y1="12.3199" x2="303.987" y2="55.5633" gradientUnits="userSpaceOnUse">
<stop stop-color="#9FE871"/>
<stop offset="1" stop-color="#6BD723"/>
</linearGradient>
<linearGradient id="paint45_linear_2464_3731" x1="-5.99796" y1="12.3199" x2="303.987" y2="55.5633" gradientUnits="userSpaceOnUse">
<stop stop-color="#9FE871"/>
<stop offset="1" stop-color="#6BD723"/>
</linearGradient>
<linearGradient id="paint46_linear_2464_3731" x1="-5.99796" y1="12.3199" x2="303.987" y2="55.5633" gradientUnits="userSpaceOnUse">
<stop stop-color="#9FE871"/>
<stop offset="1" stop-color="#6BD723"/>
</linearGradient>
<linearGradient id="paint47_linear_2464_3731" x1="-5.99796" y1="12.3199" x2="303.987" y2="55.5633" gradientUnits="userSpaceOnUse">
<stop stop-color="#9FE871"/>
<stop offset="1" stop-color="#6BD723"/>
</linearGradient>
</defs>
</svg>
