<svg width="684" height="639" viewBox="0 0 684 639" fill="none" xmlns="http://www.w3.org/2000/svg">
<path opacity="0.1" d="M407.568 -283.771C339.378 -215.581 301.069 -123.095 301.069 -26.6596C301.069 69.7758 339.378 162.262 407.568 230.452C475.759 298.642 568.244 336.951 664.68 336.951C761.115 336.951 853.601 298.642 921.791 230.452L664.68 -26.6596L407.568 -283.771Z" stroke="url(#paint0_linear_2464_4009)" stroke-width="2.02006" stroke-linecap="round"/>
<path opacity="0.1" d="M369.478 -321.861C291.185 -243.569 247.201 -137.382 247.201 -26.6596C247.201 84.0626 291.185 190.25 369.478 268.542C447.77 346.835 553.957 390.819 664.68 390.819C775.402 390.819 881.589 346.835 959.882 268.542L664.68 -26.6596L369.478 -321.861Z" stroke="url(#paint1_linear_2464_4009)" stroke-width="2.02006" stroke-linecap="round"/>
<path opacity="0.1" d="M332.34 -359C244.197 -270.858 194.68 -151.312 194.68 -26.6599C194.68 97.9919 244.197 217.538 332.339 305.68C420.482 393.822 540.028 443.34 664.68 443.34C789.331 443.34 908.878 393.822 997.02 305.68L664.68 -26.6599L332.34 -359Z" stroke="url(#paint2_linear_2464_4009)" stroke-width="2.02006" stroke-linecap="round"/>
<g opacity="0.08" filter="url(#filter0_b_2464_4009)">
<path d="M447.087 -244.252C389.378 -186.543 356.958 -108.273 356.958 -26.6598C356.958 54.9532 389.378 133.223 447.087 190.933C504.796 248.642 583.067 281.062 664.68 281.062C746.293 281.062 824.563 248.642 882.272 190.933L664.68 -26.6598L447.087 -244.252Z" fill="url(#paint3_linear_2464_4009)"/>
</g>
<defs>
<filter id="filter0_b_2464_4009" x="346.857" y="-254.352" width="545.515" height="545.515" filterUnits="userSpaceOnUse" color-interpolation-filters="sRGB">
<feFlood flood-opacity="0" result="BackgroundImageFix"/>
<feGaussianBlur in="BackgroundImageFix" stdDeviation="5.05014"/>
<feComposite in2="SourceAlpha" operator="in" result="effect1_backgroundBlur_2464_4009"/>
<feBlend mode="normal" in="SourceGraphic" in2="effect1_backgroundBlur_2464_4009" result="shape"/>
</filter>
<linearGradient id="paint0_linear_2464_4009" x1="407.568" y1="230.452" x2="664.68" y2="-26.6596" gradientUnits="userSpaceOnUse">
<stop stop-color="white"/>
<stop offset="1" stop-color="white" stop-opacity="0"/>
</linearGradient>
<linearGradient id="paint1_linear_2464_4009" x1="369.478" y1="268.542" x2="664.68" y2="-26.6596" gradientUnits="userSpaceOnUse">
<stop stop-color="white"/>
<stop offset="1" stop-color="white" stop-opacity="0"/>
</linearGradient>
<linearGradient id="paint2_linear_2464_4009" x1="332.34" y1="305.68" x2="664.68" y2="-26.6599" gradientUnits="userSpaceOnUse">
<stop stop-color="white"/>
<stop offset="1" stop-color="white" stop-opacity="0"/>
</linearGradient>
<linearGradient id="paint3_linear_2464_4009" x1="436.499" y1="168" x2="799.499" y2="-15.0001" gradientUnits="userSpaceOnUse">
<stop stop-color="white" stop-opacity="0.4"/>
<stop offset="1" stop-color="#999999" stop-opacity="0"/>
</linearGradient>
</defs>
</svg>
