<svg width="145" height="122" viewBox="0 0 145 122" fill="none" xmlns="http://www.w3.org/2000/svg">
<path d="M141.062 0H3.8125C1.70691 0 0 1.70691 0 3.8125V118.188C0 120.293 1.70691 122 3.8125 122H141.062C143.168 122 144.875 120.293 144.875 118.188V3.8125C144.875 1.70691 143.168 0 141.062 0Z" fill="white"/>
<path d="M15.3542 21.1015C14.5727 21.1015 13.915 20.9299 13.3812 20.5868C12.8538 20.2437 12.4599 19.7862 12.1994 19.2143C11.9388 18.6424 11.8086 18.0134 11.8086 17.3271C11.8086 16.6409 11.9388 16.015 12.1994 15.4494C12.4599 14.8776 12.8538 14.4201 13.3812 14.0769C13.915 13.7338 14.5727 13.5623 15.3542 13.5623C16.2692 13.5623 17.0095 13.7783 17.575 14.2104C18.1405 14.6425 18.4995 15.2302 18.652 15.9737H17.1461C17.0254 15.5924 16.8125 15.3001 16.5075 15.0968C16.2088 14.8934 15.8212 14.7918 15.3447 14.7918C14.8935 14.7918 14.5091 14.903 14.1914 15.1254C13.8801 15.3414 13.6418 15.6401 13.4766 16.0213C13.3177 16.4026 13.2383 16.8347 13.2383 17.3176C13.2383 18.0801 13.4289 18.6964 13.8102 19.1666C14.1977 19.6369 14.7506 19.8719 15.4686 19.8719C15.907 19.8719 16.2819 19.783 16.5933 19.6051C16.911 19.4208 17.1302 19.1698 17.2509 18.8521C17.2954 18.7377 17.3304 18.6011 17.3558 18.4423C17.3748 18.2707 17.4162 18.1531 17.4797 18.0896L17.3653 17.9752C17.2763 18.0451 17.1906 18.0928 17.108 18.1182C17.0254 18.1373 16.9015 18.1468 16.7362 18.1468H15.745V17.0126H18.7187V20.968H17.4702V19.9291H17.3177C17.3177 20.2532 17.1683 20.5169 16.8697 20.7202C16.5012 20.9744 15.996 21.1015 15.3542 21.1015ZM22.0579 21.0729C21.5241 21.0729 21.0508 20.9553 20.6377 20.7202C20.2247 20.4851 19.9007 20.1547 19.6655 19.729C19.4368 19.3033 19.3224 18.814 19.3224 18.2612C19.3224 17.7274 19.4368 17.2508 19.6655 16.8315C19.9007 16.4121 20.2247 16.088 20.6377 15.8593C21.0508 15.6242 21.5241 15.5066 22.0579 15.5066C22.5916 15.5066 23.065 15.6242 23.478 15.8593C23.8974 16.0944 24.2215 16.4216 24.4502 16.841C24.6854 17.254 24.8029 17.7274 24.8029 18.2612C24.8029 18.814 24.6885 19.3033 24.4598 19.729C24.231 20.1547 23.9069 20.4851 23.4876 20.7202C23.0746 20.9553 22.598 21.0729 22.0579 21.0729ZM22.0579 19.9673C22.4773 19.9673 22.8172 19.8084 23.0777 19.4907C23.3383 19.173 23.4685 18.7631 23.4685 18.2612C23.4685 17.7783 23.3383 17.3843 23.0777 17.0793C22.8172 16.7679 22.4773 16.6123 22.0579 16.6123C21.7847 16.6123 21.54 16.6822 21.324 16.8219C21.1079 16.9617 20.9396 17.1587 20.8188 17.4129C20.6981 17.6607 20.6377 17.9434 20.6377 18.2612C20.6377 18.7695 20.768 19.1825 21.0285 19.5002C21.2954 19.8116 21.6385 19.9673 22.0579 19.9673ZM27.0174 21.0729C26.4964 21.0729 26.0738 20.9363 25.7498 20.663C25.4257 20.3834 25.2637 19.9958 25.2637 19.5002C25.2637 18.9665 25.467 18.5598 25.8737 18.2802C26.1659 18.0769 26.5822 17.9244 27.1223 17.8227L28.714 17.5273C28.714 17.2095 28.6282 16.9586 28.4566 16.7743C28.2978 16.6027 28.0595 16.5169 27.7418 16.5169C27.494 16.5169 27.2748 16.59 27.0841 16.7362C26.8998 16.8823 26.7855 17.0793 26.741 17.3271H25.4638C25.5528 16.7362 25.8133 16.285 26.2454 15.9737C26.6775 15.6623 27.1794 15.5066 27.7513 15.5066C28.0754 15.5066 28.3772 15.5543 28.6568 15.6496C28.9364 15.7386 29.1747 15.872 29.3716 16.0499C29.5686 16.2215 29.7116 16.4216 29.8005 16.6504C29.8895 16.8791 29.9435 17.1079 29.9626 17.3366C29.988 17.5654 30.0007 17.8481 30.0007 18.1849V20.968H28.714V20.8155C28.714 20.6503 28.7553 20.4819 28.8379 20.3104L28.6949 20.2341C28.5805 20.4692 28.4217 20.6535 28.2184 20.7869C27.9324 20.9776 27.5321 21.0729 27.0174 21.0729ZM27.3319 20.0626C27.567 20.0626 27.7958 20.0117 28.0182 19.9101C28.2215 19.8148 28.3836 19.675 28.5043 19.4907C28.5615 19.3954 28.6059 19.3033 28.6377 19.2143C28.6695 19.119 28.7044 18.9887 28.7426 18.8235C28.7553 18.7473 28.7744 18.6933 28.7998 18.6615C28.8315 18.6234 28.876 18.6011 28.9332 18.5948L28.9046 18.4423C28.3963 18.5439 28.069 18.6106 27.9229 18.6424L27.4654 18.7282C27.1223 18.7917 26.8744 18.8934 26.7219 19.0332C26.6076 19.1476 26.5504 19.2873 26.5504 19.4526C26.5504 19.6495 26.6203 19.802 26.7601 19.9101C26.9062 20.0117 27.0969 20.0626 27.3319 20.0626ZM32.0387 20.968C31.632 20.968 31.3238 20.8759 31.1141 20.6916C30.9045 20.501 30.7996 20.2023 30.7996 19.7957V13.6957H32.0863V19.4144C32.0863 19.5923 32.1181 19.7194 32.1816 19.7957C32.2516 19.8656 32.3659 19.9005 32.5248 19.9005H32.8679V20.968H32.0387ZM35.725 21.0729C35.0641 21.0729 34.4923 20.914 34.0093 20.5963C33.5264 20.2786 33.2437 19.802 33.1611 19.1666H34.4287C34.5113 19.4526 34.6638 19.675 34.8862 19.8338C35.1086 19.9863 35.385 20.0626 35.7154 20.0626C35.995 20.0626 36.2206 20.0086 36.3922 19.9005C36.5701 19.7925 36.659 19.64 36.659 19.443C36.659 19.227 36.5542 19.0713 36.3445 18.976C36.1412 18.8807 35.8234 18.7917 35.3914 18.7091C34.9783 18.6265 34.6352 18.5376 34.362 18.4423C34.0887 18.3469 33.8569 18.1944 33.6662 17.9848C33.4756 17.7687 33.3803 17.4764 33.3803 17.1079C33.3803 16.5805 33.5741 16.1834 33.9617 15.9165C34.3556 15.6433 34.8512 15.5066 35.4486 15.5066C36.0776 15.5066 36.5987 15.6655 37.0117 15.9832C37.4311 16.3009 37.6884 16.7489 37.7837 17.3271H36.5733C36.5033 17.0475 36.3667 16.8442 36.1634 16.7171C35.9601 16.5837 35.7186 16.5169 35.439 16.5169C35.1848 16.5169 34.9815 16.5678 34.829 16.6694C34.6829 16.7648 34.6098 16.895 34.6098 17.0602C34.6098 17.2572 34.7083 17.397 34.9053 17.4796C35.1023 17.5622 35.4136 17.6448 35.8394 17.7274C36.2778 17.81 36.6336 17.899 36.9069 17.9943C37.1864 18.0833 37.4247 18.2358 37.6217 18.4518C37.825 18.6678 37.9267 18.9665 37.9267 19.3477C37.9267 19.8751 37.7297 20.2945 37.3358 20.6059C36.9481 20.9172 36.4112 21.0729 35.725 21.0729Z" fill="#04091E"/>
<path d="M127.719 18.5859L125.574 16.4414H129.863L127.719 18.5859Z" fill="#04091E"/>
<path d="M11.4375 34.0745H133.438" stroke="#E9E9E9" stroke-width="0.504132"/>
<path d="M34.3125 59.094C34.3125 52.7772 29.1918 47.6565 22.875 47.6565C16.5582 47.6565 11.4375 52.7772 11.4375 59.094C11.4375 65.4108 16.5582 70.5315 22.875 70.5315C29.1918 70.5315 34.3125 65.4108 34.3125 59.094Z" fill="url(#paint0_linear_2178_1690)"/>
<path d="M27.1641 56.9759H18.5859V55.7049C18.5859 55.5924 18.6311 55.4847 18.7116 55.4052C18.792 55.326 18.9011 55.2812 19.0148 55.2812H26.7352C26.8489 55.2812 26.958 55.326 27.0384 55.4052C27.1189 55.4847 27.1641 55.5924 27.1641 55.7049V56.9759ZM27.1641 57.8228V62.4826C27.1641 62.5951 27.1189 62.7028 27.0384 62.7823C26.958 62.8615 26.8489 62.9062 26.7352 62.9062H19.0148C18.9011 62.9062 18.792 62.8615 18.7116 62.7823C18.6311 62.7028 18.5859 62.5951 18.5859 62.4826V57.8228H27.1641ZM22.4461 59.9411V58.8822L20.516 60.7884H25.0195V59.9411H22.4461Z" fill="white"/>
<path d="M45.8604 57.8238C44.8005 57.8238 43.9847 57.454 43.4128 56.7144C42.8485 55.9671 42.5664 54.9072 42.5664 53.5347C42.5664 52.0402 42.8523 50.8736 43.4242 50.0349C44.0037 49.1961 44.831 48.7767 45.9062 48.7767C46.7449 48.7767 47.4197 49.0093 47.9306 49.4744C48.4491 49.9319 48.7617 50.5648 48.8685 51.373H47.393C47.3015 50.9842 47.13 50.6906 46.8783 50.4924C46.6267 50.2941 46.3027 50.195 45.9062 50.195C45.4029 50.195 45.014 50.3475 44.7395 50.6525C44.465 50.9499 44.2782 51.3807 44.1791 51.9449C44.1715 51.9678 44.1524 52.0707 44.1219 52.2537C44.0914 52.4367 44.0342 52.6312 43.9503 52.837L44.0876 52.9057C44.3545 52.5168 44.6557 52.2499 44.9912 52.105C45.3267 51.9602 45.685 51.8877 46.0663 51.8877C46.6153 51.8877 47.0995 52.0059 47.5188 52.2423C47.9458 52.471 48.2775 52.8027 48.5139 53.2374C48.7503 53.6644 48.8685 54.1676 48.8685 54.7471C48.8685 55.3419 48.7388 55.8756 48.4796 56.3484C48.228 56.8135 47.8734 57.1757 47.4159 57.4349C46.9584 57.6942 46.4399 57.8238 45.8604 57.8238ZM45.8375 56.417C46.2722 56.417 46.6115 56.2645 46.8555 55.9595C47.0995 55.6469 47.2215 55.2504 47.2215 54.77C47.2215 54.2896 47.0995 53.9045 46.8555 53.6148C46.6115 53.325 46.2722 53.1802 45.8375 53.1802C45.38 53.1802 45.0102 53.3289 44.7281 53.6262C44.4536 53.916 44.3163 54.2972 44.3163 54.77C44.3163 55.258 44.4536 55.6545 44.7281 55.9595C45.0102 56.2645 45.38 56.417 45.8375 56.417ZM53.3315 57.6637V55.6964H49.5571V54.118L53.3658 48.9369H54.9785V54.221H56.0879V55.6964H54.9785V57.6637H53.3315ZM50.9982 54.3697C51.1889 54.3087 51.3452 54.2705 51.4672 54.2553C51.5968 54.2324 51.7417 54.221 51.9018 54.221H53.3315V51.9907C53.3315 51.8 53.3353 51.6437 53.3429 51.5217C53.3582 51.3997 53.3925 51.2434 53.4459 51.0528L53.3086 51.007C53.179 51.2358 53.0265 51.4722 52.8511 51.7162L51.5701 53.5462C51.4023 53.7902 51.1889 54.0189 50.9296 54.2324L50.9982 54.3697ZM58.5293 52.8599C58.1786 52.8599 57.8583 52.776 57.5686 52.6083C57.2865 52.4329 57.0653 52.1927 56.9052 51.8877C56.7451 51.5751 56.665 51.2167 56.665 50.8126C56.665 50.4161 56.7451 50.0654 56.9052 49.7604C57.0653 49.4477 57.2827 49.2075 57.5572 49.0398C57.8393 48.8644 58.1519 48.7767 58.495 48.7767C58.8382 48.7767 59.1508 48.8682 59.4329 49.0512C59.715 49.2342 59.9362 49.482 60.0963 49.7947C60.2564 50.1073 60.3365 50.4504 60.3365 50.824C60.3365 51.1977 60.2564 51.5408 60.0963 51.8534C59.9438 52.166 59.7265 52.4139 59.4443 52.5969C59.1698 52.7722 58.8648 52.8599 58.5293 52.8599ZM57.2941 57.6637L62.6697 48.9369H63.9278L58.5522 57.6637H57.2941ZM58.5293 51.6933C58.72 51.6933 58.8763 51.6094 58.9983 51.4417C59.1203 51.2739 59.1813 51.068 59.1813 50.824C59.1813 50.5572 59.1165 50.3437 58.9868 50.1835C58.8572 50.0158 58.6933 49.9319 58.495 49.9319C58.2968 49.9319 58.1328 50.0082 58.0032 50.1607C57.8812 50.3132 57.8202 50.5305 57.8202 50.8126C57.8202 51.0947 57.885 51.312 58.0147 51.4645C58.1519 51.617 58.3235 51.6933 58.5293 51.6933ZM62.807 57.8238C62.4562 57.8238 62.136 57.7399 61.8462 57.5722C61.5641 57.3968 61.343 57.1566 61.1828 56.8516C61.0227 56.539 60.9427 56.1844 60.9427 55.7879C60.9427 55.3914 61.0189 55.0407 61.1714 54.7357C61.3315 54.423 61.5488 54.1829 61.8233 54.0151C62.1055 53.8474 62.4219 53.7635 62.7727 53.7635C63.1158 53.7635 63.4246 53.855 63.6991 54.038C63.9812 54.2134 64.2023 54.4574 64.3625 54.77C64.5226 55.0826 64.6027 55.4295 64.6027 55.8108C64.6027 56.1844 64.5226 56.5237 64.3625 56.8287C64.21 57.1337 63.9965 57.3777 63.722 57.5607C63.4475 57.7361 63.1425 57.8238 62.807 57.8238ZM62.807 56.68C62.99 56.68 63.1425 56.5962 63.2645 56.4284C63.3941 56.2607 63.4589 56.0548 63.4589 55.8108C63.4589 55.5363 63.3941 55.319 63.2645 55.1589C63.1348 54.9987 62.9709 54.9187 62.7727 54.9187C62.5668 54.9187 62.4028 54.9949 62.2808 55.1474C62.1588 55.2923 62.0978 55.5058 62.0978 55.7879C62.0978 56.0777 62.1588 56.2988 62.2808 56.4513C62.4105 56.6038 62.5858 56.68 62.807 56.68Z" fill="#04091E"/>
<path d="M43.8974 69.5777V64.5681H42.0293V63.7598H46.6729V64.5681H44.7972V69.5777H43.8974ZM47.9263 69.6616C47.5143 69.6616 47.1483 69.5677 46.8281 69.3795C46.5078 69.1864 46.2588 68.9243 46.0808 68.5941C45.9029 68.2586 45.814 67.885 45.814 67.4732C45.814 67.0867 45.8928 66.7236 46.0503 66.3828C46.213 66.0421 46.4519 65.7676 46.7671 65.5593C47.0823 65.3511 47.461 65.2467 47.9034 65.2467C48.2794 65.2467 48.6249 65.3282 48.9404 65.4907C49.2607 65.6532 49.517 65.8972 49.7105 66.2227C49.9035 66.543 50.0003 66.9342 50.0003 67.397V67.6257H47.1331C46.884 67.6257 46.7061 67.6181 46.5993 67.6028L46.5688 67.7248C46.6146 67.7348 46.6451 67.7553 46.6603 67.7858C46.6807 67.8111 46.701 67.8521 46.7213 67.9078C46.7315 67.9483 46.7544 68.007 46.79 68.0832C46.8917 68.3425 47.0442 68.5483 47.2475 68.7008C47.4508 68.8533 47.6823 68.9296 47.9415 68.9296C48.2108 68.9296 48.4419 68.861 48.6354 68.7237C48.8284 68.5812 48.968 68.4011 49.0548 68.1823H49.9317C49.7892 68.6193 49.5475 68.9753 49.2073 69.2498C48.8718 69.5243 48.4448 69.6616 47.9263 69.6616ZM46.7061 67.0767C46.7773 67.031 46.8433 66.9981 46.9043 66.9776C46.9653 66.9571 47.034 66.9471 47.1102 66.9471H48.7193C48.8055 66.9471 48.8794 66.9571 48.9404 66.9776C49.0062 66.9981 49.0777 67.031 49.1539 67.0767L49.2302 66.9776C49.1844 66.9471 49.1539 66.9218 49.1387 66.9013C49.1234 66.8761 49.1105 66.8427 49.1005 66.8022C49.09 66.7312 49.0572 66.6445 49.0014 66.543C48.8994 66.35 48.7522 66.2022 48.5592 66.1007C48.3709 65.994 48.1627 65.9406 47.9339 65.9406C47.6947 65.9406 47.4838 65.994 47.3008 66.1007C47.1178 66.2022 46.973 66.35 46.8662 66.543C46.8205 66.6192 46.7849 66.7055 46.7595 66.8022C46.7493 66.8427 46.7366 66.8761 46.7213 66.9013C46.7112 66.9266 46.6832 66.9523 46.6375 66.9776L46.7061 67.0767ZM50.677 65.3306H51.5157V65.5365C51.5157 65.6127 51.5081 65.6761 51.4929 65.7271C51.4776 65.7728 51.4524 65.821 51.4166 65.872L51.5234 65.9406C51.6964 65.6913 51.8765 65.5136 52.0647 65.4068C52.253 65.3001 52.4713 65.2467 52.7205 65.2467C52.9898 65.2467 53.229 65.3101 53.4372 65.4373C53.6507 65.5593 53.7804 65.7399 53.8261 65.9787H53.9253C54.1235 65.4907 54.5353 65.2467 55.1605 65.2467C55.6333 65.2467 55.9864 65.3816 56.2204 65.6508C56.4544 65.9201 56.5711 66.3042 56.5711 66.8022V69.5777H55.7324V66.9395C55.7324 66.614 55.6661 66.37 55.5341 66.2075C55.4021 66.0397 55.2139 65.9558 54.9699 65.9558C54.7206 65.9558 54.52 66.0373 54.3675 66.1998C54.2455 66.3318 54.1592 66.5024 54.1083 66.7107C54.0625 66.9142 54.0396 67.1758 54.0396 67.4961V69.5777H53.2085V66.9395C53.2085 66.6245 53.1399 66.3828 53.0026 66.2151C52.8654 66.0421 52.6747 65.9558 52.4307 65.9558C52.1867 65.9558 51.9885 66.045 51.836 66.2227C51.724 66.3395 51.643 66.4996 51.592 66.7031C51.541 66.9013 51.5157 67.1658 51.5157 67.4961V69.5777H50.677V65.3306ZM59.5401 65.2467C59.9109 65.2467 60.2388 65.3406 60.5237 65.5288C60.8082 65.7118 61.027 65.9711 61.1795 66.3066C61.3368 66.6421 61.4159 67.0233 61.4159 67.4503C61.4159 67.8826 61.3368 68.2662 61.1795 68.6017C61.027 68.9372 60.8082 69.1988 60.5237 69.3871C60.2388 69.5701 59.9109 69.6616 59.5401 69.6616C59.2504 69.6616 59.0064 69.6082 58.8081 69.5015C58.6146 69.3947 58.4269 69.2141 58.2439 68.9601L58.1371 69.0363C58.1776 69.0821 58.2057 69.1302 58.221 69.1812C58.2362 69.2322 58.2439 69.2956 58.2439 69.3718V71.1485H57.4051V65.3306H58.2439V65.5365C58.2439 65.6127 58.2362 65.6761 58.221 65.7271C58.2057 65.7728 58.1776 65.821 58.1371 65.872L58.2439 65.9482C58.4269 65.6942 58.6146 65.5136 58.8081 65.4068C59.0064 65.3001 59.2504 65.2467 59.5401 65.2467ZM59.3876 65.9787C59.1536 65.9787 58.9425 66.0421 58.7547 66.1693C58.5717 66.2913 58.4269 66.4643 58.3201 66.6878C58.2181 66.9113 58.1676 67.1658 58.1676 67.4503C58.1676 67.7348 58.2181 67.9917 58.3201 68.2205C58.4269 68.444 58.5717 68.6193 58.7547 68.7466C58.9425 68.8686 59.1536 68.9296 59.3876 68.9296C59.7484 68.9296 60.0357 68.7923 60.2492 68.5178C60.4675 68.2381 60.5771 67.8826 60.5771 67.4503C60.5771 67.0181 60.4675 66.665 60.2492 66.3905C60.0357 66.116 59.7484 65.9787 59.3876 65.9787ZM63.0986 69.5777C62.7679 69.5777 62.5191 69.5015 62.3514 69.349C62.1836 69.1965 62.0997 68.9396 62.0997 68.5788V63.7598H62.9385V68.373C62.9385 68.5507 62.9661 68.678 63.0223 68.7542C63.0781 68.8305 63.1925 68.8686 63.3655 68.8686H63.6019V69.5777H63.0986ZM65.379 69.6616C64.962 69.6616 64.6265 69.5525 64.3725 69.3337C64.118 69.1102 63.9912 68.8076 63.9912 68.4263C63.9912 68.0351 64.1437 67.7272 64.4487 67.5037C64.6775 67.336 65.0053 67.2116 65.4323 67.1301L66.8201 66.8632C66.8201 66.5787 66.741 66.3523 66.5837 66.1846C66.416 66.0168 66.192 65.933 65.9127 65.933C65.684 65.933 65.4828 65.9992 65.3103 66.1312C65.1426 66.2585 65.0358 66.431 64.9901 66.6497H64.159C64.23 66.2022 64.4306 65.8567 64.7613 65.6127C65.0916 65.3687 65.4781 65.2467 65.9203 65.2467C66.1691 65.2467 66.4031 65.2848 66.6218 65.3611C66.8453 65.4321 67.0336 65.5388 67.1861 65.6813C67.3891 65.8696 67.5163 66.0907 67.5673 66.3447C67.6231 66.5987 67.6512 66.8913 67.6512 67.2216V69.5777H66.8125V69.4176C66.8125 69.3108 66.843 69.1712 66.904 68.9982L66.7972 68.9448C66.6852 69.1378 66.5403 69.2956 66.3626 69.4176C66.1286 69.5801 65.8007 69.6616 65.379 69.6616ZM65.5467 68.9677C65.7702 68.9677 65.9737 68.922 66.1567 68.8305C66.365 68.729 66.5198 68.5888 66.6218 68.4111C66.6776 68.3143 66.7181 68.2257 66.7438 68.1442C66.7691 68.058 66.7972 67.9436 66.8277 67.8011C66.843 67.7348 66.863 67.6867 66.8887 67.6562C66.914 67.6205 66.9497 67.6004 66.9955 67.5952L66.9726 67.4732L66.0881 67.6562L65.6306 67.7401C65.3356 67.8011 65.1221 67.8926 64.9901 68.0146C64.8833 68.1213 64.83 68.251 64.83 68.4035C64.83 68.5812 64.8933 68.7213 65.0206 68.8228C65.1526 68.9196 65.328 68.9677 65.5467 68.9677ZM69.8086 69.5777C69.4783 69.5777 69.2291 69.5015 69.0613 69.349C68.8936 69.1965 68.8097 68.9396 68.8097 68.5788V66.0321H68.154V65.3306H68.8097V63.7598H69.6485V65.3306H70.533V66.0321H69.6485V68.3577C69.6485 68.5355 69.6742 68.6651 69.7247 68.7466C69.7757 68.8281 69.8925 68.8686 70.0755 68.8686H70.5254V69.5777H69.8086ZM72.9911 69.6616C72.5793 69.6616 72.2133 69.5677 71.8931 69.3795C71.5728 69.1864 71.3241 68.9243 71.1458 68.5941C70.9681 68.2586 70.879 67.885 70.879 67.4732C70.879 67.0867 70.9581 66.7236 71.1153 66.3828C71.2783 66.0421 71.5171 65.7676 71.8321 65.5593C72.1476 65.3511 72.526 65.2467 72.9682 65.2467C73.3447 65.2467 73.6902 65.3282 74.0052 65.4907C74.3255 65.6532 74.5823 65.8972 74.7753 66.2227C74.9688 66.543 75.0651 66.9342 75.0651 67.397V67.6257H72.1981C71.9493 67.6257 71.7711 67.6181 71.6643 67.6028L71.6338 67.7248C71.6796 67.7348 71.7101 67.7553 71.7253 67.7858C71.7458 67.8111 71.7663 67.8521 71.7863 67.9078C71.7968 67.9483 71.8197 68.007 71.855 68.0832C71.9569 68.3425 72.1094 68.5483 72.3125 68.7008C72.516 68.8533 72.7471 68.9296 73.0063 68.9296C73.2761 68.9296 73.5072 68.861 73.7002 68.7237C73.8937 68.5812 74.0333 68.4011 74.1196 68.1823H74.9965C74.8544 68.6193 74.6128 68.9753 74.2721 69.2498C73.9366 69.5243 73.5096 69.6616 72.9911 69.6616ZM71.7711 67.0767C71.8426 67.031 71.9083 66.9981 71.9693 66.9776C72.0303 66.9571 72.099 66.9471 72.1752 66.9471H73.7841C73.8708 66.9471 73.9442 66.9571 74.0052 66.9776C74.0715 66.9981 74.1425 67.031 74.2187 67.0767L74.295 66.9776C74.2492 66.9471 74.2187 66.9218 74.2035 66.9013C74.1882 66.8761 74.1758 66.8427 74.1653 66.8022C74.1553 66.7312 74.1224 66.6445 74.0662 66.543C73.9647 66.35 73.8174 66.2022 73.624 66.1007C73.4362 65.994 73.2275 65.9406 72.9987 65.9406C72.76 65.9406 72.5488 65.994 72.3658 66.1007C72.1828 66.2022 72.038 66.35 71.9312 66.543C71.8855 66.6192 71.8502 66.7055 71.8245 66.8022C71.8145 66.8427 71.8016 66.8761 71.7863 66.9013C71.7763 66.9266 71.7482 66.9523 71.7025 66.9776L71.7711 67.0767ZM77.7353 63.7598H79.2755L80.4498 67.7477C80.5008 67.9207 80.5389 68.0756 80.5641 68.2128C80.5894 68.3501 80.6023 68.5178 80.6023 68.7161H80.7243C80.7243 68.5178 80.7343 68.3477 80.7548 68.2052C80.78 68.0627 80.8181 67.9102 80.8691 67.7477L82.0434 63.7598H83.5836V69.5777H82.6839V65.3306C82.6839 65.0713 82.6991 64.7916 82.7296 64.4918L82.6076 64.4766C82.5566 64.7663 82.488 65.0508 82.4018 65.3306L81.1055 69.5777H80.221L78.9095 65.3306C78.8333 65.0813 78.7699 64.7968 78.7189 64.4766L78.5969 64.4918C78.6222 64.7916 78.635 65.0713 78.635 65.3306V69.5777H77.7353V63.7598ZM85.7115 69.6616C85.2945 69.6616 84.959 69.5525 84.705 69.3337C84.451 69.1102 84.3237 68.8076 84.3237 68.4263C84.3237 68.0351 84.4762 67.7272 84.7812 67.5037C85.01 67.336 85.3379 67.2116 85.7649 67.1301L87.1526 66.8632C87.1526 66.5787 87.074 66.3523 86.9162 66.1846C86.7485 66.0168 86.525 65.933 86.2452 65.933C86.0165 65.933 85.8159 65.9992 85.6429 66.1312C85.4751 66.2585 85.3684 66.431 85.3226 66.6497H84.4915C84.5625 66.2022 84.7636 65.8567 85.0939 65.6127C85.4241 65.3687 85.8106 65.2467 86.2529 65.2467C86.5021 65.2467 86.7356 65.2848 86.9544 65.3611C87.1779 65.4321 87.3661 65.5388 87.5186 65.6813C87.7221 65.8696 87.8489 66.0907 87.8999 66.3447C87.9556 66.5987 87.9837 66.8913 87.9837 67.2216V69.5777H87.145V69.4176C87.145 69.3108 87.1755 69.1712 87.2365 68.9982L87.1297 68.9448C87.0177 69.1378 86.8729 69.2956 86.6951 69.4176C86.4611 69.5801 86.1333 69.6616 85.7115 69.6616ZM85.8792 68.9677C86.1028 68.9677 86.3062 68.922 86.4892 68.8305C86.6975 68.729 86.8529 68.5888 86.9544 68.4111C87.0101 68.3143 87.0511 68.2257 87.0764 68.1442C87.1016 68.058 87.1297 67.9436 87.1602 67.8011C87.1755 67.7348 87.196 67.6867 87.2212 67.6562C87.2465 67.6205 87.2822 67.6004 87.328 67.5952L87.3051 67.4732L86.4206 67.6562L85.9631 67.7401C85.6681 67.8011 85.4546 67.8926 85.3226 68.0146C85.2159 68.1213 85.1625 68.251 85.1625 68.4035C85.1625 68.5812 85.2259 68.7213 85.3531 68.8228C85.4851 68.9196 85.6605 68.9677 85.8792 68.9677ZM88.7996 65.3306H89.6384V65.5365C89.6384 65.6127 89.6307 65.6761 89.6155 65.7271C89.6002 65.7728 89.575 65.821 89.5392 65.872L89.646 65.9406C89.8085 65.6913 89.9891 65.5136 90.1874 65.4068C90.3909 65.3001 90.6396 65.2467 90.9346 65.2467H91.0185V66.0702H90.7897C90.449 66.0702 90.185 66.1641 89.9967 66.3523C89.758 66.5811 89.6384 66.9571 89.6384 67.4808V69.5777H88.7996V65.3306ZM91.5289 63.7598H92.3676V66.2608C92.3676 66.3828 92.3624 66.492 92.3524 66.5887C92.3471 66.6854 92.3271 66.797 92.2914 66.9242L92.3829 66.97C92.5354 66.8074 92.665 66.675 92.7718 66.5735L94.0756 65.3306H95.1813L93.4733 66.9166C93.3765 67.0133 93.2598 67.0843 93.1225 67.1301V67.2368C93.2545 67.2978 93.3718 67.3817 93.4733 67.4885L95.3414 69.5777H94.2663L92.7718 67.8773C92.7413 67.8468 92.6598 67.7553 92.5278 67.6028C92.5073 67.5723 92.4844 67.5442 92.4591 67.519C92.4339 67.4885 92.4081 67.458 92.3829 67.4275L92.2914 67.4656C92.3271 67.6028 92.3471 67.7248 92.3524 67.8316C92.3624 67.9331 92.3676 68.0527 92.3676 68.19V69.5777H91.5289V63.7598ZM97.4459 69.6616C97.0341 69.6616 96.6681 69.5677 96.3479 69.3795C96.0276 69.1864 95.7784 68.9243 95.6006 68.5941C95.4224 68.2586 95.3338 67.885 95.3338 67.4732C95.3338 67.0867 95.4124 66.7236 95.5701 66.3828C95.7326 66.0421 95.9714 65.7676 96.2869 65.5593C96.6019 65.3511 96.9808 65.2467 97.423 65.2467C97.799 65.2467 98.1445 65.3282 98.46 65.4907C98.7803 65.6532 99.0367 65.8972 99.2301 66.2227C99.4232 66.543 99.5199 66.9342 99.5199 67.397V67.6257H96.6529C96.4036 67.6257 96.2259 67.6181 96.1191 67.6028L96.0886 67.7248C96.1344 67.7348 96.1649 67.7553 96.1801 67.7858C96.2002 67.8111 96.2206 67.8521 96.2411 67.9078C96.2511 67.9483 96.274 68.007 96.3098 68.0832C96.4113 68.3425 96.5638 68.5483 96.7673 68.7008C96.9703 68.8533 97.2019 68.9296 97.4611 68.9296C97.7304 68.9296 97.9615 68.861 98.155 68.7237C98.348 68.5812 98.4877 68.4011 98.5744 68.1823H99.4513C99.3088 68.6193 99.0672 68.9753 98.7269 69.2498C98.3914 69.5243 97.9644 69.6616 97.4459 69.6616ZM96.2259 67.0767C96.2969 67.031 96.3631 66.9981 96.4241 66.9776C96.4851 66.9571 96.5538 66.9471 96.63 66.9471H98.2389C98.3251 66.9471 98.399 66.9571 98.46 66.9776C98.5258 66.9981 98.5973 67.031 98.6735 67.0767L98.7498 66.9776C98.704 66.9471 98.6735 66.9218 98.6583 66.9013C98.643 66.8761 98.6302 66.8427 98.6201 66.8022C98.6097 66.7312 98.5768 66.6445 98.521 66.543C98.419 66.35 98.2718 66.2022 98.0788 66.1007C97.8905 65.994 97.6823 65.9406 97.4535 65.9406C97.2143 65.9406 97.0036 65.994 96.8206 66.1007C96.6376 66.2022 96.4928 66.35 96.386 66.543C96.3403 66.6192 96.3045 66.7055 96.2793 66.8022C96.2688 66.8427 96.2564 66.8761 96.2411 66.9013C96.2307 66.9266 96.203 66.9523 96.1573 66.9776L96.2259 67.0767ZM101.457 69.5777C101.126 69.5777 100.877 69.5015 100.709 69.349C100.542 69.1965 100.458 68.9396 100.458 68.5788V66.0321H99.802V65.3306H100.458V63.7598H101.297V65.3306H102.181V66.0321H101.297V68.3577C101.297 68.5355 101.322 68.6651 101.373 68.7466C101.424 68.8281 101.541 68.8686 101.724 68.8686H102.173V69.5777H101.457ZM102.799 69.5777V65.3306H103.638V69.5777H102.799ZM103.218 64.7358C103.066 64.7358 102.934 64.6848 102.822 64.5833C102.71 64.4818 102.654 64.3546 102.654 64.2021C102.654 64.0496 102.71 63.9223 102.822 63.8208C102.934 63.7193 103.066 63.6683 103.218 63.6683C103.376 63.6683 103.508 63.7193 103.615 63.8208C103.727 63.9223 103.783 64.0496 103.783 64.2021C103.783 64.3546 103.727 64.4818 103.615 64.5833C103.508 64.6848 103.376 64.7358 103.218 64.7358ZM104.493 65.3306H105.332V65.5365C105.332 65.6127 105.324 65.6761 105.309 65.7271C105.294 65.7728 105.269 65.821 105.233 65.872L105.34 65.9406C105.513 65.6913 105.693 65.5136 105.881 65.4068C106.069 65.3001 106.288 65.2467 106.537 65.2467C107.172 65.2467 107.602 65.4755 107.825 65.933C107.912 66.1007 107.965 66.2737 107.986 66.4515C108.006 66.6245 108.016 66.8327 108.016 67.0767V69.5777H107.177V67.0691C107.177 66.6368 107.103 66.3371 106.956 66.1693C106.819 66.0268 106.621 65.9558 106.361 65.9558C106.051 65.9558 105.812 66.0526 105.645 66.2456C105.533 66.3676 105.452 66.533 105.401 66.7412C105.355 66.9495 105.332 67.2316 105.332 67.5876V69.5777H104.493V65.3306ZM110.752 71.2247C110.254 71.2247 109.827 71.1203 109.471 70.9121C109.115 70.7038 108.897 70.3555 108.816 69.8675H109.67C109.735 70.0962 109.855 70.264 110.028 70.3707C110.206 70.4827 110.445 70.5385 110.745 70.5385C111.126 70.5385 111.408 70.4522 111.591 70.2792C111.774 70.1062 111.866 69.8622 111.866 69.5472V69.3261C111.866 69.2398 111.87 69.176 111.881 69.1355C111.896 69.0897 111.927 69.0416 111.972 68.9906L111.866 68.9143C111.683 69.1683 111.494 69.349 111.301 69.4557C111.108 69.5625 110.864 69.6158 110.569 69.6158C110.198 69.6158 109.87 69.5243 109.586 69.3413C109.301 69.1531 109.08 68.8938 108.922 68.5636C108.77 68.2333 108.694 67.8597 108.694 67.4427C108.694 67.0157 108.77 66.6368 108.922 66.3066C109.08 65.9711 109.301 65.7118 109.586 65.5288C109.87 65.3406 110.198 65.2467 110.569 65.2467C110.864 65.2467 111.108 65.3001 111.301 65.4068C111.494 65.5136 111.683 65.6913 111.866 65.9406L111.972 65.872C111.901 65.7805 111.866 65.6685 111.866 65.5365V65.3306H112.704V69.3642C112.704 70.0352 112.531 70.5132 112.186 70.7977C111.84 71.0822 111.362 71.2247 110.752 71.2247ZM110.722 68.8838C110.955 68.8838 111.164 68.8228 111.347 68.7008C111.535 68.5736 111.68 68.4011 111.782 68.1823C111.889 67.9588 111.942 67.7072 111.942 67.4275C111.942 67.153 111.889 66.9066 111.782 66.6878C111.68 66.4643 111.535 66.2913 111.347 66.1693C111.164 66.0421 110.955 65.9787 110.722 65.9787C110.366 65.9787 110.079 66.116 109.86 66.3905C109.642 66.665 109.532 67.0105 109.532 67.4275C109.532 67.8492 109.639 68.1976 109.853 68.4721C110.071 68.7466 110.361 68.8838 110.722 68.8838Z" fill="#747681"/>
<path d="M34.3125 97.2188C34.3125 90.902 29.1918 85.7812 22.875 85.7812C16.5582 85.7812 11.4375 90.902 11.4375 97.2188C11.4375 103.536 16.5582 108.656 22.875 108.656C29.1918 108.656 34.3125 103.536 34.3125 97.2188Z" fill="url(#paint1_linear_2178_1690)"/>
<path d="M19.8422 100.252C19.4433 99.8537 19.127 99.3809 18.9114 98.8605C18.6958 98.3401 18.5852 97.782 18.5859 97.2188C18.5859 94.8498 20.5062 92.9297 22.875 92.9297C25.2439 92.9297 27.1641 94.8498 27.1641 97.2188C27.1641 99.5877 25.2439 101.508 22.875 101.508H18.5859L19.8422 100.252ZM21.1594 97.6477C21.1594 98.1028 21.3401 98.5388 21.6619 98.861C21.9836 99.1827 22.42 99.3633 22.875 99.3633C23.33 99.3633 23.7664 99.1827 24.0881 98.861C24.4099 98.5388 24.5906 98.1028 24.5906 97.6477H21.1594Z" fill="white"/>
<path d="M42.565 94.542L45.31 92.1401C45.8514 91.6674 46.2517 91.2365 46.5109 90.8477C46.7702 90.4512 46.8998 90.0547 46.8998 89.6582C46.8998 89.2464 46.7893 88.9224 46.5681 88.686C46.3546 88.442 46.0268 88.32 45.5845 88.32C44.6161 88.32 44.0976 88.9224 44.029 90.1271H42.5078C42.5459 89.0901 42.8281 88.2971 43.3542 87.7481C43.8879 87.1915 44.6352 86.9132 45.5959 86.9132C46.1449 86.9132 46.6329 87.0199 47.0599 87.2334C47.4869 87.4393 47.8186 87.7405 48.055 88.137C48.299 88.5259 48.421 88.9834 48.421 89.5095C48.421 90.1881 48.2228 90.8248 47.8263 91.4195C47.4374 92.0143 46.9456 92.5747 46.3508 93.1009L45.4472 93.9129C45.2719 94.0807 45.0508 94.2408 44.7839 94.3933L44.8639 94.5305C45.0546 94.4467 45.2071 94.3895 45.3214 94.359C45.4358 94.3285 45.5807 94.3132 45.7561 94.3132H48.8099V95.7887H42.565V94.542ZM52.8364 89.784C53.3777 89.784 53.8581 89.9098 54.2775 90.1614C54.7045 90.413 55.0324 90.7676 55.2611 91.2251C55.4975 91.675 55.6157 92.1935 55.6157 92.7806C55.6157 93.3982 55.4822 93.9472 55.2154 94.4276C54.9561 94.908 54.5863 95.2816 54.1059 95.5485C53.6255 95.8154 53.0727 95.9488 52.4475 95.9488C51.8832 95.9488 51.3724 95.8382 50.9149 95.6171C50.465 95.3884 50.099 95.0719 49.8169 94.6678C49.5424 94.256 49.3746 93.7795 49.3136 93.2381H50.972C51.0559 93.6422 51.2275 93.951 51.4867 94.1645C51.7536 94.3704 52.0891 94.4734 52.4932 94.4734C52.9431 94.4734 53.3015 94.3209 53.5684 94.0159C53.8352 93.7032 53.9687 93.2953 53.9687 92.792C53.9687 92.3117 53.8314 91.9228 53.5569 91.6254C53.2824 91.3204 52.924 91.1679 52.4818 91.1679C51.8337 91.1679 51.3533 91.4691 51.0407 92.0715H49.4394L50.3659 87.0619H55.2154V88.5373H51.5782L51.3724 89.5895C51.3114 89.8945 51.2351 90.1538 51.1436 90.3673L51.2694 90.4474C51.6659 90.0051 52.1882 89.784 52.8364 89.784ZM58.2263 90.9849C57.8755 90.9849 57.5553 90.901 57.2655 90.7333C56.9834 90.5579 56.7623 90.3177 56.6022 90.0127C56.442 89.7001 56.362 89.3417 56.362 88.9376C56.362 88.5411 56.442 88.1904 56.6022 87.8854C56.7623 87.5727 56.9796 87.3325 57.2541 87.1648C57.5362 86.9894 57.8488 86.9017 58.192 86.9017C58.5351 86.9017 58.8477 86.9932 59.1298 87.1762C59.412 87.3592 59.6331 87.607 59.7932 87.9197C59.9533 88.2323 60.0334 88.5754 60.0334 88.949C60.0334 89.3227 59.9533 89.6658 59.7932 89.9784C59.6407 90.291 59.4234 90.5389 59.1413 90.7219C58.8668 90.8972 58.5618 90.9849 58.2263 90.9849ZM56.991 95.7887L62.3667 87.0619H63.6248L58.2492 95.7887H56.991ZM58.2263 89.8183C58.4169 89.8183 58.5732 89.7344 58.6952 89.5667C58.8172 89.3989 58.8782 89.193 58.8782 88.949C58.8782 88.6822 58.8134 88.4687 58.6838 88.3085C58.5541 88.1408 58.3902 88.0569 58.192 88.0569C57.9937 88.0569 57.8298 88.1332 57.7002 88.2857C57.5782 88.4382 57.5172 88.6555 57.5172 88.9376C57.5172 89.2197 57.582 89.437 57.7116 89.5895C57.8488 89.742 58.0204 89.8183 58.2263 89.8183ZM62.5039 95.9488C62.1531 95.9488 61.8329 95.8649 61.5432 95.6972C61.261 95.5218 61.0399 95.2816 60.8798 94.9766C60.7197 94.664 60.6396 94.3094 60.6396 93.9129C60.6396 93.5164 60.7158 93.1657 60.8683 92.8607C61.0285 92.548 61.2458 92.3079 61.5203 92.1401C61.8024 91.9724 62.1188 91.8885 62.4696 91.8885C62.8127 91.8885 63.1215 91.98 63.396 92.163C63.6782 92.3384 63.8993 92.5824 64.0594 92.895C64.2195 93.2076 64.2996 93.5545 64.2996 93.9358C64.2996 94.3094 64.2195 94.6487 64.0594 94.9537C63.9069 95.2587 63.6934 95.5027 63.4189 95.6857C63.1444 95.8611 62.8394 95.9488 62.5039 95.9488ZM62.5039 94.805C62.6869 94.805 62.8394 94.7212 62.9614 94.5534C63.091 94.3857 63.1558 94.1798 63.1558 93.9358C63.1558 93.6613 63.091 93.444 62.9614 93.2839C62.8318 93.1237 62.6678 93.0437 62.4696 93.0437C62.2637 93.0437 62.0998 93.1199 61.9778 93.2724C61.8558 93.4173 61.7948 93.6308 61.7948 93.9129C61.7948 94.2027 61.8558 94.4238 61.9778 94.5763C62.1074 94.7288 62.2828 94.805 62.5039 94.805Z" fill="#04091E"/>
<path d="M44.7049 107.794C44.3033 107.794 43.9246 107.731 43.5688 107.604C43.218 107.472 42.9206 107.263 42.6766 106.978C42.4326 106.689 42.2852 106.323 42.2344 105.88H43.1494C43.2358 106.287 43.4239 106.579 43.7136 106.757C44.0034 106.93 44.3389 107.016 44.7201 107.016C45.0912 107.016 45.381 106.94 45.5894 106.788C45.8029 106.63 45.9096 106.401 45.9096 106.101C45.9096 105.878 45.8435 105.7 45.7114 105.568C45.5792 105.43 45.414 105.331 45.2157 105.27C45.0175 105.204 44.7455 105.133 44.3999 105.057C43.978 104.965 43.6374 104.874 43.3781 104.782C43.1189 104.686 42.8978 104.533 42.7148 104.325C42.5318 104.111 42.4402 103.819 42.4402 103.448C42.4402 103.102 42.5241 102.805 42.6919 102.556C42.8596 102.307 43.0935 102.119 43.3934 101.992C43.6933 101.86 44.0364 101.793 44.4228 101.793C44.9921 101.793 45.4826 101.941 45.8944 102.236C46.3061 102.525 46.5577 102.962 46.6493 103.547H45.7495C45.6732 103.217 45.5131 102.973 45.2691 102.815C45.0302 102.657 44.743 102.579 44.4075 102.579C44.072 102.579 43.8102 102.65 43.6221 102.792C43.434 102.929 43.34 103.122 43.34 103.372C43.34 103.565 43.401 103.72 43.523 103.837C43.6501 103.954 43.8051 104.043 43.9881 104.104C44.1711 104.165 44.4253 104.231 44.7506 104.302C45.1929 104.399 45.5487 104.498 45.8181 104.599C46.0926 104.701 46.3265 104.869 46.5196 105.103C46.7128 105.331 46.8094 105.646 46.8094 106.048C46.8094 106.587 46.6238 107.014 46.2527 107.329C45.8867 107.639 45.3708 107.794 44.7049 107.794ZM47.561 101.885H49.1012L50.2754 105.873C50.3264 106.046 50.3645 106.201 50.3898 106.338C50.415 106.475 50.4279 106.643 50.4279 106.841H50.5499C50.5499 106.643 50.5599 106.473 50.5804 106.33C50.6057 106.188 50.6438 106.035 50.6948 105.873L51.869 101.885H53.4093V107.703H52.5095V103.456C52.5095 103.196 52.5248 102.917 52.5553 102.617L52.4333 102.602C52.3823 102.891 52.3137 103.176 52.2274 103.456L50.9312 107.703H50.0467L48.7352 103.456C48.6589 103.206 48.5955 102.922 48.5445 102.602L48.4225 102.617C48.4478 102.917 48.4607 103.196 48.4607 103.456V107.703H47.561V101.885ZM56.5894 107.794C56.1876 107.794 55.8093 107.731 55.4533 107.604C55.1025 107.472 54.8051 107.263 54.5611 106.978C54.3171 106.689 54.1699 106.323 54.1189 105.88H55.0339C55.1201 106.287 55.3084 106.579 55.5981 106.757C55.8879 106.93 56.2234 107.016 56.6046 107.016C56.9759 107.016 57.2656 106.94 57.4739 106.788C57.6874 106.63 57.7941 106.401 57.7941 106.101C57.7941 105.878 57.7279 105.7 57.5959 105.568C57.4639 105.43 57.2985 105.331 57.1003 105.27C56.902 105.204 56.6299 105.133 56.2844 105.057C55.8626 104.965 55.5219 104.874 55.2626 104.782C55.0034 104.686 54.7823 104.533 54.5993 104.325C54.4163 104.111 54.3248 103.819 54.3248 103.448C54.3248 103.102 54.4086 102.805 54.5764 102.556C54.7441 102.307 54.9781 102.119 55.2779 101.992C55.5777 101.86 55.9208 101.793 56.3073 101.793C56.8768 101.793 57.3671 101.941 57.7789 102.236C58.1906 102.525 58.4423 102.962 58.5338 103.547H57.634C57.5578 103.217 57.3976 102.973 57.1536 102.815C56.9149 102.657 56.6275 102.579 56.292 102.579C55.9565 102.579 55.6949 102.65 55.5066 102.792C55.3184 102.929 55.2245 103.122 55.2245 103.372C55.2245 103.565 55.2855 103.72 55.4075 103.837C55.5348 103.954 55.6896 104.043 55.8726 104.104C56.0556 104.165 56.3096 104.231 56.6351 104.302C57.0774 104.399 57.4334 104.498 57.7026 104.599C57.9771 104.701 58.2111 104.869 58.4041 105.103C58.5971 105.331 58.6939 105.646 58.6939 106.048C58.6939 106.587 58.5085 107.014 58.1373 107.329C57.7713 107.639 57.2551 107.794 56.5894 107.794ZM61.3855 101.885H62.9258L64.1 105.873C64.151 106.046 64.1891 106.201 64.2144 106.338C64.2396 106.475 64.2525 106.643 64.2525 106.841H64.3745C64.3745 106.643 64.3845 106.473 64.405 106.33C64.4303 106.188 64.4684 106.035 64.5194 105.873L65.6936 101.885H67.2339V107.703H66.3341V103.456C66.3341 103.196 66.3494 102.917 66.3799 102.617L66.2579 102.602C66.2069 102.891 66.1383 103.176 66.052 103.456L64.7558 107.703H63.8713L62.5598 103.456C62.4835 103.206 62.4201 102.922 62.3691 102.602L62.2471 102.617C62.2724 102.917 62.2853 103.196 62.2853 103.456V107.703H61.3855V101.885ZM69.3617 107.787C68.9447 107.787 68.6092 107.677 68.3552 107.459C68.1012 107.235 67.974 106.933 67.974 106.551C67.974 106.16 68.1265 105.852 68.4315 105.629C68.6602 105.461 68.9881 105.337 69.4151 105.255L70.8029 104.988C70.8029 104.704 70.7242 104.477 70.5665 104.31C70.3987 104.142 70.1752 104.058 69.8955 104.058C69.6667 104.058 69.4661 104.124 69.2931 104.256C69.1254 104.383 69.0186 104.556 68.9729 104.775H68.1417C68.2127 104.327 68.4139 103.982 68.7441 103.738C69.0744 103.494 69.4609 103.372 69.9031 103.372C70.1524 103.372 70.3859 103.41 70.6046 103.486C70.8281 103.557 71.0164 103.664 71.1689 103.806C71.3724 103.995 71.4991 104.216 71.5501 104.47C71.6059 104.724 71.634 105.016 71.634 105.347V107.703H70.7952V107.543C70.7952 107.436 70.8257 107.296 70.8867 107.123L70.78 107.07C70.668 107.263 70.5231 107.421 70.3454 107.543C70.1114 107.705 69.7835 107.787 69.3617 107.787ZM69.5295 107.093C69.753 107.093 69.9565 107.047 70.1395 106.955C70.3477 106.854 70.5031 106.714 70.6046 106.536C70.6604 106.439 70.7014 106.351 70.7266 106.269C70.7519 106.183 70.78 106.069 70.8105 105.926C70.8257 105.86 70.8462 105.812 70.8715 105.781C70.8967 105.745 70.9325 105.725 70.9782 105.72L70.9554 105.598L70.0709 105.781L69.6134 105.865C69.3184 105.926 69.1049 106.018 68.9729 106.14C68.8661 106.246 68.8127 106.376 68.8127 106.528C68.8127 106.706 68.8761 106.846 69.0034 106.948C69.1354 107.045 69.3108 107.093 69.5295 107.093ZM72.4499 103.456H73.2886V103.661C73.2886 103.738 73.281 103.801 73.2657 103.852C73.2505 103.898 73.2248 103.946 73.1895 103.997L73.2962 104.066C73.4587 103.816 73.6394 103.639 73.8376 103.532C74.0406 103.425 74.2899 103.372 74.5849 103.372H74.6687V104.195H74.44C74.0993 104.195 73.8348 104.289 73.647 104.477C73.4078 104.706 73.2886 105.082 73.2886 105.606V107.703H72.4499V103.456ZM75.1791 101.885H76.0179V104.386C76.0179 104.508 76.0126 104.617 76.0026 104.714C75.9974 104.81 75.9774 104.922 75.9416 105.049L76.0331 105.095C76.1856 104.932 76.3153 104.8 76.422 104.698L77.7259 103.456H78.8315L77.1235 105.042C77.0268 105.138 76.91 105.209 76.7728 105.255V105.362C76.9048 105.423 77.022 105.507 77.1235 105.613L78.9916 107.703H77.9165L76.422 106.002C76.3915 105.972 76.31 105.88 76.178 105.728C76.1575 105.697 76.1346 105.669 76.1094 105.644C76.0841 105.613 76.0584 105.583 76.0331 105.552L75.9416 105.591C75.9774 105.728 75.9974 105.85 76.0026 105.957C76.0126 106.058 76.0179 106.178 76.0179 106.315V107.703H75.1791V101.885ZM81.0957 107.787C80.6839 107.787 80.3179 107.693 79.9977 107.504C79.6774 107.311 79.4286 107.049 79.2504 106.719C79.0727 106.384 78.9835 106.01 78.9835 105.598C78.9835 105.212 79.0626 104.849 79.2199 104.508C79.3829 104.167 79.6217 103.893 79.9367 103.684C80.2521 103.476 80.6305 103.372 81.0728 103.372C81.4493 103.372 81.7948 103.453 82.1098 103.616C82.43 103.778 82.6869 104.022 82.8799 104.348C83.0734 104.668 83.1697 105.059 83.1697 105.522V105.751H80.3027C80.0539 105.751 79.8757 105.743 79.7689 105.728L79.7384 105.85C79.7842 105.86 79.8147 105.88 79.8299 105.911C79.8504 105.936 79.8709 105.977 79.8909 106.033C79.9014 106.073 79.9243 106.132 79.9595 106.208C80.0615 106.467 80.214 106.673 80.417 106.826C80.6205 106.978 80.8517 107.055 81.1109 107.055C81.3806 107.055 81.6118 106.986 81.8048 106.849C81.9983 106.706 82.1379 106.526 82.2242 106.307H83.101C82.959 106.744 82.7174 107.1 82.3767 107.375C82.0412 107.649 81.6142 107.787 81.0957 107.787ZM79.8757 105.202C79.9471 105.156 80.0129 105.123 80.0739 105.103C80.1349 105.082 80.2035 105.072 80.2798 105.072H81.8887C81.9754 105.072 82.0488 105.082 82.1098 105.103C82.176 105.123 82.247 105.156 82.3233 105.202L82.3995 105.103C82.3538 105.072 82.3233 105.047 82.308 105.026C82.2928 105.001 82.2804 104.968 82.2699 104.927C82.2599 104.856 82.227 104.769 82.1708 104.668C82.0693 104.475 81.922 104.327 81.7285 104.226C81.5408 104.119 81.332 104.066 81.1033 104.066C80.8645 104.066 80.6534 104.119 80.4704 104.226C80.2874 104.327 80.1425 104.475 80.0358 104.668C79.99 104.744 79.9548 104.83 79.929 104.927C79.919 104.968 79.9062 105.001 79.8909 105.026C79.8809 105.052 79.8528 105.077 79.807 105.103L79.8757 105.202ZM85.1069 107.703C84.7762 107.703 84.5274 107.626 84.3596 107.474C84.1919 107.321 84.108 107.065 84.108 106.704V104.157H83.4523V103.456H84.108V101.885H84.9468V103.456H85.8313V104.157H84.9468V106.483C84.9468 106.66 84.972 106.79 85.023 106.872C85.0735 106.953 85.1908 106.994 85.3738 106.994H85.8236V107.703H85.1069ZM86.4494 107.703V103.456H87.2881V107.703H86.4494ZM86.8687 102.861C86.7162 102.861 86.5842 102.81 86.4722 102.708C86.3603 102.607 86.3045 102.48 86.3045 102.327C86.3045 102.175 86.3603 102.047 86.4722 101.946C86.5842 101.844 86.7162 101.793 86.8687 101.793C87.0265 101.793 87.1585 101.844 87.2652 101.946C87.3772 102.047 87.433 102.175 87.433 102.327C87.433 102.48 87.3772 102.607 87.2652 102.708C87.1585 102.81 87.0265 102.861 86.8687 102.861ZM88.1435 103.456H88.9823V103.661C88.9823 103.738 88.9747 103.801 88.9594 103.852C88.9442 103.898 88.9189 103.946 88.8832 103.997L88.9899 104.066C89.1629 103.816 89.3431 103.639 89.5313 103.532C89.7195 103.425 89.9378 103.372 90.187 103.372C90.8223 103.372 91.2522 103.6 91.4757 104.058C91.5619 104.226 91.6153 104.399 91.6358 104.576C91.6563 104.749 91.6663 104.958 91.6663 105.202V107.703H90.8275V105.194C90.8275 104.762 90.7537 104.462 90.6064 104.294C90.4692 104.152 90.2709 104.081 90.0117 104.081C89.7014 104.081 89.4627 104.178 89.2949 104.371C89.1829 104.493 89.1019 104.658 89.0509 104.866C89.0052 105.074 88.9823 105.357 88.9823 105.713V107.703H88.1435V103.456ZM94.4022 109.35C93.9042 109.35 93.4772 109.245 93.1212 109.037C92.7657 108.829 92.547 108.48 92.4655 107.992H93.3195C93.3857 108.221 93.5054 108.389 93.6779 108.496C93.8561 108.608 94.0949 108.663 94.3946 108.663C94.7759 108.663 95.058 108.577 95.241 108.404C95.424 108.231 95.5155 107.987 95.5155 107.672V107.451C95.5155 107.365 95.5207 107.301 95.5307 107.26C95.546 107.215 95.5765 107.167 95.6222 107.116L95.5155 107.039C95.3325 107.293 95.1447 107.474 94.9512 107.581C94.7582 107.687 94.5142 107.741 94.2192 107.741C93.8485 107.741 93.5206 107.649 93.2356 107.466C92.9511 107.278 92.73 107.019 92.5722 106.689C92.4197 106.358 92.3435 105.985 92.3435 105.568C92.3435 105.141 92.4197 104.762 92.5722 104.432C92.73 104.096 92.9511 103.837 93.2356 103.654C93.5206 103.466 93.8485 103.372 94.2192 103.372C94.5142 103.372 94.7582 103.425 94.9512 103.532C95.1447 103.639 95.3325 103.816 95.5155 104.066L95.6222 103.997C95.5512 103.905 95.5155 103.793 95.5155 103.661V103.456H96.3542V107.489C96.3542 108.16 96.1817 108.638 95.8357 108.923C95.4902 109.207 95.0122 109.35 94.4022 109.35ZM94.3717 107.009C94.6057 107.009 94.814 106.948 94.997 106.826C95.1852 106.699 95.3301 106.526 95.4316 106.307C95.5384 106.084 95.5917 105.832 95.5917 105.552C95.5917 105.278 95.5384 105.032 95.4316 104.813C95.3301 104.589 95.1852 104.416 94.997 104.294C94.814 104.167 94.6057 104.104 94.3717 104.104C94.0162 104.104 93.7289 104.241 93.5101 104.515C93.2918 104.79 93.1822 105.135 93.1822 105.552C93.1822 105.974 93.289 106.323 93.5025 106.597C93.7212 106.872 94.011 107.009 94.3717 107.009Z" fill="#747681"/>
<defs>
<linearGradient id="paint0_linear_2178_1690" x1="12.0864" y1="67.0123" x2="36.8609" y2="64.1611" gradientUnits="userSpaceOnUse">
<stop stop-color="#6427FF"/>
<stop offset="1" stop-color="#7D51ED"/>
</linearGradient>
<linearGradient id="paint1_linear_2178_1690" x1="12.0864" y1="105.137" x2="36.8609" y2="102.286" gradientUnits="userSpaceOnUse">
<stop stop-color="#6427FF"/>
<stop offset="1" stop-color="#7D51ED"/>
</linearGradient>
</defs>
</svg>
