<svg width="140" height="95" viewBox="0 0 140 95" fill="none" xmlns="http://www.w3.org/2000/svg">
<path d="M136.181 0H3.68056C1.64784 0 0 1.28888 0 2.87879V92.1212C0 93.7111 1.64784 95 3.68056 95H136.181C138.213 95 139.861 93.7111 139.861 92.1212V2.87879C139.861 1.28888 138.213 0 136.181 0Z" fill="white"/>
<path d="M11.0645 11.8956H12.4531L14.0256 16.6868C14.136 17.0423 14.1911 17.3397 14.1911 17.5788H14.3383C14.3383 17.3581 14.3965 17.0607 14.513 16.6868L16.0763 11.8956H17.465L14.9912 18.9122H13.5382L11.0645 11.8956ZM17.779 18.9122V13.7532H19.0205V18.9122H17.779ZM18.4043 13.1831C18.1898 13.1831 18.0089 13.1187 17.8618 12.9899C17.7146 12.8612 17.6411 12.6895 17.6411 12.4749C17.6411 12.2726 17.7146 12.104 17.8618 11.9692C18.0089 11.8343 18.1898 11.7668 18.4043 11.7668C18.6128 11.7668 18.7906 11.8343 18.9377 11.9692C19.091 12.104 19.1676 12.2726 19.1676 12.4749C19.1676 12.6834 19.0941 12.8551 18.9469 12.9899C18.7998 13.1187 18.6189 13.1831 18.4043 13.1831ZM22.1086 19.0134C21.4711 19.0134 20.9193 18.8601 20.4533 18.5536C19.9874 18.247 19.7146 17.7872 19.6349 17.1742H20.858C20.9377 17.4501 21.0848 17.6646 21.2994 17.8179C21.514 17.965 21.7807 18.0386 22.0994 18.0386C22.3692 18.0386 22.5868 17.9865 22.7524 17.8823C22.9241 17.778 23.0099 17.6309 23.0099 17.4409C23.0099 17.2324 22.9087 17.0822 22.7064 16.9902C22.5102 16.8983 22.2037 16.8124 21.7868 16.7328C21.3883 16.6531 21.0572 16.5672 20.7936 16.4753C20.53 16.3833 20.3062 16.2362 20.1223 16.0339C19.9383 15.8254 19.8464 15.5434 19.8464 15.1878C19.8464 14.6789 20.0334 14.2958 20.4074 14.0383C20.7875 13.7747 21.2657 13.6429 21.8419 13.6429C22.4489 13.6429 22.9516 13.7961 23.3501 14.1027C23.7547 14.4092 24.003 14.8414 24.095 15.3993H22.9271C22.8597 15.1295 22.7279 14.9334 22.5317 14.8108C22.3355 14.682 22.1025 14.6176 21.8328 14.6176C21.5875 14.6176 21.3913 14.6667 21.2442 14.7648C21.1032 14.8567 21.0327 14.9824 21.0327 15.1418C21.0327 15.3319 21.1277 15.4668 21.3178 15.5465C21.5079 15.6261 21.8082 15.7059 22.219 15.7856C22.642 15.8652 22.9853 15.9511 23.249 16.043C23.5187 16.1289 23.7486 16.276 23.9387 16.4845C24.1349 16.6929 24.2329 16.9811 24.2329 17.3489C24.2329 17.8578 24.0429 18.2624 23.6628 18.5628C23.2888 18.8632 22.7708 19.0134 22.1086 19.0134ZM24.8967 18.9122V13.7532H26.1381V18.9122H24.8967ZM25.522 13.1831C25.3074 13.1831 25.1266 13.1187 24.9794 12.9899C24.8323 12.8612 24.7587 12.6895 24.7587 12.4749C24.7587 12.2726 24.8323 12.104 24.9794 11.9692C25.1266 11.8343 25.3074 11.7668 25.522 11.7668C25.7304 11.7668 25.9082 11.8343 26.0554 11.9692C26.2086 12.104 26.2853 12.2726 26.2853 12.4749C26.2853 12.6834 26.2117 12.8551 26.0646 12.9899C25.9174 13.1187 25.7366 13.1831 25.522 13.1831ZM28.6102 18.9122C27.807 18.9122 27.4055 18.5352 27.4055 17.7811V14.7464H26.6422V13.7532H27.4055V11.8956H28.6469V13.7532H29.6401V14.7464H28.6469V17.4041C28.6469 17.5635 28.6715 17.683 28.7205 17.7627C28.7757 17.8424 28.8922 17.8823 29.07 17.8823H29.6309V18.9122H28.6102ZM32.5831 19.0134C32.0681 19.0134 31.6114 18.9 31.2129 18.6731C30.8144 18.4463 30.5017 18.1275 30.2749 17.7167C30.0542 17.306 29.9438 16.8339 29.9438 16.3005C29.9438 15.7856 30.0542 15.3257 30.2749 14.9211C30.5017 14.5165 30.8144 14.2038 31.2129 13.9831C31.6114 13.7563 32.0681 13.6429 32.5831 13.6429C33.0981 13.6429 33.5548 13.7563 33.9533 13.9831C34.358 14.2099 34.6706 14.5257 34.8913 14.9303C35.1182 15.3288 35.2316 15.7856 35.2316 16.3005C35.2316 16.8339 35.1213 17.306 34.9005 17.7167C34.6798 18.1275 34.3672 18.4463 33.9625 18.6731C33.564 18.9 33.1042 19.0134 32.5831 19.0134ZM32.5831 17.9466C32.9877 17.9466 33.3157 17.7934 33.5671 17.4868C33.8184 17.1803 33.9441 16.7849 33.9441 16.3005C33.9441 15.8346 33.8184 15.4545 33.5671 15.1602C33.3157 14.8598 32.9877 14.7096 32.5831 14.7096C32.3195 14.7096 32.0834 14.7771 31.875 14.9119C31.6665 15.0468 31.5041 15.2369 31.3876 15.4821C31.2711 15.7212 31.2129 15.994 31.2129 16.3005C31.2129 16.791 31.3386 17.1895 31.5899 17.496C31.8474 17.7964 32.1785 17.9466 32.5831 17.9466ZM35.8785 13.7532H37.12V13.9187C37.12 14.0168 37.1108 14.0965 37.0924 14.1578C37.074 14.2191 37.0372 14.2805 36.982 14.3418L37.1108 14.4337C37.3008 14.1517 37.5123 13.9494 37.7453 13.8268C37.9783 13.7041 38.2603 13.6429 38.5914 13.6429H38.7385V14.8384H38.4534C38.061 14.8384 37.7545 14.9426 37.5338 15.151C37.3928 15.292 37.2885 15.4729 37.2211 15.6936C37.1537 15.9082 37.12 16.1841 37.12 16.5212V18.9122H35.8785V13.7532ZM41.4295 19.0134C40.7919 19.0134 40.2401 18.8601 39.7742 18.5536C39.3082 18.247 39.0354 17.7872 38.9557 17.1742H40.1788C40.2585 17.4501 40.4057 17.6646 40.6202 17.8179C40.8348 17.965 41.1015 18.0386 41.4203 18.0386C41.69 18.0386 41.9077 17.9865 42.0732 17.8823C42.2449 17.778 42.3307 17.6309 42.3307 17.4409C42.3307 17.2324 42.2295 17.0822 42.0272 16.9902C41.8311 16.8983 41.5245 16.8124 41.1076 16.7328C40.7091 16.6531 40.3781 16.5672 40.1144 16.4753C39.8508 16.3833 39.627 16.2362 39.4431 16.0339C39.2592 15.8254 39.1672 15.5434 39.1672 15.1878C39.1672 14.6789 39.3542 14.2958 39.7282 14.0383C40.1083 13.7747 40.5865 13.6429 41.1628 13.6429C41.7697 13.6429 42.2725 13.7961 42.6709 14.1027C43.0756 14.4092 43.3239 14.8414 43.4159 15.3993H42.2479C42.1805 15.1295 42.0487 14.9334 41.8525 14.8108C41.6563 14.682 41.4234 14.6176 41.1536 14.6176C40.9084 14.6176 40.7122 14.6667 40.565 14.7648C40.4241 14.8567 40.3535 14.9824 40.3535 15.1418C40.3535 15.3319 40.4486 15.4668 40.6386 15.5465C40.8287 15.6261 41.1291 15.7059 41.5398 15.7856C41.9628 15.8652 42.3062 15.9511 42.5698 16.043C42.8396 16.1289 43.0695 16.276 43.2595 16.4845C43.4557 16.6929 43.5538 16.9811 43.5538 17.3489C43.5538 17.8578 43.3637 18.2624 42.9836 18.5628C42.6097 18.8632 42.0916 19.0134 41.4295 19.0134Z" fill="#04091E"/>
<path d="M123.229 16.6128L121.16 14.5437H125.298L123.229 16.6128Z" fill="#04091E"/>
<path d="M11.0352 24.96H128.746" stroke="#F5F5F5" stroke-width="0.366534"/>
<path d="M26.388 60.6943H10.5547V73.8888H26.388V60.6943Z" fill="#E7E0F9"/>
<path d="M43.5412 51.4583H29.0273V73.8888H43.5412V51.4583Z" fill="#E7E0F9"/>
<path d="M60.6936 32.9861H46.1797V73.8889H60.6936V32.9861Z" fill="#6427FF"/>
<g filter="url(#filter0_d_2178_1703)">
<path d="M53.337 44.4808C54.8606 44.4808 56.0958 43.2456 56.0958 41.722C56.0958 40.1983 54.8606 38.9631 53.337 38.9631C51.8133 38.9631 50.5781 40.1983 50.5781 41.722C50.5781 43.2456 51.8133 44.4808 53.337 44.4808Z" fill="#E7E0F9"/>
</g>
<path d="M53.3376 42.6405C53.8455 42.6405 54.2572 42.2288 54.2572 41.7209C54.2572 41.213 53.8455 40.8013 53.3376 40.8013C52.8297 40.8013 52.418 41.213 52.418 41.7209C52.418 42.2288 52.8297 42.6405 53.3376 42.6405Z" fill="#6427FF"/>
<path d="M45.5204 36.2031H23.9095C22.8938 36.2031 22.0703 37.0266 22.0703 38.0424V45.3993C22.0703 46.415 22.8938 47.2385 23.9095 47.2385H45.5204C46.5362 47.2385 47.3597 46.415 47.3597 45.3993V38.0424C47.3597 37.0266 46.5362 36.2031 45.5204 36.2031Z" fill="#E7E0F9"/>
<path d="M28.1653 43.6099C27.8159 43.5731 27.5186 43.4595 27.2733 43.2696C27.0312 43.0797 26.8886 42.8052 26.8457 42.4466H27.4343C27.4864 42.6549 27.5952 42.8222 27.7607 42.9478C27.7883 42.9662 27.819 42.9846 27.8527 43.003C27.8864 43.0181 27.9109 43.0305 27.9262 43.0397C28.0244 43.0857 28.1025 43.1349 28.1607 43.1869L28.2113 43.1455C28.1899 43.0535 28.1761 42.9767 28.1699 42.9156C28.1669 42.8512 28.1653 42.7809 28.1653 42.7041V41.9868C27.9109 41.9348 27.6979 41.8732 27.5262 41.8029C27.3577 41.7325 27.2212 41.6327 27.117 41.504C27.0158 41.372 26.9653 41.2019 26.9653 40.9936C26.9653 40.7881 27.0158 40.6106 27.117 40.4602C27.2212 40.3099 27.3638 40.1949 27.5446 40.1154C27.7255 40.0358 27.9324 39.9944 28.1653 39.9912V39.4395H28.4412V40.005C28.7325 40.0602 28.9762 40.1765 29.1723 40.3545C29.3685 40.5292 29.4881 40.7669 29.531 41.0672H28.9562C28.9225 40.92 28.8535 40.7945 28.7493 40.6901C28.734 40.675 28.6957 40.6428 28.6343 40.5936L28.4458 40.4326L28.3953 40.4694C28.4259 40.5798 28.4412 40.6855 28.4412 40.7867V41.504C28.6957 41.5592 28.9072 41.6249 29.0758 41.7017C29.2475 41.7753 29.3838 41.881 29.485 42.019C29.5861 42.1569 29.6367 42.3349 29.6367 42.5523C29.6367 42.8682 29.531 43.1211 29.3195 43.311C29.111 43.4982 28.8183 43.5993 28.4412 43.6145V44.2122H28.1653V43.6099ZM28.2159 41.4856C28.1945 41.406 28.1807 41.3417 28.1745 41.2925C28.1684 41.2405 28.1653 41.1853 28.1653 41.1269V40.7545C28.1653 40.7025 28.1669 40.6547 28.1699 40.612C28.1761 40.566 28.1899 40.5048 28.2113 40.428L28.1607 40.3867C28.078 40.4418 28.0044 40.4818 27.94 40.5062C27.8757 40.5306 27.8328 40.5476 27.8113 40.5568C27.6305 40.6428 27.54 40.7715 27.54 40.943C27.54 41.0382 27.5661 41.1177 27.6182 41.1821C27.6703 41.2433 27.7469 41.2957 27.8481 41.3385C27.8634 41.3476 27.9002 41.366 27.9584 41.3936C28.0167 41.418 28.0857 41.4612 28.1653 41.5224L28.2159 41.4856ZM28.4458 43.2053C28.501 43.1593 28.5777 43.1193 28.6757 43.0857C28.688 43.0797 28.7125 43.0687 28.7493 43.0535C28.7892 43.0351 28.8229 43.0167 28.8505 42.9984C28.9884 42.9032 29.0574 42.7685 29.0574 42.5937C29.0574 42.5018 29.0375 42.4222 28.9976 42.3546C28.9608 42.287 28.9041 42.2273 28.8275 42.1753C28.8091 42.1629 28.7861 42.1509 28.7585 42.1385C28.7309 42.1233 28.711 42.1123 28.6987 42.1063C28.5945 42.0603 28.5102 42.013 28.4458 41.9638L28.3953 42.0006C28.4167 42.0866 28.429 42.1569 28.432 42.2121C28.4382 42.264 28.4412 42.3224 28.4412 42.3868V42.7409C28.4412 42.8144 28.4382 42.8802 28.432 42.9386C28.429 42.997 28.4167 43.0705 28.3953 43.1593L28.4458 43.2053ZM30.0067 43.0995L31.1102 42.1431C31.3432 41.9468 31.5149 41.7661 31.6252 41.6005C31.7356 41.435 31.7907 41.2617 31.7907 41.081C31.7907 40.9003 31.7417 40.7591 31.6436 40.6579C31.5486 40.5536 31.406 40.5016 31.216 40.5016C30.7991 40.5016 30.5768 40.7545 30.5493 41.2603H30.0021C30.0174 40.8616 30.1308 40.5522 30.3423 40.3315C30.5539 40.1108 30.8466 40.0004 31.2206 40.0004C31.4382 40.0004 31.6313 40.0432 31.7999 40.1292C31.9716 40.2119 32.1034 40.3315 32.1954 40.4878C32.2904 40.6441 32.3379 40.8267 32.3379 41.035C32.3379 41.3109 32.2582 41.5684 32.0988 41.8075C31.9394 42.0466 31.7325 42.2765 31.4781 42.4972L31.0504 42.865C30.9585 42.9446 30.868 43.0121 30.7792 43.0673L30.8068 43.1225C30.8864 43.0889 30.9493 43.0659 30.9953 43.0535C31.0413 43.0411 31.0979 43.0351 31.1654 43.0351H32.4942V43.5593H30.0067V43.0995ZM32.8826 44.0605C33.0358 44.0481 33.1539 43.9994 33.2366 43.9134C33.3224 43.8306 33.3654 43.7203 33.3654 43.5823C33.3654 43.5487 33.3638 43.5225 33.3608 43.5041H33.3056C33.2872 43.5717 33.232 43.6053 33.1401 43.6053C33.0634 43.6053 32.996 43.5763 32.9378 43.5179C32.8826 43.4595 32.855 43.3814 32.855 43.2834C32.855 43.1823 32.8872 43.0995 32.9516 43.0351C33.019 42.9708 33.1079 42.9386 33.2183 42.9386C33.3592 42.9386 33.4681 42.9924 33.5447 43.0995C33.6244 43.2039 33.6643 43.3446 33.6643 43.5225C33.6643 43.734 33.5999 43.918 33.4711 44.0743C33.3454 44.2339 33.1493 44.324 32.8826 44.3456V44.0605ZM35.3171 43.6191C35.0688 43.6191 34.8481 43.5731 34.655 43.4812C34.4649 43.386 34.3162 43.2558 34.2089 43.0903C34.1047 42.9216 34.0526 42.7317 34.0526 42.5202C34.0526 42.3211 34.1078 42.1431 34.2181 41.9868C34.3285 41.8272 34.4894 41.7201 34.7009 41.6649V41.6097C34.5385 41.567 34.4143 41.4842 34.3285 41.3614C34.2457 41.2359 34.2044 41.0961 34.2044 40.943C34.2044 40.7591 34.2519 40.5949 34.3469 40.451C34.4419 40.3071 34.5737 40.1949 34.7423 40.1154C34.9109 40.0358 35.1025 39.9958 35.3171 39.9958C35.5347 39.9958 35.7278 40.0358 35.8964 40.1154C36.0651 40.1949 36.1953 40.3071 36.2873 40.451C36.3823 40.5949 36.4298 40.7591 36.4298 40.943C36.4298 41.0961 36.3869 41.2359 36.3011 41.3614C36.2183 41.487 36.0957 41.5697 35.9332 41.6097V41.6649C36.1478 41.7201 36.3087 41.8258 36.416 41.9822C36.5264 42.1385 36.5816 42.3178 36.5816 42.5202C36.5816 42.7349 36.5295 42.9248 36.4252 43.0903C36.321 43.2558 36.1723 43.386 35.9792 43.4812C35.7892 43.5731 35.5685 43.6191 35.3171 43.6191ZM35.3171 41.458C35.4918 41.458 35.6267 41.4134 35.7217 41.3247C35.8168 41.2359 35.8643 41.1177 35.8643 40.9706C35.8643 40.8267 35.8152 40.7085 35.7171 40.6166C35.619 40.5246 35.4857 40.4786 35.3171 40.4786C35.1485 40.4786 35.0151 40.5246 34.9171 40.6166C34.819 40.7085 34.7699 40.8267 34.7699 40.9706C34.7699 41.1177 34.8174 41.2359 34.9125 41.3247C35.0075 41.4134 35.1424 41.458 35.3171 41.458ZM35.3171 43.1133C35.5225 43.1133 35.6864 43.0568 35.8091 42.9432C35.9347 42.8296 35.9976 42.6779 35.9976 42.488C35.9976 42.304 35.9363 42.1555 35.8137 42.042C35.6941 41.9256 35.5286 41.8672 35.3171 41.8672C35.1056 41.8672 34.9385 41.9256 34.8159 42.042C34.6963 42.1555 34.6366 42.304 34.6366 42.488C34.6366 42.6779 34.6994 42.8296 34.8251 42.9432C34.9508 43.0568 35.1148 43.1133 35.3171 43.1133ZM38.2052 39.9912C38.6312 39.9912 38.9547 40.1416 39.1754 40.4418C39.3991 40.7421 39.511 41.1605 39.511 41.6971C39.511 42.2948 39.3991 42.7639 39.1754 43.1041C38.9516 43.4444 38.6236 43.6145 38.1914 43.6145C37.8634 43.6145 37.5967 43.5258 37.3913 43.3478C37.189 43.1671 37.0649 42.9188 37.0189 42.6029H37.5522C37.5921 42.7685 37.6656 42.8958 37.773 42.9846C37.8802 43.0705 38.0197 43.1133 38.1914 43.1133C38.409 43.1133 38.5761 43.043 38.6926 42.9018C38.8121 42.7606 38.8918 42.5615 38.9317 42.304C38.9593 42.1569 38.9914 42.0341 39.0282 41.9362L38.9685 41.904C38.7814 42.2107 38.5056 42.3638 38.1408 42.3638C37.9201 42.3638 37.7254 42.3165 37.5568 42.2213C37.3882 42.1261 37.2564 41.9914 37.1614 41.8167C37.0695 41.6419 37.0235 41.4396 37.0235 41.2097C37.0235 40.9766 37.0725 40.7683 37.1706 40.5844C37.2718 40.3972 37.4127 40.2519 37.5936 40.1476C37.7745 40.0432 37.9783 39.9912 38.2052 39.9912ZM38.2144 40.497C38.0274 40.497 37.8787 40.5628 37.7684 40.6947C37.661 40.8267 37.6074 40.995 37.6074 41.2005C37.6074 41.406 37.661 41.5716 37.7684 41.6971C37.8756 41.8226 38.0243 41.8856 38.2144 41.8856C38.4136 41.8856 38.5745 41.8226 38.6972 41.6971C38.8228 41.5684 38.8857 41.4028 38.8857 41.2005C38.8857 40.9922 38.8228 40.8235 38.6972 40.6947C38.5745 40.5628 38.4136 40.497 38.2144 40.497ZM41.236 43.6145C40.8314 43.6145 40.5187 43.466 40.298 43.1685C40.0773 42.871 39.9669 42.4144 39.9669 41.7983C39.9669 41.1853 40.0758 40.7315 40.2934 40.4372C40.5111 40.143 40.8191 39.9958 41.2176 39.9958C41.6192 39.9958 41.9288 40.1443 42.1464 40.4418C42.3671 40.7393 42.4775 41.1973 42.4775 41.8167C42.4775 42.4268 42.3687 42.8788 42.151 43.1731C41.9365 43.4674 41.6314 43.6145 41.236 43.6145ZM41.2222 43.0903C41.4368 43.0903 41.6023 42.9905 41.7188 42.7914C41.8353 42.5923 41.8935 42.2659 41.8935 41.8121C41.8935 41.3522 41.8337 41.0212 41.7142 40.8189C41.5946 40.6166 41.4261 40.5154 41.2084 40.5154C40.9939 40.5154 40.8298 40.6166 40.7164 40.8189C40.6061 41.0212 40.5509 41.349 40.5509 41.8029C40.5509 42.2627 40.6076 42.5923 40.721 42.7914C40.8375 42.9905 41.0046 43.0903 41.2222 43.0903Z" fill="#6427FF"/>
<path d="M48.7407 41.7217L47.3613 43.1011V40.3423L48.7407 41.7217Z" fill="#E7E0F9"/>
<path d="M77.8479 46.1807H63.334V73.889H77.8479V46.1807Z" fill="#E7E0F9"/>
<path d="M95.0002 39.5833H80.4863V73.8888H95.0002V39.5833Z" fill="#E7E0F9"/>
<path d="M112.153 51.4583H97.6387V73.8888H112.153V51.4583Z" fill="#E7E0F9"/>
<path d="M129.305 43.5417H114.791V73.889H129.305V43.5417Z" fill="#E7E0F9"/>
<path opacity="0.4" d="M16.6055 81.8623H17.5941L18.2654 84.2119C18.296 84.3131 18.3175 84.4083 18.3297 84.497C18.3451 84.583 18.3527 84.6855 18.3527 84.8051H18.4263C18.4263 84.6855 18.4324 84.583 18.4447 84.497C18.46 84.4083 18.483 84.3131 18.5137 84.2119L19.185 81.8623H20.1736V85.3706H19.5896V82.8601C19.5896 82.6978 19.5988 82.5244 19.6172 82.3405L19.5436 82.3313C19.5038 82.558 19.4639 82.7346 19.4241 82.8601L18.6746 85.3706H18.1044L17.355 82.8601C17.3151 82.7346 17.2752 82.558 17.2354 82.3313L17.1664 82.3405C17.1817 82.5244 17.1894 82.6978 17.1894 82.8601V85.3706H16.6055V81.8623Z" fill="#04091E"/>
<path opacity="0.4" d="M35.5703 85.3706V82.3865H34.4668V81.8623H37.267V82.3865H36.1543V85.3706H35.5703Z" fill="#04091E"/>
<path opacity="0.4" d="M50.8828 81.8623H51.4944L52.1519 84.3499C52.1827 84.451 52.2025 84.5292 52.2117 84.5844C52.2241 84.6363 52.23 84.6933 52.23 84.7545H52.3036C52.3036 84.6901 52.3082 84.6303 52.3174 84.5752C52.3266 84.52 52.3436 84.445 52.368 84.3499L52.9887 81.8623H53.683L54.3038 84.3499C54.3281 84.4418 54.3452 84.5168 54.3543 84.5752C54.3668 84.6303 54.3727 84.6901 54.3727 84.7545H54.4463C54.4463 84.6933 54.4509 84.6363 54.4601 84.5844C54.4725 84.5324 54.4923 84.4542 54.5199 84.3499L55.1774 81.8623H55.7889L54.8325 85.3706H54.0463L53.4117 82.8647C53.3874 82.7511 53.375 82.6362 53.375 82.5198H53.3014C53.3014 82.6426 53.2876 82.7576 53.26 82.8647L52.6255 85.3706H51.8438L50.8828 81.8623Z" fill="#04091E"/>
<path opacity="0.4" d="M70.5156 85.3706V82.3865H69.4121V81.8623H72.2123V82.3865H71.0996V85.3706H70.5156Z" fill="#04091E"/>
<path opacity="0.4" d="M87.2246 85.3706V81.8623H89.5466V82.3865H87.8086V83.3521H89.3535V83.8717H87.8086V85.3706H87.2246Z" fill="#04091E"/>
<path opacity="0.4" d="M105.849 85.4289C105.607 85.4289 105.377 85.3889 105.16 85.3094C104.945 85.2298 104.762 85.1025 104.612 84.9277C104.465 84.753 104.376 84.5291 104.346 84.2564H104.939C104.991 84.4955 105.101 84.667 105.27 84.7714C105.441 84.8758 105.638 84.9277 105.858 84.9277C106.07 84.9277 106.238 84.8831 106.364 84.7944C106.49 84.7057 106.553 84.5737 106.553 84.399C106.553 84.2702 106.513 84.1677 106.433 84.0909C106.356 84.0141 106.26 83.9576 106.144 83.9208C106.027 83.8808 105.866 83.838 105.661 83.792C105.406 83.7369 105.199 83.6803 105.04 83.6219C104.88 83.5635 104.744 83.4702 104.631 83.3414C104.52 83.2127 104.465 83.0366 104.465 82.8126C104.465 82.6011 104.517 82.4204 104.622 82.2701C104.726 82.117 104.868 82.002 105.049 81.9252C105.233 81.8457 105.441 81.8057 105.675 81.8057C106.024 81.8057 106.324 81.8962 106.576 82.0769C106.83 82.2577 106.985 82.5243 107.04 82.877H106.456C106.41 82.6839 106.316 82.5414 106.176 82.4494C106.035 82.3542 105.864 82.3069 105.665 82.3069C105.475 82.3069 105.325 82.3469 105.215 82.4264C105.104 82.506 105.049 82.6181 105.049 82.7621C105.049 82.8756 105.084 82.9658 105.155 83.0333C105.229 83.1009 105.32 83.1529 105.431 83.1897C105.541 83.2232 105.691 83.2619 105.881 83.3046C106.151 83.363 106.369 83.4242 106.534 83.4886C106.7 83.5497 106.841 83.6509 106.957 83.792C107.077 83.93 107.137 84.1199 107.137 84.3622C107.137 84.69 107.023 84.9507 106.796 85.1439C106.573 85.3338 106.257 85.4289 105.849 85.4289Z" fill="#04091E"/>
<path opacity="0.4" d="M123.322 85.4289C123.08 85.4289 122.85 85.3889 122.632 85.3094C122.417 85.2298 122.235 85.1025 122.085 84.9277C121.938 84.753 121.849 84.5291 121.818 84.2564H122.411C122.463 84.4955 122.574 84.667 122.743 84.7714C122.914 84.8758 123.11 84.9277 123.331 84.9277C123.543 84.9277 123.711 84.8831 123.837 84.7944C123.962 84.7057 124.025 84.5737 124.025 84.399C124.025 84.2702 123.985 84.1677 123.906 84.0909C123.829 84.0141 123.733 83.9576 123.616 83.9208C123.499 83.8808 123.338 83.838 123.133 83.792C122.879 83.7369 122.672 83.6803 122.513 83.6219C122.353 83.5635 122.217 83.4702 122.103 83.3414C121.993 83.2127 121.938 83.0366 121.938 82.8126C121.938 82.6011 121.99 82.4204 122.094 82.2701C122.198 82.117 122.341 82.002 122.522 81.9252C122.706 81.8457 122.914 81.8057 123.147 81.8057C123.497 81.8057 123.797 81.8962 124.048 82.0769C124.303 82.2577 124.458 82.5243 124.513 82.877H123.929C123.883 82.6839 123.789 82.5414 123.648 82.4494C123.507 82.3542 123.337 82.3069 123.138 82.3069C122.948 82.3069 122.798 82.3469 122.687 82.4264C122.577 82.506 122.522 82.6181 122.522 82.7621C122.522 82.8756 122.557 82.9658 122.628 83.0333C122.701 83.1009 122.793 83.1529 122.903 83.1897C123.014 83.2232 123.164 83.2619 123.354 83.3046C123.624 83.363 123.841 83.4242 124.007 83.4886C124.173 83.5497 124.313 83.6509 124.43 83.792C124.55 83.93 124.609 84.1199 124.609 84.3622C124.609 84.69 124.496 84.9507 124.269 85.1439C124.045 85.3338 123.729 85.4289 123.322 85.4289Z" fill="#04091E"/>
<defs>
<filter id="filter0_d_2178_1703" x="49.112" y="38.9631" width="8.44985" height="8.44985" filterUnits="userSpaceOnUse" color-interpolation-filters="sRGB">
<feFlood flood-opacity="0" result="BackgroundImageFix"/>
<feColorMatrix in="SourceAlpha" type="matrix" values="0 0 0 0 0 0 0 0 0 0 0 0 0 0 0 0 0 0 127 0" result="hardAlpha"/>
<feOffset dy="1.46614"/>
<feGaussianBlur stdDeviation="0.733068"/>
<feComposite in2="hardAlpha" operator="out"/>
<feColorMatrix type="matrix" values="0 0 0 0 0 0 0 0 0 0 0 0 0 0 0 0 0 0 0.08 0"/>
<feBlend mode="normal" in2="BackgroundImageFix" result="effect1_dropShadow_2178_1703"/>
<feBlend mode="normal" in="SourceGraphic" in2="effect1_dropShadow_2178_1703" result="shape"/>
</filter>
</defs>
</svg>
