<svg width="158" height="158" viewBox="0 0 158 158" fill="none" xmlns="http://www.w3.org/2000/svg">
<g filter="url(#filter0_b_2464_4057)">
<circle cx="78.8665" cy="78.8665" r="78.8665" fill="url(#paint0_linear_2464_4057)"/>
</g>
<path d="M67.1055 130.933C67.756 131.09 68.3569 131.343 68.908 131.69C69.4522 132.042 69.9024 132.463 70.2586 132.953C70.6135 133.449 70.8238 133.989 70.8896 134.575L68.7918 134.815C68.7677 134.572 68.6575 134.328 68.4612 134.085C68.2649 133.841 68.0065 133.621 67.6859 133.425C67.3654 133.228 67.0061 133.082 66.6079 132.985C66.1985 132.886 65.8022 132.855 65.4189 132.893C65.0287 132.935 64.6971 133.042 64.424 133.213C64.1495 133.39 63.9756 133.63 63.9022 133.933C63.8274 134.241 63.8812 134.521 64.0635 134.773C64.2445 135.031 64.5002 135.262 64.8306 135.467C65.161 135.672 65.5094 135.851 65.8758 136.005C66.6802 136.337 67.3806 136.717 67.9771 137.147C68.5737 137.577 69.0076 138.077 69.279 138.647C69.5448 139.216 69.586 139.88 69.4025 140.637C69.2298 141.349 68.8742 141.922 68.3356 142.355C67.7971 142.789 67.1581 143.073 66.4186 143.209C65.6792 143.344 64.9225 143.318 64.1486 143.131C63.5036 142.974 62.9056 142.722 62.3544 142.375C61.8033 142.028 61.3503 141.606 60.9954 141.11C60.6349 140.613 60.4225 140.069 60.3581 139.477L62.4622 139.248C62.4863 139.492 62.5965 139.735 62.7928 139.979C62.9891 140.222 63.2482 140.439 63.5701 140.63C63.8906 140.827 64.25 140.973 64.6482 141.07C65.045 141.172 65.4392 141.199 65.8308 141.151C66.2154 141.108 66.547 141.001 66.8257 140.831C67.1044 140.662 67.2791 140.431 67.3498 140.139C67.4409 139.763 67.4058 139.455 67.2445 139.214C67.0776 138.972 66.8284 138.763 66.4968 138.587C66.1639 138.418 65.7903 138.244 65.3762 138.066C64.6209 137.753 63.945 137.369 63.3483 136.916C62.7516 136.462 62.3105 135.943 62.0249 135.357C61.7381 134.777 61.6796 134.136 61.8495 133.435C62.0222 132.723 62.3757 132.146 62.91 131.706C63.4429 131.271 64.0791 130.986 64.8185 130.85C65.558 130.715 66.3203 130.742 67.1055 130.933Z" fill="white"/>
<path d="M45.2245 135.286L43.1528 134.011L45.7497 121.381L47.6593 122.556L47.198 124.792L51.6216 127.513L53.41 126.093L55.3195 127.268L45.2245 135.286ZM49.8588 128.909L46.7549 126.999L45.6936 132.21L49.8588 128.909Z" fill="white"/>
<path d="M39.2131 114.74L32.9408 126.002L31.4716 124.309L36.4648 115.336L26.8714 119.006L25.4079 117.319L37.4434 112.7L39.2131 114.74Z" fill="white"/>
<path d="M32.1117 105.008L20.9969 109.837L17.9684 102.866L19.9055 102.025L22.0924 107.058L24.3471 106.079L22.6121 102.085L24.5492 101.244L26.2842 105.237L29.3329 103.912L27.146 98.879L29.0832 98.0374L32.1117 105.008Z" fill="white"/>
<path d="M25.6878 80.4264L13.7483 77.2882L13.8621 75.5434L21.8022 73.1033L14.2463 69.6524L14.3601 67.9076L26.6062 66.347L26.4659 68.4978L18.891 69.461L25.9174 72.6517L25.8233 74.0942L18.4419 76.3452L25.8281 78.2757L25.6878 80.4264Z" fill="white"/>
<path d="M29.7815 60.2146C29.4921 60.9813 29.0689 61.645 28.5119 62.2058C27.9494 62.7645 27.3015 63.1984 26.568 63.5076C25.8345 63.8167 25.0591 63.9836 24.2418 64.0082C23.4191 64.0307 22.6028 63.8892 21.793 63.5835C20.9831 63.2779 20.2796 62.8458 19.6824 62.2873C19.0797 61.7268 18.6053 61.0882 18.259 60.3716C17.9126 59.6549 17.7157 58.9021 17.668 58.1131C17.615 57.3221 17.7332 56.5432 18.0225 55.7766C18.3139 55.0045 18.7408 54.3391 19.3033 53.7804C19.8603 53.2196 20.5056 52.7847 21.2391 52.4755C21.9725 52.1664 22.7496 52.0033 23.5703 51.9861C24.3876 51.9615 25.2012 52.102 26.011 52.4076C26.8208 52.7133 27.5271 53.1464 28.1297 53.7069C28.729 54.26 29.2018 54.8949 29.5481 55.6115C29.8944 56.3282 30.0941 57.0821 30.1471 57.8731C30.1948 58.6621 30.0729 59.4426 29.7815 60.2146ZM27.8055 59.4688C27.9929 58.9721 28.0666 58.4664 28.0265 57.9517C27.9864 57.4369 27.8503 56.9476 27.6183 56.4838C27.3829 56.0125 27.065 55.5965 26.6645 55.2356C26.2662 54.8694 25.7997 54.5854 25.2652 54.3837C24.7307 54.1819 24.1929 54.0869 23.6519 54.0986C23.1055 54.1083 22.5909 54.2132 22.1083 54.4135C21.6276 54.6083 21.2022 54.8857 20.832 55.2456C20.4638 55.6 20.186 56.0256 19.9985 56.5224C19.8111 57.0191 19.7374 57.5248 19.7775 58.0395C19.8176 58.5543 19.9554 59.0473 20.1908 59.5186C20.4228 59.9824 20.738 60.3974 21.1364 60.7637C21.5368 61.1245 22.0043 61.4058 22.5388 61.6075C23.0787 61.8113 23.6191 61.9073 24.1602 61.8956C24.7012 61.884 25.2147 61.7817 25.7008 61.5889C26.1834 61.3886 26.6089 61.1113 26.977 60.7568C27.3419 60.3949 27.618 59.9656 27.8055 59.4688Z" fill="white"/>
<path d="M34.2041 50.728L24.6724 43.2444L26.0836 41.447L35.7719 42.5495L29.2427 37.4232L30.547 35.762L40.0787 43.2456L38.6729 45.0362L28.9791 43.9405L35.5084 49.0668L34.2041 50.728Z" fill="white"/>
<path d="M45.0235 38.812L37.8222 29.0652L43.9348 24.549L45.1899 26.2477L40.776 29.5089L42.2368 31.4861L45.7387 28.8987L46.9938 30.5974L43.4919 33.1848L45.4671 35.8582L49.881 32.597L51.1361 34.2957L45.0235 38.812Z" fill="white"/>
<path d="M57.9585 18.0389L60.293 17.1642L58.7296 24.8584L60.646 29.9731L58.6682 30.7142L56.7518 25.5994L50.5174 20.8269L52.8519 19.9522L56.9329 23.0728L57.9585 18.0389Z" fill="white"/>
<path d="M96.8231 29.8816L101.778 18.8224L108.311 21.7494L107.447 23.6768L102.842 21.6134L101.837 23.8569L105.684 25.5805L104.82 27.508L100.973 25.7843L98.7506 30.7452L96.8231 29.8816Z" fill="white"/>
<path d="M113.549 40.2531C112.926 39.7202 112.446 39.0964 112.108 38.3819C111.774 37.6629 111.587 36.9059 111.545 36.111C111.504 35.3161 111.611 34.5302 111.866 33.7533C112.125 32.972 112.536 32.2526 113.098 31.595C113.661 30.9374 114.307 30.4228 115.035 30.0512C115.767 29.6752 116.529 29.4463 117.321 29.3645C118.113 29.2826 118.888 29.3535 119.646 29.5771C120.408 29.7964 121.1 30.1724 121.722 30.7053C122.349 31.242 122.83 31.8698 123.164 32.5888C123.502 33.3034 123.691 34.0581 123.732 34.853C123.774 35.6479 123.663 36.4342 123.4 37.2117C123.145 37.9886 122.736 38.7059 122.173 39.3634C121.61 40.021 120.962 40.5378 120.23 40.9138C119.506 41.2891 118.748 41.5178 117.957 41.5996C117.165 41.6815 116.388 41.6128 115.626 41.3935C114.868 41.1699 114.176 40.7898 113.549 40.2531ZM114.922 38.6487C115.326 38.9939 115.776 39.2353 116.274 39.3727C116.771 39.5101 117.278 39.5486 117.793 39.4882C118.316 39.4271 118.816 39.2697 119.291 39.0159C119.771 38.7659 120.197 38.4239 120.568 37.9899C120.94 37.5559 121.212 37.0825 121.385 36.5698C121.562 36.0527 121.638 35.5331 121.614 35.0111C121.595 34.4929 121.479 33.9985 121.266 33.5279C121.058 33.0611 120.752 32.655 120.349 32.3098C119.946 31.9645 119.495 31.7232 118.997 31.5858C118.5 31.4484 117.989 31.4102 117.466 31.4712C116.951 31.5316 116.453 31.6868 115.974 31.9369C115.498 32.1907 115.074 32.5346 114.703 32.9685C114.328 33.4069 114.053 33.8825 113.88 34.3952C113.707 34.9079 113.629 35.4256 113.645 35.9483C113.669 36.4703 113.785 36.9647 113.993 37.4315C114.209 37.8977 114.519 38.3034 114.922 38.6487Z" fill="white"/>
<path d="M120.867 47.7384L130.911 40.9568L133.512 44.8092C133.88 45.3544 134.076 45.939 134.101 46.5631C134.125 47.1871 133.995 47.7833 133.711 48.3516C133.431 48.9166 133.013 49.3864 132.458 49.761C132.004 50.0678 131.529 50.2667 131.033 50.3577C130.546 50.4502 130.063 50.4418 129.586 50.3326C129.111 50.2282 128.673 50.0331 128.271 49.7474L125.74 54.9553L124.379 52.9394L126.806 47.917L126.045 46.7907L122.049 49.4888L120.867 47.7384ZM127.796 45.6088L129.079 47.5098C129.247 47.7585 129.463 47.9437 129.726 48.0654C129.989 48.1871 130.268 48.2391 130.562 48.2213C130.857 48.2036 131.133 48.1075 131.391 47.9331C131.654 47.7555 131.849 47.5335 131.976 47.2671C132.102 47.0006 132.158 46.7226 132.143 46.433C132.129 46.1434 132.038 45.8742 131.87 45.6255L130.586 43.7245L127.796 45.6088Z" fill="white"/>
<path d="M130.162 67.2937L142.119 65.3185L143.285 72.3814L141.202 72.7256L140.379 67.7466L137.954 68.1473L138.641 72.3064L136.557 72.6507L135.87 68.4915L130.507 69.3776L130.162 67.2937Z" fill="white"/>
<path d="M130.849 86.2111C130.959 85.2479 131.291 84.4292 131.845 83.755C132.397 83.0865 133.092 82.5969 133.93 82.2863C134.773 81.9763 135.678 81.8768 136.647 81.9878L143.665 82.7921L143.424 84.8904L136.407 84.0862C135.834 84.0205 135.294 84.0661 134.788 84.223C134.287 84.3863 133.87 84.6522 133.538 85.0207C133.21 85.3956 133.013 85.8725 132.947 86.4516C132.88 87.0364 132.964 87.5455 133.199 87.979C133.439 88.4132 133.786 88.7608 134.238 89.0217C134.695 89.289 135.211 89.4555 135.784 89.5212L142.801 90.3255L142.561 92.4238L135.544 91.6196C134.815 91.5361 134.146 91.3433 133.536 91.041C132.932 90.7394 132.413 90.3489 131.98 89.8694C131.547 89.39 131.23 88.8396 131.028 88.2182C130.826 87.6025 130.766 86.9335 130.849 86.2111Z" fill="white"/>
<path d="M136.787 109.273L134.821 108.501L136.174 105.053L126.86 101.397L127.631 99.4306L136.946 103.086L138.299 99.6378L140.265 100.409L136.787 109.273Z" fill="white"/>
<path d="M120.683 111.259C121.257 110.478 121.952 109.933 122.767 109.622C123.579 109.317 124.426 109.237 125.306 109.383C126.192 109.533 127.028 109.897 127.813 110.474L133.504 114.658L132.253 116.36L126.562 112.176C126.097 111.834 125.606 111.606 125.089 111.491C124.574 111.384 124.08 111.407 123.608 111.562C123.138 111.725 122.73 112.041 122.385 112.51C122.036 112.985 121.856 113.468 121.844 113.961C121.838 114.458 121.966 114.931 122.229 115.382C122.493 115.841 122.857 116.242 123.322 116.584L129.013 120.767L127.762 122.469L122.071 118.286C121.481 117.851 120.996 117.352 120.616 116.786C120.242 116.224 119.985 115.628 119.848 114.997C119.71 114.365 119.708 113.73 119.842 113.09C119.972 112.456 120.252 111.845 120.683 111.259Z" fill="white"/>
<path d="M113.943 119.031L121.535 128.477L117.912 131.389C117.399 131.801 116.832 132.045 116.213 132.121C115.593 132.198 114.988 132.117 114.398 131.881C113.811 131.649 113.309 131.272 112.889 130.75C112.546 130.323 112.308 129.866 112.177 129.379C112.044 128.901 112.012 128.419 112.081 127.934C112.146 127.453 112.304 127 112.556 126.576L107.156 124.486L109.052 122.962L114.258 124.964L115.317 124.112L112.297 120.354L113.943 119.031ZM116.64 125.759L114.852 127.196C114.618 127.383 114.452 127.614 114.352 127.886C114.253 128.158 114.224 128.441 114.266 128.733C114.308 129.024 114.427 129.292 114.622 129.535C114.821 129.782 115.059 129.958 115.335 130.062C115.611 130.166 115.892 130.198 116.18 130.16C116.467 130.121 116.728 130.008 116.962 129.82L118.75 128.383L116.64 125.759Z" fill="white"/>
<path d="M103.972 126.222L108.781 137.345L101.805 140.361L100.967 138.423L106.004 136.245L105.029 133.988L101.032 135.716L100.194 133.778L104.19 132.05L102.871 128.999L97.834 131.177L96.9958 129.238L103.972 126.222Z" fill="white"/>
<path d="M87.9856 131.384C88.2816 131.334 88.552 131.394 88.7969 131.564C89.0371 131.74 89.1825 131.979 89.2331 132.281C89.2817 132.571 89.2213 132.839 89.0517 133.084C88.8764 133.33 88.6408 133.477 88.3449 133.527C88.0489 133.576 87.778 133.514 87.5321 133.338C87.2863 133.163 87.139 132.93 87.0903 132.64C87.0397 132.338 87.1021 132.065 87.2774 131.819C87.4536 131.579 87.6897 131.434 87.9856 131.384Z" fill="white"/>
<defs>
<filter id="filter0_b_2464_4057" x="-14.4268" y="-14.4268" width="186.586" height="186.587" filterUnits="userSpaceOnUse" color-interpolation-filters="sRGB">
<feFlood flood-opacity="0" result="BackgroundImageFix"/>
<feGaussianBlur in="BackgroundImageFix" stdDeviation="7.2134"/>
<feComposite in2="SourceAlpha" operator="in" result="effect1_backgroundBlur_2464_4057"/>
<feBlend mode="normal" in="SourceGraphic" in2="effect1_backgroundBlur_2464_4057" result="shape"/>
</filter>
<linearGradient id="paint0_linear_2464_4057" x1="0" y1="0" x2="157.733" y2="157.733" gradientUnits="userSpaceOnUse">
<stop stop-color="#52C459"/>
<stop offset="0.0001" stop-color="#52C459" stop-opacity="0.72"/>
<stop offset="1" stop-color="#52C459" stop-opacity="0.32"/>
</linearGradient>
</defs>
</svg>
