<svg width="88" height="88" viewBox="0 0 88 88" fill="none" xmlns="http://www.w3.org/2000/svg">
<g opacity="0.1" filter="url(#filter0_b_4002_2467)">
<circle cx="43.8663" cy="43.8663" r="43.2804" fill="white"/>
</g>
<path fill-rule="evenodd" clip-rule="evenodd" d="M51.0669 21.592H32.7869C29.8372 17.6077 33.8112 12.0315 38.7476 13.624L41.1018 14.3834C41.6378 14.5563 42.216 14.5563 42.752 14.3834L45.1062 13.624C50.0426 12.0315 54.0166 17.6077 51.0669 21.592ZM33.0614 25.3982H50.7924C54.14 27.2518 56.7554 30.3466 57.9529 34.1788L61.1248 44.3287C64.1884 54.1324 56.8642 64.0947 46.5929 64.0947H37.2609C26.9896 64.0947 19.6654 54.1324 22.729 44.3287L25.9009 34.1788C27.0984 30.3466 29.7137 27.2518 33.0614 25.3982ZM43.1296 32.3763C43.1296 31.7124 42.5915 31.1743 41.9277 31.1743C41.2638 31.1743 40.7257 31.7124 40.7257 32.3763V35.0859C37.9316 35.5799 35.6507 37.7625 35.6507 40.6231C35.6507 43.8851 38.6168 46.2656 41.9277 46.2656C44.2224 46.2656 45.8006 47.8613 45.8006 49.5042C45.8006 51.1471 44.2224 52.7428 41.9277 52.7428C39.6329 52.7428 38.0547 51.1471 38.0547 49.5042C38.0547 48.8404 37.5165 48.3023 36.8527 48.3023C36.1889 48.3023 35.6507 48.8404 35.6507 49.5042C35.6507 52.3648 37.9316 54.5474 40.7257 55.0414V57.751C40.7257 58.4148 41.2638 58.953 41.9277 58.953C42.5915 58.953 43.1296 58.4148 43.1296 57.751V55.0414C45.9237 54.5474 48.2046 52.3648 48.2046 49.5042C48.2046 46.2422 45.2385 43.8617 41.9277 43.8617C39.6329 43.8617 38.0547 42.266 38.0547 40.6231C38.0547 38.9802 39.6329 37.3844 41.9277 37.3844C44.2224 37.3844 45.8006 38.9802 45.8006 40.6231C45.8006 41.2869 46.3388 41.825 47.0026 41.825C47.6664 41.825 48.2046 41.2869 48.2046 40.6231C48.2046 37.7625 45.9237 35.5799 43.1296 35.0859V32.3763Z" fill="url(#paint0_linear_4002_2467)"/>
<defs>
<filter id="filter0_b_4002_2467" x="-13.8409" y="-13.8409" width="115.414" height="115.414" filterUnits="userSpaceOnUse" color-interpolation-filters="sRGB">
<feFlood flood-opacity="0" result="BackgroundImageFix"/>
<feGaussianBlur in="BackgroundImageFix" stdDeviation="7.2134"/>
<feComposite in2="SourceAlpha" operator="in" result="effect1_backgroundBlur_4002_2467"/>
<feBlend mode="normal" in="SourceGraphic" in2="effect1_backgroundBlur_4002_2467" result="shape"/>
</filter>
<linearGradient id="paint0_linear_4002_2467" x1="21.1862" y1="17.3256" x2="65.2418" y2="19.9871" gradientUnits="userSpaceOnUse">
<stop stop-color="#9FE871"/>
<stop offset="1" stop-color="#6BD723"/>
</linearGradient>
</defs>
</svg>
