<svg width="153" height="35" viewBox="0 0 153 35" fill="none" xmlns="http://www.w3.org/2000/svg">
<path d="M53.1091 22.7457C57.4765 22.7457 60.3764 20.7193 60.3764 17.2254C60.3764 13.7189 57.4949 12.6215 54.7287 11.7963L54.4102 11.7021C51.9749 10.9878 49.72 10.4221 49.72 8.52557C49.72 7.0232 50.9429 6.07984 53.0742 6.07984C54.9259 6.07984 56.2536 6.8485 56.8476 8.49063L59.6776 7.37259C58.874 4.92686 56.4632 3.56424 53.1091 3.56424C49.0562 3.56424 46.4358 5.52082 46.4358 8.70027C46.4358 15.0242 57.0223 13.0327 57.0223 17.47C57.0223 19.182 55.5199 20.1603 53.2139 20.1603C50.6634 20.1603 48.9514 19.0422 48.3574 17.1555L45.5273 18.2736C46.5056 21.2084 49.3008 22.7457 53.1091 22.7457ZM80.3149 28.6155V3.94856H77.5548V7.37259C76.0873 4.99673 73.6416 3.56424 70.567 3.56424C65.3261 3.56424 61.5876 7.68704 61.5876 13.1725C61.5876 18.6579 65.4309 22.7457 70.6368 22.7457C73.5368 22.7457 75.8777 21.453 77.3451 19.3217V28.6155H80.3149ZM70.9862 20.1253C67.2827 20.1253 64.5225 17.1555 64.5225 13.1725C64.5225 9.15448 67.2827 6.18466 70.9862 6.18466C74.7946 6.18466 77.4499 9.0846 77.4499 13.1725C77.4499 17.2603 74.8295 20.1253 70.9862 20.1253ZM91.2043 22.7457C93.9295 22.7457 96.1307 21.453 97.3535 19.741V22.3614H100.184V3.94856H97.2138V15.5134C97.1788 17.8543 95.0825 20.0904 91.9729 20.0904C88.8284 20.1253 86.8369 18.0639 86.8369 14.9543V3.94856H83.8671V15.3037C83.8671 19.6711 86.4875 22.7457 91.2043 22.7457ZM111.876 22.7457C114.986 22.7457 117.397 21.2783 118.794 18.8326V22.3614H121.555V3.94856H118.794V7.51234C117.397 5.13649 114.986 3.73893 111.876 3.73893C106.671 3.73893 102.827 7.68704 102.827 13.1375C102.827 18.6579 106.636 22.7457 111.876 22.7457ZM112.226 20.1253C108.522 20.1253 105.762 17.1555 105.762 13.1375C105.762 9.18941 108.522 6.18466 112.226 6.18466C116.069 6.18466 118.69 9.04966 118.69 13.1375C118.69 17.2603 116.034 20.1253 112.226 20.1253ZM128.321 22.3614V11.2508C128.321 8.63039 130.662 6.35936 134.016 6.32442V3.56424C131.431 3.56424 129.334 4.92686 128.146 6.63887V3.94856H125.351V22.3614H128.321ZM143.263 22.7807C147.631 22.7807 150.181 20.894 151.544 18.2736L148.958 16.7013C148.05 18.8326 146.373 19.9856 143.368 19.9856C139.979 19.9856 137.289 17.6796 136.765 14.2556H152.068C152.103 13.9062 152.138 13.2773 152.138 12.7532C152.138 7.89667 148.609 3.5293 143.054 3.5293C137.848 3.5293 133.76 7.82679 133.76 13.1725C133.76 18.6579 137.603 22.7807 143.263 22.7807ZM149.098 11.6701H136.8C137.359 8.17618 140.049 6.11478 143.159 6.11478C146.233 6.11478 148.644 8.21112 149.098 11.6701Z" fill="#111827"/>
<path d="M88.2334 33.6069C88.329 33.6069 88.43 33.6007 88.5364 33.5885C88.6429 33.5762 88.7589 33.5578 88.8844 33.5332V33.2138H88.8107C88.4641 33.2138 88.2171 33.1722 88.0697 33.0889C87.9223 33.0057 87.8062 32.8494 87.7216 32.6201C87.6834 32.5246 87.6315 32.3315 87.566 32.0408C87.5005 31.7501 87.4214 31.5297 87.3286 31.3795C87.2467 31.243 87.1348 31.1291 86.9928 31.0376C86.8509 30.9462 86.6748 30.8718 86.4646 30.8145C86.915 30.7162 87.2535 30.5504 87.4801 30.317C87.7066 30.0836 87.8199 29.7854 87.8199 29.4224C87.8199 28.912 87.6548 28.5332 87.3245 28.2862C86.9942 28.0392 86.4865 27.9157 85.8013 27.9157H83.6641V28.2514L84.139 28.3005L84.2823 28.4193V33.0378L84.139 33.1565L83.6641 33.1974V33.5414H85.658V33.1974L85.179 33.1565L85.0357 33.0378V31.0438L85.0644 31.0397C85.2445 31.0315 85.3755 31.0274 85.4574 31.0274C85.8423 31.0274 86.1296 31.0929 86.3193 31.2239C86.509 31.355 86.6598 31.5911 86.7717 31.9323C86.8017 32.0223 86.8413 32.1588 86.8905 32.3417C87.0215 32.8494 87.1866 33.1906 87.3859 33.3653C87.4814 33.4472 87.5981 33.5079 87.736 33.5475C87.8738 33.5871 88.0396 33.6069 88.2334 33.6069ZM85.4984 30.6466C85.4274 30.6466 85.3537 30.6459 85.2773 30.6446C85.2008 30.6432 85.1203 30.6412 85.0357 30.6384V28.3005H85.441C85.9842 28.3005 86.3773 28.3947 86.6202 28.583C86.8632 28.7714 86.9846 29.0744 86.9846 29.492C86.9846 29.896 86.8666 30.1894 86.6305 30.3723C86.3944 30.5552 86.017 30.6466 85.4984 30.6466ZM90.4024 33.6151C90.6726 33.6151 90.9415 33.5728 91.209 33.4881C91.4765 33.4035 91.7344 33.2793 91.9828 33.1156V32.6529C91.7317 32.8194 91.499 32.9422 91.2847 33.0214C91.0704 33.1005 90.8637 33.1401 90.6644 33.1401C90.2331 33.1401 89.8906 32.9866 89.6367 32.6795C89.3829 32.3724 89.2559 31.9555 89.2559 31.4287V31.3345H91.9705C91.976 31.3017 91.9794 31.2676 91.9808 31.2321C91.9821 31.1966 91.9828 31.1448 91.9828 31.0765C91.9828 30.5661 91.847 30.1628 91.5754 29.8666C91.3038 29.5705 90.936 29.4224 90.472 29.4224C89.9042 29.4224 89.4395 29.621 89.0778 30.0181C88.7162 30.4153 88.5353 30.9278 88.5353 31.5556C88.5353 32.167 88.708 32.6631 89.0533 33.0439C89.3986 33.4247 89.8483 33.6151 90.4024 33.6151ZM91.2335 30.9824H89.2969C89.3214 30.6412 89.4354 30.3593 89.6388 30.1369C89.8421 29.9144 90.083 29.8032 90.3614 29.8032C90.6453 29.8032 90.8616 29.8933 91.0104 30.0734C91.1592 30.2536 91.2335 30.5129 91.2335 30.8513V30.9824ZM93.4885 33.5987C93.685 33.5987 93.8959 33.5543 94.1211 33.4656C94.3463 33.3769 94.594 33.2398 94.8642 33.0541L94.9747 33.5414H96.1539V33.2384L95.7117 33.1974L95.5684 33.0623V30.6302C95.5684 30.2072 95.4688 29.9001 95.2695 29.709C95.0703 29.5179 94.7509 29.4224 94.3114 29.4224C93.8119 29.4224 93.4045 29.5125 93.0893 29.6926C92.774 29.8728 92.6164 30.0993 92.6164 30.3723C92.6164 30.4706 92.6348 30.5381 92.6716 30.575C92.7085 30.6118 92.7774 30.6302 92.8784 30.6302H93.4557V29.926C93.5676 29.8823 93.6755 29.8496 93.7792 29.8277C93.8829 29.8059 93.988 29.795 94.0944 29.795C94.3783 29.795 94.5776 29.8632 94.6922 29.9997C94.8069 30.1362 94.8642 30.3805 94.8642 30.7326V30.9987C93.8188 31.2499 93.1493 31.4778 92.8559 31.6825C92.5625 31.8872 92.4157 32.1684 92.4157 32.526C92.4157 32.8481 92.5133 33.1074 92.7085 33.3039C92.9037 33.5004 93.1636 33.5987 93.4885 33.5987ZM93.8242 33.1483C93.6195 33.1483 93.4564 33.0862 93.3349 32.962C93.2135 32.8378 93.1527 32.6706 93.1527 32.4604C93.1527 32.1984 93.2626 31.9869 93.4823 31.8258C93.7021 31.6648 94.1627 31.4873 94.8642 31.2935V32.7716C94.6431 32.8972 94.4472 32.9914 94.2766 33.0541C94.106 33.1169 93.9552 33.1483 93.8242 33.1483ZM98.2328 33.5414V33.2384L97.7538 33.1974L97.6023 33.0623V27.3711H97.2829L96.2593 27.67V27.932H96.9062V33.0623L96.7629 33.1974L96.2675 33.2384V33.5414H98.2328ZM104.765 33.5414V32.1738H104.331L104.188 33.0214L104.069 33.1565H101.821V30.8063H103.197L103.316 30.9332L103.398 31.5392H103.795V29.6926H103.398L103.316 30.3027L103.197 30.4214H101.821V28.3005H103.762L103.877 28.4275L103.996 29.1399H104.466V27.9157H100.45V28.2514L100.925 28.3005L101.068 28.4193V33.0378L100.925 33.1565L100.45 33.1974V33.5414H104.765ZM106.164 33.6151C106.656 33.6151 107.04 33.5038 107.317 33.2814C107.594 33.0589 107.733 32.7512 107.733 32.3581C107.733 32.208 107.705 32.0708 107.651 31.9466C107.596 31.8224 107.517 31.7194 107.413 31.6375C107.271 31.5201 107.042 31.3891 106.725 31.2444C106.635 31.2035 106.568 31.1721 106.525 31.1502C106.246 31.0165 106.058 30.895 105.96 30.7858C105.862 30.6767 105.812 30.5443 105.812 30.3887C105.812 30.1976 105.874 30.0488 105.997 29.9424C106.119 29.8359 106.29 29.7827 106.508 29.7827C106.609 29.7827 106.71 29.7977 106.811 29.8277C106.912 29.8578 107.019 29.9028 107.131 29.9629L107.196 30.5565H107.61V29.6066C107.468 29.5466 107.316 29.5009 107.153 29.4695C106.991 29.4381 106.816 29.4224 106.627 29.4224C106.155 29.4224 105.789 29.5248 105.53 29.7295C105.271 29.9342 105.141 30.2235 105.141 30.5975C105.141 30.8432 105.217 31.0492 105.368 31.2157C105.52 31.3823 105.806 31.5597 106.226 31.748C106.597 31.9173 106.832 32.0572 106.93 32.1677C107.028 32.2782 107.078 32.4181 107.078 32.5874C107.078 32.7894 107.006 32.9525 106.863 33.0767C106.719 33.2009 106.529 33.263 106.291 33.263C106.171 33.263 106.052 33.2466 105.933 33.2138C105.814 33.1811 105.696 33.1306 105.579 33.0623L105.477 32.3499H105.075V33.439C105.231 33.4991 105.401 33.5434 105.585 33.5721C105.769 33.6007 105.963 33.6151 106.164 33.6151ZM109.406 33.5659C109.578 33.5659 109.757 33.5502 109.943 33.5189C110.128 33.4875 110.317 33.4417 110.508 33.3817V33.0705C110.404 33.0951 110.304 33.1128 110.207 33.1237C110.11 33.1347 110.016 33.1401 109.926 33.1401C109.664 33.1401 109.483 33.078 109.382 32.9538C109.281 32.8296 109.23 32.586 109.23 32.223V30.012H110.508V29.6189H109.23V28.7263H108.919L108.559 29.5084L108.006 29.7499V30.012H108.534V32.7184C108.534 33.0405 108.599 33.2623 108.729 33.3837C108.858 33.5052 109.084 33.5659 109.406 33.5659ZM111.743 33.5987C111.94 33.5987 112.15 33.5543 112.376 33.4656C112.601 33.3769 112.848 33.2398 113.119 33.0541L113.229 33.5414H114.408V33.2384L113.966 33.1974L113.823 33.0623V30.6302C113.823 30.2072 113.723 29.9001 113.524 29.709C113.325 29.5179 113.005 29.4224 112.566 29.4224C112.066 29.4224 111.659 29.5125 111.344 29.6926C111.029 29.8728 110.871 30.0993 110.871 30.3723C110.871 30.4706 110.889 30.5381 110.926 30.575C110.963 30.6118 111.032 30.6302 111.133 30.6302H111.71V29.926C111.822 29.8823 111.93 29.8496 112.034 29.8277C112.137 29.8059 112.243 29.795 112.349 29.795C112.633 29.795 112.832 29.8632 112.947 29.9997C113.061 30.1362 113.119 30.3805 113.119 30.7326V30.9987C112.073 31.2499 111.404 31.4778 111.11 31.6825C110.817 31.8872 110.67 32.1684 110.67 32.526C110.67 32.8481 110.768 33.1074 110.963 33.3039C111.158 33.5004 111.418 33.5987 111.743 33.5987ZM112.079 33.1483C111.874 33.1483 111.711 33.0862 111.589 32.962C111.468 32.8378 111.407 32.6706 111.407 32.4604C111.407 32.1984 111.517 31.9869 111.737 31.8258C111.957 31.6648 112.417 31.4873 113.119 31.2935V32.7716C112.898 32.8972 112.702 32.9914 112.531 33.0541C112.361 33.1169 112.21 33.1483 112.079 33.1483ZM115.898 33.5659C116.07 33.5659 116.248 33.5502 116.434 33.5189C116.62 33.4875 116.808 33.4417 116.999 33.3817V33.0705C116.895 33.0951 116.795 33.1128 116.698 33.1237C116.601 33.1347 116.508 33.1401 116.418 33.1401C116.156 33.1401 115.974 33.078 115.873 32.9538C115.772 32.8296 115.722 32.586 115.722 32.223V30.012H116.999V29.6189H115.722V28.7263H115.411L115.05 29.5084L114.497 29.7499V30.012H115.026V32.7184C115.026 33.0405 115.09 33.2623 115.22 33.3837C115.35 33.5052 115.576 33.5659 115.898 33.5659ZM118.988 33.6151C119.258 33.6151 119.527 33.5728 119.795 33.4881C120.062 33.4035 120.32 33.2793 120.568 33.1156V32.6529C120.317 32.8194 120.085 32.9422 119.87 33.0214C119.656 33.1005 119.449 33.1401 119.25 33.1401C118.819 33.1401 118.476 32.9866 118.222 32.6795C117.968 32.3724 117.841 31.9555 117.841 31.4287V31.3345H120.556C120.562 31.3017 120.565 31.2676 120.566 31.2321C120.568 31.1966 120.568 31.1448 120.568 31.0765C120.568 30.5661 120.433 30.1628 120.161 29.8666C119.889 29.5705 119.522 29.4224 119.058 29.4224C118.49 29.4224 118.025 29.621 117.663 30.0181C117.302 30.4153 117.121 30.9278 117.121 31.5556C117.121 32.167 117.294 32.6631 117.639 33.0439C117.984 33.4247 118.434 33.6151 118.988 33.6151ZM119.819 30.9824H117.882C117.907 30.6412 118.021 30.3593 118.224 30.1369C118.428 29.9144 118.669 29.8032 118.947 29.8032C119.231 29.8032 119.447 29.8933 119.596 30.0734C119.745 30.2536 119.819 30.5129 119.819 30.8513V30.9824ZM124.714 33.6437C125.369 33.6437 125.894 33.4888 126.29 33.179C126.686 32.8692 126.884 32.4618 126.884 31.9568C126.884 31.774 126.853 31.6047 126.792 31.4491C126.73 31.2935 126.638 31.1557 126.515 31.0356C126.3 30.8227 125.948 30.6207 125.459 30.4296C125.366 30.3941 125.297 30.3668 125.25 30.3477C124.753 30.1376 124.433 29.9581 124.29 29.8093C124.147 29.6606 124.075 29.4729 124.075 29.2463C124.075 28.9352 124.177 28.6888 124.382 28.5073C124.587 28.3258 124.864 28.235 125.213 28.235C125.361 28.235 125.497 28.2493 125.623 28.278C125.748 28.3067 125.864 28.351 125.971 28.4111L126.094 28.5503L126.221 29.3487H126.659V28.0508C126.413 27.9716 126.172 27.9122 125.936 27.8727C125.7 27.8331 125.464 27.8133 125.23 27.8133C124.646 27.8133 124.177 27.9614 123.823 28.2575C123.47 28.5537 123.293 28.942 123.293 29.4224C123.293 29.7636 123.386 30.0413 123.571 30.2556C123.757 30.4699 124.137 30.7012 124.71 30.9496C124.756 30.9687 124.823 30.9974 124.91 31.0356C125.713 31.3768 126.114 31.7617 126.114 32.1902C126.114 32.4987 126 32.7436 125.772 32.9252C125.544 33.1067 125.235 33.1974 124.845 33.1974C124.659 33.1974 124.487 33.1811 124.329 33.1483C124.171 33.1156 124.03 33.0678 123.907 33.005L123.797 32.8617L123.698 31.8995H123.203V33.3735C123.402 33.4609 123.631 33.5277 123.889 33.5741C124.147 33.6205 124.422 33.6437 124.714 33.6437ZM129.339 33.6151C129.907 33.6151 130.375 33.4192 130.742 33.0275C131.109 32.6358 131.292 32.1329 131.292 31.5187C131.292 30.9046 131.11 30.4016 130.744 30.0099C130.378 29.6182 129.91 29.4224 129.339 29.4224C128.766 29.4224 128.299 29.6176 127.937 30.0079C127.575 30.3982 127.395 30.9018 127.395 31.5187C127.395 32.1356 127.577 32.6392 127.941 33.0296C128.306 33.4199 128.772 33.6151 129.339 33.6151ZM129.339 33.2548C128.993 33.2548 128.713 33.0971 128.5 32.7819C128.287 32.4666 128.181 32.0455 128.181 31.5187C128.181 30.9919 128.286 30.5709 128.498 30.2556C128.71 29.9403 128.99 29.7827 129.339 29.7827C129.689 29.7827 129.971 29.941 130.185 30.2577C130.399 30.5743 130.506 30.9946 130.506 31.5187C130.506 32.0483 130.4 32.47 130.187 32.7839C129.974 33.0978 129.692 33.2548 129.339 33.2548ZM133.523 33.5414V33.2384L133.044 33.1974L132.892 33.0623V27.3711H132.573L131.549 27.67V27.932H132.196V33.0623L132.053 33.1974L131.558 33.2384V33.5414H133.523ZM135.348 33.6233C135.547 33.6233 135.758 33.5782 135.98 33.4881C136.203 33.3981 136.445 33.2589 136.707 33.0705V33.5414H137.948V33.2384L137.555 33.1974L137.403 33.0623V29.4224H137.084L136.109 29.7336V29.9956H136.707V32.8371C136.532 32.9218 136.365 32.9845 136.206 33.0255C136.046 33.0664 135.888 33.0869 135.733 33.0869C135.454 33.0869 135.25 33.0152 135.119 32.8719C134.988 32.7286 134.922 32.5041 134.922 32.1984V29.4224H134.603L133.628 29.7336V29.9956H134.226V32.3417C134.226 32.7566 134.322 33.0739 134.515 33.2937C134.707 33.5134 134.985 33.6233 135.348 33.6233ZM139.511 33.5659C139.683 33.5659 139.862 33.5502 140.047 33.5189C140.233 33.4875 140.421 33.4417 140.612 33.3817V33.0705C140.508 33.0951 140.408 33.1128 140.311 33.1237C140.214 33.1347 140.121 33.1401 140.031 33.1401C139.769 33.1401 139.587 33.078 139.486 32.9538C139.385 32.8296 139.335 32.586 139.335 32.223V30.012H140.612V29.6189H139.335V28.7263H139.024L138.663 29.5084L138.11 29.7499V30.012H138.639V32.7184C138.639 33.0405 138.703 33.2623 138.833 33.3837C138.963 33.5052 139.189 33.5659 139.511 33.5659ZM141.712 28.5708C141.849 28.5708 141.964 28.5244 142.058 28.4315C142.153 28.3387 142.2 28.2255 142.2 28.0917C142.2 27.958 142.153 27.8433 142.058 27.7478C141.964 27.6522 141.849 27.6045 141.712 27.6045C141.579 27.6045 141.465 27.6516 141.371 27.7457C141.276 27.8399 141.229 27.9552 141.229 28.0917C141.229 28.2255 141.276 28.3387 141.371 28.4315C141.465 28.5244 141.579 28.5708 141.712 28.5708ZM142.601 33.5414V33.2384L142.151 33.1974L142.007 33.0623V29.4674H141.68L140.718 29.7663V30.0284H141.303V33.0623L141.16 33.1974L140.718 33.2384V33.5414H142.601ZM144.745 33.6151C145.313 33.6151 145.781 33.4192 146.148 33.0275C146.515 32.6358 146.698 32.1329 146.698 31.5187C146.698 30.9046 146.515 30.4016 146.15 30.0099C145.784 29.6182 145.316 29.4224 144.745 29.4224C144.172 29.4224 143.705 29.6176 143.343 30.0079C142.981 30.3982 142.801 30.9018 142.801 31.5187C142.801 32.1356 142.983 32.6392 143.347 33.0296C143.712 33.4199 144.178 33.6151 144.745 33.6151ZM144.745 33.2548C144.399 33.2548 144.119 33.0971 143.906 32.7819C143.693 32.4666 143.587 32.0455 143.587 31.5187C143.587 30.9919 143.692 30.5709 143.904 30.2556C144.115 29.9403 144.396 29.7827 144.745 29.7827C145.095 29.7827 145.377 29.941 145.591 30.2577C145.805 30.5743 145.912 30.9946 145.912 31.5187C145.912 32.0483 145.806 32.47 145.593 32.7839C145.38 33.0978 145.097 33.2548 144.745 33.2548ZM148.818 33.5414V33.2384L148.417 33.1974L148.274 33.0623V30.2536C148.454 30.1608 148.622 30.0918 148.777 30.0468C148.933 30.0018 149.078 29.9792 149.211 29.9792C149.517 29.9792 149.735 30.0447 149.864 30.1758C149.994 30.3068 150.059 30.5293 150.059 30.8432V33.0623L149.915 33.1974L149.514 33.2384V33.5414H151.349V33.2384L150.898 33.1974L150.755 33.0623V30.6999C150.755 30.285 150.658 29.9683 150.464 29.7499C150.27 29.5316 149.991 29.4224 149.625 29.4224C149.469 29.4224 149.289 29.4599 149.084 29.535C148.88 29.6101 148.609 29.7404 148.274 29.926V29.4674H147.954L146.98 29.7663V30.0284H147.578V33.0623L147.434 33.1974L146.98 33.2384V33.5414H148.818Z" fill="#111827"/>
<path fill-rule="evenodd" clip-rule="evenodd" d="M0 0H34.939V34.939H0V0ZM26.0039 8.93476L8.93327 8.93293V26.0051L8.92761 26.0105L8.92778 26.0117H26.0117L26.0103 8.92869L26.0095 8.92854L26.0039 8.93476Z" fill="#111827"/>
</svg>
