<svg width="161" height="41" viewBox="0 0 161 41" fill="none" xmlns="http://www.w3.org/2000/svg">
<path fill-rule="evenodd" clip-rule="evenodd" d="M0 18.4461V25.8113L20.9634 8.48629V1.12109L0 18.4461Z" fill="#111827"/>
<path fill-rule="evenodd" clip-rule="evenodd" d="M0 32.8877V40.2527L20.9634 22.9277V15.5625L0 32.8877Z" fill="#111827"/>
<path fill-rule="evenodd" clip-rule="evenodd" d="M9.32031 18.4461V25.8113L30.2837 8.48629V1.12109L9.32031 18.4461Z" fill="#111827"/>
<path fill-rule="evenodd" clip-rule="evenodd" d="M9.32031 32.8877V40.2527L30.2837 22.9277V15.5625L9.32031 32.8877Z" fill="#111827"/>
<path d="M54.6909 26.2384C55.942 26.2384 57.2158 26.1189 58.5124 25.8801C59.8089 25.6413 61.1453 25.283 62.5215 24.8053V16.6506L63.0674 16.1729L65.0976 16.0023V14.2793H54.8956V16.0023L57.4888 16.1729L58.0347 16.6506V23.7817C57.6025 23.8158 57.2215 23.8414 56.8917 23.8585C56.5618 23.8755 56.3059 23.8841 56.124 23.8841C53.4057 23.8841 51.2818 23.0055 49.752 21.2483C48.2223 19.4911 47.4575 17.0544 47.4575 13.9381C47.4575 10.9014 48.2053 8.51581 49.7009 6.78137C51.1965 5.04693 53.2522 4.17971 55.8681 4.17971C56.3912 4.17971 56.8917 4.22521 57.3694 4.31619C57.847 4.40718 58.3133 4.54935 58.7683 4.7427L59.2971 5.37392L59.9625 9.07595H62.5215V3.13905C61.2249 2.75236 59.9596 2.46233 58.7256 2.26899C57.4916 2.07564 56.2946 1.97897 55.1345 1.97897C51.2903 1.97897 48.2053 3.06797 45.8794 5.24597C43.5536 7.42397 42.3906 10.3213 42.3906 13.9381C42.3906 17.5889 43.528 20.5517 45.8026 22.8264C48.0773 25.101 51.0401 26.2384 54.6909 26.2384ZM74.6978 26.0848C77.4274 26.0848 79.6168 25.2887 81.2659 23.6964C82.9151 22.1041 83.7397 20.0001 83.7397 17.3842C83.7397 14.6205 82.9492 12.4283 81.3683 10.8075C79.7874 9.18684 77.6549 8.37649 74.9708 8.37649C72.2412 8.37649 70.0518 9.19253 68.4027 10.8246C66.7535 12.4567 65.929 14.6205 65.929 17.316C65.929 19.9432 66.7336 22.0615 68.343 23.6708C69.9523 25.2802 72.0706 26.0848 74.6978 26.0848ZM74.8002 24.2423C73.5377 24.2423 72.5511 23.6225 71.8403 22.3828C71.1294 21.1431 70.774 19.4087 70.774 17.1795C70.774 14.9844 71.1323 13.2784 71.8488 12.0615C72.5653 10.8445 73.5605 10.236 74.8343 10.236C76.1195 10.236 77.1232 10.8559 77.8454 12.0956C78.5676 13.3353 78.9287 15.064 78.9287 17.2818C78.9287 19.511 78.5705 21.2284 77.8539 22.434C77.1374 23.6396 76.1195 24.2423 74.8002 24.2423ZM91.2927 25.8119C92.6689 25.8119 93.8432 25.7465 94.8156 25.6157C95.788 25.4849 96.5927 25.283 97.2296 25.01C99.0266 24.2025 100.394 23.0624 101.333 21.5895C102.271 20.1166 102.74 18.368 102.74 16.3435C102.74 14.012 102.097 12.107 100.812 10.6284C99.527 9.14988 97.8779 8.41061 95.8648 8.41061C95.1028 8.41061 94.3067 8.53856 93.4764 8.79446C92.6461 9.05036 91.7533 9.44558 90.798 9.98013V0H89.1261L83.9398 1.63777V3.00257H86.4647V25.7436L90.3373 25.8119H91.2927ZM91.9069 23.9523C91.6112 23.9523 91.3837 23.9495 91.2245 23.9438C91.0652 23.9381 90.9231 23.9296 90.798 23.9182V11.4132C91.2529 11.3222 91.6595 11.254 92.0178 11.2085C92.376 11.163 92.703 11.1402 92.9987 11.1402C94.6251 11.1402 95.8762 11.6662 96.7519 12.7183C97.6277 13.7703 98.0656 15.2801 98.0656 17.2477C98.0656 19.5451 97.568 21.2369 96.5728 22.3231C95.5776 23.4092 94.0223 23.9523 91.9069 23.9523ZM112.699 26.0848C115.428 26.0848 117.618 25.2887 119.267 23.6964C120.916 22.1041 121.74 20.0001 121.74 17.3842C121.74 14.6205 120.95 12.4283 119.369 10.8075C117.788 9.18684 115.656 8.37649 112.971 8.37649C110.242 8.37649 108.053 9.19253 106.403 10.8246C104.754 12.4567 103.93 14.6205 103.93 17.316C103.93 19.9432 104.734 22.0615 106.344 23.6708C107.953 25.2802 110.071 26.0848 112.699 26.0848ZM112.801 24.2423C111.538 24.2423 110.552 23.6225 109.841 22.3828C109.13 21.1431 108.775 19.4087 108.775 17.1795C108.775 14.9844 109.133 13.2784 109.85 12.0615C110.566 10.8445 111.561 10.236 112.835 10.236C114.12 10.236 115.124 10.8559 115.846 12.0956C116.568 13.3353 116.929 15.064 116.929 17.2818C116.929 19.511 116.571 21.2284 115.855 22.434C115.138 23.6396 114.12 24.2423 112.801 24.2423ZM131.341 25.8119V24.2423L129.805 24.1059L129.328 23.577V12.0444C130.01 11.8511 130.627 11.7032 131.179 11.6008C131.73 11.4985 132.216 11.4473 132.637 11.4473C133.729 11.4473 134.525 11.7515 135.026 12.36C135.526 12.9685 135.776 13.921 135.776 15.2176V23.577L135.299 24.1059L133.797 24.2423V25.8119H142.344V24.2423L140.502 24.1059L140.041 23.577V14.211C140.041 12.2548 139.649 10.799 138.864 9.84365C138.079 8.88829 136.891 8.41061 135.299 8.41061C134.582 8.41061 133.74 8.58121 132.774 8.92241C131.807 9.26361 130.658 9.80385 129.328 10.5431V8.47885H127.639L122.606 10.1166V11.5155H124.994V23.577L124.5 24.1059L122.708 24.2423V25.8119H131.341ZM147.577 26.1189C148.464 26.1189 149.391 25.937 150.358 25.573C151.325 25.2091 152.4 24.6233 153.582 23.8158L154.043 25.8119H160.27V24.2765L158.41 24.1059L157.95 23.6111V14.5693C157.95 12.2832 157.461 10.6796 156.483 9.75835C155.504 8.83711 153.816 8.37649 151.416 8.37649C149.278 8.37649 147.475 8.78024 146.008 9.58775C144.541 10.3953 143.807 11.3449 143.807 12.4368C143.807 12.8803 143.935 13.2045 144.191 13.4092C144.447 13.6139 144.853 13.7163 145.411 13.7163H148.635V10.4408C148.953 10.3725 149.249 10.3213 149.522 10.2872C149.795 10.2531 150.057 10.236 150.307 10.236C151.456 10.236 152.297 10.5261 152.832 11.1061C153.366 11.6861 153.634 12.6074 153.634 13.8698V14.9105C149.05 15.9455 146.133 16.9065 144.882 17.7936C143.631 18.6808 143.005 19.9432 143.005 21.581C143.005 22.9117 143.432 24.0007 144.285 24.848C145.138 25.6953 146.235 26.1189 147.577 26.1189ZM150.204 23.4405C149.408 23.4405 148.777 23.2045 148.311 22.7325C147.845 22.2605 147.611 21.6208 147.611 20.8133C147.611 19.7783 148.032 18.9594 148.874 18.3566C149.715 17.7538 151.285 17.1965 153.582 16.6847V22.3828C152.9 22.7354 152.277 22.9998 151.714 23.1761C151.151 23.3524 150.648 23.4405 150.204 23.4405Z" fill="#111827"/>
<path d="M46.5218 38.3901V37.9888L45.8578 37.941L45.7002 37.8025V35.6004L47.7351 32.3426L48.3322 32.2184V31.8267H46.3355V32.2184L46.9326 32.3235L47.0233 32.462L45.3801 35.075L43.8802 32.3856L43.9805 32.2757L44.5394 32.2184V31.8267H42.2656V32.2184L42.8627 32.314L44.8117 35.7294V37.8025L44.654 37.941L43.9901 37.9888V38.3901H46.5218ZM49.4965 38.4761C50.1588 38.4761 50.7042 38.2476 51.1325 37.7906C51.5608 37.3336 51.775 36.7468 51.775 36.0303C51.775 35.3138 51.5616 34.727 51.1349 34.2701C50.7082 33.8131 50.162 33.5846 49.4965 33.5846C48.8277 33.5846 48.2823 33.8123 47.8604 34.2677C47.4384 34.7231 47.2275 35.3106 47.2275 36.0303C47.2275 36.75 47.44 37.3376 47.8652 37.793C48.2903 38.2484 48.8341 38.4761 49.4965 38.4761ZM49.4965 38.0557C49.092 38.0557 48.7656 37.8718 48.5172 37.504C48.2688 37.1362 48.1446 36.6449 48.1446 36.0303C48.1446 35.4157 48.268 34.9245 48.5148 34.5567C48.7616 34.1889 49.0888 34.005 49.4965 34.005C49.9041 34.005 50.2329 34.1897 50.4829 34.5591C50.7329 34.9285 50.8578 35.4189 50.8578 36.0303C50.8578 36.6481 50.7336 37.1401 50.4853 37.5064C50.2369 37.8726 49.9073 38.0557 49.4965 38.0557ZM54.0714 38.4856C54.3038 38.4856 54.5498 38.4331 54.8094 38.328C55.0689 38.2229 55.3516 38.0605 55.6573 37.8407V38.3901H57.1046V38.0366L56.6461 37.9888L56.4693 37.8312V33.5846H56.0967L54.9599 33.9476V34.2533H55.6573V37.5685C55.4535 37.6672 55.2584 37.7404 55.0721 37.7882C54.8858 37.836 54.7019 37.8598 54.5204 37.8598C54.1956 37.8598 53.9567 37.7762 53.8039 37.6091C53.651 37.4419 53.5746 37.1799 53.5746 36.8233V33.5846H53.202L52.0651 33.9476V34.2533H52.7625V36.9905C52.7625 37.4745 52.8748 37.8447 53.0993 38.1011C53.3238 38.3574 53.6478 38.4856 54.0714 38.4856ZM59.702 38.3901V38.0366L59.0189 37.9888L58.8517 37.8312V35.0367C59.0587 34.7915 59.249 34.6108 59.4225 34.4946C59.5961 34.3783 59.7609 34.3202 59.9169 34.3202C60.0188 34.3202 60.112 34.3401 60.1964 34.3799C60.2807 34.4197 60.3548 34.4779 60.4185 34.5543H60.729V33.7136C60.6271 33.669 60.5283 33.6363 60.4328 33.6156C60.3373 33.5949 60.2401 33.5846 60.1414 33.5846C60.0745 33.5846 60.0244 33.5862 59.991 33.5894C59.9575 33.5926 59.9265 33.5989 59.8978 33.6085C59.7067 33.7613 59.5244 33.9166 59.3509 34.0742C59.1773 34.2318 59.0109 34.3919 58.8517 34.5543V33.6371H58.4791L57.3422 33.9858V34.2916H58.0301V37.8312L57.8629 37.9888L57.3422 38.0366V38.3901H59.702ZM67.0509 38.3901V37.9888L66.3917 37.941L66.2293 37.8025V32.2757H67.7245L67.863 32.4238L67.9967 33.3314H68.5365V31.8267H63.0097V33.3314H63.5447L63.6833 32.4238L63.8218 32.2757H65.3169V37.8025L65.1498 37.941L64.4953 37.9888V38.3901H67.0509ZM70.3074 38.3901V38.0366L69.6244 37.9888L69.4572 37.8312V35.0367C69.6642 34.7915 69.8544 34.6108 70.028 34.4946C70.2016 34.3783 70.3664 34.3202 70.5224 34.3202C70.6243 34.3202 70.7175 34.3401 70.8018 34.3799C70.8862 34.4197 70.9603 34.4779 71.024 34.5543H71.3345V33.7136C71.2326 33.669 71.1338 33.6363 71.0383 33.6156C70.9428 33.5949 70.8456 33.5846 70.7469 33.5846C70.68 33.5846 70.6299 33.5862 70.5964 33.5894C70.563 33.5926 70.532 33.5989 70.5033 33.6085C70.3122 33.7613 70.1299 33.9166 69.9564 34.0742C69.7828 34.2318 69.6164 34.3919 69.4572 34.5543V33.6371H69.0846L67.9477 33.9858V34.2916H68.6356V37.8312L68.4684 37.9888L67.9477 38.0366V38.3901H70.3074ZM73.3251 38.4856C73.5576 38.4856 73.8036 38.4331 74.0631 38.328C74.3227 38.2229 74.6053 38.0605 74.911 37.8407V38.3901H76.3584V38.0366L75.8998 37.9888L75.7231 37.8312V33.5846H75.3505L74.2136 33.9476V34.2533H74.911V37.5685C74.7072 37.6672 74.5122 37.7404 74.3259 37.7882C74.1396 37.836 73.9557 37.8598 73.7741 37.8598C73.4493 37.8598 73.2105 37.7762 73.0576 37.6091C72.9048 37.4419 72.8283 37.1799 72.8283 36.8233V33.5846H72.4557L71.3189 33.9476V34.2533H72.0163V36.9905C72.0163 37.4745 72.1285 37.8447 72.353 38.1011C72.5775 38.3574 72.9016 38.4856 73.3251 38.4856ZM77.986 38.4761C78.5592 38.4761 79.0075 38.3463 79.3307 38.0867C79.6539 37.8272 79.8155 37.4681 79.8155 37.0096C79.8155 36.8344 79.7837 36.6744 79.72 36.5295C79.6563 36.3846 79.564 36.2644 79.4429 36.1688C79.2773 36.0319 79.0098 35.8791 78.6404 35.7103C78.5353 35.6625 78.4573 35.6259 78.4064 35.6004C78.0816 35.4444 77.8618 35.3027 77.7472 35.1753C77.6325 35.0479 77.5752 34.8934 77.5752 34.7119C77.5752 34.489 77.6469 34.3154 77.7902 34.1912C77.9335 34.067 78.1325 34.005 78.3873 34.005C78.5051 34.005 78.6229 34.0225 78.7407 34.0575C78.8586 34.0925 78.9828 34.1451 79.1133 34.2151L79.1898 34.9078H79.6722V33.7995C79.5066 33.7295 79.3291 33.6761 79.1396 33.6395C78.9501 33.6029 78.7455 33.5846 78.5258 33.5846C77.9749 33.5846 77.5481 33.704 77.2456 33.9429C76.9431 34.1817 76.7918 34.5193 76.7918 34.9555C76.7918 35.2421 76.8802 35.4826 77.0569 35.6768C77.2337 35.8711 77.5672 36.0781 78.0577 36.2978C78.4908 36.4953 78.7646 36.6585 78.8793 36.7874C78.9939 36.9164 79.0512 37.0796 79.0512 37.2771C79.0512 37.5127 78.9677 37.703 78.8005 37.8479C78.6333 37.9928 78.4112 38.0652 78.1341 38.0652C77.994 38.0652 77.8547 38.0461 77.7161 38.0079C77.5776 37.9697 77.4399 37.9108 77.3029 37.8312L77.1835 37H76.7154V38.2706C76.8969 38.3407 77.0951 38.3925 77.3101 38.4259C77.5251 38.4593 77.7504 38.4761 77.986 38.4761ZM81.768 38.4187C81.9686 38.4187 82.1772 38.4004 82.3937 38.3638C82.6103 38.3272 82.83 38.2738 83.0529 38.2038V37.8407C82.9319 37.8694 82.8149 37.8901 82.7018 37.9028C82.5888 37.9156 82.4797 37.9219 82.3746 37.9219C82.0689 37.9219 81.8571 37.8495 81.7393 37.7046C81.6215 37.5597 81.5626 37.2755 81.5626 36.8519V34.2725H83.0529V33.8139H81.5626V32.7725H81.1995L80.7792 33.6849L80.1343 33.9667V34.2725H80.7505V37.4299C80.7505 37.8057 80.8261 38.0644 80.9774 38.2062C81.1287 38.3479 81.3922 38.4187 81.768 38.4187ZM85.3732 38.4761C85.6885 38.4761 86.0022 38.4267 86.3142 38.328C86.6263 38.2292 86.9273 38.0844 87.2171 37.8933V37.3535C86.9241 37.5478 86.6526 37.6911 86.4026 37.7834C86.1526 37.8758 85.9114 37.9219 85.6789 37.9219C85.1758 37.9219 84.7761 37.7428 84.4799 37.3845C84.1838 37.0263 84.0357 36.5398 84.0357 35.9252V35.8154H87.2027C87.2091 35.7771 87.2131 35.7373 87.2147 35.6959C87.2163 35.6545 87.2171 35.594 87.2171 35.5144C87.2171 34.9189 87.0586 34.4484 86.7418 34.1029C86.4249 33.7574 85.9958 33.5846 85.4544 33.5846C84.792 33.5846 84.2499 33.8163 83.8279 34.2796C83.406 34.743 83.195 35.3409 83.195 36.0733C83.195 36.7867 83.3964 37.3654 83.7992 37.8097C84.2021 38.2539 84.7267 38.4761 85.3732 38.4761ZM86.3429 35.4046H84.0835C84.1121 35.0065 84.2451 34.6777 84.4823 34.4181C84.7196 34.1586 85.0006 34.0288 85.3254 34.0288C85.6566 34.0288 85.909 34.1339 86.0826 34.3441C86.2561 34.5543 86.3429 34.8568 86.3429 35.2517V35.4046ZM89.5516 38.4761C89.816 38.4761 90.0691 38.4283 90.3112 38.3327C90.5532 38.2372 90.8016 38.0875 91.0563 37.8837V38.3901H92.5037V38.0366L92.0356 37.9888L91.8684 37.8312V31.1914H91.5006L90.3064 31.5401V31.8458H91.0563V33.6849C90.9003 33.6499 90.749 33.6228 90.6025 33.6037C90.4561 33.5846 90.3175 33.575 90.187 33.575C89.4386 33.575 88.8311 33.8163 88.3646 34.2987C87.8981 34.7812 87.6648 35.4109 87.6648 36.188C87.6648 36.8567 87.8423 37.4052 88.1974 37.8336C88.5525 38.2619 89.0039 38.4761 89.5516 38.4761ZM89.9911 37.8598C89.5453 37.8598 89.1894 37.6942 88.9235 37.3631C88.6576 37.0319 88.5246 36.5844 88.5246 36.0208C88.5246 35.4157 88.6783 34.9285 88.9856 34.5591C89.2929 34.1897 89.6965 34.005 90.1965 34.005C90.308 34.005 90.4346 34.0185 90.5763 34.0456C90.718 34.0726 90.878 34.1116 91.0563 34.1626V37.5207C90.8716 37.6353 90.6909 37.7205 90.5142 37.7762C90.3374 37.832 90.1631 37.8598 89.9911 37.8598ZM98.6824 38.5095C99.0072 38.5095 99.3368 38.48 99.6712 38.4211C100.006 38.3622 100.334 38.277 100.655 38.1656V36.6179H100.13L99.8909 37.707L99.738 37.8598C99.5947 37.9044 99.4522 37.9371 99.3105 37.9578C99.1688 37.9785 99.0279 37.9888 98.8878 37.9888C98.0884 37.9888 97.4627 37.7269 97.0105 37.203C96.5583 36.6792 96.3322 35.9571 96.3322 35.0367C96.3322 34.1705 96.5487 33.4859 96.9818 32.9827C97.4149 32.4796 98.0009 32.228 98.7397 32.228C98.9244 32.228 99.1059 32.2487 99.2842 32.2901C99.4626 32.3315 99.6457 32.3952 99.8336 32.4811L99.9626 32.6579L100.111 33.5464H100.655V32.0417C100.305 31.9302 99.9681 31.8466 99.6449 31.7909C99.3217 31.7352 99.0136 31.7073 98.7206 31.7073C97.7015 31.7073 96.8807 32.0186 96.2581 32.6412C95.6356 33.2637 95.3243 34.0846 95.3243 35.1036C95.3243 35.7405 95.4747 36.3273 95.7757 36.8639C96.0766 37.4005 96.4898 37.8184 97.0153 38.1178C97.2445 38.2452 97.4993 38.3423 97.7795 38.4092C98.0598 38.4761 98.3607 38.5095 98.6824 38.5095ZM103.018 38.4856C103.251 38.4856 103.497 38.4331 103.756 38.328C104.016 38.2229 104.299 38.0605 104.604 37.8407V38.3901H106.052V38.0366L105.593 37.9888L105.416 37.8312V33.5846H105.044L103.907 33.9476V34.2533H104.604V37.5685C104.401 37.6672 104.205 37.7404 104.019 37.7882C103.833 37.836 103.649 37.8598 103.467 37.8598C103.143 37.8598 102.904 37.7762 102.751 37.6091C102.598 37.4419 102.522 37.1799 102.522 36.8233V33.5846H102.149L101.012 33.9476V34.2533H101.71V36.9905C101.71 37.4745 101.822 37.8447 102.046 38.1011C102.271 38.3574 102.595 38.4856 103.018 38.4856ZM108.649 38.3901V38.0366L107.966 37.9888L107.799 37.8312V35.0367C108.006 34.7915 108.196 34.6108 108.37 34.4946C108.543 34.3783 108.708 34.3202 108.864 34.3202C108.966 34.3202 109.059 34.3401 109.143 34.3799C109.228 34.4197 109.302 34.4779 109.366 34.5543H109.676V33.7136C109.574 33.669 109.475 33.6363 109.38 33.6156C109.284 33.5949 109.187 33.5846 109.089 33.5846C109.022 33.5846 108.971 33.5862 108.938 33.5894C108.905 33.5926 108.874 33.5989 108.845 33.6085C108.654 33.7613 108.471 33.9166 108.298 34.0742C108.124 34.2318 107.958 34.3919 107.799 34.5543V33.6371H107.426L106.289 33.9858V34.2916H106.977V37.8312L106.81 37.9888L106.289 38.0366V38.3901H108.649ZM112.058 38.3901V38.0366L111.375 37.9888L111.208 37.8312V35.0367C111.415 34.7915 111.605 34.6108 111.779 34.4946C111.953 34.3783 112.117 34.3202 112.273 34.3202C112.375 34.3202 112.468 34.3401 112.553 34.3799C112.637 34.4197 112.711 34.4779 112.775 34.5543H113.085V33.7136C112.984 33.669 112.885 33.6363 112.789 33.6156C112.694 33.5949 112.597 33.5846 112.498 33.5846C112.431 33.5846 112.381 33.5862 112.347 33.5894C112.314 33.5926 112.283 33.5989 112.254 33.6085C112.063 33.7613 111.881 33.9166 111.707 34.0742C111.534 34.2318 111.367 34.3919 111.208 34.5543V33.6371H110.836L109.699 33.9858V34.2916H110.387V37.8312L110.219 37.9888L109.699 38.0366V38.3901H112.058ZM114.321 32.591C114.481 32.591 114.615 32.5369 114.725 32.4286C114.835 32.3203 114.89 32.1882 114.89 32.0321C114.89 31.8761 114.835 31.7423 114.725 31.6309C114.615 31.5194 114.481 31.4637 114.321 31.4637C114.165 31.4637 114.032 31.5186 113.922 31.6285C113.813 31.7384 113.758 31.8729 113.758 32.0321C113.758 32.1882 113.813 32.3203 113.922 32.4286C114.032 32.5369 114.165 32.591 114.321 32.591ZM115.358 38.3901V38.0366L114.832 37.9888L114.665 37.8312V33.6371H114.283L113.161 33.9858V34.2916H113.844V37.8312L113.676 37.9888L113.161 38.0366V38.3901H115.358ZM117.769 38.4761C118.084 38.4761 118.398 38.4267 118.71 38.328C119.022 38.2292 119.323 38.0844 119.613 37.8933V37.3535C119.32 37.5478 119.048 37.6911 118.798 37.7834C118.548 37.8758 118.307 37.9219 118.075 37.9219C117.571 37.9219 117.172 37.7428 116.876 37.3845C116.579 37.0263 116.431 36.5398 116.431 35.9252V35.8154H119.598C119.605 35.7771 119.609 35.7373 119.61 35.6959C119.612 35.6545 119.613 35.594 119.613 35.5144C119.613 34.9189 119.454 34.4484 119.137 34.1029C118.821 33.7574 118.392 33.5846 117.85 33.5846C117.188 33.5846 116.646 33.8163 116.224 34.2796C115.802 34.743 115.591 35.3409 115.591 36.0733C115.591 36.7867 115.792 37.3654 116.195 37.8097C116.598 38.2539 117.122 38.4761 117.769 38.4761ZM118.739 35.4046H116.479C116.508 35.0065 116.641 34.6777 116.878 34.4181C117.115 34.1586 117.396 34.0288 117.721 34.0288C118.052 34.0288 118.305 34.1339 118.478 34.3441C118.652 34.5543 118.739 34.8568 118.739 35.2517V35.4046ZM122.358 38.3901V38.0366L121.675 37.9888L121.508 37.8312V35.0367C121.715 34.7915 121.905 34.6108 122.079 34.4946C122.252 34.3783 122.417 34.3202 122.573 34.3202C122.675 34.3202 122.768 34.3401 122.853 34.3799C122.937 34.4197 123.011 34.4779 123.075 34.5543H123.385V33.7136C123.283 33.669 123.185 33.6363 123.089 33.6156C122.993 33.5949 122.896 33.5846 122.798 33.5846C122.731 33.5846 122.681 33.5862 122.647 33.5894C122.614 33.5926 122.583 33.5989 122.554 33.6085C122.363 33.7613 122.181 33.9166 122.007 34.0742C121.834 34.2318 121.667 34.3919 121.508 34.5543V33.6371H121.135L119.998 33.9858V34.2916H120.686V37.8312L120.519 37.9888L119.998 38.0366V38.3901H122.358Z" fill="#111827"/>
</svg>
