<svg width="147" height="37" viewBox="0 0 147 37" fill="none" xmlns="http://www.w3.org/2000/svg">
<path d="M47.8051 22.4943V10.3205C47.8051 9.60778 47.7481 8.14901 47.6341 5.94423L49.1594 11.2899L52.7802 22.4943H55.7737L59.3945 11.2899C59.4483 11.122 59.5071 10.9326 59.5707 10.7217L59.6494 10.4582C59.96 9.4088 60.374 7.90414 60.8913 5.94423C60.8057 8.03497 60.7606 9.21814 60.7559 9.49374C60.7511 9.76933 60.7487 10.0449 60.7487 10.3205V22.4943H64.4836V2.40897H58.8813L55.1893 14.1979L54.2912 17.4195L53.6069 14.7253L53.2933 13.642L49.7011 2.40897H44.0703V22.4943H47.8051ZM72.0135 22.7794C74.2753 22.7794 75.9669 21.7673 77.0883 19.7431H77.1738C77.2688 20.703 77.5563 21.43 78.0362 21.9241C78.5162 22.4183 79.2598 22.6654 80.2671 22.6654C80.5522 22.6654 80.8017 22.6559 81.0155 22.6369C81.2294 22.6179 81.4313 22.5941 81.6214 22.5656C81.8114 22.5371 82.0015 22.4991 82.1916 22.4516C82.3816 22.4041 82.5955 22.3518 82.8331 22.2948V20.128C82.548 20.185 82.2534 20.2135 81.9492 20.2135C81.4931 20.2135 81.1676 20.0496 80.9728 19.7217C80.778 19.3939 80.6805 18.7975 80.6805 17.9327V12.3162C80.6805 10.5486 80.1531 9.18488 79.0982 8.22504C78.0434 7.2652 76.5418 6.78527 74.5936 6.78527C72.6645 6.78527 71.1415 7.17254 70.0249 7.94706C68.9082 8.72159 68.2216 9.85962 67.965 11.3611L72.1418 11.5607C72.2273 10.7814 72.4435 10.2231 72.7904 9.88575C73.1372 9.54838 73.6813 9.37969 74.4226 9.37969C75.2209 9.37969 75.7958 9.62441 76.1474 10.1138C76.4991 10.6033 76.6749 11.3516 76.6749 12.359V13.143L73.3534 13.2001C71.3767 13.2191 69.8681 13.6467 68.8275 14.483C67.7868 15.3193 67.2665 16.5357 67.2665 18.1323C67.2665 19.6053 67.6847 20.7481 68.521 21.5606C69.3573 22.3732 70.5214 22.7794 72.0135 22.7794ZM73.2964 19.9855C72.7357 19.9855 72.2867 19.8073 71.9493 19.4509C71.612 19.0945 71.4433 18.5504 71.4433 17.8187C71.4433 17.2485 71.5454 16.7923 71.7498 16.4502C71.9541 16.1081 72.2511 15.8539 72.6407 15.6876C73.0303 15.5212 73.6908 15.4191 74.6221 15.3811L76.6749 15.3526V16.1366C76.6749 16.8113 76.5276 17.4504 76.233 18.0539C75.9384 18.6574 75.5321 19.1302 75.0142 19.4723C74.4962 19.8144 73.9236 19.9855 73.2964 19.9855ZM88.6666 22.4943V14.9249C88.6666 13.3378 88.9446 12.1404 89.5005 11.3326C90.0565 10.5249 90.8334 10.121 91.8312 10.121C92.3254 10.121 92.8956 10.1922 93.5419 10.3348V6.98485C93.2282 6.8423 92.8148 6.77102 92.3017 6.77102C91.6744 6.77102 91.1518 6.87793 90.7336 7.09176C90.3155 7.30558 89.9543 7.63345 89.6502 8.07536C89.3461 8.51726 88.9992 9.27991 88.6096 10.3633H88.5526C88.5526 10.0782 88.5288 9.50086 88.4813 8.6313C88.4338 7.76175 88.3958 7.24144 88.3673 7.07038H84.5469C84.5754 7.50753 84.6016 8.00883 84.6253 8.57428C84.6491 9.13974 84.661 9.84536 84.661 10.6912V22.4943H88.6666ZM99.9456 22.7509C101.21 22.7509 102.336 22.5894 103.324 22.2663V19.7859C102.744 19.9189 102.298 19.9855 101.984 19.9855C101.385 19.9855 100.943 19.8073 100.658 19.4509C100.373 19.0945 100.231 18.5409 100.231 17.7902V9.77884H103.153V7.07038H100.231V3.44959H97.7218L96.4674 7.07038H94.3149V9.77884H96.2678V18.8736C96.2678 20.1755 96.5862 21.1472 97.2229 21.7887C97.8596 22.4302 98.7672 22.7509 99.9456 22.7509ZM109.699 4.29064V1.33984H105.694V4.29064H109.699ZM109.699 22.4943V7.07038H105.694V22.4943H109.699ZM117.785 22.4943V14.2264C117.785 12.9245 118.082 11.8577 118.676 11.0262C119.27 10.1946 120.052 9.77884 121.021 9.77884C122.855 9.77884 123.772 11.1331 123.772 13.8415V22.4943H127.764V12.7011C127.764 10.7624 127.327 9.28941 126.452 8.28206C125.578 7.2747 124.324 6.77102 122.689 6.77102C121.558 6.77102 120.584 7.03711 119.767 7.5693C118.949 8.10149 118.27 8.9568 117.728 10.1352H117.671C117.671 9.84061 117.647 9.30129 117.6 8.51726C117.552 7.73324 117.514 7.25094 117.486 7.07038H113.665C113.694 7.48852 113.72 7.96132 113.744 8.48875C113.768 9.01619 113.78 9.69331 113.78 10.5201V22.4943H117.785ZM138.401 22.7794C140.853 22.7794 142.773 22.0691 144.16 20.6483C145.548 19.2276 146.242 17.2675 146.242 14.7681C146.242 12.1927 145.579 10.2184 144.253 8.84513C142.927 7.47189 141.005 6.78527 138.487 6.78527C136.025 6.78527 134.11 7.49565 132.742 8.91641C131.374 10.3372 130.689 12.2877 130.689 14.7681C130.689 17.258 131.374 19.2157 132.742 20.6412C134.11 22.0667 135.997 22.7794 138.401 22.7794ZM138.358 20.0425C137.237 20.0425 136.379 19.5934 135.785 18.6954C135.191 17.7973 134.895 16.4882 134.895 14.7681C134.895 11.2804 136.111 9.5365 138.544 9.5365C139.684 9.5365 140.554 9.9499 141.152 10.7767C141.751 11.6035 142.051 12.934 142.051 14.7681C142.051 18.2844 140.82 20.0425 138.358 20.0425Z" fill="#111827"/>
<path opacity="0.595853" d="M83.7771 35.0723C84.0813 35.0723 84.3629 35.0237 84.6222 34.9265C84.8814 34.8293 85.0995 34.6997 85.2765 34.5376C85.4535 34.3756 85.6005 34.2111 85.7177 34.0441C85.8349 33.8771 85.9308 33.7038 86.0056 33.5243L85.1232 33.2477C85.0135 33.5219 84.8378 33.7537 84.596 33.9431C84.3542 34.1326 84.0763 34.2273 83.7622 34.2273C83.2786 34.2273 82.8922 34.0254 82.6031 33.6216C82.3139 33.2177 82.1694 32.6694 82.1694 31.9764C82.1694 31.2934 82.3127 30.7487 82.5993 30.3424C82.886 29.9361 83.2736 29.733 83.7622 29.733C84.2757 29.733 84.692 30.0196 85.011 30.5929L85.856 30.3163C85.6816 29.9124 85.4161 29.5734 85.0596 29.2992C84.7032 29.025 84.2757 28.8879 83.7771 28.8879C83.0044 28.8879 82.3738 29.1659 81.8852 29.7218C81.3966 30.2776 81.1523 31.0292 81.1523 31.9764C81.1523 32.9386 81.4004 33.6951 81.8964 34.246C82.3925 34.7969 83.0194 35.0723 83.7771 35.0723ZM88.436 35.0723C88.7351 35.0723 89.0031 35.0225 89.2399 34.9227C89.4767 34.823 89.6674 34.6947 89.8119 34.5376C89.9565 34.3806 90.0762 34.1986 90.1709 33.9917C90.2656 33.7848 90.3317 33.5817 90.3691 33.3823C90.4064 33.1829 90.4251 32.9834 90.4251 32.784C90.4251 32.1409 90.2556 31.5975 89.9166 31.1538C89.5776 30.7101 89.0841 30.4883 88.436 30.4883C87.7829 30.4883 87.2868 30.7101 86.9478 31.1538C86.6088 31.5975 86.4393 32.1409 86.4393 32.784C86.4393 32.9934 86.458 33.1991 86.4954 33.401C86.5328 33.6029 86.6001 33.8073 86.6973 34.0142C86.7945 34.2211 86.9167 34.4005 87.0638 34.5526C87.2108 34.7046 87.4028 34.8293 87.6396 34.9265C87.8764 35.0237 88.1418 35.0723 88.436 35.0723ZM88.436 34.2647C88.1618 34.2647 87.9225 34.1425 87.7181 33.8983C87.5137 33.654 87.4115 33.2826 87.4115 32.784C87.4115 32.2755 87.5149 31.9004 87.7218 31.6586C87.9287 31.4168 88.1668 31.2959 88.436 31.2959C88.7052 31.2959 88.942 31.4168 89.1464 31.6586C89.3508 31.9004 89.453 32.2755 89.453 32.784C89.453 33.2826 89.3508 33.654 89.1464 33.8983C88.942 34.1425 88.7052 34.2647 88.436 34.2647ZM92.2274 34.9377V28.8281H91.2851V34.9377H92.2274ZM95.084 35.0723C95.3831 35.0723 95.6511 35.0225 95.8879 34.9227C96.1247 34.823 96.3154 34.6947 96.4599 34.5376C96.6045 34.3806 96.7242 34.1986 96.8189 33.9917C96.9136 33.7848 96.9797 33.5817 97.0171 33.3823C97.0544 33.1829 97.0731 32.9834 97.0731 32.784C97.0731 32.1409 96.9036 31.5975 96.5646 31.1538C96.2256 30.7101 95.7321 30.4883 95.084 30.4883C94.4309 30.4883 93.9348 30.7101 93.5958 31.1538C93.2568 31.5975 93.0873 32.1409 93.0873 32.784C93.0873 32.9934 93.106 33.1991 93.1434 33.401C93.1808 33.6029 93.2481 33.8073 93.3453 34.0142C93.4425 34.2211 93.5647 34.4005 93.7118 34.5526C93.8588 34.7046 94.0508 34.8293 94.2876 34.9265C94.5244 35.0237 94.7898 35.0723 95.084 35.0723ZM95.084 34.2647C94.8098 34.2647 94.5705 34.1425 94.3661 33.8983C94.1617 33.654 94.0595 33.2826 94.0595 32.784C94.0595 32.2755 94.1629 31.9004 94.3698 31.6586C94.5767 31.4168 94.8148 31.2959 95.084 31.2959C95.3532 31.2959 95.59 31.4168 95.7944 31.6586C95.9988 31.9004 96.101 32.2755 96.101 32.784C96.101 33.2826 95.9988 33.654 95.7944 33.8983C95.59 34.1425 95.3532 34.2647 95.084 34.2647ZM98.8006 34.9377V32.7392C98.8006 32.3204 98.8866 31.9851 99.0586 31.7334C99.2306 31.4816 99.4786 31.3557 99.8026 31.3557C99.9871 31.3557 100.174 31.3856 100.363 31.4454V30.5855C100.219 30.5207 100.032 30.4883 99.8026 30.4883C99.5583 30.4883 99.3477 30.5481 99.1707 30.6677C98.9938 30.7874 98.8579 30.927 98.7632 31.0865V30.6229H97.8509V34.9377H98.8006ZM102.405 35.0723C102.948 35.0723 103.368 34.9489 103.665 34.7021C103.962 34.4554 104.11 34.155 104.11 33.801C104.11 33.2277 103.666 32.799 102.779 32.5148C102.754 32.5048 102.714 32.4924 102.659 32.4774C102.45 32.4076 102.288 32.3503 102.173 32.3054C102.059 32.2606 101.948 32.1895 101.84 32.0923C101.733 31.9951 101.68 31.8842 101.68 31.7595C101.68 31.61 101.741 31.4891 101.863 31.3968C101.985 31.3046 102.161 31.2585 102.39 31.2585C102.809 31.2585 103.165 31.4604 103.459 31.8642L104.088 31.4828C103.933 31.1937 103.699 30.9556 103.385 30.7687C103.071 30.5817 102.737 30.4883 102.383 30.4883C101.909 30.4883 101.513 30.6029 101.194 30.8322C100.874 31.0616 100.715 31.3657 100.715 31.7446C100.715 31.939 100.75 32.1097 100.82 32.2568C100.889 32.4039 100.992 32.526 101.126 32.6232C101.261 32.7205 101.389 32.7977 101.511 32.8551C101.634 32.9124 101.784 32.971 101.964 33.0308C101.984 33.0358 102.016 33.0458 102.061 33.0607C102.31 33.1405 102.497 33.204 102.622 33.2514C102.746 33.2988 102.865 33.3698 102.977 33.4645C103.089 33.5592 103.145 33.6689 103.145 33.7936C103.145 33.9481 103.077 34.0715 102.94 34.1637C102.803 34.256 102.617 34.3021 102.383 34.3021C101.904 34.3021 101.515 34.0827 101.216 33.644L100.535 34.0403C100.71 34.3594 100.96 34.6112 101.287 34.7956C101.614 34.9801 101.986 35.0723 102.405 35.0723ZM108.47 35.0723C108.769 35.0723 109.037 35.0225 109.274 34.9227C109.51 34.823 109.701 34.6947 109.846 34.5376C109.99 34.3806 110.11 34.1986 110.205 33.9917C110.299 33.7848 110.365 33.5817 110.403 33.3823C110.44 33.1829 110.459 32.9834 110.459 32.784C110.459 32.1409 110.289 31.5975 109.95 31.1538C109.611 30.7101 109.118 30.4883 108.47 30.4883C107.817 30.4883 107.321 30.7101 106.982 31.1538C106.643 31.5975 106.473 32.1409 106.473 32.784C106.473 32.9934 106.492 33.1991 106.529 33.401C106.567 33.6029 106.634 33.8073 106.731 34.0142C106.828 34.2211 106.95 34.4005 107.097 34.5526C107.245 34.7046 107.436 34.8293 107.673 34.9265C107.91 35.0237 108.176 35.0723 108.47 35.0723ZM108.47 34.2647C108.196 34.2647 107.956 34.1425 107.752 33.8983C107.547 33.654 107.445 33.2826 107.445 32.784C107.445 32.2755 107.549 31.9004 107.756 31.6586C107.962 31.4168 108.2 31.2959 108.47 31.2959C108.739 31.2959 108.976 31.4168 109.18 31.6586C109.385 31.9004 109.487 32.2755 109.487 32.784C109.487 33.2826 109.385 33.654 109.18 33.8983C108.976 34.1425 108.739 34.2647 108.47 34.2647ZM112.515 34.9377V31.4305H113.413V30.6229H112.515V30.2265C112.515 30.0171 112.551 29.8651 112.624 29.7704C112.696 29.6756 112.809 29.6283 112.964 29.6283H113.51V28.8281H112.829C112.426 28.8281 112.113 28.939 111.891 29.1609C111.669 29.3827 111.558 29.7155 111.558 30.1592V30.6229H110.9V31.4305H111.558V34.9377H112.515ZM116.172 36.7025C116.546 36.7025 116.859 36.6128 117.111 36.4333C117.362 36.2538 117.568 35.9447 117.728 35.506L119.515 30.6229H118.483L117.802 32.8438C117.643 33.4172 117.551 33.7487 117.526 33.8384H117.496C117.431 33.5842 117.336 33.2526 117.212 32.8438L116.471 30.6229H115.432L117.047 34.833L116.905 35.2593C116.82 35.4986 116.707 35.6668 116.565 35.764C116.423 35.8612 116.239 35.9099 116.015 35.9099H115.88V36.7025H116.172ZM121.833 35.0723C122.132 35.0723 122.4 35.0225 122.637 34.9227C122.874 34.823 123.064 34.6947 123.209 34.5376C123.354 34.3806 123.473 34.1986 123.568 33.9917C123.663 33.7848 123.729 33.5817 123.766 33.3823C123.803 33.1829 123.822 32.9834 123.822 32.784C123.822 32.1409 123.653 31.5975 123.314 31.1538C122.975 30.7101 122.481 30.4883 121.833 30.4883C121.18 30.4883 120.684 30.7101 120.345 31.1538C120.006 31.5975 119.836 32.1409 119.836 32.784C119.836 32.9934 119.855 33.1991 119.892 33.401C119.93 33.6029 119.997 33.8073 120.094 34.0142C120.192 34.2211 120.314 34.4005 120.461 34.5526C120.608 34.7046 120.8 34.8293 121.037 34.9265C121.273 35.0237 121.539 35.0723 121.833 35.0723ZM121.833 34.2647C121.559 34.2647 121.32 34.1425 121.115 33.8983C120.911 33.654 120.809 33.2826 120.809 32.784C120.809 32.2755 120.912 31.9004 121.119 31.6586C121.326 31.4168 121.564 31.2959 121.833 31.2959C122.102 31.2959 122.339 31.4168 122.543 31.6586C122.748 31.9004 122.85 32.2755 122.85 32.784C122.85 33.2826 122.748 33.654 122.543 33.8983C122.339 34.1425 122.102 34.2647 121.833 34.2647ZM125.998 35.0723C126.292 35.0723 126.538 35.005 126.735 34.8704C126.932 34.7358 127.065 34.5912 127.135 34.4367H127.142V34.9377H128.055V30.6229H127.113V33.0383C127.113 33.3723 127.033 33.6602 126.873 33.902C126.714 34.1438 126.492 34.2647 126.208 34.2647C125.734 34.2647 125.497 33.9282 125.497 33.2551V30.6229H124.548V33.3748C124.548 33.6988 124.592 33.978 124.682 34.2123C124.772 34.4466 124.892 34.6224 125.041 34.7395C125.191 34.8567 125.344 34.9414 125.501 34.9938C125.658 35.0461 125.824 35.0723 125.998 35.0723ZM130.036 34.9377V32.7392C130.036 32.3204 130.122 31.9851 130.294 31.7334C130.466 31.4816 130.714 31.3557 131.038 31.3557C131.223 31.3557 131.41 31.3856 131.599 31.4454V30.5855C131.455 30.5207 131.268 30.4883 131.038 30.4883C130.794 30.4883 130.584 30.5481 130.407 30.6677C130.23 30.7874 130.094 30.927 129.999 31.0865V30.6229H129.087V34.9377H130.036ZM134.987 34.9377V28.8281H134.045V34.9377H134.987ZM137.163 29.9797V28.9403H136.146V29.9797H137.163ZM137.126 34.9377V30.6229H136.191V34.9377H137.126ZM139.526 34.9377V31.4305H140.423V30.6229H139.526V30.2265C139.526 30.0171 139.562 29.8651 139.635 29.7704C139.707 29.6756 139.82 29.6283 139.975 29.6283H140.521V28.8281H139.84C139.436 28.8281 139.124 28.939 138.902 29.1609C138.68 29.3827 138.569 29.7155 138.569 30.1592V30.6229H137.911V31.4305H138.569V34.9377H139.526ZM142.839 35.0723C143.308 35.0723 143.699 34.9651 144.013 34.7508C144.327 34.5364 144.554 34.2697 144.693 33.9506L143.901 33.6814C143.806 33.8658 143.668 34.0167 143.486 34.1338C143.304 34.251 143.093 34.3095 142.854 34.3095C142.51 34.3095 142.239 34.1911 142.042 33.9543C141.846 33.7175 141.747 33.4346 141.747 33.1056H144.738C144.753 32.9809 144.761 32.8538 144.761 32.7242C144.761 32.0611 144.576 31.5227 144.207 31.1089C143.838 30.6951 143.37 30.4883 142.801 30.4883C142.223 30.4883 141.743 30.6939 141.362 31.1052C140.981 31.5165 140.79 32.0686 140.79 32.7616C140.79 33.4645 140.981 34.0254 141.362 34.4442C141.743 34.8629 142.236 35.0723 142.839 35.0723ZM143.796 32.44H141.762C141.767 32.121 141.863 31.843 142.05 31.6062C142.237 31.3694 142.487 31.251 142.801 31.251C143.116 31.251 143.36 31.3669 143.534 31.5987C143.709 31.8306 143.796 32.111 143.796 32.44Z" fill="#111827"/>
<path d="M8.61473 4.82908L8.61473 34.6115C8.61459 34.8965 8.4678 35.1602 8.22881 35.3048C7.98981 35.4494 7.69425 35.4532 7.45174 35.315L0.403326 31.2904C0.154545 31.1485 0.000146286 30.8792 0 30.5868L0 0.804428C0.000142561 0.519405 0.146929 0.255711 0.385922 0.111141C0.624915 -0.0334282 0.920474 -0.0373154 1.16299 0.100922L8.2114 4.12557C8.46018 4.26738 8.61458 4.53669 8.61473 4.82908Z" fill="#111827"/>
<path d="M20.0991 4.83006L20.0991 34.6125C20.099 34.8975 19.9522 35.1612 19.7132 35.3058C19.4742 35.4503 19.1786 35.4542 18.9361 35.316L11.8877 31.2913C11.6389 31.1495 11.4845 30.8802 11.4844 30.5878L11.4844 0.805405C11.4845 0.520382 11.6313 0.256687 11.8703 0.112118C12.1093 -0.0324516 12.4048 -0.0363388 12.6474 0.101898L19.6958 4.12655C19.9446 4.26836 20.099 4.53767 20.0991 4.83006Z" fill="#111827"/>
<path d="M31.5835 4.83006L31.5835 34.6125C31.5833 34.8975 31.4366 35.1612 31.1976 35.3058C30.9586 35.4503 30.663 35.4542 30.4205 35.316L23.3721 31.2913C23.1233 31.1495 22.9689 30.8802 22.9688 30.5878L22.9688 0.805405C22.9689 0.520382 23.1157 0.256687 23.3547 0.112118C23.5937 -0.0324516 23.8892 -0.0363388 24.1317 0.101898L31.1802 4.12655C31.4289 4.26836 31.5833 4.53767 31.5835 4.83006Z" fill="#111827"/>
</svg>
