<svg width="127" height="39" viewBox="0 0 127 39" fill="none" xmlns="http://www.w3.org/2000/svg">
<path d="M43.9159 24.2245V15.3042H45.9774C47.5246 15.3042 48.8428 14.751 49.9319 13.6446C51.021 12.5382 51.5656 11.207 51.5656 9.65115V6.21525C51.5656 4.59887 51.0859 3.26773 50.1264 2.22183C49.0978 1.12407 47.7148 0.575195 45.9774 0.575195H40.3633V24.2245H43.9159ZM46.0682 11.7775H43.9159V4.21854H46.0682C46.6905 4.21854 47.1854 4.40654 47.5527 4.78255C47.9201 5.15855 48.1038 5.65773 48.1038 6.28008V9.72894C48.1038 10.2908 47.9071 10.7727 47.5138 11.1746C47.1205 11.5765 46.6387 11.7775 46.0682 11.7775ZM57.2289 24.2245L58.0975 18.7919H61.8187L62.6615 24.2245H66.3956L62.441 0.575195H57.5271L53.5207 24.2245H57.2289ZM61.2871 15.3171H58.6421L59.9646 5.99483L61.2871 15.3171ZM74.3537 24.2245V15.3042H76.4153C77.9625 15.3042 79.2807 14.751 80.3698 13.6446C81.4589 12.5382 82.0035 11.207 82.0035 9.65115V6.21525C82.0035 4.59887 81.5237 3.26773 80.5643 2.22183C79.5357 1.12407 78.1527 0.575195 76.4153 0.575195H70.8011V24.2245H74.3537ZM76.506 11.7775H74.3537V4.21854H76.506C77.1284 4.21854 77.6232 4.40654 77.9906 4.78255C78.358 5.15855 78.5416 5.65773 78.5416 6.28008V9.72894C78.5416 10.2908 78.345 10.7727 77.9517 11.1746C77.5584 11.5765 77.0765 11.7775 76.506 11.7775ZM96.3926 24.2245V20.659H89.806V14.1891H94.6163V10.6106H89.806V4.14075H96.3926V0.575195H86.2535V24.2245H96.3926ZM103.806 24.2245V15.3042H105.855C105.967 15.3042 106.075 15.2998 106.179 15.2912L108.357 24.2245H112.208L109.563 13.8909C110.834 12.7413 111.469 11.328 111.469 9.65115V6.21525C111.469 4.51243 111.058 3.18129 110.237 2.22183C109.312 1.12407 107.856 0.575195 105.868 0.575195H100.254V24.2245H103.806ZM105.959 11.7775H103.806V4.21854H105.959C107.316 4.21854 107.994 4.90572 107.994 6.28008V9.72894C107.994 10.2908 107.797 10.7727 107.404 11.1746C107.011 11.5765 106.529 11.7775 105.959 11.7775ZM126.856 24.2245V20.6849H120.296L126.856 4.14075V0.575195H116.458V4.14075H123.032L116.458 20.6849V24.2245H126.856Z" fill="#111827"/>
<path d="M42.9962 36.3368V35.8169H40.4219V30.618H39.793V36.3368H42.9962ZM45.3692 36.471C45.7829 36.471 46.1407 36.3885 46.4426 36.2236C46.7444 36.0587 46.9876 35.8309 47.1721 35.5402L46.7193 35.2383C46.5851 35.4619 46.4076 35.6366 46.1868 35.7624C45.966 35.8882 45.6879 35.9511 45.3525 35.9511C44.9388 35.9511 44.6118 35.8085 44.3714 35.5234C44.131 35.2383 43.9996 34.8945 43.9773 34.492H47.2056C47.2112 34.4361 47.214 34.3551 47.214 34.2488C47.214 33.8799 47.133 33.5459 46.9708 33.2468C46.8087 32.9477 46.5851 32.7115 46.3 32.5382C46.0149 32.3649 45.6963 32.2783 45.3441 32.2783C44.9695 32.2783 44.6355 32.3677 44.342 32.5466C44.0485 32.7255 43.8193 32.9743 43.6544 33.2929C43.4895 33.6116 43.4071 33.9721 43.4071 34.3746C43.4071 34.7771 43.4909 35.1377 43.6586 35.4563C43.8263 35.775 44.0583 36.0237 44.3546 36.2026C44.6509 36.3815 44.9891 36.471 45.3692 36.471ZM46.6438 34.0224H44.0108C44.0723 33.6702 44.219 33.3782 44.451 33.1462C44.683 32.9142 44.9807 32.7982 45.3441 32.7982C45.7186 32.7982 46.0149 32.9002 46.2329 33.1042C46.4509 33.3083 46.5879 33.6143 46.6438 34.0224ZM49.7632 36.471C50.0427 36.471 50.2998 36.4081 50.5346 36.2823C50.7694 36.1565 50.9679 35.9818 51.13 35.7582V36.3368H51.7002V32.4124H51.13V32.9994C50.9679 32.7702 50.768 32.5927 50.5304 32.467C50.2928 32.3412 50.0315 32.2783 49.7464 32.2783C49.3718 32.2783 49.0378 32.3677 48.7443 32.5466C48.4509 32.7255 48.2217 32.9729 48.0567 33.2887C47.8918 33.6046 47.8094 33.9637 47.8094 34.3662C47.8094 34.7743 47.8932 35.1377 48.0609 35.4563C48.2286 35.775 48.4606 36.0237 48.7569 36.2026C49.0532 36.3815 49.3886 36.471 49.7632 36.471ZM49.7464 35.9511C49.4837 35.9511 49.2489 35.884 49.042 35.7498C48.8352 35.6157 48.6731 35.4284 48.5557 35.188C48.4383 34.9476 48.3796 34.6737 48.3796 34.3662C48.3796 34.0644 48.4383 33.7946 48.5557 33.557C48.6731 33.3195 48.8352 33.1336 49.042 32.9994C49.2489 32.8653 49.4837 32.7982 49.7464 32.7982C50.0147 32.7982 50.2537 32.8653 50.4633 32.9994C50.673 33.1336 50.8365 33.3209 50.9539 33.5612C51.0713 33.8016 51.13 34.0727 51.13 34.3746C51.13 34.6765 51.0713 34.9476 50.9539 35.188C50.8365 35.4284 50.673 35.6157 50.4633 35.7498C50.2537 35.884 50.0147 35.9511 49.7464 35.9511ZM54.4673 36.471C54.7469 36.471 55.004 36.4081 55.2388 36.2823C55.4736 36.1565 55.672 35.9818 55.8342 35.7582V36.3368H56.4044V30.249H55.8342V32.9994C55.672 32.7702 55.4722 32.5927 55.2346 32.467C54.997 32.3412 54.7357 32.2783 54.4506 32.2783C54.076 32.2783 53.742 32.3677 53.4485 32.5466C53.155 32.7255 52.9258 32.9729 52.7609 33.2887C52.596 33.6046 52.5136 33.9637 52.5136 34.3662C52.5136 34.7743 52.5974 35.1377 52.7651 35.4563C52.9328 35.775 53.1648 36.0237 53.4611 36.2026C53.7574 36.3815 54.0928 36.471 54.4673 36.471ZM54.4506 35.9511C54.1878 35.9511 53.953 35.884 53.7462 35.7498C53.5394 35.6157 53.3773 35.4284 53.2599 35.188C53.1425 34.9476 53.0838 34.6737 53.0838 34.3662C53.0838 34.0644 53.1425 33.7946 53.2599 33.557C53.3773 33.3195 53.5394 33.1336 53.7462 32.9994C53.953 32.8653 54.1878 32.7982 54.4506 32.7982C54.7189 32.7982 54.9579 32.8653 55.1675 32.9994C55.3772 33.1336 55.5407 33.3209 55.6581 33.5612C55.7755 33.8016 55.8342 34.0727 55.8342 34.3746C55.8342 34.6765 55.7755 34.9476 55.6581 35.188C55.5407 35.4284 55.3772 35.6157 55.1675 35.7498C54.9579 35.884 54.7189 35.9511 54.4506 35.9511ZM58.0563 31.6494C58.1793 31.6494 58.2855 31.6047 58.3749 31.5152C58.4644 31.4258 58.5091 31.3196 58.5091 31.1966C58.5091 31.068 58.4644 30.9604 58.3749 30.8737C58.2855 30.7871 58.1793 30.7438 58.0563 30.7438C57.9277 30.7438 57.8201 30.7871 57.7334 30.8737C57.6468 30.9604 57.6035 31.0652 57.6035 31.1882C57.6035 31.3168 57.6468 31.4258 57.7334 31.5152C57.8201 31.6047 57.9277 31.6494 58.0563 31.6494ZM58.3414 36.3368V32.4124H57.7712V36.3368H58.3414ZM60.2784 36.3368V34.3746C60.2784 33.8939 60.379 33.5109 60.5803 33.2258C60.7815 32.9407 61.0834 32.7982 61.4859 32.7982C62.1791 32.7982 62.5257 33.1867 62.5257 33.9637V36.3368H63.0959V33.7122C63.0959 33.4159 63.0274 33.1587 62.8904 32.9407C62.7535 32.7227 62.569 32.5578 62.337 32.446C62.105 32.3342 61.8521 32.2783 61.5781 32.2783C61.2874 32.2783 61.0317 32.3468 60.8109 32.4837C60.5901 32.6207 60.4126 32.8149 60.2784 33.0665V32.4124H59.7082V36.3368H60.2784ZM66.1314 38.0139C66.4668 38.0139 66.7659 37.9356 67.0286 37.7791C67.2914 37.6226 67.4954 37.4059 67.6407 37.1292C67.7861 36.8525 67.8588 36.538 67.8588 36.1859V32.4124H67.2886V32.9994C67.1264 32.7702 66.9266 32.5927 66.689 32.467C66.4514 32.3412 66.1901 32.2783 65.905 32.2783C65.5304 32.2783 65.1964 32.3677 64.9029 32.5466C64.6094 32.7255 64.3802 32.9729 64.2153 33.2887C64.0504 33.6046 63.968 33.9637 63.968 34.3662C63.968 34.7743 64.0518 35.1377 64.2195 35.4563C64.3872 35.775 64.6192 36.0237 64.9155 36.2026C65.2118 36.3815 65.5472 36.471 65.9217 36.471C66.2013 36.471 66.4584 36.4081 66.6932 36.2823C66.928 36.1565 67.1264 35.9818 67.2886 35.7582V36.1859C67.2886 36.566 67.181 36.879 66.9657 37.125C66.7505 37.371 66.4724 37.494 66.1314 37.494H64.5046V38.0139H66.1314ZM65.905 35.9511C65.6422 35.9511 65.4074 35.884 65.2006 35.7498C64.9938 35.6157 64.8317 35.4284 64.7143 35.188C64.5969 34.9476 64.5382 34.6737 64.5382 34.3662C64.5382 34.0644 64.5969 33.7946 64.7143 33.557C64.8317 33.3195 64.9938 33.1336 65.2006 32.9994C65.4074 32.8653 65.6422 32.7982 65.905 32.7982C66.1733 32.7982 66.4123 32.8653 66.6219 32.9994C66.8316 33.1336 66.9951 33.3209 67.1125 33.5612C67.2299 33.8016 67.2886 34.0727 67.2886 34.3746C67.2886 34.6765 67.2299 34.9476 67.1125 35.188C66.9951 35.4284 66.8316 35.6157 66.6219 35.7498C66.4123 35.884 66.1733 35.9511 65.905 35.9511ZM71.5567 36.3368V34.1482H72.7726C73.3037 34.1482 73.7299 33.9917 74.0514 33.6786C74.3728 33.3656 74.5335 32.9351 74.5335 32.3873C74.5335 31.8339 74.3798 31.4006 74.0723 31.0876C73.7649 30.7745 73.354 30.618 72.8397 30.618H70.9278V36.3368H71.5567ZM72.7558 33.6283H71.5567V31.1379H72.7558C73.1304 31.1379 73.4155 31.2441 73.6111 31.4565C73.8068 31.6689 73.9046 31.9792 73.9046 32.3873C73.9046 32.7954 73.8068 33.1042 73.6111 33.3139C73.4155 33.5235 73.1304 33.6283 72.7558 33.6283ZM76.982 36.471C77.2615 36.471 77.5187 36.4081 77.7535 36.2823C77.9883 36.1565 78.1867 35.9818 78.3489 35.7582V36.3368H78.9191V32.4124H78.3489V32.9994C78.1867 32.7702 77.9869 32.5927 77.7493 32.467C77.5117 32.3412 77.2504 32.2783 76.9653 32.2783C76.5907 32.2783 76.2567 32.3677 75.9632 32.5466C75.6697 32.7255 75.4405 32.9729 75.2756 33.2887C75.1107 33.6046 75.0282 33.9637 75.0282 34.3662C75.0282 34.7743 75.1121 35.1377 75.2798 35.4563C75.4475 35.775 75.6795 36.0237 75.9758 36.2026C76.2721 36.3815 76.6075 36.471 76.982 36.471ZM76.9653 35.9511C76.7025 35.9511 76.4677 35.884 76.2609 35.7498C76.0541 35.6157 75.8919 35.4284 75.7745 35.188C75.6572 34.9476 75.5985 34.6737 75.5985 34.3662C75.5985 34.0644 75.6572 33.7946 75.7745 33.557C75.8919 33.3195 76.0541 33.1336 76.2609 32.9994C76.4677 32.8653 76.7025 32.7982 76.9653 32.7982C77.2336 32.7982 77.4726 32.8653 77.6822 32.9994C77.8918 33.1336 78.0554 33.3209 78.1728 33.5612C78.2902 33.8016 78.3489 34.0727 78.3489 34.3746C78.3489 34.6765 78.2902 34.9476 78.1728 35.188C78.0554 35.4284 77.8918 35.6157 77.6822 35.7498C77.4726 35.884 77.2336 35.9511 76.9653 35.9511ZM80.5542 38.0139V35.7498C80.7163 35.979 80.9162 36.1565 81.1538 36.2823C81.3913 36.4081 81.6527 36.471 81.9378 36.471C82.3123 36.471 82.6463 36.3815 82.9398 36.2026C83.2333 36.0237 83.4625 35.7764 83.6274 35.4605C83.7923 35.1447 83.8748 34.7855 83.8748 34.383C83.8748 33.9749 83.7909 33.6116 83.6232 33.2929C83.4555 32.9743 83.2235 32.7255 82.9273 32.5466C82.631 32.3677 82.2956 32.2783 81.921 32.2783C81.6415 32.2783 81.3843 32.3412 81.1496 32.467C80.9148 32.5927 80.7163 32.7674 80.5542 32.991V32.4124H79.984V38.0139H80.5542ZM81.9378 35.9511C81.6695 35.9511 81.4305 35.884 81.2208 35.7498C81.0112 35.6157 80.8477 35.4284 80.7303 35.188C80.6129 34.9476 80.5542 34.6765 80.5542 34.3746C80.5542 34.0727 80.6129 33.8016 80.7303 33.5612C80.8477 33.3209 81.0112 33.1336 81.2208 32.9994C81.4305 32.8653 81.6695 32.7982 81.9378 32.7982C82.2005 32.7982 82.4353 32.8653 82.6422 32.9994C82.849 33.1336 83.0111 33.3209 83.1285 33.5612C83.2459 33.8016 83.3046 34.0755 83.3046 34.383C83.3046 34.6849 83.2459 34.9546 83.1285 35.1922C83.0111 35.4298 82.849 35.6157 82.6422 35.7498C82.4353 35.884 82.2005 35.9511 81.9378 35.9511ZM86.3988 36.471C86.8125 36.471 87.1702 36.3885 87.4721 36.2236C87.774 36.0587 88.0172 35.8309 88.2016 35.5402L87.7488 35.2383C87.6147 35.4619 87.4372 35.6366 87.2164 35.7624C86.9955 35.8882 86.7174 35.9511 86.382 35.9511C85.9683 35.9511 85.6413 35.8085 85.4009 35.5234C85.1606 35.2383 85.0292 34.8945 85.0068 34.492H88.2352C88.2408 34.4361 88.2436 34.3551 88.2436 34.2488C88.2436 33.8799 88.1625 33.5459 88.0004 33.2468C87.8383 32.9477 87.6147 32.7115 87.3296 32.5382C87.0445 32.3649 86.7258 32.2783 86.3736 32.2783C85.9991 32.2783 85.6651 32.3677 85.3716 32.5466C85.0781 32.7255 84.8489 32.9743 84.684 33.2929C84.5191 33.6116 84.4366 33.9721 84.4366 34.3746C84.4366 34.7771 84.5205 35.1377 84.6882 35.4563C84.8559 35.775 85.0879 36.0237 85.3842 36.2026C85.6804 36.3815 86.0187 36.471 86.3988 36.471ZM87.6734 34.0224H85.0404C85.1019 33.6702 85.2486 33.3782 85.4806 33.1462C85.7126 32.9142 86.0103 32.7982 86.3736 32.7982C86.7482 32.7982 87.0445 32.9002 87.2625 33.1042C87.4805 33.3083 87.6175 33.6143 87.6734 34.0224ZM89.6523 36.3368V34.4585C89.6523 34.1119 89.7152 33.8114 89.841 33.557C89.9668 33.3027 90.1331 33.1084 90.3399 32.9743C90.5467 32.8401 90.7704 32.773 91.0107 32.773C91.1505 32.773 91.2791 32.801 91.3965 32.8569V32.337C91.2735 32.2978 91.1449 32.2783 91.0107 32.2783C90.72 32.2783 90.4587 32.3593 90.2267 32.5215C89.9947 32.6836 89.8032 32.91 89.6523 33.2007V32.4124H89.0821V36.3368H89.6523ZM96.0587 36.471C96.5171 36.471 96.9126 36.3564 97.2453 36.1272C97.5779 35.898 97.8448 35.5653 98.0461 35.1293L97.5178 34.8107C97.3277 35.1852 97.1223 35.4605 96.9015 35.6366C96.6806 35.8127 96.3718 35.9008 95.9749 35.9008C95.6562 35.9008 95.3767 35.8043 95.1363 35.6115C94.896 35.4186 94.7115 35.1405 94.5829 34.7771C94.4543 34.4138 94.39 33.9833 94.39 33.4858C94.39 32.7255 94.5312 32.1315 94.8135 31.7039C95.0958 31.2762 95.4857 31.0624 95.9833 31.0624C96.3299 31.0624 96.6233 31.1337 96.8637 31.2762C97.1041 31.4188 97.3137 31.655 97.4926 31.9848L97.9957 31.6913C97.8057 31.3112 97.5415 31.0163 97.2033 30.8066C96.8651 30.597 96.4584 30.4922 95.9833 30.4922C95.5193 30.4922 95.1182 30.611 94.78 30.8486C94.4418 31.0862 94.1818 31.43 94.0001 31.88C93.8184 32.33 93.7276 32.8681 93.7276 33.4942C93.7276 34.1147 93.8212 34.6471 94.0085 35.0916C94.1958 35.536 94.4641 35.877 94.8135 36.1146C95.1629 36.3522 95.578 36.471 96.0587 36.471ZM100.578 36.471C100.953 36.471 101.287 36.3815 101.58 36.2026C101.874 36.0237 102.103 35.775 102.268 35.4563C102.433 35.1377 102.515 34.7771 102.515 34.3746C102.515 33.9721 102.432 33.6116 102.264 33.2929C102.096 32.9743 101.864 32.7255 101.568 32.5466C101.272 32.3677 100.936 32.2783 100.562 32.2783C100.187 32.2783 99.8531 32.3677 99.5596 32.5466C99.2661 32.7255 99.0369 32.9729 98.872 33.2887C98.7071 33.6046 98.6247 33.9637 98.6247 34.3662C98.6247 34.7687 98.7085 35.1307 98.8762 35.4521C99.0439 35.7736 99.2759 36.0237 99.5722 36.2026C99.8685 36.3815 100.204 36.471 100.578 36.471ZM100.562 35.9511C100.299 35.9511 100.064 35.884 99.8573 35.7498C99.6505 35.6157 99.4883 35.4284 99.3709 35.188C99.2535 34.9476 99.1949 34.6737 99.1949 34.3662C99.1949 34.0644 99.2535 33.7946 99.3709 33.557C99.4883 33.3195 99.6505 33.1336 99.8573 32.9994C100.064 32.8653 100.299 32.7982 100.562 32.7982C100.83 32.7982 101.069 32.8653 101.279 32.9994C101.488 33.1336 101.652 33.3209 101.769 33.5612C101.887 33.8016 101.945 34.0727 101.945 34.3746C101.945 34.6765 101.887 34.9476 101.769 35.188C101.652 35.4284 101.488 35.6157 101.279 35.7498C101.069 35.884 100.83 35.9511 100.562 35.9511ZM103.891 36.3368V34.3746C103.891 33.8939 103.976 33.5109 104.146 33.2258C104.317 32.9407 104.573 32.7982 104.914 32.7982C105.165 32.7982 105.369 32.889 105.526 33.0707C105.682 33.2524 105.761 33.5501 105.761 33.9637V36.3368H106.331V34.1231C106.359 33.715 106.458 33.3921 106.628 33.1546C106.799 32.917 107.038 32.7982 107.345 32.7982C107.597 32.7982 107.801 32.889 107.958 33.0707C108.114 33.2524 108.192 33.5501 108.192 33.9637V36.3368H108.763V33.7122C108.763 33.265 108.642 32.9142 108.402 32.6598C108.162 32.4055 107.86 32.2783 107.496 32.2783C107.217 32.2783 106.971 32.3565 106.758 32.5131C106.546 32.6696 106.378 32.8876 106.255 33.1671C106.171 32.882 106.023 32.6626 105.811 32.5089C105.598 32.3551 105.35 32.2783 105.065 32.2783C104.807 32.2783 104.58 32.3426 104.381 32.4711C104.183 32.5997 104.019 32.7842 103.891 33.0246V32.4124H103.32V36.3368H103.891ZM110.356 38.0139V35.7498C110.518 35.979 110.718 36.1565 110.955 36.2823C111.193 36.4081 111.454 36.471 111.739 36.471C112.114 36.471 112.448 36.3815 112.741 36.2026C113.035 36.0237 113.264 35.7764 113.429 35.4605C113.594 35.1447 113.676 34.7855 113.676 34.383C113.676 33.9749 113.593 33.6116 113.425 33.2929C113.257 32.9743 113.025 32.7255 112.729 32.5466C112.433 32.3677 112.097 32.2783 111.723 32.2783C111.443 32.2783 111.186 32.3412 110.951 32.467C110.716 32.5927 110.518 32.7674 110.356 32.991V32.4124H109.786V38.0139H110.356ZM111.739 35.9511C111.471 35.9511 111.232 35.884 111.022 35.7498C110.813 35.6157 110.649 35.4284 110.532 35.188C110.414 34.9476 110.356 34.6765 110.356 34.3746C110.356 34.0727 110.414 33.8016 110.532 33.5612C110.649 33.3209 110.813 33.1336 111.022 32.9994C111.232 32.8653 111.471 32.7982 111.739 32.7982C112.002 32.7982 112.237 32.8653 112.444 32.9994C112.651 33.1336 112.813 33.3209 112.93 33.5612C113.047 33.8016 113.106 34.0755 113.106 34.383C113.106 34.6849 113.047 34.9546 112.93 35.1922C112.813 35.4298 112.651 35.6157 112.444 35.7498C112.237 35.884 112.002 35.9511 111.739 35.9511ZM116.192 36.471C116.471 36.471 116.729 36.4081 116.963 36.2823C117.198 36.1565 117.397 35.9818 117.559 35.7582V36.3368H118.129V32.4124H117.559V32.9994C117.397 32.7702 117.197 32.5927 116.959 32.467C116.722 32.3412 116.46 32.2783 116.175 32.2783C115.801 32.2783 115.467 32.3677 115.173 32.5466C114.88 32.7255 114.65 32.9729 114.486 33.2887C114.321 33.6046 114.238 33.9637 114.238 34.3662C114.238 34.7743 114.322 35.1377 114.49 35.4563C114.657 35.775 114.889 36.0237 115.186 36.2026C115.482 36.3815 115.817 36.471 116.192 36.471ZM116.175 35.9511C115.912 35.9511 115.678 35.884 115.471 35.7498C115.264 35.6157 115.102 35.4284 114.984 35.188C114.867 34.9476 114.808 34.6737 114.808 34.3662C114.808 34.0644 114.867 33.7946 114.984 33.557C115.102 33.3195 115.264 33.1336 115.471 32.9994C115.678 32.8653 115.912 32.7982 116.175 32.7982C116.444 32.7982 116.683 32.8653 116.892 32.9994C117.102 33.1336 117.265 33.3209 117.383 33.5612C117.5 33.8016 117.559 34.0727 117.559 34.3746C117.559 34.6765 117.5 34.9476 117.383 35.188C117.265 35.4284 117.102 35.6157 116.892 35.7498C116.683 35.884 116.444 35.9511 116.175 35.9511ZM119.756 36.3368V34.3746C119.756 33.8939 119.856 33.5109 120.058 33.2258C120.259 32.9407 120.561 32.7982 120.963 32.7982C121.656 32.7982 122.003 33.1867 122.003 33.9637V36.3368H122.573V33.7122C122.573 33.4159 122.505 33.1587 122.368 32.9407C122.231 32.7227 122.046 32.5578 121.814 32.446C121.582 32.3342 121.329 32.2783 121.055 32.2783C120.765 32.2783 120.509 32.3468 120.288 32.4837C120.067 32.6207 119.89 32.8149 119.756 33.0665V32.4124H119.186V36.3368H119.756ZM124.804 38.0139L126.925 32.4124H126.389L125.139 35.666L123.839 32.4124H123.244L124.854 36.4123L124.234 38.0139H124.804Z" fill="#111827"/>
<path fill-rule="evenodd" clip-rule="evenodd" d="M20.0317 6.05566V33.2607C17.879 34.5864 15.3163 35.6785 12.4845 36.3953C10.1464 36.9879 7.84878 37.2678 5.70113 37.2678C3.63042 37.2678 1.69922 37.0079 0 36.5151V9.31021C0.000913313 9.31021 0.00251161 9.31089 0.00342492 9.31089C0.636122 9.49398 1.30079 9.64518 1.99353 9.76265C2.63445 9.87163 3.29911 9.95171 3.98364 10.001C4.5435 10.0428 5.11661 10.0637 5.70113 10.0637C7.8497 10.0637 10.1464 9.78284 12.4845 9.1909C15.3163 8.47323 17.879 7.38203 20.0317 6.05566ZM16.051 12.3011C15.8827 12.3584 15.7136 12.4145 15.5436 12.4693L16.051 12.4691L16.051 12.3011Z" fill="#111827"/>
<path fill-rule="evenodd" clip-rule="evenodd" d="M27.486 0V30.0474C25.083 31.5116 22.2222 32.7178 19.0612 33.5094C16.4513 34.164 13.8864 34.4731 11.489 34.4731C9.17756 34.4731 7.0218 34.186 5.125 33.6417V3.59457C5.12602 3.59457 5.1278 3.59533 5.12882 3.59533C5.83509 3.79755 6.57704 3.96454 7.35034 4.09429C8.06578 4.21465 8.80773 4.30309 9.57186 4.35757C10.1968 4.40369 10.8366 4.42675 11.489 4.42675C13.8875 4.42675 16.4513 4.11659 19.0612 3.4628C22.2222 2.67014 25.083 1.46494 27.486 0Z" fill="#111827"/>
</svg>
