<svg width="118" height="29" viewBox="0 0 118 29" fill="none" xmlns="http://www.w3.org/2000/svg">
<path d="M0 26.8879C1.01489 26.822 1.74639 26.677 2.19453 26.4529C2.98535 26.0444 3.38076 25.2997 3.38076 24.2189V4.25066C3.38076 3.20941 3.00512 2.48449 2.25384 2.0759C1.81889 1.83866 1.06761 1.6739 0 1.58164V0.553574H12.3763C17.3717 0.553574 21.1808 1.88479 23.8037 4.54722C26.1893 6.9724 27.3822 10.2279 27.3822 14.3138C27.3822 17.978 26.1827 21.082 23.7839 23.6258C21.082 26.4859 17.4178 27.916 12.7915 27.916H0V26.8879ZM9.9248 24.1793C9.96434 25.0097 10.1159 25.6094 10.3795 25.9784C10.6563 26.3475 11.2362 26.532 12.1193 26.532C14.5181 26.532 16.4886 25.6885 18.0307 24.0014C19.5728 22.3011 20.3439 19.0456 20.3439 14.2348C20.3439 11.3746 19.9287 8.9165 19.0983 6.86037C17.7539 3.5521 15.4869 1.89797 12.2973 1.89797C11.2428 1.89797 10.5575 2.12203 10.2411 2.57017C10.0302 2.86013 9.9248 3.4203 9.9248 4.25066V24.1793Z" fill="#111827"/>
<path d="M29.5965 18.6436C29.5965 15.823 30.4598 13.4703 32.1864 11.5855C33.9262 9.70073 36.1075 8.75834 38.7304 8.75834C41.406 8.75834 43.594 9.7205 45.2942 11.6448C47.0077 13.5692 47.8644 15.9021 47.8644 18.6436C47.8644 21.3456 47.0209 23.6719 45.3338 25.6226C43.6467 27.5601 41.4456 28.5288 38.7304 28.5288C36.0944 28.5288 33.913 27.5865 32.1864 25.7017C30.4598 23.8037 29.5965 21.451 29.5965 18.6436ZM35.5474 18.6436C35.5474 21.4774 35.6924 23.461 35.9823 24.5945C36.4436 26.3475 37.3597 27.224 38.7304 27.224C40.0353 27.224 40.892 26.5518 41.3006 25.2074C41.7092 23.863 41.9135 21.6751 41.9135 18.6436C41.9135 15.6253 41.696 13.4439 41.2611 12.0996C40.8393 10.742 40.0023 10.0632 38.7502 10.0632C37.3794 10.0632 36.4634 10.9397 36.0021 12.6927C35.6989 13.8657 35.5474 15.8494 35.5474 18.6436Z" fill="#111827"/>
<path d="M49.6833 26.9472C50.4609 26.8549 51.0013 26.6704 51.3045 26.3936C51.6076 26.1168 51.7724 25.583 51.7987 24.7922L51.8383 23.606V12.5938C51.8383 11.7503 51.6933 11.1769 51.4033 10.8738C51.1134 10.5706 50.54 10.3663 49.6833 10.2609V9.27237H57.374V12.4554C58.2307 11.3351 59.0809 10.4454 59.9244 9.7864C60.768 9.12739 61.7433 8.79788 62.8504 8.79788C63.6808 8.79788 64.4255 9.06807 65.0845 9.60847C65.7567 10.1357 66.0928 10.9133 66.0928 11.9414C66.0928 12.7322 65.8556 13.3846 65.3811 13.8987C64.9198 14.4127 64.3135 14.6697 63.5622 14.6697C62.7055 14.6697 61.9608 14.2677 61.3281 13.4637C60.7086 12.6597 60.2737 12.2577 60.0233 12.2577C59.4829 12.2577 58.9359 12.5938 58.3823 13.266C57.8419 13.925 57.5717 14.874 57.5717 16.113V23.7642C57.5717 25.1085 57.7628 25.9521 58.1451 26.2948C58.5405 26.6243 59.3181 26.8418 60.478 26.9472V27.916H49.6833V26.9472Z" fill="#111827"/>
<path d="M67.4965 26.9472C68.3269 26.8813 68.92 26.6968 69.2759 26.3936C69.6449 26.0905 69.8294 25.4578 69.8294 24.4957V11.3285H67.4965V9.54916H69.8294V8.0466C69.8294 6.16181 70.126 4.61312 70.7191 3.40053C71.8394 1.13351 73.9087 0 76.927 0C78.535 0 79.8926 0.36905 80.9998 1.10715C82.1201 1.83207 82.6803 2.79423 82.6803 3.99364C82.6803 4.74492 82.443 5.35122 81.9685 5.81253C81.5072 6.27384 80.8877 6.5045 80.1101 6.5045C79.4643 6.5045 78.9107 6.29361 78.4494 5.87184C77.9881 5.45007 77.7574 4.94263 77.7574 4.34951C77.7574 3.90138 77.9024 3.43348 78.1924 2.94581C78.4955 2.44495 78.6471 2.14181 78.6471 2.03636C78.6471 1.70685 78.5285 1.49597 78.2912 1.40371C78.054 1.31144 77.797 1.26531 77.5202 1.26531C76.8611 1.26531 76.3537 1.45643 75.9978 1.83866C75.642 2.22089 75.464 3.04466 75.464 4.30997V9.54916H78.9832V11.3285H75.464V23.7642C75.464 25.1613 75.6617 26.018 76.0571 26.3343C76.4657 26.6506 77.362 26.8549 78.7459 26.9472V27.916H67.4965V26.9472Z" fill="#111827"/>
<path d="M88.7103 9.27237V23.0129C88.7103 23.8301 88.8091 24.4298 89.0068 24.812C89.3495 25.4842 90.0283 25.8203 91.0432 25.8203C91.689 25.8203 92.3217 25.616 92.9412 25.2074C93.297 24.9833 93.7452 24.6077 94.2856 24.0805V12.5938C94.2856 11.7503 94.1142 11.1637 93.7715 10.8342C93.442 10.4916 92.7698 10.3004 91.7549 10.2609V9.27237H99.8213V23.8432C99.8213 24.6868 99.9795 25.2733 100.296 25.6028C100.612 25.9191 101.232 26.1168 102.154 26.1959V27.1251C99.6499 27.3624 98.0683 27.5403 97.4093 27.6589C96.7635 27.7644 95.7222 28.0412 94.2856 28.4893V25.8203C93.3234 26.6506 92.526 27.2372 91.8933 27.5799C90.7862 28.1862 89.6329 28.4893 88.4335 28.4893C87.1286 28.4893 85.9094 28.0741 84.7759 27.2438C83.6556 26.4134 83.0954 24.9372 83.0954 22.8152V12.5938C83.0954 11.7371 82.957 11.1769 82.6803 10.9133C82.4035 10.6497 81.8697 10.4322 81.0788 10.2609V9.27237H88.7103Z" fill="#111827"/>
<path d="M103.993 21.7871H105.12C105.515 23.7246 106.253 25.0954 107.334 25.8994C108.415 26.6902 109.522 27.0856 110.656 27.0856C111.697 27.0856 112.461 26.8549 112.949 26.3936C113.437 25.9191 113.68 25.2997 113.68 24.5352C113.68 23.8103 113.417 23.1908 112.89 22.6768C112.6 22.4 112.132 22.1034 111.486 21.7871L108.481 20.3241C106.899 19.5464 105.766 18.7029 105.08 17.7935C104.382 16.884 104.032 15.8098 104.032 14.5709C104.032 13.0024 104.579 11.6514 105.673 10.5179C106.767 9.37122 108.296 8.79788 110.26 8.79788C111.117 8.79788 112.026 8.94286 112.988 9.23283C113.951 9.50961 114.55 9.64801 114.788 9.64801C115.117 9.64801 115.348 9.58211 115.48 9.4503C115.625 9.30532 115.743 9.10761 115.835 8.85719H116.725V14.7093H115.697C115.315 13.3385 114.689 12.2379 113.819 11.4076C112.949 10.5772 111.934 10.162 110.774 10.162C109.878 10.162 109.206 10.4125 108.758 10.9133C108.323 11.4142 108.105 11.9546 108.105 12.5345C108.105 13.009 108.303 13.4835 108.698 13.958C109.08 14.4457 109.805 14.9465 110.873 15.4605L113.087 16.5281C114.458 17.1872 115.46 17.8264 116.092 18.4459C117.147 19.5003 117.674 20.7986 117.674 22.3407C117.674 23.8432 117.127 25.2469 116.033 26.5518C114.952 27.8435 113.325 28.4893 111.15 28.4893C110.609 28.4893 110.062 28.43 109.509 28.3114C108.968 28.2059 108.296 28.0148 107.492 27.738L106.8 27.5008C106.55 27.4085 106.392 27.3558 106.326 27.3426C106.273 27.3294 106.201 27.3228 106.108 27.3228C105.884 27.3228 105.687 27.4151 105.515 27.5996C105.357 27.771 105.173 28.0675 104.962 28.4893H103.993V21.7871Z" fill="#111827"/>
</svg>
