<svg width="107" height="107" viewBox="0 0 107 107" fill="none" xmlns="http://www.w3.org/2000/svg">
<g opacity="0.08">
<path d="M9.2307 106.943C14.3287 106.943 18.4614 102.81 18.4614 97.7125C18.4614 92.6145 14.3287 88.4818 9.2307 88.4818C4.13272 88.4818 0 92.6145 0 97.7125C0 102.81 4.13272 106.943 9.2307 106.943Z" fill="url(#paint0_linear_2178_827)"/>
<path d="M25.4823 90.6916C30.5802 90.6916 34.713 86.5588 34.713 81.4609C34.713 76.3629 30.5802 72.2302 25.4823 72.2302C20.3843 72.2302 16.2516 76.3629 16.2516 81.4609C16.2516 86.5588 20.3843 90.6916 25.4823 90.6916Z" fill="url(#paint1_linear_2178_827)"/>
<path d="M41.7338 74.44C46.8318 74.44 50.9645 70.3073 50.9645 65.2093C50.9645 60.1113 46.8318 55.9786 41.7338 55.9786C36.6359 55.9786 32.5031 60.1113 32.5031 65.2093C32.5031 70.3073 36.6359 74.44 41.7338 74.44Z" fill="url(#paint2_linear_2178_827)"/>
<path d="M57.9854 58.1885C63.0834 58.1885 67.2161 54.0557 67.2161 48.9577C67.2161 43.8598 63.0834 39.727 57.9854 39.727C52.8875 39.727 48.7547 43.8598 48.7547 48.9577C48.7547 54.0557 52.8875 58.1885 57.9854 58.1885Z" fill="url(#paint3_linear_2178_827)"/>
<path d="M80.7647 26.1795C82.0565 27.4707 82.9364 29.116 83.2931 30.9073C83.6498 32.6986 83.4672 34.5555 82.7684 36.243C82.0697 37.9305 80.8861 39.3729 79.3675 40.3878C77.8489 41.4026 76.0635 41.9443 74.237 41.9443C72.4105 41.9443 70.6251 41.4026 69.1065 40.3878C67.5879 39.3729 66.4044 37.9305 65.7056 36.243C65.0069 34.5555 64.8243 32.6986 65.1809 30.9073C65.5376 29.116 66.4175 27.4707 67.7093 26.1795C69.4409 24.4488 71.7888 23.4766 74.237 23.4766C76.6852 23.4766 79.0332 24.4488 80.7647 26.1795Z" fill="url(#paint4_linear_2178_827)"/>
<path d="M95.1506 21.0232C100.249 21.0232 104.381 16.8905 104.381 11.7926C104.381 6.69458 100.249 2.56186 95.1506 2.56186C90.0526 2.56186 85.9199 6.69458 85.9199 11.7926C85.9199 16.8905 90.0526 21.0232 95.1506 21.0232Z" fill="url(#paint5_linear_2178_827)"/>
<path d="M97.415 44.8676C102.513 44.8676 106.646 40.7349 106.646 35.6369C106.646 30.5389 102.513 26.4062 97.415 26.4062C92.317 26.4062 88.1843 30.5389 88.1843 35.6369C88.1843 40.7349 92.317 44.8676 97.415 44.8676Z" fill="url(#paint6_linear_2178_827)"/>
<path d="M104.209 51.4887C105.501 52.7798 106.381 54.4251 106.738 56.2165C107.095 58.0078 106.912 59.8648 106.214 61.5524C105.515 63.24 104.331 64.6825 102.813 65.6974C101.294 66.7123 99.5086 67.254 97.682 67.254C95.8555 67.254 94.07 66.7123 92.5513 65.6974C91.0327 64.6825 89.8492 63.24 89.1505 61.5524C88.4518 59.8648 88.2693 58.0078 88.626 56.2165C88.9828 54.4251 89.8629 52.7798 91.1548 51.4887C92.8863 49.7583 95.2341 48.7863 97.682 48.7863C100.13 48.7863 102.478 49.7583 104.209 51.4887Z" fill="url(#paint7_linear_2178_827)"/>
<path d="M104.209 75.7328C105.501 77.0239 106.381 78.6692 106.738 80.4606C107.095 82.2519 106.912 84.1088 106.214 85.7964C105.515 87.4841 104.331 88.9266 102.813 89.9415C101.294 90.9564 99.5086 91.498 97.682 91.498C95.8555 91.498 94.07 90.9564 92.5513 89.9415C91.0327 88.9266 89.8492 87.4841 89.1505 85.7964C88.4518 84.1088 88.2693 82.2519 88.626 80.4606C88.9828 78.6692 89.8629 77.0239 91.1548 75.7328C92.8863 74.0024 95.2341 73.0304 97.682 73.0304C100.13 73.0304 102.478 74.0024 104.209 75.7328Z" fill="url(#paint8_linear_2178_827)"/>
<path d="M77.834 3.00044C76.5429 1.70846 74.8976 0.828421 73.1062 0.471641C71.3148 0.11486 69.4579 0.297376 67.7703 0.996086C66.0827 1.6948 64.6402 2.87831 63.6253 4.39694C62.6104 5.91557 62.0687 7.70108 62.0687 9.52762C62.0687 11.3542 62.6104 13.1397 63.6253 14.6583C64.6402 16.1769 66.0827 17.3604 67.7703 18.0592C69.4579 18.7579 71.3148 18.9404 73.1062 18.5836C74.8976 18.2268 76.5429 17.3468 77.834 16.0548C79.5644 14.3233 80.5364 11.9755 80.5364 9.52762C80.5364 7.0797 79.5644 4.73195 77.834 3.00044Z" fill="url(#paint9_linear_2178_827)"/>
<path d="M55.4545 2.73499C54.1633 1.44301 52.518 0.562972 50.7267 0.206191C48.9353 -0.150589 47.0784 0.0319265 45.3908 0.730636C43.7032 1.42935 42.2607 2.61286 41.2458 4.13149C40.2309 5.65012 39.6892 7.43563 39.6892 9.26217C39.6892 11.0887 40.2309 12.8742 41.2458 14.3929C42.2607 15.9115 43.7032 17.095 45.3908 17.7937C47.0784 18.4924 48.9353 18.6749 50.7267 18.3182C52.518 17.9614 54.1633 17.0813 55.4545 15.7894C57.1849 14.0578 58.1569 11.7101 58.1569 9.26217C58.1569 6.81425 57.1849 4.4665 55.4545 2.73499Z" fill="url(#paint10_linear_2178_827)"/>
<path d="M31.2104 2.73499C29.9193 1.44301 28.274 0.562972 26.4826 0.206191C24.6913 -0.150589 22.8343 0.0319265 21.1467 0.730636C19.4591 1.42935 18.0166 2.61286 17.0017 4.13149C15.9868 5.65012 15.4451 7.43563 15.4451 9.26217C15.4451 11.0887 15.9868 12.8742 17.0017 14.3929C18.0166 15.9115 19.4591 17.095 21.1467 17.7937C22.8343 18.4924 24.6913 18.6749 26.4826 18.3182C28.274 17.9614 29.9193 17.0813 31.2104 15.7894C32.9408 14.0578 33.9128 11.7101 33.9128 9.26217C33.9128 6.81425 32.9408 4.4665 31.2104 2.73499Z" fill="url(#paint11_linear_2178_827)"/>
</g>
<defs>
<linearGradient id="paint0_linear_2178_827" x1="93.5001" y1="8.02832" x2="-5.50092" y2="101.027" gradientUnits="userSpaceOnUse">
<stop stop-color="white" stop-opacity="0.8"/>
<stop offset="1" stop-color="white" stop-opacity="0.2"/>
</linearGradient>
<linearGradient id="paint1_linear_2178_827" x1="93.5001" y1="8.02832" x2="-5.50092" y2="101.027" gradientUnits="userSpaceOnUse">
<stop stop-color="white" stop-opacity="0.8"/>
<stop offset="1" stop-color="white" stop-opacity="0.2"/>
</linearGradient>
<linearGradient id="paint2_linear_2178_827" x1="93.5001" y1="8.02832" x2="-5.50092" y2="101.027" gradientUnits="userSpaceOnUse">
<stop stop-color="white" stop-opacity="0.8"/>
<stop offset="1" stop-color="white" stop-opacity="0.2"/>
</linearGradient>
<linearGradient id="paint3_linear_2178_827" x1="93.5001" y1="8.02832" x2="-5.50092" y2="101.027" gradientUnits="userSpaceOnUse">
<stop stop-color="white" stop-opacity="0.8"/>
<stop offset="1" stop-color="white" stop-opacity="0.2"/>
</linearGradient>
<linearGradient id="paint4_linear_2178_827" x1="93.5001" y1="8.02832" x2="-5.50092" y2="101.027" gradientUnits="userSpaceOnUse">
<stop stop-color="white" stop-opacity="0.8"/>
<stop offset="1" stop-color="white" stop-opacity="0.2"/>
</linearGradient>
<linearGradient id="paint5_linear_2178_827" x1="93.5001" y1="8.02832" x2="-5.50092" y2="101.027" gradientUnits="userSpaceOnUse">
<stop stop-color="white" stop-opacity="0.8"/>
<stop offset="1" stop-color="white" stop-opacity="0.2"/>
</linearGradient>
<linearGradient id="paint6_linear_2178_827" x1="93.5001" y1="8.02832" x2="-5.50092" y2="101.027" gradientUnits="userSpaceOnUse">
<stop stop-color="white" stop-opacity="0.8"/>
<stop offset="1" stop-color="white" stop-opacity="0.2"/>
</linearGradient>
<linearGradient id="paint7_linear_2178_827" x1="93.5001" y1="8.02832" x2="-5.50092" y2="101.027" gradientUnits="userSpaceOnUse">
<stop stop-color="white" stop-opacity="0.8"/>
<stop offset="1" stop-color="white" stop-opacity="0.2"/>
</linearGradient>
<linearGradient id="paint8_linear_2178_827" x1="93.5001" y1="8.02832" x2="-5.50092" y2="101.027" gradientUnits="userSpaceOnUse">
<stop stop-color="white" stop-opacity="0.8"/>
<stop offset="1" stop-color="white" stop-opacity="0.2"/>
</linearGradient>
<linearGradient id="paint9_linear_2178_827" x1="93.5001" y1="8.02832" x2="-5.50092" y2="101.027" gradientUnits="userSpaceOnUse">
<stop stop-color="white" stop-opacity="0.8"/>
<stop offset="1" stop-color="white" stop-opacity="0.2"/>
</linearGradient>
<linearGradient id="paint10_linear_2178_827" x1="93.5001" y1="8.02832" x2="-5.50092" y2="101.027" gradientUnits="userSpaceOnUse">
<stop stop-color="white" stop-opacity="0.8"/>
<stop offset="1" stop-color="white" stop-opacity="0.2"/>
</linearGradient>
<linearGradient id="paint11_linear_2178_827" x1="93.5001" y1="8.02832" x2="-5.50092" y2="101.027" gradientUnits="userSpaceOnUse">
<stop stop-color="white" stop-opacity="0.8"/>
<stop offset="1" stop-color="white" stop-opacity="0.2"/>
</linearGradient>
</defs>
</svg>
