<svg width="140" height="41" viewBox="0 0 140 41" fill="none" xmlns="http://www.w3.org/2000/svg">
<path opacity="0.6" d="M31.6902 3.78205C31.2266 3.44905 30.5836 3.52077 30.1815 3.9255L25.2812 8.8514L24.1182 10.0195L24.0952 1.44334C24.0952 0.869551 23.6802 0.359798 23.1115 0.270143C21.0162 -0.057738 18.8798 -0.0526149 16.787 0.288074C16.2209 0.380291 15.8085 0.892605 15.8111 1.4664L15.8341 10.0425L14.7454 8.95899L9.74012 3.97929C9.3354 3.57712 8.68988 3.50796 8.2288 3.84353C7.38348 4.4583 6.57402 5.14737 5.81067 5.91328C5.04989 6.67919 4.36338 7.49377 3.75373 8.34165C3.42072 8.80529 3.49245 9.44825 3.89718 9.85042L9.99116 15.9111L1.41502 15.9342C0.841231 15.9342 0.331478 16.3491 0.241823 16.9178C-0.0860583 19.0132 -0.0809352 21.147 0.259754 23.2423C0.35197 23.8084 0.864285 24.2208 1.43808 24.2183L10.0142 24.1952L30.0124 24.144H31.2394L38.5886 24.1209C39.1624 24.1209 39.6721 23.706 39.7618 23.1373C40.0896 21.0419 40.0845 18.9056 39.7464 16.8128C39.6542 16.2467 39.1419 15.8343 38.5681 15.8368L29.9919 15.8599L36.0526 9.76588C36.4548 9.36116 36.5239 8.71564 36.1884 8.25456C35.5736 7.40667 34.8845 6.59722 34.1186 5.83643C33.3527 5.07564 32.5407 4.3917 31.6902 3.77949V3.78205Z" fill="url(#paint0_linear_2178_792)"/>
<path d="M10.0136 24.1957L6.4197 27.8074L3.95034 30.2896C3.54049 30.6994 3.4867 31.3501 3.82739 31.8188C4.4396 32.659 5.12354 33.4634 5.88433 34.219C6.64512 34.9747 7.45201 35.6561 8.29733 36.2632C8.7661 36.6013 9.41674 36.5424 9.82403 36.1325L15.8847 30.0385L15.9078 38.6147C15.9078 39.1987 16.333 39.7008 16.9093 39.7904C18.9919 40.1132 21.1129 40.1081 23.1929 39.7725C23.7692 39.6803 24.1919 39.1757 24.1893 38.5916L24.1663 30.0155L30.2576 36.0762C30.6675 36.486 31.3181 36.5398 31.7843 36.1991C32.6245 35.5869 33.4288 34.903 34.1845 34.1422C34.9402 33.3814 35.6216 32.5745 36.2286 31.7317C36.5668 31.263 36.5079 30.6123 36.098 30.205L32.3735 26.501L30.004 24.1445L20.8132 15.0022C20.3521 14.5437 19.6092 14.5462 19.1507 15.0073L10.0085 24.1983L10.0136 24.1957Z" fill="url(#paint1_linear_2178_792)"/>
<path d="M61.0039 34.9683C57.6039 34.9683 54.9639 34.1683 53.0039 32.5683C51.0439 30.9683 49.8039 28.7683 49.3239 25.9283L54.9639 24.6083C55.2039 26.1283 55.8839 27.3683 57.0439 28.2483C58.2039 29.1283 59.5639 29.5283 61.2039 29.5283C62.5639 29.5283 63.6439 29.2483 64.4039 28.6083C65.2039 27.9683 65.6039 27.1683 65.6039 26.2483C65.6039 24.8083 64.3239 23.5683 62.2839 23.2083L58.1639 22.3683C55.8039 21.9283 53.8839 20.9283 52.4839 19.4883C51.0839 18.0083 50.4039 16.1683 50.4039 14.0083C50.4039 11.4483 51.6039 9.08832 53.4439 7.48832C55.3239 5.92832 57.9639 4.92832 60.7239 4.92832C63.9239 4.92832 66.6439 5.88832 68.3239 7.36832C70.0039 8.92832 70.9639 10.7283 71.2439 12.6883L65.7639 14.2883C65.2439 11.8883 63.5639 10.3283 60.6439 10.3283C59.4439 10.3283 58.4439 10.6483 57.6039 11.2883C56.8039 11.9283 56.4039 12.6883 56.4039 13.5283C56.4039 15.0083 57.4039 16.1683 59.4039 16.5683L63.4839 17.3283C66.1239 17.8083 68.1639 18.8083 69.6039 20.3683C71.0039 21.9283 71.7239 23.7683 71.7239 25.8883C71.7239 28.1683 70.7239 30.3683 69.0039 32.1283C67.2039 33.8483 64.3639 34.9683 61.0039 34.9683ZM80.3545 34.9283C78.5545 34.9283 76.9945 34.3683 75.7145 33.2883C74.3945 32.1683 73.7545 30.7283 73.7545 28.9683V28.8083C73.7545 25.9683 75.4745 24.3283 77.7545 23.5283C79.3545 22.9283 80.8345 22.7283 82.5145 22.7283H84.4345C85.4745 22.7283 85.9945 22.2083 85.9945 21.3683C85.9945 19.9683 84.8745 18.8883 82.8745 18.8883C81.1145 18.8883 79.7545 19.9283 79.3145 21.6083L74.1945 20.4483C74.4345 19.0883 74.9945 17.9283 75.9145 16.9683C76.7945 16.0083 77.8745 15.2883 79.1545 14.8483C80.3945 14.4083 81.7145 14.1683 83.1545 14.1683C88.0745 14.1283 91.7145 16.9283 91.7145 22.2083V31.3283C91.7145 32.5283 91.7945 33.6083 91.8745 34.5283H86.4745C86.3945 34.0083 86.3545 33.2083 86.3545 32.0483H86.2745C84.9145 33.9283 82.9545 34.9283 80.3545 34.9283ZM82.0345 30.6883C83.2345 30.6883 84.1945 30.2883 84.9145 29.5283C85.6345 28.8083 85.9945 27.8883 85.9945 26.8483V26.3683H82.5145C81.7945 26.3683 81.1545 26.5683 80.5545 26.9683C79.9145 27.3683 79.5945 27.9283 79.5945 28.6483C79.5945 29.9683 80.6745 30.6883 82.0345 30.6883ZM107.947 14.6483V20.3283C107.427 20.2483 106.827 20.1683 106.107 20.1683C103.227 20.1683 101.387 22.2083 101.387 25.8083V34.5283H95.6667V14.6483H101.187V17.5283H101.227C102.267 15.3683 104.187 14.4483 106.387 14.4483C106.907 14.4483 107.427 14.5283 107.947 14.6483ZM114.712 34.9283C112.912 34.9283 111.352 34.3683 110.072 33.2883C108.752 32.1683 108.112 30.7283 108.112 28.9683V28.8083C108.112 25.9683 109.832 24.3283 112.112 23.5283C113.712 22.9283 115.192 22.7283 116.872 22.7283H118.792C119.832 22.7283 120.352 22.2083 120.352 21.3683C120.352 19.9683 119.232 18.8883 117.232 18.8883C115.472 18.8883 114.112 19.9283 113.672 21.6083L108.552 20.4483C108.792 19.0883 109.352 17.9283 110.272 16.9683C111.152 16.0083 112.232 15.2883 113.512 14.8483C114.752 14.4083 116.072 14.1683 117.512 14.1683C122.432 14.1283 126.072 16.9283 126.072 22.2083V31.3283C126.072 32.5283 126.152 33.6083 126.232 34.5283H120.832C120.752 34.0083 120.712 33.2083 120.712 32.0483H120.632C119.272 33.9283 117.312 34.9283 114.712 34.9283ZM116.392 30.6883C117.592 30.6883 118.552 30.2883 119.272 29.5283C119.992 28.8083 120.352 27.8883 120.352 26.8483V26.3683H116.872C116.152 26.3683 115.512 26.5683 114.912 26.9683C114.272 27.3683 113.952 27.9283 113.952 28.6483C113.952 29.9683 115.032 30.6883 116.392 30.6883Z" fill="white"/>
<path d="M133.185 34.9683C132.065 34.9683 131.145 34.5683 130.345 33.7683C129.545 33.0083 129.145 32.0483 129.145 30.9683C129.145 29.8483 129.545 28.8883 130.345 28.0883C131.145 27.3283 132.065 26.9283 133.185 26.9283C134.305 26.9283 135.265 27.3283 136.065 28.0883C136.825 28.8883 137.225 29.8483 137.225 30.9683C137.225 32.0483 136.825 33.0083 136.065 33.7683C135.265 34.5683 134.305 34.9683 133.185 34.9683Z" fill="#FFC837"/>
<defs>
<linearGradient id="paint0_linear_2178_792" x1="40.0051" y1="0.783883" x2="13.359" y2="34.6887" gradientUnits="userSpaceOnUse">
<stop stop-color="#858DD7"/>
<stop offset="1" stop-color="#8A2EFF"/>
</linearGradient>
<linearGradient id="paint1_linear_2178_792" x1="36.4493" y1="15.4523" x2="7.69033" y2="44.101" gradientUnits="userSpaceOnUse">
<stop stop-color="#858DD7"/>
<stop offset="1" stop-color="#8A2EFF"/>
</linearGradient>
</defs>
</svg>
