<svg width="1920" height="628" viewBox="0 0 1920 628" fill="none" xmlns="http://www.w3.org/2000/svg">
<rect width="1920" height="628" fill="#09071D"/>
<path opacity="0.19" d="M147.796 274.21L147.43 273.036L146.873 274.133L121.88 323.353L94.3593 308.523L121.477 259.759L122.085 258.667L120.892 259.039L66.6153 275.972L57.3715 246.342L111.907 229.328L113.085 228.961L111.984 228.404L61.39 202.842L75.7281 175.416L145.136 211.973L145.58 212.207L145.813 211.762L182.123 142.223L209.485 156.55L182.401 206.344L181.812 207.428L182.989 207.061L237.534 190.044L246.804 219.758L192.528 236.69L191.334 237.063L192.456 237.616L242.491 262.31L228.284 290.157L179.738 263.88L178.656 263.294L179.023 264.468L195.772 318.155L164.545 327.897L147.796 274.21ZM117.891 178.351L95.5483 106.735L126.775 96.9934L149.117 168.609L117.891 178.351Z" fill="#111827" stroke="url(#paint0_linear_2464_1476)"/>
<g opacity="0.2">
<mask id="path-3-inside-1_2464_1476" fill="white">
<path fill-rule="evenodd" clip-rule="evenodd" d="M1620.41 354.913L1620.41 427.249C1608.98 427.249 1597.67 429.436 1587.11 433.687C1576.56 437.938 1566.96 444.169 1558.89 452.023C1550.81 459.878 1544.4 469.203 1540.03 479.465C1535.65 489.728 1533.4 500.727 1533.4 511.835L1459 511.835C1459 491.228 1463.18 470.822 1471.29 451.783C1479.4 432.745 1491.29 415.446 1506.28 400.874C1510.98 396.297 1515.97 392.018 1521.2 388.055C1517.11 384.626 1513.19 380.981 1509.45 377.131C1494.87 362.143 1483.32 344.35 1475.43 324.767C1467.54 305.184 1463.48 284.196 1463.48 263L1535.82 263C1535.82 274.425 1538.01 285.739 1542.26 296.294C1546.51 306.85 1552.74 316.441 1560.59 324.52C1568.45 332.599 1577.77 339.008 1588.04 343.38C1598.3 347.753 1609.3 350.003 1620.41 350.003L1620.41 354.913Z"/>
</mask>
<path fill-rule="evenodd" clip-rule="evenodd" d="M1620.41 354.913L1620.41 427.249C1608.98 427.249 1597.67 429.436 1587.11 433.687C1576.56 437.938 1566.96 444.169 1558.89 452.023C1550.81 459.878 1544.4 469.203 1540.03 479.465C1535.65 489.728 1533.4 500.727 1533.4 511.835L1459 511.835C1459 491.228 1463.18 470.822 1471.29 451.783C1479.4 432.745 1491.29 415.446 1506.28 400.874C1510.98 396.297 1515.97 392.018 1521.2 388.055C1517.11 384.626 1513.19 380.981 1509.45 377.131C1494.87 362.143 1483.32 344.35 1475.43 324.767C1467.54 305.184 1463.48 284.196 1463.48 263L1535.82 263C1535.82 274.425 1538.01 285.739 1542.26 296.294C1546.51 306.85 1552.74 316.441 1560.59 324.52C1568.45 332.599 1577.77 339.008 1588.04 343.38C1598.3 347.753 1609.3 350.003 1620.41 350.003L1620.41 354.913Z" fill="#111827"/>
<path d="M1620.41 427.249L1620.41 428.249L1621.41 428.249L1621.41 427.249L1620.41 427.249ZM1620.41 354.913L1621.41 354.913L1620.41 354.913ZM1587.11 433.687L1587.49 434.615L1587.11 433.687ZM1533.4 511.835L1533.4 512.835L1534.4 512.835L1534.4 511.835L1533.4 511.835ZM1459 511.835L1458 511.835L1458 512.835L1459 512.835L1459 511.835ZM1471.29 451.783L1472.21 452.175L1471.29 451.783ZM1506.28 400.874L1505.58 400.157L1506.28 400.874ZM1521.2 388.055L1521.8 388.853L1522.8 388.095L1521.84 387.29L1521.2 388.055ZM1509.45 377.131L1510.16 376.434L1509.45 377.131ZM1463.48 263L1463.48 262L1462.48 262L1462.48 263L1463.48 263ZM1535.82 263L1536.82 263L1536.82 262L1535.82 262L1535.82 263ZM1620.41 350.003L1621.41 350.003L1621.41 349.003L1620.41 349.003L1620.41 350.003ZM1621.41 427.249L1621.41 354.913L1619.41 354.913L1619.41 427.249L1621.41 427.249ZM1587.49 434.615C1597.92 430.412 1609.11 428.249 1620.41 428.249L1620.41 426.249C1608.85 426.249 1597.41 428.461 1586.74 432.76L1587.49 434.615ZM1559.58 452.74C1567.57 444.977 1577.05 438.818 1587.49 434.615L1586.74 432.76C1576.06 437.059 1566.36 443.36 1558.19 451.306L1559.58 452.74ZM1540.95 479.857C1545.27 469.718 1551.6 460.503 1559.58 452.74L1558.19 451.306C1550.02 459.252 1543.53 468.687 1539.11 479.073L1540.95 479.857ZM1534.4 511.835C1534.4 500.862 1536.63 489.996 1540.95 479.857L1539.11 479.073C1534.68 489.459 1532.4 500.592 1532.4 511.835L1534.4 511.835ZM1459 512.835L1533.4 512.835L1533.4 510.835L1459 510.835L1459 512.835ZM1470.37 451.391C1462.2 470.554 1458 491.092 1458 511.835L1460 511.835C1460 491.363 1464.15 471.091 1472.21 452.175L1470.37 451.391ZM1505.58 400.157C1490.5 414.82 1478.53 432.229 1470.37 451.391L1472.21 452.175C1480.27 433.26 1492.08 416.071 1506.97 401.591L1505.58 400.157ZM1520.59 387.258C1515.33 391.245 1510.32 395.551 1505.58 400.157L1506.97 401.591C1511.65 397.043 1516.6 392.79 1521.8 388.853L1520.59 387.258ZM1508.73 377.828C1512.49 381.702 1516.44 385.37 1520.55 388.821L1521.84 387.29C1517.78 383.882 1513.88 380.259 1510.16 376.434L1508.73 377.828ZM1474.5 325.141C1482.44 344.843 1494.07 362.746 1508.73 377.828L1510.16 376.434C1495.68 361.54 1484.19 343.857 1476.36 324.394L1474.5 325.141ZM1462.48 263C1462.48 284.323 1466.57 305.439 1474.5 325.141L1476.36 324.394C1468.52 304.93 1464.48 284.068 1464.48 263L1462.48 263ZM1535.82 262L1463.48 262L1463.48 264L1535.82 264L1535.82 262ZM1543.19 295.921C1538.98 285.484 1536.82 274.298 1536.82 263L1534.82 263C1534.82 274.553 1537.03 285.993 1541.33 296.668L1543.19 295.921ZM1561.31 323.823C1553.55 315.838 1547.39 306.357 1543.19 295.921L1541.33 296.668C1545.63 307.343 1551.93 317.044 1559.88 325.217L1561.31 323.823ZM1588.43 342.46C1578.29 338.14 1569.07 331.808 1561.31 323.823L1559.88 325.217C1567.82 333.391 1577.26 339.875 1587.64 344.3L1588.43 342.46ZM1620.41 349.003C1609.43 349.003 1598.57 346.78 1588.43 342.46L1587.64 344.3C1598.03 348.725 1609.16 351.003 1620.41 351.003L1620.41 349.003ZM1621.41 354.913L1621.41 350.003L1619.41 350.003L1619.41 354.913L1621.41 354.913Z" fill="url(#paint1_linear_2464_1476)" mask="url(#path-3-inside-1_2464_1476)"/>
</g>
<line x1="665.5" y1="-2.18557e-08" x2="665.5" y2="567" stroke="#1F2937"/>
<line x1="300" y1="272.5" x2="665" y2="272.5" stroke="#1F2937"/>
<defs>
<linearGradient id="paint0_linear_2464_1476" x1="111.013" y1="101.387" x2="180.307" y2="323.504" gradientUnits="userSpaceOnUse">
<stop stop-color="white"/>
<stop offset="1" stop-color="#0062FF"/>
</linearGradient>
<linearGradient id="paint1_linear_2464_1476" x1="1384" y1="401" x2="1653.5" y2="401" gradientUnits="userSpaceOnUse">
<stop stop-color="#0062FF"/>
<stop offset="1" stop-color="white"/>
</linearGradient>
</defs>
</svg>
