<svg width="1920" height="629" viewBox="0 0 1920 629" fill="none" xmlns="http://www.w3.org/2000/svg">
<rect y="0.566406" width="1920" height="628" fill="#F9FAFB"/>
<path opacity="0.19" d="M147.796 274.777L147.43 273.603L146.873 274.699L121.88 323.919L94.3593 309.089L121.477 260.326L122.085 259.233L120.892 259.605L66.6153 276.538L57.3715 246.908L111.907 229.894L113.085 229.527L111.984 228.971L61.39 203.409L75.7281 175.982L145.136 212.539L145.58 212.773L145.813 212.328L182.123 142.789L209.485 157.116L182.401 206.911L181.812 207.994L182.989 207.627L237.534 190.61L246.804 220.324L192.528 237.257L191.334 237.629L192.456 238.182L242.491 262.876L228.284 290.724L179.738 264.446L178.656 263.861L179.023 265.035L195.772 318.722L164.545 328.463L147.796 274.777ZM117.891 178.918L95.5483 107.302L126.775 97.5597L149.117 169.176L117.891 178.918Z" stroke="url(#paint0_linear_2325_1153)"/>
<g opacity="0.2">
<mask id="path-3-inside-1_2325_1153" fill="white">
<path fill-rule="evenodd" clip-rule="evenodd" d="M1620.41 355.479L1620.41 427.815C1608.98 427.815 1597.67 430.003 1587.11 434.254C1576.56 438.505 1566.96 444.735 1558.89 452.59C1550.81 460.444 1544.4 469.769 1540.03 480.032C1535.65 490.294 1533.4 501.293 1533.4 512.401L1459 512.401C1459 491.794 1463.18 471.389 1471.29 452.35C1479.4 433.311 1491.29 416.012 1506.28 401.441C1510.98 396.864 1515.97 392.584 1521.2 388.622C1517.11 385.192 1513.19 381.547 1509.45 377.697C1494.87 362.709 1483.32 344.916 1475.43 325.333C1467.54 305.751 1463.48 284.762 1463.48 263.566L1535.82 263.566C1535.82 274.992 1538.01 286.305 1542.26 296.861C1546.51 307.417 1552.74 317.008 1560.59 325.087C1568.45 333.166 1577.77 339.574 1588.04 343.947C1598.3 348.319 1609.3 350.569 1620.41 350.569L1620.41 355.479Z"/>
</mask>
<path d="M1620.41 427.815L1620.41 428.815L1621.41 428.815L1621.41 427.815L1620.41 427.815ZM1620.41 355.479L1621.41 355.479L1620.41 355.479ZM1587.11 434.254L1587.49 435.181L1587.11 434.254ZM1533.4 512.401L1533.4 513.401L1534.4 513.401L1534.4 512.401L1533.4 512.401ZM1459 512.401L1458 512.401L1458 513.401L1459 513.401L1459 512.401ZM1471.29 452.35L1472.21 452.742L1471.29 452.35ZM1506.28 401.441L1505.58 400.724L1506.28 401.441ZM1521.2 388.622L1521.8 389.419L1522.8 388.662L1521.84 387.856L1521.2 388.622ZM1509.45 377.697L1510.16 377L1509.45 377.697ZM1463.48 263.566L1463.48 262.566L1462.48 262.566L1462.48 263.566L1463.48 263.566ZM1535.82 263.566L1536.82 263.566L1536.82 262.566L1535.82 262.566L1535.82 263.566ZM1620.41 350.569L1621.41 350.569L1621.41 349.569L1620.41 349.569L1620.41 350.569ZM1621.41 427.815L1621.41 355.479L1619.41 355.479L1619.41 427.815L1621.41 427.815ZM1587.49 435.181C1597.92 430.978 1609.11 428.815 1620.41 428.815L1620.41 426.815C1608.85 426.815 1597.41 429.027 1586.74 433.326L1587.49 435.181ZM1559.58 453.307C1567.57 445.544 1577.05 439.384 1587.49 435.181L1586.74 433.326C1576.06 437.625 1566.36 443.927 1558.19 451.873L1559.58 453.307ZM1540.95 480.424C1545.27 470.284 1551.6 461.07 1559.58 453.307L1558.19 451.873C1550.02 459.819 1543.53 469.254 1539.11 479.64L1540.95 480.424ZM1534.4 512.401C1534.4 501.429 1536.63 490.563 1540.95 480.424L1539.11 479.64C1534.68 490.025 1532.4 501.158 1532.4 512.401L1534.4 512.401ZM1459 513.401L1533.4 513.401L1533.4 511.401L1459 511.401L1459 513.401ZM1470.37 451.958C1462.2 471.12 1458 491.659 1458 512.401L1460 512.401C1460 491.929 1464.15 471.657 1472.21 452.742L1470.37 451.958ZM1505.58 400.724C1490.5 415.387 1478.53 432.796 1470.37 451.958L1472.21 452.742C1480.27 433.826 1492.08 416.638 1506.97 402.158L1505.58 400.724ZM1520.59 387.825C1515.33 391.811 1510.32 396.118 1505.58 400.724L1506.97 402.158C1511.65 397.609 1516.6 393.356 1521.8 389.419L1520.59 387.825ZM1508.73 378.394C1512.49 382.268 1516.44 385.937 1520.55 389.388L1521.84 387.856C1517.78 384.448 1513.88 380.826 1510.16 377L1508.73 378.394ZM1474.5 325.707C1482.44 345.409 1494.07 363.312 1508.73 378.394L1510.16 377C1495.68 362.106 1484.19 344.423 1476.36 324.96L1474.5 325.707ZM1462.48 263.566C1462.48 284.89 1466.57 306.005 1474.5 325.707L1476.36 324.96C1468.52 305.497 1464.48 284.635 1464.48 263.566L1462.48 263.566ZM1535.82 262.566L1463.48 262.566L1463.48 264.566L1535.82 264.566L1535.82 262.566ZM1543.19 296.487C1538.98 286.051 1536.82 274.864 1536.82 263.566L1534.82 263.566C1534.82 275.119 1537.03 286.56 1541.33 297.234L1543.19 296.487ZM1561.31 324.39C1553.55 316.405 1547.39 306.924 1543.19 296.487L1541.33 297.234C1545.63 307.909 1551.93 317.611 1559.88 325.784L1561.31 324.39ZM1588.43 343.027C1578.29 338.707 1569.07 332.375 1561.31 324.39L1559.88 325.784C1567.82 333.957 1577.26 340.442 1587.64 344.867L1588.43 343.027ZM1620.41 349.569C1609.43 349.569 1598.57 347.346 1588.43 343.027L1587.64 344.867C1598.03 349.292 1609.16 351.569 1620.41 351.569L1620.41 349.569ZM1621.41 355.479L1621.41 350.569L1619.41 350.569L1619.41 355.479L1621.41 355.479Z" fill="url(#paint1_linear_2325_1153)" mask="url(#path-3-inside-1_2325_1153)"/>
</g>
<line x1="665.5" y1="0.566406" x2="665.5" y2="567.566" stroke="#EEEFF2"/>
<line x1="300" y1="273.066" x2="665" y2="273.066" stroke="#EEEFF2"/>
<defs>
<linearGradient id="paint0_linear_2325_1153" x1="111.013" y1="101.953" x2="180.307" y2="324.07" gradientUnits="userSpaceOnUse">
<stop stop-color="white"/>
<stop offset="1" stop-color="#0062FF"/>
</linearGradient>
<linearGradient id="paint1_linear_2325_1153" x1="1384" y1="401.566" x2="1653.5" y2="401.566" gradientUnits="userSpaceOnUse">
<stop stop-color="#0062FF"/>
<stop offset="1" stop-color="white"/>
</linearGradient>
</defs>
</svg>
