<svg width="52" height="52" viewBox="0 0 52 52" fill="none" xmlns="http://www.w3.org/2000/svg">
<path d="M20.8738 9.10399C21.0042 9.36941 21.0903 9.65364 21.1289 9.94585L21.8418 20.5454L22.1956 25.873C22.1993 26.4209 22.2853 26.9652 22.4507 27.4885C22.8781 28.5037 23.9063 29.149 25.0249 29.104L42.0697 27.9891C42.8078 27.9769 43.5206 28.253 44.0512 28.7565C44.4934 29.1761 44.7789 29.725 44.8688 30.3154L44.899 30.674C44.1936 40.4409 37.0203 48.5873 27.2736 50.6902C17.5269 52.7931 7.53216 48.3508 2.71577 39.7752C1.32725 37.2838 0.459965 34.5453 0.164839 31.7206C0.0415506 30.8844 -0.0127364 30.0398 0.00250715 29.195C-0.0127145 18.7237 7.4441 9.67092 17.8822 7.48851C19.1385 7.2929 20.3701 7.95796 20.8738 9.10399Z" fill="white"/>
<path opacity="0.4" d="M27.8302 0.00234153C39.505 0.299359 49.3173 8.69461 51.206 20.0023L51.188 20.0858L51.1365 20.2071L51.1436 20.5402C51.1169 20.9815 50.9465 21.406 50.6529 21.749C50.3471 22.1062 49.9292 22.3495 49.4691 22.4439L49.1885 22.4824L29.5231 23.7566C28.8689 23.8211 28.2176 23.6102 27.7312 23.1763C27.3258 22.8147 27.0667 22.3266 26.9934 21.8007L25.6735 2.16389C25.6505 2.09749 25.6505 2.02551 25.6735 1.95911C25.6915 1.41783 25.9298 0.906193 26.335 0.538503C26.7403 0.170813 27.2788 -0.0222878 27.8302 0.00234153Z" fill="white"/>
</svg>
