<svg width="279" height="279" viewBox="0 0 279 279" fill="none" xmlns="http://www.w3.org/2000/svg">
<g opacity="0.18">
<path d="M277.821 129.19C277.523 125.25 274.284 122.147 270.353 121.799L211.129 116.513L256.437 78.4378C259.475 75.8985 260.329 71.4352 258.275 68.0133C250.696 55.4159 241.17 44.0741 230.062 34.449C227.057 31.8457 222.51 31.919 219.484 34.4719L174.176 72.5472L179.187 13.2977C179.517 9.36499 177.013 5.62507 173.186 4.65732C166.173 2.88121 158.926 1.62462 151.476 0.95339C144.038 0.295781 136.673 0.248719 129.473 0.757818C125.538 1.03818 122.452 4.26505 122.122 8.19777L117.125 67.4359L78.8736 21.9166C76.3226 18.8643 71.859 17.9891 68.4493 20.0287C55.8967 27.5573 44.6212 37.0274 35.0411 48.1125C32.4536 51.1083 32.5476 55.6587 35.1123 58.6997L162.546 210.374L168.001 216.901L200.797 255.893C203.348 258.945 207.812 259.821 211.222 257.781C223.774 250.252 235.063 240.771 244.641 229.711C247.229 226.715 247.135 222.165 244.57 219.124L206.319 173.604L265.532 178.876C269.463 179.225 273.188 176.736 274.138 172.91C275.894 165.888 277.116 158.64 277.739 151.199C278.362 143.758 278.374 136.412 277.834 129.178L277.821 129.19Z" fill="url(#paint0_linear_2325_1002)"/>
<path d="M104.769 273.822C100.945 272.83 98.4657 269.092 98.8207 265.162L104.131 205.94L58.6184 243.77C55.5802 246.309 51.0362 246.357 48.0332 243.729C36.9811 234.033 27.5101 222.646 20.0095 210.006C17.9809 206.586 18.86 202.125 21.9096 199.6L67.4221 161.77L8.22403 156.184C4.29517 155.811 1.05904 152.683 0.785873 148.746C0.282824 141.528 0.332524 134.173 0.994148 126.723C1.66716 119.286 2.92812 112.03 4.7071 105.034C5.68154 101.211 9.40482 98.7474 13.3337 99.1206L72.5182 104.717L34.5111 58.9938C31.96 55.9415 31.8909 51.3934 34.5034 48.3999C44.1405 37.3829 55.4615 27.9674 68.071 20.5069C71.4785 18.4922 75.9399 19.3924 78.4774 22.4561L205.125 174.788L210.58 181.315L243.132 220.511C245.683 223.563 245.752 228.111 243.139 231.105C233.502 242.122 222.168 251.549 209.583 259.012C206.176 261.026 201.714 260.126 199.177 257.062L161.17 211.339L155.848 270.547C155.493 274.478 152.383 277.702 148.449 277.958C141.226 278.44 133.877 278.356 126.443 277.649C119.01 276.941 111.778 275.648 104.756 273.834L104.769 273.822Z" fill="url(#paint1_linear_2325_1002)"/>
</g>
<defs>
<linearGradient id="paint0_linear_2325_1002" x1="245.731" y1="50.4015" x2="32.9276" y2="228.257" gradientUnits="userSpaceOnUse">
<stop stop-color="white" stop-opacity="0.61"/>
<stop offset="1" stop-color="white" stop-opacity="0"/>
</linearGradient>
<linearGradient id="paint1_linear_2325_1002" x1="245.731" y1="50.4015" x2="32.9276" y2="228.257" gradientUnits="userSpaceOnUse">
<stop stop-color="white" stop-opacity="0.61"/>
<stop offset="1" stop-color="white" stop-opacity="0"/>
</linearGradient>
</defs>
</svg>
