<svg width="1241" height="586" viewBox="0 0 1241 586" fill="none" xmlns="http://www.w3.org/2000/svg">
<g opacity="0.53">
<circle cx="627.428" cy="661" r="613.053" fill="url(#paint0_linear_4005_905)"/>
<circle cx="627.428" cy="661" r="612.209" stroke="url(#paint1_linear_4005_905)" stroke-opacity="0.2" stroke-width="1.6883"/>
</g>
<g filter="url(#filter0_d_4005_905)">
<circle cx="482.022" cy="67.8739" r="17.6176" fill="white"/>
</g>
<g clip-path="url(#clip0_4005_905)">
<path d="M476.842 76.3716H487.62C489.222 76.3716 490.521 75.0724 490.521 73.4699V62.692C490.521 61.0895 489.222 59.7903 487.62 59.7903H476.842C475.239 59.7903 473.94 61.0895 473.94 62.692V73.4699C473.94 75.0724 475.239 76.3716 476.842 76.3716Z" fill="url(#paint2_linear_4005_905)"/>
<path d="M487.878 68.1589C487.864 67.8292 487.72 67.5186 487.477 67.2952C487.234 67.0718 486.912 66.9538 486.583 66.9671C486.285 66.9664 485.994 67.0628 485.756 67.2418C484.804 66.5537 483.664 66.1723 482.489 66.1484L483.007 63.5369L484.922 63.9799C484.922 63.9799 484.922 64.0032 484.922 64.0136C484.919 64.2449 485.001 64.4693 485.152 64.6444C485.303 64.8195 485.513 64.9331 485.742 64.9637C485.972 64.9943 486.204 64.9399 486.396 64.8106C486.588 64.6813 486.726 64.4862 486.783 64.2622C486.841 64.0382 486.814 63.8008 486.709 63.595C486.603 63.3891 486.426 63.2291 486.211 63.1452C485.995 63.0612 485.756 63.0593 485.539 63.1396C485.322 63.2199 485.142 63.3769 485.033 63.5809L482.896 63.0861C482.869 63.0796 482.841 63.0788 482.814 63.0837C482.787 63.0886 482.761 63.0991 482.738 63.1146C482.714 63.129 482.694 63.1482 482.678 63.171C482.663 63.1938 482.652 63.2196 482.647 63.2467L482.069 66.1433C480.86 66.1491 479.682 66.5332 478.701 67.2418C478.464 67.0633 478.175 66.967 477.877 66.9671C477.548 66.9538 477.226 67.0718 476.983 67.2952C476.74 67.5186 476.596 67.8292 476.582 68.1589C476.588 68.4116 476.673 68.6559 476.826 68.857C476.98 69.058 477.192 69.2055 477.434 69.2782C477.419 69.388 477.411 69.4988 477.411 69.6098C477.411 71.5244 479.572 73.0815 482.23 73.0815C484.888 73.0815 487.049 71.527 487.049 69.6098C487.049 69.4988 487.041 69.388 487.026 69.2782C487.268 69.2055 487.481 69.058 487.634 68.857C487.787 68.6559 487.872 68.4116 487.878 68.1589ZM479.536 68.8844C479.536 68.7204 479.584 68.5601 479.675 68.4237C479.766 68.2874 479.896 68.1811 480.047 68.1184C480.199 68.0556 480.366 68.0392 480.526 68.0712C480.687 68.1032 480.835 68.1822 480.951 68.2981C481.067 68.4141 481.146 68.5618 481.178 68.7226C481.21 68.8834 481.193 69.0501 481.131 69.2016C481.068 69.3531 480.962 69.4826 480.825 69.5737C480.689 69.6648 480.529 69.7134 480.365 69.7134C480.145 69.7134 479.934 69.6261 479.778 69.4706C479.623 69.3151 479.536 69.1042 479.536 68.8844ZM484.266 71.2161C483.663 71.6118 482.951 71.8109 482.23 71.7861C481.51 71.814 480.798 71.6185 480.194 71.2265C480.15 71.1921 480.121 71.1417 480.114 71.0863C480.108 71.0309 480.123 70.9751 480.157 70.9311C480.192 70.8871 480.242 70.8586 480.298 70.8518C480.353 70.845 480.409 70.8605 480.453 70.8948C480.982 71.2322 481.603 71.3986 482.23 71.3715C482.859 71.3997 483.481 71.2332 484.013 70.8948C484.056 70.8605 484.112 70.845 484.168 70.8518C484.223 70.8586 484.274 70.8871 484.308 70.9311C484.342 70.9751 484.358 71.0309 484.351 71.0863C484.344 71.1417 484.316 71.1921 484.272 71.2265L484.266 71.2161ZM484.095 69.7134C483.931 69.7134 483.771 69.6648 483.635 69.5737C483.498 69.4826 483.392 69.3531 483.329 69.2016C483.267 69.0501 483.25 68.8834 483.282 68.7226C483.314 68.5618 483.393 68.4141 483.509 68.2981C483.625 68.1822 483.773 68.1032 483.934 68.0712C484.095 68.0392 484.261 68.0556 484.413 68.1184C484.564 68.1811 484.694 68.2874 484.785 68.4237C484.876 68.5601 484.924 68.7204 484.924 68.8844C484.924 68.9932 484.903 69.101 484.861 69.2016C484.82 69.3022 484.759 69.3936 484.682 69.4706C484.605 69.5476 484.513 69.6086 484.413 69.6503C484.312 69.692 484.204 69.7134 484.095 69.7134Z" fill="white"/>
</g>
<g filter="url(#filter1_d_4005_905)">
<circle cx="47.454" cy="468.185" r="19.5751" fill="white"/>
</g>
<g clip-path="url(#clip1_4005_905)">
<path d="M42.3434 470.846C42.3434 471.911 41.4733 472.781 40.408 472.781C39.3428 472.781 38.4727 471.911 38.4727 470.846C38.4727 469.781 39.3428 468.911 40.408 468.911H42.3434V470.846Z" fill="#E01E5A"/>
<path d="M43.3184 470.846C43.3184 469.781 44.1886 468.911 45.2537 468.911C46.319 468.911 47.1891 469.781 47.1891 470.846V475.692C47.1891 476.757 46.319 477.627 45.2537 477.627C44.1886 477.627 43.3184 476.757 43.3184 475.692V470.846Z" fill="#E01E5A"/>
<path d="M45.2537 463.074C44.1886 463.074 43.3184 462.204 43.3184 461.139C43.3184 460.074 44.1886 459.204 45.2537 459.204C46.319 459.204 47.1891 460.074 47.1891 461.139V463.074H45.2537Z" fill="#36C5F0"/>
<path d="M45.254 464.05C46.3192 464.05 47.1894 464.92 47.1894 465.985C47.1894 467.05 46.3192 467.921 45.254 467.921H40.408C39.3428 467.921 38.4727 467.05 38.4727 465.985C38.4727 464.92 39.3428 464.05 40.408 464.05H45.254Z" fill="#36C5F0"/>
<path d="M53.0254 465.985C53.0254 464.92 53.8956 464.05 54.9608 464.05C56.026 464.05 56.8962 464.92 56.8962 465.985C56.8962 467.05 56.026 467.921 54.9608 467.921H53.0254V465.985Z" fill="#2EB67D"/>
<path d="M52.0505 465.985C52.0505 467.05 51.1803 467.92 50.1151 467.92C49.0499 467.92 48.1797 467.05 48.1797 465.985V461.139C48.1797 460.074 49.0499 459.204 50.1151 459.204C51.1803 459.204 52.0505 460.074 52.0505 461.139V465.985Z" fill="#2EB67D"/>
<path d="M50.1151 473.757C51.1803 473.757 52.0505 474.627 52.0505 475.692C52.0505 476.757 51.1803 477.628 50.1151 477.628C49.0499 477.628 48.1797 476.757 48.1797 475.692V473.757H50.1151Z" fill="#ECB22E"/>
<path d="M50.1151 472.781C49.0499 472.781 48.1797 471.911 48.1797 470.846C48.1797 469.781 49.0499 468.911 50.1151 468.911H54.961C56.0262 468.911 56.8964 469.781 56.8964 470.846C56.8964 471.911 56.0262 472.781 54.961 472.781H50.1151Z" fill="#ECB22E"/>
</g>
<g filter="url(#filter2_d_4005_905)">
<path d="M1014.95 209.793C1025.77 209.793 1034.53 201.029 1034.53 190.218C1034.53 179.407 1025.77 170.643 1014.95 170.643C1004.14 170.643 995.379 179.407 995.379 190.218C995.379 201.029 1004.14 209.793 1014.95 209.793Z" fill="white"/>
</g>
<path d="M1021.86 185.906C1021.34 186.136 1020.79 186.286 1020.23 186.353C1020.82 185.998 1021.27 185.439 1021.48 184.781C1020.92 185.112 1020.31 185.345 1019.67 185.47C1019.25 185.013 1018.68 184.709 1018.06 184.607C1017.44 184.505 1016.81 184.61 1016.25 184.905C1015.7 185.201 1015.26 185.671 1015.01 186.242C1014.75 186.813 1014.69 187.453 1014.83 188.063C1013.7 188.006 1012.59 187.712 1011.58 187.201C1010.57 186.689 1009.68 185.971 1008.97 185.092C1008.72 185.526 1008.58 186.02 1008.59 186.522C1008.59 187.507 1009.09 188.378 1009.85 188.888C1009.4 188.874 1008.96 188.752 1008.56 188.532V188.568C1008.56 189.224 1008.79 189.86 1009.21 190.368C1009.62 190.876 1010.2 191.225 1010.84 191.355C1010.42 191.469 1009.98 191.486 1009.56 191.404C1009.74 191.969 1010.09 192.463 1010.57 192.817C1011.05 193.172 1011.62 193.368 1012.21 193.379C1011.62 193.842 1010.95 194.184 1010.23 194.386C1009.5 194.588 1008.75 194.646 1008.01 194.556C1009.31 195.392 1010.82 195.835 1012.36 195.834C1017.59 195.834 1020.45 191.502 1020.45 187.745C1020.45 187.623 1020.45 187.499 1020.44 187.378C1021 186.976 1021.48 186.478 1021.86 185.907L1021.86 185.906Z" fill="#1CB7EB"/>
<defs>
<filter id="filter0_d_4005_905" x="404.404" y="0.256348" width="155.234" height="155.235" filterUnits="userSpaceOnUse" color-interpolation-filters="sRGB">
<feFlood flood-opacity="0" result="BackgroundImageFix"/>
<feColorMatrix in="SourceAlpha" type="matrix" values="0 0 0 0 0 0 0 0 0 0 0 0 0 0 0 0 0 0 127 0" result="hardAlpha"/>
<feOffset dy="10"/>
<feGaussianBlur stdDeviation="30"/>
<feComposite in2="hardAlpha" operator="out"/>
<feColorMatrix type="matrix" values="0 0 0 0 0.137255 0 0 0 0 0.454902 0 0 0 0 0.905882 0 0 0 0.25 0"/>
<feBlend mode="normal" in2="BackgroundImageFix" result="effect1_dropShadow_4005_905"/>
<feBlend mode="normal" in="SourceGraphic" in2="effect1_dropShadow_4005_905" result="shape"/>
</filter>
<filter id="filter1_d_4005_905" x="0.982985" y="426.197" width="92.9422" height="92.942" filterUnits="userSpaceOnUse" color-interpolation-filters="sRGB">
<feFlood flood-opacity="0" result="BackgroundImageFix"/>
<feColorMatrix in="SourceAlpha" type="matrix" values="0 0 0 0 0 0 0 0 0 0 0 0 0 0 0 0 0 0 127 0" result="hardAlpha"/>
<feOffset dy="4.48265"/>
<feGaussianBlur stdDeviation="13.448"/>
<feComposite in2="hardAlpha" operator="out"/>
<feColorMatrix type="matrix" values="0 0 0 0 0.137255 0 0 0 0 0.454902 0 0 0 0 0.905882 0 0 0 0.25 0"/>
<feBlend mode="normal" in2="BackgroundImageFix" result="effect1_dropShadow_4005_905"/>
<feBlend mode="normal" in="SourceGraphic" in2="effect1_dropShadow_4005_905" result="shape"/>
</filter>
<filter id="filter2_d_4005_905" x="972.087" y="170.195" width="92.9004" height="92.9004" filterUnits="userSpaceOnUse" color-interpolation-filters="sRGB">
<feFlood flood-opacity="0" result="BackgroundImageFix"/>
<feColorMatrix in="SourceAlpha" type="matrix" values="0 0 0 0 0 0 0 0 0 0 0 0 0 0 0 0 0 0 127 0" result="hardAlpha"/>
<feOffset dx="3.58333" dy="26.4271"/>
<feGaussianBlur stdDeviation="13.4375"/>
<feComposite in2="hardAlpha" operator="out"/>
<feColorMatrix type="matrix" values="0 0 0 0 0 0 0 0 0 0 0 0 0 0 0 0 0 0 0.08 0"/>
<feBlend mode="normal" in2="BackgroundImageFix" result="effect1_dropShadow_4005_905"/>
<feBlend mode="normal" in="SourceGraphic" in2="effect1_dropShadow_4005_905" result="shape"/>
</filter>
<linearGradient id="paint0_linear_4005_905" x1="627.428" y1="47.9473" x2="627.428" y2="503.771" gradientUnits="userSpaceOnUse">
<stop stop-color="white" stop-opacity="0.03"/>
<stop offset="1" stop-color="white" stop-opacity="0"/>
</linearGradient>
<linearGradient id="paint1_linear_4005_905" x1="627.428" y1="47.9473" x2="627.428" y2="737.982" gradientUnits="userSpaceOnUse">
<stop stop-color="white"/>
<stop offset="1" stop-color="white" stop-opacity="0"/>
</linearGradient>
<linearGradient id="paint2_linear_4005_905" x1="489.221" y1="60.7878" x2="474.92" y2="75.7083" gradientUnits="userSpaceOnUse">
<stop stop-color="#FFA22E"/>
<stop offset="0.33" stop-color="#FB622D"/>
<stop offset="0.64" stop-color="#F82F2D"/>
<stop offset="0.87" stop-color="#F60F2C"/>
<stop offset="1" stop-color="#F5032C"/>
</linearGradient>
<clipPath id="clip0_4005_905">
<rect width="16.5813" height="16.5813" fill="white" transform="translate(473.939 59.7905)"/>
</clipPath>
<clipPath id="clip1_4005_905">
<rect width="18.4236" height="18.4236" fill="white" transform="translate(38.4727 459.204)"/>
</clipPath>
</defs>
</svg>
