<svg width="209" height="142" viewBox="0 0 209 142" fill="none" xmlns="http://www.w3.org/2000/svg">
<path d="M203.013 0H5.48684C2.45654 0 0 1.92141 0 4.29159V137.331C0 139.701 2.45654 141.623 5.48684 141.623H203.013C206.043 141.623 208.5 139.701 208.5 137.331V4.29159C208.5 1.92141 206.043 0 203.013 0Z" fill="white"/>
<path d="M16.4941 17.7334H18.5642L20.9085 24.876C21.073 25.406 21.1553 25.8493 21.1553 26.2058H21.3746C21.3746 25.8767 21.4615 25.4334 21.6351 24.876L23.9657 17.7334H26.0358L22.348 28.1936H20.1819L16.4941 17.7334ZM26.504 28.1936V20.5027H28.3547V28.1936H26.504ZM27.4362 19.6527C27.1163 19.6527 26.8467 19.5568 26.6273 19.3648C26.408 19.1729 26.2983 18.917 26.2983 18.5971C26.2983 18.2955 26.408 18.0442 26.6273 17.8431C26.8467 17.6421 27.1163 17.5415 27.4362 17.5415C27.7469 17.5415 28.012 17.6421 28.2313 17.8431C28.4598 18.0442 28.5741 18.2955 28.5741 18.5971C28.5741 18.9078 28.4644 19.1638 28.245 19.3648C28.0257 19.5568 27.756 19.6527 27.4362 19.6527ZM32.9584 28.3444C32.008 28.3444 31.1854 28.1159 30.4907 27.6589C29.7962 27.2019 29.3895 26.5165 29.2706 25.6026H31.094C31.2128 26.0138 31.4322 26.3337 31.752 26.5622C32.0719 26.7815 32.4695 26.8912 32.9447 26.8912C33.3469 26.8912 33.6713 26.8136 33.9181 26.6582C34.174 26.5028 34.3019 26.2834 34.3019 26.0001C34.3019 25.6894 34.1511 25.4655 33.8495 25.3284C33.5571 25.1913 33.1001 25.0633 32.4786 24.9445C31.8846 24.8257 31.391 24.6977 30.998 24.5606C30.605 24.4236 30.2714 24.2042 29.9972 23.9026C29.723 23.5919 29.5859 23.1714 29.5859 22.6414C29.5859 21.8827 29.8647 21.3116 30.4222 20.9277C30.9889 20.5347 31.7018 20.3382 32.5608 20.3382C33.4657 20.3382 34.2151 20.5667 34.8092 21.0237C35.4124 21.4807 35.7825 22.125 35.9196 22.9567H34.1785C34.0781 22.5545 33.8815 22.2621 33.589 22.0793C33.2966 21.8873 32.9493 21.7914 32.5471 21.7914C32.1816 21.7914 31.8891 21.8645 31.6697 22.0107C31.4596 22.1478 31.3544 22.3352 31.3544 22.5728C31.3544 22.8561 31.4961 23.0572 31.7794 23.176C32.0628 23.2948 32.5106 23.4137 33.1229 23.5325C33.7536 23.6512 34.2654 23.7792 34.6584 23.9163C35.0605 24.0443 35.4033 24.2636 35.6866 24.5744C35.979 24.8851 36.1253 25.3147 36.1253 25.863C36.1253 26.6216 35.842 27.2248 35.2753 27.6727C34.7178 28.1205 33.9455 28.3444 32.9584 28.3444ZM37.1147 28.1936V20.5027H38.9655V28.1936H37.1147ZM38.047 19.6527C37.727 19.6527 37.4575 19.5568 37.2381 19.3648C37.0188 19.1729 36.9091 18.917 36.9091 18.5971C36.9091 18.2955 37.0188 18.0442 37.2381 17.8431C37.4575 17.6421 37.727 17.5415 38.047 17.5415C38.3577 17.5415 38.6227 17.6421 38.8421 17.8431C39.0706 18.0442 39.1848 18.2955 39.1848 18.5971C39.1848 18.9078 39.0751 19.1638 38.8558 19.3648C38.6365 19.5568 38.3668 19.6527 38.047 19.6527ZM42.6507 28.1936C41.4534 28.1936 40.8547 27.6315 40.8547 26.5074V21.9833H39.7169V20.5027H40.8547V17.7334H42.7055V20.5027H44.1861V21.9833H42.7055V25.9453C42.7055 26.1829 42.742 26.3612 42.8152 26.4799C42.8974 26.5987 43.0711 26.6582 43.3361 26.6582H44.1724V28.1936H42.6507ZM48.5734 28.3444C47.8057 28.3444 47.1248 28.1753 46.5307 27.8372C45.9366 27.499 45.4705 27.0237 45.1324 26.4114C44.8034 25.7991 44.6388 25.0953 44.6388 24.3002C44.6388 23.5325 44.8034 22.847 45.1324 22.2438C45.4705 21.6406 45.9366 21.1745 46.5307 20.8454C47.1248 20.5073 47.8057 20.3382 48.5734 20.3382C49.3411 20.3382 50.022 20.5073 50.6161 20.8454C51.2193 21.1836 51.6854 21.6543 52.0144 22.2575C52.3526 22.8516 52.5217 23.5325 52.5217 24.3002C52.5217 25.0953 52.3572 25.7991 52.0281 26.4114C51.6991 27.0237 51.233 27.499 50.6298 27.8372C50.0357 28.1753 49.3502 28.3444 48.5734 28.3444ZM48.5734 26.7541C49.1766 26.7541 49.6656 26.5257 50.0403 26.0687C50.415 25.6117 50.6024 25.0222 50.6024 24.3002C50.6024 23.6056 50.415 23.0389 50.0403 22.6002C49.6656 22.1524 49.1766 21.9285 48.5734 21.9285C48.1804 21.9285 47.8285 22.029 47.5178 22.2301C47.207 22.4311 46.9648 22.7145 46.7912 23.08C46.6175 23.4365 46.5307 23.8432 46.5307 24.3002C46.5307 25.0314 46.7181 25.6254 47.0928 26.0824C47.4767 26.5302 47.9702 26.7541 48.5734 26.7541ZM53.486 20.5027H55.3368V20.7495C55.3368 20.8957 55.3231 21.0145 55.2957 21.1059C55.2683 21.1973 55.2134 21.2887 55.1312 21.3801L55.3231 21.5172C55.6064 21.0968 55.9217 20.7952 56.269 20.6124C56.6163 20.4296 57.0368 20.3382 57.5303 20.3382H57.7496V22.1204H57.3246C56.7397 22.1204 56.2827 22.2758 55.9537 22.5865C55.7435 22.7967 55.5881 23.0663 55.4876 23.3954C55.387 23.7153 55.3368 24.1265 55.3368 24.6292V28.1936H53.486V20.5027ZM61.7612 28.3444C60.8108 28.3444 59.9882 28.1159 59.2936 27.6589C58.599 27.2019 58.1923 26.5165 58.0734 25.6026H59.8968C60.0156 26.0138 60.235 26.3337 60.5548 26.5622C60.8747 26.7815 61.2723 26.8912 61.7475 26.8912C62.1497 26.8912 62.4741 26.8136 62.7209 26.6582C62.9768 26.5028 63.1047 26.2834 63.1047 26.0001C63.1047 25.6894 62.9539 25.4655 62.6523 25.3284C62.3599 25.1913 61.9029 25.0633 61.2814 24.9445C60.6874 24.8257 60.1939 24.6977 59.8008 24.5606C59.4078 24.4236 59.0742 24.2042 58.8 23.9026C58.5259 23.5919 58.3888 23.1714 58.3888 22.6414C58.3888 21.8827 58.6675 21.3116 59.225 20.9277C59.7917 20.5347 60.5046 20.3382 61.3637 20.3382C62.2685 20.3382 63.018 20.5667 63.612 21.0237C64.2152 21.4807 64.5853 22.125 64.7225 22.9567H62.9814C62.8809 22.5545 62.6843 22.2621 62.3919 22.0793C62.0994 21.8873 61.7521 21.7914 61.35 21.7914C60.9844 21.7914 60.6919 21.8645 60.4726 22.0107C60.2624 22.1478 60.1572 22.3352 60.1572 22.5728C60.1572 22.8561 60.2989 23.0572 60.5822 23.176C60.8656 23.2948 61.3134 23.4137 61.9257 23.5325C62.5564 23.6512 63.0682 23.7792 63.4612 23.9163C63.8633 24.0443 64.2061 24.2636 64.4894 24.5744C64.7819 24.8851 64.9281 25.3147 64.9281 25.863C64.9281 26.6216 64.6448 27.2248 64.0781 27.6727C63.5206 28.1205 62.7483 28.3444 61.7612 28.3444Z" fill="#04091E"/>
<path d="M183.706 24.7657L180.621 21.6812H186.79L183.706 24.7657Z" fill="#04091E"/>
<path d="M16.4512 37.2095H191.93" stroke="#F5F5F5" stroke-width="0.546416"/>
<path d="M39.3381 90.481H15.7344V110.151H39.3381V90.481Z" fill="#F0F9E0"/>
<path d="M64.9102 76.7119H43.2734V110.151H64.9102V76.7119Z" fill="#F0F9E0"/>
<path d="M90.4805 49.1743H68.8438V110.151H90.4805V49.1743Z" fill="url(#paint0_linear_2464_4084)"/>
<g filter="url(#filter0_d_2464_4084)">
<path d="M79.5132 66.3105C81.7846 66.3105 83.6259 64.4692 83.6259 62.1977C83.6259 59.9263 81.7846 58.085 79.5132 58.085C77.2417 58.085 75.4004 59.9263 75.4004 62.1977C75.4004 64.4692 77.2417 66.3105 79.5132 66.3105Z" fill="#F0F9E0"/>
</g>
<path d="M79.5135 63.567C80.2706 63.567 80.8844 62.9533 80.8844 62.1961C80.8844 61.439 80.2706 60.8252 79.5135 60.8252C78.7564 60.8252 78.1426 61.439 78.1426 62.1961C78.1426 62.9533 78.7564 63.567 79.5135 63.567Z" fill="url(#paint1_linear_2464_4084)"/>
<path d="M67.861 53.9702H35.6442C34.1299 53.9702 32.9023 55.1978 32.9023 56.7121V67.6795C32.9023 69.1938 34.1299 70.4213 35.6442 70.4213H67.861C69.3752 70.4213 70.6028 69.1938 70.6028 67.6795V56.7121C70.6028 55.1978 69.3752 53.9702 67.861 53.9702Z" fill="#111827"/>
<path d="M41.9888 65.0121C41.4678 64.9572 41.0246 64.7879 40.659 64.5048C40.298 64.2217 40.0855 63.8125 40.0215 63.2779H40.8989C40.9766 63.5884 41.1388 63.8379 41.3856 64.025C41.4267 64.0524 41.4724 64.0798 41.5227 64.1073C41.573 64.1299 41.6095 64.1484 41.6323 64.1621C41.7786 64.2306 41.8951 64.304 41.9819 64.3814L42.0573 64.3198C42.0254 64.1827 42.0048 64.0682 41.9956 63.977C41.9911 63.8811 41.9888 63.7762 41.9888 63.6617V62.5924C41.6095 62.5149 41.2919 62.4231 41.036 62.3182C40.7847 62.2133 40.5813 62.0646 40.4259 61.8726C40.2751 61.6759 40.1997 61.4223 40.1997 61.1118C40.1997 60.8054 40.2751 60.5408 40.4259 60.3167C40.5813 60.0925 40.7938 59.9211 41.0634 59.8026C41.333 59.684 41.6415 59.6223 41.9888 59.6175V58.7949H42.4V59.638C42.8342 59.7203 43.1975 59.8937 43.4899 60.159C43.7824 60.4195 43.9606 60.7739 44.0246 61.2215H43.1678C43.1175 61.0021 43.0147 60.815 42.8593 60.6594C42.8365 60.6368 42.7794 60.5888 42.6879 60.5154L42.4069 60.2755L42.3315 60.3304C42.3772 60.4949 42.4 60.6525 42.4 60.8033V61.8726C42.7794 61.9549 43.0947 62.0529 43.346 62.1674C43.6019 62.2771 43.8052 62.4347 43.956 62.6404C44.1068 62.846 44.1822 63.1113 44.1822 63.4355C44.1822 63.9064 44.0246 64.2834 43.7093 64.5665C43.3986 64.8455 42.9621 64.9963 42.4 65.0189V65.91H41.9888V65.0121ZM42.0642 61.8452C42.0322 61.7266 42.0117 61.6307 42.0025 61.5573C41.9934 61.4799 41.9888 61.3976 41.9888 61.3106V60.7553C41.9888 60.6779 41.9911 60.6066 41.9956 60.5428C42.0048 60.4743 42.0254 60.3831 42.0573 60.2687L41.9819 60.207C41.8585 60.2892 41.7489 60.3489 41.6529 60.3852C41.5569 60.4215 41.493 60.4469 41.461 60.4606C41.1914 60.5888 41.0565 60.7807 41.0565 61.0364C41.0565 61.1783 41.0954 61.2969 41.1731 61.3928C41.2508 61.484 41.365 61.5621 41.5158 61.6259C41.5387 61.6396 41.5935 61.667 41.6803 61.7081C41.7672 61.7445 41.87 61.8089 41.9888 61.9001L42.0642 61.8452ZM42.4069 64.4089C42.4892 64.3403 42.6034 64.2807 42.7496 64.2306C42.7679 64.2217 42.8045 64.2053 42.8593 64.1827C42.9187 64.1552 42.969 64.1278 43.0101 64.1004C43.2157 63.9585 43.3186 63.7577 43.3186 63.4972C43.3186 63.3601 43.2889 63.2415 43.2295 63.1408C43.1746 63.04 43.0901 62.9509 42.9758 62.8734C42.9484 62.8549 42.9141 62.8371 42.873 62.8186C42.8319 62.796 42.8022 62.7795 42.7839 62.7706C42.6286 62.7021 42.5029 62.6315 42.4069 62.5581L42.3315 62.613C42.3635 62.7411 42.3818 62.846 42.3863 62.9283C42.3955 63.0057 42.4 63.0928 42.4 63.1887V63.7165C42.4 63.8262 42.3955 63.9242 42.3863 64.0113C42.3818 64.0984 42.3635 64.208 42.3315 64.3403L42.4069 64.4089ZM44.7338 64.2512L46.3789 62.8254C46.7261 62.5328 46.9821 62.2634 47.1466 62.0166C47.3111 61.7698 47.3934 61.5114 47.3934 61.242C47.3934 60.9726 47.3202 60.7622 47.174 60.6114C47.0323 60.4558 46.8198 60.3783 46.5365 60.3783C45.915 60.3783 45.5837 60.7553 45.5426 61.5094H44.7269C44.7497 60.9151 44.9188 60.4537 45.2342 60.1247C45.5495 59.7957 45.9858 59.6312 46.5434 59.6312C46.8678 59.6312 47.1557 59.6949 47.4071 59.8231C47.663 59.9465 47.8595 60.1247 47.9966 60.3578C48.1382 60.5908 48.2091 60.863 48.2091 61.1735C48.2091 61.5848 48.0902 61.9686 47.8526 62.3251C47.615 62.6815 47.3065 63.0242 46.9273 63.3533L46.2898 63.9016C46.1527 64.0202 46.0178 64.121 45.8853 64.2032L45.9265 64.2855C46.0453 64.2354 46.139 64.2012 46.2075 64.1827C46.2761 64.1642 46.3606 64.1552 46.4611 64.1552H48.4421V64.9367H44.7338V64.2512ZM49.0211 65.6838C49.2495 65.6653 49.4255 65.5927 49.5489 65.4645C49.6768 65.3411 49.7408 65.1766 49.7408 64.9709C49.7408 64.9209 49.7385 64.8818 49.7339 64.8544H49.6517C49.6243 64.9552 49.542 65.0052 49.4049 65.0052C49.2907 65.0052 49.1901 64.962 49.1033 64.875C49.0211 64.7879 48.9799 64.6714 48.9799 64.5254C48.9799 64.3746 49.0279 64.2512 49.1239 64.1552C49.2244 64.0593 49.3569 64.0113 49.5215 64.0113C49.7316 64.0113 49.8939 64.0915 50.0081 64.2512C50.1269 64.4068 50.1864 64.6166 50.1864 64.8818C50.1864 65.1971 50.0904 65.4713 49.8985 65.7044C49.7111 65.9422 49.4186 66.0766 49.0211 66.1088V65.6838ZM52.6503 65.0258C52.2802 65.0258 51.9511 64.9572 51.6633 64.8201C51.3799 64.6783 51.1583 64.4843 50.9984 64.2375C50.843 63.9859 50.7653 63.7028 50.7653 63.3875C50.7653 63.0907 50.8476 62.8254 51.0121 62.5924C51.1766 62.3545 51.4165 62.1948 51.7318 62.1126V62.0303C51.4896 61.9666 51.3045 61.8432 51.1766 61.6602C51.0532 61.473 50.9915 61.2646 50.9915 61.0364C50.9915 60.7622 51.0623 60.5175 51.204 60.3029C51.3457 60.0884 51.5421 59.9211 51.7935 59.8026C52.0449 59.684 52.3304 59.6243 52.6503 59.6243C52.9747 59.6243 53.2626 59.684 53.514 59.8026C53.7654 59.9211 53.9596 60.0884 54.0966 60.3029C54.2383 60.5175 54.3091 60.7622 54.3091 61.0364C54.3091 61.2646 54.2452 61.473 54.1172 61.6602C53.9938 61.8473 53.811 61.9707 53.5688 62.0303V62.1126C53.8887 62.1948 54.1287 62.3525 54.2886 62.5855C54.4531 62.8186 54.5353 63.0859 54.5353 63.3875C54.5353 63.7076 54.4577 63.9907 54.3023 64.2375C54.1469 64.4843 53.9253 64.6783 53.6374 64.8201C53.3541 64.9572 53.0251 65.0258 52.6503 65.0258ZM52.6503 61.8041C52.9108 61.8041 53.1118 61.7376 53.2535 61.6053C53.3952 61.473 53.466 61.2969 53.466 61.0775C53.466 60.863 53.3929 60.6868 53.2467 60.5497C53.1005 60.4126 52.9017 60.3441 52.6503 60.3441C52.399 60.3441 52.2002 60.4126 52.054 60.5497C51.9078 60.6868 51.8346 60.863 51.8346 61.0775C51.8346 61.2969 51.9054 61.473 52.0471 61.6053C52.1888 61.7376 52.3898 61.8041 52.6503 61.8041ZM52.6503 64.2718C52.9565 64.2718 53.201 64.1875 53.3838 64.0182C53.5711 63.8488 53.6648 63.6226 53.6648 63.3395C53.6648 63.0654 53.5734 62.8439 53.3906 62.6746C53.2124 62.5012 52.9656 62.4142 52.6503 62.4142C52.335 62.4142 52.086 62.5012 51.9032 62.6746C51.7249 62.8439 51.6358 63.0654 51.6358 63.3395C51.6358 63.6226 51.7295 63.8488 51.9169 64.0182C52.1042 64.1875 52.3487 64.2718 52.6503 64.2718ZM56.9558 59.6175C57.5909 59.6175 58.0731 59.8416 58.4021 60.2892C58.7357 60.7368 58.9025 61.3606 58.9025 62.1605C58.9025 63.0516 58.7357 63.7508 58.4021 64.2581C58.0685 64.7653 57.5796 65.0189 56.9352 65.0189C56.4462 65.0189 56.0486 64.8866 55.7425 64.6214C55.4409 64.352 55.2558 63.9818 55.1873 63.5109H55.9824C56.0418 63.7577 56.1515 63.9475 56.3114 64.0798C56.4714 64.208 56.6793 64.2718 56.9352 64.2718C57.2596 64.2718 57.5087 64.1669 57.6824 63.9565C57.8606 63.746 57.9794 63.4492 58.0388 63.0654C58.0799 62.846 58.1279 62.663 58.1828 62.517L58.0937 62.469C57.8149 62.9262 57.4036 63.1545 56.8598 63.1545C56.5308 63.1545 56.2406 63.0839 55.9893 62.942C55.7379 62.8001 55.5414 62.5992 55.3998 62.3388C55.2627 62.0783 55.1941 61.7767 55.1941 61.434C55.1941 61.0864 55.2672 60.7759 55.4135 60.5017C55.5643 60.2227 55.7745 60.0061 56.0441 59.8505C56.3137 59.6949 56.6176 59.6175 56.9558 59.6175ZM56.9695 60.3715C56.6907 60.3715 56.4691 60.4695 56.3046 60.6662C56.1446 60.863 56.0647 61.1138 56.0647 61.4202C56.0647 61.7266 56.1446 61.9734 56.3046 62.1605C56.4645 62.3477 56.6861 62.4416 56.9695 62.4416C57.2665 62.4416 57.5064 62.3477 57.6892 62.1605C57.8766 61.9686 57.9703 61.7219 57.9703 61.4202C57.9703 61.1097 57.8766 60.8582 57.6892 60.6662C57.5064 60.4695 57.2665 60.3715 56.9695 60.3715ZM61.474 65.0189C60.8708 65.0189 60.4047 64.7975 60.0757 64.354C59.7466 63.9105 59.5821 63.2299 59.5821 62.3113C59.5821 61.3976 59.7444 60.7211 60.0688 60.2824C60.3933 59.8437 60.8526 59.6243 61.4466 59.6243C62.0453 59.6243 62.5068 59.8457 62.8312 60.2892C63.1603 60.7327 63.3248 61.4154 63.3248 62.3388C63.3248 63.2484 63.1626 63.9222 62.8381 64.3609C62.5182 64.7996 62.0635 65.0189 61.474 65.0189ZM61.4534 64.2375C61.7734 64.2375 62.0201 64.0888 62.1937 63.7919C62.3674 63.4951 62.4542 63.0085 62.4542 62.3319C62.4542 61.6464 62.3651 61.1529 62.1869 60.8513C62.0087 60.5497 61.7574 60.3989 61.4329 60.3989C61.113 60.3989 60.8685 60.5497 60.6994 60.8513C60.5349 61.1529 60.4527 61.6416 60.4527 62.3182C60.4527 63.0037 60.5373 63.4951 60.7063 63.7919C60.88 64.0888 61.129 64.2375 61.4534 64.2375Z" fill="url(#paint2_linear_2464_4084)"/>
<path d="M72.6619 62.197L70.6055 64.2534V60.1406L72.6619 62.197Z" fill="#111827"/>
<path d="M116.053 68.8447H94.416V110.151H116.053V68.8447Z" fill="#F0F9E0"/>
<path d="M141.623 59.0093H119.986V110.151H141.623V59.0093Z" fill="#F0F9E0"/>
<path d="M167.193 76.7124H145.557V110.151H167.193V76.7124Z" fill="#F0F9E0"/>
<path d="M192.764 64.9106H171.127V110.151H192.764V64.9106Z" fill="#F0F9E0"/>
<path opacity="0.4" d="M24.7559 122.038H26.2296L27.2304 125.54C27.276 125.691 27.308 125.833 27.3263 125.965C27.3492 126.093 27.3606 126.246 27.3606 126.425H27.4703C27.4703 126.246 27.4794 126.093 27.4977 125.965C27.5205 125.833 27.5548 125.691 27.6005 125.54L28.6013 122.038H30.0751V127.268H29.2045V123.525C29.2045 123.283 29.2182 123.025 29.2456 122.75L29.136 122.737C29.0765 123.075 29.0171 123.338 28.9577 123.525L27.8404 127.268H26.9905L25.8732 123.525C25.8137 123.338 25.7543 123.075 25.6949 122.737L25.5921 122.75C25.615 123.025 25.6264 123.283 25.6264 123.525V127.268H24.7559V122.038Z" fill="#04091E"/>
<path opacity="0.4" d="M53.0279 127.268V122.819H51.3828V122.038H55.5573V122.819H53.8985V127.268H53.0279Z" fill="#04091E"/>
<path opacity="0.4" d="M75.8555 122.038H76.7671L77.7473 125.746C77.7933 125.897 77.8227 126.013 77.8365 126.096C77.855 126.173 77.8639 126.258 77.8639 126.349H77.9735C77.9735 126.253 77.9804 126.164 77.9941 126.082C78.0078 126 78.0332 125.888 78.0695 125.746L78.9949 122.038H80.0299L80.9553 125.746C80.9916 125.883 81.017 125.995 81.0307 126.082C81.0492 126.164 81.0581 126.253 81.0581 126.349H81.1678C81.1678 126.258 81.1747 126.173 81.1884 126.096C81.2069 126.018 81.2364 125.902 81.2775 125.746L82.2577 122.038H83.1694L81.7436 127.268H80.5715L79.6255 123.532C79.5892 123.363 79.5707 123.191 79.5707 123.018H79.461C79.461 123.201 79.4404 123.372 79.3993 123.532L78.4534 127.268H77.2881L75.8555 122.038Z" fill="#04091E"/>
<path opacity="0.4" d="M105.122 127.268V122.819H103.477V122.038H107.651V122.819H105.992V127.268H105.122Z" fill="#04091E"/>
<path opacity="0.4" d="M130.031 127.268V122.038H133.493V122.819H130.902V124.259H133.205V125.033H130.902V127.268H130.031Z" fill="#04091E"/>
<path opacity="0.4" d="M157.796 127.355C157.435 127.355 157.092 127.295 156.768 127.176C156.448 127.058 156.176 126.868 155.952 126.607C155.733 126.347 155.6 126.013 155.555 125.607H156.439C156.516 125.963 156.681 126.219 156.932 126.374C157.188 126.53 157.481 126.607 157.81 126.607C158.125 126.607 158.376 126.541 158.564 126.409C158.751 126.276 158.845 126.08 158.845 125.819C158.845 125.627 158.785 125.474 158.667 125.36C158.552 125.245 158.408 125.161 158.235 125.106C158.061 125.047 157.821 124.983 157.515 124.914C157.135 124.832 156.827 124.748 156.59 124.661C156.352 124.574 156.148 124.434 155.98 124.243C155.815 124.051 155.733 123.788 155.733 123.454C155.733 123.139 155.81 122.87 155.966 122.645C156.121 122.417 156.333 122.246 156.603 122.131C156.878 122.013 157.188 121.953 157.536 121.953C158.057 121.953 158.504 122.088 158.879 122.358C159.258 122.627 159.489 123.025 159.572 123.55H158.701C158.632 123.262 158.493 123.05 158.283 122.913C158.072 122.771 157.819 122.7 157.522 122.7C157.238 122.7 157.015 122.76 156.85 122.879C156.686 122.997 156.603 123.164 156.603 123.379C156.603 123.548 156.656 123.683 156.761 123.783C156.871 123.884 157.008 123.962 157.172 124.016C157.337 124.066 157.56 124.124 157.844 124.188C158.246 124.275 158.571 124.366 158.817 124.462C159.064 124.553 159.274 124.704 159.448 124.914C159.626 125.12 159.715 125.403 159.715 125.764C159.715 126.253 159.546 126.642 159.208 126.93C158.874 127.213 158.403 127.355 157.796 127.355Z" fill="#04091E"/>
<path opacity="0.4" d="M183.843 127.355C183.482 127.355 183.139 127.295 182.815 127.176C182.495 127.058 182.223 126.868 181.999 126.607C181.78 126.347 181.647 126.013 181.602 125.607H182.486C182.563 125.963 182.728 126.219 182.979 126.374C183.235 126.53 183.528 126.607 183.857 126.607C184.172 126.607 184.423 126.541 184.611 126.409C184.798 126.276 184.892 126.08 184.892 125.819C184.892 125.627 184.832 125.474 184.714 125.36C184.599 125.245 184.455 125.161 184.282 125.106C184.108 125.047 183.868 124.983 183.562 124.914C183.182 124.832 182.874 124.748 182.637 124.661C182.399 124.574 182.195 124.434 182.027 124.243C181.862 124.051 181.78 123.788 181.78 123.454C181.78 123.139 181.857 122.87 182.013 122.645C182.168 122.417 182.38 122.246 182.65 122.131C182.925 122.013 183.235 121.953 183.583 121.953C184.103 121.953 184.551 122.088 184.926 122.358C185.305 122.627 185.536 123.025 185.618 123.55H184.748C184.679 123.262 184.539 123.05 184.33 122.913C184.119 122.771 183.866 122.7 183.569 122.7C183.285 122.7 183.062 122.76 182.897 122.879C182.733 122.997 182.65 123.164 182.65 123.379C182.65 123.548 182.702 123.683 182.808 123.783C182.918 123.884 183.055 123.962 183.219 124.016C183.384 124.066 183.607 124.124 183.891 124.188C184.293 124.275 184.618 124.366 184.864 124.462C185.111 124.553 185.321 124.704 185.495 124.914C185.673 125.12 185.762 125.403 185.762 125.764C185.762 126.253 185.593 126.642 185.255 126.93C184.921 127.213 184.45 127.355 183.843 127.355Z" fill="#04091E"/>
<defs>
<filter id="filter0_d_2464_4084" x="73.2147" y="58.085" width="12.5959" height="12.5969" filterUnits="userSpaceOnUse" color-interpolation-filters="sRGB">
<feFlood flood-opacity="0" result="BackgroundImageFix"/>
<feColorMatrix in="SourceAlpha" type="matrix" values="0 0 0 0 0 0 0 0 0 0 0 0 0 0 0 0 0 0 127 0" result="hardAlpha"/>
<feOffset dy="2.18566"/>
<feGaussianBlur stdDeviation="1.09283"/>
<feComposite in2="hardAlpha" operator="out"/>
<feColorMatrix type="matrix" values="0 0 0 0 0 0 0 0 0 0 0 0 0 0 0 0 0 0 0.08 0"/>
<feBlend mode="normal" in2="BackgroundImageFix" result="effect1_dropShadow_2464_4084"/>
<feBlend mode="normal" in="SourceGraphic" in2="effect1_dropShadow_2464_4084" result="shape"/>
</filter>
<linearGradient id="paint0_linear_2464_4084" x1="68.3876" y1="53.9568" x2="92.4055" y2="54.6133" gradientUnits="userSpaceOnUse">
<stop stop-color="#9FE871"/>
<stop offset="1" stop-color="#6BD723"/>
</linearGradient>
<linearGradient id="paint1_linear_2464_4084" x1="78.0848" y1="61.0402" x2="81.1127" y2="61.2735" gradientUnits="userSpaceOnUse">
<stop stop-color="#9FE871"/>
<stop offset="1" stop-color="#6BD723"/>
</linearGradient>
<linearGradient id="paint2_linear_2464_4084" x1="39.5302" y1="59.3686" x2="63.9466" y2="65.361" gradientUnits="userSpaceOnUse">
<stop stop-color="#9FE871"/>
<stop offset="1" stop-color="#6BD723"/>
</linearGradient>
</defs>
</svg>
