<svg width="254" height="310" viewBox="0 0 254 310" fill="none" xmlns="http://www.w3.org/2000/svg">
<path opacity="0.19" d="M120.975 237.089L120.609 235.915L120.052 237.012L86.7841 302.527L49.9414 282.675L86.0361 217.769L86.6438 216.676L85.4502 217.049L13.2129 239.585L0.839111 199.922L73.421 177.278L74.5985 176.911L73.4976 176.355L6.15872 142.332L25.3536 105.616L117.676 154.242L118.12 154.476L118.352 154.031L166.649 61.535L203.281 80.715L167.233 146.99L166.643 148.074L167.821 147.707L240.415 125.059L252.823 164.833L180.586 187.369L179.392 187.741L180.514 188.295L247.111 221.163L228.092 258.443L163.473 223.465L162.392 222.88L162.758 224.054L185.05 295.509L143.267 308.544L120.975 237.089ZM81.3082 109.942L51.5392 14.5199L93.3224 1.48467L123.091 96.9062L81.3082 109.942Z" stroke="url(#paint0_linear_2325_1003)"/>
<defs>
<linearGradient id="paint0_linear_2325_1003" x1="41.1432" y1="330.817" x2="283.308" y2="47.9378" gradientUnits="userSpaceOnUse">
<stop stop-color="#858DD7"/>
<stop offset="1" stop-color="#8A2EFF"/>
</linearGradient>
</defs>
</svg>
