<svg width="183" height="178" viewBox="0 0 183 178" fill="none" xmlns="http://www.w3.org/2000/svg">
<path d="M177.558 0H4.79886C2.14852 0 0 1.82156 0 4.06857V173.931C0 176.178 2.14852 178 4.79886 178H177.558C180.208 178 182.357 176.178 182.357 173.931V4.06857C182.357 1.82156 180.208 0 177.558 0Z" fill="white"/>
<path d="M15.2109 23.0049V13.8602H16.9385V23.0049H15.2109ZM18.1295 16.2812H19.7492V16.4969C19.7492 16.6247 19.7372 16.7287 19.7132 16.8085C19.6892 16.8884 19.6412 16.9684 19.5692 17.0482L19.7372 17.1681C19.9931 16.7925 20.265 16.5289 20.553 16.3771C20.8489 16.2172 21.1928 16.1374 21.5847 16.1374C22.6245 16.1374 23.3243 16.5129 23.6842 17.264C23.8042 17.5277 23.8801 17.7953 23.9122 18.067C23.9441 18.3386 23.9602 18.6942 23.9602 19.1337V23.0049H22.3525V19.1097C22.3525 18.4625 22.2405 18.015 22.0166 17.7674C21.8247 17.5676 21.5407 17.4677 21.1648 17.4677C20.7169 17.4677 20.377 17.6036 20.1451 17.8752C20.0091 18.035 19.9091 18.2508 19.8451 18.5224C19.7811 18.7861 19.7492 19.1377 19.7492 19.5771V23.0049H18.1295V16.2812ZM27.0278 23.0049C25.9801 23.0049 25.4562 22.5135 25.4562 21.5307V17.5756H24.4604V16.2812H25.4562V13.8602H27.0758V16.2812H28.3715V17.5756H27.0758V21.0393C27.0758 21.2471 27.1078 21.4029 27.1718 21.5067C27.2438 21.6106 27.3958 21.6626 27.6277 21.6626H28.3595V23.0049H27.0278ZM32.1989 23.1367C31.5191 23.1367 30.9192 22.9889 30.3993 22.6933C29.8794 22.3977 29.4755 21.9902 29.1876 21.4708C28.9077 20.9434 28.7677 20.3482 28.7677 19.685C28.7677 19.0697 28.8917 18.4944 29.1396 17.9591C29.3956 17.4158 29.7755 16.9763 30.2794 16.6407C30.7912 16.3052 31.4151 16.1374 32.1509 16.1374C32.7587 16.1374 33.3187 16.2652 33.8305 16.5209C34.3424 16.7686 34.7543 17.1561 35.0662 17.6835C35.3781 18.2028 35.5341 18.85 35.5341 19.6251V19.9726H31.2631C31.2151 19.9726 31.0832 19.9726 30.8672 19.9726C30.6513 19.9726 30.4793 19.9607 30.3513 19.9367L30.3033 20.1165C30.3674 20.1325 30.4153 20.1644 30.4473 20.2123C30.4873 20.2603 30.5193 20.3282 30.5433 20.4161C30.6073 20.5839 30.6592 20.6997 30.6993 20.7637C30.8592 21.0753 31.0712 21.319 31.3351 21.4948C31.607 21.6626 31.915 21.7464 32.2589 21.7464C32.6268 21.7464 32.9427 21.6546 33.2067 21.4708C33.4706 21.279 33.6585 21.0353 33.7705 20.7397H35.4261C35.2102 21.4508 34.8303 22.0301 34.2864 22.4775C33.7425 22.917 33.0467 23.1367 32.1989 23.1367ZM30.4953 18.9419C30.6153 18.87 30.7232 18.8221 30.8192 18.7981C30.9152 18.7741 31.0232 18.7621 31.1431 18.7621H33.2307C33.3586 18.7621 33.4706 18.7741 33.5666 18.7981C33.6705 18.8221 33.7865 18.87 33.9145 18.9419L34.0105 18.7741C33.9545 18.7422 33.9145 18.7142 33.8905 18.6902C33.8665 18.6583 33.8465 18.6263 33.8305 18.5943C33.8225 18.5624 33.8185 18.5424 33.8185 18.5344C33.7865 18.3986 33.7225 18.2667 33.6266 18.1389C33.4746 17.9072 33.2746 17.7314 33.0267 17.6115C32.7788 17.4837 32.5028 17.4198 32.1989 17.4198C31.895 17.4198 31.619 17.4797 31.3711 17.5996C31.1312 17.7194 30.9352 17.8992 30.7832 18.1389C30.6793 18.2667 30.6113 18.3986 30.5793 18.5344C30.5793 18.5424 30.5713 18.5664 30.5553 18.6063C30.5393 18.6383 30.5193 18.6703 30.4953 18.7022C30.4713 18.7262 30.4353 18.7501 30.3873 18.7741L30.4953 18.9419ZM39.453 25.5577C38.6531 25.5577 37.9653 25.39 37.3895 25.0544C36.8216 24.7268 36.4696 24.1634 36.3337 23.3645H37.9653C38.0693 23.6921 38.2413 23.9278 38.4812 24.0716C38.7211 24.2234 39.041 24.2993 39.441 24.2993C39.9689 24.2993 40.3607 24.1794 40.6167 23.9397C40.8726 23.7 41.0006 23.3724 41.0006 22.957V22.6453C41.0006 22.5095 41.0126 22.4056 41.0366 22.3337C41.0606 22.2538 41.1086 22.1699 41.1806 22.082L41.0126 21.9742C40.7487 22.3497 40.4687 22.6134 40.1728 22.7652C39.8768 22.917 39.513 22.9929 39.0811 22.9929C38.5052 22.9929 37.9933 22.8491 37.5454 22.5614C37.0975 22.2658 36.7496 21.8583 36.5017 21.339C36.2537 20.8196 36.1298 20.2363 36.1298 19.5891C36.1298 18.9259 36.2537 18.3347 36.5017 17.8153C36.7496 17.2879 37.0975 16.8764 37.5454 16.5808C37.9933 16.2852 38.5052 16.1374 39.0811 16.1374C39.513 16.1374 39.8768 16.2172 40.1728 16.3771C40.4767 16.5289 40.7566 16.7925 41.0126 17.1681L41.1806 17.0482C41.1086 16.9684 41.0606 16.8884 41.0366 16.8085C41.0126 16.7287 41.0006 16.6247 41.0006 16.4969V16.2812H42.6202V22.5734C42.6202 23.6521 42.3363 24.4192 41.7684 24.8746C41.2085 25.33 40.4367 25.5577 39.453 25.5577ZM39.465 21.6026C39.8009 21.6026 40.1008 21.5147 40.3648 21.339C40.6287 21.1632 40.8326 20.9195 40.9766 20.6079C41.1286 20.2962 41.2046 19.9487 41.2046 19.5651C41.2046 19.1816 41.1286 18.834 40.9766 18.5224C40.8326 18.2108 40.6287 17.9671 40.3648 17.7913C40.1008 17.6156 39.8009 17.5277 39.465 17.5277C38.9531 17.5277 38.5412 17.7234 38.2293 18.1149C37.9173 18.4985 37.7614 18.9819 37.7614 19.5651C37.7614 20.1484 37.9173 20.6358 38.2293 21.0273C38.5412 21.4109 38.9531 21.6026 39.465 21.6026ZM43.7186 16.2812H45.3382V16.4969C45.3382 16.6247 45.3262 16.7287 45.3022 16.8085C45.2782 16.8884 45.2303 16.9684 45.1583 17.0482L45.3262 17.1681C45.5742 16.8006 45.8501 16.5369 46.154 16.3771C46.4579 16.2172 46.8259 16.1374 47.2578 16.1374H47.4497V17.6954H47.0778C46.5659 17.6954 46.166 17.8313 45.8781 18.1029C45.6941 18.2867 45.5581 18.5224 45.4702 18.8101C45.3822 19.0897 45.3382 19.4493 45.3382 19.8887V23.0049H43.7186V16.2812ZM49.9183 23.1367C49.2624 23.1367 48.7306 22.9649 48.3227 22.6214C47.9148 22.2698 47.7108 21.7824 47.7108 21.1592C47.7108 20.488 47.9667 19.9767 48.4787 19.6251C48.8466 19.3694 49.3704 19.1776 50.0503 19.0498L52.0538 18.6782C52.0538 18.2787 51.9458 17.9631 51.7299 17.7314C51.5299 17.5157 51.23 17.4078 50.8301 17.4078C50.5182 17.4078 50.2422 17.4997 50.0023 17.6835C49.7703 17.8673 49.6264 18.1149 49.5704 18.4265H47.9628C48.0747 17.6835 48.4027 17.1161 48.9466 16.7246C49.4904 16.3331 50.1223 16.1374 50.8421 16.1374C51.25 16.1374 51.6299 16.1973 51.9818 16.3171C52.3337 16.429 52.6336 16.5968 52.8816 16.8205C53.1295 17.0363 53.3095 17.2879 53.4215 17.5756C53.5334 17.8632 53.6014 18.1509 53.6254 18.4385C53.6574 18.7262 53.6734 19.0817 53.6734 19.5052V23.0049H52.0538V22.8131C52.0538 22.6054 52.1058 22.3936 52.2098 22.1779L52.0298 22.082C51.8859 22.3776 51.6859 22.6094 51.43 22.7772C51.0701 23.0169 50.5662 23.1367 49.9183 23.1367ZM50.3142 21.8663C50.6101 21.8663 50.8981 21.8024 51.178 21.6745C51.4339 21.5547 51.6379 21.3789 51.7899 21.1472C51.8619 21.0273 51.9178 20.9115 51.9578 20.7996C51.9978 20.6798 52.0418 20.516 52.0898 20.3082C52.1058 20.2123 52.1298 20.1444 52.1618 20.1045C52.2017 20.0565 52.2578 20.0285 52.3298 20.0206L52.2938 19.8288C51.6539 19.9566 51.242 20.0405 51.0581 20.0805L50.4822 20.1884C50.0503 20.2683 49.7384 20.3961 49.5464 20.5719C49.4025 20.7157 49.3305 20.8915 49.3305 21.0992C49.3305 21.3469 49.4184 21.5387 49.5944 21.6745C49.7783 21.8024 50.0183 21.8663 50.3142 21.8663ZM56.8145 23.0049C55.7668 23.0049 55.2429 22.5135 55.2429 21.5307V17.5756H54.2471V16.2812H55.2429V13.8602H56.8625V16.2812H58.1582V17.5756H56.8625V21.0393C56.8625 21.2471 56.8945 21.4029 56.9585 21.5067C57.0305 21.6106 57.1824 21.6626 57.4144 21.6626H58.1462V23.0049H56.8145ZM58.9357 23.0049V16.2812H60.5554V23.0049H58.9357ZM59.7515 15.5381C59.4717 15.5381 59.2357 15.4542 59.0437 15.2864C58.8518 15.1186 58.7558 14.8949 58.7558 14.6152C58.7558 14.3516 58.8518 14.1318 59.0437 13.9561C59.2357 13.7803 59.4717 13.6924 59.7515 13.6924C60.0233 13.6924 60.2554 13.7803 60.4474 13.9561C60.6471 14.1318 60.7473 14.3516 60.7473 14.6152C60.7473 14.8869 60.6513 15.1107 60.4594 15.2864C60.2674 15.4542 60.0317 15.5381 59.7515 15.5381ZM64.8359 23.1367C64.1641 23.1367 63.5684 22.9889 63.0484 22.6933C62.5289 22.3977 62.121 21.9821 61.8247 21.4468C61.5367 20.9115 61.3928 20.2962 61.3928 19.6011C61.3928 18.9299 61.5367 18.3307 61.8247 17.8033C62.121 17.276 62.5289 16.8685 63.0484 16.5808C63.5684 16.2852 64.1641 16.1374 64.8359 16.1374C65.5078 16.1374 66.104 16.2852 66.6235 16.5808C67.1514 16.8764 67.5593 17.2879 67.8472 17.8153C68.1436 18.3347 68.2911 18.9299 68.2911 19.6011C68.2911 20.2962 68.1472 20.9115 67.8592 21.4468C67.5713 21.9821 67.1634 22.3977 66.6355 22.6933C66.116 22.9889 65.5162 23.1367 64.8359 23.1367ZM64.8359 21.7464C65.3638 21.7464 65.7921 21.5467 66.1196 21.1472C66.4478 20.7477 66.6115 20.2323 66.6115 19.6011C66.6115 18.9939 66.4478 18.4985 66.1196 18.1149C65.7921 17.7234 65.3638 17.5277 64.8359 17.5277C64.4922 17.5277 64.1845 17.6156 63.9122 17.7913C63.6404 17.9671 63.4287 18.2148 63.2763 18.5344C63.1245 18.846 63.0484 19.2016 63.0484 19.6011C63.0484 20.2403 63.2127 20.7596 63.5402 21.1592C63.8762 21.5507 64.3081 21.7464 64.8359 21.7464ZM69.1351 16.2812H70.7547V16.4969C70.7547 16.6247 70.7427 16.7287 70.7187 16.8085C70.6947 16.8884 70.6468 16.9684 70.5748 17.0482L70.7427 17.1681C70.9989 16.7925 71.2706 16.5289 71.5585 16.3771C71.8543 16.2172 72.1986 16.1374 72.5903 16.1374C73.6298 16.1374 74.3299 16.5129 74.6898 17.264C74.8098 17.5277 74.8859 17.7953 74.9177 18.067C74.9495 18.3386 74.9657 18.6942 74.9657 19.1337V23.0049H73.3581V19.1097C73.3581 18.4625 73.2459 18.015 73.0222 17.7674C72.8302 17.5676 72.5465 17.4677 72.1704 17.4677C71.7223 17.4677 71.3828 17.6036 71.1506 17.8752C71.0145 18.035 70.9149 18.2508 70.8507 18.5224C70.7865 18.7861 70.7547 19.1377 70.7547 19.5771V23.0049H69.1351V16.2812ZM78.9548 23.1367C78.1228 23.1367 77.4029 22.937 76.7953 22.5375C76.187 22.1379 75.8313 21.5387 75.7276 20.7397H77.3232C77.4269 21.0992 77.6189 21.3789 77.899 21.5787C78.1786 21.7704 78.5265 21.8663 78.9428 21.8663C79.2943 21.8663 79.5786 21.7984 79.7946 21.6626C80.0183 21.5267 80.1305 21.3349 80.1305 21.0873C80.1305 20.8156 79.9985 20.6198 79.7346 20.5C79.4785 20.3801 79.0784 20.2683 78.5349 20.1644C78.0148 20.0605 77.5829 19.9487 77.2392 19.8288C76.8949 19.709 76.6033 19.5172 76.3634 19.2535C76.1235 18.9819 76.0035 18.6143 76.0035 18.1509C76.0035 17.4877 76.247 16.9883 76.7353 16.6527C77.2308 16.3092 77.8546 16.1374 78.6069 16.1374C79.3987 16.1374 80.0543 16.3371 80.5744 16.7366C81.1023 17.1362 81.4262 17.6995 81.5462 18.4265H80.0225C79.9343 18.075 79.7622 17.8193 79.5067 17.6595C79.2505 17.4917 78.9464 17.4078 78.5949 17.4078C78.2745 17.4078 78.019 17.4717 77.827 17.5996C77.6429 17.7194 77.5511 17.8832 77.5511 18.091C77.5511 18.3386 77.6747 18.5145 77.923 18.6183C78.1708 18.7222 78.5625 18.8261 79.0988 18.9299C79.6506 19.0338 80.0981 19.1457 80.4424 19.2655C80.7939 19.3774 81.0939 19.5692 81.3422 19.8408C81.5978 20.1124 81.7261 20.488 81.7261 20.9674C81.7261 21.6306 81.4778 22.158 80.9823 22.5495C80.494 22.941 79.8186 23.1367 78.9548 23.1367Z" fill="#04091E"/>
<path d="M160.763 17.5449L163.096 15.2144L163.762 15.8801L161.429 18.2107L163.762 20.5412L163.096 21.207L160.763 18.8764L158.43 21.207L157.764 20.5412L160.097 18.2107L157.764 15.8801L158.43 15.2144L160.763 17.5449Z" fill="#04091E"/>
<path d="M14.3965 31.7412H167.96" stroke="#F5F5F5" stroke-width="0.622378"/>
<path d="M127.134 94.9007C127.134 89.5991 125.947 84.3645 123.662 79.5812C121.376 74.7985 118.05 70.5875 113.926 67.2574C109.803 63.9279 104.986 61.5639 99.8301 60.3384C94.6743 59.1129 89.3098 59.0577 84.13 60.1766C78.9502 61.2948 74.086 63.5594 69.8948 66.8032C65.703 70.047 62.2904 74.1885 59.9066 78.9232C57.523 83.6586 56.2288 88.8674 56.119 94.1678C56.0091 99.4683 57.0864 104.726 59.2718 109.556H123.974C126.061 104.952 127.138 99.9555 127.134 94.9007Z" fill="#F5F5F5"/>
<path d="M56.998 109.556H126.246" stroke="#04091E" stroke-width="0.933566" stroke-linecap="round" stroke-linejoin="round"/>
<path d="M53.002 109.556H55.2214" stroke="#04091E" stroke-width="0.933566" stroke-linecap="round" stroke-linejoin="round"/>
<path d="M128.021 109.556H130.241" stroke="#04091E" stroke-width="0.933566" stroke-linecap="round" stroke-linejoin="round"/>
<path d="M81.413 93.1254C82.8256 93.1254 84.1807 92.5639 85.1795 91.5643C86.1782 90.5653 86.7397 89.2098 86.7397 87.7962V77.1377C86.7427 75.6767 86.4458 74.2301 85.8663 72.8883C85.2874 71.5466 84.4387 70.3385 83.3727 69.3389C82.3068 68.3388 81.0471 67.5693 79.6716 67.0773C78.2955 66.5859 76.8337 66.3822 75.376 66.4799C72.6341 66.7214 70.0847 67.9924 68.2401 70.0371C66.3961 72.0817 65.3932 74.7485 65.4328 77.5021V87.7962C65.4328 89.2098 65.9942 90.5653 66.993 91.5643C67.9918 92.5639 69.3468 93.1254 70.7595 93.1254H81.413Z" fill="white"/>
<path d="M81.413 93.1254C82.8256 93.1254 84.1807 92.5639 85.1795 91.5643C86.1782 90.5653 86.7397 89.2098 86.7397 87.7962V77.1377C86.7427 75.6767 86.4458 74.2301 85.8663 72.8883C85.2874 71.5466 84.4387 70.3385 83.3727 69.3389C82.3068 68.3388 81.0471 67.5693 79.6716 67.0773C78.2955 66.5859 76.8337 66.3822 75.376 66.4799C72.6341 66.7214 70.0847 67.9924 68.2401 70.0371C66.3961 72.0817 65.3932 74.7485 65.4328 77.5021V87.7962C65.4328 89.2098 65.9942 90.5653 66.993 91.5643C67.9918 92.5639 69.3468 93.1254 70.7595 93.1254H81.413Z" stroke="#04091E" stroke-width="0.933566" stroke-linecap="round" stroke-linejoin="round"/>
<path d="M89.8457 109.555V106.003C89.8457 102.351 88.3958 98.8499 85.8152 96.2677C83.2346 93.6861 79.7345 92.2358 76.0849 92.2358C72.4354 92.2358 68.9352 93.6861 66.3547 96.2677C63.7741 98.8499 62.3242 102.351 62.3242 106.003V109.555H89.8457Z" fill="url(#paint0_linear_2325_1087)"/>
<path d="M89.8457 109.555V106.003C89.8457 102.351 88.3958 98.8499 85.8152 96.2677C83.2346 93.6861 79.7345 92.2358 76.0849 92.2358C72.4354 92.2358 68.9352 93.6861 66.3547 96.2677C63.7741 98.8499 62.3242 102.351 62.3242 106.003V109.555H89.8457Z" stroke="#04091E" stroke-width="0.933566" stroke-linecap="round" stroke-linejoin="round"/>
<path d="M82.3001 94.75C82.3013 94.303 82.2144 93.8601 82.0434 93.4473C81.8731 93.0338 81.6229 92.658 81.3068 92.3422C80.9907 92.0258 80.6158 91.7753 80.2024 91.6051C79.7897 91.4343 79.347 91.3474 78.9002 91.3486H73.2711C72.8242 91.3474 72.3815 91.4343 71.9688 91.6051C71.5555 91.7753 71.1806 92.0258 70.8645 92.3422C70.5483 92.658 70.2982 93.0338 70.1278 93.4473C69.9569 93.8601 69.8699 94.303 69.8711 94.75C69.8723 95.1438 69.9419 95.5345 70.0751 95.9048L71.6467 100.23L76.0856 97.566L80.5246 100.23L82.0962 95.9048C82.2294 95.5345 82.2989 95.1438 82.3001 94.75Z" fill="url(#paint1_linear_2325_1087)" stroke="#04091E" stroke-width="0.933566" stroke-linecap="round" stroke-linejoin="round"/>
<path d="M76.0859 97.5649V109.556" stroke="#04091E" stroke-width="0.933566" stroke-linecap="round" stroke-linejoin="round"/>
<path d="M79.193 94.4565L76.0858 97.5654L72.9785 94.4565V89.5713H79.193V94.4565Z" fill="white"/>
<path d="M79.193 94.4565L76.0858 97.5654L72.9785 94.4565V89.5713H79.193V94.4565Z" stroke="#04091E" stroke-width="0.933566" stroke-linecap="round" stroke-linejoin="round"/>
<path d="M67.6523 104.671V109.556" stroke="#04091E" stroke-width="0.933566" stroke-linecap="round" stroke-linejoin="round"/>
<path d="M84.5195 104.671V109.556" stroke="#04091E" stroke-width="0.933566" stroke-linecap="round" stroke-linejoin="round"/>
<path d="M84.963 80.245V78.0241C84.963 77.8114 84.963 77.616 84.963 77.4117C82.9649 78.422 80.68 78.7151 78.4917 78.241C76.3035 77.7676 74.3443 76.5559 72.9425 74.8091C72.8447 75.4569 72.6167 76.0777 72.2712 76.6344C71.9263 77.1911 71.4722 77.6717 70.9353 78.0475C70.3991 78.4226 69.792 78.6851 69.1514 78.8187C68.5101 78.9524 67.8491 78.9536 67.2072 78.8235V80.245C66.7363 80.245 66.2846 80.4319 65.9517 80.7651C65.6188 81.0983 65.4316 81.5502 65.4316 82.0212C65.4316 82.4922 65.6188 82.944 65.9517 83.2772C66.2846 83.6104 66.7363 83.7974 67.2072 83.7974H67.314C67.6409 85.89 68.7045 87.7969 70.3127 89.174C71.9209 90.5511 73.9682 91.3079 76.0851 91.3079C78.202 91.3079 80.2493 90.5511 81.8575 89.174C83.4657 87.7969 84.5293 85.89 84.8562 83.7974H84.963C85.4339 83.7974 85.8856 83.6104 86.2185 83.2772C86.5514 82.944 86.7386 82.4922 86.7386 82.0212C86.7386 81.5502 86.5514 81.0983 86.2185 80.7651C85.8856 80.4319 85.4339 80.245 84.963 80.245Z" fill="white" stroke="#04091E" stroke-width="0.933566" stroke-linecap="round" stroke-linejoin="round"/>
<path d="M73.4219 86.2842C74.1429 86.9625 75.0955 87.3401 76.0852 87.3401C77.075 87.3401 78.0276 86.9625 78.7486 86.2842" stroke="#04091E" stroke-width="0.933566" stroke-linecap="round" stroke-linejoin="round"/>
<path d="M80.9681 81.1334C80.8571 80.8721 80.6717 80.6491 80.4348 80.4921C80.1978 80.3357 79.9201 80.2524 79.6364 80.2524C79.3526 80.2524 79.0749 80.3357 78.838 80.4921C78.601 80.6491 78.4157 80.8721 78.3047 81.1334" stroke="#04091E" stroke-width="0.933566" stroke-linecap="round" stroke-linejoin="round"/>
<path d="M73.8763 81.1334C73.7653 80.8721 73.5793 80.6491 73.343 80.4921C73.106 80.3357 72.8283 80.2524 72.5446 80.2524C72.2608 80.2524 71.9831 80.3357 71.7462 80.4921C71.5092 80.6491 71.3239 80.8721 71.2129 81.1334" stroke="#04091E" stroke-width="0.933566" stroke-linecap="round" stroke-linejoin="round"/>
<path d="M70.9808 85.1304C71.5939 85.1304 72.0906 84.6336 72.0906 84.0206C72.0906 83.4075 71.5939 82.9102 70.9808 82.9102C70.3678 82.9102 69.8711 83.4075 69.8711 84.0206C69.8711 84.6336 70.3678 85.1304 70.9808 85.1304Z" fill="url(#paint2_linear_2325_1087)"/>
<path d="M81.1918 85.1304C81.8048 85.1304 82.3015 84.6336 82.3015 84.0206C82.3015 83.4075 81.8048 82.9102 81.1918 82.9102C80.5787 82.9102 80.082 83.4075 80.082 84.0206C80.082 84.6336 80.5787 85.1304 81.1918 85.1304Z" fill="url(#paint3_linear_2325_1087)"/>
<path d="M123.138 81.1334H114.26L109.377 87.3507L104.495 81.1334H95.6167C94.4392 81.1334 93.3102 80.6653 92.4776 79.8324C91.6456 79 91.1777 77.8704 91.1777 76.6922V52.711C91.1777 51.5335 91.6456 50.4039 92.4776 49.5709C93.3102 48.7379 94.4392 48.2705 95.6167 48.2705H123.138C124.316 48.2705 125.445 48.7379 126.277 49.5709C127.109 50.4039 127.577 51.5335 127.577 52.711V76.6922C127.577 77.8704 127.109 79 126.277 79.8324C125.445 80.6653 124.316 81.1334 123.138 81.1334Z" fill="white" stroke="#04091E" stroke-width="0.933566" stroke-linecap="round" stroke-linejoin="round"/>
<path d="M122.25 51.8228H96.5041C95.5233 51.8228 94.7285 52.618 94.7285 53.599V75.804C94.7285 76.785 95.5233 77.5802 96.5041 77.5802H122.25C123.231 77.5802 124.026 76.785 124.026 75.804V53.599C124.026 52.618 123.231 51.8228 122.25 51.8228Z" fill="url(#paint4_linear_2325_1087)"/>
<path d="M112.484 51.8228H96.5041C96.0332 51.8228 95.5815 52.0097 95.2486 52.3429C94.9157 52.6761 94.7285 53.1279 94.7285 53.599V69.5866L112.484 51.8228Z" fill="white"/>
<path d="M117.466 65.5895C117.463 65.2701 117.348 64.9614 117.143 64.7163C116.937 64.4718 116.652 64.3065 116.338 64.2483V63.3602C116.338 61.5726 115.628 59.8575 114.364 58.5937C113.1 57.3293 111.387 56.6191 109.6 56.6191C107.813 56.6191 106.099 57.3293 104.835 58.5937C103.571 59.8575 102.861 61.5726 102.861 63.3602V64.2483C102.527 64.3005 102.223 64.4748 102.01 64.7373C101.796 65.0004 101.688 65.3336 101.705 65.6716C101.723 66.0102 101.866 66.3296 102.105 66.5687C102.345 66.8084 102.665 66.9498 103.004 66.9666C103.32 68.4827 104.148 69.8436 105.349 70.8204C106.551 71.7978 108.051 72.3312 109.6 72.3312C111.148 72.3312 112.649 71.7978 113.85 70.8204C115.051 69.8436 115.88 68.4827 116.196 66.9666C116.541 66.9378 116.863 66.7802 117.098 66.5249C117.334 66.2702 117.464 65.9364 117.466 65.5895Z" fill="white" stroke="#04091E" stroke-width="0.933566" stroke-linecap="round" stroke-linejoin="round"/>
<path d="M107.069 63.3254C106.936 63.2816 106.794 63.2696 106.655 63.2912C106.517 63.3128 106.385 63.3673 106.271 63.4494C106.157 63.5321 106.065 63.64 106.001 63.7652C105.937 63.8905 105.904 64.0289 105.904 64.1691C105.904 64.3094 105.937 64.4478 106.001 64.573C106.065 64.6983 106.157 64.8062 106.271 64.8883C106.385 64.971 106.517 65.0249 106.655 65.0465C106.794 65.068 106.936 65.0566 107.069 65.0129C107.293 65.0129 107.507 64.9242 107.665 64.766C107.824 64.6072 107.913 64.3927 107.913 64.1691C107.913 63.945 107.824 63.7305 107.665 63.5723C107.507 63.4141 107.293 63.3254 107.069 63.3254Z" fill="#04091E"/>
<path d="M112.131 63.3259C111.966 63.3343 111.808 63.3912 111.675 63.4889C111.542 63.5871 111.441 63.7214 111.384 63.8766C111.327 64.0312 111.317 64.199 111.354 64.3596C111.392 64.5202 111.475 64.6664 111.594 64.7803C111.714 64.8935 111.864 64.9696 112.026 64.999C112.189 65.0284 112.356 65.0092 112.507 64.9439C112.659 64.8791 112.788 64.7713 112.879 64.6334C112.97 64.4956 113.018 64.3344 113.019 64.1696C113.019 64.0552 112.996 63.9413 112.951 63.8358C112.906 63.731 112.84 63.6357 112.756 63.5566C112.673 63.4775 112.575 63.4163 112.468 63.3768C112.36 63.3372 112.245 63.3199 112.131 63.3259Z" fill="#04091E"/>
<path d="M105.951 67.2608C106.417 67.2608 106.794 66.8826 106.794 66.417C106.794 65.9508 106.417 65.5732 105.951 65.5732C105.485 65.5732 105.107 65.9508 105.107 66.417C105.107 66.8826 105.485 67.2608 105.951 67.2608Z" fill="url(#paint5_linear_2325_1087)"/>
<path d="M113.25 67.2608C113.715 67.2608 114.093 66.8826 114.093 66.417C114.093 65.9508 113.715 65.5732 113.25 65.5732C112.784 65.5732 112.406 65.9508 112.406 66.417C112.406 66.8826 112.784 67.2608 113.25 67.2608Z" fill="url(#paint6_linear_2325_1087)"/>
<path d="M107.914 68.4419C108.414 68.7721 109.001 68.9483 109.601 68.9483C110.201 68.9483 110.787 68.7721 111.288 68.4419" stroke="#04091E" stroke-width="0.933566" stroke-linecap="round" stroke-linejoin="round"/>
<path d="M116.924 61.6389C116.924 59.7003 116.154 57.8408 114.783 56.4703C113.413 55.0992 111.555 54.3291 109.617 54.3291C107.679 54.3291 105.821 55.0992 104.451 56.4703C103.08 57.8408 102.311 59.7003 102.311 61.6389V63.8945C103.188 63.6788 104.002 63.2617 104.69 62.6756C105.376 62.0895 105.918 61.3518 106.27 60.5195C109.377 62.6426 113.532 62.207 116.924 61.6389Z" fill="white"/>
<path d="M116.924 61.6389C116.924 59.7003 116.154 57.8408 114.783 56.4703C113.413 55.0992 111.555 54.3291 109.617 54.3291C107.679 54.3291 105.821 55.0992 104.451 56.4703C103.08 57.8408 102.311 59.7003 102.311 61.6389V63.8945C103.188 63.6788 104.002 63.2617 104.69 62.6756C105.376 62.0895 105.918 61.3518 106.27 60.5195C109.377 62.6426 113.532 62.207 116.924 61.6389Z" stroke="#04091E" stroke-width="0.933566" stroke-linecap="round" stroke-linejoin="round"/>
<path d="M105.107 59.374C105.403 59.8396 105.801 60.2316 106.271 60.5198" stroke="#04091E" stroke-width="0.933566" stroke-linecap="round" stroke-linejoin="round"/>
<path d="M122.25 51.8228H96.5041C95.5233 51.8228 94.7285 52.618 94.7285 53.599V75.804C94.7285 76.785 95.5233 77.5802 96.5041 77.5802H122.25C123.231 77.5802 124.026 76.785 124.026 75.804V53.599C124.026 52.618 123.231 51.8228 122.25 51.8228Z" stroke="#04091E" stroke-width="0.933566" stroke-linecap="round" stroke-linejoin="round"/>
<path d="M117.474 77.582C115.309 75.6434 112.505 74.5713 109.6 74.5713C106.694 74.5713 103.89 75.6434 101.725 77.582H117.474Z" fill="white" stroke="#04091E" stroke-width="0.933566" stroke-linecap="round" stroke-linejoin="round"/>
<path d="M120.475 57.1526C121.456 57.1526 122.25 56.3574 122.25 55.3764C122.25 54.3954 121.456 53.5996 120.475 53.5996C119.494 53.5996 118.699 54.3954 118.699 55.3764C118.699 56.3574 119.494 57.1526 120.475 57.1526Z" fill="white" stroke="#04091E" stroke-width="0.933566" stroke-linecap="round" stroke-linejoin="round"/>
<path d="M92.0478 126.875C99.648 126.875 105.809 126.278 105.809 125.543C105.809 124.807 99.648 124.21 92.0478 124.21C84.4482 124.21 78.2871 124.807 78.2871 125.543C78.2871 126.278 84.4482 126.875 92.0478 126.875Z" fill="#F5F5F5"/>
<path d="M112.485 90.0161H71.6467C70.6659 90.0161 69.8711 90.8113 69.8711 91.7929V117.177C69.8711 118.158 70.6659 118.954 71.6467 118.954H112.485C113.466 118.954 114.261 118.158 114.261 117.177V91.7929C114.261 90.8113 113.466 90.0161 112.485 90.0161Z" fill="white"/>
<path d="M100.003 122.506C100.142 123.163 100.028 123.849 99.6835 124.425C99.5167 124.637 99.3032 124.808 99.0602 124.924C98.8173 125.041 98.551 125.101 98.281 125.1H85.852C85.588 125.096 85.3289 125.033 85.0926 124.917C84.8556 124.8 84.6481 124.632 84.4849 124.425C84.1406 123.849 84.026 123.163 84.1652 122.506H100.003Z" fill="white" stroke="#04091E" stroke-width="0.933566" stroke-linecap="round" stroke-linejoin="round"/>
<path d="M112.485 90.0161H71.6467C70.6659 90.0161 69.8711 90.8113 69.8711 91.7929V117.177C69.8711 118.158 70.6659 118.954 71.6467 118.954H112.485C113.466 118.954 114.261 118.158 114.261 117.177V91.7929C114.261 90.8113 113.466 90.0161 112.485 90.0161Z" stroke="#04091E" stroke-width="0.933566" stroke-linecap="round" stroke-linejoin="round"/>
<path d="M98.5471 125.1H85.541C87.1744 120.766 87.7161 108.296 87.7161 108.296H96.381C96.381 108.296 96.9227 120.766 98.5471 125.1Z" fill="white" stroke="#04091E" stroke-width="0.933566" stroke-linecap="round" stroke-linejoin="round"/>
<path d="M73.4219 115.4V117.176" stroke="#04091E" stroke-width="0.933566" stroke-linecap="round" stroke-linejoin="round"/>
<path d="M75.1973 115.4V117.176" stroke="#04091E" stroke-width="0.933566" stroke-linecap="round" stroke-linejoin="round"/>
<path d="M76.9746 115.4V117.176" stroke="#04091E" stroke-width="0.933566" stroke-linecap="round" stroke-linejoin="round"/>
<path d="M78.748 115.4V117.176" stroke="#04091E" stroke-width="0.933566" stroke-linecap="round" stroke-linejoin="round"/>
<path d="M93.2283 100.844C93.2331 100.636 93.2919 100.433 93.3998 100.256C93.5072 100.078 93.659 99.9318 93.8407 99.8311C93.7297 99.6729 93.584 99.5428 93.4148 99.45C93.2451 99.3577 93.0567 99.3055 92.8641 99.2983C92.4466 99.2983 92.0561 99.547 91.8432 99.547C91.6302 99.547 91.3105 99.3073 90.9554 99.3157C90.7299 99.3217 90.5097 99.3858 90.3166 99.5027C90.1234 99.6195 89.9638 99.7849 89.8547 99.9821C89.6813 100.418 89.6213 100.892 89.6801 101.358C89.7389 101.824 89.9152 102.267 90.1918 102.646C90.4137 102.966 90.6891 103.331 91.0796 103.322C91.4701 103.313 91.5415 103.099 91.9674 103.099C92.3933 103.099 92.491 103.322 92.8552 103.313C93.2193 103.304 93.4502 102.984 93.6722 102.664C93.8329 102.431 93.9559 102.173 94.0357 101.9C93.8095 101.828 93.6104 101.688 93.4658 101.499C93.3218 101.31 93.2385 101.081 93.2283 100.844Z" fill="url(#paint7_linear_2325_1087)" stroke="#04091E" stroke-width="0.933566" stroke-linejoin="round"/>
<path d="M92.3145 97.9195L92.8027 97.4312" stroke="#04091E" stroke-width="0.933566" stroke-linecap="round" stroke-linejoin="round"/>
<path d="M73.4219 92.6807H110.709" stroke="#04091E" stroke-width="0.933566" stroke-linecap="round" stroke-linejoin="round"/>
<path d="M165.561 138.79H16.7959C15.4707 138.79 14.3965 139.863 14.3965 141.187V160.363C14.3965 161.687 15.4707 162.76 16.7959 162.76H165.561C166.886 162.76 167.96 161.687 167.96 160.363V141.187C167.96 139.863 166.886 138.79 165.561 138.79Z" fill="url(#paint8_linear_2325_1087)"/>
<path d="M80.877 154.005L83.1696 147.604H84.3453L86.638 154.005H85.5294L85.0592 152.604H82.4642L81.9855 154.005H80.877ZM84.74 151.673L83.9842 149.425C83.8774 149.094 83.8247 148.837 83.8247 148.653H83.6903C83.6903 148.854 83.6399 149.111 83.5391 149.425L82.7749 151.673H84.74ZM89.2276 154.098C88.7681 154.098 88.3626 153.994 88.0099 153.787C87.6571 153.581 87.3824 153.292 87.1869 152.923C86.9907 152.549 86.8929 152.121 86.8929 151.64C86.8929 151.175 86.9907 150.762 87.1869 150.398C87.3824 150.029 87.6571 149.743 88.0099 149.542C88.3626 149.335 88.7681 149.232 89.2276 149.232C89.7818 149.232 90.2491 149.371 90.63 149.651C91.0163 149.931 91.2653 150.311 91.3775 150.792H90.3025C90.2239 150.557 90.0896 150.376 89.8994 150.247C89.7147 150.118 89.4903 150.054 89.2276 150.054C88.9696 150.054 88.7405 150.121 88.5389 150.255C88.3374 150.384 88.1802 150.569 88.0686 150.809C87.9565 151.049 87.9007 151.326 87.9007 151.64C87.9007 151.964 87.9565 152.249 88.0686 152.495C88.1802 152.742 88.3374 152.932 88.5389 153.066C88.7405 153.2 88.9696 153.267 89.2276 153.267C89.5131 153.267 89.7506 153.195 89.9414 153.049C90.137 152.903 90.2659 152.705 90.3277 152.453H91.4026C91.2959 152.968 91.0469 153.371 90.6552 153.661C90.2629 153.952 89.7872 154.098 89.2276 154.098ZM93.6299 154.005C93.2664 154.005 92.9917 153.921 92.8069 153.754C92.6222 153.586 92.5298 153.309 92.5298 152.923V150.138H91.8244V149.316H92.5298V147.604H93.5207V149.316H94.4781V150.138H93.5207V152.646C93.5207 152.825 93.5489 152.96 93.6047 153.049C93.6611 153.133 93.7841 153.175 93.9742 153.175H94.4697V154.005H93.6299ZM95.2339 154.005V149.316H96.2249V154.005H95.2339ZM95.7294 148.712C95.5501 148.712 95.3965 148.656 95.2675 148.544C95.1446 148.426 95.0828 148.281 95.0828 148.107C95.0828 147.934 95.1446 147.792 95.2675 147.68C95.3965 147.562 95.5501 147.503 95.7294 147.503C95.9142 147.503 96.0683 147.562 96.1913 147.68C96.3143 147.792 96.3761 147.934 96.3761 148.107C96.3761 148.281 96.3143 148.426 96.1913 148.544C96.0683 148.656 95.9142 148.712 95.7294 148.712ZM96.7966 149.316H97.8715L98.7113 151.807C98.7563 151.947 98.7899 152.073 98.8121 152.185C98.8343 152.297 98.8487 152.403 98.8541 152.504C98.8655 152.599 98.8739 152.663 98.8793 152.697H98.98C98.9968 152.495 99.0136 152.336 99.0304 152.218C99.0526 152.096 99.0892 151.958 99.1396 151.807L100.005 149.316H101.071L99.3328 154.005H98.5266L96.7966 149.316ZM103.703 154.098C103.244 154.098 102.835 153.994 102.477 153.787C102.124 153.575 101.85 153.287 101.654 152.923C101.458 152.554 101.36 152.14 101.36 151.681C101.36 151.257 101.447 150.856 101.62 150.482C101.799 150.107 102.063 149.805 102.409 149.576C102.762 149.346 103.185 149.232 103.678 149.232C104.092 149.232 104.475 149.321 104.828 149.5C105.187 149.673 105.472 149.939 105.685 150.297C105.903 150.655 106.012 151.094 106.012 151.614V151.866H102.905C102.614 151.866 102.412 151.858 102.3 151.841L102.267 151.975C102.317 151.986 102.351 152.009 102.367 152.042C102.39 152.07 102.412 152.115 102.435 152.176C102.485 152.294 102.516 152.364 102.527 152.386C102.639 152.649 102.799 152.856 103.006 153.007C103.219 153.158 103.459 153.234 103.728 153.234C104.013 153.234 104.257 153.161 104.459 153.015C104.666 152.864 104.814 152.677 104.904 152.453H105.928C105.777 152.94 105.514 153.337 105.139 153.645C104.764 153.947 104.285 154.098 103.703 154.098ZM102.409 151.22C102.493 151.17 102.567 151.136 102.628 151.119C102.695 151.097 102.774 151.086 102.863 151.086H104.526C104.621 151.086 104.702 151.097 104.769 151.119C104.842 151.136 104.92 151.17 105.004 151.22L105.088 151.111C105.038 151.083 105.004 151.058 104.988 151.035C104.977 151.007 104.962 150.968 104.946 150.918C104.935 150.84 104.895 150.747 104.828 150.641C104.716 150.445 104.562 150.297 104.366 150.197C104.171 150.09 103.952 150.037 103.711 150.037C103.465 150.037 103.247 150.09 103.056 150.197C102.866 150.297 102.712 150.445 102.594 150.641C102.55 150.714 102.51 150.806 102.477 150.918C102.466 150.963 102.451 150.999 102.435 151.027C102.418 151.049 102.384 151.077 102.334 151.111L102.409 151.22Z" fill="white"/>
<path d="M157.762 151.01L155.062 153.706V148.313L157.762 151.01Z" fill="white"/>
<defs>
<linearGradient id="paint0_linear_2325_1087" x1="60.0308" y1="92.2358" x2="78.6794" y2="113.975" gradientUnits="userSpaceOnUse">
<stop stop-color="#FF172E"/>
<stop offset="1" stop-color="#FF868B"/>
</linearGradient>
<linearGradient id="paint1_linear_2325_1087" x1="68.8353" y1="91.3486" x2="78.5081" y2="101.279" gradientUnits="userSpaceOnUse">
<stop stop-color="#FF172E"/>
<stop offset="1" stop-color="#FF868B"/>
</linearGradient>
<linearGradient id="paint2_linear_2325_1087" x1="69.6861" y1="82.9102" x2="71.9931" y2="84.6019" gradientUnits="userSpaceOnUse">
<stop stop-color="#FF172E"/>
<stop offset="1" stop-color="#FF868B"/>
</linearGradient>
<linearGradient id="paint3_linear_2325_1087" x1="79.8971" y1="82.9102" x2="82.2041" y2="84.6019" gradientUnits="userSpaceOnUse">
<stop stop-color="#FF172E"/>
<stop offset="1" stop-color="#FF868B"/>
</linearGradient>
<linearGradient id="paint4_linear_2325_1087" x1="92.2871" y1="51.8228" x2="119.895" y2="74.8584" gradientUnits="userSpaceOnUse">
<stop stop-color="#FF172E"/>
<stop offset="1" stop-color="#FF868B"/>
</linearGradient>
<linearGradient id="paint5_linear_2325_1087" x1="104.967" y1="65.5732" x2="106.72" y2="66.859" gradientUnits="userSpaceOnUse">
<stop stop-color="#FF172E"/>
<stop offset="1" stop-color="#FF868B"/>
</linearGradient>
<linearGradient id="paint6_linear_2325_1087" x1="112.266" y1="65.5732" x2="114.019" y2="66.859" gradientUnits="userSpaceOnUse">
<stop stop-color="#FF172E"/>
<stop offset="1" stop-color="#FF868B"/>
</linearGradient>
<linearGradient id="paint7_linear_2325_1087" x1="89.2934" y1="99.2983" x2="93.5677" y2="102.71" gradientUnits="userSpaceOnUse">
<stop stop-color="#FF172E"/>
<stop offset="1" stop-color="#FF868B"/>
</linearGradient>
<linearGradient id="paint8_linear_2325_1087" x1="1.59953" y1="138.79" x2="12.2316" y2="188.757" gradientUnits="userSpaceOnUse">
<stop stop-color="#FF172E"/>
<stop offset="1" stop-color="#FF868B"/>
</linearGradient>
</defs>
</svg>
