<svg width="1920" height="880" viewBox="0 0 1920 880" fill="none" xmlns="http://www.w3.org/2000/svg">
<rect width="1920" height="880" fill="#09071D"/>
<mask id="mask0_2464_3984" style="mask-type:alpha" maskUnits="userSpaceOnUse" x="0" y="0" width="1920" height="880">
<rect width="1920" height="880" fill="#09071D"/>
</mask>
<g mask="url(#mask0_2464_3984)">
<path d="M49.7064 864C62.2468 864 72.4128 853.834 72.4128 841.293C72.4128 828.753 62.2468 818.587 49.7064 818.587C37.166 818.587 27 828.753 27 841.293C27 853.834 37.166 864 49.7064 864Z" fill="url(#paint0_linear_2464_3984)" fill-opacity="0.1"/>
<path d="M89.6832 824.023C102.224 824.023 112.39 813.857 112.39 801.316C112.39 788.776 102.224 778.609 89.6832 778.609C77.1428 778.609 66.9769 788.776 66.9769 801.316C66.9769 813.857 77.1428 824.023 89.6832 824.023Z" fill="url(#paint1_linear_2464_3984)" fill-opacity="0.1"/>
<path d="M129.66 784.045C142.201 784.045 152.367 773.879 152.367 761.339C152.367 748.798 142.201 738.632 129.66 738.632C117.12 738.632 106.954 748.798 106.954 761.339C106.954 773.879 117.12 784.045 129.66 784.045Z" fill="url(#paint2_linear_2464_3984)" fill-opacity="0.1"/>
<path d="M169.637 744.068C182.177 744.068 192.343 733.902 192.343 721.362C192.343 708.821 182.177 698.655 169.637 698.655C157.097 698.655 146.931 708.821 146.931 721.362C146.931 733.902 157.097 744.068 169.637 744.068Z" fill="url(#paint3_linear_2464_3984)" fill-opacity="0.1"/>
<path d="M225.671 665.329C228.849 668.506 231.014 672.553 231.891 676.959C232.768 681.366 232.319 685.933 230.6 690.085C228.881 694.236 225.97 697.784 222.234 700.28C218.499 702.777 214.107 704.109 209.614 704.109C205.121 704.109 200.729 702.777 196.994 700.28C193.258 697.784 190.347 694.236 188.628 690.085C186.909 685.933 186.46 681.366 187.337 676.959C188.214 672.553 190.379 668.506 193.557 665.329C197.816 661.072 203.592 658.68 209.614 658.68C215.636 658.68 221.412 661.072 225.671 665.329Z" fill="url(#paint4_linear_2464_3984)" fill-opacity="0.1"/>
<path d="M261.059 652.645C273.599 652.645 283.765 642.479 283.765 629.939C283.765 617.398 273.599 607.232 261.059 607.232C248.519 607.232 238.352 617.398 238.352 629.939C238.352 642.479 248.519 652.645 261.059 652.645Z" fill="url(#paint5_linear_2464_3984)" fill-opacity="0.1"/>
<path d="M266.629 711.3C279.169 711.3 289.335 701.134 289.335 688.594C289.335 676.053 279.169 665.887 266.629 665.887C254.089 665.887 243.923 676.053 243.923 688.594C243.923 701.134 254.089 711.3 266.629 711.3Z" fill="url(#paint6_linear_2464_3984)" fill-opacity="0.1"/>
<path d="M283.342 727.587C286.52 730.763 288.685 734.811 289.562 739.217C290.44 743.624 289.991 748.192 288.272 752.343C286.554 756.495 283.642 760.043 279.907 762.539C276.171 765.036 271.779 766.369 267.286 766.369C262.793 766.369 258.401 765.036 254.665 762.539C250.929 760.043 248.018 756.495 246.299 752.343C244.581 748.192 244.132 743.624 245.009 739.217C245.887 734.811 248.052 730.763 251.23 727.587C255.489 723.331 261.264 720.94 267.286 720.94C273.307 720.94 279.083 723.331 283.342 727.587Z" fill="url(#paint7_linear_2464_3984)" fill-opacity="0.1"/>
<path d="M283.342 787.226C286.52 790.402 288.685 794.449 289.562 798.855C290.44 803.262 289.991 807.83 288.272 811.981C286.554 816.133 283.642 819.681 279.907 822.178C276.171 824.674 271.779 826.007 267.286 826.007C262.793 826.007 258.401 824.674 254.665 822.178C250.929 819.681 248.018 816.133 246.299 811.981C244.581 807.83 244.132 803.262 245.009 798.855C245.887 794.449 248.052 790.402 251.23 787.226C255.489 782.969 261.264 780.578 267.286 780.578C273.307 780.578 279.083 782.969 283.342 787.226Z" fill="url(#paint8_linear_2464_3984)" fill-opacity="0.1"/>
<path d="M218.462 608.311C215.286 605.133 211.239 602.968 206.832 602.091C202.426 601.213 197.858 601.662 193.707 603.381C189.555 605.099 186.007 608.011 183.511 611.746C181.014 615.482 179.681 619.874 179.681 624.367C179.681 628.86 181.014 633.253 183.511 636.988C186.007 640.724 189.555 643.635 193.707 645.354C197.858 647.073 202.426 647.522 206.832 646.644C211.239 645.767 215.286 643.602 218.462 640.424C222.719 636.164 225.11 630.389 225.11 624.367C225.11 618.346 222.719 612.57 218.462 608.311Z" fill="url(#paint9_linear_2464_3984)" fill-opacity="0.1"/>
<path d="M163.411 607.658C160.235 604.48 156.188 602.315 151.781 601.438C147.375 600.56 142.807 601.009 138.656 602.728C134.504 604.446 130.956 607.358 128.46 611.093C125.963 614.829 124.631 619.221 124.631 623.714C124.631 628.207 125.963 632.6 128.46 636.335C130.956 640.071 134.504 642.982 138.656 644.701C142.807 646.42 147.375 646.869 151.781 645.991C156.188 645.114 160.235 642.949 163.411 639.771C167.668 635.511 170.059 629.736 170.059 623.714C170.059 617.693 167.668 611.917 163.411 607.658Z" fill="url(#paint10_linear_2464_3984)" fill-opacity="0.1"/>
<path d="M103.774 607.658C100.598 604.48 96.5505 602.315 92.144 601.438C87.7375 600.56 83.1697 601.009 79.0184 602.728C74.867 604.446 71.3187 607.358 68.8222 611.093C66.3256 614.829 64.9931 619.221 64.9931 623.714C64.9931 628.207 66.3256 632.6 68.8222 636.335C71.3187 640.071 74.867 642.982 79.0184 644.701C83.1697 646.42 87.7375 646.869 92.144 645.991C96.5505 645.114 100.598 642.949 103.774 639.771C108.03 635.511 110.421 629.736 110.421 623.714C110.421 617.693 108.03 611.917 103.774 607.658Z" fill="url(#paint11_linear_2464_3984)" fill-opacity="0.1"/>
<path d="M959.996 344.009L941.494 354.841L941.517 331.665L959.996 320.848V344.009Z" fill="url(#paint12_linear_2464_3984)"/>
<path d="M923 344.009L941.494 354.842L941.517 331.666L923.008 320.818L923 344.009Z" fill="url(#paint13_linear_2464_3984)"/>
<path d="M941.521 331.666L923.012 320.818L941.446 310L960 320.848L941.521 331.666Z" fill="url(#paint14_linear_2464_3984)"/>
<path opacity="0.3" d="M489 775.661L498.222 770.787L507.17 774.849L497.805 779.57L489 775.661Z" fill="url(#paint15_linear_2464_3984)"/>
<path d="M515.908 763.958L507.18 774.882L498.101 770.896L498.002 758.468L515.908 760.664V763.958Z" fill="url(#paint16_linear_2464_3984)"/>
<path d="M507.182 774.882V763.036L515.548 758.699L516.118 758.743L516.14 770.37L507.182 774.882Z" fill="url(#paint17_linear_2464_3984)"/>
<path d="M497.969 758.457L506.829 754L516.117 758.743L507.18 763.255L497.969 758.457Z" fill="url(#paint18_linear_2464_3984)"/>
<path d="M151 166.102L125 181.112L125.03 149.006L151 134.025V166.102Z" fill="url(#paint19_linear_2464_3984)"/>
<path d="M99 166.103L125 181.113L125.03 149.006L99 133.966V166.103Z" fill="url(#paint20_linear_2464_3984)"/>
<path d="M125.03 149.006L99 133.965L124.924 119L151 134.026L125.03 149.006Z" fill="url(#paint21_linear_2464_3984)"/>
<g opacity="0.23" filter="url(#filter0_d_2464_3984)">
<circle cx="1503.5" cy="286.5" r="479.5" fill="url(#paint22_linear_2464_3984)" shape-rendering="crispEdges"/>
</g>
<g opacity="0.24">
<mask id="path-15-inside-1_2464_3984" fill="white">
<path fill-rule="evenodd" clip-rule="evenodd" d="M895.977 632.689C888.185 636.411 880.625 640.607 873.344 645.259C850.162 660.072 830.252 679.221 814.75 701.615C799.249 724.008 788.46 749.206 783 775.771L878.911 795.486C881.855 781.167 887.67 767.584 896.026 755.514C904.382 743.443 915.114 733.121 927.61 725.136C940.106 717.152 954.121 711.662 968.854 708.979C983.588 706.296 998.752 706.474 1013.48 709.501L1014.23 705.837C1014.23 705.837 1014.23 705.837 1014.23 705.837L1033.95 609.925C1019.63 606.982 1006.05 601.166 993.977 592.81C981.906 584.455 971.584 573.723 963.6 561.227C955.615 548.731 950.125 534.716 947.442 519.982C944.76 505.249 944.937 490.085 947.965 475.356L854.717 456.188C849.101 483.512 848.771 511.644 853.748 538.977C858.725 566.311 868.91 592.311 883.723 615.493C887.527 621.447 891.618 627.186 895.977 632.689Z"/>
</mask>
<path d="M895.977 632.689L896.408 633.591L897.539 633.051L896.761 632.068L895.977 632.689ZM873.344 645.259L873.882 646.102L873.344 645.259ZM814.75 701.615L813.928 701.045L814.75 701.615ZM783 775.771L782.02 775.569L781.819 776.549L782.798 776.75L783 775.771ZM878.911 795.486L878.71 796.466L879.689 796.667L879.891 795.688L878.911 795.486ZM927.61 725.136L927.071 724.294L927.61 725.136ZM968.854 708.979L968.675 707.995L968.854 708.979ZM1013.48 709.501L1013.28 710.481L1014.26 710.682L1014.46 709.703L1013.48 709.501ZM1014.23 705.837L1014.43 704.857L1013.46 704.656L1013.25 705.635L1014.23 705.837ZM1014.23 705.837L1014.03 706.816L1015.01 707.018L1015.21 706.038L1014.23 705.837ZM1033.95 609.925L1034.93 610.127L1035.13 609.147L1034.15 608.946L1033.95 609.925ZM993.977 592.81L994.546 591.988L994.546 591.988L993.977 592.81ZM963.6 561.227L962.757 561.765L963.6 561.227ZM947.442 519.982L948.426 519.803L947.442 519.982ZM947.965 475.356L948.944 475.558L949.146 474.578L948.166 474.377L947.965 475.356ZM854.717 456.188L854.919 455.209L853.939 455.007L853.738 455.987L854.717 456.188ZM853.748 538.977L852.764 539.156L853.748 538.977ZM883.723 615.493L882.88 616.031L883.723 615.493ZM895.546 631.787C887.717 635.526 880.122 639.742 872.805 644.417L873.882 646.102C881.129 641.472 888.653 637.295 896.408 633.591L895.546 631.787ZM872.805 644.417C849.513 659.3 829.506 678.542 813.928 701.045L815.573 702.184C830.998 679.901 850.811 660.844 873.882 646.102L872.805 644.417ZM813.928 701.045C798.351 723.549 787.508 748.872 782.02 775.569L783.979 775.972C789.412 749.54 800.148 724.467 815.573 702.184L813.928 701.045ZM782.798 776.75L878.71 796.466L879.112 794.507L783.201 774.791L782.798 776.75ZM879.891 795.688C882.807 781.501 888.569 768.043 896.848 756.083L895.204 754.944C886.772 767.125 880.902 780.833 877.932 795.285L879.891 795.688ZM896.848 756.083C905.128 744.122 915.763 733.893 928.148 725.979L927.071 724.294C914.465 732.349 903.636 742.764 895.204 754.944L896.848 756.083ZM928.148 725.979C940.533 718.065 954.426 712.622 969.033 709.963L968.675 707.995C953.815 710.701 939.678 716.239 927.071 724.294L928.148 725.979ZM969.033 709.963C983.641 707.303 998.675 707.479 1013.28 710.481L1013.68 708.522C998.828 705.469 983.535 705.29 968.675 707.995L969.033 709.963ZM1014.46 709.703L1015.21 706.038L1013.25 705.635L1012.5 709.3L1014.46 709.703ZM1014.03 706.816C1014.03 706.816 1014.03 706.816 1014.03 706.816C1014.03 706.816 1014.03 706.816 1014.03 706.816L1014.44 704.857C1014.44 704.857 1014.44 704.857 1014.44 704.857C1014.43 704.857 1014.43 704.857 1014.43 704.857L1014.03 706.816ZM1015.21 706.038L1034.93 610.127L1032.97 609.724L1013.25 705.635L1015.21 706.038ZM1034.15 608.946C1019.96 606.029 1006.51 600.268 994.546 591.988L993.408 593.633C1005.59 602.065 1019.3 607.934 1033.75 610.905L1034.15 608.946ZM994.546 591.988C982.586 583.709 972.356 573.073 964.442 560.688L962.757 561.765C970.812 574.372 981.227 585.201 993.408 593.633L994.546 591.988ZM964.442 560.688C956.528 548.303 951.086 534.41 948.426 519.803L946.458 520.161C949.164 535.021 954.702 549.159 962.757 561.765L964.442 560.688ZM948.426 519.803C945.766 505.196 945.942 490.161 948.944 475.558L946.985 475.155C943.932 490.008 943.753 505.301 946.458 520.161L948.426 519.803ZM948.166 474.377L854.919 455.209L854.516 457.168L947.763 476.336L948.166 474.377ZM853.738 455.987C848.096 483.435 847.764 511.696 852.764 539.156L854.732 538.798C849.778 511.591 850.106 483.588 855.697 456.39L853.738 455.987ZM852.764 539.156C857.764 566.616 867.997 592.738 882.88 616.031L884.565 614.954C869.824 591.883 859.686 566.005 854.732 538.798L852.764 539.156ZM882.88 616.031C886.703 622.014 890.813 627.78 895.193 633.31L896.761 632.068C892.423 626.591 888.352 620.88 884.565 614.954L882.88 616.031Z" fill="url(#paint23_linear_2464_3984)" mask="url(#path-15-inside-1_2464_3984)"/>
</g>
<path opacity="0.3" d="M1239 798.661L1248.22 793.787L1257.17 797.849L1247.81 802.57L1239 798.661Z" fill="url(#paint24_linear_2464_3984)"/>
<path d="M1265.91 786.958L1257.18 797.882L1248.1 793.896L1248 781.468L1265.91 783.664V786.958Z" fill="url(#paint25_linear_2464_3984)"/>
<path d="M1257.18 797.882V786.036L1265.55 781.699L1266.12 781.743L1266.14 793.37L1257.18 797.882Z" fill="url(#paint26_linear_2464_3984)"/>
<path d="M1247.97 781.457L1256.83 777L1266.12 781.743L1257.18 786.255L1247.97 781.457Z" fill="url(#paint27_linear_2464_3984)"/>
</g>
<defs>
<filter id="filter0_d_2464_3984" x="968" y="-193" width="1083" height="1094" filterUnits="userSpaceOnUse" color-interpolation-filters="sRGB">
<feFlood flood-opacity="0" result="BackgroundImageFix"/>
<feColorMatrix in="SourceAlpha" type="matrix" values="0 0 0 0 0 0 0 0 0 0 0 0 0 0 0 0 0 0 127 0" result="hardAlpha"/>
<feOffset dx="6" dy="73"/>
<feGaussianBlur stdDeviation="31"/>
<feComposite in2="hardAlpha" operator="out"/>
<feColorMatrix type="matrix" values="0 0 0 0 0 0 0 0 0 0.0466928 0 0 0 0 0.466927 0 0 0 0.03 0"/>
<feBlend mode="normal" in2="BackgroundImageFix" result="effect1_dropShadow_2464_3984"/>
<feBlend mode="normal" in="SourceGraphic" in2="effect1_dropShadow_2464_3984" result="shape"/>
</filter>
<linearGradient id="paint0_linear_2464_3984" x1="269.298" y1="616.989" x2="26.9978" y2="843.298" gradientUnits="userSpaceOnUse">
<stop stop-color="#7CDD3C"/>
<stop offset="1" stop-color="#70D92A" stop-opacity="0"/>
</linearGradient>
<linearGradient id="paint1_linear_2464_3984" x1="269.298" y1="616.989" x2="26.9978" y2="843.298" gradientUnits="userSpaceOnUse">
<stop stop-color="#7CDD3C"/>
<stop offset="1" stop-color="#70D92A" stop-opacity="0"/>
</linearGradient>
<linearGradient id="paint2_linear_2464_3984" x1="269.298" y1="616.989" x2="26.9978" y2="843.298" gradientUnits="userSpaceOnUse">
<stop stop-color="#7CDD3C"/>
<stop offset="1" stop-color="#70D92A" stop-opacity="0"/>
</linearGradient>
<linearGradient id="paint3_linear_2464_3984" x1="269.298" y1="616.989" x2="26.9978" y2="843.298" gradientUnits="userSpaceOnUse">
<stop stop-color="#7CDD3C"/>
<stop offset="1" stop-color="#70D92A" stop-opacity="0"/>
</linearGradient>
<linearGradient id="paint4_linear_2464_3984" x1="269.298" y1="616.989" x2="26.9978" y2="843.298" gradientUnits="userSpaceOnUse">
<stop stop-color="#7CDD3C"/>
<stop offset="1" stop-color="#70D92A" stop-opacity="0"/>
</linearGradient>
<linearGradient id="paint5_linear_2464_3984" x1="269.298" y1="616.989" x2="26.9978" y2="843.298" gradientUnits="userSpaceOnUse">
<stop stop-color="#7CDD3C"/>
<stop offset="1" stop-color="#70D92A" stop-opacity="0"/>
</linearGradient>
<linearGradient id="paint6_linear_2464_3984" x1="269.298" y1="616.989" x2="26.9978" y2="843.298" gradientUnits="userSpaceOnUse">
<stop stop-color="#7CDD3C"/>
<stop offset="1" stop-color="#70D92A" stop-opacity="0"/>
</linearGradient>
<linearGradient id="paint7_linear_2464_3984" x1="269.298" y1="616.989" x2="26.9978" y2="843.298" gradientUnits="userSpaceOnUse">
<stop stop-color="#7CDD3C"/>
<stop offset="1" stop-color="#70D92A" stop-opacity="0"/>
</linearGradient>
<linearGradient id="paint8_linear_2464_3984" x1="269.298" y1="616.989" x2="26.9978" y2="843.298" gradientUnits="userSpaceOnUse">
<stop stop-color="#7CDD3C"/>
<stop offset="1" stop-color="#70D92A" stop-opacity="0"/>
</linearGradient>
<linearGradient id="paint9_linear_2464_3984" x1="269.298" y1="616.989" x2="26.9978" y2="843.298" gradientUnits="userSpaceOnUse">
<stop stop-color="#7CDD3C"/>
<stop offset="1" stop-color="#70D92A" stop-opacity="0"/>
</linearGradient>
<linearGradient id="paint10_linear_2464_3984" x1="269.298" y1="616.989" x2="26.9978" y2="843.298" gradientUnits="userSpaceOnUse">
<stop stop-color="#7CDD3C"/>
<stop offset="1" stop-color="#70D92A" stop-opacity="0"/>
</linearGradient>
<linearGradient id="paint11_linear_2464_3984" x1="269.298" y1="616.989" x2="26.9978" y2="843.298" gradientUnits="userSpaceOnUse">
<stop stop-color="#7CDD3C"/>
<stop offset="1" stop-color="#70D92A" stop-opacity="0"/>
</linearGradient>
<linearGradient id="paint12_linear_2464_3984" x1="941.498" y1="337.845" x2="959.994" y2="337.845" gradientUnits="userSpaceOnUse">
<stop stop-color="#FF7C33"/>
<stop offset="1" stop-color="#FFE9CE"/>
</linearGradient>
<linearGradient id="paint13_linear_2464_3984" x1="923.002" y1="337.828" x2="941.518" y2="337.828" gradientUnits="userSpaceOnUse">
<stop stop-color="#FF9A61"/>
<stop offset="1" stop-color="#FFB877"/>
</linearGradient>
<linearGradient id="paint14_linear_2464_3984" x1="923.01" y1="320.833" x2="959.997" y2="320.833" gradientUnits="userSpaceOnUse">
<stop stop-color="#FFB69E"/>
<stop offset="1" stop-color="#FFE2D2"/>
</linearGradient>
<linearGradient id="paint15_linear_2464_3984" x1="503.135" y1="774.637" x2="494.735" y2="778.442" gradientUnits="userSpaceOnUse">
<stop offset="0.00502513" stop-color="#5298EF"/>
<stop offset="1" stop-color="#73B0F1" stop-opacity="0"/>
</linearGradient>
<linearGradient id="paint16_linear_2464_3984" x1="498.005" y1="766.673" x2="515.913" y2="766.673" gradientUnits="userSpaceOnUse">
<stop stop-color="#6DACEF"/>
<stop offset="1" stop-color="#97C9FE"/>
</linearGradient>
<linearGradient id="paint17_linear_2464_3984" x1="510.266" y1="770.488" x2="515.309" y2="766.295" gradientUnits="userSpaceOnUse">
<stop offset="0.00337838" stop-color="#8EBEF4"/>
<stop offset="1" stop-color="#B4D8FA"/>
</linearGradient>
<linearGradient id="paint18_linear_2464_3984" x1="497.968" y1="758.627" x2="516.119" y2="758.627" gradientUnits="userSpaceOnUse">
<stop stop-color="#97C3F4"/>
<stop offset="1" stop-color="#E8F1FA"/>
</linearGradient>
<linearGradient id="paint19_linear_2464_3984" x1="125.001" y1="157.564" x2="150.999" y2="157.564" gradientUnits="userSpaceOnUse">
<stop stop-color="#48D3FF"/>
<stop offset="1" stop-color="#C2F0FF"/>
</linearGradient>
<linearGradient id="paint20_linear_2464_3984" x1="99.0023" y1="157.541" x2="125.029" y2="157.541" gradientUnits="userSpaceOnUse">
<stop stop-color="#25CAFF"/>
<stop offset="1" stop-color="#A5E9FF"/>
</linearGradient>
<linearGradient id="paint21_linear_2464_3984" x1="99.0071" y1="133.998" x2="150.998" y2="133.998" gradientUnits="userSpaceOnUse">
<stop stop-color="#55D6FF"/>
<stop offset="1" stop-color="#C5F1FF"/>
</linearGradient>
<linearGradient id="paint22_linear_2464_3984" x1="1069.41" y1="569.841" x2="1874.93" y2="-1.83573" gradientUnits="userSpaceOnUse">
<stop stop-color="white" stop-opacity="0.6"/>
<stop offset="1" stop-color="white" stop-opacity="0"/>
</linearGradient>
<linearGradient id="paint23_linear_2464_3984" x1="805.928" y1="520.069" x2="1017.25" y2="670.657" gradientUnits="userSpaceOnUse">
<stop stop-color="white"/>
<stop offset="1" stop-color="white" stop-opacity="0.2"/>
</linearGradient>
<linearGradient id="paint24_linear_2464_3984" x1="1253.14" y1="797.637" x2="1244.74" y2="801.442" gradientUnits="userSpaceOnUse">
<stop offset="0.00502513" stop-color="#5298EF"/>
<stop offset="1" stop-color="#73B0F1" stop-opacity="0"/>
</linearGradient>
<linearGradient id="paint25_linear_2464_3984" x1="1248.01" y1="789.673" x2="1265.91" y2="789.673" gradientUnits="userSpaceOnUse">
<stop stop-color="#6DACEF"/>
<stop offset="1" stop-color="#97C9FE"/>
</linearGradient>
<linearGradient id="paint26_linear_2464_3984" x1="1260.27" y1="793.488" x2="1265.31" y2="789.295" gradientUnits="userSpaceOnUse">
<stop offset="0.00337838" stop-color="#8EBEF4"/>
<stop offset="1" stop-color="#B4D8FA"/>
</linearGradient>
<linearGradient id="paint27_linear_2464_3984" x1="1247.97" y1="781.627" x2="1266.12" y2="781.627" gradientUnits="userSpaceOnUse">
<stop stop-color="#97C3F4"/>
<stop offset="1" stop-color="#E8F1FA"/>
</linearGradient>
</defs>
</svg>
