<svg width="132" height="115" viewBox="0 0 132 115" fill="none" xmlns="http://www.w3.org/2000/svg">
<path d="M0.791508 113.061C0.778579 113.889 1.43959 114.571 2.26792 114.584C3.09624 114.597 3.77821 113.936 3.79114 113.107L0.791508 113.061ZM19.045 91.4135L18.8332 89.9285L19.045 91.4135ZM43.8901 96.992L44.715 95.7392L43.8901 96.992ZM47.1637 107.509L48.0439 108.723L47.1637 107.509ZM26.8687 95.5367L28.2849 95.0423L26.8687 95.5367ZM35.3376 59.824L34.2354 58.8066L35.3376 59.824ZM83.1175 42.9763L82.5393 44.3604L83.1175 42.9763ZM96.2021 78.4342L97.3181 79.4366L96.2021 78.4342ZM71.8522 71.8836L70.5892 72.6929L71.8522 71.8836ZM83.4742 21.279L84.2604 22.5565L83.4742 21.279ZM131.596 6.29637L115.388 0.188609L118.203 17.2789L131.596 6.29637ZM3.79114 113.107C3.93631 103.806 9.52673 94.2857 19.2567 92.8984L18.8332 89.9285C7.11725 91.5989 0.950301 102.886 0.791508 113.061L3.79114 113.107ZM19.2567 92.8984C27.0904 91.7815 36.8381 94.1444 43.0651 98.2448L44.715 95.7392C37.8965 91.2493 27.4147 88.7049 18.8332 89.9285L19.2567 92.8984ZM43.0651 98.2448C44.5753 99.2393 46.2975 100.868 47.1139 102.498C47.5136 103.296 47.6387 103.978 47.546 104.536C47.46 105.054 47.1555 105.662 46.2835 106.294L48.0439 108.723C49.4394 107.712 50.2685 106.454 50.5054 105.028C50.7355 103.643 50.3726 102.305 49.7963 101.155C48.6605 98.8868 46.4784 96.9004 44.715 95.7392L43.0651 98.2448ZM46.2835 106.294C43.9251 108.003 40.3488 107.546 36.6031 105.171C32.9306 102.842 29.6573 98.9744 28.2849 95.0423L25.4524 96.031C27.0762 100.683 30.8305 105.062 34.9965 107.704C39.0893 110.3 44.1624 111.536 48.0439 108.723L46.2835 106.294ZM28.2849 95.0423C24.0473 82.902 27.7008 70.3091 36.4399 60.8413L34.2354 58.8066C24.8842 68.9375 20.7864 82.6631 25.4524 96.031L28.2849 95.0423ZM36.4399 60.8413C41.9293 54.8942 49.5346 49.0788 57.7648 45.6118C65.9977 42.1436 74.6977 41.0847 82.5393 44.3604L83.6957 41.5922C74.8628 37.9024 65.2833 39.1892 56.6001 42.8471C47.9141 46.5062 39.9667 52.5973 34.2354 58.8066L36.4399 60.8413ZM82.5393 44.3604C86.2579 45.9138 89.0108 47.8241 91.1488 50.2246C93.2922 52.6311 94.8811 55.6015 96.1715 59.3642L99.0093 58.3911C97.6311 54.3724 95.8712 51.0161 93.3891 48.2293C90.9016 45.4364 87.7523 43.2868 83.6957 41.5922L82.5393 44.3604ZM96.1715 59.3642C98.2973 65.5633 99.4251 72.6013 95.0862 77.4319L97.3181 79.4366C102.9 73.2217 101.132 64.5815 99.0093 58.3911L96.1715 59.3642ZM95.0862 77.4319C93.2361 79.4916 91.2969 80.5344 89.3922 80.9063C87.473 81.281 85.4645 80.998 83.4589 80.1968C79.4069 78.5781 75.5811 74.9227 73.1151 71.0743L70.5892 72.6929C73.2879 76.9045 77.555 81.0688 82.3459 82.9827C84.7617 83.9478 87.3622 84.3593 89.967 83.8507C92.5863 83.3394 95.0862 81.9213 97.3181 79.4366L95.0862 77.4319ZM73.1151 71.0743C63.1062 55.4542 68.5236 32.2411 84.2604 22.5565L82.688 20.0015C65.5333 30.5588 59.6677 55.6486 70.5892 72.6929L73.1151 71.0743ZM84.2604 22.5565C94.635 16.1718 106.467 12.3936 118.57 9.96087L117.979 7.0197C105.677 9.49239 93.4709 13.3656 82.688 20.0015L84.2604 22.5565Z" fill="url(#paint0_linear_2464_5429)"/>
<defs>
<linearGradient id="paint0_linear_2464_5429" x1="6.01036" y1="110.203" x2="146.154" y2="19.2369" gradientUnits="userSpaceOnUse">
<stop stop-color="#6427FF"/>
<stop offset="1" stop-color="#7D51ED"/>
</linearGradient>
</defs>
</svg>
