<svg width="257" height="142" viewBox="0 0 257 142" fill="none" xmlns="http://www.w3.org/2000/svg">
<path d="M1.59958 3.20299C2.48301 3.20299 3.19917 2.48598 3.19917 1.6015C3.19917 0.717015 2.48301 0 1.59958 0C0.716158 0 0 0.717015 0 1.6015C0 2.48598 0.716158 3.20299 1.59958 3.20299Z" fill="#718096"/>
<path d="M1.59958 30.9624C2.48301 30.9624 3.19917 30.2454 3.19917 29.3609C3.19917 28.4764 2.48301 27.7594 1.59958 27.7594C0.716158 27.7594 0 28.4764 0 29.3609C0 30.2454 0.716158 30.9624 1.59958 30.9624Z" fill="#718096"/>
<path d="M1.59958 58.7218C2.48301 58.7218 3.19917 58.0048 3.19917 57.1203C3.19917 56.2358 2.48301 55.5188 1.59958 55.5188C0.716158 55.5188 0 56.2358 0 57.1203C0 58.0048 0.716158 58.7218 1.59958 58.7218Z" fill="#718096"/>
<path d="M1.59958 86.4812C2.48301 86.4812 3.19917 85.7642 3.19917 84.8797C3.19917 83.9952 2.48301 83.2782 1.59958 83.2782C0.716158 83.2782 0 83.9952 0 84.8797C0 85.7642 0.716158 86.4812 1.59958 86.4812Z" fill="#718096"/>
<path d="M1.59958 114.241C2.48301 114.241 3.19917 113.524 3.19917 112.639C3.19917 111.755 2.48301 111.038 1.59958 111.038C0.716158 111.038 0 111.755 0 112.639C0 113.524 0.716158 114.241 1.59958 114.241Z" fill="#718096"/>
<path d="M1.59958 142C2.48301 142 3.19917 141.283 3.19917 140.398C3.19917 139.514 2.48301 138.797 1.59958 138.797C0.716158 138.797 0 139.514 0 140.398C0 141.283 0.716158 142 1.59958 142Z" fill="#718096"/>
<path d="M37.8581 3.20299C38.7415 3.20299 39.4577 2.48598 39.4577 1.6015C39.4577 0.717015 38.7415 0 37.8581 0C36.9747 0 36.2585 0.717015 36.2585 1.6015C36.2585 2.48598 36.9747 3.20299 37.8581 3.20299Z" fill="#718096"/>
<path d="M37.8581 30.9624C38.7415 30.9624 39.4577 30.2454 39.4577 29.3609C39.4577 28.4764 38.7415 27.7594 37.8581 27.7594C36.9747 27.7594 36.2585 28.4764 36.2585 29.3609C36.2585 30.2454 36.9747 30.9624 37.8581 30.9624Z" fill="#718096"/>
<path d="M37.8581 58.7218C38.7415 58.7218 39.4577 58.0048 39.4577 57.1203C39.4577 56.2358 38.7415 55.5188 37.8581 55.5188C36.9747 55.5188 36.2585 56.2358 36.2585 57.1203C36.2585 58.0048 36.9747 58.7218 37.8581 58.7218Z" fill="#718096"/>
<path d="M37.8581 86.4812C38.7415 86.4812 39.4577 85.7642 39.4577 84.8797C39.4577 83.9952 38.7415 83.2782 37.8581 83.2782C36.9747 83.2782 36.2585 83.9952 36.2585 84.8797C36.2585 85.7642 36.9747 86.4812 37.8581 86.4812Z" fill="#718096"/>
<path d="M37.8581 114.241C38.7415 114.241 39.4577 113.524 39.4577 112.639C39.4577 111.755 38.7415 111.038 37.8581 111.038C36.9747 111.038 36.2585 111.755 36.2585 112.639C36.2585 113.524 36.9747 114.241 37.8581 114.241Z" fill="#718096"/>
<path d="M37.8581 142C38.7415 142 39.4577 141.283 39.4577 140.398C39.4577 139.514 38.7415 138.797 37.8581 138.797C36.9747 138.797 36.2585 139.514 36.2585 140.398C36.2585 141.283 36.9747 142 37.8581 142Z" fill="#718096"/>
<path d="M74.1149 3.20299C74.9983 3.20299 75.7144 2.48598 75.7144 1.6015C75.7144 0.717015 74.9983 0 74.1149 0C73.2314 0 72.5153 0.717015 72.5153 1.6015C72.5153 2.48598 73.2314 3.20299 74.1149 3.20299Z" fill="#718096"/>
<path d="M74.1149 30.9624C74.9983 30.9624 75.7144 30.2454 75.7144 29.3609C75.7144 28.4764 74.9983 27.7594 74.1149 27.7594C73.2314 27.7594 72.5153 28.4764 72.5153 29.3609C72.5153 30.2454 73.2314 30.9624 74.1149 30.9624Z" fill="#718096"/>
<path d="M74.1149 58.7218C74.9983 58.7218 75.7144 58.0048 75.7144 57.1203C75.7144 56.2358 74.9983 55.5188 74.1149 55.5188C73.2314 55.5188 72.5153 56.2358 72.5153 57.1203C72.5153 58.0048 73.2314 58.7218 74.1149 58.7218Z" fill="#718096"/>
<path d="M74.1149 86.4812C74.9983 86.4812 75.7144 85.7642 75.7144 84.8797C75.7144 83.9952 74.9983 83.2782 74.1149 83.2782C73.2314 83.2782 72.5153 83.9952 72.5153 84.8797C72.5153 85.7642 73.2314 86.4812 74.1149 86.4812Z" fill="#718096"/>
<path d="M74.1149 114.241C74.9983 114.241 75.7144 113.524 75.7144 112.639C75.7144 111.755 74.9983 111.038 74.1149 111.038C73.2314 111.038 72.5153 111.755 72.5153 112.639C72.5153 113.524 73.2314 114.241 74.1149 114.241Z" fill="#718096"/>
<path d="M74.1149 142C74.9983 142 75.7144 141.283 75.7144 140.398C75.7144 139.514 74.9983 138.797 74.1149 138.797C73.2314 138.797 72.5153 139.514 72.5153 140.398C72.5153 141.283 73.2314 142 74.1149 142Z" fill="#718096"/>
<path d="M110.372 3.20299C111.255 3.20299 111.971 2.48598 111.971 1.6015C111.971 0.717015 111.255 0 110.372 0C109.488 0 108.772 0.717015 108.772 1.6015C108.772 2.48598 109.488 3.20299 110.372 3.20299Z" fill="#718096"/>
<path d="M110.372 30.9624C111.255 30.9624 111.971 30.2454 111.971 29.3609C111.971 28.4764 111.255 27.7594 110.372 27.7594C109.488 27.7594 108.772 28.4764 108.772 29.3609C108.772 30.2454 109.488 30.9624 110.372 30.9624Z" fill="#718096"/>
<path d="M110.372 58.7218C111.255 58.7218 111.971 58.0048 111.971 57.1203C111.971 56.2358 111.255 55.5188 110.372 55.5188C109.488 55.5188 108.772 56.2358 108.772 57.1203C108.772 58.0048 109.488 58.7218 110.372 58.7218Z" fill="#718096"/>
<path d="M110.372 86.4812C111.255 86.4812 111.971 85.7642 111.971 84.8797C111.971 83.9952 111.255 83.2782 110.372 83.2782C109.488 83.2782 108.772 83.9952 108.772 84.8797C108.772 85.7642 109.488 86.4812 110.372 86.4812Z" fill="#718096"/>
<path d="M110.372 114.241C111.255 114.241 111.971 113.524 111.971 112.639C111.971 111.755 111.255 111.038 110.372 111.038C109.488 111.038 108.772 111.755 108.772 112.639C108.772 113.524 109.488 114.241 110.372 114.241Z" fill="#718096"/>
<path d="M110.372 142C111.255 142 111.971 141.283 111.971 140.398C111.971 139.514 111.255 138.797 110.372 138.797C109.488 138.797 108.772 139.514 108.772 140.398C108.772 141.283 109.488 142 110.372 142Z" fill="#718096"/>
<path d="M146.628 3.20299C147.512 3.20299 148.228 2.48598 148.228 1.6015C148.228 0.717015 147.512 0 146.628 0C145.745 0 145.029 0.717015 145.029 1.6015C145.029 2.48598 145.745 3.20299 146.628 3.20299Z" fill="#718096"/>
<path d="M146.628 30.9624C147.512 30.9624 148.228 30.2454 148.228 29.3609C148.228 28.4764 147.512 27.7594 146.628 27.7594C145.745 27.7594 145.029 28.4764 145.029 29.3609C145.029 30.2454 145.745 30.9624 146.628 30.9624Z" fill="#718096"/>
<path d="M146.628 58.7218C147.512 58.7218 148.228 58.0048 148.228 57.1203C148.228 56.2358 147.512 55.5188 146.628 55.5188C145.745 55.5188 145.029 56.2358 145.029 57.1203C145.029 58.0048 145.745 58.7218 146.628 58.7218Z" fill="#718096"/>
<path d="M146.628 86.4812C147.512 86.4812 148.228 85.7642 148.228 84.8797C148.228 83.9952 147.512 83.2782 146.628 83.2782C145.745 83.2782 145.029 83.9952 145.029 84.8797C145.029 85.7642 145.745 86.4812 146.628 86.4812Z" fill="#718096"/>
<path d="M146.628 114.241C147.512 114.241 148.228 113.524 148.228 112.639C148.228 111.755 147.512 111.038 146.628 111.038C145.745 111.038 145.029 111.755 145.029 112.639C145.029 113.524 145.745 114.241 146.628 114.241Z" fill="#718096"/>
<path d="M146.628 142C147.512 142 148.228 141.283 148.228 140.398C148.228 139.514 147.512 138.797 146.628 138.797C145.745 138.797 145.029 139.514 145.029 140.398C145.029 141.283 145.745 142 146.628 142Z" fill="#718096"/>
<path d="M182.887 3.20299C183.77 3.20299 184.486 2.48598 184.486 1.6015C184.486 0.717015 183.77 0 182.887 0C182.003 0 181.287 0.717015 181.287 1.6015C181.287 2.48598 182.003 3.20299 182.887 3.20299Z" fill="#718096"/>
<path d="M182.887 30.9624C183.77 30.9624 184.486 30.2454 184.486 29.3609C184.486 28.4764 183.77 27.7594 182.887 27.7594C182.003 27.7594 181.287 28.4764 181.287 29.3609C181.287 30.2454 182.003 30.9624 182.887 30.9624Z" fill="#718096"/>
<path d="M182.887 58.7218C183.77 58.7218 184.486 58.0048 184.486 57.1203C184.486 56.2358 183.77 55.5188 182.887 55.5188C182.003 55.5188 181.287 56.2358 181.287 57.1203C181.287 58.0048 182.003 58.7218 182.887 58.7218Z" fill="#718096"/>
<path d="M182.887 86.4812C183.77 86.4812 184.486 85.7642 184.486 84.8797C184.486 83.9952 183.77 83.2782 182.887 83.2782C182.003 83.2782 181.287 83.9952 181.287 84.8797C181.287 85.7642 182.003 86.4812 182.887 86.4812Z" fill="#718096"/>
<path d="M182.887 114.241C183.77 114.241 184.486 113.524 184.486 112.639C184.486 111.755 183.77 111.038 182.887 111.038C182.003 111.038 181.287 111.755 181.287 112.639C181.287 113.524 182.003 114.241 182.887 114.241Z" fill="#718096"/>
<path d="M182.887 142C183.77 142 184.486 141.283 184.486 140.398C184.486 139.514 183.77 138.797 182.887 138.797C182.003 138.797 181.287 139.514 181.287 140.398C181.287 141.283 182.003 142 182.887 142Z" fill="#718096"/>
<path d="M219.144 3.20299C220.027 3.20299 220.743 2.48598 220.743 1.6015C220.743 0.717015 220.027 0 219.144 0C218.26 0 217.544 0.717015 217.544 1.6015C217.544 2.48598 218.26 3.20299 219.144 3.20299Z" fill="#718096"/>
<path d="M219.144 30.9624C220.027 30.9624 220.743 30.2454 220.743 29.3609C220.743 28.4764 220.027 27.7594 219.144 27.7594C218.26 27.7594 217.544 28.4764 217.544 29.3609C217.544 30.2454 218.26 30.9624 219.144 30.9624Z" fill="#718096"/>
<path d="M219.144 58.7218C220.027 58.7218 220.743 58.0048 220.743 57.1203C220.743 56.2358 220.027 55.5188 219.144 55.5188C218.26 55.5188 217.544 56.2358 217.544 57.1203C217.544 58.0048 218.26 58.7218 219.144 58.7218Z" fill="#718096"/>
<path d="M219.144 86.4812C220.027 86.4812 220.743 85.7642 220.743 84.8797C220.743 83.9952 220.027 83.2782 219.144 83.2782C218.26 83.2782 217.544 83.9952 217.544 84.8797C217.544 85.7642 218.26 86.4812 219.144 86.4812Z" fill="#718096"/>
<path d="M219.144 114.241C220.027 114.241 220.743 113.524 220.743 112.639C220.743 111.755 220.027 111.038 219.144 111.038C218.26 111.038 217.544 111.755 217.544 112.639C217.544 113.524 218.26 114.241 219.144 114.241Z" fill="#718096"/>
<path d="M219.144 142C220.027 142 220.743 141.283 220.743 140.398C220.743 139.514 220.027 138.797 219.144 138.797C218.26 138.797 217.544 139.514 217.544 140.398C217.544 141.283 218.26 142 219.144 142Z" fill="#718096"/>
<path d="M255.4 3.20299C256.284 3.20299 257 2.48598 257 1.6015C257 0.717015 256.284 0 255.4 0C254.517 0 253.801 0.717015 253.801 1.6015C253.801 2.48598 254.517 3.20299 255.4 3.20299Z" fill="#718096"/>
<path d="M255.4 30.9624C256.284 30.9624 257 30.2454 257 29.3609C257 28.4764 256.284 27.7594 255.4 27.7594C254.517 27.7594 253.801 28.4764 253.801 29.3609C253.801 30.2454 254.517 30.9624 255.4 30.9624Z" fill="#718096"/>
<path d="M255.4 58.7218C256.284 58.7218 257 58.0048 257 57.1203C257 56.2358 256.284 55.5188 255.4 55.5188C254.517 55.5188 253.801 56.2358 253.801 57.1203C253.801 58.0048 254.517 58.7218 255.4 58.7218Z" fill="#718096"/>
<path d="M255.4 86.4812C256.284 86.4812 257 85.7642 257 84.8797C257 83.9952 256.284 83.2782 255.4 83.2782C254.517 83.2782 253.801 83.9952 253.801 84.8797C253.801 85.7642 254.517 86.4812 255.4 86.4812Z" fill="#718096"/>
<path d="M255.4 114.241C256.284 114.241 257 113.524 257 112.639C257 111.755 256.284 111.038 255.4 111.038C254.517 111.038 253.801 111.755 253.801 112.639C253.801 113.524 254.517 114.241 255.4 114.241Z" fill="#718096"/>
<path d="M255.4 142C256.284 142 257 141.283 257 140.398C257 139.514 256.284 138.797 255.4 138.797C254.517 138.797 253.801 139.514 253.801 140.398C253.801 141.283 254.517 142 255.4 142Z" fill="#718096"/>
</svg>
