<svg width="99" height="99" viewBox="0 0 99 99" fill="none" xmlns="http://www.w3.org/2000/svg">
<g filter="url(#filter0_b_2464_5447)">
<circle cx="49.2111" cy="49.2111" r="49.2111" fill="url(#paint0_linear_2464_5447)"/>
</g>
<path d="M41.7267 82.2899C42.1326 82.3883 42.5076 82.5459 42.8515 82.7627C43.191 82.9821 43.4719 83.2447 43.6942 83.5505C43.9156 83.8598 44.0469 84.1973 44.0879 84.563L42.779 84.7125C42.7639 84.5606 42.6951 84.4087 42.5726 84.2568C42.4502 84.1048 42.2889 83.9675 42.0889 83.845C41.8889 83.7224 41.6647 83.631 41.4162 83.5707C41.1608 83.5088 40.9135 83.4896 40.6743 83.5132C40.4309 83.5394 40.2239 83.6059 40.0535 83.7128C39.8823 83.8232 39.7737 83.9729 39.7279 84.1619C39.6813 84.3543 39.7148 84.5292 39.8286 84.6865C39.9415 84.8472 40.1011 84.9915 40.3072 85.1193C40.5134 85.2471 40.7308 85.359 40.9594 85.4552C41.4613 85.6621 41.8984 85.8996 42.2706 86.1676C42.6428 86.4357 42.9136 86.7477 43.083 87.1037C43.2488 87.4589 43.2745 87.8727 43.16 88.3451C43.0523 88.7895 42.8304 89.147 42.4943 89.4175C42.1583 89.688 41.7595 89.8656 41.2981 89.9501C40.8368 90.0346 40.3646 90.0183 39.8817 89.9013C39.4792 89.8037 39.1061 89.6466 38.7621 89.4298C38.4182 89.2131 38.1356 88.95 37.9142 88.6407C37.6892 88.3305 37.5567 87.9909 37.5165 87.6217L38.8294 87.4787C38.8445 87.6306 38.9132 87.7825 39.0357 87.9344C39.1582 88.0864 39.3199 88.2219 39.5207 88.341C39.7207 88.4636 39.9449 88.555 40.1934 88.6152C40.441 88.679 40.687 88.696 40.9313 88.6663C41.1713 88.6392 41.3782 88.5727 41.5522 88.4666C41.7261 88.3606 41.8351 88.2166 41.8792 88.0346C41.936 87.8001 41.9141 87.6077 41.8135 87.4574C41.7093 87.3061 41.5538 87.1758 41.3469 87.0664C41.1392 86.9604 40.9061 86.8521 40.6477 86.7413C40.1764 86.5455 39.7546 86.3062 39.3823 86.0233C39.01 85.7403 38.7347 85.4161 38.5566 85.0506C38.3776 84.6886 38.3411 84.2888 38.4471 83.8514C38.5548 83.407 38.7754 83.0473 39.1088 82.7724C39.4414 82.5011 39.8383 82.3231 40.2997 82.2386C40.7611 82.1541 41.2368 82.1712 41.7267 82.2899Z" fill="white"/>
<path d="M27.9006 84.9332L26.6079 84.138L28.2284 76.2569L29.4199 76.9898L29.1321 78.3855L31.8923 80.0835L33.0082 79.1973L34.1997 79.9303L27.9006 84.9332ZM30.7924 80.9541L28.8556 79.7627L28.1933 83.0143L30.7924 80.9541Z" fill="white"/>
<path d="M24.008 71.9936L20.0942 79.0214L19.1775 77.9647L22.2931 72.3659L16.307 74.6559L15.3938 73.6033L22.9037 70.7207L24.008 71.9936Z" fill="white"/>
<path d="M19.476 65.7652L12.5406 68.7784L10.6508 64.4289L11.8596 63.9037L13.2241 67.0445L14.631 66.4332L13.5484 63.9414L14.7572 63.4163L15.8398 65.9081L17.7421 65.0816L16.3775 61.9408L17.5863 61.4157L19.476 65.7652Z" fill="white"/>
<path d="M15.4194 50.145L7.96937 48.1868L8.04039 47.0981L12.9949 45.5755L8.28015 43.4222L8.35117 42.3335L15.9925 41.3597L15.9049 42.7017L11.1783 43.3028L15.5627 45.2937L15.5039 46.1938L10.8981 47.5984L15.507 48.8029L15.4194 50.145Z" fill="white"/>
<path d="M18.0105 37.3583C17.8299 37.8367 17.5658 38.2509 17.2182 38.6008C16.8673 38.9494 16.463 39.2202 16.0053 39.413C15.5476 39.6059 15.0638 39.7101 14.5538 39.7254C14.0405 39.7395 13.5311 39.6512 13.0258 39.4605C12.5205 39.2697 12.0815 39.0001 11.7088 38.6517C11.3328 38.3019 11.0367 37.9034 10.8206 37.4562C10.6045 37.0091 10.4816 36.5393 10.4519 36.047C10.4188 35.5534 10.4925 35.0674 10.6731 34.5891C10.8549 34.1073 11.1213 33.6921 11.4722 33.3435C11.8198 32.9936 12.2225 32.7222 12.6801 32.5293C13.1378 32.3364 13.6227 32.2346 14.1348 32.2239C14.6448 32.2085 15.1524 32.2962 15.6577 32.4869C16.1631 32.6776 16.6038 32.9479 16.9798 33.2976C17.3537 33.6428 17.6487 34.0389 17.8648 34.4861C18.0809 34.9333 18.2055 35.4037 18.2386 35.8972C18.2683 36.3896 18.1923 36.8766 18.0105 37.3583ZM16.7775 36.893C16.8944 36.583 16.9404 36.2675 16.9154 35.9463C16.8903 35.6251 16.8054 35.3198 16.6607 35.0304C16.5138 34.7363 16.3154 34.4767 16.0655 34.2515C15.817 34.023 15.5259 33.8458 15.1924 33.7199C14.8589 33.5941 14.5233 33.5348 14.1857 33.5421C13.8448 33.5481 13.5237 33.6136 13.2225 33.7385C12.9226 33.8601 12.6572 34.0332 12.4261 34.2577C12.1964 34.4789 12.0231 34.7445 11.9061 35.0544C11.7891 35.3644 11.7431 35.6799 11.7682 36.0011C11.7932 36.3223 11.8791 36.6299 12.026 36.924C12.1708 37.2134 12.3675 37.4724 12.6161 37.7009C12.8659 37.9261 13.1576 38.1016 13.4911 38.2275C13.828 38.3546 14.1653 38.4145 14.5029 38.4072C14.8405 38.4 15.1609 38.3362 15.4642 38.2158C15.7653 38.0909 16.0308 37.9178 16.2605 37.6966C16.4882 37.4708 16.6605 37.2029 16.7775 36.893Z" fill="white"/>
<path d="M20.8594 31.2781L14.9118 26.6085L15.7924 25.4869L21.8377 26.1749L17.7636 22.9762L18.5775 21.9396L24.5251 26.6093L23.6479 27.7266L17.5992 27.0428L21.6733 30.2415L20.8594 31.2781Z" fill="white"/>
<path d="M27.7293 23.7293L23.2359 17.6475L27.05 14.8294L27.8332 15.8894L25.079 17.9243L25.9905 19.158L28.1756 17.5436L28.9587 18.6035L26.7736 20.218L28.0061 21.8861L30.7603 19.8512L31.5435 20.9112L27.7293 23.7293Z" fill="white"/>
<path d="M35.9505 10.687L37.4072 10.1412L36.4317 14.9422L37.6275 18.1337L36.3933 18.5961L35.1976 15.4046L31.3074 12.4267L32.7641 11.8809L35.3105 13.828L35.9505 10.687Z" fill="white"/>
<path d="M60.6589 18.0908L63.7508 11.1901L67.8271 13.0165L67.2883 14.2192L64.4146 12.9317L63.7874 14.3315L66.1879 15.4071L65.649 16.6098L63.2485 15.5342L61.8616 18.6297L60.6589 18.0908Z" fill="white"/>
<path d="M71.2444 24.6557C70.856 24.3232 70.5564 23.934 70.3456 23.4881C70.1372 23.0394 70.0201 22.5671 69.9944 22.0711C69.9687 21.5751 70.0354 21.0847 70.1945 20.5999C70.3558 20.1124 70.6122 19.6635 70.9634 19.2532C71.3147 18.8429 71.7176 18.5218 72.172 18.2899C72.6288 18.0553 73.1043 17.9125 73.5983 17.8614C74.0923 17.8103 74.5759 17.8545 75.0489 17.9941C75.5243 18.1309 75.9562 18.3655 76.3447 18.6981C76.7358 19.0329 77.0356 19.4247 77.2441 19.8733C77.4549 20.3192 77.5731 20.7901 77.5988 21.2861C77.6245 21.7821 77.5552 22.2727 77.3911 22.7579C77.2321 23.2427 76.9769 23.6902 76.6256 24.1005C76.2744 24.5109 75.8703 24.8333 75.4135 25.0679C74.9618 25.3022 74.4889 25.4448 73.9949 25.4959C73.5008 25.5469 73.0161 25.5041 72.5407 25.3673C72.0677 25.2277 71.6356 24.9905 71.2444 24.6557ZM72.1015 23.6545C72.3531 23.87 72.6342 24.0206 72.9448 24.1063C73.2553 24.192 73.5713 24.2161 73.8927 24.1784C74.2192 24.1403 74.5308 24.0421 74.8276 23.8837C75.127 23.7277 75.3927 23.5143 75.6245 23.2435C75.8563 22.9727 76.0262 22.6773 76.1342 22.3574C76.2446 22.0347 76.2922 21.7105 76.2772 21.3848C76.2649 21.0614 76.1924 20.7529 76.0598 20.4593C75.93 20.168 75.7393 19.9146 75.4876 19.6992C75.2359 19.4838 74.9548 19.3332 74.6443 19.2474C74.3337 19.1617 74.0152 19.1379 73.6887 19.176C73.3673 19.2137 73.0569 19.3105 72.7574 19.4665C72.4607 19.6249 72.1964 19.8395 71.9646 20.1103C71.7304 20.3838 71.5593 20.6805 71.4513 21.0005C71.3433 21.3204 71.2943 21.6434 71.3043 21.9695C71.3193 22.2953 71.3918 22.6038 71.5216 22.8951C71.6565 23.1859 71.8498 23.4391 72.1015 23.6545Z" fill="white"/>
<path d="M75.9189 29.4479L82.1857 25.2163L83.8088 27.6201C84.0385 27.9603 84.161 28.3251 84.1763 28.7145C84.1916 29.1039 84.1104 29.4759 83.9327 29.8305C83.758 30.1831 83.4976 30.4762 83.1514 30.71C82.8679 30.9014 82.5716 31.0255 82.2623 31.0823C81.958 31.14 81.6569 31.1348 81.3589 31.0666C81.0629 31.0015 80.7895 30.8797 80.5388 30.7015L78.9596 33.9511L78.1102 32.6932L79.6242 29.5593L79.1497 28.8566L76.6564 30.5401L75.9189 29.4479ZM80.2419 28.1191L81.0429 29.3053C81.1477 29.4605 81.2822 29.576 81.4464 29.652C81.6106 29.7279 81.7846 29.7603 81.9683 29.7492C82.152 29.7382 82.3244 29.6782 82.4856 29.5694C82.6497 29.4586 82.7712 29.32 82.8501 29.1538C82.929 28.9875 82.964 28.8141 82.9549 28.6334C82.9459 28.4526 82.8889 28.2847 82.7842 28.1295L81.9832 26.9433L80.2419 28.1191Z" fill="white"/>
<path d="M81.8175 41.891L89.2781 40.6585L90.0061 45.0656L88.7059 45.2804L88.1926 42.1736L86.6792 42.4236L87.1079 45.0188L85.8076 45.2336L85.3789 42.6384L82.0323 43.1912L81.8175 41.891Z" fill="white"/>
<path d="M82.2489 53.8632C82.3178 53.2622 82.5249 52.7514 82.8703 52.3307C83.2153 51.9135 83.649 51.608 84.1714 51.4142C84.6974 51.2208 85.2626 51.1587 85.8672 51.228L90.246 51.7298L90.0959 53.0392L85.7172 52.5373C85.3594 52.4963 85.0227 52.5248 84.707 52.6227C84.3945 52.7246 84.1345 52.8905 83.9269 53.1205C83.7225 53.3544 83.5996 53.652 83.5582 54.0133C83.5164 54.3782 83.5688 54.6959 83.7154 54.9664C83.8655 55.2373 84.0817 55.4542 84.3639 55.617C84.6492 55.7838 84.9707 55.8877 85.3285 55.9287L89.7072 56.4305L89.5572 57.7399L85.1784 57.238C84.7241 57.186 84.3066 57.0656 83.9259 56.877C83.5488 56.6888 83.2251 56.4451 82.955 56.146C82.6848 55.8468 82.4868 55.5033 82.3609 55.1156C82.2346 54.7314 82.1972 54.314 82.2489 53.8632Z" fill="white"/>
<path d="M85.9173 68.406L84.6905 67.9245L85.5351 65.7726L79.723 63.4914L80.2045 62.2646L86.0166 64.5458L86.8612 62.3939L88.088 62.8754L85.9173 68.406Z" fill="white"/>
<path d="M75.7917 69.7835C76.15 69.2961 76.5836 68.9556 77.0923 68.762C77.599 68.5714 78.1271 68.5217 78.6768 68.6129C79.2293 68.7063 79.7508 68.9332 80.2411 69.2936L83.7922 71.9042L83.0116 72.966L79.4605 70.3555C79.1704 70.1422 78.864 69.9997 78.5414 69.9278C78.2195 69.8611 77.9114 69.8759 77.6171 69.9724C77.3235 70.0738 77.069 70.2711 76.8536 70.5641C76.636 70.86 76.5237 71.1618 76.5165 71.4694C76.5123 71.7791 76.5922 72.0747 76.7562 72.3562C76.921 72.6427 77.1485 72.8926 77.4386 73.1058L80.9897 75.7164L80.2091 76.7782L76.658 74.1677C76.2895 73.8968 75.9869 73.585 75.7502 73.2322C75.5164 72.8815 75.3565 72.5093 75.2707 72.1154C75.1848 71.7216 75.1835 71.3251 75.2668 70.9261C75.348 70.5299 75.523 70.1491 75.7917 69.7835Z" fill="white"/>
<path d="M71.4765 74.7468L76.2135 80.6409L73.9526 82.4579C73.6327 82.715 73.2793 82.8674 72.8925 82.9149C72.5057 82.9624 72.1282 82.9124 71.7601 82.7647C71.3943 82.6199 71.0805 82.3847 70.8189 82.0591C70.6046 81.7925 70.4563 81.5074 70.3741 81.2039C70.2913 80.9055 70.2715 80.605 70.3147 80.3023C70.3551 80.0019 70.4537 79.7194 70.6106 79.4548L67.2412 78.1506L68.4242 77.1998L71.6729 78.4486L72.3339 77.9174L70.4493 75.5724L71.4765 74.7468ZM73.1595 78.9447L72.0438 79.8413C71.8978 79.9586 71.7938 80.1022 71.7318 80.2722C71.6698 80.4421 71.6519 80.6182 71.6781 80.8003C71.7044 80.9825 71.7785 81.1493 71.9003 81.3009C72.0243 81.4553 72.1725 81.5649 72.3447 81.6297C72.5169 81.6946 72.6927 81.715 72.872 81.691C73.0514 81.667 73.214 81.5963 73.36 81.479L74.4756 80.5824L73.1595 78.9447Z" fill="white"/>
<path d="M65.1161 79.318L68.1171 86.2587L63.7643 88.1407L63.2412 86.9311L66.3844 85.572L65.7756 84.1641L63.2819 85.2423L62.7589 84.0326L65.2526 82.9544L64.4295 81.0507L61.2863 82.4097L60.7633 81.2L65.1161 79.318Z" fill="white"/>
<path d="M55.0007 82.5805C55.1854 82.5495 55.3541 82.5869 55.507 82.6927C55.6568 82.8027 55.7476 82.9518 55.7791 83.14C55.8095 83.3211 55.7718 83.4881 55.6659 83.6409C55.5566 83.7943 55.4096 83.8865 55.2249 83.9175C55.0402 83.9485 54.8712 83.9093 54.7178 83.7999C54.5643 83.6905 54.4724 83.5453 54.4421 83.3642C54.4105 83.176 54.4494 83.0051 54.5588 82.8517C54.6687 82.7018 54.8161 82.6114 55.0007 82.5805Z" fill="white"/>
<defs>
<filter id="filter0_b_2464_5447" x="-9.00203" y="-9.00203" width="116.426" height="116.426" filterUnits="userSpaceOnUse" color-interpolation-filters="sRGB">
<feFlood flood-opacity="0" result="BackgroundImageFix"/>
<feGaussianBlur in="BackgroundImageFix" stdDeviation="4.50102"/>
<feComposite in2="SourceAlpha" operator="in" result="effect1_backgroundBlur_2464_5447"/>
<feBlend mode="normal" in="SourceGraphic" in2="effect1_backgroundBlur_2464_5447" result="shape"/>
</filter>
<linearGradient id="paint0_linear_2464_5447" x1="0" y1="0" x2="98.4222" y2="98.4222" gradientUnits="userSpaceOnUse">
<stop stop-color="#682DFD"/>
<stop offset="0.0001" stop-color="#5E36C1" stop-opacity="0.6"/>
<stop offset="1" stop-color="#E1D6FF" stop-opacity="0.2"/>
</linearGradient>
</defs>
</svg>
