<svg width="55" height="55" viewBox="0 0 55 55" fill="none" xmlns="http://www.w3.org/2000/svg">
<g opacity="0.1" filter="url(#filter0_b_4003_3069)">
<circle cx="27.2092" cy="27.2112" r="27.0061" fill="white"/>
</g>
<path fill-rule="evenodd" clip-rule="evenodd" d="M31.7034 13.3126H20.297C18.4565 10.8265 20.9361 7.34701 24.0164 8.34067L25.4853 8.81455C25.8198 8.92245 26.1806 8.92245 26.515 8.81455L27.984 8.34067C31.0642 7.34701 33.5439 10.8265 31.7034 13.3126ZM20.4683 15.6876H31.5321C33.6209 16.8442 35.2528 18.7753 36.0001 21.1665L37.9793 27.4998C39.8909 33.6171 35.3208 39.8334 28.9117 39.8334H23.0887C16.6796 39.8334 12.1094 33.6171 14.0211 27.4998L16.0003 21.1665C16.7475 18.7753 18.3794 16.8442 20.4683 15.6876ZM26.7501 20.0417C26.7501 19.6275 26.4144 19.2917 26.0001 19.2917C25.5859 19.2917 25.2501 19.6275 25.2501 20.0417V21.7325C23.5067 22.0407 22.0835 23.4027 22.0835 25.1876C22.0835 27.223 23.9342 28.7084 26.0001 28.7084C27.432 28.7084 28.4168 29.7041 28.4168 30.7292C28.4168 31.7544 27.432 32.7501 26.0001 32.7501C24.5682 32.7501 23.5835 31.7544 23.5835 30.7292C23.5835 30.315 23.2477 29.9792 22.8335 29.9792C22.4193 29.9792 22.0835 30.315 22.0835 30.7292C22.0835 32.5142 23.5067 33.8761 25.2501 34.1843V35.8751C25.2501 36.2893 25.5859 36.6251 26.0001 36.6251C26.4144 36.6251 26.7501 36.2893 26.7501 35.8751V34.1843C28.4936 33.8761 29.9168 32.5142 29.9168 30.7292C29.9168 28.6938 28.0661 27.2084 26.0001 27.2084C24.5682 27.2084 23.5835 26.2127 23.5835 25.1876C23.5835 24.1624 24.5682 23.1667 26.0001 23.1667C27.432 23.1667 28.4168 24.1624 28.4168 25.1876C28.4168 25.6018 28.7526 25.9376 29.1668 25.9376C29.581 25.9376 29.9168 25.6018 29.9168 25.1876C29.9168 23.4027 28.4936 22.0407 26.7501 21.7325V20.0417Z" fill="white"/>
<defs>
<filter id="filter0_b_4003_3069" x="-8.79891" y="-8.79696" width="72.0158" height="72.0163" filterUnits="userSpaceOnUse" color-interpolation-filters="sRGB">
<feFlood flood-opacity="0" result="BackgroundImageFix"/>
<feGaussianBlur in="BackgroundImageFix" stdDeviation="4.50102"/>
<feComposite in2="SourceAlpha" operator="in" result="effect1_backgroundBlur_4003_3069"/>
<feBlend mode="normal" in="SourceGraphic" in2="effect1_backgroundBlur_4003_3069" result="shape"/>
</filter>
</defs>
</svg>
