<svg width="140" height="40" viewBox="0 0 140 40" fill="none" xmlns="http://www.w3.org/2000/svg">
<path opacity="0.6" d="M31.6902 3.75373C31.2266 3.42072 30.5836 3.49245 30.1815 3.89718L25.2812 8.82308L24.1182 9.99116L24.0952 1.41502C24.0952 0.841231 23.6802 0.331478 23.1115 0.241823C21.0162 -0.0860583 18.8798 -0.0809352 16.787 0.259754C16.2209 0.35197 15.8085 0.864285 15.8111 1.43808L15.8341 10.0142L14.7454 8.93067L9.74012 3.95097C9.3354 3.5488 8.68988 3.47964 8.2288 3.81521C7.38348 4.42998 6.57402 5.11905 5.81067 5.88496C5.04989 6.65087 4.36338 7.46545 3.75373 8.31333C3.42072 8.77697 3.49245 9.41993 3.89718 9.8221L9.99116 15.8828L1.41502 15.9058C0.841231 15.9058 0.331478 16.3208 0.241823 16.8895C-0.0860583 18.9848 -0.0809352 21.1186 0.259754 23.214C0.35197 23.7801 0.864285 24.1925 1.43808 24.19L10.0142 24.1669L30.0124 24.1157H31.2394L38.5886 24.0926C39.1624 24.0926 39.6721 23.6776 39.7618 23.109C40.0896 21.0136 40.0845 18.8773 39.7464 16.7845C39.6542 16.2183 39.1419 15.8059 38.5681 15.8085L29.9919 15.8315L36.0526 9.73756C36.4548 9.33284 36.5239 8.68732 36.1884 8.22624C35.5736 7.37835 34.8845 6.5689 34.1186 5.80811C33.3527 5.04732 32.5407 4.36338 31.6902 3.75117V3.75373Z" fill="#0062FF"/>
<path d="M10.0136 24.1671L6.4197 27.7788L3.95034 30.261C3.54049 30.6709 3.4867 31.3215 3.82739 31.7903C4.4396 32.6305 5.12354 33.4348 5.88433 34.1905C6.64512 34.9461 7.45201 35.6275 8.29733 36.2346C8.7661 36.5727 9.41674 36.5138 9.82403 36.104L15.8847 30.01L15.9078 38.5861C15.9078 39.1702 16.333 39.6722 16.9093 39.7619C18.9919 40.0846 21.1129 40.0795 23.1929 39.7439C23.7692 39.6517 24.1919 39.1471 24.1893 38.5631L24.1663 29.9869L30.2576 36.0476C30.6675 36.4575 31.3181 36.5112 31.7843 36.1706C32.6245 35.5583 33.4288 34.8744 34.1845 34.1136C34.9402 33.3528 35.6216 32.5459 36.2286 31.7032C36.5668 31.2344 36.5079 30.5838 36.098 30.1765L32.3735 26.4724L30.004 24.1159L20.8132 14.9736C20.3521 14.5151 19.6092 14.5177 19.1507 14.9788L10.0085 24.1697L10.0136 24.1671Z" fill="#0062FF"/>
<path d="M61.0039 34.94C57.6039 34.94 54.9639 34.14 53.0039 32.54C51.0439 30.94 49.8039 28.74 49.3239 25.9L54.9639 24.58C55.2039 26.1 55.8839 27.34 57.0439 28.22C58.2039 29.1 59.5639 29.5 61.2039 29.5C62.5639 29.5 63.6439 29.22 64.4039 28.58C65.2039 27.94 65.6039 27.14 65.6039 26.22C65.6039 24.78 64.3239 23.54 62.2839 23.18L58.1639 22.34C55.8039 21.9 53.8839 20.9 52.4839 19.46C51.0839 17.98 50.4039 16.14 50.4039 13.98C50.4039 11.42 51.6039 9.06 53.4439 7.46C55.3239 5.9 57.9639 4.9 60.7239 4.9C63.9239 4.9 66.6439 5.86 68.3239 7.34C70.0039 8.9 70.9639 10.7 71.2439 12.66L65.7639 14.26C65.2439 11.86 63.5639 10.3 60.6439 10.3C59.4439 10.3 58.4439 10.62 57.6039 11.26C56.8039 11.9 56.4039 12.66 56.4039 13.5C56.4039 14.98 57.4039 16.14 59.4039 16.54L63.4839 17.3C66.1239 17.78 68.1639 18.78 69.6039 20.34C71.0039 21.9 71.7239 23.74 71.7239 25.86C71.7239 28.14 70.7239 30.34 69.0039 32.1C67.2039 33.82 64.3639 34.94 61.0039 34.94ZM80.3545 34.9C78.5545 34.9 76.9945 34.34 75.7145 33.26C74.3945 32.14 73.7545 30.7 73.7545 28.94V28.78C73.7545 25.94 75.4745 24.3 77.7545 23.5C79.3545 22.9 80.8345 22.7 82.5145 22.7H84.4345C85.4745 22.7 85.9945 22.18 85.9945 21.34C85.9945 19.94 84.8745 18.86 82.8745 18.86C81.1145 18.86 79.7545 19.9 79.3145 21.58L74.1945 20.42C74.4345 19.06 74.9945 17.9 75.9145 16.94C76.7945 15.98 77.8745 15.26 79.1545 14.82C80.3945 14.38 81.7145 14.14 83.1545 14.14C88.0745 14.1 91.7145 16.9 91.7145 22.18V31.3C91.7145 32.5 91.7945 33.58 91.8745 34.5H86.4745C86.3945 33.98 86.3545 33.18 86.3545 32.02H86.2745C84.9145 33.9 82.9545 34.9 80.3545 34.9ZM82.0345 30.66C83.2345 30.66 84.1945 30.26 84.9145 29.5C85.6345 28.78 85.9945 27.86 85.9945 26.82V26.34H82.5145C81.7945 26.34 81.1545 26.54 80.5545 26.94C79.9145 27.34 79.5945 27.9 79.5945 28.62C79.5945 29.94 80.6745 30.66 82.0345 30.66ZM107.947 14.62V20.3C107.427 20.22 106.827 20.14 106.107 20.14C103.227 20.14 101.387 22.18 101.387 25.78V34.5H95.6667V14.62H101.187V17.5H101.227C102.267 15.34 104.187 14.42 106.387 14.42C106.907 14.42 107.427 14.5 107.947 14.62ZM114.712 34.9C112.912 34.9 111.352 34.34 110.072 33.26C108.752 32.14 108.112 30.7 108.112 28.94V28.78C108.112 25.94 109.832 24.3 112.112 23.5C113.712 22.9 115.192 22.7 116.872 22.7H118.792C119.832 22.7 120.352 22.18 120.352 21.34C120.352 19.94 119.232 18.86 117.232 18.86C115.472 18.86 114.112 19.9 113.672 21.58L108.552 20.42C108.792 19.06 109.352 17.9 110.272 16.94C111.152 15.98 112.232 15.26 113.512 14.82C114.752 14.38 116.072 14.14 117.512 14.14C122.432 14.1 126.072 16.9 126.072 22.18V31.3C126.072 32.5 126.152 33.58 126.232 34.5H120.832C120.752 33.98 120.712 33.18 120.712 32.02H120.632C119.272 33.9 117.312 34.9 114.712 34.9ZM116.392 30.66C117.592 30.66 118.552 30.26 119.272 29.5C119.992 28.78 120.352 27.86 120.352 26.82V26.34H116.872C116.152 26.34 115.512 26.54 114.912 26.94C114.272 27.34 113.952 27.9 113.952 28.62C113.952 29.94 115.032 30.66 116.392 30.66Z" fill="#111827"/>
<path d="M133.185 34.94C132.065 34.94 131.145 34.54 130.345 33.74C129.545 32.98 129.145 32.02 129.145 30.94C129.145 29.82 129.545 28.86 130.345 28.06C131.145 27.3 132.065 26.9 133.185 26.9C134.305 26.9 135.265 27.3 136.065 28.06C136.825 28.86 137.225 29.82 137.225 30.94C137.225 32.02 136.825 32.98 136.065 33.74C135.265 34.54 134.305 34.94 133.185 34.94Z" fill="#FFC837"/>
</svg>
