<svg width="44" height="52" viewBox="0 0 44 52" fill="none" xmlns="http://www.w3.org/2000/svg">
<path opacity="0.4" d="M39.1958 17.9764C38.0398 17.9764 36.5086 17.9508 34.6022 17.9508C29.9527 17.9508 26.1297 14.1026 26.1297 9.40945V1.17538C26.1297 0.527614 25.6125 0.000183105 24.9711 0.000183105H11.4284C5.10831 0.000183105 0 5.18744 0 11.5448V39.1325C0 45.8022 5.35169 51.2071 11.9557 51.2071H32.1228C38.4201 51.2071 43.5259 46.0531 43.5259 39.6907V19.1285C43.5259 18.4782 43.0112 17.9533 42.3673 17.9559C41.2848 17.9636 39.9868 17.9764 39.1958 17.9764Z" fill="white"/>
<path opacity="0.4" d="M32.2212 1.45259C31.4556 0.656323 30.1191 1.20424 30.1191 2.30775V9.05938C30.1191 11.8911 32.4516 14.221 35.2834 14.221C37.0679 14.2415 39.5463 14.2466 41.6509 14.2415C42.7288 14.239 43.2768 12.9511 42.5291 12.1728C39.828 9.36406 34.9915 4.33042 32.2212 1.45259Z" fill="white"/>
<path d="M27.953 33.0107C29.0053 33.0107 29.8605 33.8658 29.8605 34.9181C29.8605 35.9704 29.0053 36.823 27.953 36.823H14.0145C12.9622 36.823 12.1096 35.9704 12.1096 34.9181C12.1096 33.8658 12.9622 33.0107 14.0145 33.0107H27.953ZM22.681 20.2238C23.7333 20.2238 24.5885 21.079 24.5885 22.1313C24.5885 23.1836 23.7333 24.0362 22.681 24.0362H14.0143C12.962 24.0362 12.1094 23.1836 12.1094 22.1313C12.1094 21.079 12.962 20.2238 14.0143 20.2238H22.681Z" fill="white"/>
</svg>
