<svg width="247" height="131" viewBox="0 0 247 131" fill="none" xmlns="http://www.w3.org/2000/svg">
<path d="M240.5 0H6.5C2.91015 0 0 2.79289 0 6.2381V124.762C0 128.207 2.91015 131 6.5 131H240.5C244.09 131 247 128.207 247 124.762V6.2381C247 2.79289 244.09 0 240.5 0Z" fill="white"/>
<path d="M25.2931 38.5613V27.4482H21.209V25.187H31.8839V27.4482H27.8172V38.5613H25.2931ZM34.8148 38.7541C33.8332 38.7541 32.9627 38.5379 32.2031 38.1055C31.4435 37.6732 30.8476 37.0655 30.4151 36.2826C29.9945 35.4997 29.7841 34.5998 29.7841 33.5832C29.7841 32.6016 29.9945 31.7252 30.4151 30.9539C30.8476 30.1826 31.4435 29.5867 32.2031 29.166C32.9627 28.7336 33.8332 28.5174 34.8148 28.5174C35.7964 28.5174 36.667 28.7336 37.4266 29.166C38.1978 29.5983 38.7938 30.2002 39.2145 30.9714C39.6469 31.731 39.863 32.6016 39.863 33.5832C39.863 34.5998 39.6527 35.4997 39.232 36.2826C38.8113 37.0655 38.2153 37.6732 37.4441 38.1055C36.6846 38.5379 35.8081 38.7541 34.8148 38.7541ZM34.8148 36.7208C35.5861 36.7208 36.2113 36.4287 36.6904 35.8444C37.1695 35.26 37.409 34.5063 37.409 33.5832C37.409 32.6951 37.1695 31.9706 36.6904 31.4096C36.2113 30.8371 35.5861 30.5507 34.8148 30.5507C34.3124 30.5507 33.8625 30.6793 33.4651 30.9364C33.0678 31.1934 32.7582 31.5557 32.5361 32.0231C32.3141 32.4789 32.2031 32.9989 32.2031 33.5832C32.2031 34.5181 32.4427 35.2776 32.9217 35.8619C33.4125 36.4345 34.0436 36.7208 34.8148 36.7208ZM44.0784 38.5613C42.5475 38.5613 41.7821 37.8426 41.7821 36.4053V30.6209H40.3273V28.7278H41.7821V25.187H44.1485V28.7278H46.0416V30.6209H44.1485V35.6866C44.1485 35.9905 44.1952 36.2183 44.2887 36.3702C44.3939 36.5221 44.6159 36.5981 44.9548 36.5981H46.024V38.5613H44.0784ZM50.0173 38.7541C49.059 38.7541 48.282 38.5028 47.686 38.0004C47.09 37.4862 46.7921 36.7734 46.7921 35.8619C46.7921 34.8803 47.1659 34.1324 47.9139 33.6182C48.4514 33.2443 49.2168 32.9638 50.2101 32.7769L53.1374 32.2335C53.1374 31.6492 52.9796 31.1876 52.6641 30.8487C52.3719 30.5332 51.9337 30.3755 51.3495 30.3755C50.8937 30.3755 50.4906 30.5098 50.14 30.7786C49.8011 31.0474 49.5907 31.4096 49.509 31.8654H47.1602C47.3237 30.7786 47.8028 29.9489 48.5975 29.3763C49.3921 28.8038 50.3153 28.5174 51.367 28.5174C51.963 28.5174 52.518 28.6051 53.0322 28.7804C53.5463 28.944 53.9845 29.1894 54.3469 29.5166C54.7091 29.8321 54.972 30.2002 55.1356 30.6209C55.2992 31.0415 55.3986 31.4622 55.4336 31.8829C55.4803 32.3036 55.5037 32.8236 55.5037 33.443V38.5613H53.1374V38.2808C53.1374 37.977 53.2133 37.6673 53.3653 37.3518L53.1023 37.2116C52.892 37.6439 52.5998 37.9828 52.2259 38.2282C51.7 38.5788 50.9638 38.7541 50.0173 38.7541ZM50.5957 36.8961C51.0281 36.8961 51.4488 36.8026 51.8578 36.6156C52.2317 36.4403 52.5297 36.1833 52.7518 35.8444C52.8569 35.6691 52.9387 35.4997 52.9972 35.336C53.0555 35.1607 53.1199 34.9212 53.19 34.6174C53.2133 34.4771 53.2483 34.3778 53.2951 34.3194C53.3535 34.2493 53.4354 34.2083 53.5405 34.1967L53.488 33.9162C52.5531 34.1032 51.9512 34.2259 51.6825 34.2843L50.8411 34.4421C50.2101 34.5589 49.7544 34.7459 49.4739 35.003C49.2636 35.2133 49.1584 35.4704 49.1584 35.7742C49.1584 36.1365 49.2869 36.4169 49.544 36.6156C49.8127 36.8026 50.1633 36.8961 50.5957 36.8961ZM59.2517 38.5613C58.5037 38.5613 57.937 38.3919 57.5514 38.053C57.1658 37.7024 56.973 37.1531 56.973 36.4053V25.187H59.3393V35.7041C59.3393 36.0313 59.3977 36.265 59.5146 36.4053C59.6431 36.5338 59.8534 36.5981 60.1456 36.5981H60.7767V38.5613H59.2517ZM66.0586 25.187H71.8255C73.1343 25.187 74.1685 25.5142 74.9281 26.1686C75.6877 26.8113 76.0674 27.7988 76.0674 29.1309C76.0674 29.6451 75.9973 30.1301 75.8571 30.5858C75.7168 31.0299 75.5182 31.4096 75.2611 31.7252C74.8288 32.251 74.3262 32.5023 73.7537 32.4789L73.666 32.7068C73.853 32.8586 73.9932 33.0164 74.0867 33.18C74.1802 33.3319 74.2912 33.5715 74.4197 33.8987L76.3654 38.5613H73.7011L71.5801 33.1976H68.5827V38.5613H66.0586V25.187ZM71.4749 31.0065C72.1527 31.0065 72.6669 30.8546 73.0175 30.5507C73.3797 30.2469 73.5608 29.8029 73.5608 29.2186C73.5608 28.646 73.3797 28.2078 73.0175 27.9039C72.6551 27.6001 72.141 27.4482 71.4749 27.4482H68.5827V31.0065H71.4749ZM81.8655 38.7541C80.8722 38.7541 79.9958 38.5379 79.2362 38.1055C78.4766 37.6732 77.8865 37.0772 77.4659 36.3176C77.0568 35.5464 76.8523 34.6758 76.8523 33.7059C76.8523 32.8061 77.0335 31.9647 77.3957 31.1818C77.7697 30.3871 78.3247 29.7444 79.0609 29.2536C79.8088 28.7628 80.7203 28.5174 81.7954 28.5174C82.6835 28.5174 83.5015 28.7044 84.2494 29.0783C84.9972 29.4406 85.5991 30.0074 86.0548 30.7786C86.5106 31.5382 86.7384 32.4848 86.7384 33.6182V34.1266H80.4983C80.4282 34.1266 80.2354 34.1266 79.9198 34.1266C79.6043 34.1266 79.3531 34.109 79.1661 34.074L79.096 34.3369C79.1895 34.3603 79.2596 34.407 79.3063 34.4771C79.3648 34.5472 79.4115 34.6465 79.4466 34.7751C79.5401 35.0205 79.616 35.1899 79.6744 35.2834C79.9082 35.7392 80.2178 36.0956 80.6035 36.3527C81.0007 36.5981 81.4507 36.7208 81.9531 36.7208C82.4907 36.7208 82.9523 36.5864 83.3379 36.3176C83.7235 36.0372 83.9981 35.6807 84.1617 35.2484H86.5807C86.2652 36.2884 85.7101 37.1356 84.9155 37.79C84.1208 38.4327 83.1042 38.7541 81.8655 38.7541ZM79.3765 32.6191C79.5517 32.5139 79.7095 32.4438 79.8497 32.4088C79.99 32.3737 80.1477 32.3562 80.323 32.3562H83.373C83.5599 32.3562 83.7235 32.3737 83.8638 32.4088C84.0157 32.4438 84.1851 32.5139 84.3721 32.6191L84.5123 32.3737C84.4305 32.327 84.3721 32.2861 84.337 32.251C84.302 32.2043 84.2728 32.1575 84.2494 32.1108C84.2377 32.0641 84.2319 32.0348 84.2319 32.0231C84.1852 31.8245 84.0916 31.6316 83.9514 31.4447C83.7294 31.1058 83.4372 30.8487 83.075 30.6734C82.7127 30.4865 82.3096 30.393 81.8655 30.393C81.4214 30.393 81.0183 30.4806 80.656 30.6559C80.3055 30.8312 80.0191 31.0941 79.7971 31.4447C79.6452 31.6316 79.5459 31.8245 79.4992 32.0231C79.4992 32.0348 79.4875 32.0699 79.4641 32.1283C79.4407 32.175 79.4115 32.2218 79.3765 32.2685C79.3414 32.3036 79.2888 32.3387 79.2187 32.3737L79.3765 32.6191ZM86.8604 28.7278H89.3845L90.9971 33.6533C91.1023 33.9922 91.1724 34.296 91.2074 34.5648C91.2539 34.8336 91.2889 35.1432 91.3126 35.4938H91.5229C91.5229 35.4237 91.5343 35.2718 91.558 35.038C91.5817 34.7926 91.6167 34.5589 91.6632 34.3369C91.7096 34.1032 91.7683 33.8753 91.8385 33.6533L93.4861 28.7278H96.0102L92.3643 38.5613H90.4888L86.8604 28.7278ZM101.15 38.7541C100.157 38.7541 99.2802 38.5379 98.5203 38.1055C97.7605 37.6732 97.1706 37.0772 96.7499 36.3176C96.3407 35.5464 96.1365 34.6758 96.1365 33.7059C96.1365 32.8061 96.3179 31.9647 96.6798 31.1818C97.0541 30.3871 97.6088 29.7444 98.345 29.2536C99.0926 28.7628 100.004 28.5174 101.079 28.5174C101.967 28.5174 102.786 28.7044 103.534 29.0783C104.281 29.4406 104.883 30.0074 105.339 30.7786C105.795 31.5382 106.023 32.4848 106.023 33.6182V34.1266H99.7824C99.7123 34.1266 99.5195 34.1266 99.2039 34.1266C98.8884 34.1266 98.6369 34.109 98.4502 34.074L98.3801 34.3369C98.4739 34.3603 98.544 34.407 98.5904 34.4771C98.6492 34.5472 98.6956 34.6465 98.7307 34.7751C98.8244 35.0205 98.8998 35.1899 98.9585 35.2834C99.1926 35.7392 99.5019 36.0956 99.8876 36.3527C100.285 36.5981 100.735 36.7208 101.237 36.7208C101.774 36.7208 102.236 36.5864 102.622 36.3176C103.008 36.0372 103.282 35.6807 103.446 35.2484H105.865C105.549 36.2884 104.994 37.1356 104.2 37.79C103.405 38.4327 102.388 38.7541 101.15 38.7541ZM98.6606 32.6191C98.8358 32.5139 98.9936 32.4438 99.1338 32.4088C99.2741 32.3737 99.4318 32.3562 99.6071 32.3562H102.657C102.844 32.3562 103.008 32.3737 103.148 32.4088C103.299 32.4438 103.47 32.5139 103.656 32.6191L103.796 32.3737C103.715 32.327 103.656 32.2861 103.621 32.251C103.586 32.2043 103.557 32.1575 103.534 32.1108C103.522 32.0641 103.516 32.0348 103.516 32.0231C103.47 31.8245 103.376 31.6316 103.236 31.4447C103.014 31.1058 102.721 30.8487 102.359 30.6734C101.997 30.4865 101.594 30.393 101.15 30.393C100.705 30.393 100.302 30.4806 99.9401 30.6559C99.5896 30.8312 99.303 31.0941 99.0812 31.4447C98.9296 31.6316 98.8297 31.8245 98.7833 32.0231C98.7833 32.0348 98.7719 32.0699 98.7482 32.1283C98.7245 32.175 98.6956 32.2218 98.6606 32.2685C98.6255 32.3036 98.5729 32.3387 98.5028 32.3737L98.6606 32.6191ZM107.226 28.7278H109.592V29.0433C109.592 29.2302 109.575 29.3822 109.54 29.499C109.505 29.6159 109.434 29.7328 109.329 29.8496L109.575 30.0249C109.949 29.4756 110.346 29.09 110.767 28.868C111.199 28.6343 111.702 28.5174 112.274 28.5174C113.793 28.5174 114.816 29.0667 115.342 30.1651C115.517 30.5507 115.628 30.9422 115.675 31.3395C115.721 31.7368 115.745 32.2569 115.745 32.8996V38.5613H113.396V32.8645C113.396 31.918 113.232 31.2635 112.905 30.9013C112.625 30.6092 112.21 30.4631 111.661 30.4631C111.006 30.4631 110.51 30.6618 110.171 31.0591C109.972 31.2928 109.826 31.6083 109.732 32.0056C109.639 32.3912 109.592 32.9054 109.592 33.5481V38.5613H107.226V28.7278ZM120.748 38.7541C119.218 38.7541 118.195 38.2107 117.681 37.1239C117.494 36.7383 117.378 36.3468 117.33 35.9495C117.284 35.5405 117.26 35.0205 117.26 34.3895V28.7278H119.626V34.407C119.626 34.9095 119.661 35.3185 119.732 35.634C119.814 35.9379 119.937 36.1833 120.1 36.3702C120.357 36.6623 120.772 36.8084 121.344 36.8084C122.01 36.8084 122.513 36.6097 122.852 36.2125C123.051 35.9905 123.191 35.6866 123.272 35.301C123.366 34.9037 123.413 34.3778 123.413 33.7234V28.7278H125.779V38.5613H123.413V38.2458C123.413 38.0705 123.43 37.9244 123.465 37.8076C123.513 37.679 123.583 37.5505 123.676 37.4219L123.43 37.2642C123.057 37.8017 122.659 38.1873 122.238 38.4211C121.818 38.6431 121.321 38.7541 120.748 38.7541ZM132.027 38.7541C131.034 38.7541 130.158 38.5379 129.398 38.1055C128.639 37.6732 128.048 37.0772 127.627 36.3176C127.219 35.5464 127.014 34.6758 127.014 33.7059C127.014 32.8061 127.195 31.9647 127.557 31.1818C127.931 30.3871 128.486 29.7444 129.222 29.2536C129.971 28.7628 130.882 28.5174 131.957 28.5174C132.846 28.5174 133.663 28.7044 134.411 29.0783C135.159 29.4406 135.761 30.0074 136.216 30.7786C136.672 31.5382 136.9 32.4848 136.9 33.6182V34.1266H130.66C130.59 34.1266 130.397 34.1266 130.081 34.1266C129.766 34.1266 129.515 34.109 129.328 34.074L129.257 34.3369C129.351 34.3603 129.421 34.407 129.468 34.4771C129.527 34.5472 129.573 34.6465 129.608 34.7751C129.702 35.0205 129.778 35.1899 129.836 35.2834C130.07 35.7392 130.379 36.0956 130.765 36.3527C131.163 36.5981 131.612 36.7208 132.115 36.7208C132.653 36.7208 133.114 36.5864 133.499 36.3176C133.885 36.0372 134.16 35.6807 134.323 35.2484H136.742C136.427 36.2884 135.872 37.1356 135.077 37.79C134.283 38.4327 133.266 38.7541 132.027 38.7541ZM129.538 32.6191C129.713 32.5139 129.871 32.4438 130.011 32.4088C130.151 32.3737 130.309 32.3562 130.484 32.3562H133.534C133.722 32.3562 133.885 32.3737 134.025 32.4088C134.178 32.4438 134.347 32.5139 134.534 32.6191L134.674 32.3737C134.592 32.327 134.534 32.2861 134.499 32.251C134.463 32.2043 134.435 32.1575 134.411 32.1108C134.399 32.0641 134.393 32.0348 134.393 32.0231C134.347 31.8245 134.253 31.6316 134.113 31.4447C133.891 31.1058 133.599 30.8487 133.236 30.6734C132.875 30.4865 132.471 30.393 132.027 30.393C131.584 30.393 131.18 30.4806 130.818 30.6559C130.467 30.8312 130.181 31.0941 129.959 31.4447C129.807 31.6316 129.708 31.8245 129.661 32.0231C129.661 32.0348 129.649 32.0699 129.626 32.1283C129.603 32.175 129.573 32.2218 129.538 32.2685C129.503 32.3036 129.45 32.3387 129.38 32.3737L129.538 32.6191Z" fill="#04091E"/>
<path d="M216.315 23.6636C215.592 23.6636 215 24.2552 215 24.9782C215 25.7013 215.592 26.2929 216.315 26.2929C217.038 26.2929 217.629 25.7013 217.629 24.9782C217.629 24.2552 217.038 23.6636 216.315 23.6636ZM216.315 36.81C215.592 36.81 215 37.4016 215 38.1246C215 38.8477 215.592 39.4393 216.315 39.4393C217.038 39.4393 217.629 38.8477 217.629 38.1246C217.629 37.4016 217.038 36.81 216.315 36.81ZM216.315 30.2368C215.592 30.2368 215 30.8284 215 31.5514C215 32.2745 215.592 32.8661 216.315 32.8661C217.038 32.8661 217.629 32.2745 217.629 31.5514C217.629 30.8284 217.038 30.2368 216.315 30.2368Z" fill="#747681"/>
<path d="M222.449 23.6636C221.726 23.6636 221.135 24.2552 221.135 24.9782C221.135 25.7013 221.726 26.2929 222.449 26.2929C223.172 26.2929 223.764 25.7013 223.764 24.9782C223.764 24.2552 223.172 23.6636 222.449 23.6636ZM222.449 36.81C221.726 36.81 221.135 37.4016 221.135 38.1246C221.135 38.8477 221.726 39.4393 222.449 39.4393C223.172 39.4393 223.764 38.8477 223.764 38.1246C223.764 37.4016 223.172 36.81 222.449 36.81ZM222.449 30.2368C221.726 30.2368 221.135 30.8284 221.135 31.5514C221.135 32.2745 221.726 32.8661 222.449 32.8661C223.172 32.8661 223.764 32.2745 223.764 31.5514C223.764 30.8284 223.172 30.2368 222.449 30.2368Z" fill="#747681"/>
<path d="M21 56H224" stroke="#F5F5F5" stroke-width="1.08264"/>
<path d="M63.1036 91.4063C63.1036 79.7894 53.6863 70.3721 42.0694 70.3721C30.4525 70.3721 21.0352 79.7894 21.0352 91.4063C21.0352 103.023 30.4525 112.441 42.0694 112.441C53.6863 112.441 63.1036 103.023 63.1036 91.4063Z" fill="url(#paint0_linear_2464_3587)"/>
<path d="M42.0681 98.4174C38.1957 98.4174 35.0566 95.278 35.0566 91.4059C35.0566 87.5339 38.1957 84.3945 42.0681 84.3945C45.9405 84.3945 49.0795 87.5339 49.0795 91.4059C49.0795 95.278 45.9405 98.4174 42.0681 98.4174ZM39.6141 92.8082V94.2105H41.3669V95.6128H42.7692V94.2105H43.4703C43.9352 94.2105 44.381 94.0256 44.7098 93.6969C45.0385 93.3683 45.2232 92.9222 45.2232 92.4577C45.2232 91.9931 45.0385 91.5471 44.7098 91.2184C44.381 90.8897 43.9352 90.7048 43.4703 90.7048H40.6658C40.5728 90.7048 40.4836 90.668 40.4179 90.6023C40.3521 90.5365 40.3152 90.4471 40.3152 90.3542C40.3152 90.2613 40.3521 90.1719 40.4179 90.1062C40.4836 90.0405 40.5728 90.0037 40.6658 90.0037H44.522V88.6014H42.7692V87.1991H41.3669V88.6014H40.6658C40.2009 88.6014 39.7551 88.7863 39.4263 89.115C39.0976 89.4436 38.9129 89.8897 38.9129 90.3542C38.9129 90.8187 39.0976 91.2648 39.4263 91.5935C39.7551 91.9222 40.2009 92.1071 40.6658 92.1071H43.4703C43.5633 92.1071 43.6525 92.1439 43.7182 92.2096C43.784 92.2754 43.8209 92.3648 43.8209 92.4577C43.8209 92.5506 43.784 92.64 43.7182 92.7057C43.6525 92.7714 43.5633 92.8082 43.4703 92.8082H39.6141Z" fill="white"/>
<path d="M87.4465 101.923V97.0992H78.1914V93.2289L87.5306 80.5243H91.485V93.4813H94.2055V97.0992H91.485V101.923H87.4465ZM81.7252 93.8459C82.1926 93.6961 82.5759 93.6032 82.875 93.5655C83.1929 93.5094 83.5481 93.4813 83.9408 93.4813H87.4465V88.0124C87.4465 87.5453 87.4558 87.1614 87.4745 86.8626C87.5119 86.5637 87.5961 86.1798 87.7269 85.7127L87.3904 85.6005C87.0725 86.1614 86.6986 86.7408 86.2686 87.3394L83.1274 91.8267C82.7161 92.4253 82.1926 92.9862 81.5569 93.5094L81.7252 93.8459ZM97.9206 102.232C97.2844 102.232 96.7427 102.017 96.294 101.587C95.8453 101.138 95.6209 100.595 95.6209 99.9599C95.6209 99.3613 95.8453 98.8477 96.294 98.4174C96.7611 97.9687 97.3036 97.7443 97.9206 97.7443C98.5 97.7443 99.0048 97.9687 99.4351 98.4174C99.8838 98.8477 100.108 99.3613 100.108 99.9599C100.108 100.595 99.8926 101.138 99.4632 101.587C99.0328 102.017 98.5184 102.232 97.9206 102.232ZM109.872 102.316C108.301 102.316 106.908 102.026 105.693 101.446C104.496 100.867 103.553 100.044 102.86 98.9783C102.169 97.8942 101.786 96.6225 101.71 95.1641H105.749C106.049 97.6321 107.441 98.8661 109.928 98.8661C111.069 98.8661 111.957 98.5673 112.592 97.9687C113.228 97.3701 113.546 96.548 113.546 95.5006C113.546 94.4349 113.172 93.64 112.424 93.1168C111.695 92.5935 110.648 92.3315 109.283 92.3315H107.993V89.0501H109.142C110.078 89.0501 110.853 88.8074 111.47 88.321C112.087 87.8161 112.396 87.1246 112.396 86.2456C112.396 85.4226 112.143 84.7776 111.638 84.3104C111.134 83.8433 110.424 83.6093 109.507 83.6093C108.591 83.6093 107.844 83.8713 107.263 84.3946C106.684 84.8994 106.329 85.6847 106.198 86.7504H102.496C102.571 85.4419 102.916 84.292 103.533 83.3008C104.15 82.2911 104.973 81.5155 106.001 80.973C107.049 80.4305 108.227 80.1597 109.535 80.1597C110.863 80.1597 112.041 80.4121 113.069 80.9169C114.098 81.4217 114.892 82.1132 115.453 82.9923C116.014 83.8713 116.294 84.8617 116.294 85.9651C116.294 87.0869 115.986 88.0501 115.369 88.8538C114.752 89.6391 113.92 90.0414 112.872 90.0598V90.5085C114.387 90.5646 115.546 91.0694 116.35 92.023C117.173 92.9581 117.584 94.136 117.584 95.5567C117.584 96.8652 117.257 98.0344 116.603 99.0624C115.967 100.09 115.06 100.895 113.882 101.474C112.723 102.035 111.386 102.316 109.872 102.316ZM118.897 98.8661L125.628 92.9765C126.956 91.817 127.937 90.7609 128.573 89.8074C129.209 88.8354 129.526 87.8626 129.526 86.8906C129.526 85.881 129.256 85.0861 128.713 84.5067C128.19 83.9081 127.386 83.6093 126.301 83.6093C123.927 83.6093 122.655 85.0861 122.487 88.0405H118.757C118.851 85.498 119.542 83.5532 120.832 82.207C122.142 80.8424 123.973 80.1597 126.329 80.1597C127.675 80.1597 128.873 80.4217 129.919 80.9449C130.966 81.4498 131.78 82.1886 132.359 83.1606C132.958 84.1141 133.256 85.2359 133.256 86.526C133.256 88.1904 132.771 89.7513 131.798 91.2097C130.844 92.668 129.639 94.0423 128.18 95.3324L125.965 97.3236C125.535 97.7346 124.993 98.1273 124.338 98.5015L124.534 98.8381C125.002 98.6321 125.376 98.4919 125.656 98.4174C125.936 98.3429 126.292 98.3052 126.722 98.3052H134.21V101.923H118.897V98.8661ZM136.438 80.5243H140.224V89.4428C140.224 89.8915 140.206 90.2938 140.168 90.6487C140.15 91.0037 140.075 91.434 139.944 91.9388L140.28 92.0791C140.598 91.668 141.065 91.1352 141.682 90.4805L145.973 86.1895H150.769L144.88 91.9388C144.525 92.2938 144.094 92.5839 143.589 92.8083V93.2009C144.094 93.4629 144.525 93.8275 144.88 94.2947L151.274 101.923H146.618L141.682 95.9494C140.879 94.902 140.412 94.285 140.28 94.0984L139.944 94.2105C140.075 94.7338 140.15 95.1825 140.168 95.5567C140.206 95.931 140.224 96.3517 140.224 96.8188V101.923H136.438V80.5243Z" fill="#04091E"/>
<defs>
<linearGradient id="paint0_linear_2464_3587" x1="20.1482" y1="73.6716" x2="66.6056" y2="77.2501" gradientUnits="userSpaceOnUse">
<stop stop-color="#9FE871"/>
<stop offset="1" stop-color="#6BD723"/>
</linearGradient>
</defs>
</svg>
