<svg width="81" height="81" viewBox="0 0 81 81" fill="none" xmlns="http://www.w3.org/2000/svg">
<rect opacity="0.1" width="70" height="70" rx="4" fill="url(#paint0_linear_2464_3846)"/>
<path fill-rule="evenodd" clip-rule="evenodd" d="M31.3281 32.2211C31.328 31.8336 31.4428 31.4548 31.6581 31.1325C31.8733 30.8103 32.1792 30.5591 32.5372 30.4108C32.8952 30.2624 33.2891 30.2235 33.6692 30.2991C34.0492 30.3746 34.3984 30.5611 34.6724 30.8351C34.9464 31.1091 35.1331 31.4582 35.2087 31.8382C35.2844 32.2183 35.2456 32.6122 35.0973 32.9702C34.9491 33.3282 34.6979 33.6343 34.3758 33.8495C34.0536 34.0648 33.6748 34.1798 33.2873 34.1798C32.768 34.1791 32.2701 33.9726 31.9028 33.6054C31.5356 33.2383 31.3289 32.7404 31.3281 32.2211Z" fill="url(#paint1_linear_2464_3846)"/>
<path fill-rule="evenodd" clip-rule="evenodd" d="M74.1511 54.5874V58.3239L68.4872 59.5299C68.3978 59.5491 68.3152 59.592 68.2482 59.6542C68.1812 59.7164 68.1322 59.7955 68.1064 59.8833C67.7004 61.255 67.1505 62.58 66.4659 63.8361C66.4223 63.9165 66.4012 64.0072 66.4049 64.0987C66.4086 64.1901 66.4368 64.2788 66.4867 64.3556L69.6407 69.2163L63.6367 75.2184L58.7779 72.0663C58.701 72.0166 58.6122 71.9884 58.5208 71.9849C58.4293 71.9814 58.3386 72.0026 58.2582 72.0464C57.0014 72.73 55.6761 73.2795 54.3043 73.6858C54.2166 73.7117 54.1374 73.7607 54.0752 73.8277C54.013 73.8948 53.97 73.9773 53.9507 74.0667L52.7452 79.7306H44.2563L43.0503 74.0685C43.0313 73.9788 42.9885 73.8958 42.9263 73.8285C42.864 73.7611 42.7848 73.7118 42.6968 73.6858C41.3248 73.2798 39.9995 72.7303 38.7427 72.0464C38.6625 72.0028 38.572 71.9816 38.4807 71.9851C38.3894 71.9886 38.3008 72.0167 38.2241 72.0663L33.3637 75.2184L27.3599 69.2163L30.5139 64.3556C30.5637 64.279 30.5919 64.1903 30.5955 64.099C30.5992 64.0077 30.5781 63.9172 30.5346 63.8368C29.8511 62.5802 29.3014 61.2553 28.8944 59.8839C28.8685 59.7962 28.8194 59.7171 28.7524 59.6549C28.6854 59.5926 28.6029 59.5496 28.5135 59.5303L22.8496 58.3243V54.5874H34.2786L34.2913 54.8286C34.4831 58.4676 36.0639 61.8943 38.7076 64.4023C41.3513 66.9103 44.8565 68.3084 48.5006 68.3084C52.1446 68.3084 55.6498 66.9103 58.2935 64.4023C60.9372 61.8943 62.518 58.4676 62.7098 54.8286L62.7225 54.5874H74.1511Z" fill="url(#paint2_linear_2464_3846)"/>
<path d="M30.4844 36.9131H36.0878V50.2778H30.4844V36.9131Z" fill="url(#paint3_linear_2464_3846)"/>
<path d="M50.7695 33.2188H56.373V50.2778H50.7695V33.2188Z" fill="url(#paint4_linear_2464_3846)"/>
<path fill-rule="evenodd" clip-rule="evenodd" d="M33.2869 33.9258C32.9495 33.9259 32.6197 33.8259 32.3391 33.6385C32.0585 33.4511 31.8398 33.1847 31.7106 32.873C31.5815 32.5613 31.5476 32.2183 31.6134 31.8874C31.6792 31.5565 31.8417 31.2525 32.0803 31.0139C32.3189 30.7753 32.6228 30.6128 32.9538 30.547C33.2847 30.4812 33.6277 30.5151 33.9394 30.6442C34.2511 30.7734 34.5175 30.9921 34.7049 31.2727C34.8923 31.5533 34.9923 31.8831 34.9922 32.2205C34.9916 32.6726 34.8118 33.1061 34.4921 33.4257C34.1724 33.7454 33.739 33.9252 33.2869 33.9258ZM44.7508 22.0728C44.6166 22.0033 44.4646 21.9755 44.3145 21.9929C44.1643 22.0104 44.0228 22.0723 43.9081 22.1708L35.1798 29.6065C34.5396 29.1424 33.7514 28.9292 32.9645 29.0071C32.1776 29.0851 31.4466 29.4488 30.9099 30.0294C30.3731 30.6101 30.0679 31.3674 30.0519 32.158C30.036 32.9485 30.3104 33.7175 30.8233 34.3194C31.3361 34.9212 32.0519 35.3142 32.8349 35.4238C33.618 35.5335 34.4142 35.3522 35.0726 34.9144C35.7311 34.4766 36.2062 33.8125 36.408 33.048C36.6097 32.2834 36.5242 31.4714 36.1676 30.7657L44.5058 23.6619L53.1727 28.1431C53.3098 28.2139 53.4652 28.2414 53.6183 28.222C53.7713 28.2025 53.9149 28.1371 54.0299 28.0343L64.661 18.5433V20.7607C64.661 20.8608 64.6807 20.9598 64.719 21.0522C64.7572 21.1447 64.8134 21.2286 64.8841 21.2994C64.9548 21.3701 65.0388 21.4262 65.1312 21.4645C65.2236 21.5028 65.3227 21.5225 65.4227 21.5225C65.5227 21.5225 65.6218 21.5028 65.7142 21.4645C65.8066 21.4262 65.8906 21.3701 65.9613 21.2994C66.0321 21.2286 66.0882 21.1447 66.1264 21.0522C66.1647 20.9598 66.1844 20.8608 66.1844 20.7607V16.7617C66.1844 16.5598 66.1043 16.3662 65.9616 16.2234C65.8189 16.0805 65.6254 16.0002 65.4235 16H61.4244C61.2224 16 61.0287 16.0803 60.8858 16.2231C60.743 16.366 60.6627 16.5597 60.6627 16.7617C60.6627 16.9637 60.743 17.1575 60.8858 17.3003C61.0287 17.4432 61.2224 17.5234 61.4244 17.5234H63.5151L53.4065 26.5485L44.7508 22.0733V22.0728ZM35.8348 37.167V50.0234H30.7391V37.167H35.8348ZM40.8814 29.7783H45.977V50.0234H40.8814V29.7783ZM51.025 33.4727H56.1206V50.0234H51.0246V33.4727H51.025ZM61.1672 26.084H66.2638V50.0234H61.1669V26.0841L61.1672 26.084ZM29.2157 36.4053V50.0234H26.4888C26.2868 50.0234 26.0931 50.1037 25.9502 50.2465C25.8074 50.3894 25.7271 50.5831 25.7271 50.7852C25.7271 50.9872 25.8074 51.1809 25.9502 51.3238C26.0931 51.4666 26.2868 51.5469 26.4888 51.5469H70.5145C70.7166 51.5469 70.9103 51.4666 71.0532 51.3238C71.196 51.1809 71.2763 50.9872 71.2763 50.7852C71.2763 50.5831 71.196 50.3894 71.0532 50.2465C70.9103 50.1037 70.7166 50.0234 70.5145 50.0234H67.7863V25.3223C67.7864 25.2223 67.7667 25.1232 67.7285 25.0308C67.6902 24.9384 67.6341 24.8544 67.5633 24.7838C67.4926 24.7131 67.4086 24.657 67.3161 24.6188C67.2237 24.5806 67.1246 24.5611 67.0246 24.5612H60.4053C60.2034 24.5612 60.0097 24.6414 59.8669 24.7841C59.724 24.9268 59.6437 25.1204 59.6435 25.3223V50.0234H57.644V32.7108C57.6438 32.509 57.5635 32.3154 57.4207 32.1727C57.2778 32.03 57.0842 31.9499 56.8823 31.9499H50.263C50.163 31.9498 50.064 31.9694 49.9715 32.0076C49.8791 32.0458 49.7952 32.1018 49.7244 32.1725C49.6537 32.2432 49.5975 32.3271 49.5593 32.4195C49.521 32.5118 49.5013 32.6108 49.5013 32.7108V50.0234H47.5009V29.0165C47.5009 28.8145 47.4206 28.6207 47.2778 28.4779C47.1349 28.335 46.9412 28.2548 46.7391 28.2548H40.1198C39.9178 28.2548 39.724 28.335 39.5812 28.4779C39.4383 28.6207 39.3581 28.8145 39.3581 29.0165V50.0234H37.3586V36.405C37.3584 36.2032 37.278 36.0096 37.1352 35.8669C36.9924 35.7242 36.7987 35.6441 36.5969 35.6441H29.9775C29.7756 35.6441 29.582 35.7242 29.4392 35.8669C29.2963 36.0096 29.216 36.2032 29.2158 36.405L29.2157 36.4053ZM23.1039 54.8412H34.038C34.2328 58.5454 35.8416 62.0337 38.5325 64.5868C41.2234 67.1399 44.7914 68.5632 48.5008 68.5632C52.2102 68.5632 55.7782 67.1399 58.4691 64.5868C61.16 62.0337 62.7688 58.5454 62.9636 54.8412H73.8977V58.1182L68.4348 59.2819C68.3008 59.3108 68.177 59.3752 68.0765 59.4684C67.976 59.5616 67.9024 59.6802 67.8635 59.8117C67.4631 61.1663 66.9201 62.4746 66.2436 63.7146C66.1783 63.8352 66.1467 63.9713 66.1521 64.1083C66.1575 64.2454 66.1997 64.3785 66.2743 64.4937L69.3165 69.1821L63.6036 74.8936L58.917 71.8532C58.8019 71.7785 58.6687 71.7362 58.5315 71.731C58.3944 71.7257 58.2584 71.7576 58.1379 71.8233C56.8967 72.4983 55.5879 73.0409 54.2332 73.4422C54.1018 73.4811 53.9832 73.5547 53.89 73.6553C53.7968 73.7558 53.7324 73.8795 53.7035 74.0135L52.5403 79.4766H44.4624L43.2986 74.0154C43.2698 73.8812 43.2054 73.7571 43.1122 73.6563C43.019 73.5554 42.9005 73.4815 42.7689 73.4421C41.4138 73.0421 40.1049 72.4994 38.8642 71.8232C38.7439 71.7576 38.608 71.7257 38.471 71.7309C38.334 71.7362 38.201 71.7784 38.086 71.853L33.3985 74.8936L27.6856 69.1821L30.7274 64.4937C30.802 64.3787 30.8442 64.2457 30.8496 64.1088C30.855 63.9719 30.8235 63.836 30.7583 63.7155C30.0832 62.4744 29.5403 61.166 29.1384 59.8117C29.0994 59.6802 29.0259 59.5616 28.9253 59.4684C28.8248 59.3752 28.7011 59.3108 28.5671 59.2819L23.1039 58.1182V54.8412ZM21.5805 54.0795V58.735C21.5807 58.9094 21.6407 59.0786 21.7504 59.2142C21.8602 59.3499 22.013 59.4439 22.1836 59.4806L27.8117 60.6787C28.1813 61.8363 28.6476 62.9607 29.2058 64.0401L26.0726 68.87C25.9774 69.0163 25.9355 69.1909 25.9538 69.3645C25.9721 69.5381 26.0495 69.7001 26.1731 69.8233L32.7573 76.4073C32.8804 76.5308 33.0423 76.608 33.2157 76.6262C33.389 76.6444 33.5634 76.6023 33.7094 76.5071L38.5385 73.3752C39.6184 73.9335 40.7435 74.3998 41.9017 74.7693L43.0998 80.3972C43.1364 80.5678 43.2304 80.7208 43.3661 80.8305C43.5018 80.9401 43.671 81 43.8455 81H53.156C53.3305 81 53.4998 80.9401 53.6355 80.8303C53.7712 80.7205 53.8651 80.5675 53.9016 80.3968L55.0998 74.7689C56.258 74.3995 57.3831 73.9332 58.463 73.3748L63.2919 76.5067C63.4382 76.602 63.6127 76.644 63.7863 76.6258C63.9598 76.6077 64.1219 76.5304 64.2452 76.407L70.8293 69.8229C70.9525 69.6995 71.0297 69.5375 71.0479 69.3639C71.0661 69.1904 71.0241 69.0159 70.929 68.8696L67.7953 64.0397C68.3542 62.9605 68.8208 61.8361 69.1903 60.6784L74.8184 59.4802C74.989 59.4435 75.1418 59.3495 75.2516 59.2138C75.3613 59.0782 75.4213 58.9091 75.4215 58.7346V54.0792C75.4215 53.9792 75.4018 53.8802 75.3635 53.7878C75.3252 53.6955 75.2691 53.6115 75.1984 53.5409C75.1276 53.4702 75.0437 53.4142 74.9513 53.376C74.8588 53.3378 74.7598 53.3182 74.6598 53.3183H62.2217C62.0198 53.3183 61.8262 53.3984 61.6834 53.5411C61.5405 53.6838 61.4602 53.8773 61.46 54.0792C61.4653 55.7844 61.1341 57.4739 60.4852 59.0509C59.8363 60.6278 58.8826 62.0612 57.6787 63.2689C56.4749 64.4766 55.0445 65.4348 53.4695 66.0886C51.8946 66.7423 50.2062 67.0789 48.5009 67.0789C46.7957 67.0789 45.1072 66.7423 43.5323 66.0886C41.9574 65.4348 40.527 64.4766 39.3231 63.2689C38.1192 62.0612 37.1655 60.6278 36.5167 59.0509C35.8678 57.4739 35.5365 55.7844 35.5419 54.0792C35.5417 53.8773 35.4613 53.6838 35.3185 53.5411C35.1757 53.3984 34.982 53.3183 34.7802 53.3183H22.3419C22.2419 53.3181 22.1429 53.3377 22.0504 53.3759C21.958 53.4141 21.874 53.4701 21.8033 53.5408C21.7325 53.6115 21.6764 53.6954 21.6381 53.7878C21.5998 53.8802 21.5801 53.9792 21.5801 54.0792L21.5805 54.0795Z" fill="#0CAF60"/>
<defs>
<linearGradient id="paint0_linear_2464_3846" x1="-1.4759" y1="5.4902" x2="75.8271" y2="11.4447" gradientUnits="userSpaceOnUse">
<stop stop-color="#9FE871"/>
<stop offset="1" stop-color="#6BD723"/>
</linearGradient>
<linearGradient id="paint1_linear_2464_3846" x1="31.2455" y1="30.5688" x2="35.5726" y2="30.9021" gradientUnits="userSpaceOnUse">
<stop stop-color="#9FE871"/>
<stop offset="1" stop-color="#6BD723"/>
</linearGradient>
<linearGradient id="paint2_linear_2464_3846" x1="21.768" y1="56.5594" x2="77.384" y2="65.3004" gradientUnits="userSpaceOnUse">
<stop stop-color="#9FE871"/>
<stop offset="1" stop-color="#6BD723"/>
</linearGradient>
<linearGradient id="paint3_linear_2464_3846" x1="30.3662" y1="37.9613" x2="36.5845" y2="38.1621" gradientUnits="userSpaceOnUse">
<stop stop-color="#9FE871"/>
<stop offset="1" stop-color="#6BD723"/>
</linearGradient>
<linearGradient id="paint4_linear_2464_3846" x1="50.6514" y1="34.5567" x2="56.8722" y2="34.7141" gradientUnits="userSpaceOnUse">
<stop stop-color="#9FE871"/>
<stop offset="1" stop-color="#6BD723"/>
</linearGradient>
</defs>
</svg>
