<svg width="81" height="81" viewBox="0 0 81 81" fill="none" xmlns="http://www.w3.org/2000/svg">
<rect opacity="0.1" width="70" height="70" rx="4" fill="url(#paint0_linear_2464_3862)"/>
<g clip-path="url(#clip0_2464_3862)">
<path fill-rule="evenodd" clip-rule="evenodd" d="M61.1031 43.5108C61.0929 43.4949 61.08 43.4816 61.0706 43.4657L59.004 40.8496L59.0064 40.8445C59.1364 40.5626 59.2542 40.2748 59.3618 39.9835L59.3639 39.9782L62.6774 39.5876C62.9221 39.5593 63.148 39.4421 63.3118 39.2581C63.4757 39.0741 63.5662 38.8362 63.566 38.5898V33.0575C63.5671 32.8109 63.4769 32.5726 63.3128 32.3884C63.1488 32.2043 62.9225 32.0873 62.6774 32.0599L59.3639 31.6691L59.3618 31.6639C59.2537 31.3729 59.1366 31.0849 59.0064 30.8029L59.004 30.7978L61.0709 28.1812C61.2231 27.9866 61.2991 27.7431 61.2843 27.4964C61.2696 27.2497 61.1652 27.017 60.9909 26.8419L57.0808 22.9326C56.9065 22.7584 56.6746 22.654 56.4287 22.6391C56.1828 22.6242 55.9399 22.6999 55.746 22.8517L53.1248 24.9232L53.1196 24.9208C52.8403 24.7855 52.5531 24.6669 52.2624 24.5582L52.257 24.5563L51.8655 21.2492C51.8377 21.0038 51.7203 20.7774 51.5359 20.6132C51.3515 20.449 51.1129 20.3586 50.866 20.3594H45.3351C45.0881 20.3586 44.8496 20.449 44.6651 20.6132C44.4807 20.7774 44.3633 21.0038 44.3354 21.2492L43.9439 24.5567L43.9387 24.5586C43.6476 24.6674 43.3604 24.7861 43.0805 24.9212L43.0753 24.9236L40.455 22.8517C40.261 22.6998 40.0182 22.6242 39.7723 22.6391C39.5263 22.654 39.2944 22.7584 39.1202 22.9326L35.2102 26.8419C35.0359 27.017 34.9315 27.2497 34.9168 27.4964C34.902 27.743 34.9779 27.9866 35.1301 28.1812L37.197 30.7978L37.1947 30.8029C37.0646 31.0849 36.9475 31.3729 36.8392 31.6639L36.8373 31.6691L33.523 32.0596C33.2779 32.0869 33.0515 32.2038 32.8876 32.3881C32.7236 32.5723 32.6337 32.8106 32.635 33.0572V38.5901C32.6347 38.8365 32.7251 39.0745 32.889 39.2585C33.053 39.4425 33.2789 39.5598 33.5237 39.5878L36.8381 39.9785L36.84 39.9838C36.9474 40.275 37.0652 40.5628 37.1955 40.8448L37.1977 40.8499L35.3131 43.2366L35.0505 43.1119L35.1196 42.9318C35.3304 42.3808 35.3137 41.7688 35.0732 41.2301C34.8328 40.6915 34.3883 40.2704 33.8374 40.0595L25.528 36.8846C24.9765 36.6744 24.3643 36.6914 23.8253 36.9319C23.2864 37.1723 22.8648 37.6166 22.6528 38.1673L16.1567 55.1558C15.9476 55.7071 15.9653 56.3186 16.2058 56.8569C16.4463 57.3951 16.8902 57.8163 17.4403 58.0283L25.7485 61.2029C26.0203 61.3114 26.3115 61.3634 26.6041 61.3555C26.8968 61.3477 27.1847 61.2802 27.4504 61.1573C27.7183 61.0394 27.96 60.8692 28.1614 60.6567C28.3627 60.4442 28.5196 60.1937 28.6228 59.9198L28.7761 59.5206L28.7849 59.5247C28.8644 59.5621 28.9403 59.6076 29.016 59.6516L29.0183 59.6529L29.0194 59.6552C29.4696 60.5206 30.0072 61.3377 30.6239 62.0936L30.6279 62.0985L30.6247 62.104C30.3442 62.5731 30.193 63.1083 30.1868 63.6549C30.1806 64.2016 30.3195 64.74 30.5893 65.2155C30.8591 65.6909 31.2502 66.0862 31.7227 66.3612C32.1952 66.6361 32.7322 66.7808 33.2788 66.7804H33.3405L33.3414 66.7886C33.4268 67.5427 33.7869 68.239 34.3531 68.7444C34.9193 69.2499 35.6518 69.5291 36.4108 69.5287H36.4714L36.4723 69.5368C36.555 70.2921 36.9136 70.9903 37.4792 71.4976C38.0448 72.0049 38.7778 72.2857 39.5376 72.286H39.6048L39.6057 72.2941C39.6863 73.0492 40.0443 73.7475 40.6103 74.2538C41.1764 74.76 41.9102 75.0381 42.6695 75.0343H42.8742C43.2794 75.0103 43.6757 74.906 44.0402 74.7275C44.4047 74.5489 44.7301 74.2997 44.9974 73.9943L45.556 73.3527L48.5796 75.9162C49.019 76.2912 49.5548 76.5354 50.1261 76.6209C50.6974 76.7065 51.2812 76.6299 51.8111 76.4C52.3411 76.1701 52.7958 75.796 53.1237 75.3204C53.4515 74.8448 53.6393 74.2867 53.6656 73.7097V73.7009H53.8136C54.512 73.6458 55.1707 73.3541 55.6808 72.8739C56.1909 72.3938 56.522 71.754 56.6193 71.0603L56.6204 71.0515L56.6293 71.0525C56.7122 71.06 56.7954 71.063 56.8786 71.0615C56.9652 71.0615 57.0518 71.0601 57.1381 71.0525C57.9541 70.9853 58.7105 70.5985 59.2426 69.9763C59.6004 69.556 59.8377 69.0466 59.9291 68.5023L59.9305 68.4935L59.9392 68.4947C60.0703 68.5159 60.2026 68.528 60.3353 68.531C60.4221 68.5294 60.5087 68.5233 60.5948 68.5128C61.0888 68.4758 61.5664 68.319 61.9863 68.0561C62.4062 67.7933 62.7558 67.4322 63.005 67.004C63.2542 66.5758 63.3954 66.0934 63.4165 65.5985C63.4376 65.1035 63.3379 64.6109 63.126 64.163L63.1228 64.1561L63.1291 64.1517C64.4486 63.225 65.5913 61.9671 66.5737 60.6986C66.5799 60.6896 66.5864 60.6805 66.5927 60.6714C67.0003 60.1205 67.5441 59.685 68.1707 59.4076L68.1796 59.4036L68.3791 59.9206C68.4812 60.1949 68.6375 60.4458 68.8386 60.6584C69.0397 60.871 69.2815 61.041 69.5497 61.1582C69.8156 61.2811 70.1037 61.3485 70.3965 61.3562C70.6892 61.364 70.9805 61.312 71.2525 61.2034L79.5607 58.0288C80.1114 57.8156 80.5555 57.3935 80.7965 56.8545C80.9162 56.5886 80.982 56.3016 80.99 56.0101C80.9981 55.7186 80.9483 55.4284 80.8435 55.1563L74.3482 38.1673C74.2439 37.8944 74.0868 37.6446 73.8859 37.4324C73.685 37.2202 73.4442 37.0497 73.1773 36.9306C72.9104 36.8115 72.6227 36.7462 72.3306 36.7384C72.0385 36.7306 71.7477 36.7804 71.4748 36.8851L63.1665 40.0597C62.616 40.2713 62.1719 40.6924 61.9313 41.2308C61.6907 41.7692 61.6733 42.3811 61.8829 42.9323L61.9897 43.2132L61.9806 43.2163C61.6906 43.3129 61.4019 43.4136 61.1137 43.5155L61.1069 43.5179L61.103 43.5118L61.1031 43.5108ZM48.1003 29.3478C46.4024 29.3468 44.772 30.0129 43.5605 31.2027C42.3491 32.3925 41.6536 34.0106 41.624 35.7083C41.5944 37.406 42.233 39.0474 43.4022 40.2787C44.5714 41.51 46.1775 42.2327 47.8745 42.2909C47.3732 42.4499 46.9051 42.6989 46.4931 43.0257L43.9998 45.012C42.5757 44.9667 40.8248 44.9123 38.7472 44.8488L37.5453 44.2775L37.2778 44.0144L39.1799 41.6023C39.3015 41.4471 39.3756 41.26 39.3931 41.0636C39.4106 40.8672 39.3709 40.6699 39.2786 40.4957C38.9821 39.9401 38.7406 39.3568 38.5577 38.7543C38.4994 38.5666 38.3879 38.3998 38.2367 38.2742C38.0855 38.1486 37.9011 38.0696 37.7059 38.0467L34.6574 37.6837V33.9554L37.7059 33.6017C37.9024 33.5786 38.0879 33.4984 38.2392 33.3709C38.3906 33.2435 38.5013 33.0745 38.5577 32.8848C38.7419 32.2856 38.9833 31.7054 39.2786 31.1524C39.3709 30.9782 39.4106 30.7809 39.3931 30.5845C39.3756 30.3882 39.3015 30.2011 39.1799 30.0459L37.2778 27.6335L39.9117 25.0032L42.3227 26.8989C42.4768 27.0224 42.6638 27.0977 42.8605 27.1155C43.0571 27.1332 43.2547 27.0926 43.4283 26.9986C43.984 26.7062 44.5658 26.4663 45.1661 26.2821C45.3545 26.2242 45.522 26.1128 45.6482 25.9614C45.7744 25.8101 45.8539 25.6252 45.877 25.4295L46.2379 22.3819H49.9622L50.3232 25.4295C50.3463 25.6252 50.4257 25.8101 50.552 25.9614C50.6782 26.1128 50.8457 26.2242 51.0341 26.2821C51.6345 26.4661 52.2163 26.706 52.7718 26.9986C52.9455 27.0926 53.1431 27.1332 53.3398 27.1154C53.5364 27.0977 53.7235 27.0224 53.8776 26.8989L56.2884 25.0032L58.9234 27.6335L57.0224 30.0463C56.9004 30.2013 56.826 30.3883 56.8083 30.5847C56.7906 30.7812 56.8303 30.9785 56.9226 31.1528C57.2158 31.7066 57.457 32.2864 57.643 32.8848C57.6996 33.0745 57.8105 33.2434 57.962 33.3708C58.1136 33.4981 58.2991 33.5783 58.4956 33.6014L61.5433 33.955V37.6837L58.4956 38.0465C58.3003 38.0693 58.1158 38.1483 57.9645 38.2739C57.8132 38.3995 57.7015 38.5662 57.643 38.754C57.4585 39.356 57.2171 39.9391 56.9221 40.4954C56.8297 40.6698 56.79 40.8672 56.8079 41.0637C56.8258 41.2602 56.9004 41.4473 57.0227 41.6021L58.5356 43.5159C55.5791 42.7928 52.5646 42.3315 49.527 42.1372C51.0815 41.7871 52.4522 40.876 53.3769 39.5784C54.3015 38.2807 54.7151 36.6876 54.5384 35.104C54.3618 33.5205 53.6073 32.0577 52.4194 30.9957C51.2315 29.9337 49.6937 29.3471 48.1003 29.3482V29.3478ZM60.9955 64.585C61.4625 65.0294 61.5324 65.6915 61.1587 66.1269C60.9744 66.3425 60.7121 66.4762 60.4294 66.4988C60.2898 66.512 60.1489 66.4972 60.0151 66.4551C59.8813 66.4131 59.7573 66.3447 59.6503 66.254L58.9891 65.6915H58.9882C58.9556 65.6644 58.9248 65.6371 58.8911 65.6099L53.7901 61.2842C53.5857 61.1101 53.3204 61.0243 53.0527 61.0457C52.7849 61.0671 52.5367 61.194 52.3625 61.3984C52.1883 61.6029 52.1025 61.8682 52.1239 62.1359C52.1453 62.4037 52.2722 62.6519 52.4767 62.8261L57.5777 67.1614C57.6848 67.2515 57.7728 67.3621 57.8367 67.4867C57.9005 67.6113 57.9389 67.7474 57.9495 67.887C57.9619 68.0269 57.9465 68.1679 57.9039 68.3019C57.8614 68.4358 57.7928 68.5599 57.7019 68.6671C57.611 68.7743 57.4998 68.8623 57.3746 68.9262C57.2494 68.99 57.1128 69.0283 56.9727 69.0389C56.8325 69.0506 56.6913 69.0341 56.5575 68.9905C56.4237 68.9469 56.2999 68.877 56.1935 68.785L55.575 68.2589H55.566L50.648 64.0866C50.442 63.9157 50.1768 63.833 49.9101 63.8565C49.6434 63.88 49.3967 64.0077 49.2237 64.212C49.0506 64.4162 48.9651 64.6805 48.9857 64.9474C49.0063 65.2143 49.1314 65.4624 49.3338 65.6376L54.2525 69.8008C54.4674 69.9867 54.6009 70.2495 54.6241 70.5328C54.6474 70.816 54.5585 71.0971 54.3768 71.3156C54.1925 71.5306 53.9307 71.6643 53.6484 71.6874C53.5081 71.699 53.3668 71.6825 53.2329 71.6389C53.099 71.5953 52.9751 71.5255 52.8685 71.4335L52.2526 70.9164L48.0612 67.361C47.8553 67.1885 47.5896 67.1046 47.322 67.1274C47.0543 67.1503 46.8067 67.2782 46.633 67.4831C46.4594 67.688 46.3739 67.9533 46.3952 68.221C46.4166 68.4887 46.543 68.7372 46.7469 68.912L51.2713 72.7481C51.3787 72.838 51.467 72.9485 51.5309 73.0732C51.5948 73.1978 51.633 73.3341 51.6432 73.4738C51.6615 73.6847 51.6167 73.8962 51.5146 74.0816C51.4124 74.267 51.2575 74.4179 51.0694 74.5151C50.8814 74.6123 50.6687 74.6514 50.4583 74.6274C50.248 74.6035 50.0495 74.5177 49.8881 74.3807L46.6038 71.5878C46.7225 71.0468 46.6943 70.484 46.522 69.9576C46.3497 69.4313 46.0397 68.9607 45.6241 68.5946C45.2711 68.2876 44.8551 68.0616 44.4054 67.9325C44.5103 67.5798 44.5524 67.2113 44.5297 66.844C44.5048 66.4374 44.3996 66.0397 44.2203 65.6739C44.041 65.3081 43.791 64.9814 43.4848 64.7126C43.0845 64.3602 42.5985 64.1194 42.0757 64.0144C42.1172 63.7688 42.1306 63.5193 42.1157 63.2707C42.0905 62.8643 41.9854 62.4668 41.8062 62.1012C41.6271 61.7356 41.3774 61.4089 41.0716 61.1401C40.7658 60.8712 40.4099 60.6654 40.0244 60.5345C39.6388 60.4036 39.2312 60.3502 38.8249 60.3773C38.4871 60.4012 38.1551 60.4777 37.8409 60.604C37.6629 60.1561 37.3795 59.7579 37.0145 59.443C36.709 59.1737 36.3532 58.9672 35.9677 58.8355C35.5823 58.7038 35.1746 58.6495 34.768 58.6756C34.3615 58.7017 33.9641 58.8078 33.5987 58.9877C33.2332 59.1677 32.9068 59.418 32.6382 59.7242L31.9452 60.5134C31.4613 59.8665 31.0366 59.1775 30.6763 58.4545C30.5815 58.2705 30.434 58.1189 30.2528 58.019C30.006 57.8829 29.7593 57.747 29.5125 57.62L34.3334 45.0124L38.0721 46.772C38.1975 46.8322 38.3339 46.8661 38.473 46.8718C39.5878 46.8991 40.6082 46.9352 41.5397 46.9625L39.8918 48.2773C39.5507 48.5432 39.2743 48.8829 39.0831 49.2709C38.8919 49.6589 38.791 50.0851 38.788 50.5176L38.6991 56.8486C38.6985 56.8789 38.6994 56.9091 38.7019 56.9393C38.734 57.3893 38.8728 57.8252 39.1067 58.211C39.3406 58.5968 39.6629 58.9214 40.047 59.158C40.4312 59.3946 40.8661 59.5364 41.3159 59.5717C41.7657 59.607 42.2174 59.5348 42.6337 59.361C43.7912 59.1253 46.2292 58.1276 47.0192 53.8005C47.0982 53.5498 47.218 53.3139 47.3738 53.1022C47.4459 52.9998 47.5407 52.9154 47.6508 52.8556C47.7609 52.7958 47.8834 52.7623 48.0086 52.7576C48.1333 52.7405 48.2603 52.7529 48.3794 52.7939C48.4985 52.8349 48.6063 52.9032 48.6941 52.9934L60.9959 64.5852L60.9955 64.585ZM34.0833 64.3946C33.9904 64.5001 33.8776 64.5863 33.7514 64.6483C33.6252 64.7102 33.488 64.7467 33.3477 64.7556C33.2074 64.7646 33.0667 64.7458 32.9336 64.7003C32.8006 64.6549 32.6778 64.5837 32.5723 64.4908C32.4667 64.3979 32.3805 64.2851 32.3186 64.1589C32.2566 64.0326 32.2202 63.8955 32.2112 63.7551C32.2023 63.6148 32.2211 63.4741 32.2665 63.3411C32.312 63.208 32.3832 63.0852 32.4761 62.9797L34.1646 61.0659C34.351 60.853 34.6144 60.7229 34.8967 60.7042C35.1791 60.6854 35.4573 60.7797 35.6702 60.9661C35.8831 61.1525 36.0133 61.4159 36.032 61.6983C36.0507 61.9806 35.9565 62.2589 35.77 62.4718L34.0833 64.3946ZM37.2153 67.152C37.0269 67.3624 36.763 67.4898 36.4811 67.5065C36.1992 67.5233 35.9221 67.4279 35.7101 67.2413C35.4982 67.0547 35.3685 66.7919 35.3494 66.5102C35.3303 66.2284 35.4232 65.9505 35.608 65.737L37.2965 63.8142L38.219 62.762C38.4081 62.552 38.6724 62.425 38.9545 62.4083H39.0252C39.2963 62.4074 39.5575 62.5103 39.7551 62.6958C39.9528 62.8813 40.072 63.1354 40.0883 63.406C40.0975 63.5455 40.0791 63.6853 40.0341 63.8176C39.9891 63.9499 39.9185 64.0721 39.8262 64.177L39.1078 64.9933L37.2149 67.1515L37.2153 67.152ZM40.3472 69.9002C40.2554 70.0069 40.1431 70.0941 40.0168 70.1565C39.8906 70.2188 39.7531 70.255 39.6125 70.263C39.33 70.2792 39.0523 70.1849 38.8381 70C38.6253 69.8114 38.4956 69.5465 38.4773 69.2628C38.4589 68.9791 38.5535 68.6996 38.7402 68.4853L40.6341 66.3357C40.8217 66.1227 41.0863 65.993 41.3696 65.975C41.6529 65.9571 41.9317 66.0524 42.1447 66.2401C42.3577 66.4277 42.4874 66.6922 42.5053 66.9755C42.5233 67.2588 42.4279 67.5376 42.2403 67.7506L41.2489 68.8753H41.2481L40.3474 69.9002H40.3472ZM44.3788 71.6327L43.4791 72.6576C43.2907 72.868 43.0268 72.9954 42.7449 73.0121C42.463 73.0288 42.1859 72.9335 41.974 72.7469C41.762 72.5603 41.6324 72.2975 41.6133 72.0158C41.5941 71.734 41.6871 71.4561 41.8719 71.2426L42.7744 70.2177C42.8673 70.1123 42.9801 70.0263 43.1062 69.9645C43.2324 69.9028 43.3695 69.8664 43.5097 69.8577C43.6499 69.8489 43.7904 69.8678 43.9233 69.9133C44.0562 69.9588 44.1788 70.0301 44.2841 70.123C44.3895 70.2159 44.4755 70.3286 44.5373 70.4548C44.599 70.5809 44.6354 70.718 44.6442 70.8582C44.653 70.9984 44.6341 71.139 44.5885 71.2719C44.543 71.4047 44.4718 71.5274 44.3788 71.6327ZM50.0858 51.5149C49.788 51.2325 49.4338 51.0161 49.0465 50.8801C48.6592 50.7441 48.2476 50.6915 47.8385 50.7258C47.4295 50.76 47.0323 50.8804 46.673 51.0789C46.3138 51.2774 46.0005 51.5497 45.7539 51.8778C45.4449 52.294 45.2102 52.7604 45.0601 53.2565C45.048 53.2952 45.038 53.3345 45.0301 53.3743C44.6138 55.7229 43.5988 57.1476 42.1702 57.3743C42.0729 57.3908 41.9785 57.4213 41.8899 57.465C41.7736 57.5215 41.6454 57.5493 41.516 57.5461C41.3867 57.5429 41.2601 57.5088 41.1466 57.4467C41.0332 57.3845 40.9362 57.2962 40.8639 57.1889C40.7916 57.0817 40.7459 56.9587 40.7308 56.8302L40.8197 50.5446C40.818 50.4127 40.8477 50.2823 40.9062 50.164C40.9647 50.0457 41.0504 49.943 41.1563 49.8643L47.7566 44.6218C47.9614 44.4499 48.1985 44.3204 48.4538 44.241C48.7092 44.1616 48.9778 44.1338 49.2441 44.1592C53.1389 44.4222 56.3724 44.9664 59.7293 45.946C59.9333 46.0037 60.1502 45.9973 60.3506 45.9279C61.2448 45.6105 62.0322 45.3383 62.7025 45.1027L67.4498 57.5106C66.4635 57.9326 65.6069 58.6086 64.9672 59.4698C63.8716 60.8847 62.8194 61.9278 61.8315 62.5802L50.0858 51.5149Z" fill="url(#paint1_linear_2464_3862)"/>
<path fill-rule="evenodd" clip-rule="evenodd" d="M18.0455 55.8781L24.5415 38.8897C24.5564 38.8503 24.5828 38.8163 24.6172 38.7921C24.6516 38.7678 24.6925 38.7544 24.7346 38.7536C24.7588 38.7553 24.7826 38.7615 24.8046 38.7718L33.1128 41.9464C33.1622 41.967 33.2017 42.0057 33.2234 42.0547C33.245 42.1036 33.247 42.159 33.2289 42.2094L26.7329 59.1978C26.7131 59.2493 26.6745 59.2914 26.6249 59.3157C26.5749 59.3341 26.5199 59.3341 26.4698 59.3157L18.1624 56.1411C18.1375 56.1312 18.1149 56.1165 18.0957 56.0978C18.0766 56.0792 18.0613 56.0569 18.0508 56.0323C18.039 56.0084 18.0325 55.9824 18.0316 55.9558C18.0307 55.9292 18.0354 55.9027 18.0455 55.8781ZM38.0723 46.7716L34.3337 45.012L29.5127 57.6196C29.7595 57.7466 30.0062 57.8825 30.253 58.0186C30.4343 58.1185 30.5817 58.2701 30.6765 58.4541C31.0369 59.1771 31.4615 59.8662 31.9454 60.513L32.6385 59.7239C32.907 59.4176 33.2334 59.1673 33.5989 58.9874C33.9644 58.8074 34.3617 58.7013 34.7683 58.6752C35.1748 58.6491 35.5825 58.7034 35.968 58.8351C36.3535 58.9668 36.7092 59.1733 37.0148 59.4427C37.3797 59.7575 37.6632 60.1558 37.8411 60.6036C38.1553 60.4773 38.4873 60.4008 38.8251 60.3769C39.2312 60.3492 39.6388 60.4023 40.0243 60.533C40.4097 60.6638 40.7655 60.8696 41.0709 61.1386C41.6875 61.6829 42.0632 62.4493 42.1159 63.27C42.1309 63.5187 42.1175 63.7682 42.0759 64.0137C42.5988 64.1188 43.0848 64.3596 43.4851 64.712C43.7913 64.9807 44.0412 65.3074 44.2205 65.6733C44.3999 66.0391 44.505 66.4368 44.5299 66.8434C44.5526 67.2107 44.5106 67.5792 44.4056 67.9319C44.8553 68.061 45.2713 68.287 45.6244 68.594C46.0399 68.96 46.35 69.4306 46.5222 69.957C46.6945 70.4833 46.7228 71.0462 46.6041 71.5871L49.8883 74.3801C50.0498 74.517 50.2483 74.6029 50.4586 74.6268C50.6689 74.6507 50.8816 74.6116 51.0697 74.5144C51.2577 74.4173 51.4127 74.2664 51.5148 74.081C51.617 73.8956 51.6618 73.684 51.6435 73.4731C51.6333 73.3334 51.5951 73.1972 51.5312 73.0725C51.4673 72.9479 51.379 72.8373 51.2715 72.7475L46.7473 68.9108C46.5434 68.736 46.4169 68.4876 46.3956 68.2199C46.3743 67.9521 46.4598 67.6868 46.6334 67.4819C46.807 67.277 47.0547 67.1492 47.3223 67.1263C47.5899 67.1034 47.8557 67.1874 48.0616 67.3598L52.253 70.9153L52.8688 71.4324C52.9755 71.5243 53.0994 71.5942 53.2333 71.6378C53.3672 71.6813 53.5085 71.6978 53.6488 71.6863C53.7888 71.6755 53.9253 71.6371 54.0504 71.5733C54.1755 71.5094 54.2866 71.4213 54.3774 71.3142C54.4681 71.2071 54.5367 71.083 54.5792 70.9491C54.6217 70.8153 54.6371 70.6743 54.6247 70.5344C54.6019 70.2502 54.4684 69.9863 54.2529 69.7996L49.3342 65.6364C49.1318 65.4612 49.0067 65.2132 48.9861 64.9463C48.9655 64.6794 49.051 64.4151 49.224 64.2108C49.3971 64.0066 49.6438 63.8788 49.9105 63.8554C50.1771 63.8319 50.4423 63.9146 50.6484 64.0855L55.5663 68.2578H55.5753L56.1938 68.7839C56.3003 68.8759 56.4241 68.9458 56.5579 68.9893C56.6917 69.0329 56.8328 69.0494 56.9731 69.0378C57.1132 69.0272 57.2498 68.9888 57.375 68.925C57.5001 68.8612 57.6114 68.7731 57.7023 68.666C57.7931 68.5588 57.8618 68.4346 57.9043 68.3007C57.9468 68.1668 57.9623 68.0258 57.9499 67.8858C57.9393 67.7462 57.9009 67.6101 57.8371 67.4856C57.7732 67.361 57.6851 67.2504 57.578 67.1603L52.4767 62.8258C52.3736 62.7402 52.2885 62.6349 52.2265 62.5161C52.1644 62.3973 52.1265 62.2674 52.115 62.1338C52.1035 62.0003 52.1186 61.8658 52.1595 61.7382C52.2004 61.6105 52.2662 61.4923 52.3531 61.3902C52.44 61.2882 52.5464 61.2045 52.6659 61.1438C52.7854 61.0832 52.9158 61.0469 53.0495 61.0371C53.1831 61.0272 53.3174 61.044 53.4446 61.0864C53.5717 61.1288 53.6892 61.1961 53.7901 61.2842L58.8911 65.6107C58.9247 65.6378 58.9556 65.6651 58.9882 65.6923H58.9891L59.6503 66.2547C59.7572 66.3454 59.8813 66.4138 60.0151 66.4559C60.1489 66.4979 60.2898 66.5128 60.4294 66.4996C60.7121 66.477 60.9744 66.3432 61.1587 66.1276C61.5324 65.6923 61.4625 65.0301 60.9955 64.5858L48.6937 52.9941C48.6059 52.9038 48.4981 52.8355 48.379 52.7945C48.2599 52.7536 48.1329 52.7411 48.0082 52.7582C47.883 52.7629 47.7605 52.7965 47.6504 52.8562C47.5403 52.916 47.4455 53.0004 47.3734 53.1029C47.2176 53.3145 47.0978 53.5504 47.0188 53.8011C46.2288 58.1277 43.7908 59.1254 42.6334 59.3617C42.217 59.5354 41.7653 59.6077 41.3155 59.5724C40.8657 59.5371 40.4308 59.3952 40.0466 59.1586C39.6625 58.922 39.3402 58.5974 39.1063 58.2116C38.8724 57.8258 38.7336 57.3899 38.7015 56.9399C38.699 56.9098 38.6981 56.8795 38.6987 56.8493L38.7876 50.5182C38.7906 50.0857 38.8915 49.6595 39.0827 49.2715C39.2739 48.8836 39.5503 48.5439 39.8914 48.2779L41.5395 46.9628C40.6081 46.9355 39.5876 46.8993 38.4728 46.872C38.3338 46.8664 38.1974 46.8324 38.0719 46.7722L38.0723 46.7716ZM37.2778 44.0143L39.1798 41.6022C39.3015 41.447 39.3756 41.2599 39.3931 41.0635C39.4106 40.8671 39.3709 40.6698 39.2786 40.4955C38.9821 39.94 38.7406 39.3567 38.5576 38.7541C38.4994 38.5664 38.3879 38.3997 38.2367 38.2741C38.0855 38.1485 37.9011 38.0695 37.7059 38.0466L34.6574 37.6837V33.9554L37.7059 33.6017C37.9024 33.5786 38.0878 33.4984 38.2392 33.3709C38.3906 33.2435 38.5013 33.0745 38.5576 32.8848C38.7419 32.2856 38.9833 31.7054 39.2786 31.1524C39.3709 30.9782 39.4106 30.7809 39.3931 30.5845C39.3756 30.3882 39.3015 30.2011 39.1798 30.0459L37.2778 27.6335L39.9117 25.0032L42.3227 26.8989C42.4768 27.0224 42.6638 27.0977 42.8605 27.1155C43.0571 27.1332 43.2546 27.0926 43.4283 26.9986C43.984 26.7062 44.5658 26.4663 45.1661 26.2821C45.3545 26.2242 45.522 26.1128 45.6482 25.9614C45.7744 25.8101 45.8539 25.6252 45.877 25.4295L46.2379 22.3819H49.9622L50.3232 25.4295C50.3462 25.6252 50.4257 25.8101 50.552 25.9614C50.6782 26.1128 50.8457 26.2242 51.0341 26.2821C51.6345 26.4661 52.2163 26.706 52.7718 26.9986C52.9455 27.0926 53.1431 27.1332 53.3398 27.1154C53.5364 27.0977 53.7235 27.0224 53.8776 26.8989L56.2884 25.0032L58.9233 27.6335L57.0223 30.0463C56.9004 30.2013 56.826 30.3883 56.8083 30.5847C56.7906 30.7812 56.8303 30.9785 56.9226 31.1528C57.2158 31.7066 57.457 32.2864 57.643 32.8848C57.6996 33.0745 57.8105 33.2434 57.962 33.3708C58.1136 33.4981 58.2991 33.5783 58.4956 33.6014L61.5433 33.955V37.6837L58.4956 38.0465C58.3003 38.0693 58.1158 38.1483 57.9645 38.2739C57.8131 38.3995 57.7015 38.5662 57.643 38.754C57.4585 39.356 57.2171 39.9391 56.9221 40.4954C56.8297 40.6698 56.79 40.8672 56.8079 41.0637C56.8258 41.2602 56.9004 41.4472 57.0227 41.6021L58.5356 43.5159C55.579 42.7928 52.5645 42.3315 49.527 42.1372C51.1339 41.7755 52.5427 40.8157 53.4674 39.4528C54.3921 38.0898 54.7632 36.426 54.5054 34.7993C54.2476 33.1726 53.3801 31.705 52.0793 30.6948C50.7785 29.6846 49.1419 29.2075 47.502 29.3604C45.8621 29.5134 44.3419 30.2849 43.2503 31.5182C42.1588 32.7516 41.5776 34.3542 41.6251 36.0005C41.6725 37.6469 42.3449 39.2134 43.5057 40.3818C44.6664 41.5503 46.2285 42.233 47.8745 42.2913C47.3732 42.4503 46.9051 42.6993 46.4931 43.0261L43.9997 45.0124C42.5757 44.9671 40.8248 44.9127 38.7472 44.8491L37.5453 44.2779L37.2778 44.0148V44.0143ZM48.1003 40.2683C48.9792 40.2678 49.8382 40.0067 50.5688 39.518C51.2993 39.0293 51.8685 38.335 52.2045 37.5229C52.5405 36.7107 52.6281 35.8172 52.4563 34.9552C52.2845 34.0933 51.861 33.3016 51.2394 32.6803C50.6177 32.059 49.8258 31.636 48.9637 31.4647C48.1017 31.2935 47.2082 31.3816 46.3963 31.7181C45.5843 32.0546 44.8904 32.6242 44.4021 33.355C43.9139 34.0859 43.6533 34.945 43.6533 35.8239C43.6553 37.0025 44.1246 38.1321 44.9582 38.9652C45.7918 39.7984 46.9218 40.267 48.1003 40.2683ZM67.4498 57.5107C66.4635 57.9327 65.6068 58.6088 64.9672 59.47C63.8716 60.8848 62.8194 61.9279 61.8315 62.5803L50.0855 51.5147C49.7877 51.2322 49.4335 51.0159 49.0462 50.8799C48.659 50.7438 48.2473 50.6912 47.8383 50.7255C47.4292 50.7598 47.032 50.8801 46.6728 51.0787C46.3135 51.2772 46.0003 51.5494 45.7536 51.8775C45.4447 52.2937 45.2099 52.7601 45.0598 53.2562C45.0477 53.2949 45.0377 53.3343 45.0298 53.374C44.6136 55.7227 43.5986 57.1473 42.17 57.3741C42.0726 57.3905 41.9782 57.4211 41.8897 57.4647C41.7733 57.5212 41.6451 57.549 41.5158 57.5458C41.3865 57.5426 41.2598 57.5085 41.1463 57.4464C41.0329 57.3843 40.936 57.2959 40.8636 57.1887C40.7913 57.0814 40.7457 56.9584 40.7306 56.83L40.8194 50.5444C40.8178 50.4125 40.8474 50.282 40.9059 50.1637C40.9644 50.0455 41.0501 49.9428 41.156 49.864L47.7563 44.6215C47.9612 44.4496 48.1982 44.3202 48.4536 44.2408C48.7089 44.1613 48.9776 44.1335 49.2438 44.1589C53.1386 44.4219 56.3721 44.9662 59.729 45.9458C59.9331 46.0034 60.1499 45.9971 60.3503 45.9276C61.2445 45.6102 62.0319 45.338 62.7022 45.1024L67.4495 57.5103L67.4498 57.5107ZM63.7764 42.0552C63.7548 42.104 63.7528 42.1592 63.7709 42.2094L70.2679 59.1978C70.2885 59.2488 70.3268 59.2907 70.3758 59.3157C70.4256 59.3341 70.4803 59.3341 70.53 59.3157L78.8382 56.1411C78.8885 56.1209 78.9288 56.0819 78.9507 56.0323C78.9618 56.0083 78.9681 55.9822 78.969 55.9557C78.9699 55.9293 78.9656 55.9028 78.9562 55.8781L72.4601 38.8897C72.4515 38.8639 72.4377 38.8402 72.4194 38.82C72.4012 38.7998 72.3789 38.7837 72.3541 38.7726C72.3293 38.7615 72.3024 38.7557 72.2752 38.7556C72.248 38.7554 72.2211 38.7609 72.1962 38.7718L63.8897 41.9464C63.8391 41.9663 63.7984 42.0054 63.7764 42.0552ZM43.4791 72.658C43.2907 72.8683 43.0268 72.9958 42.7449 73.0125C42.463 73.0292 42.1859 72.9339 41.974 72.7473C41.762 72.5607 41.6324 72.2979 41.6132 72.0161C41.5941 71.7344 41.6871 71.4565 41.8719 71.243L42.7744 70.2181C42.962 70.0053 43.2265 69.8758 43.5096 69.858C43.7928 69.8403 44.0714 69.9357 44.2841 70.1234C44.4969 70.311 44.6264 70.5755 44.6442 70.8586C44.6619 71.1417 44.5665 71.4203 44.3788 71.6331L43.4791 72.658ZM38.8378 70.0003C38.625 69.8118 38.4953 69.5469 38.477 69.2632C38.4587 68.9795 38.5532 68.7 38.74 68.4857L40.6338 66.3361C40.7267 66.2306 40.8395 66.1445 40.9657 66.0826C41.0919 66.0207 41.229 65.9843 41.3693 65.9754C41.5096 65.9665 41.6502 65.9854 41.7832 66.0308C41.9162 66.0763 42.0389 66.1475 42.1444 66.2404C42.2499 66.3333 42.336 66.4461 42.3979 66.5723C42.4598 66.6985 42.4962 66.8356 42.5051 66.9759C42.5139 67.1162 42.4951 67.2568 42.4496 67.3898C42.4042 67.5228 42.333 67.6455 42.24 67.751L41.2487 68.8757H41.2478L40.3472 69.9006C40.2554 70.0073 40.143 70.0945 40.0168 70.1568C39.8906 70.2192 39.7531 70.2554 39.6125 70.2634C39.33 70.2796 39.0523 70.1853 38.8381 70.0003H38.8378ZM35.7059 67.243C35.4934 67.0563 35.3637 66.7928 35.3454 66.5105C35.327 66.2281 35.4215 65.9501 35.608 65.7374L37.2965 63.8145L38.2189 62.7624C38.4081 62.5524 38.6724 62.4253 38.9545 62.4087H39.0252C39.2839 62.4067 39.5343 62.5004 39.7282 62.6717C39.8345 62.7637 39.9211 62.8762 39.983 63.0024C40.0449 63.1286 40.0807 63.266 40.0883 63.4064C40.0975 63.5458 40.0791 63.6857 40.0341 63.818C39.9891 63.9503 39.9185 64.0724 39.8262 64.1774L39.1077 64.9937L37.2149 67.1519C37.0257 67.3623 36.7613 67.4898 36.4788 67.5068C36.1963 67.5238 35.9185 67.4288 35.7055 67.2425L35.7059 67.243ZM32.5741 64.4948C32.3612 64.3063 32.2315 64.0413 32.2132 63.7576C32.1948 63.4739 32.2893 63.1944 32.4761 62.9801L34.1646 61.0663C34.351 60.8534 34.6144 60.7233 34.8967 60.7045C35.1791 60.6858 35.4573 60.78 35.6702 60.9665C35.8831 61.1529 36.0132 61.4163 36.032 61.6986C36.0507 61.981 35.9564 62.2592 35.77 62.4721L34.0833 64.3946C33.8953 64.6062 33.6316 64.7353 33.3492 64.754C33.0667 64.7727 32.7883 64.6794 32.5741 64.4944V64.4948ZM17.4368 58.0368L25.745 61.2114C25.999 61.3115 26.2693 61.3638 26.5423 61.3656C26.8566 61.3623 27.167 61.2943 27.4539 61.166C27.7229 61.0475 27.9655 60.8765 28.1676 60.6632C28.3697 60.4498 28.5273 60.1984 28.6312 59.9234L28.7809 59.5334C28.8579 59.5696 28.9341 59.6151 29.0113 59.6604C29.4617 60.5263 29.9996 61.3439 30.6166 62.1003C30.3354 62.5708 30.1841 63.1075 30.178 63.6556C30.1719 64.2037 30.3112 64.7437 30.5819 65.2203C30.8525 65.697 31.2447 66.0934 31.7185 66.3691C32.1923 66.6448 32.7307 66.7898 33.2788 66.7896H33.3323C33.4179 67.546 33.7791 68.2443 34.347 68.7513C34.9148 69.2582 35.6495 69.5382 36.4107 69.5378H36.4633C36.5463 70.2953 36.9059 70.9955 37.4732 71.5043C38.0405 72.0131 38.7756 72.2947 39.5376 72.2951H39.5965C39.6774 73.0525 40.0365 73.7529 40.6042 74.2606C41.1719 74.7683 41.9079 75.0473 42.6695 75.0434H42.8744C43.2806 75.0182 43.6778 74.9132 44.0433 74.7342C44.4087 74.5552 44.7353 74.3058 45.0042 74.0004L45.5575 73.3656L48.5742 75.9235C49.1323 76.4006 49.8432 76.6613 50.5774 76.6583C51.3746 76.6623 52.1424 76.3577 52.7199 75.8081C53.2974 75.2586 53.6397 74.5068 53.6751 73.7104H53.8147C54.5153 73.6552 55.176 73.3627 55.6877 72.8811C56.1995 72.3996 56.5316 71.7578 56.6292 71.0619C56.7124 71.0696 56.796 71.0726 56.8795 71.0711C56.9664 71.0725 57.0532 71.0695 57.1398 71.0619C57.9582 70.9948 58.7169 70.6069 59.2505 69.9828C59.609 69.5611 59.8469 69.0503 59.9388 68.5044C60.0703 68.5257 60.2031 68.5378 60.3362 68.5408C60.4232 68.5391 60.5101 68.5331 60.5965 68.5226C61.092 68.4855 61.571 68.3283 61.9922 68.0647C62.4134 67.801 62.7641 67.4388 63.014 67.0094C63.264 66.5799 63.4056 66.0961 63.4268 65.5996C63.448 65.1032 63.348 64.609 63.1355 64.1599C64.2594 63.3707 65.3953 62.2369 66.5823 60.7041C66.5886 60.6951 66.595 60.6859 66.6013 60.6769C67.0075 60.1269 67.5501 59.6923 68.1756 59.4161L68.3716 59.9239C68.4746 60.199 68.6317 60.4507 68.8336 60.6641C69.0355 60.8775 69.2781 61.0484 69.547 61.1666C69.8343 61.2948 70.1449 61.3628 70.4594 61.3661C70.7324 61.3643 71.0027 61.312 71.2567 61.2119L79.565 58.0373C80.118 57.8234 80.564 57.3996 80.8059 56.8583C80.9265 56.5914 80.9927 56.3032 81.0008 56.0104C81.0089 55.7176 80.9586 55.4262 80.853 55.153L74.3566 38.164C74.1444 37.6106 73.7213 37.1639 73.1802 36.9219C72.9129 36.8003 72.6239 36.7336 72.3304 36.7258C72.0368 36.718 71.7447 36.7693 71.4714 36.8766L63.1636 40.0507C62.6109 40.2631 62.1649 40.686 61.9233 41.2266C61.6817 41.7672 61.6643 42.3815 61.8747 42.9349L61.9781 43.2071C61.706 43.2978 61.4185 43.3976 61.111 43.5064C61.0992 43.4882 61.0893 43.4792 61.0784 43.461L59.0149 40.8489C59.1446 40.5676 59.2634 40.2776 59.3703 39.9872L62.6782 39.5971C62.925 39.5681 63.1526 39.4496 63.3179 39.2641C63.4832 39.0785 63.5748 38.8388 63.5753 38.5904V33.0575C63.5763 32.8086 63.4852 32.5681 63.3196 32.3822C63.1541 32.1964 62.9256 32.0783 62.6782 32.0507L59.3703 31.6607C59.2623 31.3705 59.1445 31.0802 59.0149 30.7991L61.078 28.1876C61.2319 27.9913 61.3087 27.7455 61.2938 27.4965C61.2789 27.2475 61.1734 27.0126 60.9972 26.836L57.0871 22.9268C56.9112 22.7511 56.6772 22.6459 56.4291 22.6309C56.181 22.6158 55.9359 22.692 55.7401 22.8451L53.1234 24.9122C52.8423 24.7761 52.5565 24.6583 52.2654 24.5493L51.8744 21.2478C51.8463 21.0002 51.7279 20.7717 51.5418 20.606C51.3557 20.4404 51.115 20.3491 50.8659 20.3499H45.3348C45.0856 20.3492 44.845 20.4404 44.6589 20.6061C44.4728 20.7718 44.3544 21.0002 44.3263 21.2478L43.9353 24.5493C43.6442 24.6581 43.3585 24.7761 43.0764 24.9122L40.4605 22.8445C40.2647 22.6914 40.0197 22.6152 39.7716 22.6302C39.5235 22.6453 39.2895 22.7505 39.1136 22.9261L35.2034 26.8354C35.0271 27.012 34.9215 27.247 34.9066 27.4962C34.8918 27.7453 34.9687 27.9913 35.1228 28.1876L37.1862 30.7997C37.0564 31.0808 36.9386 31.371 36.8307 31.6614L33.5219 32.0514C33.2746 32.0789 33.0462 32.197 32.8808 32.3828C32.7153 32.5687 32.6245 32.8093 32.6259 33.0581V38.591C32.626 38.8394 32.7173 39.0792 32.8824 39.2648C33.0476 39.4503 33.2752 39.5688 33.5219 39.5977L36.8307 39.9879C36.9379 40.2781 37.0566 40.5683 37.1862 40.8495L35.3101 43.2252L35.0616 43.1072L35.1278 42.9349C35.3392 42.3816 35.3222 41.7668 35.0805 41.226C34.8388 40.6851 34.3922 40.2624 33.8389 40.0507H33.8374L25.5309 36.8761C25.2568 36.7709 24.9646 36.7207 24.6711 36.7285C24.3776 36.7363 24.0885 36.8019 23.8204 36.9215C23.5522 37.0412 23.3103 37.2125 23.1085 37.4257C22.9066 37.6389 22.7488 37.8898 22.6439 38.164L16.1479 55.1524C16.0426 55.4257 15.9926 55.7171 16.0009 56.0098C16.0091 56.3026 16.0755 56.5908 16.196 56.8576C16.4374 57.3993 16.8835 57.8233 17.4368 58.0368Z" fill="#0CAF60"/>
</g>
<defs>
<linearGradient id="paint0_linear_2464_3862" x1="-1.4759" y1="5.4902" x2="75.8271" y2="11.4447" gradientUnits="userSpaceOnUse">
<stop stop-color="#9FE871"/>
<stop offset="1" stop-color="#6BD723"/>
</linearGradient>
<linearGradient id="paint1_linear_2464_3862" x1="14.6417" y1="24.7747" x2="86.2597" y2="31.1423" gradientUnits="userSpaceOnUse">
<stop stop-color="#9FE871"/>
<stop offset="1" stop-color="#6BD723"/>
</linearGradient>
<clipPath id="clip0_2464_3862">
<rect width="65" height="65" fill="white" transform="translate(16 16)"/>
</clipPath>
</defs>
</svg>
