<svg width="81" height="81" viewBox="0 0 81 81" fill="none" xmlns="http://www.w3.org/2000/svg">
<rect opacity="0.1" width="70" height="70" fill="url(#paint0_linear_2464_3874)"/>
<g clip-path="url(#clip0_2464_3874)">
<path fill-rule="evenodd" clip-rule="evenodd" d="M16.0078 41.9021C16.0074 42.5656 16.1802 43.2176 16.5092 43.7937C16.8382 44.3697 17.312 44.8499 17.8837 45.1865C18.4553 45.5232 19.105 45.7047 19.7684 45.7131C20.4317 45.7214 21.0858 45.5564 21.6657 45.2343C22.2457 44.9121 22.7314 44.4441 23.0749 43.8765C23.4183 43.3089 23.6076 42.6615 23.6239 41.9982C23.6401 41.335 23.4829 40.6791 23.1677 40.0953C22.8525 39.5115 22.3903 39.0202 21.8268 38.67L21.8205 38.6661L21.8232 38.6591C23.8317 33.1985 27.4687 28.4865 32.2424 25.1603C37.0161 21.834 42.6962 20.0541 48.5144 20.0611C62.0722 20.0611 73.6608 29.4557 76.3742 42.7477L76.3782 42.7675L74.3044 41.57C74.0734 41.4365 73.7988 41.4003 73.5411 41.4692C73.2833 41.5382 73.0635 41.7067 72.93 41.9377C72.7965 42.1687 72.7603 42.4433 72.8292 42.701C72.8982 42.9588 73.0667 43.1786 73.2977 43.3121L77.2179 45.5759C77.3321 45.6422 77.4584 45.6854 77.5894 45.7027C77.7203 45.7201 77.8535 45.7115 77.9811 45.6773C78.1087 45.6431 78.2283 45.584 78.333 45.5034C78.4377 45.4228 78.5255 45.3223 78.5913 45.2078L80.8552 41.2876C80.9887 41.0563 81.0249 40.7815 80.9558 40.5236C80.8867 40.2657 80.7179 40.0458 80.4867 39.9123C80.2554 39.7788 79.9806 39.7426 79.7227 39.8117C79.4648 39.8808 79.2449 40.0496 79.1114 40.2808L78.2299 41.8096L78.2247 41.7867C76.7721 35.3686 73.2802 29.5935 68.2717 25.3254C63.2631 21.0573 57.0072 18.5258 50.4399 18.1096C43.8726 17.6934 37.3471 19.415 31.8399 23.0166C26.3326 26.6183 22.1396 31.9065 19.8884 38.0899L19.8862 38.0958H19.8798C19.8587 38.0958 19.8375 38.0941 19.8163 38.0941C18.8067 38.0953 17.8388 38.4969 17.1248 39.2108C16.4109 39.9247 16.0092 40.8925 16.0078 41.9021Z" fill="url(#paint1_linear_2464_3874)"/>
<path fill-rule="evenodd" clip-rule="evenodd" d="M40.47 34.7229C39.1121 34.4298 37.7291 34.2692 36.3402 34.2432H36.3317L36.3309 34.2261L36.3394 34.2252C37.4114 34.1101 38.3986 33.5887 39.0978 32.768C39.7971 31.9474 40.1552 30.89 40.0987 29.8133C40.0421 28.7366 39.5751 27.7226 38.7937 26.9797C38.0123 26.2369 36.976 25.8217 35.8978 25.8196C34.8197 25.8175 33.7817 26.2286 32.9974 26.9685C32.2132 27.7083 31.7422 28.7205 31.6815 29.797C31.6208 30.8734 31.9748 31.9322 32.6709 32.7555C33.3669 33.5789 34.3521 34.1042 35.4236 34.2234L35.4321 34.2243L35.4312 34.2414H35.4226C33.6362 34.2611 31.8592 34.5029 30.1324 34.9613C28.4299 35.4177 26.8984 36.512 26.8984 38.421V44.704C26.8983 44.8362 26.9242 44.9671 26.9746 45.0893C27.0251 45.2114 27.0992 45.3224 27.1926 45.4159C27.2861 45.5094 27.397 45.5836 27.5191 45.6341C27.6412 45.6847 27.7721 45.7107 27.9043 45.7106H69.1272C69.2595 45.7107 69.3904 45.6848 69.5126 45.6342C69.6347 45.5836 69.7457 45.5095 69.8392 45.416C69.9327 45.3225 70.0069 45.2115 70.0575 45.0894C70.108 44.9672 70.134 44.8363 70.134 44.704V38.4211C70.134 36.5121 68.6015 35.4177 66.8991 34.9614C65.2235 34.5161 63.5001 34.2753 61.7666 34.2444H61.7581L61.7574 34.2272L61.7659 34.2263C62.8387 34.1139 63.8276 33.5945 64.5289 32.7749C65.2303 31.9553 65.5907 30.898 65.536 29.8207C65.4813 28.7434 65.0157 27.7281 64.2349 26.9838C63.4541 26.2395 62.4177 25.8228 61.339 25.8196C60.2603 25.8164 59.2215 26.227 58.4363 26.9667C57.6512 27.7063 57.1796 28.7189 57.1185 29.7959C57.0574 30.8729 57.4116 31.9322 58.1081 32.7559C58.8046 33.5796 59.7904 34.1049 60.8626 34.2237L60.8712 34.2246L60.8705 34.2417H60.8618C59.4158 34.2606 57.9751 34.4218 56.5607 34.7231L56.5567 34.724L56.5533 34.7216C55.9587 34.3035 55.2923 33.9984 54.5873 33.8215C52.639 33.303 50.6311 33.0421 48.615 33.0453H48.4238C46.4053 33.0417 44.395 33.3026 42.4444 33.8215C41.7391 33.9985 41.0724 34.3036 40.4773 34.7216L40.474 34.724L40.47 34.7229Z" fill="url(#paint2_linear_2464_3874)"/>
<path fill-rule="evenodd" clip-rule="evenodd" d="M53.0586 28.4564C53.0586 27.5763 52.7975 26.716 52.3085 25.9843C51.8196 25.2525 51.1246 24.6822 50.3115 24.3454C49.4984 24.0086 48.6037 23.9204 47.7405 24.092C46.8773 24.2637 46.0844 24.6874 45.462 25.3097C44.8396 25.9319 44.4157 26.7247 44.2439 27.5879C44.072 28.4511 44.16 29.3458 44.4966 30.159C44.8332 30.9721 45.4034 31.6672 46.135 32.1564C46.8667 32.6455 47.7269 32.9067 48.607 32.907C49.7871 32.9058 50.9186 32.4366 51.7531 31.6022C52.5877 30.7679 53.0572 29.6365 53.0586 28.4564Z" fill="url(#paint3_linear_2464_3874)"/>
<path fill-rule="evenodd" clip-rule="evenodd" d="M18.0586 48.5034V54.1367C18.0588 54.3831 18.1493 54.6209 18.3131 54.805C18.4769 54.989 18.7026 55.1066 18.9473 55.1354L26.3406 56.0095L26.3425 56.015C26.6735 56.9908 27.0687 57.9438 27.5255 58.8675L27.528 58.8727L22.9182 64.721C22.766 64.9146 22.6898 65.1572 22.7041 65.4031C22.7183 65.6489 22.822 65.8811 22.9955 66.0558L30.9619 74.0214C31.1365 74.195 31.3685 74.2988 31.6143 74.3134C31.8601 74.328 32.1028 74.2522 32.2966 74.1005L38.1425 69.49L38.1475 69.4926C39.0721 69.949 40.0255 70.3443 41.0018 70.6759L41.0071 70.6777L41.8813 78.071C41.9104 78.316 42.0283 78.5417 42.2127 78.7055C42.397 78.8693 42.6351 78.9598 42.8817 78.9597H54.146C54.3927 78.9597 54.6307 78.8693 54.8151 78.7055C54.9995 78.5417 55.1175 78.316 55.1465 78.071L56.0206 70.6768L56.0261 70.675C57.0019 70.3436 57.9548 69.948 58.8785 69.4908L58.8835 69.4883L64.7311 74.1005C64.925 74.2522 65.1677 74.328 65.4135 74.3134C65.6593 74.2988 65.8913 74.195 66.0659 74.0214L74.0322 66.0558C74.2058 65.8811 74.3094 65.6489 74.3237 65.4031C74.3379 65.1572 74.2618 64.9146 74.1095 64.721L69.5011 58.8745L69.5037 58.8693C69.9607 57.9452 70.3557 56.9917 70.686 56.0151L70.6879 56.0096L78.0804 55.1356C78.3251 55.1068 78.5507 54.9892 78.7145 54.8051C78.8783 54.621 78.9689 54.3832 78.9691 54.1368V48.5034C78.969 48.3712 78.943 48.2404 78.8924 48.1183C78.8418 47.9962 78.7676 47.8853 78.6741 47.7919C78.5806 47.6985 78.4696 47.6244 78.3475 47.5739C78.2254 47.5234 78.0945 47.4975 77.9623 47.4976H59.6398C59.5077 47.4975 59.3768 47.5234 59.2547 47.5739C59.1325 47.6244 59.0216 47.6985 58.9281 47.7919C58.8346 47.8853 58.7605 47.9963 58.7099 48.1183C58.6593 48.2404 58.6332 48.3713 58.6332 48.5034C58.6237 51.181 57.5534 53.7457 55.6567 55.6357C53.76 57.5256 51.1916 58.5869 48.514 58.5869C45.8364 58.5869 43.2679 57.5256 41.3712 55.6357C39.4745 53.7457 38.4042 51.181 38.3947 48.5034C38.3947 48.2366 38.2887 47.9808 38.1001 47.7922C37.9115 47.6035 37.6556 47.4976 37.3889 47.4976H19.0653C18.9332 47.4975 18.8023 47.5234 18.6802 47.5739C18.558 47.6244 18.447 47.6985 18.3536 47.7919C18.2601 47.8853 18.1859 47.9962 18.1353 48.1183C18.0847 48.2404 18.0586 48.3712 18.0586 48.5034Z" fill="url(#paint4_linear_2464_3874)"/>
<path fill-rule="evenodd" clip-rule="evenodd" d="M19.8171 40.1153C20.1704 40.1152 20.5159 40.2198 20.8098 40.4161C21.1036 40.6123 21.3327 40.8912 21.468 41.2176C21.6033 41.544 21.6388 41.9032 21.57 42.2498C21.5012 42.5964 21.3311 42.9147 21.0813 43.1647C20.8315 43.4146 20.5133 43.5848 20.1667 43.6539C19.8202 43.7229 19.461 43.6876 19.1345 43.5525C18.808 43.4173 18.5289 43.1884 18.3326 42.8947C18.1362 42.6009 18.0313 42.2555 18.0313 41.9022C18.0319 41.4286 18.2202 40.9746 18.555 40.6397C18.8897 40.3047 19.3437 40.1161 19.8172 40.1153H19.8171ZM16 41.9022C15.9996 42.5671 16.1729 43.2207 16.5027 43.7981C16.8325 44.3755 17.3074 44.8568 17.8804 45.1942C18.4534 45.5316 19.1046 45.7135 19.7695 45.7219C20.4344 45.7303 21.09 45.5649 21.6713 45.242C22.2526 44.9191 22.7395 44.45 23.0838 43.8811C23.428 43.3121 23.6177 42.6632 23.6341 41.9984C23.6504 41.3336 23.4928 40.6761 23.1769 40.091C22.861 39.5059 22.3977 39.0134 21.833 38.6623C23.8408 33.2036 27.4766 28.4931 32.2487 25.1679C37.0208 21.8427 42.6989 20.0633 48.5152 20.0703C62.1449 20.0703 73.6686 29.5359 76.3661 42.7493L74.3094 41.5621C74.077 41.438 73.8055 41.4091 73.5522 41.4815C73.2988 41.5538 73.0836 41.7218 72.9518 41.9499C72.8199 42.178 72.7819 42.4484 72.8458 42.7041C72.9096 42.9597 73.0703 43.1805 73.2938 43.3199L77.214 45.5838C77.3682 45.6734 77.5435 45.7204 77.7218 45.7198C77.8106 45.7196 77.899 45.708 77.9849 45.6854C78.1137 45.6511 78.2344 45.5916 78.3401 45.5103C78.4458 45.4291 78.5343 45.3277 78.6006 45.212L80.8645 41.2918C80.9992 41.0585 81.0357 40.7812 80.9659 40.5209C80.8962 40.2607 80.7259 40.0389 80.4926 39.9042C80.2592 39.7695 79.982 39.733 79.7217 39.8028C79.4615 39.8726 79.2397 40.0428 79.105 40.2762L78.2345 41.7842C76.7813 35.3643 73.2883 29.5875 68.2782 25.3182C63.2682 21.0489 57.0104 18.5166 50.4412 18.1003C43.872 17.684 37.3446 19.4061 31.8357 23.0088C26.3268 26.6115 22.1326 31.9012 19.8806 38.0863C19.8598 38.0863 19.8388 38.0846 19.8171 38.0846C18.8051 38.086 17.8349 38.4887 17.1194 39.2043C16.4038 39.92 16.0013 40.8902 16 41.9022ZM35.8011 36.2587C36.9218 36.252 38.041 36.3421 39.1462 36.5281C39.0574 36.8333 39.0127 37.1497 39.0137 37.4676V43.6883H32.5772V39.4515C32.5772 39.1821 32.4702 38.9238 32.2797 38.7333C32.0892 38.5429 31.8309 38.4358 31.5615 38.4358C31.2922 38.4358 31.0338 38.5429 30.8434 38.7333C30.6529 38.9238 30.5459 39.1821 30.5459 39.4515V43.6885H28.9199V38.4211C28.9199 37.5603 29.8633 37.1262 30.6551 36.9146C32.3337 36.4691 34.064 36.2486 35.8006 36.2587H35.8011ZM33.6973 30.0393C33.6974 29.6067 33.8257 29.1838 34.0662 28.8242C34.3066 28.4646 34.6482 28.1843 35.0479 28.0188C35.4477 27.8534 35.8874 27.8102 36.3117 27.8946C36.736 27.9791 37.1257 28.1875 37.4315 28.4935C37.7373 28.7994 37.9456 29.1892 38.0299 29.6135C38.1142 30.0378 38.0708 30.4776 37.9052 30.8772C37.7395 31.2769 37.4591 31.6184 37.0994 31.8587C36.7397 32.0989 36.3168 32.2272 35.8842 32.2271C35.3044 32.2259 34.7487 31.995 34.3388 31.5849C33.9289 31.1748 33.6982 30.6191 33.6973 30.0393ZM42.9671 35.7744C46.6064 34.8334 50.4251 34.8334 54.0644 35.7744C54.9397 36.0093 55.9864 36.4936 55.9864 37.4678V43.6885H54.0843V38.5761C54.0843 38.3068 53.9773 38.0484 53.7868 37.858C53.5964 37.6675 53.338 37.5605 53.0687 37.5605C52.7993 37.5605 52.541 37.6675 52.3505 37.858C52.16 38.0484 52.053 38.3068 52.053 38.5761V43.6885H44.9778V38.5761C44.9778 38.3068 44.8708 38.0484 44.6803 37.858C44.4899 37.6675 44.2315 37.5605 43.9622 37.5605C43.6928 37.5605 43.4345 37.6675 43.244 37.858C43.0536 38.0484 42.9466 38.3068 42.9466 38.5761V43.6885H41.0449V37.4678C41.0449 36.4936 42.0909 36.0093 42.9671 35.7744ZM59.1336 30.0393C59.1335 29.6064 59.2618 29.1833 59.5023 28.8234C59.7427 28.4634 60.0845 28.1829 60.4844 28.0173C60.8844 27.8517 61.3244 27.8083 61.7489 27.8929C62.1735 27.9774 62.5634 28.1859 62.8694 28.492C63.1754 28.7982 63.3837 29.1882 63.468 29.6127C63.5523 30.0373 63.5088 30.4773 63.343 30.8772C63.1772 31.277 62.8965 31.6187 62.5365 31.859C62.1764 32.0992 61.7532 32.2274 61.3204 32.2271C60.7406 32.2258 60.185 31.9949 59.7751 31.5849C59.3652 31.1748 59.1346 30.6191 59.1336 30.0393ZM68.1113 38.4211V43.6885H66.4849V39.4515C66.4849 39.1821 66.3779 38.9238 66.1875 38.7333C65.997 38.5429 65.7387 38.4358 65.4693 38.4358C65.2 38.4358 64.9416 38.5429 64.7512 38.7333C64.5607 38.9238 64.4537 39.1821 64.4537 39.4515V43.6885H58.017V37.4678C58.0177 37.15 57.9735 36.8338 57.8855 36.5284C58.9935 36.3449 60.1149 36.2548 61.238 36.259C62.9722 36.2482 64.7002 36.4688 66.3761 36.9148C67.1679 37.1261 68.1113 37.5605 68.1113 38.4214V38.4211ZM26.8897 38.4211C26.8897 36.7684 28.0703 35.5041 30.1304 34.9526C31.8578 34.4936 33.6356 34.2517 35.4228 34.2324C34.3516 34.113 33.3669 33.5876 32.6712 32.7643C31.9755 31.941 31.6217 30.8825 31.6826 29.8063C31.7434 28.7302 32.2143 27.7183 32.9984 26.9787C33.7825 26.2392 34.8202 25.8282 35.8981 25.8302C36.9759 25.8323 38.012 26.2473 38.7932 26.9899C39.5745 27.7325 40.0415 28.7463 40.0982 29.8226C40.1549 30.899 39.797 31.9562 39.0981 32.7767C38.3992 33.5973 37.4125 34.1189 36.3408 34.2342C37.7302 34.2602 39.1139 34.421 40.4722 34.7141C41.068 34.2952 41.7358 33.9896 42.4423 33.8127C44.3937 33.2937 46.4048 33.0327 48.4241 33.0364H48.6143C50.6311 33.0332 52.6397 33.2941 54.5888 33.8127C55.2951 33.9895 55.9626 34.295 56.558 34.7141C57.973 34.4126 59.4143 34.2513 60.8609 34.2324C59.7892 34.1133 58.8039 33.5878 58.108 32.7642C57.412 31.9406 57.0582 30.8815 57.1196 29.8049C57.1809 28.7283 57.6526 27.7163 58.4376 26.977C59.2226 26.2377 60.2611 25.8275 61.3394 25.8308C62.4177 25.8342 63.4537 26.2508 64.2342 26.9949C65.0146 27.739 65.48 28.754 65.5347 29.8309C65.5894 30.9078 65.2291 31.9647 64.5281 32.784C63.827 33.6033 62.8385 34.1227 61.7661 34.2352C63.5004 34.2656 65.2245 34.5065 66.9007 34.9526C68.9614 35.5041 70.1423 36.7681 70.1423 38.4211V44.7042C70.1423 44.9735 70.0353 45.2318 69.8449 45.4223C69.6544 45.6128 69.3961 45.7198 69.1267 45.7198H27.9041C27.7707 45.7199 27.6386 45.6938 27.5153 45.6428C27.392 45.5918 27.28 45.517 27.1857 45.4226C27.0913 45.3283 27.0165 45.2163 26.9655 45.093C26.9145 44.9697 26.8884 44.8376 26.8885 44.7042V38.4212L26.8897 38.4211ZM46.1818 28.4566C46.1818 27.9763 46.3243 27.5068 46.5911 27.1075C46.858 26.7082 47.2372 26.397 47.681 26.2132C48.1247 26.0295 48.6129 25.9814 49.084 26.0752C49.555 26.1689 49.9876 26.4003 50.3272 26.74C50.6667 27.0796 50.8979 27.5124 50.9915 27.9834C51.0851 28.4545 51.0369 28.9427 50.853 29.3864C50.6691 29.83 50.3577 30.2092 49.9583 30.4759C49.5589 30.7426 49.0893 30.8849 48.6091 30.8847C47.9654 30.8838 47.3485 30.6276 46.8934 30.1724C46.4384 29.7173 46.1825 29.1002 46.1818 28.4566ZM53.0698 28.4566C53.07 29.3385 52.8086 30.2007 52.3188 30.9341C51.829 31.6675 51.1327 32.2392 50.318 32.5769C49.5033 32.9146 48.6068 33.0032 47.7417 32.8314C46.8767 32.6596 46.082 32.2351 45.4582 31.6117C44.8344 30.9883 44.4094 30.1939 44.2371 29.3289C44.0647 28.464 44.1527 27.5674 44.4899 26.7525C44.8271 25.9375 45.3984 25.2409 46.1315 24.7506C46.8646 24.2604 47.7266 23.9985 48.6085 23.9981C49.7909 23.9993 50.9246 24.4694 51.7608 25.3053C52.597 26.1412 53.0676 27.2747 53.0693 28.4571L53.0698 28.4566ZM20.0828 49.5194H36.4165C36.6714 52.5528 38.0566 55.3799 40.2974 57.4403C42.5383 59.5008 45.4714 60.6443 48.5156 60.6443C51.5598 60.6443 54.4929 59.5008 56.7338 57.4403C58.9747 55.3799 60.3598 52.5528 60.6148 49.5194H76.9483V53.2335L69.812 54.0771C69.6162 54.1001 69.4314 54.1795 69.28 54.3058C69.1286 54.432 69.0172 54.5996 68.9594 54.788C68.5634 56.0761 68.0462 57.3237 67.4147 58.5141C67.3222 58.6881 67.2823 58.8853 67.2998 59.0816C67.3174 59.2779 67.3916 59.4649 67.5135 59.6198L71.9661 65.2641L65.2769 71.9535L59.6297 67.501C59.4751 67.3791 59.2883 67.3049 59.0922 67.2873C58.8961 67.2698 58.6991 67.3097 58.5252 67.4021C57.3352 68.0342 56.0875 68.5515 54.7993 68.9467C54.6114 69.0049 54.4443 69.1164 54.3185 69.2675C54.1926 69.4187 54.1132 69.6031 54.09 69.7985L53.2453 76.9376H43.786L42.9415 69.7985C42.9183 69.6033 42.8389 69.4191 42.713 69.2683C42.587 69.1174 42.42 69.0063 42.2322 68.9485C40.9442 68.5516 39.6964 68.0343 38.5054 67.4034C38.3314 67.311 38.1344 67.2713 37.9383 67.289C37.7422 67.3067 37.5554 67.3811 37.4009 67.5032L31.7549 71.9535L25.0651 65.2642L29.5177 59.6181C29.6399 59.4634 29.7145 59.2766 29.7323 59.0802C29.7502 58.8839 29.7106 58.6867 29.6184 58.5125C28.986 57.3229 28.4681 56.0758 28.0718 54.7882C28.014 54.5999 27.9028 54.4325 27.7516 54.3063C27.6004 54.1801 27.4158 54.1005 27.2202 54.0772L20.0828 53.2335V49.5194ZM18.0516 48.5037V54.1368C18.0516 54.3854 18.1429 54.6253 18.3081 54.811C18.4732 54.9968 18.7009 55.1155 18.9477 55.1445L26.3353 56.018C26.6667 56.9944 27.0623 57.9479 27.5195 58.8721L22.9127 64.7155C22.7586 64.9107 22.6814 65.1555 22.6958 65.4038C22.7102 65.652 22.8152 65.8864 22.9908 66.0624L30.9571 74.0279C31.1329 74.2038 31.3671 74.309 31.6154 74.3237C31.8636 74.3384 32.1086 74.2615 32.304 74.1076L38.1452 69.5009C39.0701 69.9574 40.0239 70.3529 41.0005 70.6846L41.8739 78.0723C41.9034 78.3193 42.0224 78.547 42.2084 78.7123C42.3945 78.8775 42.6346 78.9688 42.8835 78.9688H54.1478C54.3965 78.9688 54.6366 78.8775 54.8227 78.7124C55.0087 78.5473 55.1278 78.3196 55.1573 78.0726L56.0307 70.684C57.007 70.3524 57.9602 69.9567 58.8843 69.4994L64.7271 74.1078C64.9225 74.2617 65.1675 74.3386 65.4158 74.3239C65.6641 74.3092 65.8983 74.2039 66.0741 74.028L74.0404 66.0625C74.2161 65.8865 74.321 65.6521 74.3354 65.4039C74.3498 65.1557 74.2726 64.9108 74.1185 64.7157L69.5135 58.8734C69.9707 57.9489 70.3658 56.9951 70.6962 56.0181L78.083 55.1447C78.33 55.1156 78.5577 54.997 78.723 54.8113C78.8884 54.6255 78.9798 54.3856 78.98 54.1369V48.5035C78.9799 48.2342 78.8728 47.9761 78.6824 47.7857C78.4919 47.5954 78.2337 47.4885 77.9644 47.4885H59.6415C59.3723 47.4885 59.1141 47.5954 58.9236 47.7857C58.7332 47.9761 58.6261 48.2342 58.6259 48.5035C58.6259 51.1848 57.5607 53.7564 55.6647 55.6524C53.7687 57.5484 51.1972 58.6135 48.5159 58.6135C45.8345 58.6135 43.263 57.5484 41.367 55.6524C39.471 53.7564 38.4058 51.1848 38.4058 48.5035C38.4057 48.2342 38.2986 47.9761 38.1081 47.7857C37.9177 47.5954 37.6595 47.4885 37.3902 47.4885H19.0671C18.7978 47.4884 18.5395 47.5953 18.349 47.7856C18.1585 47.976 18.0514 48.2342 18.0512 48.5035L18.0516 48.5037Z" fill="#0CAF60"/>
</g>
<defs>
<linearGradient id="paint0_linear_2464_3874" x1="-1.4759" y1="5.4902" x2="75.8271" y2="11.4447" gradientUnits="userSpaceOnUse">
<stop stop-color="#9FE871"/>
<stop offset="1" stop-color="#6BD723"/>
</linearGradient>
<linearGradient id="paint1_linear_2464_3874" x1="14.6377" y1="20.2184" x2="84.537" y2="32.8655" gradientUnits="userSpaceOnUse">
<stop stop-color="#9FE871"/>
<stop offset="1" stop-color="#6BD723"/>
</linearGradient>
<linearGradient id="paint2_linear_2464_3874" x1="25.9868" y1="27.3797" x2="72.7067" y2="35.202" gradientUnits="userSpaceOnUse">
<stop stop-color="#9FE871"/>
<stop offset="1" stop-color="#6BD723"/>
</linearGradient>
<linearGradient id="paint3_linear_2464_3874" x1="43.9705" y1="24.7047" x2="53.7995" y2="25.4618" gradientUnits="userSpaceOnUse">
<stop stop-color="#9FE871"/>
<stop offset="1" stop-color="#6BD723"/>
</linearGradient>
<linearGradient id="paint4_linear_2464_3874" x1="16.7743" y1="49.9652" x2="82.9666" y2="59.8362" gradientUnits="userSpaceOnUse">
<stop stop-color="#9FE871"/>
<stop offset="1" stop-color="#6BD723"/>
</linearGradient>
<clipPath id="clip0_2464_3874">
<rect width="65" height="65" fill="white" transform="translate(16 16)"/>
</clipPath>
</defs>
</svg>
