<svg width="81" height="81" viewBox="0 0 81 81" fill="none" xmlns="http://www.w3.org/2000/svg">
<rect opacity="0.1" width="70" height="70" fill="url(#paint0_linear_2464_3891)"/>
<g clip-path="url(#clip0_2464_3891)">
<path d="M39.7988 39.802H57.2019V57.2078H39.7988V39.802Z" fill="url(#paint1_linear_2464_3891)"/>
<path fill-rule="evenodd" clip-rule="evenodd" d="M26.0367 59.4125C26.2811 59.52 26.5581 59.526 26.8069 59.4293C27.0557 59.3325 27.2559 59.1409 27.3634 58.8965C27.4709 58.6522 27.4769 58.3751 27.3802 58.1264C27.2834 57.8776 27.0918 57.6774 26.8474 57.5699L22.1502 55.5019C21.9052 55.3972 21.6293 55.3908 21.3797 55.4839C21.256 55.5328 21.1431 55.6056 21.0474 55.6982C20.9518 55.7908 20.8754 55.9012 20.8225 56.0233L18.7571 60.7216C18.6513 60.9654 18.6461 61.2411 18.7428 61.4886C18.8395 61.7362 19.0301 61.9354 19.2732 62.0429C19.3995 62.1028 19.5377 62.1336 19.6775 62.1328C19.8731 62.1327 20.0644 62.0757 20.2282 61.9688C20.3919 61.8618 20.5211 61.7096 20.5998 61.5306L21.6344 59.1796L21.6425 59.1998C23.2793 63.2944 25.8289 66.9615 29.0971 69.9218C32.3653 72.8821 36.266 75.0576 40.502 76.2826C40.5924 76.3105 40.6861 76.3257 40.7807 76.3277C41.0234 76.3271 41.2578 76.2389 41.4409 76.0794C41.6239 75.9199 41.7432 75.6998 41.777 75.4594C41.8107 75.219 41.7567 74.9744 41.6247 74.7707C41.4927 74.5669 41.2917 74.4176 41.0585 74.3502C37.0834 73.2125 33.4253 71.1709 30.3702 68.385C27.315 65.599 24.9457 62.1442 23.4473 58.2906L23.4393 58.27L26.0367 59.4125Z" fill="url(#paint2_linear_2464_3891)"/>
<path fill-rule="evenodd" clip-rule="evenodd" d="M74.9083 41.7078C75.037 41.7608 75.1747 41.7883 75.3138 41.7888C75.5093 41.7887 75.7005 41.7317 75.8641 41.6248C76.0277 41.5178 76.1567 41.3656 76.2352 41.1866L78.3023 36.4882C78.4072 36.2441 78.4113 35.9685 78.3139 35.7213C78.2164 35.4742 78.0252 35.2756 77.7819 35.1689C77.5387 35.0621 77.2631 35.0559 77.0152 35.1515C76.7674 35.2471 76.5674 35.4368 76.4588 35.6792L75.4349 38.0124L75.4269 37.9918C73.8258 33.8853 71.3065 30.1995 68.0618 27.2165C64.817 24.2336 60.9329 22.0324 56.7065 20.7815C56.4516 20.7103 56.179 20.7423 55.9475 20.8704C55.7159 20.9986 55.5441 21.2127 55.4691 21.4665C55.3941 21.7202 55.4219 21.9933 55.5465 22.2268C55.6712 22.4602 55.8826 22.6353 56.1352 22.7141C60.1026 23.888 63.7455 25.9617 66.7803 28.7739C69.815 31.5861 72.1597 35.0609 73.6317 38.9276L73.6394 38.9479L71.0218 37.7963C70.7774 37.6887 70.5003 37.6825 70.2514 37.7792C70.0025 37.8759 69.8022 38.0675 69.6946 38.3118C69.587 38.5562 69.5808 38.8333 69.6775 39.0822C69.7742 39.3311 69.9658 39.5314 70.2101 39.639L74.9083 41.7078Z" fill="url(#paint3_linear_2464_3891)"/>
<path fill-rule="evenodd" clip-rule="evenodd" d="M37.9827 21.5795C33.846 23.1977 30.1373 25.7462 27.1436 29.0277C24.1498 32.3092 21.9514 36.2356 20.7186 40.503C20.6791 40.6308 20.6656 40.7652 20.6787 40.8983C20.6918 41.0314 20.7313 41.1606 20.7948 41.2782C20.8584 41.3959 20.9448 41.4997 21.049 41.5836C21.1532 41.6675 21.273 41.7298 21.4015 41.7669C21.5301 41.8039 21.6647 41.815 21.7975 41.7994C21.9304 41.7838 22.0588 41.7419 22.1752 41.6762C22.2917 41.6104 22.3939 41.5221 22.4758 41.4163C22.5578 41.3106 22.6178 41.1896 22.6525 41.0604C23.8026 37.0495 25.872 33.362 28.6964 30.2907C31.5208 27.2194 35.0223 24.8489 38.923 23.3675L38.9435 23.3596L37.7928 25.9829C37.6861 26.2264 37.6804 26.5023 37.777 26.75C37.8735 26.9977 38.0645 27.197 38.3078 27.3041C38.4345 27.3641 38.573 27.3948 38.7132 27.3941C38.9086 27.3939 39.0998 27.3369 39.2634 27.2299C39.427 27.123 39.5559 26.9708 39.6345 26.7918L41.7006 22.0936C41.8084 21.8484 41.8146 21.5704 41.7178 21.3206C41.6703 21.1981 41.5987 21.0864 41.5071 20.9922C41.4154 20.898 41.3058 20.8232 41.1846 20.7724L36.4864 18.704C36.3652 18.6493 36.2343 18.6192 36.1014 18.6154C35.9685 18.6116 35.8361 18.6342 35.7119 18.6818C35.5878 18.7295 35.4743 18.8013 35.3781 18.893C35.2818 18.9848 35.2047 19.0947 35.1512 19.2165C35.0977 19.3382 35.0688 19.4694 35.0663 19.6023C35.0638 19.7353 35.0876 19.8674 35.1364 19.9911C35.1853 20.1148 35.2582 20.2276 35.3508 20.323C35.4435 20.4183 35.5542 20.4944 35.6764 20.5467L38.0032 21.5714L37.9827 21.5795Z" fill="url(#paint4_linear_2464_3891)"/>
<path fill-rule="evenodd" clip-rule="evenodd" d="M59.1938 75.3668C63.258 73.7486 66.902 71.2292 69.8513 67.9985C72.8006 64.7677 74.9783 60.9098 76.2204 56.7153C76.2597 56.5882 76.2733 56.4546 76.2606 56.3221C76.2479 56.1897 76.2091 56.0611 76.1464 55.9437C76.0837 55.8264 75.9984 55.7226 75.8953 55.6384C75.7923 55.5543 75.6736 55.4914 75.5461 55.4534C75.4186 55.4153 75.2848 55.403 75.1525 55.417C75.0202 55.431 74.8919 55.471 74.7752 55.5349C74.6585 55.5987 74.5556 55.6851 74.4724 55.7889C74.3892 55.8928 74.3275 56.0121 74.2907 56.14C73.128 60.0706 71.0814 63.6832 68.3075 66.7011C65.5337 69.719 62.1062 72.0623 58.2873 73.5516L58.2667 73.5596L59.4093 70.9634C59.5142 70.7194 59.5184 70.4437 59.4209 70.1966C59.3234 69.9495 59.1322 69.7509 58.889 69.6441C58.6457 69.5374 58.3701 69.5311 58.1222 69.6267C57.8744 69.7223 57.6744 69.912 57.5658 70.1545L55.5004 74.8529C55.4467 74.9741 55.4175 75.1047 55.4143 75.2372C55.4112 75.3697 55.4343 75.5016 55.4822 75.6252C55.5302 75.7487 55.602 75.8617 55.6937 75.9574C55.7853 76.0532 55.895 76.1299 56.0163 76.1832L60.7128 78.2466C60.8337 78.3012 60.9642 78.3313 61.0968 78.3352C61.2294 78.3391 61.3614 78.3167 61.4853 78.2693C61.6092 78.2219 61.7225 78.1505 61.8186 78.0591C61.9147 77.9677 61.9918 77.8582 62.0454 77.7369C62.099 77.6156 62.128 77.4848 62.1308 77.3522C62.1336 77.2196 62.1102 77.0877 62.0618 76.9643C62.0134 76.8408 61.941 76.7281 61.8488 76.6327C61.7566 76.5373 61.6465 76.4612 61.5247 76.4086L59.1735 75.3748L59.1938 75.3668Z" fill="url(#paint5_linear_2464_3891)"/>
<path d="M20.842 53.4267C23.5014 53.4134 25.6466 51.2464 25.6333 48.5864C25.62 45.9265 23.4533 43.781 20.7938 43.7943C18.1344 43.8076 15.9893 45.9747 16.0026 48.6346C16.0159 51.2945 18.1826 53.44 20.842 53.4267Z" fill="url(#paint6_linear_2464_3891)"/>
<path fill-rule="evenodd" clip-rule="evenodd" d="M43.7891 76.1827C43.7892 77.135 44.0718 78.0659 44.601 78.8577C45.1302 79.6494 45.8824 80.2665 46.7623 80.6308C47.6422 80.9952 48.6103 81.0904 49.5444 80.9045C50.4784 80.7186 51.3363 80.2599 52.0097 79.5864C52.683 78.913 53.1415 78.0549 53.3273 77.1209C53.513 76.1868 53.4176 75.2187 53.0531 74.3388C52.6886 73.459 52.0714 72.707 51.2796 72.1779C50.4877 71.6488 49.5567 71.3665 48.6044 71.3665C47.3275 71.3678 46.1034 71.8757 45.2006 72.7786C44.2978 73.6816 43.7902 74.9058 43.7891 76.1827Z" fill="url(#paint7_linear_2464_3891)"/>
<path fill-rule="evenodd" clip-rule="evenodd" d="M76.1747 43.793C75.2221 43.7928 74.2908 44.0751 73.4986 44.6042C72.7065 45.1332 72.089 45.8854 71.7243 46.7654C71.3596 47.6454 71.2641 48.6138 71.4498 49.5482C71.6356 50.4825 72.0942 51.3408 72.7677 52.0144C73.4412 52.6881 74.2994 53.1469 75.2337 53.3328C76.168 53.5187 77.1364 53.4234 78.0165 53.0589C78.8966 52.6944 79.6489 52.0771 80.1781 51.285C80.7074 50.493 80.9899 49.5618 80.9899 48.6092C80.9896 47.3321 80.4823 46.1074 79.5793 45.2042C78.6764 44.3011 77.4518 43.7935 76.1747 43.793Z" fill="url(#paint8_linear_2464_3891)"/>
<path d="M48.6386 25.6402C51.2981 25.6216 53.4389 23.4502 53.4202 20.7903C53.4016 18.1304 51.2306 15.9892 48.5712 16.0078C45.9118 16.0264 43.771 18.1978 43.7896 20.8577C43.8082 23.5176 45.9792 25.6589 48.6386 25.6402Z" fill="url(#paint9_linear_2464_3891)"/>
<path fill-rule="evenodd" clip-rule="evenodd" d="M26.0329 59.4209L23.4551 58.2872C24.953 62.1395 27.3216 65.5932 30.3757 68.3782C33.4299 71.1633 37.0868 73.2042 41.0605 74.3414C41.1912 74.3759 41.3137 74.4362 41.4207 74.5187C41.5278 74.6012 41.6173 74.7043 41.684 74.8218C41.7506 74.9394 41.7932 75.0691 41.8091 75.2033C41.825 75.3375 41.8139 75.4735 41.7765 75.6034C41.7391 75.7333 41.6761 75.8544 41.5913 75.9596C41.5064 76.0648 41.4015 76.152 41.2825 76.2161C41.1635 76.2802 41.0329 76.3198 40.8983 76.3328C40.7638 76.3457 40.6281 76.3316 40.499 76.2914C36.2617 75.066 32.3599 72.8898 29.0907 69.9286C25.8215 66.9674 23.2711 63.2993 21.6338 59.2035L20.6084 61.5342C20.5289 61.7149 20.3987 61.8685 20.2334 61.9764C20.0682 62.0843 19.8752 62.1418 19.6778 62.142C19.5367 62.1428 19.3972 62.1118 19.2697 62.0513C19.148 61.998 19.038 61.9212 18.9459 61.8253C18.8539 61.7295 18.7817 61.6164 18.7333 61.4926C18.685 61.3688 18.6615 61.2367 18.6642 61.1039C18.6669 60.971 18.6958 60.84 18.7492 60.7183L20.8144 56.02C20.8675 55.8966 20.9445 55.7849 21.0411 55.6915C21.1376 55.5981 21.2517 55.5248 21.3768 55.4758C21.6287 55.3819 21.9069 55.3884 22.1541 55.4939L26.8513 57.5619C27.0979 57.6704 27.2913 57.8724 27.3889 58.1234C27.4865 58.3745 27.4804 58.654 27.372 58.9006C27.2635 59.1472 27.0615 59.3405 26.8104 59.4382C26.5594 59.5358 26.2798 59.5297 26.0332 59.4212L26.0329 59.4209ZM74.9062 41.716L70.208 39.6479C70.0859 39.5941 69.9756 39.5168 69.8834 39.4204C69.7912 39.324 69.7188 39.2104 69.6705 39.0861C69.6222 38.9617 69.5989 38.8291 69.6018 38.6957C69.6048 38.5623 69.634 38.4308 69.6878 38.3087C69.7416 38.1866 69.8188 38.0763 69.9152 37.9841C70.0117 37.8919 70.1253 37.8196 70.2496 37.7713C70.374 37.723 70.5066 37.6996 70.64 37.7026C70.7734 37.7056 70.9049 37.7348 71.0269 37.7885L73.6247 38.9311C72.1539 35.0651 69.8102 31.5909 66.7761 28.7795C63.7421 25.9681 60.0998 23.8954 56.1331 22.723C55.8805 22.6415 55.6699 22.4645 55.546 22.2298C55.4222 21.9951 55.3951 21.7212 55.4704 21.4668C55.5456 21.2123 55.7174 20.9974 55.949 20.8678C56.1806 20.7383 56.4537 20.7044 56.7099 20.7734C60.9371 22.0254 64.822 24.2275 68.0677 27.2111C71.3133 30.1948 73.8338 33.8811 75.4363 37.9882L76.4511 35.6753C76.5047 35.5531 76.5819 35.4427 76.6781 35.3504C76.7744 35.258 76.8879 35.1856 77.0122 35.1371C77.1365 35.0886 77.2691 35.0651 77.4024 35.0679C77.5358 35.0706 77.6673 35.0997 77.7895 35.1533C77.9116 35.2069 78.022 35.284 78.1144 35.3803C78.2067 35.4765 78.2792 35.59 78.3277 35.7143C78.3762 35.8386 78.3997 35.9712 78.3969 36.1046C78.3941 36.2379 78.3651 36.3694 78.3115 36.4916L76.2443 41.1899C76.1651 41.3705 76.035 41.5242 75.8699 41.6321C75.7048 41.74 75.5119 41.7975 75.3147 41.7976C75.1743 41.7971 75.0354 41.7694 74.9056 41.716H74.9062ZM37.9791 21.571L35.6725 20.5554C35.5504 20.5017 35.4401 20.4245 35.3478 20.3282C35.2556 20.2319 35.1832 20.1183 35.1348 19.994C35.0864 19.8697 35.063 19.7371 35.0659 19.6037C35.0688 19.4704 35.0979 19.3389 35.1516 19.2168C35.2053 19.0947 35.2825 18.9843 35.3788 18.8921C35.4751 18.7998 35.5887 18.7274 35.713 18.679C35.8373 18.6307 35.9699 18.6073 36.1033 18.6101C36.2366 18.613 36.3681 18.6421 36.4902 18.6958L41.1886 20.7639C41.3107 20.8156 41.4211 20.8912 41.5135 20.9862C41.6059 21.0812 41.6783 21.1937 41.7265 21.3171C41.8235 21.5693 41.8173 21.8495 41.7093 22.0971L39.6426 26.7955C39.5634 26.9762 39.4333 27.1298 39.2682 27.2378C39.1031 27.3457 38.9102 27.4032 38.7129 27.4033C38.5715 27.404 38.4317 27.373 38.3039 27.3125C38.182 27.2594 38.0717 27.1828 37.9795 27.087C37.8873 26.9911 37.815 26.878 37.7667 26.7541C37.7184 26.6302 37.6951 26.498 37.6981 26.3651C37.7011 26.2321 37.7303 26.1011 37.7841 25.9795L38.9261 23.377C35.0269 24.8579 31.5268 27.2275 28.7034 30.2976C25.8801 33.3677 23.8113 37.0536 22.6614 41.0629C22.6006 41.2746 22.4726 41.4608 22.2967 41.5933C22.1208 41.7258 21.9066 41.7975 21.6864 41.7976C21.5917 41.799 21.4973 41.7867 21.406 41.7613C21.2775 41.7243 21.1575 41.6623 21.0529 41.5789C20.9483 41.4955 20.8612 41.3923 20.7965 41.2752C20.7318 41.1582 20.6908 41.0295 20.6759 40.8965C20.661 40.7636 20.6724 40.629 20.7095 40.5005C21.9427 36.2318 24.1418 32.3041 27.1365 29.0216C30.1312 25.7391 33.8412 23.1898 37.9791 21.571ZM59.198 75.3759L61.5289 76.401C61.742 76.4946 61.9164 76.6588 62.0226 76.8659C62.1289 77.073 62.1607 77.3103 62.1126 77.5381C62.0645 77.7658 61.9394 77.97 61.7585 78.1164C61.5775 78.2628 61.3517 78.3425 61.1189 78.3419C60.9781 78.3417 60.8388 78.3124 60.7098 78.2559L56.0133 76.1924C55.7678 76.0816 55.5747 75.8801 55.4745 75.63C55.3774 75.3778 55.3839 75.0974 55.4927 74.85L57.558 70.1516C57.669 69.9093 57.8707 69.7203 58.1198 69.6254C58.3688 69.5306 58.6452 69.5374 58.8892 69.6444C59.1333 69.7514 59.3255 69.9501 59.4244 70.1976C59.5233 70.445 59.521 70.7215 59.418 70.9672L58.2841 73.5432C62.1017 72.0546 65.5281 69.7121 68.301 66.6953C71.0739 63.6785 73.1198 60.0672 74.2822 56.138C74.3203 56.0101 74.3832 55.891 74.4674 55.7875C74.5515 55.6839 74.6552 55.598 74.7726 55.5345C74.89 55.471 75.0187 55.4313 75.1514 55.4176C75.2841 55.4039 75.4182 55.4165 75.5461 55.4546C75.674 55.4927 75.7931 55.5556 75.8966 55.6398C76.0001 55.7239 76.0861 55.8277 76.1496 55.945C76.213 56.0624 76.2527 56.1911 76.2665 56.3238C76.2802 56.4565 76.2676 56.5907 76.2295 56.7185C74.9867 60.9141 72.8082 64.773 69.8581 68.0048C66.908 71.2365 63.2631 73.7568 59.198 75.3759ZM20.8242 45.8157C21.3768 45.8155 21.917 45.9793 22.3765 46.2862C22.836 46.5931 23.1942 47.0294 23.4057 47.5399C23.6172 48.0504 23.6726 48.6122 23.5648 49.1541C23.457 49.6961 23.191 50.1939 22.8002 50.5846C22.4095 50.9754 21.9117 51.2415 21.3697 51.3492C20.8277 51.457 20.266 51.4016 19.7555 51.1901C19.245 50.9786 18.8087 50.6204 18.5018 50.1609C18.1949 49.7014 18.0311 49.1612 18.0312 48.6086C18.0319 47.8681 18.3263 47.158 18.85 46.6344C19.3736 46.1107 20.0837 45.8163 20.8242 45.8157ZM20.8242 53.4346C21.7786 53.4349 22.7117 53.152 23.5054 52.622C24.299 52.0919 24.9177 51.3383 25.2831 50.4566C25.6485 49.5749 25.7442 48.6047 25.5581 47.6686C25.3721 46.7325 24.9126 45.8726 24.2378 45.1976C23.563 44.5227 22.7032 44.063 21.7672 43.8767C20.8311 43.6904 19.8608 43.7859 18.979 44.1511C18.0973 44.5163 17.3436 45.1348 16.8133 45.9283C16.283 46.7219 16 47.6549 16 48.6093C16.0017 49.8883 16.5104 51.1145 17.4148 52.0191C18.3191 52.9236 19.5452 53.4326 20.8242 53.4346ZM51.3971 76.1826C51.3971 76.735 51.2333 77.275 50.9264 77.7343C50.6195 78.1936 50.1833 78.5516 49.6729 78.763C49.1626 78.9744 48.601 79.0297 48.0592 78.9219C47.5174 78.8141 47.0198 78.5481 46.6292 78.1575C46.2386 77.7669 45.9726 77.2693 45.8648 76.7275C45.757 76.1857 45.8123 75.6241 46.0237 75.1138C46.2351 74.6034 46.5931 74.1672 47.0524 73.8603C47.5117 73.5534 48.0517 73.3896 48.6041 73.3896C49.3444 73.391 50.0541 73.6857 50.5775 74.2092C51.101 74.7326 51.3957 75.4423 51.3971 76.1826ZM43.7799 76.1826C43.7801 77.1367 44.0632 78.0693 44.5935 78.8625C45.1237 79.6557 45.8772 80.2738 46.7587 80.6388C47.6403 81.0037 48.6102 81.0991 49.546 80.9128C50.4817 80.7266 51.3412 80.267 52.0157 79.5923C52.6903 78.9176 53.1497 78.058 53.3357 77.1222C53.5218 76.1864 53.4262 75.2165 53.061 74.335C52.6958 73.4536 52.0775 72.7002 51.2842 72.1702C50.4909 71.6401 49.5582 71.3572 48.6041 71.3572C47.3249 71.3587 46.0985 71.8676 45.1941 72.7722C44.2896 73.6769 43.781 74.9034 43.7799 76.1826ZM76.1758 51.4029C75.6234 51.4029 75.0834 51.2391 74.6241 50.9322C74.1648 50.6253 73.8068 50.1891 73.5954 49.6787C73.384 49.1684 73.3287 48.6068 73.4365 48.065C73.5442 47.5232 73.8103 47.0256 74.2009 46.635C74.5915 46.2444 75.0891 45.9784 75.6309 45.8706C76.1727 45.7628 76.7343 45.8181 77.2446 46.0295C77.755 46.2409 78.1912 46.5989 78.4981 47.0582C78.8049 47.5175 78.9688 48.0575 78.9688 48.6099C78.9682 49.3505 78.6737 50.0605 78.1501 50.5842C77.6264 51.1079 76.9163 51.4023 76.1758 51.4029ZM76.1758 43.7839C75.2214 43.7837 74.2883 44.0665 73.4946 44.5966C72.701 45.1267 72.0823 45.8802 71.7169 46.7619C71.3515 47.6436 71.2558 48.6138 71.4419 49.5499C71.6279 50.4861 72.0874 51.346 72.7622 52.0209C73.437 52.6959 74.2968 53.1555 75.2328 53.3418C76.1689 53.5281 77.1392 53.4326 78.021 53.0674C78.9027 52.7022 79.6564 52.0838 80.1867 51.2902C80.717 50.4967 81 49.5637 81 48.6093C80.9997 47.3298 80.4914 46.1028 79.5868 45.1979C78.6822 44.2931 77.4553 43.7845 76.1758 43.7839ZM68.1876 54.6681C69.2349 50.6261 69.2349 46.3839 68.1876 42.3418C67.9174 41.335 67.3558 40.1377 66.2112 40.1377H59.2234V42.4506H64.9847C65.2541 42.4506 65.5124 42.5576 65.7029 42.7481C65.8934 42.9386 66.0004 43.1969 66.0004 43.4663C66.0004 43.7356 65.8934 43.994 65.7029 44.1844C65.5124 44.3749 65.2541 44.4819 64.9847 44.4819H59.2234V52.527H64.9847C65.2541 52.527 65.5124 52.634 65.7029 52.8245C65.8934 53.015 66.0004 53.2733 66.0004 53.5427C66.0004 53.812 65.8934 54.0704 65.7029 54.2608C65.5124 54.4513 65.2541 54.5583 64.9847 54.5583H59.2234V56.8713H66.211C67.3556 56.8713 67.9171 55.674 68.1874 54.6671L68.1876 54.6681ZM56.8689 66.2145V59.2304H54.5521V64.99C54.5521 65.2594 54.4451 65.5177 54.2546 65.7082C54.0642 65.8987 53.8058 66.0057 53.5365 66.0057C53.2671 66.0057 53.0088 65.8987 52.8183 65.7082C52.6279 65.5177 52.5209 65.2594 52.5209 64.99V59.2304H44.4798V64.99C44.4798 65.2594 44.3728 65.5177 44.1823 65.7082C43.9918 65.8987 43.7335 66.0057 43.4641 66.0057C43.1948 66.0057 42.9365 65.8987 42.746 65.7082C42.5555 65.5177 42.4485 65.2594 42.4485 64.99V59.2304H40.1306V66.2145C40.1306 67.3571 41.3306 67.9197 42.3364 68.1918C46.3797 69.2318 50.6203 69.2318 54.6636 68.1918C55.6694 67.9197 56.8685 67.3573 56.8685 66.2145H56.8689ZM30.79 56.8723H37.7758V54.5593H32.0164C31.747 54.5593 31.4887 54.4523 31.2983 54.2618C31.1078 54.0714 31.0008 53.813 31.0008 53.5437C31.0008 53.2743 31.1078 53.016 31.2983 52.8255C31.4887 52.6351 31.747 52.5281 32.0164 52.5281H37.7759V44.4824H32.0164C31.747 44.4824 31.4887 44.3754 31.2983 44.1849C31.1078 43.9945 31.0008 43.7361 31.0008 43.4668C31.0008 43.1974 31.1078 42.9391 31.2983 42.7486C31.4887 42.5582 31.747 42.4512 32.0164 42.4512H37.7759V40.1377H30.79C29.6435 40.1377 29.082 41.335 28.8127 42.3418C27.7653 46.3838 27.7653 50.6261 28.8127 54.6681C29.082 55.675 29.6435 56.8723 30.79 56.8723ZM40.1305 30.7961V37.7802H42.4479V32.0199C42.4479 31.7506 42.5549 31.4922 42.7454 31.3018C42.9358 31.1113 43.1942 31.0043 43.4635 31.0043C43.7329 31.0043 43.9912 31.1113 44.1817 31.3018C44.3721 31.4922 44.4791 31.7506 44.4791 32.0199V37.7795H52.5198V32.0199C52.5198 31.7506 52.6268 31.4922 52.8173 31.3018C53.0078 31.1113 53.2661 31.0043 53.5355 31.0043C53.8048 31.0043 54.0632 31.1113 54.2536 31.3018C54.4441 31.4922 54.5511 31.7506 54.5511 32.0199V37.7795H56.8676V30.7955C56.8676 29.6435 55.6685 29.0902 54.6627 28.8182C52.653 28.2847 50.5816 28.0193 48.5023 28.029C46.4206 28.0142 44.3463 28.2796 42.3354 28.8182C41.3296 29.0902 40.1296 29.6434 40.1296 30.7955L40.1305 30.7961ZM39.8076 57.1988H57.1925V39.8112H39.8076V57.1988ZM66.211 38.1061H58.8995V30.7955C58.8995 28.927 57.5481 27.4848 55.1889 26.8499C53.0422 26.282 50.8309 25.9954 48.6103 25.9973H48.5033C46.2448 25.9902 43.9949 26.2768 41.8103 26.8499C39.4521 27.4847 38.0997 28.927 38.0997 30.7955V38.1061H30.79C28.9187 38.1061 27.483 39.4575 26.8508 41.8158C25.7104 46.2023 25.7104 50.8076 26.8508 55.1942C27.483 57.5525 28.9187 58.9039 30.79 58.9039H38.0996V66.2145C38.0996 68.083 39.4519 69.5251 41.8102 70.1509C43.9567 70.7233 46.1692 71.01 48.3907 71.0035H48.6028C50.8261 71.0105 53.0406 70.7238 55.1888 70.1509C57.548 69.5251 58.8994 68.083 58.8994 66.2145V58.9039H66.2108C68.082 58.9039 69.5179 57.5525 70.1491 55.1942C71.2883 50.8075 71.2883 46.2025 70.1491 41.8158C69.5179 39.4575 68.082 38.1061 66.2108 38.1061H66.211ZM45.8113 20.8274C45.8114 20.275 45.9753 19.7351 46.2823 19.2758C46.5892 18.8166 47.0255 18.4587 47.5358 18.2474C48.0462 18.0361 48.6078 17.9809 49.1495 18.0888C49.6912 18.1966 50.1888 18.4627 50.5794 18.8533C50.9699 19.2439 51.2359 19.7416 51.3436 20.2833C51.4513 20.8251 51.3959 21.3866 51.1845 21.897C50.9731 22.4073 50.6151 22.8434 50.1559 23.1503C49.6966 23.4572 49.1566 23.621 48.6042 23.621C47.8636 23.6204 47.1534 23.3259 46.6297 22.8021C46.106 22.2783 45.8117 21.568 45.8113 20.8274ZM53.4284 20.8274C53.4282 19.8733 53.1451 18.9406 52.6149 18.1474C52.0847 17.3542 51.3312 16.7361 50.4497 16.3711C49.5681 16.0061 48.5982 15.9107 47.6624 16.097C46.7267 16.2832 45.8672 16.7428 45.1926 17.4175C44.5181 18.0922 44.0587 18.9518 43.8726 19.8876C43.6866 20.8234 43.7822 21.7933 44.1473 22.6748C44.5125 23.5562 45.1308 24.3096 45.9241 24.8396C46.7175 25.3697 47.6501 25.6526 48.6042 25.6526C49.8831 25.6503 51.109 25.1411 52.0132 24.2367C52.9174 23.3322 53.4263 22.1063 53.4283 20.8274H53.4284Z" fill="#0CAF60"/>
</g>
<defs>
<linearGradient id="paint0_linear_2464_3891" x1="-1.4759" y1="5.4902" x2="75.8271" y2="11.4447" gradientUnits="userSpaceOnUse">
<stop stop-color="#9FE871"/>
<stop offset="1" stop-color="#6BD723"/>
</linearGradient>
<linearGradient id="paint1_linear_2464_3891" x1="39.4319" y1="41.1672" x2="58.6507" y2="42.6473" gradientUnits="userSpaceOnUse">
<stop stop-color="#9FE871"/>
<stop offset="1" stop-color="#6BD723"/>
</linearGradient>
<linearGradient id="paint2_linear_2464_3891" x1="18.1865" y1="57.0584" x2="43.6775" y2="59.2289" gradientUnits="userSpaceOnUse">
<stop stop-color="#9FE871"/>
<stop offset="1" stop-color="#6BD723"/>
</linearGradient>
<linearGradient id="paint3_linear_2464_3891" x1="54.9437" y1="22.3949" x2="80.2667" y2="24.5227" gradientUnits="userSpaceOnUse">
<stop stop-color="#9FE871"/>
<stop offset="1" stop-color="#6BD723"/>
</linearGradient>
<linearGradient id="paint4_linear_2464_3891" x1="20.2287" y1="20.4339" x2="43.5673" y2="22.0705" gradientUnits="userSpaceOnUse">
<stop stop-color="#9FE871"/>
<stop offset="1" stop-color="#6BD723"/>
</linearGradient>
<linearGradient id="paint5_linear_2464_3891" x1="54.9744" y1="57.2094" x2="78.0245" y2="58.8243" gradientUnits="userSpaceOnUse">
<stop stop-color="#9FE871"/>
<stop offset="1" stop-color="#6BD723"/>
</linearGradient>
<linearGradient id="paint6_linear_2464_3891" x1="15.7792" y1="44.5749" x2="26.4188" y2="45.3408" gradientUnits="userSpaceOnUse">
<stop stop-color="#9FE871"/>
<stop offset="1" stop-color="#6BD723"/>
</linearGradient>
<linearGradient id="paint7_linear_2464_3891" x1="43.586" y1="72.1218" x2="54.2214" y2="72.941" gradientUnits="userSpaceOnUse">
<stop stop-color="#9FE871"/>
<stop offset="1" stop-color="#6BD723"/>
</linearGradient>
<linearGradient id="paint8_linear_2464_3891" x1="71.1543" y1="44.5485" x2="81.7917" y2="45.3678" gradientUnits="userSpaceOnUse">
<stop stop-color="#9FE871"/>
<stop offset="1" stop-color="#6BD723"/>
</linearGradient>
<linearGradient id="paint9_linear_2464_3891" x1="43.5581" y1="16.7984" x2="54.1993" y2="17.543" gradientUnits="userSpaceOnUse">
<stop stop-color="#9FE871"/>
<stop offset="1" stop-color="#6BD723"/>
</linearGradient>
<clipPath id="clip0_2464_3891">
<rect width="65" height="65" fill="white" transform="translate(16 16)"/>
</clipPath>
</defs>
</svg>
