<svg width="81" height="81" viewBox="0 0 81 81" fill="none" xmlns="http://www.w3.org/2000/svg">
<rect opacity="0.1" width="70" height="70" rx="4" fill="url(#paint0_linear_2464_3929)"/>
<g clip-path="url(#clip0_2464_3929)">
<path fill-rule="evenodd" clip-rule="evenodd" d="M63.8991 31.6218C67.0823 33.9252 69.7033 36.9187 71.5661 40.3783C73.4288 43.8379 74.485 47.674 74.6556 51.5995C74.6674 51.8584 74.7786 52.1027 74.9658 52.2818C75.1531 52.4608 75.4022 52.5609 75.6613 52.5612C75.6764 52.5612 75.6915 52.5594 75.7065 52.5594C75.9731 52.547 76.224 52.4295 76.4042 52.2326C76.5844 52.0357 76.6793 51.7754 76.668 51.5087C76.4844 47.2813 75.3471 43.1501 73.3412 39.4243C71.3353 35.6985 68.5127 32.4746 65.0847 29.9939C64.8687 29.8395 64.6004 29.7767 64.3383 29.8191C64.0762 29.8615 63.8415 30.0057 63.6852 30.2203C63.5289 30.4349 63.4637 30.7026 63.5037 30.9651C63.5438 31.2275 63.6859 31.4636 63.8991 31.6218Z" fill="url(#paint1_linear_2464_3929)"/>
<path fill-rule="evenodd" clip-rule="evenodd" d="M39.4866 77.3878C39.3624 77.3423 39.2305 77.3217 39.0983 77.3272C38.9661 77.3327 38.8363 77.3641 38.7163 77.4198C38.5963 77.4754 38.4885 77.5542 38.3989 77.6515C38.3093 77.7488 38.2398 77.8629 38.1943 77.9871C38.1488 78.1113 38.1282 78.2432 38.1337 78.3754C38.1392 78.5075 38.1706 78.6373 38.2263 78.7573C38.2819 78.8773 38.3607 78.9852 38.458 79.0748C38.5553 79.1644 38.6694 79.2339 38.7936 79.2794C45.0637 81.5666 51.9399 81.5666 58.21 79.2794C58.4609 79.1874 58.6649 78.9995 58.7772 78.7571C58.8895 78.5146 58.9009 78.2375 58.8089 77.9867C58.7169 77.7358 58.5291 77.5318 58.2866 77.4195C58.0442 77.3072 57.7671 77.2958 57.5162 77.3878C51.6943 79.5133 45.3086 79.5133 39.4866 77.3878Z" fill="url(#paint2_linear_2464_3929)"/>
<path fill-rule="evenodd" clip-rule="evenodd" d="M33.3233 30.2151C33.2456 30.1083 33.1476 30.0179 33.0349 29.949C32.9222 29.8801 32.7971 29.834 32.6666 29.8135C32.5362 29.793 32.403 29.7983 32.2746 29.8293C32.1462 29.8603 32.0252 29.9162 31.9184 29.9939C28.4905 32.4748 25.668 35.6987 23.6621 39.4245C21.6562 43.1502 20.5188 47.2814 20.3349 51.5088C20.3233 51.7753 20.4178 52.0356 20.5977 52.2325C20.7776 52.4295 21.0283 52.547 21.2947 52.5595C21.3103 52.5595 21.3259 52.5613 21.3417 52.5613C21.6006 52.5609 21.8494 52.4608 22.0364 52.2817C22.2234 52.1026 22.3342 51.8583 22.3456 51.5996C22.5161 47.674 23.5724 43.8378 25.4353 40.3781C27.2982 36.9185 29.9195 33.9251 33.103 31.6219C33.3187 31.4645 33.4631 31.2279 33.5044 30.9641C33.5457 30.7003 33.4805 30.4309 33.3233 30.2151Z" fill="url(#paint3_linear_2464_3929)"/>
<path d="M66.2957 77.663C73.492 77.663 79.3258 71.8292 79.3258 64.6329C79.3258 57.4366 73.492 51.6028 66.2957 51.6028C59.0994 51.6028 53.2656 57.4366 53.2656 64.6329C53.2656 71.8292 59.0994 77.663 66.2957 77.663Z" fill="url(#paint4_linear_2464_3929)"/>
<path d="M32.0157 77.5845C39.1762 76.872 44.4033 70.4898 43.6908 63.3294C42.9784 56.169 36.5962 50.9419 29.4358 51.6543C22.2754 52.3668 17.0483 58.749 17.7607 65.9094C18.4731 73.0698 24.8553 78.2969 32.0157 77.5845Z" fill="url(#paint5_linear_2464_3929)"/>
<path d="M50.816 41.8793C57.8972 40.5983 62.5993 33.8194 61.3183 26.7382C60.0374 19.6569 53.2584 14.9548 46.1772 16.2358C39.096 17.5168 34.3939 24.2957 35.6748 31.3769C36.9558 38.4582 43.7347 43.1602 50.816 41.8793Z" fill="url(#paint6_linear_2464_3929)"/>
<path fill-rule="evenodd" clip-rule="evenodd" d="M63.8931 31.6293C63.6753 31.4706 63.5294 31.232 63.4875 30.9657C63.4457 30.6995 63.5113 30.4276 63.67 30.2098C63.8286 29.9919 64.0673 29.8461 64.3335 29.8042C64.5997 29.7624 64.8717 29.828 65.0895 29.9866C68.5184 32.4685 71.3417 35.6935 73.3483 39.4205C75.3548 43.1476 76.4926 47.2801 76.6766 51.5089C76.6883 51.7781 76.5927 52.041 76.4108 52.2398C76.2288 52.4386 75.9754 52.5571 75.7062 52.5692C75.6907 52.5692 75.6753 52.5711 75.6607 52.5711C75.3993 52.5707 75.148 52.4696 74.9591 52.2889C74.7701 52.1082 74.658 51.8617 74.6459 51.6005C74.4756 47.6763 73.4199 43.8415 71.5577 40.3831C69.6956 36.9246 67.0753 33.9322 63.893 31.6298L63.8931 31.6293ZM39.4889 77.3793C45.3088 79.5041 51.6924 79.5041 57.5123 77.3793C57.7649 77.2882 58.0434 77.3008 58.2868 77.4143C58.5302 77.5279 58.7187 77.7332 58.8113 77.9853C58.9038 78.2375 58.8927 78.516 58.7805 78.76C58.6683 79.004 58.4641 79.1937 58.2124 79.2876C51.9403 81.5757 45.0617 81.5757 38.7896 79.2876C38.5366 79.1949 38.3307 79.0054 38.2173 78.7609C38.1039 78.5164 38.0923 78.2369 38.1851 77.9838C38.2778 77.7308 38.4673 77.5249 38.7118 77.4115C38.9563 77.2981 39.2358 77.2865 39.4889 77.3793ZM33.3303 30.2098C33.4089 30.3176 33.4655 30.4398 33.4969 30.5695C33.5283 30.6992 33.5339 30.8338 33.5132 30.9656C33.4926 31.0974 33.4462 31.2239 33.3766 31.3378C33.3071 31.4517 33.2158 31.5507 33.108 31.6293C29.9257 33.9318 27.3054 36.9242 25.4433 40.3826C23.5811 43.841 22.5254 47.6759 22.355 51.6C22.3434 51.8611 22.2317 52.1076 22.043 52.2884C21.8543 52.4691 21.6032 52.5702 21.3419 52.5706C21.3256 52.5706 21.3102 52.5687 21.2947 52.5687C21.0257 52.5565 20.7725 52.438 20.5908 52.2391C20.4092 52.0403 20.3139 51.7774 20.3261 51.5084C20.5099 47.2796 21.6476 43.1471 23.6542 39.4201C25.6608 35.6932 28.4842 32.4683 31.9132 29.9866C32.0209 29.9081 32.143 29.8516 32.2726 29.8204C32.4022 29.7891 32.5366 29.7837 32.6683 29.8044C32.8 29.8251 32.9263 29.8716 33.0399 29.9412C33.1536 30.0107 33.2525 30.102 33.3309 30.2098H33.3303ZM66.3888 57.5328C66.8768 57.5325 67.3539 57.677 67.7597 57.9479C68.1655 58.2188 68.4819 58.604 68.6688 59.0547C68.8557 59.5054 68.9047 60.0015 68.8097 60.4801C68.7146 60.9587 68.4797 61.3983 68.1348 61.7434C67.7898 62.0885 67.3502 62.3235 66.8717 62.4188C66.3931 62.514 65.8971 62.4652 65.4463 62.2784C64.9954 62.0917 64.6102 61.7755 64.3391 61.3697C64.0681 60.964 63.9234 60.4869 63.9235 59.999C63.924 59.3452 64.1839 58.7184 64.6461 58.256C65.1083 57.7936 65.7351 57.5335 66.3888 57.5328ZM66.3888 64.4978C67.2786 64.4981 68.1484 64.2345 68.8883 63.7404C69.6282 63.2464 70.205 62.5439 70.5457 61.722C70.8864 60.9001 70.9757 59.9956 70.8023 59.123C70.629 58.2503 70.2007 57.4486 69.5717 56.8194C68.9427 56.1901 68.1412 55.7615 67.2687 55.5878C66.3961 55.414 65.4915 55.503 64.6695 55.8433C63.8474 56.1837 63.1448 56.7601 62.6504 57.4999C62.156 58.2396 61.892 59.1093 61.8919 59.999C61.8932 61.1914 62.3674 62.3347 63.2104 63.178C64.0534 64.0214 65.1964 64.496 66.3888 64.4978ZM66.2945 53.6253C64.3734 53.6246 62.4856 54.127 60.8188 55.0823C59.152 56.0376 57.7644 57.4127 56.794 59.0707C55.8235 60.7287 55.3041 62.6119 55.2873 64.5329C55.2705 66.454 55.757 68.346 56.6983 70.0207V69.109C56.6983 67.3571 57.959 66.0134 60.1567 65.4238C64.1822 64.3791 68.4076 64.3791 72.4331 65.4238C74.6294 66.0134 75.8898 67.3567 75.8898 69.109V70.0231C76.8318 68.3484 77.3189 66.4562 77.3025 64.5348C77.2862 62.6133 76.7669 60.7297 75.7965 59.0713C74.826 57.4129 73.4383 56.0375 71.7712 55.082C70.1041 54.1265 68.2159 53.6242 66.2944 53.6251L66.2945 53.6253ZM62.7064 75.0391V70.2302C62.7064 69.9608 62.5994 69.7025 62.409 69.512C62.2185 69.3215 61.9602 69.2145 61.6908 69.2145C61.4215 69.2145 61.1631 69.3215 60.9727 69.512C60.7822 69.7025 60.6752 69.9608 60.6752 70.2302V74.095C59.9745 73.6776 59.3222 73.1837 58.7305 72.6223V69.109C58.7305 68.1178 59.7917 67.6252 60.6824 67.3867C64.3635 66.4337 68.2266 66.4337 71.9076 67.3867C72.7974 67.6252 73.8595 68.1178 73.8595 69.109V72.6237C73.2678 73.1846 72.616 73.6785 71.9159 74.0964V70.2307C71.9159 69.9613 71.8089 69.703 71.6184 69.5125C71.4279 69.322 71.1696 69.215 70.9003 69.215C70.6309 69.215 70.3726 69.322 70.1821 69.5125C69.9916 69.703 69.8846 69.9613 69.8846 70.2307V75.0415C67.5592 75.8427 65.0324 75.842 62.7073 75.0396L62.7064 75.0391ZM79.334 64.6329C79.334 62.054 78.5693 59.5329 77.1365 57.3886C75.7037 55.2443 73.6672 53.573 71.2846 52.5861C68.902 51.5992 66.2802 51.341 63.7508 51.8441C61.2214 52.3472 58.898 53.5891 57.0744 55.4127C55.2508 57.2363 54.009 59.5597 53.5058 62.0891C53.0027 64.6185 53.2609 67.2402 54.2479 69.6229C55.2348 72.0055 56.9061 74.042 59.0504 75.4747C61.1947 76.9075 63.7157 77.6723 66.2947 77.6723C69.7517 77.6684 73.0661 76.2934 75.5106 73.8489C77.9551 71.4044 79.3301 68.09 79.334 64.6329ZM30.7054 53.6253C32.6268 53.6246 34.5149 54.127 36.1818 55.0826C37.8488 56.0381 39.2365 57.4135 40.2068 59.0719C41.1771 60.7303 41.6963 62.6139 41.7126 64.5352C41.7289 66.4566 41.2419 68.3487 40.2999 70.0233V69.1093C40.2999 67.3573 39.04 66.0137 36.8432 65.4241C34.842 64.8929 32.7793 64.6295 30.7089 64.6405C28.6356 64.6286 26.5698 64.8921 24.5658 65.4241C22.3695 66.0137 21.1091 67.3569 21.1091 69.1093V70.0209C20.1674 68.3463 19.6806 66.4542 19.6972 64.5329C19.7138 62.6117 20.2332 60.7283 21.2037 59.0702C22.1742 57.412 23.562 56.0369 25.229 55.0816C26.896 54.1264 28.7841 53.6243 30.7054 53.6253ZM27.1163 75.0391C29.441 75.8415 31.9674 75.8422 34.2926 75.041V70.2302C34.2926 69.9608 34.3996 69.7025 34.59 69.512C34.7805 69.3215 35.0388 69.2145 35.3082 69.2145C35.5775 69.2145 35.8359 69.3215 36.0263 69.512C36.2168 69.7025 36.3238 69.9608 36.3238 70.2302V74.095C37.0243 73.6778 37.6765 73.1844 38.2685 72.6237V69.109C38.2685 68.1178 37.2073 67.6252 36.3175 67.3867C34.4876 66.9014 32.6015 66.661 30.7084 66.6719C28.8122 66.6588 26.9228 66.8991 25.0904 67.3867C24.2007 67.6252 23.1393 68.1178 23.1393 69.109V72.622C23.7313 73.1831 24.3835 73.6769 25.084 74.0946V70.2302C25.084 69.9608 25.191 69.7025 25.3815 69.512C25.5719 69.3215 25.8303 69.2145 26.0996 69.2145C26.369 69.2145 26.6273 69.3215 26.8178 69.512C27.0083 69.7025 27.1153 69.9608 27.1153 70.2302V75.0391H27.1163ZM30.7054 77.6723C33.2843 77.6723 35.8053 76.9075 37.9496 75.4747C40.094 74.042 41.7652 72.0055 42.7522 69.6229C43.7391 67.2402 43.9973 64.6185 43.4942 62.0891C42.9911 59.5597 41.7492 57.2363 39.9256 55.4127C38.102 53.5891 35.7786 52.3472 33.2492 51.8441C30.7198 51.341 28.0981 51.5992 25.7154 52.5861C23.3328 53.573 21.2963 55.2443 19.8635 57.3886C18.4308 59.5329 17.666 62.054 17.666 64.6329C17.6696 68.0901 19.0445 71.4046 21.4891 73.8492C23.9337 76.2938 27.2482 77.6687 30.7054 77.6723ZM48.5004 18.0349C50.4219 18.0342 52.3101 18.5367 53.9771 19.4923C55.6441 20.4479 57.0318 21.8233 58.0022 23.4818C58.9726 25.1402 59.4918 27.0239 59.5081 28.9453C59.5245 30.8667 59.0375 32.7589 58.0955 34.4337V33.5196C58.0955 31.7664 56.8356 30.4231 54.6388 29.8344C52.669 29.3104 50.6391 29.0467 48.6008 29.0499C48.5682 29.0499 48.5354 29.0507 48.5037 29.0507C46.4303 29.0378 44.3643 29.3014 42.3606 29.8344C40.1643 30.4231 38.9039 31.7664 38.9039 33.5196V34.4311C37.9621 32.7564 37.4754 30.8643 37.492 28.943C37.5086 27.0217 38.028 25.1383 38.9985 23.48C39.969 21.8218 41.3568 20.4467 43.0239 19.4913C44.6909 18.536 46.579 18.0339 48.5004 18.0349ZM44.911 39.4496C47.2363 40.2511 49.7629 40.2514 52.0883 39.4505V34.6406C52.0883 34.3713 52.1953 34.1129 52.3858 33.9225C52.5763 33.732 52.8346 33.625 53.104 33.625C53.3733 33.625 53.6317 33.732 53.8221 33.9225C54.0126 34.1129 54.1196 34.3713 54.1196 34.6406V38.5055C54.8202 38.0878 55.4723 37.5939 56.0643 37.0328V33.5196C56.0643 32.5282 55.0031 32.0358 54.1132 31.7973C52.2836 31.3108 50.3973 31.0705 48.5042 31.0825C48.4744 31.0825 48.4444 31.0807 48.4153 31.0807C46.5492 31.0766 44.6906 31.3175 42.8872 31.7973C41.9965 32.0358 40.9353 32.5282 40.9353 33.5196V37.0324C41.5279 37.5931 42.1803 38.0869 42.8808 38.5051V34.6406C42.8808 34.3713 42.9878 34.1129 43.1783 33.9225C43.3687 33.732 43.6271 33.625 43.8964 33.625C44.1658 33.625 44.4241 33.732 44.6146 33.9225C44.8051 34.1129 44.9121 34.3713 44.9121 34.6406V39.4496H44.911ZM48.5004 42.0826C51.0793 42.0826 53.6003 41.3178 55.7446 39.885C57.8888 38.4523 59.5601 36.4158 60.547 34.0332C61.5339 31.6506 61.7921 29.0288 61.2889 26.4995C60.7858 23.9701 59.5439 21.6468 57.7203 19.8232C55.8968 17.9997 53.5734 16.7578 51.044 16.2547C48.5147 15.7516 45.8929 16.0098 43.5103 16.9967C41.1277 17.9836 39.0913 19.6549 37.6585 21.7992C36.2258 23.9435 35.461 26.4645 35.461 29.0434C35.4649 32.5004 36.84 35.8148 39.2845 38.2593C41.729 40.7037 45.0433 42.0787 48.5004 42.0826ZM30.7988 57.5328C30.3109 57.5329 29.8341 57.6777 29.4285 57.9488C29.0229 58.2199 28.7068 58.6052 28.5202 59.056C28.3336 59.5068 28.2848 60.0028 28.3801 60.4812C28.4754 60.9597 28.7104 61.3992 29.0555 61.7441C29.4005 62.089 29.8401 62.3238 30.3186 62.4189C30.7971 62.514 31.2931 62.465 31.7437 62.2782C32.1944 62.0915 32.5796 61.7752 32.8506 61.3695C33.1215 60.9638 33.2661 60.4869 33.266 59.999C33.2654 59.345 33.0052 58.7179 32.5427 58.2555C32.0801 57.7931 31.4528 57.5332 30.7988 57.5328ZM30.7988 64.4978C31.6885 64.4979 32.5582 64.2342 33.298 63.74C34.0378 63.2457 34.6144 62.5433 34.9549 61.7213C35.2955 60.8994 35.3847 59.9949 35.2112 59.1223C35.0377 58.2497 34.6093 57.4482 33.9803 56.819C33.3513 56.1899 32.5498 55.7614 31.6772 55.5877C30.8047 55.414 29.9002 55.503 29.0782 55.8434C28.2562 56.1838 27.5536 56.7603 27.0592 57.5C26.5649 58.2397 26.301 59.1093 26.3009 59.999C26.3021 61.1916 26.7764 62.335 27.6196 63.1784C28.4629 64.0218 29.6062 64.4963 30.7988 64.4978ZM48.5945 21.9424C48.1067 21.9424 47.6298 22.0871 47.2242 22.3581C46.8186 22.6291 46.5025 23.0143 46.3159 23.465C46.1293 23.9157 46.0805 24.4117 46.1757 24.8901C46.271 25.3685 46.506 25.8079 46.851 26.1528C47.196 26.4977 47.6355 26.7325 48.114 26.8275C48.5924 26.9226 49.0883 26.8736 49.5389 26.6868C49.9896 26.4999 50.3747 26.1837 50.6455 25.778C50.9164 25.3723 51.0609 24.8954 51.0607 24.4076C51.0596 23.7539 50.7994 23.1274 50.3371 22.6653C49.8748 22.2031 49.2481 21.9432 48.5945 21.9424ZM48.5945 28.9055C49.4838 28.9053 50.3532 28.6415 51.0926 28.1473C51.832 27.653 52.4082 26.9507 52.7485 26.129C53.0887 25.3073 53.1777 24.4032 53.0042 23.5309C52.8306 22.6586 52.4023 21.8574 51.7735 21.2286C51.1446 20.5997 50.3434 20.1714 49.4711 19.9978C48.5989 19.8243 47.6947 19.9133 46.873 20.2535C46.0513 20.5938 45.349 21.1701 44.8548 21.9095C44.3606 22.6489 44.0967 23.5182 44.0965 24.4076C44.0975 25.6002 44.5717 26.7437 45.415 27.587C46.2584 28.4303 47.4018 28.9045 48.5945 28.9055Z" fill="#0CAF60"/>
</g>
<defs>
<linearGradient id="paint0_linear_2464_3929" x1="-1.4759" y1="5.4902" x2="75.8271" y2="11.4447" gradientUnits="userSpaceOnUse">
<stop stop-color="#9FE871"/>
<stop offset="1" stop-color="#6BD723"/>
</linearGradient>
<linearGradient id="paint1_linear_2464_3929" x1="63.2144" y1="31.5909" x2="77.8231" y2="32.2425" gradientUnits="userSpaceOnUse">
<stop stop-color="#9FE871"/>
<stop offset="1" stop-color="#6BD723"/>
</linearGradient>
<linearGradient id="paint2_linear_2464_3929" x1="37.6956" y1="77.6139" x2="57.0611" y2="86.0461" gradientUnits="userSpaceOnUse">
<stop stop-color="#9FE871"/>
<stop offset="1" stop-color="#6BD723"/>
</linearGradient>
<linearGradient id="paint3_linear_2464_3929" x1="20.056" y1="31.5864" x2="34.6712" y2="32.2384" gradientUnits="userSpaceOnUse">
<stop stop-color="#9FE871"/>
<stop offset="1" stop-color="#6BD723"/>
</linearGradient>
<linearGradient id="paint4_linear_2464_3929" x1="52.7162" y1="53.6467" x2="81.4952" y2="55.8635" gradientUnits="userSpaceOnUse">
<stop stop-color="#9FE871"/>
<stop offset="1" stop-color="#6BD723"/>
</linearGradient>
<linearGradient id="paint5_linear_2464_3929" x1="16.1263" y1="55.0325" x2="44.9812" y2="54.3891" gradientUnits="userSpaceOnUse">
<stop stop-color="#9FE871"/>
<stop offset="1" stop-color="#6BD723"/>
</linearGradient>
<linearGradient id="paint6_linear_2464_3929" x1="33.1786" y1="20.6642" x2="61.892" y2="17.7229" gradientUnits="userSpaceOnUse">
<stop stop-color="#9FE871"/>
<stop offset="1" stop-color="#6BD723"/>
</linearGradient>
<clipPath id="clip0_2464_3929">
<rect width="65" height="65" fill="white" transform="translate(16 16)"/>
</clipPath>
</defs>
</svg>
