<svg width="56" height="46" viewBox="0 0 56 46" fill="none" xmlns="http://www.w3.org/2000/svg">
<path opacity="0.4" d="M34.8014 9.46432C36.3313 9.46432 37.8005 10.0669 38.8701 11.1406C39.9474 12.2242 40.5441 13.6798 40.5416 15.1949V18.3441C40.529 18.7135 40.2281 19.0136 39.8513 19.0235H15.7777C15.4035 19.0111 15.1025 18.711 15.0947 18.3441V15.1949C15.0671 12.0581 17.6363 9.49655 20.8327 9.46432H34.8014ZM40.949 0.000865974C46.5046 0.000865974 51.021 4.42958 51.021 9.87743V14.5715C51.021 15.6129 50.1612 16.461 49.0966 16.461C48.0345 16.461 47.1722 15.6129 47.1722 14.5715V9.87743C47.1722 6.51251 44.3805 3.77494 40.949 3.77494H36.9207C35.8587 3.77494 34.9964 2.93185 34.9964 1.89038C34.9964 0.846437 35.8587 0.000865974 36.9207 0.000865974H40.949ZM18.7824 0.00012207C19.8444 0.00012207 20.7067 0.845693 20.7067 1.88964C20.7067 2.9311 19.847 3.77667 18.7824 3.77667L14.663 3.77915C11.2442 3.78411 8.46259 6.51424 8.46259 9.86925V14.5707C8.46259 15.6122 7.59776 16.4602 6.5357 16.4602C5.47363 16.4602 4.61133 15.6122 4.61133 14.5707V9.86925C4.61133 4.43379 9.12006 0.00756111 14.6605 0.00260175L18.7824 0.00012207Z" fill="white"/>
<path d="M53.7078 22.8632H1.9269C0.864828 22.8632 0 23.7088 0 24.7527C0 25.7942 0.864828 26.6373 1.9269 26.6373H4.60988V35.6484C4.60988 41.0839 9.12115 45.5101 14.6616 45.5151L18.7809 45.5176C19.8455 45.5176 20.7053 44.672 20.7078 43.628C20.7078 42.5866 19.8455 41.741 18.7834 41.741L14.6667 41.7385C11.2453 41.7336 8.46115 39.0034 8.46115 35.6484V26.6373H15.094V29.1442C15.0687 32.281 17.6354 34.845 20.8317 34.8748H34.8005C37.9993 34.845 40.566 32.281 40.5407 29.1442V26.6373H47.1736V35.6385C47.1736 39.0059 44.3818 41.741 40.9503 41.741H36.9221C35.8575 41.741 34.9952 42.5866 34.9952 43.628C34.9952 44.672 35.8575 45.5176 36.9221 45.5176H40.9503C46.5034 45.5176 51.0223 41.0889 51.0223 35.6385V26.6373H53.7078C54.7699 26.6373 55.6322 25.7942 55.6322 24.7527C55.6322 23.7088 54.7699 22.8632 53.7078 22.8632Z" fill="white"/>
</svg>
