<svg width="119" height="29" viewBox="0 0 119 29" fill="none" xmlns="http://www.w3.org/2000/svg">
<path d="M31.049 10.2769H42.9994V12.5016H38.2941V25.0426H35.715V12.5016H31.0293L31.049 10.2769ZM42.4875 14.3522H44.6926V16.4194H44.7319C44.8107 16.1241 44.9485 15.8485 45.1454 15.5728C45.3423 15.2972 45.5785 15.0413 45.8738 14.8247C46.1495 14.5885 46.4645 14.4113 46.8188 14.2735C47.1535 14.1356 47.5079 14.0569 47.8623 14.0569C48.1379 14.0569 48.3348 14.0766 48.4332 14.0766C48.5317 14.0963 48.6498 14.116 48.7482 14.116V16.38C48.5907 16.3407 48.4135 16.321 48.2364 16.3013C48.0592 16.2816 47.9017 16.2619 47.7245 16.2619C47.3307 16.2619 46.9567 16.3407 46.6023 16.4982C46.2479 16.6557 45.9526 16.8919 45.677 17.1872C45.421 17.5022 45.2044 17.8763 45.0469 18.3291C44.8894 18.7819 44.8107 19.3135 44.8107 19.9041V24.9836H42.4482L42.4875 14.3522ZM59.5765 25.0426H57.2533V23.5464H57.214C56.9186 24.0976 56.4855 24.5111 55.9146 24.8458C55.3436 25.1805 54.753 25.338 54.1624 25.338C52.7645 25.338 51.7408 25.0033 51.1108 24.2945C50.4808 23.6054 50.1658 22.5423 50.1658 21.1445V14.3522H52.5283V20.9082C52.5283 21.8532 52.7055 22.5226 53.0795 22.8967C53.4339 23.2904 53.9458 23.4873 54.5955 23.4873C55.0877 23.4873 55.5011 23.4086 55.8358 23.2511C56.1705 23.0936 56.4461 22.8967 56.643 22.6407C56.8596 22.3848 56.9974 22.0698 57.0958 21.7154C57.1943 21.361 57.2336 20.9673 57.2336 20.5538V14.3522H59.5962V25.0426H59.5765ZM63.5928 21.617C63.6715 22.306 63.9275 22.7786 64.3803 23.0739C64.8331 23.3495 65.3844 23.4873 66.0144 23.4873C66.2309 23.4873 66.4869 23.4676 66.7625 23.4282C67.0381 23.3889 67.3138 23.3298 67.55 23.2314C67.8059 23.1329 68.0028 22.9951 68.1603 22.7982C68.3178 22.6014 68.3966 22.3651 68.3769 22.0698C68.3572 21.7745 68.2588 21.5185 68.0422 21.3217C67.8256 21.1248 67.5697 20.987 67.2547 20.8492C66.9397 20.731 66.5656 20.6326 66.1522 20.5538C65.7387 20.4751 65.3253 20.3766 64.8922 20.2782C64.459 20.1798 64.0259 20.0616 63.6125 19.9238C63.199 19.786 62.8446 19.6088 62.51 19.3529C62.1949 19.1166 61.9193 18.8213 61.7421 18.4473C61.5453 18.0732 61.4468 17.6401 61.4468 17.0888C61.4468 16.4982 61.5846 16.0257 61.8799 15.6319C62.1556 15.2382 62.5296 14.9232 62.9628 14.6869C63.3959 14.4506 63.8881 14.2735 64.4197 14.175C64.9512 14.0766 65.4631 14.0372 65.9356 14.0372C66.4869 14.0372 67.0184 14.0963 67.5106 14.2144C68.0028 14.3325 68.4753 14.5097 68.8691 14.7853C69.2825 15.0413 69.6172 15.3957 69.8732 15.8091C70.1488 16.2225 70.3063 16.7344 70.385 17.3251H67.9241C67.8059 16.7541 67.55 16.38 67.1562 16.1832C66.7428 15.9863 66.29 15.8879 65.7584 15.8879C65.6009 15.8879 65.3844 15.9075 65.1678 15.9272C64.9315 15.9666 64.7347 16.006 64.5181 16.0847C64.3212 16.1635 64.144 16.2816 64.0062 16.4194C63.8684 16.5572 63.7896 16.7541 63.7896 16.9904C63.7896 17.2857 63.8881 17.5022 64.085 17.6794C64.2818 17.8566 64.5378 17.9944 64.8725 18.1323C65.1875 18.2504 65.5615 18.3488 65.975 18.4276C66.3884 18.5063 66.8216 18.6048 67.2547 18.7032C67.6878 18.8016 68.1013 18.9198 68.5147 19.0576C68.9281 19.1954 69.3022 19.3726 69.6172 19.6285C69.9322 19.8648 70.2078 20.1601 70.4047 20.5145C70.6016 20.8688 70.7 21.3217 70.7 21.8335C70.7 22.4635 70.5622 22.9951 70.2669 23.4479C69.9716 23.8811 69.5975 24.2551 69.1447 24.5308C68.6919 24.8064 68.1603 25.0033 67.6091 25.1411C67.0381 25.2592 66.4869 25.338 65.9356 25.338C65.2662 25.338 64.6362 25.2592 64.0653 25.1017C63.4943 24.9442 62.9825 24.7079 62.569 24.4126C62.1556 24.0976 61.8209 23.7236 61.5846 23.2511C61.3484 22.7982 61.2106 22.247 61.1909 21.5973H63.5731V21.617H63.5928ZM71.3694 14.3522H73.161V11.1234H75.5235V14.3325H77.6498V16.0847H75.5235V21.7942C75.5235 22.0501 75.5432 22.247 75.5629 22.4439C75.5826 22.621 75.6417 22.7785 75.7007 22.8967C75.7795 23.0148 75.8976 23.1132 76.0354 23.1723C76.1929 23.2314 76.3898 23.2707 76.6654 23.2707C76.8229 23.2707 77.0001 23.2707 77.1576 23.2511C77.3151 23.2314 77.4923 23.2117 77.6498 23.1723V25.0033C77.3939 25.0426 77.1379 25.0623 76.882 25.082C76.626 25.1214 76.3898 25.1214 76.1142 25.1214C75.4842 25.1214 74.992 25.0623 74.6179 24.9442C74.2438 24.8261 73.9485 24.6489 73.7319 24.4323C73.5154 24.1961 73.3776 23.9204 73.2988 23.5857C73.2201 23.2511 73.1807 22.8376 73.161 22.4045V16.1044H71.3694V14.3128V14.3522ZM79.3036 14.3522H81.5283V15.8091H81.5677C81.9023 15.1791 82.3552 14.746 82.9458 14.4703C83.5364 14.1947 84.1664 14.0569 84.8752 14.0569C85.7218 14.0569 86.4502 14.1947 87.0802 14.5097C87.7102 14.805 88.2221 15.1988 88.6355 15.7303C89.049 16.2422 89.364 16.8526 89.5609 17.5416C89.7577 18.2307 89.8759 18.9788 89.8759 19.7466C89.8759 20.4751 89.7774 21.1642 89.6002 21.8335C89.4034 22.5029 89.1277 23.1132 88.7537 23.6251C88.3796 24.137 87.9071 24.5504 87.3165 24.8654C86.7258 25.1804 86.0565 25.338 85.2689 25.338C84.9343 25.338 84.5799 25.2986 84.2452 25.2395C83.9105 25.1805 83.5758 25.082 83.2608 24.9442C82.9458 24.8064 82.6505 24.6292 82.3945 24.4126C82.1189 24.1961 81.9023 23.9401 81.7252 23.6645H81.6858V28.9999H79.3233V14.3522H79.3036ZM87.5527 19.7073C87.5527 19.2348 87.4937 18.7623 87.3558 18.3094C87.2377 17.8566 87.0408 17.4629 86.7849 17.1085C86.529 16.7541 86.214 16.4785 85.8596 16.2619C85.4855 16.0454 85.0524 15.9469 84.5799 15.9469C83.5955 15.9469 82.8474 16.2816 82.3355 16.9707C81.8433 17.6597 81.5873 18.5851 81.5873 19.727C81.5873 20.2782 81.6464 20.7704 81.7842 21.2232C81.922 21.676 82.0992 22.0698 82.3749 22.4045C82.6308 22.7392 82.9458 22.9951 83.3199 23.192C83.6939 23.3889 84.1074 23.4873 84.5996 23.4873C85.1508 23.4873 85.584 23.3692 85.958 23.1526C86.3321 22.9361 86.6274 22.6407 86.8833 22.306C87.1196 21.9517 87.2968 21.5579 87.3952 21.1051C87.4937 20.6326 87.5527 20.1798 87.5527 19.7073ZM91.7068 10.2769H94.0694V12.5016H91.7068V10.2769ZM91.7068 14.3522H94.0694V25.0426H91.7068V14.3522ZM96.1759 10.2769H98.5385V25.0426H96.1759V10.2769ZM105.744 25.338C104.898 25.338 104.13 25.2001 103.46 24.9048C102.791 24.6095 102.24 24.2354 101.767 23.7433C101.314 23.2511 100.96 22.6407 100.724 21.9517C100.488 21.2626 100.35 20.4948 100.35 19.6876C100.35 18.8804 100.468 18.1323 100.724 17.4432C100.96 16.7541 101.314 16.1635 101.767 15.6516C102.22 15.1594 102.791 14.7657 103.46 14.49C104.13 14.2144 104.898 14.0569 105.744 14.0569C106.591 14.0569 107.359 14.1947 108.028 14.49C108.697 14.7657 109.249 15.1594 109.721 15.6516C110.174 16.1438 110.528 16.7541 110.765 17.4432C111.001 18.1323 111.139 18.8804 111.139 19.6876C111.139 20.5145 111.02 21.2626 110.765 21.9517C110.509 22.6407 110.174 23.2314 109.721 23.7433C109.268 24.2354 108.697 24.6292 108.028 24.9048C107.359 25.1805 106.61 25.338 105.744 25.338ZM105.744 23.4676C106.256 23.4676 106.729 23.3495 107.103 23.1329C107.496 22.9164 107.792 22.6211 108.048 22.2667C108.304 21.9123 108.481 21.4988 108.599 21.0657C108.717 20.6129 108.776 20.1601 108.776 19.6876C108.776 19.2348 108.717 18.7819 108.599 18.3291C108.481 17.8763 108.304 17.4826 108.048 17.1282C107.792 16.7738 107.477 16.4982 107.103 16.2816C106.709 16.065 106.256 15.9469 105.744 15.9469C105.232 15.9469 104.76 16.065 104.386 16.2816C103.992 16.4982 103.697 16.7935 103.441 17.1282C103.185 17.4826 103.008 17.8763 102.889 18.3291C102.771 18.7819 102.712 19.2348 102.712 19.6876C102.712 20.1601 102.771 20.6129 102.889 21.0657C103.008 21.5185 103.185 21.9123 103.441 22.2667C103.697 22.6211 104.012 22.9164 104.386 23.1329C104.779 23.3692 105.232 23.4676 105.744 23.4676ZM111.847 14.3522H113.639V11.1234H116.001V14.3325H118.128V16.0847H116.001V21.7942C116.001 22.0501 116.021 22.247 116.041 22.4439C116.061 22.621 116.12 22.7785 116.179 22.8967C116.257 23.0148 116.376 23.1132 116.513 23.1723C116.671 23.2314 116.868 23.2707 117.143 23.2707C117.301 23.2707 117.478 23.2707 117.636 23.2511C117.793 23.2314 117.97 23.2117 118.128 23.1723V25.0033C117.872 25.0426 117.616 25.0623 117.36 25.082C117.104 25.1214 116.868 25.1214 116.592 25.1214C115.962 25.1214 115.47 25.0623 115.096 24.9442C114.722 24.8261 114.426 24.6489 114.21 24.4323C113.993 24.1961 113.856 23.9204 113.777 23.5857C113.698 23.2511 113.659 22.8376 113.639 22.4045V16.1044H111.847V14.3128V14.3522Z" fill="white"/>
<path d="M28.2912 10.277H17.4827L14.1555 0L10.8086 10.277L0 10.2573L8.74134 16.6164L5.39443 26.8934L14.1358 20.5343L22.8771 26.8934L19.5499 16.6164L28.2912 10.277Z" fill="#00B67A"/>
<path d="M20.2988 18.9394L19.5507 16.6162L14.1562 20.5341L20.2988 18.9394Z" fill="#005128"/>
</svg>
