<svg width="1918" height="799" viewBox="0 0 1918 799" fill="none" xmlns="http://www.w3.org/2000/svg">
<rect width="1921" height="798" fill="#08001C"/>
<g opacity="0.64">
<mask id="mask0_2325_3302" style="mask-type:alpha" maskUnits="userSpaceOnUse" x="0" y="0" width="1921" height="798">
<rect width="1921" height="798" fill="#08001C"/>
</mask>
<g mask="url(#mask0_2325_3302)">
<g opacity="0.75" filter="url(#filter0_f_2325_3302)">
<circle cx="75" cy="703" r="256" fill="url(#paint0_linear_2325_3302)"/>
</g>
<g opacity="0.57" filter="url(#filter1_f_2325_3302)">
<circle cx="1796.5" cy="113.5" r="248.5" fill="url(#paint1_linear_2325_3302)"/>
</g>
</g>
</g>
<mask id="mask1_2325_3302" style="mask-type:alpha" maskUnits="userSpaceOnUse" x="0" y="0" width="1921" height="798">
<rect opacity="0.7" width="1921" height="798" fill="url(#paint2_radial_2325_3302)"/>
</mask>
<g mask="url(#mask1_2325_3302)">
<g opacity="0.16">
<g opacity="0.8">
<path d="M151.805 -338V993" stroke="white"/>
<path d="M301.234 -338V993" stroke="white"/>
<path d="M448.531 -338V993" stroke="white"/>
<path d="M597.961 -338V993" stroke="white"/>
<path d="M748.459 -338V993" stroke="white"/>
<path d="M897.891 -338V993" stroke="white"/>
<path d="M1045.19 -338V993" stroke="white"/>
<path d="M1194.62 -338V993" stroke="white"/>
<path d="M1344.05 -338V993" stroke="white"/>
<path d="M1493.48 -338V993" stroke="white"/>
<path d="M1640.77 -338V993" stroke="white"/>
<path d="M1790.21 -338V993" stroke="white"/>
</g>
<g opacity="0.8">
<path d="M1922.56 107.09H3.44141" stroke="white"/>
<path d="M1922.56 256.52H3.44141" stroke="white"/>
<path d="M1922.56 405.951H3.44141" stroke="white"/>
<path d="M1922.56 555.382H3.44141" stroke="white"/>
<path d="M1922.56 704.812H3.44141" stroke="white"/>
</g>
<circle cx="747.392" cy="107.09" r="3.20209" fill="white"/>
<circle cx="747.392" cy="256.52" r="3.20209" fill="white"/>
<circle cx="747.392" cy="405.951" r="3.20209" fill="white"/>
<circle cx="897.89" cy="405.951" r="3.20209" fill="white"/>
<circle cx="897.89" cy="256.52" r="3.20209" fill="white"/>
<circle cx="897.89" cy="107.09" r="3.20209" fill="white"/>
<circle cx="1044.12" cy="107.09" r="3.20209" fill="white"/>
<circle cx="1040.92" cy="256.52" r="3.20209" fill="white"/>
<circle cx="1045.19" cy="405.951" r="3.20209" fill="white"/>
<circle cx="1193.55" cy="405.951" r="3.20209" fill="white"/>
<circle cx="1191.41" cy="256.52" r="3.20209" fill="white"/>
<circle cx="1192.48" cy="107.09" r="3.20209" fill="white"/>
<circle cx="447.464" cy="107.09" r="3.20209" fill="white"/>
<circle cx="447.464" cy="256.52" r="3.20209" fill="white"/>
<circle cx="447.464" cy="405.951" r="3.20209" fill="white"/>
<circle cx="597.962" cy="405.951" r="3.20209" fill="white"/>
<circle cx="597.962" cy="256.52" r="3.20209" fill="white"/>
<circle cx="597.962" cy="107.09" r="3.20209" fill="white"/>
<circle cx="150.737" cy="107.09" r="3.20209" fill="white"/>
<circle cx="150.737" cy="256.52" r="3.20209" fill="white"/>
<circle cx="150.737" cy="405.951" r="3.20209" fill="white"/>
<circle cx="301.235" cy="405.951" r="3.20209" fill="white"/>
<circle cx="301.235" cy="256.52" r="3.20209" fill="white"/>
<circle cx="301.235" cy="107.09" r="3.20209" fill="white"/>
<circle cx="1344.05" cy="107.09" r="3.20209" fill="white"/>
<circle cx="1341.91" cy="256.52" r="3.20209" fill="white"/>
<circle cx="1344.05" cy="405.951" r="3.20209" fill="white"/>
<circle cx="1494.55" cy="405.951" r="3.20209" fill="white"/>
<circle cx="1492.41" cy="256.52" r="3.20209" fill="white"/>
<circle cx="1493.48" cy="107.09" r="3.20209" fill="white"/>
<circle cx="1640.77" cy="107.09" r="3.20209" fill="white"/>
<circle cx="1639.71" cy="256.52" r="3.20209" fill="white"/>
<circle cx="1640.77" cy="405.951" r="3.20209" fill="white"/>
<circle cx="749.528" cy="555.382" r="3.20209" fill="white"/>
<circle cx="896.823" cy="555.382" r="3.20209" fill="white"/>
<circle cx="1045.19" cy="555.382" r="3.20209" fill="white"/>
<circle cx="1194.62" cy="555.382" r="3.20209" fill="white"/>
<circle cx="447.466" cy="555.382" r="3.20209" fill="white"/>
<circle cx="597.962" cy="555.382" r="3.20209" fill="white"/>
<circle cx="151.806" cy="555.382" r="3.20209" fill="white"/>
<circle cx="301.235" cy="555.382" r="3.20209" fill="white"/>
<circle cx="1344.05" cy="556.449" r="3.20209" fill="white"/>
<circle cx="1493.48" cy="555.382" r="3.20209" fill="white"/>
<circle cx="1639.71" cy="555.382" r="3.20209" fill="white"/>
<circle cx="1790.21" cy="555.382" r="3.20209" fill="white"/>
<circle cx="749.528" cy="704.812" r="3.20209" fill="white"/>
<circle cx="896.823" cy="704.812" r="3.20209" fill="white"/>
<circle cx="1045.19" cy="704.812" r="3.20209" fill="white"/>
<circle cx="1194.62" cy="704.812" r="3.20209" fill="white"/>
<circle cx="447.466" cy="704.812" r="3.20209" fill="white"/>
<circle cx="597.962" cy="704.812" r="3.20209" fill="white"/>
<circle cx="151.806" cy="704.812" r="3.20209" fill="white"/>
<circle cx="301.235" cy="704.812" r="3.20209" fill="white"/>
<circle cx="1344.05" cy="705.88" r="3.20209" fill="white"/>
<circle cx="1493.48" cy="704.812" r="3.20209" fill="white"/>
<circle cx="1639.71" cy="704.812" r="3.20209" fill="white"/>
<circle cx="1790.21" cy="704.812" r="3.20209" fill="white"/>
<circle cx="1790.2" cy="405.951" r="3.20209" fill="white"/>
<circle cx="1790.2" cy="256.52" r="3.20209" fill="white"/>
<circle cx="1790.2" cy="107.09" r="3.20209" fill="white"/>
</g>
</g>
<g opacity="0.32">
<mask id="path-83-inside-1_2325_3302" fill="white">
<path fill-rule="evenodd" clip-rule="evenodd" d="M1663.66 571.547C1654.22 573.256 1644.89 575.542 1635.72 578.398C1606.54 587.491 1579.6 602.19 1556.43 621.656C1533.26 641.121 1514.33 664.972 1500.7 691.847L1597.73 741.041C1605.08 726.554 1615.28 713.698 1627.77 703.205C1640.26 692.713 1654.78 684.789 1670.51 679.888C1686.24 674.986 1702.87 673.202 1719.44 674.638C1736.02 676.074 1752.22 680.701 1767.12 688.255L1769 684.548C1769 684.548 1769 684.548 1769 684.548L1818.2 587.518C1803.71 580.174 1790.85 569.967 1780.36 557.479C1769.87 544.992 1761.94 530.469 1757.04 514.739C1752.14 499.01 1750.36 482.383 1751.79 465.806C1753.23 449.23 1757.86 433.029 1765.41 418.129L1671.08 370.301C1657.06 397.944 1648.48 427.999 1645.81 458.751C1643.15 489.503 1646.46 520.35 1655.55 549.531C1657.89 557.026 1660.59 564.373 1663.66 571.547Z"/>
</mask>
<path d="M1663.66 571.547L1663.83 572.531L1665.07 572.308L1664.58 571.154L1663.66 571.547ZM1635.72 578.398L1635.42 577.443L1635.72 578.398ZM1556.43 621.656L1555.79 620.89L1556.43 621.656ZM1500.7 691.847L1499.81 691.395L1499.36 692.286L1500.25 692.739L1500.7 691.847ZM1597.73 741.041L1597.28 741.933L1598.17 742.385L1598.62 741.493L1597.73 741.041ZM1627.77 703.205L1628.41 703.971L1627.77 703.205ZM1670.51 679.888L1670.21 678.933L1670.51 679.888ZM1767.12 688.255L1766.67 689.147L1767.56 689.599L1768.01 688.707L1767.12 688.255ZM1769 684.548L1769.45 683.656L1768.56 683.203L1768.11 684.095L1769 684.548ZM1769 684.548L1768.55 685.44L1769.44 685.892L1769.89 685L1769 684.548ZM1818.2 587.518L1819.09 587.971L1819.54 587.079L1818.65 586.626L1818.2 587.518ZM1780.36 557.479L1781.13 556.836L1780.36 557.479ZM1757.04 514.739L1756.09 515.037L1757.04 514.739ZM1751.79 465.806L1752.79 465.892L1751.79 465.806ZM1765.41 418.129L1766.3 418.581L1766.75 417.689L1765.86 417.237L1765.41 418.129ZM1671.08 370.301L1671.53 369.409L1670.64 368.957L1670.18 369.849L1671.08 370.301ZM1645.81 458.751L1644.82 458.665L1645.81 458.751ZM1655.55 549.531L1656.51 549.233L1655.55 549.531ZM1663.48 570.563C1654 572.279 1644.63 574.575 1635.42 577.443L1636.02 579.353C1645.14 576.509 1654.43 574.233 1663.83 572.531L1663.48 570.563ZM1635.42 577.443C1606.12 586.576 1579.06 601.338 1555.79 620.89L1557.07 622.421C1580.14 603.042 1606.96 588.407 1636.02 579.353L1635.42 577.443ZM1555.79 620.89C1532.52 640.442 1513.5 664.399 1499.81 691.395L1501.59 692.299C1515.16 665.545 1534.01 641.801 1557.07 622.421L1555.79 620.89ZM1500.25 692.739L1597.28 741.933L1598.18 740.149L1501.15 690.955L1500.25 692.739ZM1598.62 741.493C1605.91 727.127 1616.03 714.377 1628.41 703.971L1627.13 702.44C1614.54 713.019 1604.25 725.982 1596.84 740.588L1598.62 741.493ZM1628.41 703.971C1640.8 693.565 1655.2 685.705 1670.81 680.843L1670.21 678.933C1654.36 683.874 1639.72 691.861 1627.13 702.44L1628.41 703.971ZM1670.81 680.843C1686.41 675.98 1702.91 674.21 1719.36 675.634L1719.53 673.642C1702.83 672.195 1686.07 673.993 1670.21 678.933L1670.81 680.843ZM1719.36 675.634C1735.81 677.059 1751.88 681.65 1766.67 689.147L1767.57 687.363C1752.56 679.751 1736.23 675.088 1719.53 673.642L1719.36 675.634ZM1768.01 688.707L1769.89 685L1768.11 684.095L1766.23 687.803L1768.01 688.707ZM1768.55 685.44C1768.55 685.44 1768.55 685.44 1768.55 685.44C1768.55 685.44 1768.55 685.44 1768.55 685.44C1768.55 685.44 1768.55 685.44 1768.55 685.44C1768.55 685.44 1768.55 685.44 1768.55 685.44C1768.55 685.44 1768.55 685.44 1768.55 685.44C1768.55 685.44 1768.55 685.44 1768.55 685.44C1768.55 685.44 1768.55 685.44 1768.55 685.44C1768.55 685.44 1768.55 685.44 1768.55 685.44C1768.55 685.44 1768.55 685.44 1768.55 685.44C1768.55 685.44 1768.55 685.44 1768.55 685.44C1768.55 685.44 1768.55 685.44 1768.55 685.44C1768.55 685.44 1768.55 685.44 1768.55 685.44C1768.55 685.44 1768.55 685.44 1768.55 685.44C1768.55 685.44 1768.55 685.44 1768.55 685.44C1768.55 685.44 1768.55 685.44 1768.55 685.44C1768.55 685.44 1768.55 685.44 1768.55 685.44C1768.55 685.44 1768.55 685.44 1768.55 685.44C1768.55 685.44 1768.55 685.44 1768.55 685.44C1768.55 685.44 1768.55 685.44 1768.55 685.44C1768.55 685.44 1768.55 685.44 1768.55 685.44C1768.55 685.44 1768.55 685.44 1768.55 685.44C1768.55 685.44 1768.55 685.44 1768.55 685.44C1768.55 685.44 1768.55 685.44 1768.55 685.44C1768.55 685.44 1768.55 685.44 1768.55 685.44C1768.55 685.44 1768.55 685.44 1768.55 685.44C1768.55 685.44 1768.55 685.44 1768.55 685.44C1768.55 685.44 1768.55 685.44 1768.55 685.44C1768.55 685.44 1768.55 685.44 1768.55 685.44C1768.55 685.44 1768.55 685.44 1768.55 685.44C1768.55 685.44 1768.55 685.44 1768.55 685.44C1768.55 685.44 1768.55 685.44 1768.55 685.44C1768.55 685.44 1768.55 685.44 1768.55 685.44C1768.55 685.44 1768.55 685.44 1768.55 685.44C1768.55 685.44 1768.55 685.44 1768.55 685.44C1768.55 685.44 1768.55 685.44 1768.55 685.44C1768.55 685.44 1768.55 685.44 1768.55 685.44C1768.55 685.44 1768.55 685.44 1768.55 685.44C1768.55 685.44 1768.55 685.44 1768.55 685.44C1768.55 685.44 1768.55 685.44 1768.55 685.44C1768.55 685.44 1768.55 685.44 1768.55 685.44C1768.55 685.44 1768.55 685.44 1768.55 685.44C1768.55 685.44 1768.55 685.44 1768.55 685.44C1768.55 685.44 1768.55 685.44 1768.55 685.44C1768.55 685.44 1768.55 685.44 1768.55 685.44C1768.55 685.44 1768.55 685.44 1768.55 685.44C1768.55 685.44 1768.55 685.44 1768.55 685.44C1768.55 685.44 1768.55 685.44 1768.55 685.44C1768.55 685.44 1768.55 685.44 1768.55 685.44C1768.55 685.44 1768.55 685.44 1768.55 685.44C1768.55 685.44 1768.55 685.44 1768.55 685.44C1768.55 685.44 1768.55 685.44 1768.55 685.44C1768.55 685.44 1768.55 685.44 1768.55 685.44C1768.55 685.44 1768.55 685.44 1768.55 685.44C1768.55 685.44 1768.55 685.44 1768.55 685.44C1768.55 685.44 1768.55 685.44 1768.55 685.44C1768.55 685.44 1768.55 685.44 1768.55 685.44C1768.55 685.44 1768.55 685.44 1768.55 685.44C1768.55 685.44 1768.55 685.44 1768.55 685.44C1768.55 685.44 1768.55 685.44 1768.55 685.44C1768.55 685.44 1768.55 685.44 1768.55 685.44C1768.55 685.44 1768.55 685.44 1768.55 685.44C1768.55 685.44 1768.55 685.44 1768.55 685.44C1768.55 685.44 1768.55 685.44 1768.55 685.44C1768.55 685.44 1768.55 685.44 1768.55 685.44C1768.55 685.44 1768.55 685.44 1768.55 685.44C1768.55 685.44 1768.55 685.44 1768.55 685.44C1768.55 685.44 1768.55 685.44 1768.55 685.44C1768.55 685.44 1768.55 685.44 1768.55 685.44C1768.55 685.44 1768.55 685.44 1768.55 685.44C1768.55 685.44 1768.55 685.44 1768.55 685.44C1768.55 685.44 1768.55 685.44 1768.55 685.44C1768.55 685.44 1768.55 685.44 1768.55 685.44C1768.55 685.44 1768.55 685.44 1768.55 685.44C1768.55 685.44 1768.55 685.44 1768.55 685.44C1768.55 685.44 1768.55 685.44 1768.55 685.44C1768.55 685.44 1768.55 685.44 1768.55 685.44C1768.55 685.44 1768.55 685.44 1768.55 685.44C1768.55 685.44 1768.55 685.44 1768.55 685.44C1768.55 685.44 1768.55 685.44 1768.55 685.44C1768.55 685.44 1768.55 685.44 1768.55 685.44C1768.55 685.44 1768.55 685.44 1768.55 685.44C1768.55 685.44 1768.55 685.44 1768.55 685.44C1768.55 685.44 1768.55 685.44 1768.55 685.44C1768.55 685.44 1768.55 685.44 1768.55 685.44C1768.55 685.44 1768.55 685.44 1768.55 685.44C1768.55 685.44 1768.55 685.44 1768.55 685.44C1768.55 685.44 1768.55 685.44 1768.55 685.44C1768.55 685.44 1768.55 685.44 1768.55 685.44C1768.55 685.44 1768.55 685.44 1768.55 685.44C1768.55 685.44 1768.55 685.44 1768.55 685.44C1768.55 685.44 1768.55 685.44 1768.55 685.44C1768.55 685.44 1768.55 685.44 1768.55 685.44C1768.55 685.44 1768.55 685.44 1768.55 685.44C1768.55 685.44 1768.55 685.44 1768.55 685.44C1768.55 685.44 1768.55 685.44 1768.55 685.44C1768.55 685.44 1768.55 685.44 1768.55 685.44C1768.55 685.44 1768.55 685.44 1768.55 685.44C1768.55 685.44 1768.55 685.44 1768.55 685.44C1768.55 685.44 1768.55 685.44 1768.55 685.44C1768.55 685.44 1768.55 685.44 1768.55 685.44C1768.55 685.44 1768.55 685.44 1768.55 685.44C1768.55 685.44 1768.55 685.44 1768.55 685.44C1768.55 685.44 1768.55 685.44 1768.55 685.44C1768.55 685.44 1768.55 685.44 1768.55 685.44C1768.55 685.44 1768.55 685.44 1768.55 685.44C1768.55 685.44 1768.55 685.44 1768.55 685.44C1768.55 685.44 1768.55 685.44 1768.55 685.44C1768.55 685.44 1768.55 685.44 1768.55 685.44C1768.55 685.44 1768.55 685.44 1768.55 685.44C1768.55 685.44 1768.55 685.44 1768.55 685.44C1768.55 685.44 1768.55 685.44 1768.55 685.44C1768.55 685.44 1768.55 685.44 1768.55 685.44C1768.55 685.44 1768.55 685.44 1768.55 685.44C1768.55 685.44 1768.55 685.44 1768.55 685.44C1768.55 685.44 1768.55 685.44 1768.55 685.44C1768.55 685.44 1768.55 685.44 1768.55 685.44C1768.55 685.44 1768.55 685.44 1768.55 685.44C1768.55 685.44 1768.55 685.44 1768.55 685.44C1768.55 685.44 1768.55 685.44 1768.55 685.44C1768.55 685.44 1768.55 685.44 1768.55 685.44C1768.55 685.44 1768.55 685.44 1768.55 685.44C1768.55 685.44 1768.55 685.44 1768.55 685.44C1768.55 685.44 1768.55 685.44 1768.55 685.44C1768.55 685.44 1768.55 685.44 1768.55 685.44C1768.55 685.44 1768.55 685.44 1768.55 685.44C1768.55 685.44 1768.55 685.44 1768.55 685.44C1768.55 685.44 1768.55 685.44 1768.55 685.44C1768.55 685.44 1768.55 685.44 1768.55 685.44C1768.55 685.44 1768.55 685.44 1768.55 685.44C1768.55 685.44 1768.55 685.44 1768.55 685.44C1768.55 685.44 1768.55 685.44 1768.55 685.44C1768.55 685.44 1768.55 685.44 1768.55 685.44C1768.55 685.44 1768.55 685.44 1768.55 685.44C1768.55 685.44 1768.55 685.44 1768.55 685.44C1768.55 685.44 1768.55 685.44 1768.55 685.44C1768.55 685.44 1768.55 685.44 1768.55 685.44C1768.55 685.44 1768.55 685.44 1768.55 685.44C1768.55 685.44 1768.55 685.44 1768.55 685.44C1768.55 685.44 1768.55 685.44 1768.55 685.44C1768.55 685.44 1768.55 685.44 1768.55 685.44C1768.55 685.44 1768.55 685.44 1768.55 685.44C1768.55 685.44 1768.55 685.44 1768.55 685.44C1768.55 685.44 1768.55 685.44 1768.55 685.44C1768.55 685.44 1768.55 685.44 1768.55 685.44C1768.55 685.44 1768.55 685.44 1768.55 685.44C1768.55 685.44 1768.55 685.44 1768.55 685.44C1768.55 685.44 1768.55 685.44 1768.55 685.44C1768.55 685.44 1768.55 685.44 1768.55 685.44C1768.55 685.44 1768.55 685.44 1768.55 685.44C1768.55 685.44 1768.55 685.44 1768.55 685.44C1768.55 685.44 1768.55 685.44 1768.55 685.44C1768.55 685.44 1768.55 685.44 1768.55 685.44C1768.55 685.44 1768.55 685.44 1768.55 685.44C1768.55 685.44 1768.55 685.44 1768.55 685.44C1768.55 685.44 1768.55 685.44 1768.55 685.44C1768.55 685.44 1768.55 685.44 1768.55 685.44C1768.55 685.44 1768.55 685.44 1768.55 685.44C1768.55 685.44 1768.55 685.44 1768.55 685.44C1768.55 685.44 1768.55 685.44 1768.55 685.44C1768.55 685.44 1768.55 685.44 1768.55 685.44C1768.55 685.44 1768.55 685.44 1768.55 685.44C1768.55 685.44 1768.55 685.44 1768.55 685.44C1768.55 685.44 1768.55 685.44 1768.55 685.44C1768.55 685.44 1768.55 685.44 1768.55 685.44C1768.55 685.44 1768.55 685.44 1768.55 685.44C1768.55 685.44 1768.55 685.44 1768.55 685.44C1768.55 685.44 1768.55 685.44 1768.55 685.44C1768.55 685.44 1768.55 685.44 1768.55 685.44C1768.55 685.44 1768.55 685.44 1768.55 685.44C1768.55 685.44 1768.55 685.44 1768.55 685.44C1768.55 685.44 1768.55 685.44 1768.55 685.44C1768.55 685.44 1768.55 685.44 1768.55 685.44C1768.55 685.44 1768.55 685.44 1768.55 685.44C1768.55 685.44 1768.55 685.44 1768.55 685.44C1768.55 685.44 1768.55 685.44 1768.55 685.44C1768.55 685.44 1768.55 685.44 1768.55 685.44C1768.55 685.44 1768.55 685.44 1768.55 685.44C1768.55 685.44 1768.55 685.44 1768.55 685.44C1768.55 685.44 1768.55 685.44 1768.55 685.44C1768.55 685.44 1768.55 685.44 1768.55 685.44C1768.55 685.44 1768.55 685.44 1768.55 685.44C1768.55 685.44 1768.55 685.44 1768.55 685.44C1768.55 685.44 1768.55 685.44 1768.55 685.44C1768.55 685.44 1768.55 685.44 1768.55 685.44C1768.55 685.44 1768.55 685.44 1768.55 685.44C1768.55 685.44 1768.55 685.44 1768.55 685.44C1768.55 685.44 1768.55 685.44 1768.55 685.44C1768.55 685.44 1768.55 685.44 1768.55 685.44C1768.55 685.44 1768.55 685.44 1768.55 685.44C1768.55 685.44 1768.55 685.44 1768.55 685.44C1768.55 685.44 1768.55 685.44 1768.55 685.44C1768.55 685.44 1768.55 685.44 1768.55 685.44C1768.55 685.44 1768.55 685.44 1768.55 685.44C1768.55 685.44 1768.55 685.44 1768.55 685.44C1768.55 685.44 1768.55 685.44 1768.55 685.44C1768.55 685.44 1768.55 685.44 1768.55 685.44C1768.55 685.44 1768.55 685.44 1768.55 685.44C1768.55 685.44 1768.55 685.44 1768.55 685.44C1768.55 685.44 1768.55 685.44 1768.55 685.44C1768.55 685.44 1768.55 685.44 1768.55 685.44C1768.55 685.44 1768.55 685.44 1768.55 685.44C1768.55 685.44 1768.55 685.44 1768.55 685.44C1768.55 685.44 1768.55 685.44 1768.55 685.44C1768.55 685.44 1768.55 685.44 1768.55 685.44C1768.55 685.44 1768.55 685.44 1768.55 685.44C1768.55 685.44 1768.55 685.44 1768.55 685.44C1768.55 685.44 1768.55 685.44 1768.55 685.44C1768.55 685.44 1768.55 685.44 1768.55 685.44C1768.55 685.44 1768.55 685.44 1768.55 685.44C1768.55 685.44 1768.55 685.44 1768.55 685.44C1768.55 685.44 1768.55 685.44 1768.55 685.44C1768.55 685.44 1768.55 685.44 1768.55 685.44C1768.55 685.44 1768.55 685.44 1768.55 685.44C1768.55 685.44 1768.55 685.44 1768.55 685.44C1768.55 685.44 1768.55 685.44 1768.55 685.44C1768.55 685.44 1768.55 685.44 1768.55 685.44C1768.55 685.44 1768.55 685.44 1768.55 685.44C1768.55 685.44 1768.55 685.44 1768.55 685.44C1768.55 685.44 1768.55 685.44 1768.55 685.44C1768.55 685.44 1768.55 685.44 1768.55 685.44C1768.55 685.44 1768.55 685.44 1768.55 685.44C1768.55 685.44 1768.55 685.44 1768.55 685.44C1768.55 685.44 1768.55 685.44 1768.55 685.44C1768.55 685.44 1768.55 685.44 1768.55 685.44C1768.55 685.44 1768.55 685.44 1768.55 685.44C1768.55 685.44 1768.55 685.44 1768.55 685.44C1768.55 685.44 1768.55 685.44 1768.55 685.44C1768.55 685.44 1768.55 685.44 1768.55 685.44C1768.55 685.44 1768.55 685.44 1768.55 685.44C1768.55 685.44 1768.55 685.44 1768.55 685.44C1768.55 685.44 1768.55 685.44 1768.55 685.44C1768.55 685.44 1768.55 685.44 1768.55 685.44C1768.55 685.44 1768.55 685.44 1768.55 685.44C1768.55 685.44 1768.55 685.44 1768.55 685.44C1768.55 685.44 1768.55 685.44 1768.55 685.44C1768.55 685.44 1768.55 685.44 1768.55 685.44C1768.55 685.44 1768.55 685.44 1768.55 685.44C1768.55 685.44 1768.55 685.44 1768.55 685.44C1768.55 685.44 1768.55 685.44 1768.55 685.44C1768.55 685.44 1768.55 685.44 1768.55 685.44C1768.55 685.44 1768.55 685.44 1768.55 685.44C1768.55 685.44 1768.55 685.44 1768.55 685.44C1768.55 685.44 1768.55 685.44 1768.55 685.44C1768.55 685.44 1768.55 685.44 1768.55 685.44C1768.55 685.44 1768.55 685.44 1768.55 685.44C1768.55 685.44 1768.55 685.44 1768.55 685.44C1768.55 685.44 1768.55 685.44 1768.55 685.44C1768.55 685.44 1768.55 685.44 1768.55 685.44C1768.55 685.44 1768.55 685.44 1768.55 685.44C1768.55 685.44 1768.55 685.44 1768.55 685.44C1768.55 685.44 1768.55 685.44 1768.55 685.44C1768.55 685.44 1768.55 685.44 1768.55 685.44C1768.55 685.44 1768.55 685.44 1768.55 685.44C1768.55 685.44 1768.55 685.44 1768.55 685.44C1768.55 685.44 1768.55 685.44 1768.55 685.44C1768.55 685.44 1768.55 685.44 1768.55 685.44C1768.55 685.44 1768.55 685.44 1768.55 685.44C1768.55 685.44 1768.55 685.44 1768.55 685.44C1768.55 685.44 1768.55 685.44 1768.55 685.44C1768.55 685.44 1768.55 685.44 1768.55 685.44C1768.55 685.44 1768.55 685.44 1768.55 685.44C1768.55 685.44 1768.55 685.44 1768.55 685.44C1768.55 685.44 1768.55 685.44 1768.55 685.44C1768.55 685.44 1768.55 685.44 1768.55 685.44C1768.55 685.44 1768.55 685.44 1768.55 685.44C1768.55 685.44 1768.55 685.44 1768.55 685.44C1768.55 685.44 1768.55 685.44 1768.55 685.44C1768.55 685.44 1768.55 685.44 1768.55 685.44C1768.55 685.44 1768.55 685.44 1768.55 685.44C1768.55 685.44 1768.55 685.44 1768.55 685.44C1768.55 685.44 1768.55 685.44 1768.55 685.44C1768.55 685.44 1768.55 685.44 1768.55 685.44C1768.55 685.44 1768.55 685.44 1768.55 685.44C1768.55 685.44 1768.55 685.44 1768.55 685.44C1768.55 685.44 1768.55 685.44 1768.55 685.44C1768.55 685.44 1768.55 685.44 1768.55 685.44C1768.55 685.44 1768.55 685.44 1768.55 685.44C1768.55 685.44 1768.55 685.44 1768.55 685.44C1768.55 685.44 1768.55 685.44 1768.55 685.44C1768.55 685.44 1768.55 685.44 1768.55 685.44C1768.55 685.44 1768.55 685.44 1768.55 685.44C1768.55 685.44 1768.55 685.44 1768.55 685.44C1768.55 685.44 1768.55 685.44 1768.55 685.44C1768.55 685.44 1768.55 685.44 1768.55 685.44C1768.55 685.44 1768.55 685.44 1768.55 685.44C1768.55 685.44 1768.55 685.44 1768.55 685.44C1768.55 685.44 1768.55 685.44 1768.55 685.44C1768.55 685.44 1768.55 685.44 1768.55 685.44C1768.55 685.44 1768.55 685.44 1768.55 685.44C1768.55 685.44 1768.55 685.44 1768.55 685.44C1768.55 685.44 1768.55 685.44 1768.55 685.44C1768.55 685.44 1768.55 685.44 1768.55 685.44C1768.55 685.44 1768.55 685.44 1768.55 685.44C1768.55 685.44 1768.55 685.44 1768.55 685.44C1768.55 685.44 1768.55 685.44 1768.55 685.44C1768.55 685.44 1768.55 685.44 1768.55 685.44C1768.55 685.44 1768.55 685.44 1768.55 685.44C1768.55 685.44 1768.55 685.44 1768.55 685.44C1768.55 685.44 1768.55 685.44 1768.55 685.44C1768.55 685.44 1768.55 685.44 1768.55 685.44C1768.55 685.44 1768.55 685.44 1768.55 685.44C1768.55 685.44 1768.55 685.44 1768.55 685.44C1768.55 685.44 1768.55 685.44 1768.55 685.44C1768.55 685.44 1768.55 685.44 1768.55 685.44C1768.55 685.44 1768.55 685.44 1768.55 685.44C1768.55 685.44 1768.55 685.44 1768.55 685.44C1768.55 685.44 1768.55 685.44 1768.55 685.44C1768.55 685.44 1768.55 685.44 1768.55 685.44C1768.55 685.44 1768.55 685.44 1768.55 685.44C1768.55 685.44 1768.55 685.44 1768.55 685.44C1768.55 685.44 1768.55 685.44 1768.55 685.44C1768.55 685.44 1768.55 685.44 1768.55 685.44C1768.55 685.44 1768.55 685.44 1768.55 685.44C1768.55 685.44 1768.55 685.44 1768.55 685.44C1768.55 685.44 1768.55 685.44 1768.55 685.44C1768.55 685.44 1768.55 685.44 1768.55 685.44C1768.55 685.44 1768.55 685.44 1768.55 685.44C1768.55 685.44 1768.55 685.44 1768.55 685.44C1768.55 685.44 1768.55 685.44 1768.55 685.44C1768.55 685.44 1768.55 685.44 1768.55 685.44C1768.55 685.44 1768.55 685.44 1768.55 685.44C1768.55 685.44 1768.55 685.44 1768.55 685.44C1768.55 685.44 1768.55 685.44 1768.55 685.44C1768.55 685.44 1768.55 685.44 1768.55 685.44C1768.55 685.44 1768.55 685.44 1768.55 685.44C1768.55 685.44 1768.55 685.44 1768.55 685.44C1768.55 685.44 1768.55 685.44 1768.55 685.44C1768.55 685.44 1768.55 685.44 1768.55 685.44C1768.55 685.44 1768.55 685.44 1768.55 685.44C1768.55 685.44 1768.55 685.44 1768.55 685.44C1768.55 685.44 1768.55 685.44 1768.55 685.44C1768.55 685.44 1768.55 685.44 1768.55 685.44C1768.55 685.44 1768.55 685.44 1768.55 685.44C1768.55 685.44 1768.55 685.44 1768.55 685.44C1768.55 685.44 1768.55 685.44 1768.55 685.44C1768.55 685.44 1768.55 685.44 1768.55 685.44C1768.55 685.44 1768.55 685.44 1768.55 685.44C1768.55 685.44 1768.55 685.44 1768.55 685.44C1768.55 685.44 1768.55 685.44 1768.55 685.44C1768.55 685.44 1768.55 685.44 1768.55 685.44C1768.55 685.44 1768.55 685.44 1768.55 685.44C1768.55 685.44 1768.55 685.44 1768.55 685.44C1768.55 685.44 1768.55 685.44 1768.55 685.44C1768.55 685.44 1768.55 685.44 1768.55 685.44C1768.55 685.44 1768.55 685.44 1768.55 685.44C1768.55 685.44 1768.55 685.44 1768.55 685.44C1768.55 685.44 1768.55 685.44 1768.55 685.44C1768.55 685.44 1768.55 685.44 1768.55 685.44C1768.55 685.44 1768.55 685.44 1768.55 685.44C1768.55 685.44 1768.55 685.44 1768.55 685.44C1768.55 685.44 1768.55 685.44 1768.55 685.44C1768.55 685.44 1768.55 685.44 1768.55 685.44C1768.55 685.44 1768.55 685.44 1768.55 685.44C1768.55 685.44 1768.55 685.44 1768.55 685.44C1768.55 685.44 1768.55 685.44 1768.55 685.44C1768.55 685.44 1768.55 685.44 1768.55 685.44C1768.55 685.44 1768.55 685.44 1768.55 685.44C1768.55 685.44 1768.55 685.44 1768.55 685.44C1768.55 685.44 1768.55 685.44 1768.55 685.44C1768.55 685.44 1768.55 685.44 1768.55 685.44C1768.55 685.44 1768.55 685.44 1768.55 685.44C1768.55 685.44 1768.55 685.44 1768.55 685.44C1768.55 685.44 1768.55 685.44 1768.55 685.44C1768.55 685.44 1768.55 685.44 1768.55 685.44C1768.55 685.44 1768.55 685.44 1768.55 685.44C1768.55 685.44 1768.55 685.44 1768.55 685.44C1768.55 685.44 1768.55 685.44 1768.55 685.44C1768.55 685.44 1768.55 685.44 1768.55 685.44C1768.55 685.44 1768.55 685.44 1768.55 685.44C1768.55 685.44 1768.55 685.44 1768.55 685.44C1768.55 685.44 1768.55 685.44 1768.55 685.44C1768.55 685.44 1768.55 685.44 1768.55 685.44C1768.55 685.44 1768.55 685.44 1768.55 685.44C1768.55 685.44 1768.55 685.44 1768.55 685.44C1768.55 685.44 1768.55 685.44 1768.55 685.44C1768.55 685.44 1768.55 685.44 1768.55 685.44C1768.55 685.44 1768.55 685.44 1768.55 685.44C1768.55 685.44 1768.55 685.44 1768.55 685.44C1768.55 685.44 1768.55 685.44 1768.55 685.44C1768.55 685.44 1768.55 685.44 1768.55 685.44C1768.55 685.44 1768.55 685.44 1768.55 685.44C1768.55 685.44 1768.55 685.44 1768.55 685.44C1768.55 685.44 1768.55 685.44 1768.55 685.44C1768.55 685.44 1768.55 685.44 1768.55 685.44C1768.55 685.44 1768.55 685.44 1768.55 685.44C1768.55 685.44 1768.55 685.44 1768.55 685.44C1768.55 685.44 1768.55 685.44 1768.55 685.44C1768.55 685.44 1768.55 685.44 1768.55 685.44C1768.55 685.44 1768.55 685.44 1768.55 685.44C1768.55 685.44 1768.55 685.44 1768.55 685.44C1768.55 685.44 1768.55 685.44 1768.55 685.44C1768.55 685.44 1768.55 685.44 1768.55 685.44C1768.55 685.44 1768.55 685.44 1768.55 685.44C1768.55 685.44 1768.55 685.44 1768.55 685.44C1768.55 685.44 1768.55 685.44 1768.55 685.44C1768.55 685.44 1768.55 685.44 1768.55 685.44C1768.55 685.44 1768.55 685.44 1768.55 685.44C1768.55 685.44 1768.55 685.44 1768.55 685.44C1768.55 685.44 1768.55 685.44 1768.55 685.44C1768.55 685.44 1768.55 685.44 1768.55 685.44C1768.55 685.44 1768.55 685.44 1768.55 685.44C1768.55 685.44 1768.55 685.44 1768.55 685.44C1768.55 685.44 1768.55 685.44 1768.55 685.44C1768.55 685.44 1768.55 685.44 1768.55 685.44C1768.55 685.44 1768.55 685.44 1768.55 685.44C1768.55 685.44 1768.55 685.44 1768.55 685.44C1768.55 685.44 1768.55 685.44 1768.55 685.44C1768.55 685.44 1768.55 685.44 1768.55 685.44C1768.55 685.44 1768.55 685.44 1768.55 685.44C1768.55 685.44 1768.55 685.44 1768.55 685.44C1768.55 685.44 1768.55 685.44 1768.55 685.44C1768.55 685.44 1768.55 685.44 1768.55 685.44C1768.55 685.44 1768.55 685.44 1768.55 685.44C1768.55 685.44 1768.55 685.44 1768.55 685.44C1768.55 685.44 1768.55 685.44 1768.55 685.44C1768.55 685.44 1768.55 685.44 1768.55 685.44C1768.55 685.44 1768.55 685.44 1768.55 685.44C1768.55 685.44 1768.55 685.44 1768.55 685.44C1768.55 685.44 1768.55 685.44 1768.55 685.44C1768.55 685.44 1768.55 685.44 1768.55 685.44C1768.55 685.44 1768.55 685.44 1768.55 685.44C1768.55 685.44 1768.55 685.44 1768.55 685.44C1768.55 685.44 1768.55 685.44 1768.55 685.44C1768.55 685.44 1768.55 685.44 1768.55 685.44C1768.55 685.44 1768.55 685.44 1768.55 685.44C1768.55 685.44 1768.55 685.44 1768.55 685.44C1768.55 685.44 1768.55 685.44 1768.55 685.44C1768.55 685.44 1768.55 685.44 1768.55 685.44C1768.55 685.44 1768.55 685.44 1768.55 685.44C1768.55 685.44 1768.55 685.44 1768.55 685.44C1768.55 685.44 1768.55 685.44 1768.55 685.44C1768.55 685.44 1768.55 685.44 1768.55 685.44C1768.55 685.44 1768.55 685.44 1768.55 685.44C1768.55 685.44 1768.55 685.44 1768.55 685.44C1768.55 685.44 1768.55 685.44 1768.55 685.44C1768.55 685.44 1768.55 685.44 1768.55 685.44C1768.55 685.44 1768.55 685.44 1768.55 685.44C1768.55 685.44 1768.55 685.44 1768.55 685.44C1768.55 685.44 1768.55 685.44 1768.55 685.44C1768.55 685.44 1768.55 685.44 1768.55 685.44C1768.55 685.44 1768.55 685.44 1768.55 685.44C1768.55 685.44 1768.55 685.44 1768.55 685.44C1768.55 685.44 1768.55 685.44 1768.55 685.44C1768.55 685.44 1768.55 685.44 1768.55 685.44C1768.55 685.44 1768.55 685.44 1768.55 685.44C1768.55 685.44 1768.55 685.44 1768.55 685.44C1768.55 685.44 1768.55 685.44 1768.55 685.44C1768.55 685.44 1768.55 685.44 1768.55 685.44C1768.55 685.44 1768.55 685.44 1768.55 685.44C1768.55 685.44 1768.55 685.44 1768.55 685.44C1768.55 685.44 1768.55 685.44 1768.55 685.44C1768.55 685.44 1768.55 685.44 1768.55 685.44C1768.55 685.44 1768.55 685.44 1768.55 685.44C1768.55 685.44 1768.55 685.44 1768.55 685.44C1768.55 685.44 1768.55 685.44 1768.55 685.44C1768.55 685.44 1768.55 685.44 1768.55 685.44C1768.55 685.44 1768.55 685.44 1768.55 685.44C1768.55 685.44 1768.55 685.44 1768.55 685.44C1768.55 685.44 1768.55 685.44 1768.55 685.44C1768.55 685.44 1768.55 685.44 1768.55 685.44C1768.55 685.44 1768.55 685.44 1768.55 685.44C1768.55 685.44 1768.55 685.44 1768.55 685.44C1768.55 685.44 1768.55 685.44 1768.55 685.44C1768.55 685.44 1768.55 685.44 1768.55 685.44C1768.55 685.44 1768.55 685.44 1768.55 685.44C1768.55 685.44 1768.55 685.44 1768.55 685.44C1768.55 685.44 1768.55 685.44 1768.55 685.44C1768.55 685.44 1768.55 685.44 1768.55 685.44C1768.55 685.44 1768.55 685.44 1768.55 685.44C1768.55 685.44 1768.55 685.44 1768.55 685.44C1768.55 685.44 1768.55 685.44 1768.55 685.44C1768.55 685.44 1768.55 685.44 1768.55 685.44C1768.55 685.44 1768.55 685.44 1768.55 685.44C1768.55 685.44 1768.55 685.44 1768.55 685.44C1768.55 685.44 1768.55 685.44 1768.55 685.44C1768.55 685.44 1768.55 685.44 1768.55 685.44C1768.55 685.44 1768.55 685.44 1768.55 685.44C1768.55 685.44 1768.55 685.44 1768.55 685.44C1768.55 685.44 1768.55 685.44 1768.55 685.44C1768.55 685.44 1768.55 685.44 1768.55 685.44C1768.55 685.44 1768.55 685.44 1768.55 685.44C1768.55 685.44 1768.55 685.44 1768.55 685.44C1768.55 685.44 1768.55 685.44 1768.55 685.44C1768.55 685.44 1768.55 685.44 1768.55 685.44C1768.55 685.44 1768.55 685.44 1768.55 685.44C1768.55 685.44 1768.55 685.44 1768.55 685.44C1768.55 685.44 1768.55 685.44 1768.55 685.44C1768.55 685.44 1768.55 685.44 1768.55 685.44C1768.55 685.44 1768.55 685.44 1768.55 685.44C1768.55 685.44 1768.55 685.44 1768.55 685.44C1768.55 685.44 1768.55 685.44 1768.55 685.44C1768.55 685.44 1768.55 685.44 1768.55 685.44C1768.55 685.44 1768.55 685.44 1768.55 685.44C1768.55 685.44 1768.55 685.44 1768.55 685.44C1768.55 685.44 1768.55 685.44 1768.55 685.44C1768.55 685.44 1768.55 685.44 1768.55 685.44C1768.55 685.44 1768.55 685.44 1768.55 685.44C1768.55 685.44 1768.55 685.44 1768.55 685.44C1768.55 685.44 1768.55 685.44 1768.55 685.44C1768.55 685.44 1768.55 685.44 1768.55 685.44C1768.55 685.44 1768.55 685.44 1768.55 685.44C1768.55 685.44 1768.55 685.44 1768.55 685.44C1768.55 685.44 1768.55 685.44 1768.55 685.44C1768.55 685.44 1768.55 685.44 1768.55 685.44C1768.55 685.44 1768.55 685.44 1768.55 685.44C1768.55 685.44 1768.55 685.44 1768.55 685.44C1768.55 685.44 1768.55 685.44 1768.55 685.44C1768.55 685.44 1768.55 685.44 1768.55 685.44C1768.55 685.44 1768.55 685.44 1768.55 685.44C1768.55 685.44 1768.55 685.44 1768.55 685.44C1768.55 685.44 1768.55 685.44 1768.55 685.44C1768.55 685.44 1768.55 685.44 1768.55 685.44L1769.45 683.656C1769.45 683.656 1769.45 683.656 1769.45 683.656C1769.45 683.656 1769.45 683.656 1769.45 683.656C1769.45 683.656 1769.45 683.656 1769.45 683.656C1769.45 683.656 1769.45 683.656 1769.45 683.656C1769.45 683.656 1769.45 683.656 1769.45 683.656C1769.45 683.656 1769.45 683.656 1769.45 683.656C1769.45 683.656 1769.45 683.656 1769.45 683.656C1769.45 683.656 1769.45 683.656 1769.45 683.656C1769.45 683.656 1769.45 683.656 1769.45 683.656C1769.45 683.656 1769.45 683.656 1769.45 683.656C1769.45 683.656 1769.45 683.656 1769.45 683.656C1769.45 683.656 1769.45 683.656 1769.45 683.656C1769.45 683.656 1769.45 683.656 1769.45 683.656C1769.45 683.656 1769.45 683.656 1769.45 683.656C1769.45 683.656 1769.45 683.656 1769.45 683.656C1769.45 683.656 1769.45 683.656 1769.45 683.656C1769.45 683.656 1769.45 683.656 1769.45 683.656C1769.45 683.656 1769.45 683.656 1769.45 683.656C1769.45 683.656 1769.45 683.656 1769.45 683.656C1769.45 683.656 1769.45 683.656 1769.45 683.656C1769.45 683.656 1769.45 683.656 1769.45 683.656C1769.45 683.656 1769.45 683.656 1769.45 683.656C1769.45 683.656 1769.45 683.656 1769.45 683.656C1769.45 683.656 1769.45 683.656 1769.45 683.656C1769.45 683.656 1769.45 683.656 1769.45 683.656C1769.45 683.656 1769.45 683.656 1769.45 683.656C1769.45 683.656 1769.45 683.656 1769.45 683.656C1769.45 683.656 1769.45 683.656 1769.45 683.656C1769.45 683.656 1769.45 683.656 1769.45 683.656C1769.45 683.656 1769.45 683.656 1769.45 683.656C1769.45 683.656 1769.45 683.656 1769.45 683.656C1769.45 683.656 1769.45 683.656 1769.45 683.656C1769.45 683.656 1769.45 683.656 1769.45 683.656C1769.45 683.656 1769.45 683.656 1769.45 683.656C1769.45 683.656 1769.45 683.656 1769.45 683.656C1769.45 683.656 1769.45 683.656 1769.45 683.656C1769.45 683.656 1769.45 683.656 1769.45 683.656C1769.45 683.656 1769.45 683.656 1769.45 683.656C1769.45 683.656 1769.45 683.656 1769.45 683.656C1769.45 683.656 1769.45 683.656 1769.45 683.656C1769.45 683.656 1769.45 683.656 1769.45 683.656C1769.45 683.656 1769.45 683.656 1769.45 683.656C1769.45 683.656 1769.45 683.656 1769.45 683.656C1769.45 683.656 1769.45 683.656 1769.45 683.656C1769.45 683.656 1769.45 683.656 1769.45 683.656C1769.45 683.656 1769.45 683.656 1769.45 683.656C1769.45 683.656 1769.45 683.656 1769.45 683.656C1769.45 683.656 1769.45 683.656 1769.45 683.656C1769.45 683.656 1769.45 683.656 1769.45 683.656C1769.45 683.656 1769.45 683.656 1769.45 683.656C1769.45 683.656 1769.45 683.656 1769.45 683.656C1769.45 683.656 1769.45 683.656 1769.45 683.656C1769.45 683.656 1769.45 683.656 1769.45 683.656C1769.45 683.656 1769.45 683.656 1769.45 683.656C1769.45 683.656 1769.45 683.656 1769.45 683.656C1769.45 683.656 1769.45 683.656 1769.45 683.656C1769.45 683.656 1769.45 683.656 1769.45 683.656C1769.45 683.656 1769.45 683.656 1769.45 683.656C1769.45 683.656 1769.45 683.656 1769.45 683.656C1769.45 683.656 1769.45 683.656 1769.45 683.656C1769.45 683.656 1769.45 683.656 1769.45 683.656C1769.45 683.656 1769.45 683.656 1769.45 683.656C1769.45 683.656 1769.45 683.656 1769.45 683.656C1769.45 683.656 1769.45 683.656 1769.45 683.656C1769.45 683.656 1769.45 683.656 1769.45 683.656C1769.45 683.656 1769.45 683.656 1769.45 683.656C1769.45 683.656 1769.45 683.656 1769.45 683.656C1769.45 683.656 1769.45 683.656 1769.45 683.656C1769.45 683.656 1769.45 683.656 1769.45 683.656C1769.45 683.656 1769.45 683.656 1769.45 683.656C1769.45 683.656 1769.45 683.656 1769.45 683.656C1769.45 683.656 1769.45 683.656 1769.45 683.656C1769.45 683.656 1769.45 683.656 1769.45 683.656C1769.45 683.656 1769.45 683.656 1769.45 683.656C1769.45 683.656 1769.45 683.656 1769.45 683.656C1769.45 683.656 1769.45 683.656 1769.45 683.656C1769.45 683.656 1769.45 683.656 1769.45 683.656C1769.45 683.656 1769.45 683.656 1769.45 683.656C1769.45 683.656 1769.45 683.656 1769.45 683.656C1769.45 683.656 1769.45 683.656 1769.45 683.656C1769.45 683.656 1769.45 683.656 1769.45 683.656C1769.45 683.656 1769.45 683.656 1769.45 683.656C1769.45 683.656 1769.45 683.656 1769.45 683.656C1769.45 683.656 1769.45 683.656 1769.45 683.656C1769.45 683.656 1769.45 683.656 1769.45 683.656C1769.45 683.656 1769.45 683.656 1769.45 683.656C1769.45 683.656 1769.45 683.656 1769.45 683.656C1769.45 683.656 1769.45 683.656 1769.45 683.656C1769.45 683.656 1769.45 683.656 1769.45 683.656C1769.45 683.656 1769.45 683.656 1769.45 683.656C1769.45 683.656 1769.45 683.656 1769.45 683.656C1769.45 683.656 1769.45 683.656 1769.45 683.656C1769.45 683.656 1769.45 683.656 1769.45 683.656C1769.45 683.656 1769.45 683.656 1769.45 683.656C1769.45 683.656 1769.45 683.656 1769.45 683.656C1769.45 683.656 1769.45 683.656 1769.45 683.656C1769.45 683.656 1769.45 683.656 1769.45 683.656C1769.45 683.656 1769.45 683.656 1769.45 683.656C1769.45 683.656 1769.45 683.656 1769.45 683.656C1769.45 683.656 1769.45 683.656 1769.45 683.656C1769.45 683.656 1769.45 683.656 1769.45 683.656C1769.45 683.656 1769.45 683.656 1769.45 683.656C1769.45 683.656 1769.45 683.656 1769.45 683.656C1769.45 683.656 1769.45 683.656 1769.45 683.656C1769.45 683.656 1769.45 683.656 1769.45 683.656C1769.45 683.656 1769.45 683.656 1769.45 683.656C1769.45 683.656 1769.45 683.656 1769.45 683.656C1769.45 683.656 1769.45 683.656 1769.45 683.656C1769.45 683.656 1769.45 683.656 1769.45 683.656C1769.45 683.656 1769.45 683.656 1769.45 683.656C1769.45 683.656 1769.45 683.656 1769.45 683.656C1769.45 683.656 1769.45 683.656 1769.45 683.656C1769.45 683.656 1769.45 683.656 1769.45 683.656C1769.45 683.656 1769.45 683.656 1769.45 683.656C1769.45 683.656 1769.45 683.656 1769.45 683.656C1769.45 683.656 1769.45 683.656 1769.45 683.656C1769.45 683.656 1769.45 683.656 1769.45 683.656C1769.45 683.656 1769.45 683.656 1769.45 683.656C1769.45 683.656 1769.45 683.656 1769.45 683.656C1769.45 683.656 1769.45 683.656 1769.45 683.656C1769.45 683.656 1769.45 683.656 1769.45 683.656C1769.45 683.656 1769.45 683.656 1769.45 683.656C1769.45 683.656 1769.45 683.656 1769.45 683.656C1769.45 683.656 1769.45 683.656 1769.45 683.656C1769.45 683.656 1769.45 683.656 1769.45 683.656C1769.45 683.656 1769.45 683.656 1769.45 683.656C1769.45 683.656 1769.45 683.656 1769.45 683.656C1769.45 683.656 1769.45 683.656 1769.45 683.656C1769.45 683.656 1769.45 683.656 1769.45 683.656C1769.45 683.656 1769.45 683.656 1769.45 683.656C1769.45 683.656 1769.45 683.656 1769.45 683.656C1769.45 683.656 1769.45 683.656 1769.45 683.656C1769.45 683.656 1769.45 683.656 1769.45 683.656C1769.45 683.656 1769.45 683.656 1769.45 683.656C1769.45 683.656 1769.45 683.656 1769.45 683.656C1769.45 683.656 1769.45 683.656 1769.45 683.656C1769.45 683.656 1769.45 683.656 1769.45 683.656C1769.45 683.656 1769.45 683.656 1769.45 683.656C1769.45 683.656 1769.45 683.656 1769.45 683.656C1769.45 683.656 1769.45 683.656 1769.45 683.656C1769.45 683.656 1769.45 683.656 1769.45 683.656C1769.45 683.656 1769.45 683.656 1769.45 683.656C1769.45 683.656 1769.45 683.656 1769.45 683.656C1769.45 683.656 1769.45 683.656 1769.45 683.656C1769.45 683.656 1769.45 683.656 1769.45 683.656C1769.45 683.656 1769.45 683.656 1769.45 683.656C1769.45 683.656 1769.45 683.656 1769.45 683.656C1769.45 683.656 1769.45 683.656 1769.45 683.656C1769.45 683.656 1769.45 683.656 1769.45 683.656C1769.45 683.656 1769.45 683.656 1769.45 683.656C1769.45 683.656 1769.45 683.656 1769.45 683.656C1769.45 683.656 1769.45 683.656 1769.45 683.656C1769.45 683.656 1769.45 683.656 1769.45 683.656C1769.45 683.656 1769.45 683.656 1769.45 683.656C1769.45 683.656 1769.45 683.656 1769.45 683.656C1769.45 683.656 1769.45 683.656 1769.45 683.656C1769.45 683.656 1769.45 683.656 1769.45 683.656C1769.45 683.656 1769.45 683.656 1769.45 683.656C1769.45 683.656 1769.45 683.656 1769.45 683.656C1769.45 683.656 1769.45 683.656 1769.45 683.656C1769.45 683.656 1769.45 683.656 1769.45 683.656C1769.45 683.656 1769.45 683.656 1769.45 683.656C1769.45 683.656 1769.45 683.656 1769.45 683.656C1769.45 683.656 1769.45 683.656 1769.45 683.656C1769.45 683.656 1769.45 683.656 1769.45 683.656C1769.45 683.656 1769.45 683.656 1769.45 683.656C1769.45 683.656 1769.45 683.656 1769.45 683.656C1769.45 683.656 1769.45 683.656 1769.45 683.656C1769.45 683.656 1769.45 683.656 1769.45 683.656C1769.45 683.656 1769.45 683.656 1769.45 683.656C1769.45 683.656 1769.45 683.656 1769.45 683.656C1769.45 683.656 1769.45 683.656 1769.45 683.656C1769.45 683.656 1769.45 683.656 1769.45 683.656C1769.45 683.656 1769.45 683.656 1769.45 683.656C1769.45 683.656 1769.45 683.656 1769.45 683.656C1769.45 683.656 1769.45 683.656 1769.45 683.656C1769.45 683.656 1769.45 683.656 1769.45 683.656C1769.45 683.656 1769.45 683.656 1769.45 683.656C1769.45 683.656 1769.45 683.656 1769.45 683.656C1769.45 683.656 1769.45 683.656 1769.45 683.656C1769.45 683.656 1769.45 683.656 1769.45 683.656C1769.45 683.656 1769.45 683.656 1769.45 683.656C1769.45 683.656 1769.45 683.656 1769.45 683.656C1769.45 683.656 1769.45 683.656 1769.45 683.656C1769.45 683.656 1769.45 683.656 1769.45 683.656C1769.45 683.656 1769.45 683.656 1769.45 683.656C1769.45 683.656 1769.45 683.656 1769.45 683.656C1769.45 683.656 1769.45 683.656 1769.45 683.656C1769.45 683.656 1769.45 683.656 1769.45 683.656C1769.45 683.656 1769.45 683.656 1769.45 683.656C1769.45 683.656 1769.45 683.656 1769.45 683.656C1769.45 683.656 1769.45 683.656 1769.45 683.656C1769.45 683.656 1769.45 683.656 1769.45 683.656C1769.45 683.656 1769.45 683.656 1769.45 683.656C1769.45 683.656 1769.45 683.656 1769.45 683.656C1769.45 683.656 1769.45 683.656 1769.45 683.656C1769.45 683.656 1769.45 683.656 1769.45 683.656C1769.45 683.656 1769.45 683.656 1769.45 683.656C1769.45 683.656 1769.45 683.656 1769.45 683.656C1769.45 683.656 1769.45 683.656 1769.45 683.656C1769.45 683.656 1769.45 683.656 1769.45 683.656C1769.45 683.656 1769.45 683.656 1769.45 683.656C1769.45 683.656 1769.45 683.656 1769.45 683.656C1769.45 683.656 1769.45 683.656 1769.45 683.656C1769.45 683.656 1769.45 683.656 1769.45 683.656C1769.45 683.656 1769.45 683.656 1769.45 683.656C1769.45 683.656 1769.45 683.656 1769.45 683.656C1769.45 683.656 1769.45 683.656 1769.45 683.656C1769.45 683.656 1769.45 683.656 1769.45 683.656C1769.45 683.656 1769.45 683.656 1769.45 683.656C1769.45 683.656 1769.45 683.656 1769.45 683.656C1769.45 683.656 1769.45 683.656 1769.45 683.656C1769.45 683.656 1769.45 683.656 1769.45 683.656C1769.45 683.656 1769.45 683.656 1769.45 683.656C1769.45 683.656 1769.45 683.656 1769.45 683.656C1769.45 683.656 1769.45 683.656 1769.45 683.656C1769.45 683.656 1769.45 683.656 1769.45 683.656C1769.45 683.656 1769.45 683.656 1769.45 683.656C1769.45 683.656 1769.45 683.656 1769.45 683.656C1769.45 683.656 1769.45 683.656 1769.45 683.656C1769.45 683.656 1769.45 683.656 1769.45 683.656C1769.45 683.656 1769.45 683.656 1769.45 683.656C1769.45 683.656 1769.45 683.656 1769.45 683.656C1769.45 683.656 1769.45 683.656 1769.45 683.656C1769.45 683.656 1769.45 683.656 1769.45 683.656C1769.45 683.656 1769.45 683.656 1769.45 683.656C1769.45 683.656 1769.45 683.656 1769.45 683.656C1769.45 683.656 1769.45 683.656 1769.45 683.656C1769.45 683.656 1769.45 683.656 1769.45 683.656C1769.45 683.656 1769.45 683.656 1769.45 683.656C1769.45 683.656 1769.45 683.656 1769.45 683.656C1769.45 683.656 1769.45 683.656 1769.45 683.656C1769.45 683.656 1769.45 683.656 1769.45 683.656C1769.45 683.656 1769.45 683.656 1769.45 683.656C1769.45 683.656 1769.45 683.656 1769.45 683.656C1769.45 683.656 1769.45 683.656 1769.45 683.656C1769.45 683.656 1769.45 683.656 1769.45 683.656C1769.45 683.656 1769.45 683.656 1769.45 683.656C1769.45 683.656 1769.45 683.656 1769.45 683.656C1769.45 683.656 1769.45 683.656 1769.45 683.656C1769.45 683.656 1769.45 683.656 1769.45 683.656C1769.45 683.656 1769.45 683.656 1769.45 683.656C1769.45 683.656 1769.45 683.656 1769.45 683.656C1769.45 683.656 1769.45 683.656 1769.45 683.656C1769.45 683.656 1769.45 683.656 1769.45 683.656C1769.45 683.656 1769.45 683.656 1769.45 683.656C1769.45 683.656 1769.45 683.656 1769.45 683.656C1769.45 683.656 1769.45 683.656 1769.45 683.656C1769.45 683.656 1769.45 683.656 1769.45 683.656C1769.45 683.656 1769.45 683.656 1769.45 683.656C1769.45 683.656 1769.45 683.656 1769.45 683.656C1769.45 683.656 1769.45 683.656 1769.45 683.656C1769.45 683.656 1769.45 683.656 1769.45 683.656C1769.45 683.656 1769.45 683.656 1769.45 683.656C1769.45 683.656 1769.45 683.656 1769.45 683.656C1769.45 683.656 1769.45 683.656 1769.45 683.656C1769.45 683.656 1769.45 683.656 1769.45 683.656C1769.45 683.656 1769.45 683.656 1769.45 683.656C1769.45 683.656 1769.45 683.656 1769.45 683.656C1769.45 683.656 1769.45 683.656 1769.45 683.656C1769.45 683.656 1769.45 683.656 1769.45 683.656C1769.45 683.656 1769.45 683.656 1769.45 683.656C1769.45 683.656 1769.45 683.656 1769.45 683.656C1769.45 683.656 1769.45 683.656 1769.45 683.656C1769.45 683.656 1769.45 683.656 1769.45 683.656C1769.45 683.656 1769.45 683.656 1769.45 683.656C1769.45 683.656 1769.45 683.656 1769.45 683.656C1769.45 683.656 1769.45 683.656 1769.45 683.656C1769.45 683.656 1769.45 683.656 1769.45 683.656C1769.45 683.656 1769.45 683.656 1769.45 683.656C1769.45 683.656 1769.45 683.656 1769.45 683.656C1769.45 683.656 1769.45 683.656 1769.45 683.656C1769.45 683.656 1769.45 683.656 1769.45 683.656C1769.45 683.656 1769.45 683.656 1769.45 683.656C1769.45 683.656 1769.45 683.656 1769.45 683.656C1769.45 683.656 1769.45 683.656 1769.45 683.656C1769.45 683.656 1769.45 683.656 1769.45 683.656C1769.45 683.656 1769.45 683.656 1769.45 683.656C1769.45 683.656 1769.45 683.656 1769.45 683.656C1769.45 683.656 1769.45 683.656 1769.45 683.656C1769.45 683.656 1769.45 683.656 1769.45 683.656C1769.45 683.656 1769.45 683.656 1769.45 683.656C1769.45 683.656 1769.45 683.656 1769.45 683.656C1769.45 683.656 1769.45 683.656 1769.45 683.656C1769.45 683.656 1769.45 683.656 1769.45 683.656C1769.45 683.656 1769.45 683.656 1769.45 683.656C1769.45 683.656 1769.45 683.656 1769.45 683.656C1769.45 683.656 1769.45 683.656 1769.45 683.656C1769.45 683.656 1769.45 683.656 1769.45 683.656C1769.45 683.656 1769.45 683.656 1769.45 683.656C1769.45 683.656 1769.45 683.656 1769.45 683.656C1769.45 683.656 1769.45 683.656 1769.45 683.656C1769.45 683.656 1769.45 683.656 1769.45 683.656C1769.45 683.656 1769.45 683.656 1769.45 683.656C1769.45 683.656 1769.45 683.656 1769.45 683.656C1769.45 683.656 1769.45 683.656 1769.45 683.656C1769.45 683.656 1769.45 683.656 1769.45 683.656C1769.45 683.656 1769.45 683.656 1769.45 683.656C1769.45 683.656 1769.45 683.656 1769.45 683.656C1769.45 683.656 1769.45 683.656 1769.45 683.656C1769.45 683.656 1769.45 683.656 1769.45 683.656C1769.45 683.656 1769.45 683.656 1769.45 683.656C1769.45 683.656 1769.45 683.656 1769.45 683.656C1769.45 683.656 1769.45 683.656 1769.45 683.656C1769.45 683.656 1769.45 683.656 1769.45 683.656C1769.45 683.656 1769.45 683.656 1769.45 683.656C1769.45 683.656 1769.45 683.656 1769.45 683.656C1769.45 683.656 1769.45 683.656 1769.45 683.656C1769.45 683.656 1769.45 683.656 1769.45 683.656C1769.45 683.656 1769.45 683.656 1769.45 683.656C1769.45 683.656 1769.45 683.656 1769.45 683.656C1769.45 683.656 1769.45 683.656 1769.45 683.656C1769.45 683.656 1769.45 683.656 1769.45 683.656C1769.45 683.656 1769.45 683.656 1769.45 683.656C1769.45 683.656 1769.45 683.656 1769.45 683.656C1769.45 683.656 1769.45 683.656 1769.45 683.656C1769.45 683.656 1769.45 683.656 1769.45 683.656C1769.45 683.656 1769.45 683.656 1769.45 683.656C1769.45 683.656 1769.45 683.656 1769.45 683.656C1769.45 683.656 1769.45 683.656 1769.45 683.656C1769.45 683.656 1769.45 683.656 1769.45 683.656C1769.45 683.656 1769.45 683.656 1769.45 683.656C1769.45 683.656 1769.45 683.656 1769.45 683.656C1769.45 683.656 1769.45 683.656 1769.45 683.656C1769.45 683.656 1769.45 683.656 1769.45 683.656C1769.45 683.656 1769.45 683.656 1769.45 683.656C1769.45 683.656 1769.45 683.656 1769.45 683.656C1769.45 683.656 1769.45 683.656 1769.45 683.656C1769.45 683.656 1769.45 683.656 1769.45 683.656C1769.45 683.656 1769.45 683.656 1769.45 683.656C1769.45 683.656 1769.45 683.656 1769.45 683.656C1769.45 683.656 1769.45 683.656 1769.45 683.656C1769.45 683.656 1769.45 683.656 1769.45 683.656C1769.45 683.656 1769.45 683.656 1769.45 683.656C1769.45 683.656 1769.45 683.656 1769.45 683.656C1769.45 683.656 1769.45 683.656 1769.45 683.656C1769.45 683.656 1769.45 683.656 1769.45 683.656C1769.45 683.656 1769.45 683.656 1769.45 683.656C1769.45 683.656 1769.45 683.656 1769.45 683.656C1769.45 683.656 1769.45 683.656 1769.45 683.656C1769.45 683.656 1769.45 683.656 1769.45 683.656C1769.45 683.656 1769.45 683.656 1769.45 683.656C1769.45 683.656 1769.45 683.656 1769.45 683.656C1769.45 683.656 1769.45 683.656 1769.45 683.656C1769.45 683.656 1769.45 683.656 1769.45 683.656C1769.45 683.656 1769.45 683.656 1769.45 683.656C1769.45 683.656 1769.45 683.656 1769.45 683.656C1769.45 683.656 1769.45 683.656 1769.45 683.656C1769.45 683.656 1769.45 683.656 1769.45 683.656C1769.45 683.656 1769.45 683.656 1769.45 683.656C1769.45 683.656 1769.45 683.656 1769.45 683.656C1769.45 683.656 1769.45 683.656 1769.45 683.656C1769.45 683.656 1769.45 683.656 1769.45 683.656C1769.45 683.656 1769.45 683.656 1769.45 683.656C1769.45 683.656 1769.45 683.656 1769.45 683.656C1769.45 683.656 1769.45 683.656 1769.45 683.656C1769.45 683.656 1769.45 683.656 1769.45 683.656C1769.45 683.656 1769.45 683.656 1769.45 683.656C1769.45 683.656 1769.45 683.656 1769.45 683.656C1769.45 683.656 1769.45 683.656 1769.45 683.656C1769.45 683.656 1769.45 683.656 1769.45 683.656C1769.45 683.656 1769.45 683.656 1769.45 683.656C1769.45 683.656 1769.45 683.656 1769.45 683.656C1769.45 683.656 1769.45 683.656 1769.45 683.656C1769.45 683.656 1769.45 683.656 1769.45 683.656C1769.45 683.656 1769.45 683.656 1769.45 683.656C1769.45 683.656 1769.45 683.656 1769.45 683.656C1769.45 683.656 1769.45 683.656 1769.45 683.656C1769.45 683.656 1769.45 683.656 1769.45 683.656C1769.45 683.656 1769.45 683.656 1769.45 683.656C1769.45 683.656 1769.45 683.656 1769.45 683.656C1769.45 683.656 1769.45 683.656 1769.45 683.656C1769.45 683.656 1769.45 683.656 1769.45 683.656C1769.45 683.656 1769.45 683.656 1769.45 683.656C1769.45 683.656 1769.45 683.656 1769.45 683.656C1769.45 683.656 1769.45 683.656 1769.45 683.656C1769.45 683.656 1769.45 683.656 1769.45 683.656C1769.45 683.656 1769.45 683.656 1769.45 683.656C1769.45 683.656 1769.45 683.656 1769.45 683.656C1769.45 683.656 1769.45 683.656 1769.45 683.656C1769.45 683.656 1769.45 683.656 1769.45 683.656C1769.45 683.656 1769.45 683.656 1769.45 683.656C1769.45 683.656 1769.45 683.656 1769.45 683.656C1769.45 683.656 1769.45 683.656 1769.45 683.656C1769.45 683.656 1769.45 683.656 1769.45 683.656C1769.45 683.656 1769.45 683.656 1769.45 683.656C1769.45 683.656 1769.45 683.656 1769.45 683.656C1769.45 683.656 1769.45 683.656 1769.45 683.656C1769.45 683.656 1769.45 683.656 1769.45 683.656C1769.45 683.656 1769.45 683.656 1769.45 683.656C1769.45 683.656 1769.45 683.656 1769.45 683.656C1769.45 683.656 1769.45 683.656 1769.45 683.656C1769.45 683.656 1769.45 683.656 1769.45 683.656C1769.45 683.656 1769.45 683.656 1769.45 683.656C1769.45 683.656 1769.45 683.656 1769.45 683.656C1769.45 683.656 1769.45 683.656 1769.45 683.656C1769.45 683.656 1769.45 683.656 1769.45 683.656C1769.45 683.656 1769.45 683.656 1769.45 683.656C1769.45 683.656 1769.45 683.656 1769.45 683.656C1769.45 683.656 1769.45 683.656 1769.45 683.656C1769.45 683.656 1769.45 683.656 1769.45 683.656C1769.45 683.656 1769.45 683.656 1769.45 683.656C1769.45 683.656 1769.45 683.656 1769.45 683.656C1769.45 683.656 1769.45 683.656 1769.45 683.656C1769.45 683.656 1769.45 683.656 1769.45 683.656C1769.45 683.656 1769.45 683.656 1769.45 683.656C1769.45 683.656 1769.45 683.656 1769.45 683.656C1769.45 683.656 1769.45 683.656 1769.45 683.656C1769.45 683.656 1769.45 683.656 1769.45 683.656C1769.45 683.656 1769.45 683.656 1769.45 683.656C1769.45 683.656 1769.45 683.656 1769.45 683.656C1769.45 683.656 1769.45 683.656 1769.45 683.656C1769.45 683.656 1769.45 683.656 1769.45 683.656C1769.45 683.656 1769.45 683.656 1769.45 683.656C1769.45 683.656 1769.45 683.656 1769.45 683.656C1769.45 683.656 1769.45 683.656 1769.45 683.656C1769.45 683.656 1769.45 683.656 1769.45 683.656C1769.45 683.656 1769.45 683.656 1769.45 683.656C1769.45 683.656 1769.45 683.656 1769.45 683.656C1769.45 683.656 1769.45 683.656 1769.45 683.656C1769.45 683.656 1769.45 683.656 1769.45 683.656C1769.45 683.656 1769.45 683.656 1769.45 683.656C1769.45 683.656 1769.45 683.656 1769.45 683.656C1769.45 683.656 1769.45 683.656 1769.45 683.656C1769.45 683.656 1769.45 683.656 1769.45 683.656C1769.45 683.656 1769.45 683.656 1769.45 683.656C1769.45 683.656 1769.45 683.656 1769.45 683.656C1769.45 683.656 1769.45 683.656 1769.45 683.656C1769.45 683.656 1769.45 683.656 1769.45 683.656C1769.45 683.656 1769.45 683.656 1769.45 683.656C1769.45 683.656 1769.45 683.656 1769.45 683.656C1769.45 683.656 1769.45 683.656 1769.45 683.656C1769.45 683.656 1769.45 683.656 1769.45 683.656C1769.45 683.656 1769.45 683.656 1769.45 683.656C1769.45 683.656 1769.45 683.656 1769.45 683.656C1769.45 683.656 1769.45 683.656 1769.45 683.656C1769.45 683.656 1769.45 683.656 1769.45 683.656C1769.45 683.656 1769.45 683.656 1769.45 683.656C1769.45 683.656 1769.45 683.656 1769.45 683.656C1769.45 683.656 1769.45 683.656 1769.45 683.656C1769.45 683.656 1769.45 683.656 1769.45 683.656C1769.45 683.656 1769.45 683.656 1769.45 683.656C1769.45 683.656 1769.45 683.656 1769.45 683.656C1769.45 683.656 1769.45 683.656 1769.45 683.656C1769.45 683.656 1769.45 683.656 1769.45 683.656C1769.45 683.656 1769.45 683.656 1769.45 683.656C1769.45 683.656 1769.45 683.656 1769.45 683.656C1769.45 683.656 1769.45 683.656 1769.45 683.656C1769.45 683.656 1769.45 683.656 1769.45 683.656C1769.45 683.656 1769.45 683.656 1769.45 683.656C1769.45 683.656 1769.45 683.656 1769.45 683.656C1769.45 683.656 1769.45 683.656 1769.45 683.656C1769.45 683.656 1769.45 683.656 1769.45 683.656C1769.45 683.656 1769.45 683.656 1769.45 683.656C1769.45 683.656 1769.45 683.656 1769.45 683.656C1769.45 683.656 1769.45 683.656 1769.45 683.656C1769.45 683.656 1769.45 683.656 1769.45 683.656C1769.45 683.656 1769.45 683.656 1769.45 683.656C1769.45 683.656 1769.45 683.656 1769.45 683.656C1769.45 683.656 1769.45 683.656 1769.45 683.656C1769.45 683.656 1769.45 683.656 1769.45 683.656C1769.45 683.656 1769.45 683.656 1769.45 683.656C1769.45 683.656 1769.45 683.656 1769.45 683.656C1769.45 683.656 1769.45 683.656 1769.45 683.656C1769.45 683.656 1769.45 683.656 1769.45 683.656C1769.45 683.656 1769.45 683.656 1769.45 683.656C1769.45 683.656 1769.45 683.656 1769.45 683.656C1769.45 683.656 1769.45 683.656 1769.45 683.656C1769.45 683.656 1769.45 683.656 1769.45 683.656C1769.45 683.656 1769.45 683.656 1769.45 683.656C1769.45 683.656 1769.45 683.656 1769.45 683.656C1769.45 683.656 1769.45 683.656 1769.45 683.656C1769.45 683.656 1769.45 683.656 1769.45 683.656C1769.45 683.656 1769.45 683.656 1769.45 683.656C1769.45 683.656 1769.45 683.656 1769.45 683.656C1769.45 683.656 1769.45 683.656 1769.45 683.656C1769.45 683.656 1769.45 683.656 1769.45 683.656C1769.45 683.656 1769.45 683.656 1769.45 683.656C1769.45 683.656 1769.45 683.656 1769.45 683.656C1769.45 683.656 1769.45 683.656 1769.45 683.656C1769.45 683.656 1769.45 683.656 1769.45 683.656C1769.45 683.656 1769.45 683.656 1769.45 683.656C1769.45 683.656 1769.45 683.656 1769.45 683.656C1769.45 683.656 1769.45 683.656 1769.45 683.656C1769.45 683.656 1769.45 683.656 1769.45 683.656C1769.45 683.656 1769.45 683.656 1769.45 683.656C1769.45 683.656 1769.45 683.656 1769.45 683.656C1769.45 683.656 1769.45 683.656 1769.45 683.656C1769.45 683.656 1769.45 683.656 1769.45 683.656C1769.45 683.656 1769.45 683.656 1769.45 683.656C1769.45 683.656 1769.45 683.656 1769.45 683.656C1769.45 683.656 1769.45 683.656 1769.45 683.656C1769.45 683.656 1769.45 683.656 1769.45 683.656C1769.45 683.656 1769.45 683.656 1769.45 683.656C1769.45 683.656 1769.45 683.656 1769.45 683.656C1769.45 683.656 1769.45 683.656 1769.45 683.656C1769.45 683.656 1769.45 683.656 1769.45 683.656C1769.45 683.656 1769.45 683.656 1769.45 683.656C1769.45 683.656 1769.45 683.656 1769.45 683.656C1769.45 683.656 1769.45 683.656 1769.45 683.656C1769.45 683.656 1769.45 683.656 1769.45 683.656C1769.45 683.656 1769.45 683.656 1769.45 683.656C1769.45 683.656 1769.45 683.656 1769.45 683.656C1769.45 683.656 1769.45 683.656 1769.45 683.656C1769.45 683.656 1769.45 683.656 1769.45 683.656C1769.45 683.656 1769.45 683.656 1769.45 683.656C1769.45 683.656 1769.45 683.656 1769.45 683.656C1769.45 683.656 1769.45 683.656 1769.45 683.656C1769.45 683.656 1769.45 683.656 1769.45 683.656C1769.45 683.656 1769.45 683.656 1769.45 683.656C1769.45 683.656 1769.45 683.656 1769.45 683.656C1769.45 683.656 1769.45 683.656 1769.45 683.656L1768.55 685.44ZM1769.89 685L1819.09 587.971L1817.3 587.066L1768.11 684.096L1769.89 685ZM1818.65 586.626C1804.28 579.343 1791.53 569.221 1781.13 556.836L1779.6 558.122C1790.17 570.713 1803.14 581.005 1817.74 588.41L1818.65 586.626ZM1781.13 556.836C1770.72 544.451 1762.86 530.046 1758 514.442L1756.09 515.037C1761.03 530.892 1769.02 545.532 1779.6 558.122L1781.13 556.836ZM1758 514.442C1753.14 498.838 1751.37 482.341 1752.79 465.892L1750.8 465.72C1749.35 482.424 1751.15 499.182 1756.09 515.037L1758 514.442ZM1752.79 465.892C1754.21 449.444 1758.81 433.367 1766.3 418.581L1764.52 417.676C1756.91 432.69 1752.24 449.015 1750.8 465.72L1752.79 465.892ZM1765.86 417.237L1671.53 369.409L1670.62 371.193L1764.96 419.021L1765.86 417.237ZM1670.18 369.849C1656.11 397.605 1647.49 427.784 1644.82 458.665L1646.81 458.837C1649.46 428.213 1658.01 398.282 1671.97 370.753L1670.18 369.849ZM1644.82 458.665C1642.14 489.545 1645.47 520.523 1654.6 549.828L1656.51 549.233C1647.45 520.178 1644.16 489.461 1646.81 458.837L1644.82 458.665ZM1654.6 549.828C1656.94 557.356 1659.66 564.735 1662.74 571.939L1664.58 571.154C1661.53 564.012 1658.83 556.696 1656.51 549.233L1654.6 549.828Z" fill="url(#paint3_linear_2325_3302)" mask="url(#path-83-inside-1_2325_3302)"/>
</g>
<path d="M281.561 294.706L281.195 293.532L280.638 294.629L245.663 363.506L206.898 342.617L244.844 274.381L245.452 273.289L244.258 273.661L168.316 297.353L155.296 255.621L231.601 231.816L232.778 231.448L231.677 230.892L160.884 195.124L181.081 156.492L278.13 207.607L278.574 207.841L278.806 207.396L329.576 110.165L368.12 130.346L330.222 200.021L329.633 201.105L330.811 200.737L407.128 176.928L420.184 218.777L344.241 242.469L343.048 242.841L344.169 243.395L414.183 277.949L394.172 317.175L326.237 280.403L325.156 279.817L325.522 280.991L348.957 356.111L304.996 369.826L281.561 294.706ZM239.881 161.104L208.58 60.7716L252.541 47.057L283.842 147.389L239.881 161.104Z" stroke="url(#paint4_linear_2325_3302)"/>
<defs>
<filter id="filter0_f_2325_3302" x="-681" y="-53" width="1512" height="1512" filterUnits="userSpaceOnUse" color-interpolation-filters="sRGB">
<feFlood flood-opacity="0" result="BackgroundImageFix"/>
<feBlend mode="normal" in="SourceGraphic" in2="BackgroundImageFix" result="shape"/>
<feGaussianBlur stdDeviation="250" result="effect1_foregroundBlur_2325_3302"/>
</filter>
<filter id="filter1_f_2325_3302" x="1148" y="-535" width="1297" height="1297" filterUnits="userSpaceOnUse" color-interpolation-filters="sRGB">
<feFlood flood-opacity="0" result="BackgroundImageFix"/>
<feBlend mode="normal" in="SourceGraphic" in2="BackgroundImageFix" result="shape"/>
<feGaussianBlur stdDeviation="200" result="effect1_foregroundBlur_2325_3302"/>
</filter>
<linearGradient id="paint0_linear_2325_3302" x1="-166.475" y1="880.231" x2="388.039" y2="816.415" gradientUnits="userSpaceOnUse">
<stop stop-color="#6427FF"/>
<stop offset="1" stop-color="#7D51ED"/>
</linearGradient>
<linearGradient id="paint1_linear_2325_3302" x1="1506.58" y1="-135" x2="2023.05" y2="243.874" gradientUnits="userSpaceOnUse">
<stop stop-color="#FF172E"/>
<stop offset="1" stop-color="#FF868B"/>
</linearGradient>
<radialGradient id="paint2_radial_2325_3302" cx="0" cy="0" r="1" gradientUnits="userSpaceOnUse" gradientTransform="translate(960.5 399) rotate(90) scale(399 960.5)">
<stop stop-color="#F8FBFF"/>
<stop offset="1" stop-color="white" stop-opacity="0.2"/>
</radialGradient>
<linearGradient id="paint3_linear_2325_3302" x1="1728.74" y1="807.46" x2="1520.58" y2="537.831" gradientUnits="userSpaceOnUse">
<stop stop-color="#FF172E"/>
<stop offset="1" stop-color="#FF868B"/>
</linearGradient>
<linearGradient id="paint4_linear_2325_3302" x1="474.606" y1="317.436" x2="121.465" y2="232.237" gradientUnits="userSpaceOnUse">
<stop stop-color="#FF868B" stop-opacity="0"/>
<stop offset="1" stop-color="#FF172E" stop-opacity="0.6"/>
</linearGradient>
</defs>
</svg>
