<svg width="536" height="536" viewBox="0 0 536 536" fill="none" xmlns="http://www.w3.org/2000/svg">
<mask id="mask0_2325_1360" style="mask-type:alpha" maskUnits="userSpaceOnUse" x="0" y="0" width="536" height="536">
<rect x="0.400391" width="535" height="536" fill="white" fill-opacity="0.3"/>
</mask>
<g mask="url(#mask0_2325_1360)">
<rect width="0.67247" height="442.071" rx="0.336235" transform="matrix(0.987923 0.154945 -0.216723 0.976233 10.3945 -95.9592)" fill="black"/>
<rect width="0.67247" height="442.071" rx="0.336235" transform="matrix(0.987923 0.154945 -0.216723 0.976233 14.1895 -95.3645)" fill="black"/>
<rect width="0.67247" height="442.071" rx="0.336235" transform="matrix(0.987923 0.154945 -0.216723 0.976233 17.9844 -94.7686)" fill="black"/>
<rect width="0.67247" height="442.071" rx="0.336235" transform="matrix(0.987923 0.154945 -0.216723 0.976233 21.7812 -94.1724)" fill="black"/>
<rect width="0.67247" height="442.071" rx="0.336235" transform="matrix(0.987923 0.154945 -0.216723 0.976233 2.80078 -97.1497)" fill="black"/>
<rect width="0.67247" height="442.071" rx="0.336235" transform="matrix(0.987923 0.154945 -0.216723 0.976233 25.5781 -93.5779)" fill="black"/>
<rect width="0.67247" height="442.071" rx="0.336235" transform="matrix(0.987923 0.154945 -0.216723 0.976233 6.59766 -96.5552)" fill="black"/>
<rect width="0.67247" height="442.071" rx="0.336235" transform="matrix(0.987923 0.154945 -0.216723 0.976233 29.375 -92.9822)" fill="black"/>
<rect width="0.67247" height="442.071" rx="0.336235" transform="matrix(0.987923 0.154945 -0.216723 0.976233 33.1699 -92.3875)" fill="black"/>
<rect width="0.67247" height="442.071" rx="0.336235" transform="matrix(0.987923 0.154945 -0.216723 0.976233 55.9473 -88.8145)" fill="black"/>
<rect width="0.67247" height="442.071" rx="0.336235" transform="matrix(0.987923 0.154945 -0.216723 0.976233 36.9668 -91.7915)" fill="black"/>
<rect width="0.67247" height="442.071" rx="0.336235" transform="matrix(0.987923 0.154945 -0.216723 0.976233 59.7461 -88.2197)" fill="black"/>
<rect width="0.67247" height="442.071" rx="0.336235" transform="matrix(0.987923 0.154945 -0.216723 0.976233 40.7637 -91.1968)" fill="black"/>
<rect width="0.67247" height="442.071" rx="0.336235" transform="matrix(0.987923 0.154945 -0.216723 0.976233 63.541 -87.6238)" fill="black"/>
<rect width="0.67247" height="442.071" rx="0.336235" transform="matrix(0.987923 0.154945 -0.216723 0.976233 44.5605 -90.6011)" fill="black"/>
<rect width="0.67247" height="442.071" rx="0.336235" transform="matrix(0.987923 0.154945 -0.216723 0.976233 67.3379 -87.0276)" fill="black"/>
<rect width="0.67247" height="442.071" rx="0.336235" transform="matrix(0.987923 0.154945 -0.216723 0.976233 48.3555 -90.0046)" fill="black"/>
<rect width="0.67247" height="442.071" rx="0.336235" transform="matrix(0.987923 0.154945 -0.216723 0.976233 71.1328 -86.4331)" fill="black"/>
<rect width="0.67247" height="442.071" rx="0.336235" transform="matrix(0.987923 0.154945 -0.216723 0.976233 52.1523 -89.4102)" fill="black"/>
<rect width="0.67247" height="442.071" rx="0.336235" transform="matrix(0.987923 0.154945 -0.216723 0.976233 74.9316 -85.8369)" fill="black"/>
<rect width="0.67247" height="442.071" rx="0.336235" transform="matrix(0.987923 0.154945 -0.216723 0.976233 78.7266 -85.2427)" fill="black"/>
<rect width="0.67247" height="442.071" rx="0.336235" transform="matrix(0.987923 0.154945 -0.216723 0.976233 101.504 -81.6694)" fill="black"/>
<rect width="0.67247" height="442.071" rx="0.336235" transform="matrix(0.987923 0.154945 -0.216723 0.976233 82.5234 -84.6467)" fill="black"/>
<rect width="0.67247" height="442.071" rx="0.336235" transform="matrix(0.987923 0.154945 -0.216723 0.976233 105.301 -81.075)" fill="black"/>
<rect width="0.67247" height="442.071" rx="0.336235" transform="matrix(0.987923 0.154945 -0.216723 0.976233 86.3184 -84.0518)" fill="black"/>
<rect width="0.67247" height="442.071" rx="0.336235" transform="matrix(0.987923 0.154945 -0.216723 0.976233 109.096 -80.479)" fill="black"/>
<rect width="0.67247" height="442.071" rx="0.336235" transform="matrix(0.987923 0.154945 -0.216723 0.976233 90.1152 -83.4561)" fill="black"/>
<rect width="0.67247" height="442.071" rx="0.336235" transform="matrix(0.987923 0.154945 -0.216723 0.976233 112.895 -79.8828)" fill="black"/>
<rect width="0.67247" height="442.071" rx="0.336235" transform="matrix(0.987923 0.154945 -0.216723 0.976233 93.9121 -82.8596)" fill="black"/>
<rect width="0.67247" height="442.071" rx="0.336235" transform="matrix(0.987923 0.154945 -0.216723 0.976233 116.689 -79.2883)" fill="black"/>
<rect width="0.67247" height="442.071" rx="0.336235" transform="matrix(0.987923 0.154945 -0.216723 0.976233 97.709 -82.2654)" fill="black"/>
<rect width="0.67247" height="442.071" rx="0.336235" transform="matrix(0.987923 0.154945 -0.216723 0.976233 120.484 -78.6919)" fill="black"/>
<rect width="0.67247" height="442.071" rx="0.336235" transform="matrix(0.987923 0.154945 -0.216723 0.976233 124.281 -78.0977)" fill="black"/>
<rect width="0.67247" height="442.071" rx="0.336235" transform="matrix(0.987923 0.154945 -0.216723 0.976233 147.061 -74.5244)" fill="black"/>
<rect width="0.67247" height="442.071" rx="0.336235" transform="matrix(0.987923 0.154945 -0.216723 0.976233 128.078 -77.502)" fill="black"/>
<rect width="0.67247" height="442.071" rx="0.336235" transform="matrix(0.987923 0.154945 -0.216723 0.976233 150.855 -73.9302)" fill="black"/>
<rect width="0.67247" height="442.071" rx="0.336235" transform="matrix(0.987923 0.154945 -0.216723 0.976233 131.875 -76.9072)" fill="black"/>
<rect width="0.67247" height="442.071" rx="0.336235" transform="matrix(0.987923 0.154945 -0.216723 0.976233 154.652 -73.334)" fill="black"/>
<rect width="0.67247" height="442.071" rx="0.336235" transform="matrix(0.987923 0.154945 -0.216723 0.976233 135.67 -76.311)" fill="black"/>
<rect width="0.67247" height="442.071" rx="0.336235" transform="matrix(0.987923 0.154945 -0.216723 0.976233 158.447 -72.7378)" fill="black"/>
<rect width="0.67247" height="442.071" rx="0.336235" transform="matrix(0.987923 0.154945 -0.216723 0.976233 139.467 -75.7148)" fill="black"/>
<rect width="0.67247" height="442.071" rx="0.336235" transform="matrix(0.987923 0.154945 -0.216723 0.976233 162.244 -72.1436)" fill="black"/>
<rect width="0.67247" height="442.071" rx="0.336235" transform="matrix(0.987923 0.154945 -0.216723 0.976233 143.262 -75.1206)" fill="black"/>
<rect width="0.67247" height="442.071" rx="0.336235" transform="matrix(0.987923 0.154945 -0.216723 0.976233 166.041 -71.5474)" fill="black"/>
<rect width="0.67247" height="442.071" rx="0.336235" transform="matrix(0.987923 0.154945 -0.216723 0.976233 169.838 -70.9529)" fill="black"/>
<rect width="0.67247" height="442.071" rx="0.336235" transform="matrix(0.987923 0.154945 -0.216723 0.976233 192.615 -67.3799)" fill="black"/>
<rect width="0.67247" height="442.071" rx="0.336235" transform="matrix(0.987923 0.154945 -0.216723 0.976233 173.633 -70.3569)" fill="black"/>
<rect width="0.67247" height="442.071" rx="0.336235" transform="matrix(0.987923 0.154945 -0.216723 0.976233 196.41 -66.7852)" fill="black"/>
<rect width="0.67247" height="442.071" rx="0.336235" transform="matrix(0.987923 0.154945 -0.216723 0.976233 177.43 -69.7625)" fill="black"/>
<rect width="0.67247" height="442.071" rx="0.336235" transform="matrix(0.987923 0.154945 -0.216723 0.976233 200.209 -66.1892)" fill="black"/>
<rect width="0.67247" height="442.071" rx="0.336235" transform="matrix(0.987923 0.154945 -0.216723 0.976233 181.227 -69.1663)" fill="black"/>
<rect width="0.67247" height="442.071" rx="0.336235" transform="matrix(0.987923 0.154945 -0.216723 0.976233 204.004 -65.5928)" fill="black"/>
<rect width="0.67247" height="442.071" rx="0.336235" transform="matrix(0.987923 0.154945 -0.216723 0.976233 185.023 -68.5701)" fill="black"/>
<rect width="0.67247" height="442.071" rx="0.336235" transform="matrix(0.987923 0.154945 -0.216723 0.976233 207.801 -64.9985)" fill="black"/>
<rect width="0.67247" height="442.071" rx="0.336235" transform="matrix(0.987923 0.154945 -0.216723 0.976233 188.818 -67.9758)" fill="black"/>
<rect width="0.67247" height="442.071" rx="0.336235" transform="matrix(0.987923 0.154945 -0.216723 0.976233 211.596 -64.4026)" fill="black"/>
<rect width="0.67247" height="442.071" rx="0.336235" transform="matrix(0.987923 0.154945 -0.216723 0.976233 215.393 -63.8081)" fill="black"/>
<rect width="0.67247" height="442.071" rx="0.336235" transform="matrix(0.987923 0.154945 -0.216723 0.976233 238.17 -60.2349)" fill="black"/>
<rect width="0.67247" height="442.071" rx="0.336235" transform="matrix(0.987923 0.154945 -0.216723 0.976233 219.189 -63.2122)" fill="black"/>
<rect width="0.67247" height="442.071" rx="0.336235" transform="matrix(0.987923 0.154945 -0.216723 0.976233 241.967 -59.6404)" fill="black"/>
<rect width="0.67247" height="442.071" rx="0.336235" transform="matrix(0.987923 0.154945 -0.216723 0.976233 222.984 -62.616)" fill="black"/>
<rect width="0.67247" height="442.071" rx="0.336235" transform="matrix(0.987923 0.154945 -0.216723 0.976233 245.762 -59.0442)" fill="black"/>
<rect width="0.67247" height="442.071" rx="0.336235" transform="matrix(0.987923 0.154945 -0.216723 0.976233 226.781 -62.0215)" fill="black"/>
<rect width="0.67247" height="442.071" rx="0.336235" transform="matrix(0.987923 0.154945 -0.216723 0.976233 249.559 -58.4482)" fill="black"/>
<rect width="0.67247" height="442.071" rx="0.336235" transform="matrix(0.987923 0.154945 -0.216723 0.976233 230.576 -61.425)" fill="black"/>
<rect width="0.67247" height="442.071" rx="0.336235" transform="matrix(0.987923 0.154945 -0.216723 0.976233 253.355 -57.8538)" fill="black"/>
<rect width="0.67247" height="442.071" rx="0.336235" transform="matrix(0.987923 0.154945 -0.216723 0.976233 234.375 -60.8308)" fill="black"/>
<rect width="0.67247" height="442.071" rx="0.336235" transform="matrix(0.987923 0.154945 -0.216723 0.976233 257.152 -57.2576)" fill="black"/>
<rect width="0.67247" height="442.071" rx="0.336235" transform="matrix(0.987923 0.154945 -0.216723 0.976233 260.947 -56.6633)" fill="black"/>
<rect width="0.67247" height="442.071" rx="0.336235" transform="matrix(0.987923 0.154945 -0.216723 0.976233 283.725 -53.0901)" fill="black"/>
<rect width="0.67247" height="442.071" rx="0.336235" transform="matrix(0.987923 0.154945 -0.216723 0.976233 264.744 -56.0674)" fill="black"/>
<rect width="0.67247" height="442.071" rx="0.336235" transform="matrix(0.987923 0.154945 -0.216723 0.976233 287.523 -52.4956)" fill="black"/>
<rect width="0.67247" height="442.071" rx="0.336235" transform="matrix(0.987923 0.154945 -0.216723 0.976233 268.541 -55.4724)" fill="black"/>
<rect width="0.67247" height="442.071" rx="0.336235" transform="matrix(0.987923 0.154945 -0.216723 0.976233 291.318 -51.8997)" fill="black"/>
<rect width="0.67247" height="442.071" rx="0.336235" transform="matrix(0.987923 0.154945 -0.216723 0.976233 272.338 -54.8767)" fill="black"/>
<rect width="0.67247" height="442.071" rx="0.336235" transform="matrix(0.987923 0.154945 -0.216723 0.976233 295.115 -51.3035)" fill="black"/>
<rect width="0.67247" height="442.071" rx="0.336235" transform="matrix(0.987923 0.154945 -0.216723 0.976233 276.133 -54.2805)" fill="black"/>
<rect width="0.67247" height="442.071" rx="0.336235" transform="matrix(0.987923 0.154945 -0.216723 0.976233 298.91 -50.709)" fill="black"/>
<rect width="0.67247" height="442.071" rx="0.336235" transform="matrix(0.987923 0.154945 -0.216723 0.976233 279.93 -53.6858)" fill="black"/>
<rect width="0.67247" height="442.071" rx="0.336235" transform="matrix(0.987923 0.154945 -0.216723 0.976233 302.707 -50.113)" fill="black"/>
<rect width="0.67247" height="442.071" rx="0.336235" transform="matrix(0.987923 0.154945 -0.216723 0.976233 306.01 -49.5959)" fill="black"/>
<rect width="0.67247" height="442.071" rx="0.336235" transform="matrix(0.987923 0.154945 -0.216723 0.976233 328.787 -46.0227)" fill="black"/>
<rect width="0.67247" height="442.071" rx="0.336235" transform="matrix(0.987923 0.154945 -0.216723 0.976233 309.807 -49)" fill="black"/>
<rect width="0.67247" height="442.071" rx="0.336235" transform="matrix(0.987923 0.154945 -0.216723 0.976233 332.586 -45.4282)" fill="black"/>
<rect width="0.67247" height="442.071" rx="0.336235" transform="matrix(0.987923 0.154945 -0.216723 0.976233 313.602 -48.4036)" fill="black"/>
<rect width="0.67247" height="442.071" rx="0.336235" transform="matrix(0.987923 0.154945 -0.216723 0.976233 336.381 -44.8323)" fill="black"/>
<rect width="0.67247" height="442.071" rx="0.336235" transform="matrix(0.987923 0.154945 -0.216723 0.976233 317.4 -47.8093)" fill="black"/>
<rect width="0.67247" height="442.071" rx="0.336235" transform="matrix(0.987923 0.154945 -0.216723 0.976233 340.178 -44.2361)" fill="black"/>
<rect width="0.67247" height="442.071" rx="0.336235" transform="matrix(0.987923 0.154945 -0.216723 0.976233 321.195 -47.2134)" fill="black"/>
<rect width="0.67247" height="442.071" rx="0.336235" transform="matrix(0.987923 0.154945 -0.216723 0.976233 343.973 -43.6416)" fill="black"/>
<rect width="0.67247" height="442.071" rx="0.336235" transform="matrix(0.987923 0.154945 -0.216723 0.976233 324.992 -46.6187)" fill="black"/>
<rect width="0.67247" height="442.071" rx="0.336235" transform="matrix(0.987923 0.154945 -0.216723 0.976233 347.77 -43.0459)" fill="black"/>
<rect width="0.67247" height="442.071" rx="0.336235" transform="matrix(0.987923 0.154945 -0.216723 0.976233 351.566 -42.4512)" fill="black"/>
<rect width="0.67247" height="442.071" rx="0.336235" transform="matrix(0.987923 0.154945 -0.216723 0.976233 374.344 -38.8782)" fill="black"/>
<rect width="0.67247" height="442.071" rx="0.336235" transform="matrix(0.987923 0.154945 -0.216723 0.976233 355.363 -41.855)" fill="black"/>
<rect width="0.67247" height="442.071" rx="0.336235" transform="matrix(0.987923 0.154945 -0.216723 0.976233 378.141 -38.2817)" fill="black"/>
<rect width="0.67247" height="442.071" rx="0.336235" transform="matrix(0.987923 0.154945 -0.216723 0.976233 359.158 -41.259)" fill="black"/>
<rect width="0.67247" height="442.071" rx="0.336235" transform="matrix(0.987923 0.154945 -0.216723 0.976233 381.936 -37.6875)" fill="black"/>
<rect width="0.67247" height="442.071" rx="0.336235" transform="matrix(0.987923 0.154945 -0.216723 0.976233 362.953 -40.6646)" fill="black"/>
<rect width="0.67247" height="442.071" rx="0.336235" transform="matrix(0.987923 0.154945 -0.216723 0.976233 385.732 -37.0913)" fill="black"/>
<rect width="0.67247" height="442.071" rx="0.336235" transform="matrix(0.987923 0.154945 -0.216723 0.976233 366.75 -40.0686)" fill="black"/>
<rect width="0.67247" height="442.071" rx="0.336235" transform="matrix(0.987923 0.154945 -0.216723 0.976233 389.529 -36.4966)" fill="black"/>
<rect width="0.67247" height="442.071" rx="0.336235" transform="matrix(0.987923 0.154945 -0.216723 0.976233 370.547 -39.4741)" fill="black"/>
<rect width="0.67247" height="442.071" rx="0.336235" transform="matrix(0.987923 0.154945 -0.216723 0.976233 393.324 -35.9009)" fill="black"/>
<rect width="0.67247" height="442.071" rx="0.336235" transform="matrix(0.987923 0.154945 -0.216723 0.976233 397.121 -35.3047)" fill="black"/>
<rect width="0.67247" height="442.071" rx="0.336235" transform="matrix(0.987923 0.154945 -0.216723 0.976233 419.898 -31.7332)" fill="black"/>
<rect width="0.67247" height="442.071" rx="0.336235" transform="matrix(0.987923 0.154945 -0.216723 0.976233 400.916 -34.7102)" fill="black"/>
<rect width="0.67247" height="442.071" rx="0.336235" transform="matrix(0.987923 0.154945 -0.216723 0.976233 423.695 -31.137)" fill="black"/>
<rect width="0.67247" height="442.071" rx="0.336235" transform="matrix(0.987923 0.154945 -0.216723 0.976233 404.715 -34.114)" fill="black"/>
<rect width="0.67247" height="442.071" rx="0.336235" transform="matrix(0.987923 0.154945 -0.216723 0.976233 427.492 -30.5422)" fill="black"/>
<rect width="0.67247" height="442.071" rx="0.336235" transform="matrix(0.987923 0.154945 -0.216723 0.976233 408.51 -33.5198)" fill="black"/>
<rect width="0.67247" height="442.071" rx="0.336235" transform="matrix(0.987923 0.154945 -0.216723 0.976233 431.287 -29.9465)" fill="black"/>
<rect width="0.67247" height="442.071" rx="0.336235" transform="matrix(0.987923 0.154945 -0.216723 0.976233 412.307 -32.9236)" fill="black"/>
<rect width="0.67247" height="442.071" rx="0.336235" transform="matrix(0.987923 0.154945 -0.216723 0.976233 435.084 -29.3521)" fill="black"/>
<rect width="0.67247" height="442.071" rx="0.336235" transform="matrix(0.987923 0.154945 -0.216723 0.976233 416.102 -32.3289)" fill="black"/>
<rect width="0.67247" height="442.071" rx="0.336235" transform="matrix(0.987923 0.154945 -0.216723 0.976233 438.881 -28.7561)" fill="black"/>
<rect width="0.67247" height="442.071" rx="0.336235" transform="matrix(0.987923 0.154945 -0.216723 0.976233 442.676 -28.1614)" fill="black"/>
<rect width="0.67247" height="442.071" rx="0.336235" transform="matrix(0.987923 0.154945 -0.216723 0.976233 465.455 -24.5881)" fill="black"/>
<rect width="0.67247" height="442.071" rx="0.336235" transform="matrix(0.987923 0.154945 -0.216723 0.976233 446.473 -27.5654)" fill="black"/>
<rect width="0.67247" height="442.071" rx="0.336235" transform="matrix(0.987923 0.154945 -0.216723 0.976233 469.25 -23.9922)" fill="black"/>
<rect width="0.67247" height="442.071" rx="0.336235" transform="matrix(0.987923 0.154945 -0.216723 0.976233 450.27 -26.9692)" fill="black"/>
<rect width="0.67247" height="442.071" rx="0.336235" transform="matrix(0.987923 0.154945 -0.216723 0.976233 473.049 -23.3977)" fill="black"/>
<rect width="0.67247" height="442.071" rx="0.336235" transform="matrix(0.987923 0.154945 -0.216723 0.976233 454.064 -26.3748)" fill="black"/>
<rect width="0.67247" height="442.071" rx="0.336235" transform="matrix(0.987923 0.154945 -0.216723 0.976233 476.844 -22.8015)" fill="black"/>
<rect width="0.67247" height="442.071" rx="0.336235" transform="matrix(0.987923 0.154945 -0.216723 0.976233 457.863 -25.7791)" fill="black"/>
<rect width="0.67247" height="442.071" rx="0.336235" transform="matrix(0.987923 0.154945 -0.216723 0.976233 480.641 -22.207)" fill="black"/>
<rect width="0.67247" height="442.071" rx="0.336235" transform="matrix(0.987923 0.154945 -0.216723 0.976233 461.658 -25.1843)" fill="black"/>
<rect width="0.67247" height="442.071" rx="0.336235" transform="matrix(0.987923 0.154945 -0.216723 0.976233 484.436 -21.6113)" fill="black"/>
<rect width="0.67247" height="442.071" rx="0.336235" transform="matrix(0.987923 0.154945 -0.216723 0.976233 488.23 -21.0149)" fill="black"/>
<rect width="0.67247" height="442.071" rx="0.336235" transform="matrix(0.987923 0.154945 -0.216723 0.976233 511.012 -17.4436)" fill="black"/>
<rect width="0.67247" height="442.071" rx="0.336235" transform="matrix(0.987923 0.154945 -0.216723 0.976233 492.029 -20.4207)" fill="black"/>
<rect width="0.67247" height="442.071" rx="0.336235" transform="matrix(0.987923 0.154945 -0.216723 0.976233 514.807 -16.8474)" fill="black"/>
<rect width="0.67247" height="442.071" rx="0.336235" transform="matrix(0.987923 0.154945 -0.216723 0.976233 495.824 -19.8245)" fill="black"/>
<rect width="0.67247" height="442.071" rx="0.336235" transform="matrix(0.987923 0.154945 -0.216723 0.976233 518.602 -16.2529)" fill="black"/>
<rect width="0.67247" height="442.071" rx="0.336235" transform="matrix(0.987923 0.154945 -0.216723 0.976233 499.621 -19.23)" fill="black"/>
<rect width="0.67247" height="442.071" rx="0.336235" transform="matrix(0.987923 0.154945 -0.216723 0.976233 522.398 -15.657)" fill="black"/>
<rect width="0.67247" height="442.071" rx="0.336235" transform="matrix(0.987923 0.154945 -0.216723 0.976233 503.418 -18.634)" fill="black"/>
<rect width="0.67247" height="442.071" rx="0.336235" transform="matrix(0.987923 0.154945 -0.216723 0.976233 526.195 -15.0623)" fill="black"/>
<rect width="0.67247" height="442.071" rx="0.336235" transform="matrix(0.987923 0.154945 -0.216723 0.976233 507.213 -18.0396)" fill="black"/>
<rect width="0.67247" height="442.071" rx="0.336235" transform="matrix(0.987923 0.154945 -0.216723 0.976233 529.992 -14.4666)" fill="black"/>
<rect width="0.67247" height="442.071" rx="0.336235" transform="matrix(0.987923 0.154945 -0.216723 0.976233 533.787 -13.8718)" fill="black"/>
<rect width="0.67247" height="442.071" rx="0.336235" transform="matrix(0.987923 0.154945 -0.216723 0.976233 556.564 -10.2983)" fill="black"/>
<rect width="0.67247" height="442.071" rx="0.336235" transform="matrix(0.987923 0.154945 -0.216723 0.976233 537.584 -13.2756)" fill="black"/>
<rect width="0.67247" height="442.071" rx="0.336235" transform="matrix(0.987923 0.154945 -0.216723 0.976233 560.359 -9.70239)" fill="black"/>
<rect width="0.67247" height="442.071" rx="0.336235" transform="matrix(0.987923 0.154945 -0.216723 0.976233 541.379 -12.6799)" fill="black"/>
<rect width="0.67247" height="442.071" rx="0.336235" transform="matrix(0.987923 0.154945 -0.216723 0.976233 564.158 -9.10791)" fill="black"/>
<rect width="0.67247" height="442.071" rx="0.336235" transform="matrix(0.987923 0.154945 -0.216723 0.976233 545.176 -12.0852)" fill="black"/>
<rect width="0.67247" height="442.071" rx="0.336235" transform="matrix(0.987923 0.154945 -0.216723 0.976233 567.955 -8.51221)" fill="black"/>
<rect width="0.67247" height="442.071" rx="0.336235" transform="matrix(0.987923 0.154945 -0.216723 0.976233 548.973 -11.4893)" fill="black"/>
<rect width="0.67247" height="442.071" rx="0.336235" transform="matrix(0.987923 0.154945 -0.216723 0.976233 571.75 -7.91724)" fill="black"/>
<rect width="0.67247" height="442.071" rx="0.336235" transform="matrix(0.987923 0.154945 -0.216723 0.976233 552.77 -10.8945)" fill="black"/>
<rect width="0.67247" height="442.071" rx="0.336235" transform="matrix(0.987923 0.154945 -0.216723 0.976233 575.547 -7.32153)" fill="black"/>
<rect width="0.67247" height="442.071" rx="0.336235" transform="matrix(0.987923 0.154945 -0.216723 0.976233 579.344 -6.72705)" fill="black"/>
<rect width="0.67247" height="442.071" rx="0.336235" transform="matrix(0.987923 0.154945 -0.216723 0.976233 602.121 -3.15381)" fill="black"/>
<rect width="0.67247" height="442.071" rx="0.336235" transform="matrix(0.987923 0.154945 -0.216723 0.976233 583.139 -6.13062)" fill="black"/>
<rect width="0.67247" height="442.071" rx="0.336235" transform="matrix(0.987923 0.154945 -0.216723 0.976233 605.916 -2.55762)" fill="black"/>
<rect width="0.67247" height="442.071" rx="0.336235" transform="matrix(0.987923 0.154945 -0.216723 0.976233 586.936 -5.53467)" fill="black"/>
<rect width="0.67247" height="442.071" rx="0.336235" transform="matrix(0.987923 0.154945 -0.216723 0.976233 609.713 -1.96313)" fill="black"/>
<rect width="0.67247" height="442.071" rx="0.336235" transform="matrix(0.987923 0.154945 -0.216723 0.976233 590.732 -4.94043)" fill="black"/>
<rect width="0.67247" height="442.071" rx="0.336235" transform="matrix(0.987923 0.154945 -0.216723 0.976233 613.51 -1.36719)" fill="black"/>
<rect width="0.67247" height="442.071" rx="0.336235" transform="matrix(0.987923 0.154945 -0.216723 0.976233 594.527 -4.34448)" fill="black"/>
<rect width="0.67247" height="442.071" rx="0.336235" transform="matrix(0.987923 0.154945 -0.216723 0.976233 617.307 -0.772705)" fill="black"/>
<rect width="0.67247" height="442.071" rx="0.336235" transform="matrix(0.987923 0.154945 -0.216723 0.976233 598.324 -3.74951)" fill="black"/>
<rect width="0.67247" height="442.071" rx="0.336235" transform="matrix(0.987923 0.154945 -0.216723 0.976233 621.102 -0.176514)" fill="black"/>
<rect width="0.67247" height="442.071" rx="0.336235" transform="matrix(0.987923 0.154945 -0.216723 0.976233 624.896 0.419434)" fill="black"/>
<rect width="0.67247" height="442.071" rx="0.336235" transform="matrix(0.987923 0.154945 -0.216723 0.976233 628.693 1.01392)" fill="black"/>
<rect width="0.67247" height="442.071" rx="0.336235" transform="matrix(0.987923 0.154945 -0.216723 0.976233 532.988 326.472)" fill="black"/>
<rect width="0.67247" height="442.071" rx="0.336235" transform="matrix(0.987923 0.154945 -0.216723 0.976233 555.766 330.045)" fill="black"/>
<rect width="0.67247" height="442.071" rx="0.336235" transform="matrix(0.987923 0.154945 -0.216723 0.976233 536.783 327.068)" fill="black"/>
<rect width="0.67247" height="442.071" rx="0.336235" transform="matrix(0.987923 0.154945 -0.216723 0.976233 559.562 330.64)" fill="black"/>
<rect width="0.67247" height="442.071" rx="0.336235" transform="matrix(0.987923 0.154945 -0.216723 0.976233 540.58 327.664)" fill="black"/>
<rect width="0.67247" height="442.071" rx="0.336235" transform="matrix(0.987923 0.154945 -0.216723 0.976233 563.359 331.236)" fill="black"/>
<rect width="0.67247" height="442.071" rx="0.336235" transform="matrix(0.987923 0.154945 -0.216723 0.976233 544.377 328.259)" fill="black"/>
<rect width="0.67247" height="442.071" rx="0.336235" transform="matrix(0.987923 0.154945 -0.216723 0.976233 567.154 331.832)" fill="black"/>
<rect width="0.67247" height="442.071" rx="0.336235" transform="matrix(0.987923 0.154945 -0.216723 0.976233 548.174 328.855)" fill="black"/>
<rect width="0.67247" height="442.071" rx="0.336235" transform="matrix(0.987923 0.154945 -0.216723 0.976233 570.951 332.426)" fill="black"/>
<rect width="0.67247" height="442.071" rx="0.336235" transform="matrix(0.987923 0.154945 -0.216723 0.976233 551.969 329.449)" fill="black"/>
<rect width="0.67247" height="442.071" rx="0.336235" transform="matrix(0.987923 0.154945 -0.216723 0.976233 574.746 333.022)" fill="black"/>
<rect width="0.67247" height="442.071" rx="0.336235" transform="matrix(0.987923 0.154945 -0.216723 0.976233 578.545 333.617)" fill="black"/>
<rect width="0.67247" height="442.071" rx="0.336235" transform="matrix(0.987923 0.154945 -0.216723 0.976233 601.322 337.19)" fill="black"/>
<rect width="0.67247" height="442.071" rx="0.336235" transform="matrix(0.987923 0.154945 -0.216723 0.976233 582.34 334.213)" fill="black"/>
<rect width="0.67247" height="442.071" rx="0.336235" transform="matrix(0.987923 0.154945 -0.216723 0.976233 605.117 337.784)" fill="black"/>
<rect width="0.67247" height="442.071" rx="0.336235" transform="matrix(0.987923 0.154945 -0.216723 0.976233 586.137 334.807)" fill="black"/>
<rect width="0.67247" height="442.071" rx="0.336235" transform="matrix(0.987923 0.154945 -0.216723 0.976233 608.914 338.38)" fill="black"/>
<rect width="0.67247" height="442.071" rx="0.336235" transform="matrix(0.987923 0.154945 -0.216723 0.976233 589.932 335.403)" fill="black"/>
<rect width="0.67247" height="442.071" rx="0.336235" transform="matrix(0.987923 0.154945 -0.216723 0.976233 612.709 338.977)" fill="black"/>
<rect width="0.67247" height="442.071" rx="0.336235" transform="matrix(0.987923 0.154945 -0.216723 0.976233 593.729 335.999)" fill="black"/>
<rect width="0.67247" height="442.071" rx="0.336235" transform="matrix(0.987923 0.154945 -0.216723 0.976233 616.508 339.571)" fill="black"/>
<rect width="0.67247" height="442.071" rx="0.336235" transform="matrix(0.987923 0.154945 -0.216723 0.976233 597.525 336.594)" fill="black"/>
<rect width="0.67247" height="442.071" rx="0.336235" transform="matrix(0.987923 0.154945 -0.216723 0.976233 620.303 340.167)" fill="black"/>
<rect width="0.67247" height="442.071" rx="0.336235" transform="matrix(0.987923 0.154945 -0.216723 0.976233 624.1 340.762)" fill="black"/>
<rect width="0.67247" height="442.071" rx="0.336235" transform="matrix(0.987923 0.154945 -0.216723 0.976233 627.895 341.357)" fill="black"/>
<rect width="0.67247" height="442.071" rx="0.336235" transform="matrix(0.987923 0.154945 -0.216723 0.976233 2.02148 348.661)" fill="black"/>
<rect width="0.67247" height="442.071" rx="0.336235" transform="matrix(0.987923 0.154945 -0.216723 0.976233 5.81836 349.257)" fill="black"/>
<rect width="0.67247" height="442.071" rx="0.336235" transform="matrix(0.987923 0.154945 -0.216723 0.976233 9.61523 349.851)" fill="black"/>
<rect width="0.67247" height="442.071" rx="0.336235" transform="matrix(0.987923 0.154945 -0.216723 0.976233 32.3926 353.424)" fill="black"/>
<rect width="0.67247" height="442.071" rx="0.336235" transform="matrix(0.987923 0.154945 -0.216723 0.976233 13.4102 350.447)" fill="black"/>
<rect width="0.67247" height="442.071" rx="0.336235" transform="matrix(0.987923 0.154945 -0.216723 0.976233 36.1875 354.021)" fill="black"/>
<rect width="0.67247" height="442.071" rx="0.336235" transform="matrix(0.987923 0.154945 -0.216723 0.976233 17.207 351.043)" fill="black"/>
<rect width="0.67247" height="442.071" rx="0.336235" transform="matrix(0.987923 0.154945 -0.216723 0.976233 39.9863 354.615)" fill="black"/>
<rect width="0.67247" height="442.071" rx="0.336235" transform="matrix(0.987923 0.154945 -0.216723 0.976233 21.0039 351.638)" fill="black"/>
<rect width="0.67247" height="442.071" rx="0.336235" transform="matrix(0.987923 0.154945 -0.216723 0.976233 43.7812 355.211)" fill="black"/>
<rect width="0.67247" height="442.071" rx="0.336235" transform="matrix(0.987923 0.154945 -0.216723 0.976233 24.8008 352.234)" fill="black"/>
<rect width="0.67247" height="442.071" rx="0.336235" transform="matrix(0.987923 0.154945 -0.216723 0.976233 47.5781 355.806)" fill="black"/>
<rect width="0.67247" height="442.071" rx="0.336235" transform="matrix(0.987923 0.154945 -0.216723 0.976233 28.5957 352.828)" fill="black"/>
<rect width="0.67247" height="442.071" rx="0.336235" transform="matrix(0.987923 0.154945 -0.216723 0.976233 51.373 356.402)" fill="black"/>
<rect width="0.67247" height="442.071" rx="0.336235" transform="matrix(0.987923 0.154945 -0.216723 0.976233 55.1719 356.996)" fill="black"/>
<rect width="0.67247" height="442.071" rx="0.336235" transform="matrix(0.987923 0.154945 -0.216723 0.976233 77.9473 360.569)" fill="black"/>
<rect width="0.67247" height="442.071" rx="0.336235" transform="matrix(0.987923 0.154945 -0.216723 0.976233 58.9668 357.592)" fill="black"/>
<rect width="0.67247" height="442.071" rx="0.336235" transform="matrix(0.987923 0.154945 -0.216723 0.976233 81.7441 361.165)" fill="black"/>
<rect width="0.67247" height="442.071" rx="0.336235" transform="matrix(0.987923 0.154945 -0.216723 0.976233 62.7617 358.188)" fill="black"/>
<rect width="0.67247" height="442.071" rx="0.336235" transform="matrix(0.987923 0.154945 -0.216723 0.976233 85.5391 361.76)" fill="black"/>
<rect width="0.67247" height="442.071" rx="0.336235" transform="matrix(0.987923 0.154945 -0.216723 0.976233 66.5586 358.783)" fill="black"/>
<rect width="0.67247" height="442.071" rx="0.336235" transform="matrix(0.987923 0.154945 -0.216723 0.976233 89.3359 362.356)" fill="black"/>
<rect width="0.67247" height="442.071" rx="0.336235" transform="matrix(0.987923 0.154945 -0.216723 0.976233 70.3535 359.379)" fill="black"/>
<rect width="0.67247" height="442.071" rx="0.336235" transform="matrix(0.987923 0.154945 -0.216723 0.976233 93.1328 362.95)" fill="black"/>
<rect width="0.67247" height="442.071" rx="0.336235" transform="matrix(0.987923 0.154945 -0.216723 0.976233 74.1523 359.973)" fill="black"/>
<rect width="0.67247" height="442.071" rx="0.336235" transform="matrix(0.987923 0.154945 -0.216723 0.976233 96.9297 363.546)" fill="black"/>
<rect width="0.67247" height="442.071" rx="0.336235" transform="matrix(0.987923 0.154945 -0.216723 0.976233 100.725 364.141)" fill="black"/>
<rect width="0.67247" height="442.071" rx="0.336235" transform="matrix(0.987923 0.154945 -0.216723 0.976233 123.502 367.714)" fill="black"/>
<rect width="0.67247" height="442.071" rx="0.336235" transform="matrix(0.987923 0.154945 -0.216723 0.976233 104.521 364.737)" fill="black"/>
<rect width="0.67247" height="442.071" rx="0.336235" transform="matrix(0.987923 0.154945 -0.216723 0.976233 127.301 368.309)" fill="black"/>
<rect width="0.67247" height="442.071" rx="0.336235" transform="matrix(0.987923 0.154945 -0.216723 0.976233 108.318 365.333)" fill="black"/>
<rect width="0.67247" height="442.071" rx="0.336235" transform="matrix(0.987923 0.154945 -0.216723 0.976233 131.096 368.905)" fill="black"/>
<rect width="0.67247" height="442.071" rx="0.336235" transform="matrix(0.987923 0.154945 -0.216723 0.976233 112.115 365.927)" fill="black"/>
<rect width="0.67247" height="442.071" rx="0.336235" transform="matrix(0.987923 0.154945 -0.216723 0.976233 134.893 369.501)" fill="black"/>
<rect width="0.67247" height="442.071" rx="0.336235" transform="matrix(0.987923 0.154945 -0.216723 0.976233 115.91 366.524)" fill="black"/>
<rect width="0.67247" height="442.071" rx="0.336235" transform="matrix(0.987923 0.154945 -0.216723 0.976233 138.688 370.095)" fill="black"/>
<rect width="0.67247" height="442.071" rx="0.336235" transform="matrix(0.987923 0.154945 -0.216723 0.976233 119.707 367.118)" fill="black"/>
<rect width="0.67247" height="442.071" rx="0.336235" transform="matrix(0.987923 0.154945 -0.216723 0.976233 142.482 370.691)" fill="black"/>
<rect width="0.67247" height="442.071" rx="0.336235" transform="matrix(0.987923 0.154945 -0.216723 0.976233 145.787 371.21)" fill="black"/>
<rect width="0.67247" height="442.071" rx="0.336235" transform="matrix(0.987923 0.154945 -0.216723 0.976233 168.564 374.781)" fill="black"/>
<rect width="0.67247" height="442.071" rx="0.336235" transform="matrix(0.987923 0.154945 -0.216723 0.976233 149.584 371.804)" fill="black"/>
<rect width="0.67247" height="442.071" rx="0.336235" transform="matrix(0.987923 0.154945 -0.216723 0.976233 172.361 375.376)" fill="black"/>
<rect width="0.67247" height="442.071" rx="0.336235" transform="matrix(0.987923 0.154945 -0.216723 0.976233 153.379 372.4)" fill="black"/>
<rect width="0.67247" height="442.071" rx="0.336235" transform="matrix(0.987923 0.154945 -0.216723 0.976233 176.158 375.972)" fill="black"/>
<rect width="0.67247" height="442.071" rx="0.336235" transform="matrix(0.987923 0.154945 -0.216723 0.976233 157.178 372.995)" fill="black"/>
<rect width="0.67247" height="442.071" rx="0.336235" transform="matrix(0.987923 0.154945 -0.216723 0.976233 179.955 376.568)" fill="black"/>
<rect width="0.67247" height="442.071" rx="0.336235" transform="matrix(0.987923 0.154945 -0.216723 0.976233 160.973 373.591)" fill="black"/>
<rect width="0.67247" height="442.071" rx="0.336235" transform="matrix(0.987923 0.154945 -0.216723 0.976233 183.75 377.162)" fill="black"/>
<rect width="0.67247" height="442.071" rx="0.336235" transform="matrix(0.987923 0.154945 -0.216723 0.976233 164.77 374.185)" fill="black"/>
<rect width="0.67247" height="442.071" rx="0.336235" transform="matrix(0.987923 0.154945 -0.216723 0.976233 187.547 377.758)" fill="black"/>
<rect width="0.67247" height="442.071" rx="0.336235" transform="matrix(0.987923 0.154945 -0.216723 0.976233 191.344 378.353)" fill="black"/>
<rect width="0.67247" height="442.071" rx="0.336235" transform="matrix(0.987923 0.154945 -0.216723 0.976233 214.121 381.926)" fill="black"/>
<rect width="0.67247" height="442.071" rx="0.336235" transform="matrix(0.987923 0.154945 -0.216723 0.976233 195.141 378.949)" fill="black"/>
<rect width="0.67247" height="442.071" rx="0.336235" transform="matrix(0.987923 0.154945 -0.216723 0.976233 217.918 382.522)" fill="black"/>
<rect width="0.67247" height="442.071" rx="0.336235" transform="matrix(0.987923 0.154945 -0.216723 0.976233 198.936 379.545)" fill="black"/>
<rect width="0.67247" height="442.071" rx="0.336235" transform="matrix(0.987923 0.154945 -0.216723 0.976233 221.713 383.117)" fill="black"/>
<rect width="0.67247" height="442.071" rx="0.336235" transform="matrix(0.987923 0.154945 -0.216723 0.976233 202.73 380.14)" fill="black"/>
<rect width="0.67247" height="442.071" rx="0.336235" transform="matrix(0.987923 0.154945 -0.216723 0.976233 225.51 383.713)" fill="black"/>
<rect width="0.67247" height="442.071" rx="0.336235" transform="matrix(0.987923 0.154945 -0.216723 0.976233 206.527 380.735)" fill="black"/>
<rect width="0.67247" height="442.071" rx="0.336235" transform="matrix(0.987923 0.154945 -0.216723 0.976233 229.307 384.309)" fill="black"/>
<rect width="0.67247" height="442.071" rx="0.336235" transform="matrix(0.987923 0.154945 -0.216723 0.976233 210.324 381.33)" fill="black"/>
<rect width="0.67247" height="442.071" rx="0.336235" transform="matrix(0.987923 0.154945 -0.216723 0.976233 233.102 384.903)" fill="black"/>
<rect width="0.67247" height="442.071" rx="0.336235" transform="matrix(0.987923 0.154945 -0.216723 0.976233 236.898 385.499)" fill="black"/>
<rect width="0.67247" height="442.071" rx="0.336235" transform="matrix(0.987923 0.154945 -0.216723 0.976233 259.676 389.071)" fill="black"/>
<rect width="0.67247" height="442.071" rx="0.336235" transform="matrix(0.987923 0.154945 -0.216723 0.976233 240.693 386.094)" fill="black"/>
<rect width="0.67247" height="442.071" rx="0.336235" transform="matrix(0.987923 0.154945 -0.216723 0.976233 263.473 389.667)" fill="black"/>
<rect width="0.67247" height="442.071" rx="0.336235" transform="matrix(0.987923 0.154945 -0.216723 0.976233 244.492 386.69)" fill="black"/>
<rect width="0.67247" height="442.071" rx="0.336235" transform="matrix(0.987923 0.154945 -0.216723 0.976233 267.27 390.262)" fill="black"/>
<rect width="0.67247" height="442.071" rx="0.336235" transform="matrix(0.987923 0.154945 -0.216723 0.976233 248.287 387.284)" fill="black"/>
<rect width="0.67247" height="442.071" rx="0.336235" transform="matrix(0.987923 0.154945 -0.216723 0.976233 271.064 390.858)" fill="black"/>
<rect width="0.67247" height="442.071" rx="0.336235" transform="matrix(0.987923 0.154945 -0.216723 0.976233 252.084 387.88)" fill="black"/>
<rect width="0.67247" height="442.071" rx="0.336235" transform="matrix(0.987923 0.154945 -0.216723 0.976233 274.861 391.452)" fill="black"/>
<rect width="0.67247" height="442.071" rx="0.336235" transform="matrix(0.987923 0.154945 -0.216723 0.976233 255.879 388.475)" fill="black"/>
<rect width="0.67247" height="442.071" rx="0.336235" transform="matrix(0.987923 0.154945 -0.216723 0.976233 278.658 392.048)" fill="black"/>
<rect width="0.67247" height="442.071" rx="0.336235" transform="matrix(0.987923 0.154945 -0.216723 0.976233 282.455 392.643)" fill="black"/>
<rect width="0.67247" height="442.071" rx="0.336235" transform="matrix(0.987923 0.154945 -0.216723 0.976233 305.232 396.216)" fill="black"/>
<rect width="0.67247" height="442.071" rx="0.336235" transform="matrix(0.987923 0.154945 -0.216723 0.976233 286.25 393.239)" fill="black"/>
<rect width="0.67247" height="442.071" rx="0.336235" transform="matrix(0.987923 0.154945 -0.216723 0.976233 309.027 396.812)" fill="black"/>
<rect width="0.67247" height="442.071" rx="0.336235" transform="matrix(0.987923 0.154945 -0.216723 0.976233 290.047 393.835)" fill="black"/>
<rect width="0.67247" height="442.071" rx="0.336235" transform="matrix(0.987923 0.154945 -0.216723 0.976233 312.824 397.406)" fill="black"/>
<rect width="0.67247" height="442.071" rx="0.336235" transform="matrix(0.987923 0.154945 -0.216723 0.976233 293.842 394.429)" fill="black"/>
<rect width="0.67247" height="442.071" rx="0.336235" transform="matrix(0.987923 0.154945 -0.216723 0.976233 316.621 398.002)" fill="black"/>
<rect width="0.67247" height="442.071" rx="0.336235" transform="matrix(0.987923 0.154945 -0.216723 0.976233 297.639 395.025)" fill="black"/>
<rect width="0.67247" height="442.071" rx="0.336235" transform="matrix(0.987923 0.154945 -0.216723 0.976233 320.416 398.597)" fill="black"/>
<rect width="0.67247" height="442.071" rx="0.336235" transform="matrix(0.987923 0.154945 -0.216723 0.976233 301.436 395.621)" fill="black"/>
<rect width="0.67247" height="442.071" rx="0.336235" transform="matrix(0.987923 0.154945 -0.216723 0.976233 324.213 399.193)" fill="black"/>
<rect width="0.67247" height="442.071" rx="0.336235" transform="matrix(0.987923 0.154945 -0.216723 0.976233 328.008 399.789)" fill="black"/>
<rect width="0.67247" height="442.071" rx="0.336235" transform="matrix(0.987923 0.154945 -0.216723 0.976233 350.787 403.36)" fill="black"/>
<rect width="0.67247" height="442.071" rx="0.336235" transform="matrix(0.987923 0.154945 -0.216723 0.976233 331.807 400.384)" fill="black"/>
<rect width="0.67247" height="442.071" rx="0.336235" transform="matrix(0.987923 0.154945 -0.216723 0.976233 354.584 403.957)" fill="black"/>
<rect width="0.67247" height="442.071" rx="0.336235" transform="matrix(0.987923 0.154945 -0.216723 0.976233 335.602 400.979)" fill="black"/>
<rect width="0.67247" height="442.071" rx="0.336235" transform="matrix(0.987923 0.154945 -0.216723 0.976233 358.379 404.551)" fill="black"/>
<rect width="0.67247" height="442.071" rx="0.336235" transform="matrix(0.987923 0.154945 -0.216723 0.976233 339.398 401.574)" fill="black"/>
<rect width="0.67247" height="442.071" rx="0.336235" transform="matrix(0.987923 0.154945 -0.216723 0.976233 362.176 405.147)" fill="black"/>
<rect width="0.67247" height="442.071" rx="0.336235" transform="matrix(0.987923 0.154945 -0.216723 0.976233 343.193 402.17)" fill="black"/>
<rect width="0.67247" height="442.071" rx="0.336235" transform="matrix(0.987923 0.154945 -0.216723 0.976233 365.973 405.742)" fill="black"/>
<rect width="0.67247" height="442.071" rx="0.336235" transform="matrix(0.987923 0.154945 -0.216723 0.976233 346.99 402.766)" fill="black"/>
<rect width="0.67247" height="442.071" rx="0.336235" transform="matrix(0.987923 0.154945 -0.216723 0.976233 369.77 406.338)" fill="black"/>
<rect width="0.67247" height="442.071" rx="0.336235" transform="matrix(0.987923 0.154945 -0.216723 0.976233 373.564 406.934)" fill="black"/>
<rect width="0.67247" height="442.071" rx="0.336235" transform="matrix(0.987923 0.154945 -0.216723 0.976233 396.342 410.505)" fill="black"/>
<rect width="0.67247" height="442.071" rx="0.336235" transform="matrix(0.987923 0.154945 -0.216723 0.976233 377.361 407.528)" fill="black"/>
<rect width="0.67247" height="442.071" rx="0.336235" transform="matrix(0.987923 0.154945 -0.216723 0.976233 400.137 411.101)" fill="black"/>
<rect width="0.67247" height="442.071" rx="0.336235" transform="matrix(0.987923 0.154945 -0.216723 0.976233 381.156 408.124)" fill="black"/>
<rect width="0.67247" height="442.071" rx="0.336235" transform="matrix(0.987923 0.154945 -0.216723 0.976233 403.936 411.696)" fill="black"/>
<rect width="0.67247" height="442.071" rx="0.336235" transform="matrix(0.987923 0.154945 -0.216723 0.976233 384.953 408.719)" fill="black"/>
<rect width="0.67247" height="442.071" rx="0.336235" transform="matrix(0.987923 0.154945 -0.216723 0.976233 407.732 412.292)" fill="black"/>
<rect width="0.67247" height="442.071" rx="0.336235" transform="matrix(0.987923 0.154945 -0.216723 0.976233 388.75 409.315)" fill="black"/>
<rect width="0.67247" height="442.071" rx="0.336235" transform="matrix(0.987923 0.154945 -0.216723 0.976233 411.527 412.887)" fill="black"/>
<rect width="0.67247" height="442.071" rx="0.336235" transform="matrix(0.987923 0.154945 -0.216723 0.976233 392.545 409.909)" fill="black"/>
<rect width="0.67247" height="442.071" rx="0.336235" transform="matrix(0.987923 0.154945 -0.216723 0.976233 415.324 413.483)" fill="black"/>
<rect width="0.67247" height="442.071" rx="0.336235" transform="matrix(0.987923 0.154945 -0.216723 0.976233 419.121 414.077)" fill="black"/>
<rect width="0.67247" height="442.071" rx="0.336235" transform="matrix(0.987923 0.154945 -0.216723 0.976233 441.898 417.65)" fill="black"/>
<rect width="0.67247" height="442.071" rx="0.336235" transform="matrix(0.987923 0.154945 -0.216723 0.976233 422.916 414.673)" fill="black"/>
<rect width="0.67247" height="442.071" rx="0.336235" transform="matrix(0.987923 0.154945 -0.216723 0.976233 445.693 418.246)" fill="black"/>
<rect width="0.67247" height="442.071" rx="0.336235" transform="matrix(0.987923 0.154945 -0.216723 0.976233 426.713 415.269)" fill="black"/>
<rect width="0.67247" height="442.071" rx="0.336235" transform="matrix(0.987923 0.154945 -0.216723 0.976233 449.49 418.841)" fill="black"/>
<rect width="0.67247" height="442.071" rx="0.336235" transform="matrix(0.987923 0.154945 -0.216723 0.976233 430.51 415.864)" fill="black"/>
<rect width="0.67247" height="442.071" rx="0.336235" transform="matrix(0.987923 0.154945 -0.216723 0.976233 453.287 419.437)" fill="black"/>
<rect width="0.67247" height="442.071" rx="0.336235" transform="matrix(0.987923 0.154945 -0.216723 0.976233 434.305 416.46)" fill="black"/>
<rect width="0.67247" height="442.071" rx="0.336235" transform="matrix(0.987923 0.154945 -0.216723 0.976233 457.084 420.031)" fill="black"/>
<rect width="0.67247" height="442.071" rx="0.336235" transform="matrix(0.987923 0.154945 -0.216723 0.976233 438.102 417.054)" fill="black"/>
<rect width="0.67247" height="442.071" rx="0.336235" transform="matrix(0.987923 0.154945 -0.216723 0.976233 460.879 420.627)" fill="black"/>
<rect width="0.67247" height="442.071" rx="0.336235" transform="matrix(0.987923 0.154945 -0.216723 0.976233 464.674 421.224)" fill="black"/>
<rect width="0.67247" height="442.071" rx="0.336235" transform="matrix(0.987923 0.154945 -0.216723 0.976233 487.453 424.795)" fill="black"/>
<rect width="0.67247" height="442.071" rx="0.336235" transform="matrix(0.987923 0.154945 -0.216723 0.976233 468.471 421.818)" fill="black"/>
<rect width="0.67247" height="442.071" rx="0.336235" transform="matrix(0.987923 0.154945 -0.216723 0.976233 491.25 425.391)" fill="black"/>
<rect width="0.67247" height="442.071" rx="0.336235" transform="matrix(0.987923 0.154945 -0.216723 0.976233 472.27 422.414)" fill="black"/>
<rect width="0.67247" height="442.071" rx="0.336235" transform="matrix(0.987923 0.154945 -0.216723 0.976233 495.047 425.986)" fill="black"/>
<rect width="0.67247" height="442.071" rx="0.336235" transform="matrix(0.987923 0.154945 -0.216723 0.976233 476.064 423.009)" fill="black"/>
<rect width="0.67247" height="442.071" rx="0.336235" transform="matrix(0.987923 0.154945 -0.216723 0.976233 498.842 426.582)" fill="black"/>
<rect width="0.67247" height="442.071" rx="0.336235" transform="matrix(0.987923 0.154945 -0.216723 0.976233 479.859 423.605)" fill="black"/>
<rect width="0.67247" height="442.071" rx="0.336235" transform="matrix(0.987923 0.154945 -0.216723 0.976233 502.637 427.176)" fill="black"/>
<rect width="0.67247" height="442.071" rx="0.336235" transform="matrix(0.987923 0.154945 -0.216723 0.976233 483.656 424.201)" fill="black"/>
<rect width="0.67247" height="442.071" rx="0.336235" transform="matrix(0.987923 0.154945 -0.216723 0.976233 506.436 427.772)" fill="black"/>
</g>
</svg>
