<svg width="196" height="196" viewBox="0 0 196 196" fill="none" xmlns="http://www.w3.org/2000/svg">
<g filter="url(#filter0_b_2464_3541)">
<circle cx="98" cy="98" r="98" fill="url(#paint0_linear_2464_3541)"/>
</g>
<path d="M89.8007 167.809L90.5224 179.347L88.5419 178.97L88.0542 171.084L84.7066 178.241L82.954 177.908L82.4663 170.022L79.1265 177.18L77.146 176.803L82.0358 166.332L84.2128 166.746L84.659 173.737L87.6159 167.393L89.8007 167.809Z" fill="white"/>
<path d="M61.8782 170.994L59.8786 169.967L61.3741 158.144L63.2171 159.09L62.951 161.184L67.2207 163.377L68.7676 161.942L70.6107 162.888L61.8782 170.994ZM65.6954 164.788L62.6996 163.25L62.0919 168.127L65.6954 164.788Z" fill="white"/>
<path d="M41.516 156.993L42.7811 155.506L45.3886 157.725L51.3823 150.683L52.8688 151.948L46.8751 158.991L49.4827 161.21L48.2176 162.696L41.516 156.993Z" fill="white"/>
<path d="M41.3627 139.512C41.8121 140.122 42.1143 140.783 42.2694 141.497C42.4202 142.214 42.4312 142.935 42.3025 143.659C42.1706 144.379 41.9089 145.062 41.5173 145.709C41.1183 146.354 40.5968 146.914 39.9528 147.388C39.3045 147.866 38.6153 148.199 37.8852 148.386C37.1476 148.571 36.4176 148.619 35.6951 148.529C34.9652 148.437 34.2823 148.212 33.6463 147.852C33.0061 147.496 32.4613 147.013 32.012 146.404C31.4741 145.674 31.1485 144.877 31.0351 144.013C30.9175 143.152 30.9912 142.313 31.2562 141.495L33.0444 142.343C32.9176 142.828 32.8991 143.328 32.9886 143.845C33.075 144.358 33.2732 144.825 33.5833 145.245C33.8744 145.64 34.2297 145.952 34.6491 146.179C35.0643 146.41 35.5122 146.55 35.9929 146.6C36.4692 146.653 36.9501 146.613 37.4355 146.481C37.9166 146.352 38.3697 146.13 38.7947 145.817C39.2241 145.501 39.5717 145.132 39.8376 144.711C40.1004 144.285 40.2791 143.835 40.3737 143.361C40.4641 142.891 40.4642 142.423 40.3742 141.96C40.2768 141.495 40.0825 141.065 39.7914 140.67C39.475 140.241 39.0863 139.911 38.6252 139.681C38.1567 139.45 37.6725 139.323 37.1724 139.301L36.8976 137.337C37.7531 137.329 38.5767 137.507 39.3684 137.871C40.16 138.235 40.8248 138.782 41.3627 139.512Z" fill="white"/>
<path d="M21.7055 127.331L20.9709 125.523L31.3473 121.308L32.082 123.116L27.4274 125.007L29.1738 129.306L33.8284 127.415L34.563 129.223L24.1866 133.439L23.4519 131.63L27.3653 130.04L25.6189 125.742L21.7055 127.331Z" fill="white"/>
<path d="M27.6033 100.895C27.6112 101.551 27.4582 102.139 27.1444 102.66C26.8307 103.182 26.4143 103.597 25.8953 103.907C25.3709 104.212 24.8047 104.369 24.1968 104.376C23.8555 104.38 23.5565 104.352 23.2997 104.291C23.043 104.23 22.7937 104.123 22.5518 103.972C22.3047 103.82 22.0355 103.612 21.7443 103.349C21.4478 103.086 21.0945 102.754 20.6843 102.354C20.4629 102.575 20.2652 102.764 20.091 102.921C19.9169 103.072 19.7476 103.194 19.5834 103.287C19.4138 103.38 19.2413 103.449 19.0658 103.493C18.8903 103.533 18.6905 103.554 18.4666 103.557C17.9759 103.562 17.5372 103.45 17.1504 103.22C16.7583 102.99 16.4479 102.682 16.2193 102.295C15.9906 101.909 15.8736 101.489 15.8681 101.036C15.8624 100.561 15.9719 100.13 16.1967 99.7435C16.416 99.3515 16.7189 99.0385 17.1055 98.8045C17.492 98.5652 17.9252 98.4427 18.4052 98.4369C18.6345 98.4342 18.84 98.453 19.0219 98.4935C19.2036 98.5287 19.3778 98.5932 19.5442 98.6873C19.7106 98.7759 19.8828 98.8965 20.0606 99.0491C20.2384 99.1963 20.4352 99.378 20.6512 99.594L22.7377 97.4569L20.6897 95.4653L23.4495 95.4322L24.1052 96.0724L25.9387 94.1862L27.3312 95.5536L25.5055 97.4237C25.9211 97.8294 26.2639 98.1773 26.5341 98.4674C26.8043 98.7575 27.0181 99.0243 27.1757 99.2678C27.3279 99.506 27.4349 99.7527 27.4966 100.008C27.5636 100.258 27.5992 100.553 27.6033 100.895ZM25.6514 100.918C25.6492 100.732 25.6259 100.569 25.5816 100.431C25.5319 100.293 25.4503 100.155 25.3366 100.018C25.2176 99.8806 25.061 99.7198 24.8668 99.5355C24.6725 99.3458 24.4296 99.1087 24.1382 98.8242L22.0517 100.961C22.3592 101.256 22.6102 101.501 22.8046 101.696C22.9988 101.886 23.166 102.033 23.3059 102.138C23.4405 102.243 23.5747 102.319 23.7086 102.366C23.8425 102.407 24.0001 102.426 24.1814 102.424C24.4694 102.42 24.7245 102.348 24.9468 102.207C25.1691 102.06 25.3429 101.874 25.4682 101.648C25.5934 101.418 25.6545 101.174 25.6514 100.918ZM19.5719 100.991C19.3397 100.754 19.1642 100.577 19.0455 100.461C18.9267 100.34 18.8244 100.259 18.7385 100.217C18.6473 100.17 18.5297 100.148 18.3857 100.149C18.119 100.152 17.9121 100.246 17.765 100.429C17.6178 100.612 17.5455 100.807 17.548 101.015C17.5507 101.239 17.6357 101.436 17.8031 101.604C17.9704 101.768 18.1714 101.848 18.406 101.845C18.55 101.843 18.6697 101.818 18.7651 101.769C18.8605 101.714 18.9661 101.625 19.0819 101.501C19.1978 101.377 19.3611 101.207 19.5719 100.991Z" fill="white"/>
<path d="M30.091 78.0394L19.5209 74.3363L21.8432 67.7074L23.6854 68.3527L22.0085 73.1395L24.1527 73.8907L25.4832 70.093L27.3254 70.7384L25.9949 74.5361L28.8942 75.5518L30.5711 70.765L32.4133 71.4104L30.091 78.0394Z" fill="white"/>
<path d="M35.038 65.3825L32.4102 58.9334L25.5448 59.4393L26.8139 57.3928L31.6462 57.0382L29.8199 52.5452L31.0889 50.4987L33.6876 56.8733L40.6327 56.3603L39.3552 58.4204L34.461 58.7837L36.3155 63.3224L35.038 65.3825Z" fill="white"/>
<path d="M44.7362 51.297L36.8185 43.3756L39.6476 40.5478C40.0776 40.118 40.5736 39.8371 41.1355 39.7053C41.7012 39.5696 42.2669 39.5811 42.8326 39.7396C43.3982 39.8981 43.8978 40.1943 44.3314 40.6281C44.7763 41.0732 45.0741 41.5824 45.2249 42.1556C45.3756 42.7214 45.383 43.2871 45.2471 43.8527C45.1074 44.4146 44.8301 44.9029 44.4152 45.3176L42.9667 46.7655L46.1168 49.9171L44.7362 51.297ZM41.5867 45.3849L42.8881 44.0841C43.0843 43.888 43.2144 43.6599 43.2786 43.3997C43.3428 43.1395 43.3391 42.8793 43.2675 42.619C43.1997 42.355 43.0639 42.1212 42.8603 41.9175C42.653 41.71 42.4173 41.5723 42.1533 41.5044C41.8931 41.4327 41.6329 41.4288 41.3727 41.4929C41.1125 41.5569 40.8843 41.687 40.6881 41.8831L39.3867 43.1838L41.5867 45.3849Z" fill="white"/>
<path d="M56.4035 40.7536L50.3286 31.3442L51.9685 30.2855L56.9846 38.0549L60.9029 35.5251L61.9617 37.165L56.4035 40.7536Z" fill="white"/>
<path d="M73.4965 32.0028C72.7832 32.2573 72.0625 32.3559 71.3342 32.2987C70.6041 32.2364 69.9109 32.0392 69.2545 31.7072C68.598 31.3751 68.0168 30.9285 67.5107 30.3672C67.0029 29.801 66.6146 29.1411 66.3457 28.3876C66.0769 27.6341 65.9607 26.88 65.9971 26.1252C66.0318 25.3653 66.1981 24.6491 66.4961 23.9765C66.7941 23.304 67.2068 22.715 67.7343 22.2097C68.2601 21.6993 68.8796 21.3169 69.5928 21.0624C70.3112 20.8061 71.0353 20.709 71.7654 20.7713C72.4937 20.8286 73.186 21.0232 73.8424 21.3553C74.4989 21.6873 75.0785 22.1374 75.5813 22.7054C76.0874 23.2667 76.4748 23.924 76.7436 24.6775C77.0125 25.431 77.1296 26.1876 77.0949 26.9475C77.0635 27.7005 76.8988 28.4133 76.6008 29.0859C76.3029 29.7585 75.891 30.35 75.3653 30.8603C74.8377 31.3657 74.2148 31.7465 73.4965 32.0028ZM72.8405 30.1643C73.3027 29.9994 73.7031 29.7489 74.0419 29.4129C74.3806 29.0768 74.6441 28.6884 74.8322 28.2475C75.0236 27.7998 75.1267 27.327 75.1415 26.8291C75.1614 26.3293 75.0826 25.8308 74.9052 25.3335C74.7277 24.8362 74.4731 24.4004 74.1414 24.0261C73.8079 23.6468 73.4262 23.347 72.9965 23.1266C72.5718 22.9044 72.122 22.7704 71.647 22.7247C71.177 22.6772 70.711 22.7359 70.2488 22.9008C69.7867 23.0657 69.3863 23.3162 69.0475 23.6523C68.7087 23.9883 68.4437 24.3802 68.2523 24.8279C68.0642 25.2687 67.9602 25.739 67.9403 26.2388C67.9255 26.7367 68.0068 27.2343 68.1842 27.7316C68.3634 28.2339 68.6189 28.6722 68.9507 29.0465C69.2824 29.4208 69.6615 29.7216 70.088 29.9488C70.5177 30.1692 70.9676 30.3031 71.4375 30.3506C71.9107 30.3913 72.3784 30.3292 72.8405 30.1643Z" fill="white"/>
<path d="M86.1156 28.2818L85.0703 17.1307L89.3475 16.7297C89.9528 16.673 90.514 16.773 91.0309 17.0299C91.5478 17.2868 91.9735 17.6567 92.308 18.1396C92.642 18.6171 92.8379 19.1639 92.8957 19.7799C92.943 20.2843 92.8936 20.7577 92.7476 21.1999C92.6063 21.6363 92.3856 22.0239 92.0852 22.3628C91.7902 22.7011 91.4377 22.9699 91.0278 23.169L94.1285 27.5306L91.8903 27.7405L88.8937 23.5458L87.6432 23.6631L88.0591 28.0996L86.1156 28.2818ZM87.461 21.7196L89.5717 21.5217C89.8479 21.4958 90.0936 21.4032 90.309 21.2437C90.5244 21.0842 90.6902 20.8812 90.8063 20.6346C90.9225 20.388 90.9671 20.1214 90.9402 19.8346C90.9129 19.5426 90.8192 19.2862 90.6592 19.0655C90.4993 18.8448 90.2987 18.6761 90.0574 18.5595C89.8161 18.4428 89.5574 18.3974 89.2813 18.4233L87.1705 18.6212L87.461 21.7196Z" fill="white"/>
<path d="M102.686 27.5952L104.078 16.482L111.047 17.3552L110.805 19.292L105.772 18.6615L105.49 20.9159L109.482 21.4161L109.24 23.353L105.247 22.8528L104.865 25.9009L109.898 26.5314L109.655 28.4683L102.686 27.5952Z" fill="white"/>
<path d="M129.413 35.3412C128.741 34.9916 128.178 34.5305 127.725 33.9578C127.274 33.3804 126.947 32.7382 126.743 32.0312C126.54 31.3242 126.472 30.5943 126.539 29.8416C126.609 29.0841 126.828 28.3506 127.197 27.6409C127.567 26.9313 128.04 26.333 128.618 25.8462C129.199 25.3546 129.837 24.9892 130.532 24.75C131.228 24.5108 131.94 24.4126 132.67 24.4554C133.401 24.4935 134.103 24.6873 134.775 25.0369C135.452 25.389 136.015 25.8537 136.466 26.4311C136.92 27.0038 137.248 27.6437 137.452 28.3507C137.655 29.0577 137.719 29.7887 137.645 30.5436C137.578 31.2964 137.36 32.0276 136.991 32.7372C136.621 33.4469 136.146 34.0475 135.566 34.539C134.993 35.0283 134.358 35.3926 133.663 35.6318C132.967 35.871 132.253 35.9716 131.522 35.9335C130.792 35.8907 130.089 35.6933 129.413 35.3412ZM130.314 33.6096C130.749 33.8361 131.205 33.9592 131.682 33.9789C132.159 33.9985 132.623 33.9273 133.074 33.7652C133.532 33.6009 133.949 33.3547 134.324 33.0269C134.704 32.7014 135.015 32.3045 135.259 31.8361C135.503 31.3678 135.649 30.8847 135.698 30.3869C135.749 29.8844 135.709 29.4007 135.578 28.9358C135.452 28.4734 135.244 28.0526 134.954 27.6734C134.669 27.2966 134.309 26.995 133.874 26.7685C133.439 26.542 132.983 26.4189 132.506 26.3993C132.029 26.3796 131.562 26.452 131.103 26.6163C130.652 26.7784 130.237 27.0222 129.857 27.3476C129.482 27.6755 129.173 28.0736 128.929 28.542C128.683 29.0151 128.535 29.5006 128.487 29.9983C128.438 30.4961 128.476 30.9786 128.599 31.4457C128.73 31.9106 128.938 32.3314 129.223 32.7082C129.515 33.0827 129.879 33.3831 130.314 33.6096Z" fill="white"/>
<path d="M143.934 45.202C143.265 44.6051 142.824 43.918 142.611 43.1406C142.401 42.3668 142.402 41.581 142.614 40.7834C142.829 39.9818 143.237 39.2449 143.838 38.5727L148.186 33.7042L149.642 35.0046L145.293 39.8731C144.938 40.2709 144.685 40.7026 144.533 41.1681C144.39 41.6333 144.368 42.0896 144.469 42.5372C144.577 42.9844 144.832 43.3874 145.234 43.7462C145.64 44.1086 146.069 44.3168 146.521 44.3706C146.977 44.4204 147.425 44.3442 147.863 44.142C148.308 43.9393 148.709 43.6391 149.064 43.2414L153.413 38.3729L154.869 39.6732L150.52 44.5418C150.069 45.0469 149.566 45.4492 149.013 45.7486C148.463 46.044 147.891 46.2273 147.299 46.2985C146.706 46.3696 146.121 46.3157 145.544 46.1367C144.972 45.9613 144.435 45.6497 143.934 45.202Z" fill="white"/>
<path d="M152.593 53.7221L161.805 47.3527L164.248 50.8863C164.594 51.3864 164.781 51.9247 164.81 52.5012C164.839 53.0777 164.725 53.63 164.468 54.158C164.215 54.6831 163.834 55.1215 163.325 55.4733C162.908 55.7615 162.471 55.9501 162.014 56.0392C161.564 56.1297 161.118 56.1268 160.676 56.0308C160.236 55.9391 159.83 55.7633 159.455 55.5033L157.169 60.3419L155.891 58.4929L158.082 53.8267L157.368 52.7936L153.703 55.3277L152.593 53.7221ZM158.973 51.6835L160.179 53.4273C160.337 53.6554 160.538 53.8243 160.782 53.9341C161.027 54.0439 161.285 54.0891 161.557 54.0697C161.829 54.0503 162.083 53.9587 162.32 53.7949C162.561 53.6281 162.739 53.4209 162.853 53.1734C162.967 52.9259 163.016 52.6684 163 52.4009C162.984 52.1334 162.897 51.8856 162.739 51.6575L161.533 49.9137L158.973 51.6835Z" fill="white"/>
<path d="M165.67 81.0976C165.492 80.3615 165.47 79.6343 165.603 78.9161C165.742 78.1967 166.011 77.528 166.411 76.9102C166.811 76.2976 167.317 75.7692 167.928 75.325C168.546 74.8848 169.244 74.5707 170.022 74.3826C170.804 74.1934 171.569 74.154 172.314 74.2645C173.066 74.379 173.758 74.6178 174.389 74.981C175.026 75.3481 175.568 75.8205 176.015 76.3983C176.467 76.9749 176.783 77.6312 176.961 78.3673C177.174 79.2486 177.165 80.1094 176.935 80.9497C176.71 81.7888 176.317 82.5341 175.755 83.1856L174.436 81.7104C174.74 81.3131 174.951 80.8587 175.069 80.3474C175.188 79.8412 175.186 79.3341 175.063 78.8261C174.948 78.3492 174.741 77.9246 174.442 77.5523C174.149 77.1788 173.791 76.876 173.367 76.6437C172.948 76.4102 172.489 76.2605 171.991 76.1946C171.497 76.1274 170.994 76.1559 170.48 76.28C169.962 76.4053 169.499 76.6107 169.09 76.896C168.683 77.1865 168.344 77.5318 168.073 77.932C167.808 78.331 167.626 78.7616 167.53 79.224C167.439 79.6903 167.452 80.1619 167.567 80.6388C167.693 81.1572 167.923 81.6117 168.259 82.0024C168.602 82.3969 168.999 82.7014 169.451 82.9158L168.944 84.8328C168.152 84.5085 167.462 84.0252 166.873 83.3829C166.284 82.7406 165.883 81.9789 165.67 81.0976Z" fill="white"/>
<path d="M167.682 98.4265C167.696 97.6693 167.858 96.9601 168.169 96.299C168.485 95.638 168.915 95.0591 169.457 94.5622C169.999 94.0653 170.623 93.6793 171.326 93.4041C172.036 93.129 172.79 92.9987 173.59 93.0133C174.39 93.0278 175.136 93.1855 175.83 93.4862C176.528 93.7869 177.14 94.1955 177.664 94.7118C178.188 95.2281 178.593 95.8222 178.879 96.4942C179.171 97.1663 179.31 97.881 179.296 98.6382C179.282 99.4007 179.117 100.113 178.801 100.774C178.491 101.435 178.064 102.014 177.521 102.51C176.979 103.007 176.353 103.391 175.644 103.66C174.94 103.936 174.189 104.066 173.389 104.051C172.589 104.037 171.84 103.879 171.141 103.578C170.448 103.283 169.839 102.877 169.315 102.361C168.791 101.845 168.383 101.25 168.091 100.578C167.805 99.9063 167.668 99.1891 167.682 98.4265ZM169.634 98.4621C169.625 98.9527 169.718 99.4158 169.913 99.8514C170.107 100.287 170.378 100.671 170.724 101.002C171.075 101.339 171.481 101.603 171.942 101.793C172.402 101.988 172.896 102.09 173.424 102.1C173.952 102.109 174.45 102.025 174.917 101.847C175.39 101.669 175.805 101.418 176.163 101.094C176.521 100.775 176.805 100.401 177.016 99.9729C177.226 99.55 177.336 99.0932 177.345 98.6026C177.354 98.112 177.261 97.6489 177.066 97.2133C176.871 96.7777 176.598 96.3913 176.247 96.0542C175.901 95.7225 175.498 95.4591 175.037 95.264C174.577 95.0743 174.082 94.9746 173.554 94.9649C173.021 94.9552 172.521 95.0395 172.053 95.2176C171.586 95.3958 171.171 95.6443 170.808 95.9631C170.45 96.2873 170.166 96.6608 169.955 97.0837C169.75 97.512 169.643 97.9715 169.634 98.4621Z" fill="white"/>
<path d="M166.833 111.639L176.93 116.951L176.464 118.499L168.806 119.042L174.891 123.723L174.426 125.271L163.074 124.126L163.648 122.218L170.669 122.928L165.007 118.592L165.392 117.313L172.507 116.823L166.258 113.547L166.833 111.639Z" fill="white"/>
<path d="M159.977 130.488L169.537 136.322L167.454 139.737C167.137 140.256 166.721 140.645 166.206 140.906C165.688 141.171 165.136 141.293 164.549 141.272C163.962 141.251 163.406 141.081 162.883 140.762C162.346 140.434 161.936 140.009 161.655 139.488C161.375 138.973 161.235 138.425 161.234 137.843C161.237 137.265 161.391 136.725 161.697 136.224L162.764 134.476L158.96 132.155L159.977 130.488ZM164.43 135.492L163.472 137.063C163.327 137.3 163.254 137.552 163.253 137.82C163.252 138.088 163.317 138.34 163.448 138.576C163.576 138.817 163.763 139.012 164.009 139.162C164.259 139.315 164.521 139.393 164.793 139.397C165.063 139.406 165.317 139.348 165.555 139.224C165.793 139.101 165.984 138.921 166.128 138.684L167.087 137.113L164.43 135.492Z" fill="white"/>
<path d="M156.442 154.165L154.854 155.756L144.051 150.723L145.515 149.257L147.428 150.149L150.82 146.753L149.925 144.841L151.389 143.375L156.442 154.165ZM151.698 148.636L149.318 151.019L153.777 153.086L151.698 148.636Z" fill="white"/>
<path d="M138.203 155.392L143.931 165.016L142.116 166.097L134.129 161.922L138.053 168.515L136.376 169.513L130.648 159.888L132.456 158.812L140.449 162.983L136.525 156.39L138.203 155.392Z" fill="white"/>
<path d="M119.33 176.307L117.12 176.961L119.065 169.97L117.633 165.129L119.505 164.576L120.937 169.416L126.372 174.224L124.163 174.878L120.605 171.734L119.33 176.307Z" fill="white"/>
<path d="M105.133 167.433C105.409 167.407 105.654 167.48 105.869 167.652C106.079 167.831 106.197 168.061 106.223 168.342C106.249 168.613 106.176 168.855 106.003 169.07C105.825 169.285 105.598 169.406 105.322 169.432C105.046 169.458 104.8 169.382 104.585 169.204C104.37 169.026 104.25 168.802 104.224 168.531C104.198 168.25 104.273 168.002 104.451 167.787C104.63 167.577 104.857 167.459 105.133 167.433Z" fill="white"/>
<defs>
<filter id="filter0_b_2464_3541" x="-15" y="-15" width="226" height="226" filterUnits="userSpaceOnUse" color-interpolation-filters="sRGB">
<feFlood flood-opacity="0" result="BackgroundImageFix"/>
<feGaussianBlur in="BackgroundImageFix" stdDeviation="7.5"/>
<feComposite in2="SourceAlpha" operator="in" result="effect1_backgroundBlur_2464_3541"/>
<feBlend mode="normal" in="SourceGraphic" in2="effect1_backgroundBlur_2464_3541" result="shape"/>
</filter>
<linearGradient id="paint0_linear_2464_3541" x1="-1.05731e-05" y1="-0.000968539" x2="196" y2="195.999" gradientUnits="userSpaceOnUse">
<stop stop-color="#52C459"/>
<stop offset="1" stop-color="#52C459" stop-opacity="0.1"/>
</linearGradient>
</defs>
</svg>
