<svg width="259" height="70" viewBox="0 0 259 70" fill="none" xmlns="http://www.w3.org/2000/svg">
<rect width="259" height="70" rx="10" fill="white"/>
<path d="M74.5376 38.58L73.1776 42H70.8376L76.7776 27.42H79.4776L85.3776 42H82.9976L81.6576 38.58H74.5376ZM75.3376 36.54H80.8776L78.0976 29.62L75.3376 36.54ZM91.708 40.02H89.648V36.2H85.748V34.18H89.648V30.42H91.708V34.18H95.608V36.2H91.708V40.02ZM102.751 40.02H100.691V36.2H96.7909V34.18H100.691V30.42H102.751V34.18H106.651V36.2H102.751V40.02ZM123.536 31.96C123.536 33.22 123.056 34.36 122.176 35.22C121.296 36.08 119.876 36.6 118.156 36.6H115.556V42H113.276V27.42H118.436C120.616 27.42 122.036 28.22 122.796 29.38C123.316 30.18 123.536 31.02 123.536 31.96ZM121.216 32C121.216 30.9 120.636 29.54 118.236 29.54H115.556V34.5H118.236C119.296 34.5 120.116 34.18 120.556 33.68C120.996 33.18 121.216 32.62 121.216 32ZM133.431 37.68H125.871C125.911 39.16 127.351 40.3 128.791 40.28C130.071 40.28 131.051 39.74 131.431 38.6L133.291 39.18C132.931 40.4 131.931 41.38 130.731 41.84C130.111 42.06 129.491 42.18 128.811 42.18C125.951 42.24 123.551 39.9 123.611 37.02C123.611 36.08 123.831 35.22 124.251 34.44C124.691 33.64 125.271 33.02 126.051 32.56C126.811 32.1 127.671 31.86 128.611 31.86C130.131 31.86 131.311 32.32 132.171 33.28C133.031 34.22 133.471 35.46 133.471 37C133.471 37.24 133.451 37.48 133.431 37.68ZM128.631 33.76C127.951 33.76 127.351 33.96 126.871 34.38C126.391 34.78 126.091 35.32 125.991 36H131.211C131.171 35.32 130.911 34.78 130.431 34.36C129.931 33.96 129.331 33.76 128.631 33.76ZM140.676 32.02V34.3C140.496 34.26 140.296 34.24 140.056 34.24C138.376 34.24 137.456 35.22 137.456 36.94V42H135.236V32.06H137.416V33.6C137.996 32.54 139.056 31.98 140.136 31.98C140.336 31.98 140.516 32 140.676 32.02ZM145.22 34.02V42H142.98V34.02H141.08V32.06H142.98V30.9C142.98 29.46 143.4 28.34 144.08 27.72C144.78 27.1 145.64 26.8 146.66 26.8C147.18 26.8 147.6 26.84 147.9 26.96V28.84C147.74 28.8 147.48 28.76 147.1 28.76C146.72 28.76 146.16 28.86 145.7 29.32C145.44 29.6 145.22 30.16 145.22 30.88V32.06H147.82V34.02H145.22ZM148.048 37.02C148.048 36.06 148.288 35.18 148.768 34.38C149.248 33.6 149.868 32.96 150.688 32.52C151.488 32.08 152.368 31.86 153.328 31.86C154.248 31.86 155.128 32.08 155.928 32.52C156.728 32.96 157.368 33.58 157.848 34.36C158.308 35.16 158.548 36.02 158.548 36.98C158.608 39.86 156.148 42.24 153.308 42.18C152.348 42.18 151.488 41.94 150.688 41.5C149.868 41.06 149.248 40.42 148.768 39.64C148.288 38.84 148.048 37.98 148.048 37.02ZM150.328 36.98C150.328 37.84 150.608 38.6 151.168 39.22C151.728 39.84 152.448 40.16 153.328 40.16C154.208 40.16 154.908 39.86 155.468 39.24C156.008 38.64 156.288 37.9 156.288 37.02C156.288 36.14 156.008 35.38 155.448 34.78C154.908 34.16 154.188 33.86 153.308 33.86C152.428 33.86 151.708 34.16 151.148 34.76C150.588 35.36 150.328 36.1 150.328 36.98ZM165.777 32.02V34.3C165.597 34.26 165.397 34.24 165.157 34.24C163.477 34.24 162.557 35.22 162.557 36.94V42H160.337V32.06H162.517V33.6C163.097 32.54 164.157 31.98 165.237 31.98C165.437 31.98 165.617 32 165.777 32.02ZM173.701 42V36.42C173.701 34.92 173.021 33.94 171.581 33.94C170.881 33.94 170.361 34.16 169.981 34.62C169.581 35.1 169.381 35.7 169.381 36.46V42H167.161V32.06H169.321V33.4C169.621 33 169.961 32.68 170.361 32.44C170.741 32.2 171.081 32.02 171.381 31.94C171.681 31.88 172.001 31.84 172.301 31.84C173.721 31.84 174.741 32.38 175.361 33.46C175.861 32.9 176.381 32.5 176.921 32.22C177.461 31.96 178.081 31.84 178.821 31.84C180.041 31.84 181.001 32.28 181.581 33C182.161 33.74 182.441 34.7 182.441 35.86V42H180.221V36.4C180.221 34.9 179.561 33.94 178.101 33.94C177.421 33.94 176.881 34.16 176.501 34.62C176.101 35.08 175.901 35.7 175.901 36.44V42H173.701ZM192.726 42H190.566C190.506 41.72 190.466 41.28 190.466 40.64C190.126 41.2 189.706 41.58 189.186 41.82C188.646 42.06 188.106 42.18 187.546 42.18C186.586 42.18 185.766 41.9 185.146 41.34C184.526 40.8 184.206 40.1 184.206 39.24V39.14C184.226 37.76 185.046 36.92 186.126 36.5C186.886 36.2 187.606 36.1 188.326 36.1H189.566C190.186 36.1 190.486 35.82 190.486 35.26C190.486 34.84 190.326 34.48 189.986 34.18C189.646 33.9 189.166 33.74 188.526 33.74C187.346 33.74 186.526 34.4 186.366 35.4L184.346 34.94C184.406 34.48 184.626 33.98 185.026 33.44C185.426 32.92 185.926 32.52 186.586 32.24C187.146 31.98 187.826 31.86 188.606 31.86C190.466 31.86 191.706 32.54 192.326 33.9C192.546 34.38 192.666 34.96 192.666 35.66V40.4C192.666 41.06 192.686 41.6 192.726 42ZM190.466 37.98V37.66H188.326C187.846 37.66 187.426 37.78 187.026 38.02C186.626 38.28 186.426 38.62 186.426 39.04C186.426 39.86 187.066 40.4 188.006 40.4C188.746 40.4 189.366 40.18 189.806 39.74C190.246 39.3 190.466 38.72 190.466 37.98ZM201.729 42V36.44C201.729 34.94 200.989 33.96 199.529 33.96C198.829 33.96 198.269 34.18 197.849 34.64C197.429 35.1 197.229 35.7 197.229 36.46V42H195.009V32.06H197.169V33.4C197.469 33 197.829 32.68 198.229 32.44C198.629 32.2 198.969 32.04 199.289 31.96C199.589 31.9 199.909 31.86 200.209 31.86C201.429 31.86 202.349 32.22 202.989 32.98C203.629 33.72 203.929 34.7 203.929 35.88V42H201.729ZM210.806 42.18C207.926 42.22 205.566 39.88 205.626 37C205.626 36.08 205.846 35.22 206.306 34.42C206.746 33.64 207.386 33 208.186 32.54C208.986 32.08 209.866 31.86 210.826 31.86C212.006 31.86 213.006 32.16 213.846 32.8C214.686 33.42 215.206 34.18 215.426 35.06L213.426 35.72C213.306 35.3 213.066 34.9 212.666 34.5C212.266 34.12 211.606 33.86 210.826 33.86C210.006 33.86 209.306 34.16 208.746 34.72C208.186 35.3 207.906 36.06 207.906 36.98C207.906 37.9 208.186 38.66 208.726 39.26C209.286 39.86 210.006 40.16 210.846 40.16C212.106 40.16 212.986 39.52 213.466 38.26L215.486 38.92C215.266 39.72 214.766 40.46 214.006 41.1C213.246 41.76 212.106 42.18 210.806 42.18ZM226.294 37.68H218.734C218.774 39.16 220.214 40.3 221.654 40.28C222.934 40.28 223.914 39.74 224.294 38.6L226.154 39.18C225.794 40.4 224.794 41.38 223.594 41.84C222.974 42.06 222.354 42.18 221.674 42.18C218.814 42.24 216.414 39.9 216.474 37.02C216.474 36.08 216.694 35.22 217.114 34.44C217.554 33.64 218.134 33.02 218.914 32.56C219.674 32.1 220.534 31.86 221.474 31.86C222.994 31.86 224.174 32.32 225.034 33.28C225.894 34.22 226.334 35.46 226.334 37C226.334 37.24 226.314 37.48 226.294 37.68ZM221.494 33.76C220.814 33.76 220.214 33.96 219.734 34.38C219.254 34.78 218.954 35.32 218.854 36H224.074C224.034 35.32 223.774 34.78 223.294 34.36C222.794 33.96 222.194 33.76 221.494 33.76Z" fill="#111827"/>
<ellipse cx="36.3276" cy="35.5" rx="12.3276" ry="12.5" fill="url(#paint0_linear_2178_1220)"/>
<path d="M31.5508 36.822L35.6395 39.9366L42.9083 31.0376" stroke="white" stroke-width="2.3" stroke-linecap="round"/>
<defs>
<linearGradient id="paint0_linear_2178_1220" x1="24.6994" y1="44.1538" x2="51.4114" y2="41.1221" gradientUnits="userSpaceOnUse">
<stop stop-color="#6427FF"/>
<stop offset="1" stop-color="#7D51ED"/>
</linearGradient>
</defs>
</svg>
