<svg width="1920" height="1067" viewBox="0 0 1920 1067" fill="none" xmlns="http://www.w3.org/2000/svg">
<rect x="-1" width="1921" height="1067" fill="#08001C"/>
<mask id="mask0_2178_1044" style="mask-type:alpha" maskUnits="userSpaceOnUse" x="-1" y="0" width="1921" height="1067">
<rect opacity="0.7" x="-1" width="1921" height="1067" fill="url(#paint0_radial_2178_1044)"/>
</mask>
<g mask="url(#mask0_2178_1044)">
<g opacity="0.16">
<g opacity="0.8">
<path d="M150.805 -174V1157" stroke="white"/>
<path d="M300.234 -174V1157" stroke="white"/>
<path d="M447.531 -174V1157" stroke="white"/>
<path d="M596.961 -174V1157" stroke="white"/>
<path d="M747.459 -174V1157" stroke="white"/>
<path d="M896.891 -174V1157" stroke="white"/>
<path d="M1044.19 -174V1157" stroke="white"/>
<path d="M1193.62 -174V1157" stroke="white"/>
<path d="M1343.05 -174V1157" stroke="white"/>
<path d="M1492.48 -174V1157" stroke="white"/>
<path d="M1639.77 -174V1157" stroke="white"/>
<path d="M1789.21 -174V1157" stroke="white"/>
</g>
<g opacity="0.8">
<path d="M1921.56 121.659H2.44141" stroke="white"/>
<path d="M1921.56 271.09H2.44141" stroke="white"/>
<path d="M1921.56 420.521H2.44141" stroke="white"/>
<path d="M1921.56 569.951H2.44141" stroke="white"/>
<path d="M1921.56 719.382H2.44141" stroke="white"/>
<path d="M1921.56 868.812H2.44141" stroke="white"/>
<path d="M1921.56 1018.24H2.44141" stroke="white"/>
</g>
<circle cx="746.392" cy="121.659" r="3.20209" fill="white"/>
<circle cx="746.392" cy="271.09" r="3.20209" fill="white"/>
<circle cx="746.392" cy="420.52" r="3.20209" fill="white"/>
<circle cx="746.392" cy="569.951" r="3.20209" fill="white"/>
<circle cx="896.89" cy="569.951" r="3.20209" fill="white"/>
<circle cx="896.89" cy="420.52" r="3.20209" fill="white"/>
<circle cx="896.89" cy="271.09" r="3.20209" fill="white"/>
<circle cx="896.89" cy="121.659" r="3.20209" fill="white"/>
<circle cx="1042.05" cy="121.659" r="3.20209" fill="white"/>
<circle cx="1043.12" cy="271.09" r="3.20209" fill="white"/>
<circle cx="1039.92" cy="420.52" r="3.20209" fill="white"/>
<circle cx="1044.19" cy="569.951" r="3.20209" fill="white"/>
<circle cx="1192.55" cy="569.951" r="3.20209" fill="white"/>
<circle cx="1190.41" cy="420.52" r="3.20209" fill="white"/>
<circle cx="1191.48" cy="271.09" r="3.20209" fill="white"/>
<circle cx="1192.55" cy="121.659" r="3.20209" fill="white"/>
<circle cx="446.464" cy="121.659" r="3.20209" fill="white"/>
<circle cx="446.464" cy="271.09" r="3.20209" fill="white"/>
<circle cx="446.464" cy="420.52" r="3.20209" fill="white"/>
<circle cx="446.464" cy="569.951" r="3.20209" fill="white"/>
<circle cx="596.962" cy="569.951" r="3.20209" fill="white"/>
<circle cx="596.962" cy="420.52" r="3.20209" fill="white"/>
<circle cx="596.962" cy="271.09" r="3.20209" fill="white"/>
<circle cx="596.962" cy="121.659" r="3.20209" fill="white"/>
<circle cx="149.737" cy="121.659" r="3.20209" fill="white"/>
<circle cx="149.737" cy="271.09" r="3.20209" fill="white"/>
<circle cx="149.737" cy="420.52" r="3.20209" fill="white"/>
<circle cx="149.737" cy="569.951" r="3.20209" fill="white"/>
<circle cx="300.235" cy="569.951" r="3.20209" fill="white"/>
<circle cx="300.235" cy="420.52" r="3.20209" fill="white"/>
<circle cx="300.235" cy="271.09" r="3.20209" fill="white"/>
<circle cx="300.235" cy="121.659" r="3.20209" fill="white"/>
<circle cx="1341.98" cy="121.659" r="3.20209" fill="white"/>
<circle cx="1343.05" cy="271.09" r="3.20209" fill="white"/>
<circle cx="1340.91" cy="420.52" r="3.20209" fill="white"/>
<circle cx="1343.05" cy="569.951" r="3.20209" fill="white"/>
<circle cx="1493.55" cy="569.951" r="3.20209" fill="white"/>
<circle cx="1491.41" cy="420.52" r="3.20209" fill="white"/>
<circle cx="1492.48" cy="271.09" r="3.20209" fill="white"/>
<circle cx="1491.41" cy="121.659" r="3.20209" fill="white"/>
<circle cx="1638.71" cy="121.659" r="3.20209" fill="white"/>
<circle cx="1639.77" cy="271.09" r="3.20209" fill="white"/>
<circle cx="1638.71" cy="420.52" r="3.20209" fill="white"/>
<circle cx="1639.77" cy="569.951" r="3.20209" fill="white"/>
<circle cx="748.528" cy="719.382" r="3.20209" fill="white"/>
<circle cx="895.823" cy="719.382" r="3.20209" fill="white"/>
<circle cx="1044.19" cy="719.382" r="3.20209" fill="white"/>
<circle cx="1193.62" cy="719.382" r="3.20209" fill="white"/>
<circle cx="446.466" cy="719.382" r="3.20209" fill="white"/>
<circle cx="596.962" cy="719.382" r="3.20209" fill="white"/>
<circle cx="150.806" cy="719.382" r="3.20209" fill="white"/>
<circle cx="300.235" cy="719.382" r="3.20209" fill="white"/>
<circle cx="1343.05" cy="720.449" r="3.20209" fill="white"/>
<circle cx="1492.48" cy="719.382" r="3.20209" fill="white"/>
<circle cx="1638.71" cy="719.382" r="3.20209" fill="white"/>
<circle cx="1789.21" cy="719.382" r="3.20209" fill="white"/>
<circle cx="748.528" cy="868.812" r="3.20209" fill="white"/>
<circle cx="895.823" cy="868.812" r="3.20209" fill="white"/>
<circle cx="1044.19" cy="868.812" r="3.20209" fill="white"/>
<circle cx="1193.62" cy="868.812" r="3.20209" fill="white"/>
<circle cx="446.466" cy="868.812" r="3.20209" fill="white"/>
<circle cx="596.962" cy="868.812" r="3.20209" fill="white"/>
<circle cx="150.806" cy="868.812" r="3.20209" fill="white"/>
<circle cx="300.235" cy="868.812" r="3.20209" fill="white"/>
<circle cx="1343.05" cy="869.88" r="3.20209" fill="white"/>
<circle cx="1492.48" cy="868.812" r="3.20209" fill="white"/>
<circle cx="1638.71" cy="868.812" r="3.20209" fill="white"/>
<circle cx="1789.21" cy="868.812" r="3.20209" fill="white"/>
<circle cx="748.528" cy="1018.24" r="3.20209" fill="white"/>
<circle cx="895.823" cy="1018.24" r="3.20209" fill="white"/>
<circle cx="1044.19" cy="1018.24" r="3.20209" fill="white"/>
<circle cx="1193.62" cy="1018.24" r="3.20209" fill="white"/>
<circle cx="446.466" cy="1018.24" r="3.20209" fill="white"/>
<circle cx="596.962" cy="1018.24" r="3.20209" fill="white"/>
<circle cx="150.806" cy="1018.24" r="3.20209" fill="white"/>
<circle cx="300.235" cy="1018.24" r="3.20209" fill="white"/>
<circle cx="1343.05" cy="1019.31" r="3.20209" fill="white"/>
<circle cx="1492.48" cy="1018.24" r="3.20209" fill="white"/>
<circle cx="1638.71" cy="1018.24" r="3.20209" fill="white"/>
<circle cx="1789.21" cy="1018.24" r="3.20209" fill="white"/>
<circle cx="1789.2" cy="569.951" r="3.20209" fill="white"/>
<circle cx="1789.2" cy="420.52" r="3.20209" fill="white"/>
<circle cx="1789.2" cy="271.09" r="3.20209" fill="white"/>
<circle cx="1789.2" cy="121.659" r="3.20209" fill="white"/>
</g>
</g>
<defs>
<radialGradient id="paint0_radial_2178_1044" cx="0" cy="0" r="1" gradientUnits="userSpaceOnUse" gradientTransform="translate(959.5 533.5) rotate(90) scale(533.5 960.5)">
<stop stop-color="#F8FBFF"/>
<stop offset="1" stop-color="white" stop-opacity="0"/>
</radialGradient>
</defs>
</svg>
