<svg width="133" height="161" viewBox="0 0 133 161" fill="none" xmlns="http://www.w3.org/2000/svg">
<path d="M63.309 123.153L62.9427 121.979L62.3859 123.075L45.1557 157.008L26.3803 146.891L45.0773 113.27L45.685 112.177L44.4915 112.549L7.06519 124.225L0.757741 104.007L38.3636 92.2754L39.5411 91.908L38.4402 91.3518L3.55545 73.7266L13.3374 55.0156L61.2493 80.2506L61.6933 80.4844L61.9255 80.0396L86.99 32.0372L105.657 41.8111L86.9827 76.1445L86.3934 77.2281L87.5709 76.8607L125.183 65.1267L131.509 85.4023L94.0823 97.0783L92.8888 97.4506L94.01 98.0039L128.507 115.03L118.815 134.028L85.3474 115.912L84.2658 115.327L84.6321 116.501L96.1808 153.519L74.8577 160.171L63.309 123.153ZM42.5609 56.6468L27.1859 7.36389L48.509 0.711644L63.884 49.9945L42.5609 56.6468Z" stroke="url(#paint0_linear_2178_1902)" stroke-opacity="0.37"/>
<defs>
<linearGradient id="paint0_linear_2178_1902" x1="126.427" y1="263.137" x2="31.5571" y2="-16" gradientUnits="userSpaceOnUse">
<stop stop-color="white"/>
<stop offset="1" stop-color="white" stop-opacity="0.1"/>
</linearGradient>
</defs>
</svg>
